<svg width="24" height="24" viewBox="0 0 24 24" fill="none" xmlns="http://www.w3.org/2000/svg">
<path d="M8.5761 2C4.94422 2 2 4.94422 2 8.5761C2 11.7913 4.30741 14.4676 7.35665 15.0394C7.3933 14.2572 7.54121 13.5042 7.78491 12.7957C5.79143 12.4245 4.28223 10.6759 4.28223 8.5748C4.28223 6.20354 6.20451 4.28125 8.57577 4.28125C10.6771 4.28125 12.4258 5.79075 12.7967 7.78453C13.5049 7.54105 14.2576 7.39328 15.0394 7.35665C14.4676 4.30741 11.7913 2 8.5761 2Z" fill="black"/>
<path d="M8.18186 11.845C8.39923 11.406 8.65536 10.9896 8.94576 10.6002C8.82592 10.6219 8.70247 10.6332 8.57637 10.6332C8.31365 10.6332 8.06243 10.584 7.83139 10.4944L7.09953 11.5198C7.43205 11.6868 7.79675 11.7991 8.18186 11.845Z" fill="black"/>
<path d="M10.603 8.94369C10.9918 8.65391 11.4077 8.39831 11.8461 8.18135C11.8411 8.13989 11.8354 8.09867 11.829 8.0577L10.6321 8.44368C10.6348 8.48659 10.6361 8.52986 10.6361 8.57344C10.6361 8.69984 10.6248 8.82358 10.603 8.94369Z" fill="black"/>
<path d="M5.32269 8.05705C5.29606 8.22572 5.28223 8.39864 5.28223 8.5748C5.28223 9.48874 5.65449 10.3157 6.25566 10.9124L6.98855 9.88558C6.69376 9.52925 6.5166 9.07203 6.5166 8.57344C6.5166 8.52976 6.51796 8.48639 6.52064 8.44338L5.32269 8.05705Z" fill="black"/>
<path d="M5.6459 7.06886L6.84587 7.45584C7.12218 7.02888 7.55221 6.71067 8.05762 6.57955V5.32178C7.00436 5.48822 6.11713 6.1539 5.6459 7.06886Z" fill="black"/>
<path d="M9.09731 5.32231C10.1493 5.48968 11.0353 6.15517 11.506 7.06945L10.307 7.4561C10.0311 7.02962 9.60187 6.71161 9.09731 6.58012V5.32231Z" fill="black"/>
<path d="M8.57637 8.01367C8.26722 8.01367 8.0166 8.26429 8.0166 8.57344C8.0166 8.88259 8.26722 9.13321 8.57637 9.13321C8.88552 9.13321 9.13614 8.88259 9.13614 8.57344C9.13614 8.26429 8.88552 8.01367 8.57637 8.01367Z" fill="black"/>
<path d="M14.3806 13.6485L13.4902 12.758C14.6399 11.9217 16.2085 11.9216 17.3584 12.7576L16.4685 13.6474C15.8261 13.2697 15.0228 13.27 14.3806 13.6485Z" fill="black"/>
<path d="M17.2033 14.383L18.0932 13.4932C18.9266 14.642 18.9264 16.2076 18.0925 17.3562L17.2027 16.4664C17.5792 15.8253 17.5794 15.0243 17.2033 14.383Z" fill="black"/>
<path d="M17.3575 18.0915L16.4675 17.2015C15.8265 17.5779 15.0255 17.5781 14.3843 17.202L13.4934 18.0929C14.6426 18.9266 16.2088 18.9261 17.3575 18.0915Z" fill="black"/>
<path d="M13.6488 16.4672L12.7579 17.3581C11.9228 16.2095 11.922 14.6431 12.7555 13.4937L13.6466 14.3848C13.2713 15.026 13.2721 15.8266 13.6488 16.4672Z" fill="black"/>
<path d="M15.0297 15.0283C15.2483 14.8097 15.6027 14.8097 15.8213 15.0283C16.0399 15.2469 16.0399 15.6014 15.8213 15.82C15.6027 16.0386 15.2483 16.0386 15.0297 15.82C14.811 15.6014 14.811 15.2469 15.0297 15.0283Z" fill="black"/>
<path fill-rule="evenodd" clip-rule="evenodd" d="M20.0738 10.774C17.5057 8.2059 13.3419 8.2059 10.7738 10.774C8.20569 13.3422 8.20569 17.5059 10.7738 20.074C13.3419 22.6422 17.5057 22.6422 20.0738 20.074C22.642 17.5059 22.642 13.3422 20.0738 10.774ZM18.4605 12.3883C16.7838 10.7115 14.0653 10.7115 12.3885 12.3883C10.7118 14.065 10.7118 16.7835 12.3885 18.4603C14.0653 20.137 16.7838 20.137 18.4605 18.4603C20.1372 16.7835 20.1372 14.065 18.4605 12.3883Z" fill="black"/>
</svg>
