<svg width="24" height="24" viewBox="0 0 24 24" fill="none" xmlns="http://www.w3.org/2000/svg">
<path d="M9.93248 18.1641C9.00945 17.855 8.14197 17.333 7.40576 16.5968C4.86735 14.0584 4.86735 9.94284 7.40576 7.40443C7.61117 7.19902 7.82668 7.01039 8.05064 6.83846V9.68725H9.55064L9.55064 4.37386L4.23724 4.37386L4.23724 5.87386L6.85709 5.87386C6.68128 6.0218 6.51042 6.17844 6.3451 6.34377C3.2209 9.46796 3.2209 14.5333 6.3451 17.6575C7.37493 18.6873 8.6175 19.3786 9.93192 19.7294C9.9304 19.3219 9.93112 18.7169 9.93248 18.1641Z" fill="black"/>
<path d="M17.0531 18.2051L19.6862 18.2051V19.7051H14.3728L14.3728 14.3917L15.8728 14.3917L15.8728 17.2235C16.1258 17.0355 16.3683 16.8267 16.5981 16.5968C19.1366 14.0584 19.1366 9.94284 16.5981 7.40443C15.8434 6.64971 14.9508 6.1201 14.0017 5.81428V4.25342C15.3421 4.59819 16.6106 5.29561 17.6588 6.34377C20.783 9.46796 20.783 14.5333 17.6588 17.6575C17.4642 17.8521 17.262 18.0346 17.0531 18.2051Z" fill="black"/>
</svg>
