<svg width="24" height="24" viewBox="0 0 24 24" fill="none" xmlns="http://www.w3.org/2000/svg">
<path d="M18.2275 6.5C20.449 6.5 22.25 8.30095 22.25 10.5225C22.25 12.7441 20.449 14.5451 18.2275 14.5451L8.39918 14.5451C6.99115 14.5451 5.84972 13.4037 5.84972 11.9956C5.84972 10.5876 6.99115 9.44617 8.39918 9.44617L18.293 9.44617V10.9462L8.39918 10.9462C7.81958 10.9462 7.34972 11.416 7.34972 11.9956C7.34972 12.5752 7.81958 13.0451 8.39918 13.0451L18.2275 13.0451C19.6206 13.0451 20.75 11.9157 20.75 10.5225C20.75 9.12938 19.6206 8 18.2275 8L7.25 8C5.04086 8 3.25 9.79086 3.25 12C3.25 14.2091 5.04086 16 7.25 16L18.293 16V17.5L7.25 17.5C4.21243 17.5 1.75 15.0376 1.75 12C1.75 8.96243 4.21243 6.5 7.25 6.5L18.2275 6.5Z" fill="black"/>
</svg>
