<svg width="24" height="24" viewBox="0 0 24 24" fill="none" xmlns="http://www.w3.org/2000/svg">
<path d="M5.53067 4.75C5.53067 3.50736 6.53803 2.5 7.78067 2.5H19.2506C20.4933 2.5 21.5006 3.50736 21.5006 4.75V16.2154C21.5006 17.4581 20.4933 18.4654 19.2506 18.4654H7.78067C6.53803 18.4654 5.53067 17.4581 5.53067 16.2154V4.75ZM17.6457 4H12.3803V11.629L15.0162 10.0674L17.6457 11.6001V4Z" fill="black"/>
<path d="M18.474 20H6.24902C5.00638 20 3.99902 18.9926 3.99902 17.75V5.52277H2.49902V17.75C2.49902 19.8211 4.17796 21.5 6.24902 21.5H18.474V20Z" fill="black"/>
</svg>
