<svg width="24" height="24" viewBox="0 0 24 24" fill="none" xmlns="http://www.w3.org/2000/svg">
<path d="M1.5 6.44258C1.5 4.06775 3.42518 2.14258 5.8 2.14258H18.2C20.5748 2.14258 22.5 4.06775 22.5 6.44258C22.5 8.8174 20.5748 10.7426 18.2 10.7426H13.5609V7.48698C13.5609 5.79632 12.1903 4.42578 10.4997 4.42578C8.80902 4.42578 7.43848 5.79633 7.43848 7.48698V10.7426H5.8C3.42518 10.7426 1.5 8.8174 1.5 6.44258ZM19.788 5.41515L18.7273 4.35449L16.5324 6.54935L15.4788 5.49537L14.418 6.55586L16.5323 8.67083L19.788 5.41515Z" fill="black"/>
<path d="M8.6875 21.8574H17.7812V20.3574H8.6875V21.8574Z" fill="black"/>
<path d="M8.68899 7.48698C8.68899 6.48668 9.49989 5.67578 10.5002 5.67578C11.5005 5.67578 12.3114 6.48668 12.3114 7.48698V11.6396L15.8036 12.0614C16.9337 12.1979 17.7838 13.1569 17.7838 14.2952V18.8638H9.60735C9.07739 18.8638 8.56444 18.6767 8.15889 18.3356L5.60548 16.1875C4.85839 15.559 4.75389 14.4473 5.37078 13.6906C5.87237 13.0753 6.71968 12.8646 7.45102 13.1733L8.68899 13.6958V7.48698Z" fill="black"/>
</svg>
