<svg width="24" height="24" viewBox="0 0 24 24" fill="none" xmlns="http://www.w3.org/2000/svg">
<path d="M0.84375 1.43335H11.9434V6.25732H11.9453V7.75732H11.9434V11.0596H11.9453V12.5596H11.9434V15.916H11.9453V17.416H11.9434V20.686H11.9453V22.186H0.84375V1.43335ZM10.4434 2.93335H7.14453V6.25732H10.4434V2.93335ZM5.64453 2.93335H2.34375V6.25732H5.64453V2.93335ZM5.64453 7.75732H2.34375V11.0596H5.64453V7.75732ZM2.34375 15.916H5.64453V12.5596H2.34375V15.916ZM2.34375 17.416V20.686H5.64453V17.416H2.34375ZM7.14453 17.416V20.686H10.4434V17.416L7.14453 17.416ZM10.4434 15.916V12.5596L7.14453 12.5596V15.916L10.4434 15.916ZM7.14453 11.0596L10.4434 11.0596V7.75732H7.14453V11.0596Z" fill="black"/>
<path d="M13.4453 6.25732V11.0596H15.082V12.5596H13.4453V15.916H15.082V17.416H13.4453V22.186H23.1621V6.25732H13.4453ZM18.5781 12.5596H17.0781V11.0596H18.5781V12.5596ZM18.5781 17.416H17.0781V15.916H18.5781V17.416Z" fill="black"/>
</svg>
