<svg width="24" height="24" viewBox="0 0 24 24" fill="none" xmlns="http://www.w3.org/2000/svg">
<path d="M7.58105 3.98853H16.4189V2.01001H17.9189V3.98853H18.75C19.9922 3.98853 21 4.99585 21 6.23853V13.8831L19.5 12.6282V9.56226H4.5V19.7385C4.5 20.1526 4.83594 20.4885 5.25 20.4885H12.7695L12.7676 21.5745C12.7676 21.717 12.7783 21.8552 12.7988 21.9885H5.25C4.00781 21.9885 3 20.9812 3 19.7385V6.23853C3 4.99585 4.00781 3.98853 5.25 3.98853H6.08105V2.01001H7.58105V3.98853Z" fill="black"/>
<path d="M6.75 12.01H11.75V17.01H6.75V12.01Z" fill="black"/>
<path d="M14.7676 21.5774C14.7676 22.0164 15.292 22.2429 15.6104 21.9421L17.3359 20.3157L19.0156 23.9172L21.7344 22.6492L20.0547 19.0471L22.4111 18.7708C22.8467 18.72 23.0107 18.1721 22.6738 17.8909L15.6025 11.9749C15.3379 11.7532 14.96 11.866 14.8281 12.1448C14.7988 12.2078 14.7822 12.2795 14.7822 12.3577L14.7676 21.5774Z" fill="black"/>
</svg>
