<svg width="24" height="24" viewBox="0 0 24 24" fill="none" xmlns="http://www.w3.org/2000/svg">
<path d="M10.9367 18.1076L16.3971 12.6473L15.3364 11.5867L10.9361 15.9869L8.73971 13.7931L7.67969 14.8544L10.9367 18.1076Z" fill="black"/>
<path d="M7.58105 3.98926H16.4189V2.01074H17.9189V3.98926H18.75C19.9926 3.98926 21 4.99662 21 6.23926V19.7393C21 20.9819 19.9926 21.9893 18.75 21.9893H5.25C4.00736 21.9893 3 20.9819 3 19.7393V6.23926C3 4.99662 4.00736 3.98926 5.25 3.98926H6.08105V2.01074H7.58105V3.98926ZM4.5 19.7393C4.5 20.1535 4.83579 20.4893 5.25 20.4893H18.75C19.1642 20.4893 19.5 20.1535 19.5 19.7393V9.56299H4.5V19.7393Z" fill="black"/>
</svg>
