<svg width="24" height="24" viewBox="0 0 24 24" fill="none" xmlns="http://www.w3.org/2000/svg">
<path d="M8.86035 18.669H11.5486C12.2872 18.669 12.9252 18.5246 13.4626 18.2357C14 17.9445 14.4131 17.5267 14.702 16.9822C14.9932 16.4377 15.1388 15.7866 15.1388 15.0291C15.1388 14.2738 14.9932 13.6252 14.702 13.083C14.4108 12.5385 13.9965 12.1219 13.4591 11.833C12.924 11.5418 12.286 11.3962 11.545 11.3962H8.86035V18.669ZM11.4811 17.1704H10.6182V12.8948H11.4562C11.8729 12.8948 12.2233 12.9647 12.5074 13.1043C12.7938 13.2416 13.0104 13.4666 13.1572 13.7791C13.304 14.0892 13.3774 14.5059 13.3774 15.0291C13.3774 15.5523 13.304 15.9713 13.1572 16.2862C13.0128 16.5987 12.7986 16.8247 12.5145 16.9644C12.2327 17.1017 11.8883 17.1704 11.4811 17.1704Z" fill="black"/>
<path d="M7.58105 3.98901H16.4189V2.01074H17.9189V3.98901H18.75C19.9926 3.98901 21 4.99637 21 6.23901V19.739C21 20.9817 19.9926 21.989 18.75 21.989H5.25C4.00736 21.989 3 20.9817 3 19.739V6.23901C3 4.99637 4.00736 3.98901 5.25 3.98901H6.08105V2.01074H7.58105V3.98901ZM4.5 19.739C4.5 20.1532 4.83579 20.489 5.25 20.489H18.75C19.1642 20.489 19.5 20.1532 19.5 19.739V9.56274H4.5V19.739Z" fill="black"/>
</svg>
