<svg width="24" height="24" viewBox="0 0 24 24" fill="none" xmlns="http://www.w3.org/2000/svg">
<path d="M9.29871 2.96802H14.7013L16.7385 5.21281H19.7295C20.9721 5.21281 21.9795 6.22017 21.9795 7.46281V18.7819C21.9795 20.0245 20.9721 21.0319 19.7295 21.0319H4.27051C3.02787 21.0319 2.02051 20.0245 2.02051 18.7819V7.46281C2.02051 6.22017 3.02787 5.21281 4.27051 5.21281H7.26154L9.29871 2.96802ZM7.87891 13.0752C7.87891 15.3533 9.72559 17.2002 12.0039 17.2002C14.2822 17.2002 16.1289 15.3533 16.1289 13.0752C16.1289 10.7971 14.2822 8.9502 12.0039 8.9502C9.72559 8.9502 7.87891 10.7971 7.87891 13.0752Z" fill="black"/>
</svg>
