<svg width="24" height="24" viewBox="0 0 24 24" fill="none" xmlns="http://www.w3.org/2000/svg">
<path d="M21.3779 23.1781L19.2931 21.0932H4.27148C3.02884 21.0932 2.02148 20.0859 2.02148 18.8432V7.52417C2.02148 6.52208 2.67658 5.673 3.58188 5.38182L1.16113 2.96104L2.2218 1.90039L22.4386 22.1174L21.3779 23.1781ZM14.6731 16.4731L13.6068 15.4069C13.1636 15.7488 12.608 15.9522 12.0049 15.9522C10.5551 15.9522 9.37988 14.7769 9.37988 13.3272C9.37988 12.7241 9.58327 12.1685 9.92521 11.7252L8.85895 10.659C8.24827 11.3783 7.87988 12.3097 7.87988 13.3272C7.87988 15.6054 9.72671 17.4522 12.0049 17.4522C13.0223 17.4522 13.9538 17.0838 14.6731 16.4731Z" fill="black"/>
<path d="M14.7021 3.0293H9.29955L7.85703 4.62414L7.85449 4.62164L12.4306 9.2247C14.3766 9.42408 15.9218 10.9765 16.1101 12.9258L21.9803 18.8306V7.52409C21.9803 6.28145 20.973 5.27409 19.7303 5.27409H16.7393L14.7021 3.0293Z" fill="black"/>
</svg>
