<svg width="24" height="24" viewBox="0 0 24 24" fill="none" xmlns="http://www.w3.org/2000/svg">
<path d="M6.67773 15.8398C9.81346 15.8398 12.3555 13.2978 12.3555 10.1621C12.3555 7.02638 9.81346 4.48438 6.67773 4.48438C3.54201 4.48438 1 7.02638 1 10.1621C1 13.2978 3.54201 15.8398 6.67773 15.8398ZM9.86184 8.97863L5.9034 12.9371L3.49414 10.5289L4.55456 9.46799L5.90316 10.816L8.80118 7.91797L9.86184 8.97863Z" fill="black"/>
<path d="M13.3463 17.2656H7.71484C11.1885 16.7635 13.8564 13.7742 13.8564 10.1621C13.8564 8.50573 13.2954 6.9803 12.3529 5.76562H12.6305C13.2272 5.76562 13.7995 6.00268 14.2215 6.42463L17.6215 9.82472L20.7911 10.4586C22.0765 10.7157 23.0018 11.8444 23.0018 13.1552V16.5156C23.0018 16.9298 22.666 17.2656 22.2518 17.2656H19.1573C18.8242 18.5595 17.6497 19.5156 16.2518 19.5156C14.8539 19.5156 13.6793 18.5595 13.3463 17.2656ZM17.7518 16.5156C17.7518 15.6872 17.0802 15.0156 16.2518 15.0156C15.4234 15.0156 14.7518 15.6872 14.7518 16.5156C14.7518 17.3441 15.4234 18.0156 16.2518 18.0156C17.0802 18.0156 17.7518 17.3441 17.7518 16.5156Z" fill="black"/>
</svg>
