<svg width="24" height="24" viewBox="0 0 24 24" fill="none" xmlns="http://www.w3.org/2000/svg">
<path d="M11.9519 1.896C9.77933 1.90554 8.49503 2.29225 7.49354 3.10205C6.8145 3.65112 6.50486 4.26916 6.38601 5.03012C6.30504 5.54856 6.31128 6.17341 6.31822 6.86851C6.32175 7.22185 6.32233 7.57514 6.32233 7.92849L2.63672 11.608L3.6965 12.6695L6.32233 10.0481V12.9832H6.32022V13.7663L2.63672 17.4437L3.6965 18.5052L6.32022 15.8858C6.32022 16.1515 6.32081 16.4172 6.3214 16.6829C6.32268 17.2634 6.32396 17.8439 6.31912 18.4243C6.31563 18.8433 6.3114 19.3515 6.43332 19.8125C6.59512 20.4243 6.9634 20.9474 7.64958 21.3535C8.6688 21.9566 9.86735 22.1006 11.954 22.1041L12.0327 22.1041C14.1194 22.1007 15.3179 21.9566 16.3371 21.3535C17.0233 20.9474 17.3916 20.4243 17.5534 19.8125C17.6753 19.3515 17.6711 18.8433 17.6676 18.4243C17.6627 17.841 17.664 17.2575 17.6653 16.6741L17.6653 16.6728C17.6659 16.4061 17.6665 16.1393 17.6665 15.8726L20.3035 18.5052L21.3633 17.4437L17.6665 13.753V12.9832H17.6644V10.0348L20.3035 12.6695L21.3633 11.608L17.6644 7.91522C17.6644 7.56629 17.665 7.21742 17.6685 6.86851C17.6754 6.17341 17.6817 5.54856 17.6007 5.03012C17.4818 4.26916 17.1722 3.65112 16.4932 3.10205C15.4917 2.29225 14.2074 1.90554 12.0348 1.896H11.9519ZM12.0211 6.4978C12.8849 6.4978 13.7538 6.55482 14.392 6.60994C14.9416 6.6574 15.3292 7.15465 15.2611 7.70202L14.9803 9.95731C14.9486 10.2119 14.7293 10.4012 14.4728 10.3954L12.0211 10.3399L9.56952 10.3954C9.31301 10.4012 9.09374 10.2119 9.06203 9.95731L8.78121 7.70202C8.71305 7.15465 9.1007 6.6574 9.65026 6.60994C10.2885 6.55482 11.1574 6.4978 12.0211 6.4978ZM9.69775 18.4615C9.13012 18.4133 8.73855 17.8872 8.8349 17.3257L9.08088 15.8923C9.10539 15.7495 9.16577 15.6146 9.29246 15.5442C9.57979 15.3846 10.303 15.1363 12.0214 15.1363C13.7398 15.1363 14.463 15.3846 14.7503 15.5442C14.877 15.6146 14.9374 15.7495 14.9619 15.8923L15.2079 17.3257C15.3042 17.8872 14.9126 18.4133 14.345 18.4615C13.7115 18.5153 12.864 18.5696 12.0214 18.5696C11.1788 18.5696 10.3312 18.5153 9.69775 18.4615Z" fill="black"/>
</svg>
