<svg width="24" height="24" viewBox="0 0 24 24" fill="none" xmlns="http://www.w3.org/2000/svg">
<path d="M15.6484 6.3877C15.6484 7.07805 15.0888 7.6377 14.3984 7.6377C13.7081 7.6377 13.1484 7.07805 13.1484 6.3877C13.1484 5.69734 13.7081 5.1377 14.3984 5.1377C15.0888 5.1377 15.6484 5.69734 15.6484 6.3877Z" fill="black"/>
<path d="M9.60156 7.6377C10.2919 7.6377 10.8516 7.07805 10.8516 6.3877C10.8516 5.69734 10.2919 5.1377 9.60156 5.1377C8.91121 5.1377 8.35156 5.69734 8.35156 6.3877C8.35156 7.07805 8.91121 7.6377 9.60156 7.6377Z" fill="black"/>
<path d="M11.6504 3.28418C11.7696 3.28418 11.8861 3.28439 12 3.2848C12.1139 3.28439 12.2304 3.28418 12.3496 3.28418V3.28674C14.0345 3.29941 15.1114 3.3572 15.7868 3.41666C16.1695 3.45035 16.4272 3.48491 16.5962 3.51302C16.6809 3.52712 16.7444 3.53978 16.7912 3.5502C16.8146 3.55543 16.834 3.56015 16.85 3.56427L16.8715 3.57003L16.8805 3.57259L16.8846 3.57378L16.8866 3.57436L16.9876 3.60504L17.0754 3.66034L17.0771 3.66141L17.0797 3.66306L17.0859 3.66712L17.1029 3.67833C17.116 3.68719 17.133 3.69881 17.1533 3.71327C17.1938 3.74217 17.248 3.78248 17.3125 3.83466C17.4414 3.93887 17.613 4.09128 17.8013 4.2956C18.1779 4.70432 18.625 5.32479 18.927 6.18339C18.9875 6.35546 19.0425 6.51684 19.0925 6.66785C19.2919 6.53321 19.5323 6.45459 19.791 6.45459H20.7637C21.454 6.45459 22.0137 7.01423 22.0137 7.70459C22.0137 8.34842 21.5269 8.87856 20.9013 8.94709C21.2808 9.26711 21.6538 9.66048 21.9168 10.1208L22.0156 10.2937V18.9653C22.0156 19.9318 21.2321 20.7153 20.2656 20.7153H18.9043C17.9378 20.7153 17.1543 19.9318 17.1543 18.9653V17.6152H6.8457V18.9653C6.8457 19.9318 6.0622 20.7153 5.0957 20.7153H3.73438C2.76788 20.7153 1.98438 19.9318 1.98438 18.9653V10.2937L2.08319 10.1208C2.34618 9.66057 2.71901 9.26727 3.09845 8.94728C2.47203 8.87954 1.98438 8.34902 1.98438 7.70459C1.98438 7.01423 2.54402 6.45459 3.23438 6.45459H4.20703C4.46646 6.45459 4.70744 6.53362 4.90719 6.66893C4.95724 6.51761 5.01235 6.35587 5.07301 6.18339C5.37496 5.32479 5.82209 4.70432 6.19872 4.2956C6.387 4.09128 6.55856 3.93887 6.68748 3.83466C6.75203 3.78248 6.80617 3.74217 6.84674 3.71327C6.86703 3.69881 6.88397 3.68719 6.89715 3.67833L6.91407 3.66712L6.92034 3.66306L6.92291 3.66141L6.92459 3.66034L7.01244 3.60486L7.11341 3.57436L7.11536 3.57378L7.11946 3.57259L7.12847 3.57003L7.14999 3.56427C7.16595 3.56015 7.18539 3.55543 7.20882 3.5502C7.25557 3.53978 7.31912 3.52712 7.40383 3.51302C7.57282 3.48491 7.83046 3.45035 8.21315 3.41666C8.8886 3.3572 9.96547 3.29941 11.6504 3.28674V3.28418ZM8.3447 4.91088C7.99146 4.94198 7.77306 4.97221 7.65 4.99269L7.63866 4.99459L7.63041 5.00123C7.5513 5.06517 7.43456 5.168 7.30179 5.31208C7.03631 5.60018 6.71028 6.04914 6.48805 6.68104C6.32592 7.14204 6.20774 7.51603 6.12219 7.80999H17.8778C17.7923 7.51603 17.6741 7.14204 17.512 6.68104C17.2897 6.04914 16.9637 5.60018 16.6982 5.31208C16.5654 5.168 16.4487 5.06517 16.3696 5.00123L16.3613 4.99459L16.35 4.99269C16.2269 4.97221 16.0085 4.94198 15.6553 4.91088C14.9889 4.85221 13.8562 4.79163 12 4.78481C10.1438 4.79163 9.01111 4.85221 8.3447 4.91088ZM3.23438 7.45459C3.0963 7.45459 2.98438 7.56652 2.98438 7.70459C2.98438 7.84266 3.0963 7.95459 3.23438 7.95459H4.20703C4.3451 7.95459 4.45703 7.84266 4.45703 7.70459C4.45703 7.56652 4.3451 7.45459 4.20703 7.45459H3.23438ZM19.791 7.45459C19.6529 7.45459 19.541 7.56652 19.541 7.70459C19.541 7.84266 19.6529 7.95459 19.791 7.95459H20.7637C20.9017 7.95459 21.0137 7.84266 21.0137 7.70459C21.0137 7.56652 20.9017 7.45459 20.7637 7.45459H19.791ZM5.39966 10.8192C4.86285 10.6032 4.34607 11.1697 4.61038 11.6845L5.14386 12.7234C5.25089 12.9319 5.46553 13.0629 5.69985 13.0629H9.03958C9.21919 13.0629 9.37359 12.9356 9.40774 12.7592C9.44188 12.5829 9.34619 12.4071 9.17955 12.34L5.39966 10.8192ZM18.6003 10.8192L14.8204 12.34C14.6538 12.4071 14.5581 12.5829 14.5923 12.7592C14.6264 12.9356 14.7808 13.0629 14.9604 13.0629H18.3002C18.5345 13.0629 18.7491 12.9319 18.8561 12.7234L19.3896 11.6845C19.6539 11.1697 19.1371 10.6032 18.6003 10.8192ZM7.06946 15.4454C6.94952 15.5422 6.82031 15.7087 6.82031 16.0638V16.1138H17.1797V16.0638C17.1797 15.7087 17.0505 15.5422 16.9305 15.4454C16.7875 15.3301 16.6047 15.2779 16.494 15.2676H7.50603C7.39527 15.2779 7.21253 15.3301 7.06946 15.4454Z" fill="black"/>
</svg>
