<svg width="24" height="24" viewBox="0 0 24 24" fill="none" xmlns="http://www.w3.org/2000/svg">
<path d="M8.50421 9.60941L9.10853 7.94141H14.8907L15.4951 9.60941H8.50421Z" fill="black"/>
<path d="M9.6024 12.9148C10.0214 12.9148 10.3611 12.5751 10.3611 12.1561C10.3611 11.7371 10.0214 11.3975 9.6024 11.3975C9.18341 11.3975 8.84375 11.7371 8.84375 12.1561C8.84375 12.5751 9.18341 12.9148 9.6024 12.9148Z" fill="black"/>
<path d="M15.1544 12.1561C15.1544 12.5751 14.8147 12.9148 14.3957 12.9148C13.9767 12.9148 13.6371 12.5751 13.6371 12.1561C13.6371 11.7371 13.9767 11.3975 14.3957 11.3975C14.8147 11.3975 15.1544 11.7371 15.1544 12.1561Z" fill="black"/>
<path d="M21 4.89363L12 1.97168L3 4.89363V11.6118C3 13.5947 3.89991 15.891 5.41681 17.8202C6.94161 19.7594 9.14557 21.3995 11.8384 21.9927L11.9997 22.0282L12.161 21.9927C14.8538 21.3995 17.0579 19.7594 18.5829 17.8202C20.0999 15.891 21 13.5947 21 11.6118V4.89363ZM15.4884 15.156V14.7324H8.51089V15.156C8.51089 15.5564 8.1863 15.881 7.78589 15.881H7.53555C7.13507 15.881 6.81045 15.5563 6.81055 15.1558L6.81166 10.6115L7.96314 7.43319C8.12445 6.98796 8.54731 6.69141 9.02087 6.69141H14.9784C15.452 6.69141 15.8748 6.98796 16.0361 7.43319L17.1876 10.6115L17.1887 15.1558C17.1888 15.5563 16.8642 15.881 16.4637 15.881H16.2134C15.813 15.881 15.4884 15.5564 15.4884 15.156Z" fill="black"/>
</svg>
