<svg width="24" height="24" viewBox="0 0 24 24" fill="none" xmlns="http://www.w3.org/2000/svg">
<path d="M12.6807 2.76953C13.1491 2.76953 13.6059 2.91574 13.9873 3.18777L18.0652 6.09654L21.0369 6.63451L21.0503 6.6372C21.68 6.76315 22.168 7.17249 22.4856 7.6295C22.8039 8.08747 22.9993 8.65857 22.9993 9.22366V12.1734C22.9993 12.5876 22.6635 12.9234 22.2493 12.9234H20.0449V12.1858C20.0449 11.1374 19.1951 10.2876 18.1467 10.2876C17.0984 10.2876 16.2485 11.1374 16.2485 12.1858V12.9234H8.19141V12.1858C8.19141 11.1374 7.34156 10.2876 6.29321 10.2876C5.24487 10.2876 4.39502 11.1374 4.39502 12.1858V12.9233L1.75008 12.9234C1.55115 12.9235 1.36037 12.8444 1.2197 12.7038C1.07903 12.5631 1 12.3724 1 12.1734V8.08486C1 7.53519 1.20121 7.00453 1.56566 6.59305L4.28061 3.52772C4.70765 3.04556 5.32086 2.76953 5.96495 2.76953H12.6807ZM10.5442 4.26953V6.08691L10.545 6.83691H16.5216L13.117 4.40894C12.9899 4.31827 12.8368 4.26953 12.6807 4.26953H10.5442ZM5.96495 4.26953C5.75025 4.26953 5.54578 4.36154 5.40343 4.52226L3.35352 6.83691L9.04411 6.83691V4.26953H5.96495Z" fill="black"/>
<path d="M20.0076 15.2378H1V17.4844C1.41406 17.4844 1.76172 17.8203 1.76172 18.2344C1.76172 18.46 1.66211 18.6621 1.50391 18.7998C1.37305 18.9146 1.18945 18.9844 1 18.9844V21.2305H20.0076C21.6624 21.2305 23.0039 19.889 23.0039 18.2341C23.0039 16.5793 21.6624 15.2378 20.0076 15.2378ZM4.80469 18.2344C4.80469 18.6484 4.46875 18.9844 4.05469 18.9844C3.86719 18.9844 3.69531 18.9155 3.56445 18.8018C3.4043 18.6646 3.30469 18.4609 3.30469 18.2344C3.30469 18.1392 3.32227 18.0483 3.35547 17.9644C3.43164 17.7632 3.59375 17.604 3.79883 17.5298C3.87891 17.5005 3.96484 17.4844 4.05469 17.4844C4.46875 17.4844 4.80469 17.8203 4.80469 18.2344ZM7.84766 18.2344C7.84766 18.6484 7.51172 18.9844 7.09766 18.9844C7.02539 18.9844 6.95508 18.9741 6.88867 18.9551C6.79688 18.9277 6.71094 18.8833 6.63672 18.8247C6.46094 18.6875 6.34766 18.4741 6.34766 18.2344C6.34766 18.1108 6.37695 17.9946 6.42969 17.8921C6.47266 17.8101 6.5293 17.7373 6.59766 17.6763C6.63086 17.646 6.66797 17.6187 6.70703 17.5947C6.82031 17.5249 6.95508 17.4844 7.09766 17.4844C7.28711 17.4844 7.45898 17.5542 7.58984 17.6694C7.74805 17.8071 7.84766 18.0093 7.84766 18.2344ZM10.8906 18.2344C10.8906 18.6484 10.5547 18.9844 10.1406 18.9844C9.72656 18.9844 9.39062 18.6484 9.39062 18.2344C9.39062 17.8203 9.72656 17.4844 10.1406 17.4844C10.3984 17.4844 10.625 17.6147 10.7598 17.813C10.8418 17.9331 10.8906 18.0781 10.8906 18.2344ZM13.707 18.7705C13.5723 18.9028 13.3867 18.9844 13.1836 18.9844C12.7695 18.9844 12.4336 18.6484 12.4336 18.2344C12.4336 17.8203 12.7695 17.4844 13.1836 17.4844C13.5977 17.4844 13.9336 17.8203 13.9336 18.2344C13.9336 18.4443 13.8477 18.6343 13.707 18.7705ZM16.9766 18.2344C16.9766 18.6484 16.6406 18.9844 16.2266 18.9844C15.8125 18.9844 15.4766 18.6484 15.4766 18.2344C15.4766 18.0098 15.5742 17.8081 15.7305 17.6709C15.8633 17.5547 16.0371 17.4844 16.2266 17.4844C16.418 17.4844 16.5938 17.5571 16.7266 17.6763C16.8809 17.8135 16.9766 18.0127 16.9766 18.2344ZM19.5801 18.915C19.4844 18.9595 19.377 18.9844 19.2656 18.9844C18.8516 18.9844 18.5156 18.6484 18.5156 18.2344C18.5156 17.8203 18.8516 17.4844 19.2656 17.4844C19.6797 17.4844 20.0156 17.8203 20.0156 18.2344C20.0156 18.4229 19.9453 18.5957 19.8301 18.7275C19.7617 18.8066 19.6758 18.8706 19.5801 18.915Z" fill="black"/>
</svg>
