<svg width="24" height="24" viewBox="0 0 24 24" fill="none" xmlns="http://www.w3.org/2000/svg">
<path d="M6.67578 15.8398C9.81151 15.8398 12.3535 13.2978 12.3535 10.1621C12.3535 7.02638 9.81151 4.48438 6.67578 4.48438C3.54006 4.48438 0.998047 7.02638 0.998047 10.1621C0.998047 13.2978 3.54006 15.8398 6.67578 15.8398ZM5.5463 12.2752L6.90947 10.9121L4.14844 10.9121V9.41206L6.91039 9.41205L5.5463 8.04796L6.60696 6.9873L9.78125 10.1616L6.60696 13.3359L5.5463 12.2752Z" fill="black"/>
<path d="M13.3444 17.2656H7.71289C11.1866 16.7635 13.8545 13.7742 13.8545 10.1621C13.8545 8.50573 13.2935 6.9803 12.351 5.76562H12.6285C13.2253 5.76562 13.7976 6.00268 14.2195 6.42463L17.6196 9.82472L20.7892 10.4586C22.0746 10.7157 22.9998 11.8444 22.9998 13.1552V16.5156C22.9998 16.9298 22.6641 17.2656 22.2498 17.2656H19.1553C18.8223 18.5595 17.6477 19.5156 16.2498 19.5156C14.852 19.5156 13.6774 18.5595 13.3444 17.2656ZM17.7498 16.5156C17.7498 15.6872 17.0783 15.0156 16.2498 15.0156C15.4214 15.0156 14.7498 15.6872 14.7498 16.5156C14.7498 17.3441 15.4214 18.0156 16.2498 18.0156C17.0783 18.0156 17.7498 17.3441 17.7498 16.5156Z" fill="black"/>
</svg>
