<svg width="24" height="24" viewBox="0 0 24 24" fill="none" xmlns="http://www.w3.org/2000/svg">
<path d="M9.04673 7.44309H14.9532L14.4796 6.13574H9.52038L9.04673 7.44309Z" fill="black"/>
<path d="M14.0606 10.4177C14.4278 10.4177 14.7255 10.12 14.7255 9.75278C14.7255 9.38557 14.4278 9.08789 14.0606 9.08789C13.6934 9.08789 13.3957 9.38557 13.3957 9.75278C13.3957 10.12 13.6934 10.4177 14.0606 10.4177Z" fill="black"/>
<path d="M10.6052 9.75284C10.6052 10.12 10.3075 10.4177 9.94028 10.4177C9.57307 10.4177 9.27539 10.12 9.27539 9.75284C9.27539 9.38563 9.57307 9.08795 9.94028 9.08795C10.3075 9.08795 10.6052 9.38563 10.6052 9.75284Z" fill="black"/>
<path d="M6.25 2C5.00736 2 4 3.00736 4 4.25V19.75C4 20.9926 5.00736 22 6.25 22H17.75C18.9926 22 20 20.9926 20 19.75V4.25C20 3.00736 18.9926 2 17.75 2H6.25ZM14.9803 12.369V12.0874H9.01968V12.369C9.01968 12.7694 8.69508 13.094 8.29468 13.094H8.1C7.69952 13.094 7.3749 12.7693 7.375 12.3688L7.37597 8.38498L8.37499 5.62753C8.5363 5.18229 8.95916 4.88574 9.43272 4.88574H14.5672C15.0408 4.88574 15.4636 5.18229 15.625 5.62753L16.624 8.38498L16.625 12.3688C16.625 12.7693 16.3004 13.094 15.9 13.094H15.7053C15.3049 13.094 14.9803 12.7694 14.9803 12.369ZM16.75 16.2998H7.25V14.7998H16.75V16.2998ZM7.25 19.2959V17.7959H16.75V19.2959H7.25Z" fill="black"/>
</svg>
