<svg width="24" height="24" viewBox="0 0 24 24" fill="none" xmlns="http://www.w3.org/2000/svg">
<path d="M14.9803 17.1332V16.8516H9.01968V17.1332C9.01968 17.5336 8.69508 17.8582 8.29468 17.8582H8.1C7.69952 17.8582 7.3749 17.5335 7.375 17.133L7.37597 13.1491L8.37499 10.3917C8.5363 9.94645 8.95916 9.6499 9.43272 9.6499H14.5672C15.0408 9.6499 15.4636 9.94645 15.625 10.3917L16.624 13.1491L16.625 17.133C16.625 17.5335 16.3004 17.8582 15.9 17.8582H15.7053C15.3049 17.8582 14.9803 17.5336 14.9803 17.1332ZM9.04673 12.2072H14.9532L14.4796 10.8999H9.52038L9.04673 12.2072ZM9.94084 15.1818C10.308 15.1818 10.6057 14.8841 10.6057 14.5169C10.6057 14.1497 10.308 13.8521 9.94084 13.8521C9.57364 13.8521 9.27596 14.1497 9.27596 14.5169C9.27596 14.8841 9.57364 15.1818 9.94084 15.1818ZM14.7268 14.517C14.7268 14.1498 14.4291 13.8521 14.0619 13.8521C13.6947 13.8521 13.397 14.1498 13.397 14.517C13.397 14.8842 13.6947 15.1819 14.0619 15.1819C14.4291 15.1819 14.7268 14.8842 14.7268 14.517Z" fill="black"/>
<path d="M3.25586 5.3501L3.26758 5.21484C3.28516 5.07959 3.31445 4.94824 3.35547 4.82178C3.64258 3.91064 4.49414 3.25 5.5 3.25H18.5C19.1504 3.25 19.7363 3.52637 20.1484 3.96826C20.5215 4.37012 20.75 4.9082 20.75 5.5V18.5C20.75 19.7427 19.7422 20.75 18.5 20.75H5.5C4.25781 20.75 3.25 19.7427 3.25 18.5V5.5L3.25586 5.3501ZM19.25 8.25H4.75V18.5C4.75 18.9141 5.08594 19.25 5.5 19.25H18.5C18.6113 19.25 18.7168 19.2256 18.8125 19.1821C18.9746 19.1069 19.1074 18.9746 19.1836 18.8105C19.2266 18.7158 19.25 18.6108 19.25 18.5V8.25Z" fill="black"/>
</svg>
