<svg width="24" height="24" viewBox="0 0 24 24" fill="none" xmlns="http://www.w3.org/2000/svg">
<path d="M3.56283 13.6846H9.53561C9.54598 13.1208 9.62173 12.573 9.7556 12.0485C9.7556 12.0485 9.80292 11.822 9.9281 11.4675C9.56089 11.3655 9.29139 11.0287 9.29139 10.629C9.29139 10.1484 9.68101 9.75879 10.1616 9.75879C10.3575 9.75879 10.5382 9.82348 10.6836 9.93265C10.9666 9.49435 11.1951 9.24195 11.1951 9.24195C11.7261 8.60741 12.3653 8.06655 13.0844 7.64779L12.2083 5.22966C11.9972 4.64692 11.4437 4.25879 10.8239 4.25879H4.10345C3.48362 4.25879 2.93016 4.64692 2.71902 5.22966L1.41143 8.83868L1.41016 14.0528C1.41003 14.577 1.83492 15.002 2.35909 15.002H2.6139C3.13798 15.002 3.56283 14.5771 3.56283 14.0531V13.6846ZM10.7091 5.89482L11.3291 7.60592H3.59824L4.21819 5.89482H10.7091ZM4.76869 9.75887C5.24931 9.75887 5.63894 10.1485 5.63894 10.6291C5.63894 11.1097 5.24931 11.4993 4.76869 11.4993C4.28806 11.4993 3.89844 11.1097 3.89844 10.6291C3.89844 10.1485 4.28806 9.75887 4.76869 9.75887Z" fill="black"/>
<path d="M16.6686 7.896C13.3977 7.896 10.7461 10.5476 10.7461 13.8185C10.7461 17.0894 13.3977 19.741 16.6686 19.741C19.9395 19.741 22.5911 17.0894 22.5911 13.8185C22.5911 10.5476 19.9395 7.896 16.6686 7.896ZM14.3243 12.9478L15.9022 14.5256L19.0349 11.3926L20.0956 12.4532L15.9022 16.6469L13.2637 14.0085L14.3243 12.9478Z" fill="black"/>
</svg>
