<svg width="24" height="24" viewBox="0 0 24 24" fill="none" xmlns="http://www.w3.org/2000/svg">
<path d="M6.33036 21.356C7.52599 21.356 8.53553 20.5593 8.85709 19.4678L10.8742 19.4679C11.0731 19.4679 11.2639 19.3889 11.4046 19.2482C11.5452 19.1076 11.6243 18.9168 11.6243 18.7179V14.6293C11.6243 14.0796 11.423 13.549 11.0586 13.1375L8.34365 10.0722C7.9166 9.58999 7.3034 9.31396 6.65931 9.31396H1V10.814H2.08008V12.6313L2.07929 13.3813H1V19.4679H3.80369C4.12531 20.5592 5.13476 21.356 6.33036 21.356ZM6.65931 10.814C6.87401 10.814 7.07848 10.906 7.22083 11.0667L9.27074 13.3813H3.58015V10.814H6.65931ZM7.4641 18.7222C7.4641 19.3484 6.95651 19.856 6.33036 19.856C5.70428 19.856 5.19662 19.3483 5.19662 18.7221C5.19662 18.0958 5.70408 17.5884 6.33014 17.5884C6.95635 17.5884 7.4641 18.0961 7.4641 18.7222Z" fill="black"/>
<path d="M23 9.31396H22.6936C22.2251 9.31396 21.7684 9.46017 21.387 9.7322L17.309 12.641L14.3374 13.1789L14.324 13.1816C13.6942 13.3076 13.2063 13.7169 12.8887 14.1739C12.5704 14.6319 12.375 15.203 12.375 15.7681V18.7179C12.375 19.1321 12.7108 19.4679 13.125 19.4679H14.7002C15.0218 20.5592 16.0313 21.3558 17.2268 21.3558C18.4224 21.3558 19.4319 20.5592 19.7535 19.4679H23V13.3813H18.8527L22.2573 10.9534C22.3844 10.8627 22.5374 10.814 22.6936 10.814H23V9.31396ZM17.2268 17.5884C17.853 17.5884 18.3606 18.096 18.3606 18.7221C18.3606 19.3482 17.853 19.8558 17.2268 19.8558C16.6007 19.8558 16.0931 19.3482 16.0931 18.7221C16.0931 18.096 16.6007 17.5884 17.2268 17.5884Z" fill="black"/>
<path d="M15.3889 2.91426L14.3228 8.74603L12.8473 8.47629L13.9133 2.64453L15.3889 2.91426Z" fill="black"/>
<path d="M20.8187 7.78244L16.6181 10.6846L15.7654 9.45055L19.9661 6.54834L20.8187 7.78244Z" fill="black"/>
<path d="M7.11477 5.27745L10.017 9.47805L11.2511 8.62541L8.34887 4.4248L7.11477 5.27745Z" fill="black"/>
</svg>
