<svg width="24" height="24" viewBox="0 0 24 24" fill="none" xmlns="http://www.w3.org/2000/svg">
<path d="M12.6807 2.53613C13.1491 2.53613 13.6059 2.68234 13.9873 2.95437L18.0652 5.86315L21.0369 6.40112L21.0503 6.4038C21.68 6.52975 22.168 6.93909 22.4856 7.3961C22.8039 7.85407 22.9993 8.42517 22.9993 8.99027V11.94C22.9993 12.3542 22.6635 12.69 22.2493 12.69H20.0449V11.9524C20.0449 10.904 19.1951 10.0542 18.1467 10.0542C17.0984 10.0542 16.2485 10.904 16.2485 11.9524V12.69H8.19141V11.9524C8.19141 10.904 7.34156 10.0542 6.29321 10.0542C5.24487 10.0542 4.39502 10.904 4.39502 11.9524V12.6899L1.75008 12.69C1.55115 12.6901 1.36037 12.611 1.2197 12.4704C1.07903 12.3297 1 12.139 1 11.94V7.85146C1 7.30179 1.20121 6.77113 1.56566 6.35965L4.28061 3.29432C4.70765 2.81216 5.32086 2.53613 5.96495 2.53613H12.6807ZM10.5442 4.03613V5.85352L10.545 6.60351H16.5216L13.117 4.17554C12.9899 4.08487 12.8368 4.03613 12.6807 4.03613H10.5442ZM5.96495 4.03613C5.75025 4.03613 5.54578 4.12814 5.40343 4.28886L3.35352 6.60352L9.04411 6.60352V4.03613H5.96495Z" fill="black"/>
<path d="M3.60547 18.8037C3.60547 17.3345 4.79646 16.1436 6.26562 16.1436C7.51953 16.1436 8.5708 17.0111 8.85195 18.1787H11.0989C11.3189 17.7827 11.7414 17.5146 12.2266 17.5146C12.7117 17.5146 13.1343 17.7827 13.3542 18.1787H15.6012C15.8823 17.0111 16.9336 16.1436 18.1875 16.1436C19.6567 16.1436 20.8477 17.3345 20.8477 18.8037C20.8477 20.2729 19.6567 21.4639 18.1875 21.4639C16.9336 21.4639 15.8823 20.5963 15.6012 19.4287H13.3542C13.1343 19.8248 12.7117 20.0928 12.2266 20.0928C11.7414 20.0928 11.3189 19.8248 11.0989 19.4287H8.85195C8.5708 20.5963 7.51953 21.4639 6.26562 21.4639C4.79646 21.4639 3.60547 20.2729 3.60547 18.8037ZM6.26562 17.6436C5.62489 17.6436 5.10547 18.163 5.10547 18.8037C5.10547 19.4444 5.62489 19.9639 6.26562 19.9639C6.90636 19.9639 7.42578 19.4444 7.42578 18.8037C7.42578 18.163 6.90636 17.6436 6.26562 17.6436ZM18.1875 17.6436C17.5468 17.6436 17.0273 18.163 17.0273 18.8037C17.0273 19.4444 17.5468 19.9639 18.1875 19.9639C18.8282 19.9639 19.3477 19.4444 19.3477 18.8037C19.3477 18.163 18.8282 17.6436 18.1875 17.6436Z" fill="black"/>
</svg>
