<svg width="24" height="24" viewBox="0 0 24 24" fill="none" xmlns="http://www.w3.org/2000/svg">
<path d="M6.85528 4.74348C6.85528 3.22331 8.08763 1.99097 9.6078 1.99097H16.7748L22.8699 8.09492V19.2567C22.8699 20.7769 21.6376 22.0092 20.1174 22.0092H14.3098C15.5411 20.4172 16.2738 18.4199 16.2738 16.2515C16.2738 11.0496 12.0571 6.83253 6.85528 6.83193V4.74348ZM16.4754 8.38181H21.0347L16.4754 3.81595V8.38181ZM2.84152 20.3395C1.77116 19.2692 1.20305 17.9847 1.13718 16.4862C1.07131 14.9877 1.52004 13.6663 2.48336 12.5218L2.84152 12.1637H1.31009L1.31009 10.6569L5.42272 10.6446L5.41037 14.7572L3.92834 14.7819L3.92834 13.2258L3.57018 13.5839C2.90327 14.3826 2.5904 15.3294 2.63156 16.4245C2.67273 17.5195 3.09676 18.4705 3.90364 19.2774C4.13418 19.5079 4.38118 19.7016 4.64465 19.8584C4.90813 20.0145 5.17983 20.1419 5.45977 20.2407L5.45977 21.7968C4.96576 21.6651 4.49662 21.4799 4.05234 21.2411C3.6074 21.0023 3.20379 20.7018 2.84152 20.3395ZM8.34891 17.6965L8.33656 21.8092L12.4492 21.7968V20.2901H10.9178L11.2759 19.9319C12.2392 18.7875 12.688 17.466 12.6221 15.9675C12.5562 14.469 11.9881 13.1846 10.9178 12.1142C10.5555 11.752 10.1522 11.4514 9.70793 11.2127C9.263 10.9739 8.79352 10.7886 8.29951 10.6569V12.213C8.57945 12.3118 8.85132 12.4394 9.11512 12.5959C9.37827 12.7523 9.62511 12.9458 9.85564 13.1763C10.6625 13.9832 11.0866 14.9342 11.1277 16.0293C11.1689 17.1243 10.856 18.0712 10.1891 18.8698L9.83094 19.228V17.6718L8.34891 17.6965Z" fill="black"/>
</svg>
