<svg width="24" height="24" viewBox="0 0 24 24" fill="none" xmlns="http://www.w3.org/2000/svg">
<path d="M8.75 1.7417C7.23122 1.7417 6 2.97292 6 4.4917V11.6963C6.17823 11.6804 6.35868 11.6724 6.54102 11.6724C9.87738 11.6724 12.582 14.377 12.582 17.7134C12.582 19.2611 12 20.6728 11.0429 21.7417H19.25C20.7688 21.7417 22 20.5105 22 18.9917V7.84008L15.9104 1.7417H8.75ZM20.1664 8.12671H15.6113V3.56501L20.1664 8.12671Z" fill="black"/>
<path d="M6.54102 22.2544C9.04895 22.2544 11.082 20.2213 11.082 17.7134C11.082 15.2054 9.04895 13.1724 6.54102 13.1724C4.03308 13.1724 2 15.2054 2 17.7134C2 20.2213 4.03308 22.2544 6.54102 22.2544Z" fill="black"/>
</svg>
