<svg width="24" height="24" viewBox="0 0 24 24" fill="none" xmlns="http://www.w3.org/2000/svg">
<path d="M2 4.42774C2 3.1851 3.00736 2.17773 4.25 2.17773H19.75C20.9926 2.17773 22 3.18509 22 4.42773V15.7777C22 17.0204 20.9926 18.0277 19.75 18.0277H5.79455L2 21.8223V4.42774ZM7.89844 11.1504C8.46528 11.1504 8.9248 10.6909 8.9248 10.124C8.9248 9.55718 8.46528 9.09766 7.89844 9.09766C7.33159 9.09766 6.87207 9.55718 6.87207 10.124C6.87207 10.6909 7.33159 11.1504 7.89844 11.1504ZM13.0264 10.124C13.0264 9.55718 12.5668 9.09766 12 9.09766C11.4332 9.09766 10.9736 9.55718 10.9736 10.124C10.9736 10.6909 11.4332 11.1504 12 11.1504C12.5668 11.1504 13.0264 10.6909 13.0264 10.124ZM16.1016 11.1504C16.6684 11.1504 17.1279 10.6909 17.1279 10.124C17.1279 9.55718 16.6684 9.09766 16.1016 9.09766C15.5347 9.09766 15.0752 9.55718 15.0752 10.124C15.0752 10.6909 15.5347 11.1504 16.1016 11.1504Z" fill="black"/>
</svg>
