<svg width="24" height="24" viewBox="0 0 24 24" fill="none" xmlns="http://www.w3.org/2000/svg">
<path d="M19.0032 7.34717C20.7006 7.34717 22.0767 5.97112 22.0767 4.27368C22.0767 2.57624 20.7006 1.2002 19.0032 1.2002C17.3057 1.2002 15.9297 2.57624 15.9297 4.27368C15.9297 5.97112 17.3057 7.34717 19.0032 7.34717Z" fill="black"/>
<path d="M22 8.36792C21.1603 8.98359 20.1242 9.34717 19.0032 9.34717C17.4144 9.34717 15.9962 8.61686 15.0659 7.47363L5.84473 7.47363L5.84473 5.97363L14.2215 5.97363C14.0325 5.44219 13.9297 4.86995 13.9297 4.27368C13.9297 3.52703 14.091 2.81805 14.3806 2.17969H4.25C3.00736 2.17969 2 3.18705 2 4.42969V21.8242L5.79455 18.0297H19.75C20.9926 18.0297 22 17.0223 22 15.7797V8.36792ZM5.84473 10.8486L5.84473 9.34863L18.1455 9.34863V10.8486L5.84473 10.8486ZM14.1055 14.2234L5.84473 14.2234L5.84473 12.7234L14.1055 12.7234V14.2234Z" fill="black"/>
</svg>
