<svg width="24" height="24" viewBox="0 0 24 24" fill="none" xmlns="http://www.w3.org/2000/svg">
<path d="M22 11C22 15.4183 17.5228 19 12 19C10.7008 19 9.4594 18.8018 8.32058 18.4411C6.52743 20.0213 5 21 2 21C3 20 4.27088 18.65 4.80115 16.5528C3.06674 15.114 2 13.1567 2 11C2 6.58172 6.47715 3 12 3C17.5228 3 22 6.58172 22 11ZM7.89844 12C8.46528 12 8.9248 11.5405 8.9248 10.9736C8.9248 10.4068 8.46528 9.94727 7.89844 9.94727C7.33159 9.94727 6.87207 10.4068 6.87207 10.9736C6.87207 11.5405 7.33159 12 7.89844 12ZM13.0264 10.9736C13.0264 10.4068 12.5668 9.94727 12 9.94727C11.4332 9.94727 10.9736 10.4068 10.9736 10.9736C10.9736 11.5405 11.4332 12 12 12C12.5668 12 13.0264 11.5405 13.0264 10.9736ZM16.1016 12C16.6684 12 17.1279 11.5405 17.1279 10.9736C17.1279 10.4068 16.6684 9.94727 16.1016 9.94727C15.5347 9.94727 15.0752 10.4068 15.0752 10.9736C15.0752 11.5405 15.5347 12 16.1016 12Z" fill="black"/>
</svg>
