<svg width="24" height="24" viewBox="0 0 24 24" fill="none" xmlns="http://www.w3.org/2000/svg">
<path d="M20.416 3.32324H3.56836V9.82602H11.2422V11.9219H3.56836L3.56836 15.5127H1.75V20.6769H6.91422V15.5127H5.06836L5.06836 13.4219H11.2422V15.5127H9.41211V20.6769H14.5763V15.5127H12.7422V13.4219H18.9166L18.9166 15.5127H17.0859V20.6769H22.2502V15.5127H20.4166V11.9219H12.7422V9.82602H20.416V3.32324ZM7.63477 7.32471H6.13477V5.82471H7.63477V7.32471ZM9.53906 7.32471V5.82471H11.0391V7.32471H9.53906ZM14.4434 7.32471H12.9434V5.82471H14.4434V7.32471ZM16.3496 7.32471V5.82471H17.8496V7.32471H16.3496Z" fill="black"/>
</svg>
