<svg width="24" height="24" viewBox="0 0 24 24" fill="none" xmlns="http://www.w3.org/2000/svg">
<path d="M13.9902 3.89014H9.99219V7.89014H11.4922V8.44092H7.94531V9.99622H6.44922V13.9962H7.94922V14.5566H4.40234L4.40234 16.11H2.91406V20.11H6.91406V16.11H5.40234V15.5566H11.4941V16.11H9.99414V20.11H13.9941V16.11H12.4941V15.5566H18.5859V16.11H17.0859V20.11H21.0859V16.11H19.5859V14.5566H16.0312V13.9962H17.5312V9.99622H16.0312V8.44092H12.4922V7.89014H13.9902V3.89014ZM8.94922 13.9962H10.4492V9.99622H8.94531V9.44092H15.0312V9.99622H13.5312V13.9962H15.0312V14.5566H8.94922V13.9962Z" fill="black"/>
</svg>
