<svg width="24" height="24" viewBox="0 0 24 24" fill="none" xmlns="http://www.w3.org/2000/svg">
<path d="M20.1154 8.48066C18.3193 4.73283 13.8251 3.15059 10.0773 4.94664C7.44272 6.2092 5.87706 8.80595 5.80496 11.5405L7.67338 9.93882L8.64964 11.0776L4.88993 14.3007L1.64062 10.5103L2.77945 9.53402L4.31208 11.3219C4.46116 8.11067 6.32536 5.08131 9.42906 3.59395C13.924 1.43989 19.314 3.33751 21.4681 7.83242C23.6221 12.3273 21.7245 17.7174 17.2296 19.8714C16.9696 19.9961 16.7065 20.1071 16.4412 20.2049C16.9011 19.4854 17.2919 18.7614 17.6608 17.8876C20.6172 15.8123 21.728 11.8457 20.1154 8.48066Z" fill="black"/>
<path d="M15.4503 18.9538C15.1113 19.5269 14.7278 20.0822 14.2662 20.7114C14.2263 20.766 14.185 20.8211 14.1439 20.8768L13.8348 21.2947L5.22027 18.8355L6.0521 17.9396C6.12634 17.8596 6.19916 17.7814 6.27065 17.7047C6.91109 17.0173 7.44548 16.4436 7.93541 15.725C8.24099 15.2768 8.53241 14.7664 8.81162 14.1359L16.641 16.3709C16.2698 17.405 15.8994 18.1949 15.4503 18.9538Z" fill="black"/>
<path d="M16.0325 6.58889L14.3179 12.595L16.3213 13.167C16.9857 13.3566 17.373 14.0529 17.1754 14.7199C17.1281 14.8794 17.0814 15.0338 17.0351 15.1835L9.26544 12.9655C9.31831 12.8103 9.37074 12.6491 9.42275 12.4814C9.62112 11.8418 10.2979 11.4474 10.9687 11.639L12.8755 12.1833L14.5901 6.17713L16.0325 6.58889Z" fill="black"/>
</svg>
