<svg width="24" height="24" viewBox="0 0 24 24" fill="none" xmlns="http://www.w3.org/2000/svg">
<path d="M14.8415 3.12294H18.75C19.9926 3.12294 21 4.14107 21 5.39701V18.724C21 19.9799 19.9926 20.998 18.75 20.998H5.25C4.00736 20.998 3 19.9799 3 18.724V5.39701C3 4.14107 4.00736 3.12294 5.25 3.12294H9.16033C9.38251 1.72307 10.6217 0.734375 12.0009 0.734375C13.3801 0.734375 14.6193 1.72307 14.8415 3.12294ZM12.0003 2.20551C11.55 2.20551 11.25 2.58488 11.25 2.96341C11.25 3.34194 11.55 3.72131 12.0003 3.72131C12.4506 3.72131 12.7506 3.34194 12.7506 2.96341C12.7506 2.58488 12.4506 2.20551 12.0003 2.20551ZM15.8673 7.31762C15.4389 6.88469 14.7444 6.88469 14.3161 7.31762L13.6055 8.03583L15.9134 10.3685L16.624 9.65029C17.0524 9.21735 17.0524 8.51542 16.624 8.08248L15.8673 7.31762ZM12.8883 8.76758L6.8457 14.8745V17.2028H9.14935L15.1923 11.0962L12.8883 8.76758Z" fill="black"/>
</svg>
