<svg width="24" height="24" viewBox="0 0 24 24" fill="none" xmlns="http://www.w3.org/2000/svg">
<path d="M18.25 7C18.7708 7 19.2135 7.18229 19.5781 7.54688C19.9427 7.91146 20.125 8.35417 20.125 8.875V20.125C20.125 20.6458 19.9427 21.0885 19.5781 21.4531C19.2135 21.8177 18.7708 22 18.25 22H10.75C10.2292 22 9.78646 21.8177 9.42188 21.4531C9.05729 21.0885 8.875 20.6458 8.875 20.125V15.75H10.125V20.125C10.125 20.5417 10.3333 20.75 10.75 20.75H18.25C18.6667 20.75 18.875 20.5417 18.875 20.125V8.875C18.875 8.45833 18.6667 8.25 18.25 8.25H10.75C10.3333 8.25 10.125 8.45833 10.125 8.875V13.25H8.875V8.875C8.875 8.35417 9.05729 7.91146 9.42188 7.54688C9.78646 7.18229 10.2292 7 10.75 7H18.25ZM13.25 2C13.7708 2 14.2135 2.18229 14.5781 2.54688C14.9427 2.91146 15.125 3.35417 15.125 3.875V6.375H13.875V3.875C13.875 3.45833 13.6667 3.25 13.25 3.25H5.75C5.33333 3.25 5.125 3.45833 5.125 3.875V13.25C5.125 13.6667 5.33333 13.875 5.75 13.875H12.5078C12.5339 13.875 12.5729 13.849 12.625 13.7969V10.9844C12.625 10.9323 12.638 10.9062 12.6641 10.9062C12.6901 10.8802 12.7161 10.8672 12.7422 10.8672L16.2969 14.4219C16.3229 14.4479 16.3359 14.487 16.3359 14.5391L12.7812 18.0938C12.7552 18.1198 12.7292 18.1328 12.7031 18.1328L12.625 18.0547V15.2422C12.625 15.2161 12.599 15.1771 12.5469 15.125H5.75C5.22917 15.125 4.78646 14.9427 4.42188 14.5781C4.05729 14.2135 3.875 13.7708 3.875 13.25V3.875C3.875 3.35417 4.05729 2.91146 4.42188 2.54688C4.78646 2.18229 5.22917 2 5.75 2H13.25Z" fill="black"/>
</svg>
