<svg width="24" height="24" viewBox="0 0 24 24" fill="none" xmlns="http://www.w3.org/2000/svg">
<path d="M1.51562 3.8999C1.51562 2.65726 2.52298 1.6499 3.76562 1.6499H20.2324C21.4751 1.6499 22.4824 2.65726 22.4824 3.8999V20.0999C22.4824 21.3425 21.4751 22.3499 20.2324 22.3499H3.76562C2.52298 22.3499 1.51562 21.3425 1.51562 20.0999V3.8999ZM3.76562 3.1499C3.35141 3.1499 3.01562 3.48569 3.01562 3.8999V20.0999C3.01562 20.5141 3.35141 20.8499 3.76562 20.8499H8.00391V3.1499H3.76562ZM14.4922 20.8499V3.1499H9.50391V20.8499H14.4922ZM15.9922 20.8499H20.2324C20.6466 20.8499 20.9824 20.5141 20.9824 20.0999V3.8999C20.9824 3.48569 20.6466 3.1499 20.2324 3.1499H15.9922V20.8499Z" fill="black"/>
</svg>
