<svg width="24" height="24" viewBox="0 0 24 24" fill="none" xmlns="http://www.w3.org/2000/svg">
<path d="M3.90039 1.6499C2.65775 1.6499 1.65039 2.65726 1.65039 3.8999V20.0999C1.65039 21.3425 2.65775 22.3499 3.90039 22.3499H8.36133C9.60397 22.3499 10.6113 21.3425 10.6113 20.0999V3.8999C10.6113 2.65726 9.60397 1.6499 8.36133 1.6499H3.90039ZM3.15039 3.8999C3.15039 3.48569 3.48618 3.1499 3.90039 3.1499H8.36133C8.77554 3.1499 9.11133 3.48569 9.11133 3.8999V20.0999C9.11133 20.5141 8.77554 20.8499 8.36133 20.8499H3.90039C3.48618 20.8499 3.15039 20.5141 3.15039 20.0999V3.8999Z" fill="black"/>
<path d="M15.6387 1.6499C14.396 1.6499 13.3887 2.65726 13.3887 3.8999V20.0999C13.3887 21.3425 14.396 22.3499 15.6387 22.3499H20.0996C21.3422 22.3499 22.3496 21.3425 22.3496 20.0999V3.8999C22.3496 2.65726 21.3423 1.6499 20.0996 1.6499H15.6387ZM14.8887 3.8999C14.8887 3.48569 15.2245 3.1499 15.6387 3.1499H20.0996C20.5138 3.1499 20.8496 3.48569 20.8496 3.8999V20.0999C20.8496 20.5141 20.5138 20.8499 20.0996 20.8499H15.6387C15.2245 20.8499 14.8887 20.5141 14.8887 20.0999V3.8999Z" fill="black"/>
</svg>
