<svg width="24" height="24" viewBox="0 0 24 24" fill="none" xmlns="http://www.w3.org/2000/svg">
<path d="M3.75 2.25C2.7835 2.25 2 3.0335 2 4V6C2 6.9665 2.7835 7.75 3.75 7.75H20.25C21.2165 7.75 22 6.9665 22 6V4C22 3.0335 21.2165 2.25 20.25 2.25H3.75Z" fill="black"/>
<path d="M3.75 9.25C2.7835 9.25 2 10.0335 2 11V13C2 13.9665 2.7835 14.75 3.75 14.75H6.75C7.7165 14.75 8.5 13.9665 8.5 13V11C8.5 10.0335 7.7165 9.25 6.75 9.25H3.75Z" fill="black"/>
<path d="M2 18C2 17.0335 2.7835 16.25 3.75 16.25H6.75C7.7165 16.25 8.5 17.0335 8.5 18V20C8.5 20.9665 7.7165 21.75 6.75 21.75H3.75C2.7835 21.75 2 20.9665 2 20V18Z" fill="black"/>
<path d="M10.6152 11.75H21.0117V10.25H10.6152V11.75Z" fill="black"/>
<path d="M21.0117 20.75V19.25H10.6152V20.75H21.0117Z" fill="black"/>
<path d="M10.6152 16.25H21.0117V14.75H10.6152V16.25Z" fill="black"/>
</svg>
