<svg width="24" height="24" viewBox="0 0 24 24" fill="none" xmlns="http://www.w3.org/2000/svg">
<path d="M6.67383 4.25C6.67383 3.00781 7.68164 2 8.92383 2H18.0859C19.3291 2 20.3359 3.00781 20.3359 4.25V16.7402C20.3359 17.9834 19.3291 18.9902 18.0859 18.9902H8.92383C7.68164 18.9902 6.67383 17.9834 6.67383 16.7402V4.25Z" fill="black"/>
<path d="M5.16406 8.04688V6.22266H3.66406V8.04688H5.16406Z" fill="black"/>
<path d="M3.66406 9.65723V11.8057H5.16406V9.65723H3.66406Z" fill="black"/>
<path d="M3.66406 13.416V15.5645H5.16406V13.416H3.66406Z" fill="black"/>
<path d="M3.66406 17.1758V18.249C3.66406 18.8311 3.79688 19.3838 4.03516 19.877L5.38574 19.2256C5.30957 19.0664 5.25098 18.8965 5.21289 18.7188C5.18066 18.5674 5.16406 18.4102 5.16406 18.249V17.1758H3.66406Z" fill="black"/>
<path d="M6.5459 21.8975C6.8252 21.9639 7.11523 21.999 7.41406 21.999H8.58398V20.499H7.41406C7.0625 20.499 6.73242 20.4189 6.43848 20.2773L5.78613 21.6289C6.02637 21.7441 6.28125 21.835 6.5459 21.8975Z" fill="black"/>
<path d="M10.3389 21.999H12.6787V20.499H10.3389V21.999Z" fill="black"/>
<path d="M14.4326 20.499V21.999H16.3525V20.499H14.4326Z" fill="black"/>
</svg>
