<svg width="24" height="24" viewBox="0 0 24 24" fill="none" xmlns="http://www.w3.org/2000/svg">
<path d="M4.25 2C3.00736 2 2 3.00736 2 4.25V19.75C2 20.9926 3.00736 22 4.25 22H19.75C20.9926 22 22 20.9926 22 19.75V4.25C22 3.00736 20.9926 2 19.75 2H4.25ZM8.21094 7.05469C8.21094 5.89062 9.1543 4.94727 10.3184 4.94727C10.9551 4.94727 11.5254 5.229 11.9121 5.6748C12.2324 6.04443 12.4258 6.52686 12.4258 7.05469C12.4258 7.1875 12.4141 7.31738 12.3906 7.44385C12.3535 7.64062 12.2891 7.82812 12.2031 8.00146C11.8555 8.68994 11.1426 9.16211 10.3184 9.16211C9.1543 9.16211 8.21094 8.21875 8.21094 7.05469ZM9.24023 9.71729C9.52539 9.67285 9.82031 9.64502 10.1211 9.63672L10.3184 9.63379C11.2266 9.63379 12.0957 9.81006 12.7617 10.0977C13.0918 10.2407 13.4062 10.4253 13.6504 10.6582C13.7559 10.7593 13.8633 10.8833 13.9473 11.0293H6.6875C6.72852 10.9595 6.77344 10.895 6.82227 10.8354C6.875 10.77 6.92969 10.7109 6.98438 10.6582C7.11523 10.5327 7.26758 10.4209 7.43359 10.3223C7.57422 10.2383 7.72266 10.1636 7.875 10.0977C8.26953 9.92725 8.73633 9.7959 9.24023 9.71729ZM19.25 13.5293H18.5762V19.0532H5.42578V13.5293H4.75V12.0293H19.25V13.5293Z" fill="black"/>
</svg>
