<svg width="24" height="24" viewBox="0 0 24 24" fill="none" xmlns="http://www.w3.org/2000/svg">
<path d="M2 6.32519C2 5.08255 3.00736 4.0752 4.25 4.0752H19.75C20.9926 4.0752 22 5.08255 22 6.3252V8.8252H2V6.32519Z" fill="black"/>
<path d="M2 10.8252H22V17.6752C22 18.9178 20.9926 19.9252 19.75 19.9252H4.25C3.00736 19.9252 2 18.9178 2 17.6752V10.8252ZM9.37988 14.5442C9.35431 14.2828 9.28826 14.0506 9.18173 13.8475C9.0752 13.6443 8.9367 13.4732 8.76625 13.334C8.59579 13.1933 8.39835 13.0868 8.17392 13.0144C7.94949 12.9405 7.70517 12.9036 7.44096 12.9036C7.05318 12.9036 6.70304 12.9902 6.39054 13.1635C6.07804 13.3368 5.83017 13.5904 5.64693 13.9242C5.46369 14.258 5.37207 14.6649 5.37207 15.145C5.37207 15.6237 5.46227 16.03 5.64267 16.3638C5.82306 16.6976 6.0688 16.9519 6.37988 17.1266C6.69238 17.2999 7.04608 17.3865 7.44096 17.3865C7.74068 17.3865 8.0063 17.3411 8.23784 17.2502C8.47079 17.1592 8.66824 17.0371 8.83017 16.8837C8.9921 16.7288 9.11923 16.5577 9.21156 16.3702C9.30531 16.1827 9.36142 15.9923 9.37988 15.7992L8.31454 15.7928C8.29608 15.8979 8.2627 15.9923 8.2144 16.0761C8.16753 16.1585 8.10716 16.2288 8.03329 16.2871C7.96085 16.3439 7.87633 16.3872 7.77974 16.4171C7.68457 16.4469 7.57875 16.4618 7.46227 16.4618C7.25488 16.4618 7.0752 16.4128 6.92321 16.3148C6.77264 16.2154 6.65545 16.0683 6.57164 15.8737C6.48926 15.6777 6.44806 15.4348 6.44806 15.145C6.44806 14.8666 6.48855 14.6294 6.56951 14.4334C6.6519 14.2374 6.76909 14.0875 6.92108 13.9838C7.07448 13.8801 7.25701 13.8283 7.46866 13.8283C7.58798 13.8283 7.69664 13.8453 7.79466 13.8794C7.89409 13.9121 7.98002 13.9597 8.05247 14.0222C8.12491 14.0847 8.18315 14.16 8.22718 14.248C8.27122 14.3361 8.30034 14.4348 8.31454 14.5442H9.37988ZM10.9742 12.9632H9.79377L11.2661 17.3269H12.6702L14.1425 12.9632H12.9621L11.9862 16.1592H11.95L10.9742 12.9632ZM16.5789 16.1592L15.6031 12.9632H14.4227L15.895 17.3269H17.2991L18.7714 12.9632H17.591L16.6151 16.1592H16.5789Z" fill="black"/>
</svg>
