<svg width="24" height="24" viewBox="0 0 24 24" fill="none" xmlns="http://www.w3.org/2000/svg">
<path d="M3.28496 20.4756H16.681C17.1719 20.4756 17.5735 20.8682 17.5735 21.3589C17.5735 21.8585 17.1719 22.26 16.681 22.26H3.27603C2.29431 22.26 1.5 21.466 1.5 20.4846V5.29976C1.5 4.31837 2.29431 3.52434 3.27603 3.52434H7.01551C7.39035 2.48942 8.36315 1.73999 9.5323 1.73999C10.7014 1.73999 11.6832 2.48942 12.0491 3.52434H15.7886C16.7703 3.52434 17.5646 4.31837 17.5646 5.29976V12.5353C17.5646 13.026 17.163 13.4275 16.6721 13.4275C16.1813 13.4275 15.7796 13.026 15.7796 12.5353V7.98521H3.28496V20.4756ZM8.63982 5.30869H5.82852C5.40905 5.30869 5.06991 5.64771 5.06991 6.06703C5.06991 6.48636 5.40905 6.82538 5.82852 6.82538H13.2361C13.6555 6.82538 13.9947 6.48636 13.9947 6.06703C13.9947 5.64771 13.6555 5.30869 13.2361 5.30869H10.4248V4.41651C10.4248 3.92582 10.0232 3.52434 9.5323 3.52434C9.04144 3.52434 8.63982 3.92582 8.63982 4.41651V5.30869ZM5.57037 9.1629H13.3171C13.81 9.1629 14.2096 9.56234 14.2096 10.0551C14.2096 10.5478 13.81 10.9473 13.3171 10.9473H5.57037C5.07747 10.9473 4.67789 10.5478 4.67789 10.0551C4.67789 9.56234 5.07747 9.1629 5.57037 9.1629ZM9.05996 11.7948H5.57037C5.07747 11.7948 4.67789 12.1942 4.67789 12.687C4.67789 13.1797 5.07747 13.5791 5.57037 13.5791H9.05996C9.55286 13.5791 9.95243 13.1797 9.95243 12.687C9.95243 12.1942 9.55286 11.7948 9.05996 11.7948ZM5.57037 17.4691H9.05996C9.55286 17.4691 9.95243 17.8685 9.95243 18.3612C9.95243 18.854 9.55286 19.2534 9.05996 19.2534H5.57037C5.07747 19.2534 4.67789 18.854 4.67789 18.3612C4.67789 17.8685 5.07747 17.4691 5.57037 17.4691ZM7.46242 14.846H5.57037C5.07747 14.846 4.67789 15.2454 4.67789 15.7382C4.67789 16.2309 5.07747 16.6304 5.57037 16.6304H7.46242C7.95532 16.6304 8.3549 16.2309 8.3549 15.7382C8.3549 15.2454 7.95532 14.846 7.46242 14.846ZM14.7085 19.7886L22.4998 12L21.295 10.7063L14.7085 17.2905L11.4331 14.0163L10.1658 15.2475L14.7085 19.7886Z" fill="black"/>
</svg>
