<svg width="24" height="24" viewBox="0 0 24 24" fill="none" xmlns="http://www.w3.org/2000/svg">
<path d="M8.0127 4.40283V4.17993C8.0127 2.93729 9.02005 1.92993 10.2627 1.92993H13.7359C14.9786 1.92993 15.9859 2.93729 15.9859 4.17993V4.40283L20.25 4.40283V5.90283H19.2822V19.0571C19.2822 20.2998 18.2744 21.3071 17.0322 21.3071H6.97754C5.73535 21.3071 4.72754 20.2998 4.72754 19.0571V5.90283H3.75V4.40283L8.0127 4.40283ZM9.5127 4.17993V4.40283L14.4859 4.40283V4.17993C14.4859 3.76572 14.1501 3.42993 13.7359 3.42993H10.2627C9.84848 3.42993 9.5127 3.76572 9.5127 4.17993Z" fill="black"/>
</svg>
