<svg width="24" height="24" viewBox="0 0 24 24" fill="none" xmlns="http://www.w3.org/2000/svg">
<path d="M8.0127 4.39258V4.16992C8.0127 2.92725 9.02051 1.91992 10.2627 1.91992H13.7363C14.9785 1.91992 15.9863 2.92725 15.9863 4.16992V4.39258H20.25V5.89258H19.2822V19.0471C19.2822 20.2898 18.2744 21.2971 17.0322 21.2971H6.97754C5.73535 21.2971 4.72754 20.2898 4.72754 19.0471V5.89258H3.75V4.39258H8.0127ZM9.5127 4.16992V4.39258H14.4863V4.16992C14.4863 3.75562 14.1504 3.41992 13.7363 3.41992H10.2627C9.84863 3.41992 9.5127 3.75562 9.5127 4.16992ZM12.7549 11.1199L14.6963 13.0762L15.7607 12.0198L12.0049 8.23438L8.24902 12.0198L9.31348 13.0762L11.2549 11.1199V15.8743H12.7549V11.1199Z" fill="black"/>
</svg>
