<svg width="24" height="24" viewBox="0 0 24 24" fill="none" xmlns="http://www.w3.org/2000/svg">
<path d="M4.93652 6.1001V6.3606H1.67969V7.8606H2.68262V17.1504C2.68262 18.3931 3.69043 19.4004 4.93262 19.4004H10.8779C12.1201 19.4004 13.1279 18.3931 13.1279 17.1504V7.8606H14.1299V6.3606H10.8721V6.1001C10.8721 5.13354 10.0889 4.3501 9.12207 4.3501H6.68652C6.18848 4.3501 5.73926 4.55762 5.4209 4.89111C5.12109 5.20532 4.93652 5.6311 4.93652 6.1001ZM6.68652 5.8501H9.12207C9.19922 5.8501 9.26855 5.88525 9.31445 5.94067C9.3252 5.95361 9.33496 5.96753 9.34277 5.98242C9.36133 6.01758 9.37207 6.05762 9.37207 6.1001V6.3606H6.43652V6.1001C6.43652 5.96191 6.54883 5.8501 6.68652 5.8501Z" fill="black"/>
<path d="M15.0898 9.86914H22.3389V8.36914H15.0898V9.86914Z" fill="black"/>
<path d="M21.2969 13.9543H15.0898V12.4543H21.2969V13.9543Z" fill="black"/>
<path d="M15.0898 18.0393H19.2422V16.5393H15.0898V18.0393Z" fill="black"/>
</svg>
