<svg width="24" height="24" viewBox="0 0 24 24" fill="none" xmlns="http://www.w3.org/2000/svg">
<path d="M3.25 3.5C3.25 2.25736 4.25736 1.25 5.5 1.25H18.5C19.7426 1.25 20.75 2.25736 20.75 3.5V20.5C20.75 21.7426 19.7426 22.75 18.5 22.75H5.5C4.25736 22.75 3.25 21.7426 3.25 20.5V3.5ZM4.75 16.4785H19.25V5.88281H4.75V16.4785ZM13 19.604C13 19.0517 12.5523 18.604 12 18.604C11.4477 18.604 11 19.0517 11 19.604C11 20.1563 11.4477 20.604 12 20.604C12.5523 20.604 13 20.1563 13 19.604Z" fill="black"/>
</svg>
