<svg width="24" height="24" viewBox="0 0 24 24" fill="none" xmlns="http://www.w3.org/2000/svg">
<path d="M8.63632 4.02148L9.5012 4.77148L8.78122 5.52148L4.03177 5.52148L3.25391 4.70311L4.21098 4.02148H8.63632Z" fill="black"/>
<path d="M1.75391 6.42316V10.8485L2.50391 11.7134L3.25391 10.8485L3.25391 6.42316L2.50391 5.52148L1.75391 6.42316Z" fill="black"/>
<path d="M12.9961 6.42316V10.8485L13.7461 11.7134L14.4961 10.8485V6.42316L13.7461 5.52148L12.9961 6.42316Z" fill="black"/>
<path d="M1.75391 17.5768L2.50391 18.4785L3.25391 17.5768L3.25391 13.1515L2.50391 12.2866L1.75391 13.1515V17.5768Z" fill="black"/>
<path d="M12.9961 17.5768V13.1515L13.7461 12.2866L14.4961 13.1515V17.5768L13.7461 18.4785L12.9961 17.5768Z" fill="black"/>
<path d="M11.002 6.42316L10.252 5.52148L9.50195 6.42316V10.8485L10.252 11.7134L11.002 10.8485V6.42316Z" fill="black"/>
<path d="M22.2441 6.42316V10.8485L21.4941 11.7134L20.7441 10.8485V6.42316L21.4941 5.52148L22.2441 6.42316Z" fill="black"/>
<path d="M19.8785 4.02148H15.4532L14.4961 4.70311L15.274 5.52148L20.0234 5.52148L20.7434 4.77148L19.8785 4.02148Z" fill="black"/>
<path d="M11.002 17.5768L10.252 18.4785L9.50195 17.5768V13.1515L10.252 12.2866L11.002 13.1515V17.5768Z" fill="black"/>
<path d="M22.2441 17.5768V13.1515L21.4941 12.2866L20.7441 13.1515V17.5768L21.4941 18.4785L22.2441 17.5768Z" fill="black"/>
<path d="M8.63632 19.9785L9.5012 19.2285L8.78122 18.4785H4.03177L3.25391 19.2969L4.21098 19.9785H8.63632Z" fill="black"/>
<path d="M19.8785 19.9785H15.4532L14.4961 19.2969L15.274 18.4785H20.0234L20.7434 19.2285L19.8785 19.9785Z" fill="black"/>
</svg>
