<svg width="24" height="24" viewBox="0 0 24 24" fill="none" xmlns="http://www.w3.org/2000/svg">
<path d="M12.7837 3.00977V5.06363C13.8893 5.25394 14.9111 5.82681 15.6089 6.6366L16.0985 7.20478L14.9621 8.18392L14.4726 7.61574C13.4362 6.41293 11.4324 6.03362 10.0602 7.21373C9.15967 8.18278 9.32444 9.51598 10.4298 10.143C11.1555 10.5547 11.8616 10.784 12.5884 11.02C12.6796 11.0496 12.7711 11.0793 12.8631 11.1095C13.658 11.3707 14.5188 11.6778 15.2322 12.3282C16.0809 13.1021 16.5534 14.1011 16.5585 15.1309C16.5636 16.1665 16.0949 17.1582 15.2059 17.896C14.4998 18.4819 13.6218 18.7408 12.7837 18.8088V20.9385H11.2837V18.7422C10.5208 18.6148 9.81228 18.3508 9.35396 17.9881C8.85643 17.5945 8.48621 17.1706 8.2404 16.8466C8.11684 16.6837 8.02287 16.5437 7.9583 16.4416C7.7875 16.1716 7.64545 15.8829 7.49316 15.6024L8.81152 14.8869L9.16783 15.5434L9.16885 15.5452L9.17819 15.5615C9.18767 15.5777 9.20359 15.6043 9.22592 15.6396C9.27067 15.7104 9.3406 15.815 9.43542 15.94C9.62636 16.1917 9.91076 16.5159 10.2847 16.8118C10.5493 17.0211 11.2222 17.2748 12.0537 17.3207H12.5659C13.2187 17.2831 13.8192 17.0975 14.2479 16.7417C14.8168 16.2696 15.0612 15.6933 15.0585 15.1383C15.0557 14.5775 14.7992 13.9633 14.2216 13.4367C13.77 13.0249 13.194 12.7971 12.3949 12.5346C12.3083 12.5061 12.2192 12.4773 12.128 12.4478C11.4093 12.2153 10.5564 11.9393 9.68972 11.4477C7.62472 10.2763 7.48051 7.74547 8.99697 6.15482L9.0198 6.13087L9.04466 6.10902C9.72695 5.50929 10.4999 5.17202 11.2837 5.04896V3.00977H12.7837Z" fill="black"/>
</svg>
