<svg width="24" height="24" viewBox="0 0 24 24" fill="none" xmlns="http://www.w3.org/2000/svg">
<path d="M10.9414 2.05542L10.9052 2.05937C5.89703 2.60519 2 6.84702 2 12.0001C2 17.1531 5.89703 21.3949 10.9052 21.9407L10.9414 21.9447V20.4349C6.7469 19.9142 3.5 16.3358 3.5 12.0001C3.5 7.6643 6.7469 4.0859 10.9414 3.56526V2.05542Z" fill="black"/>
<path d="M12.9824 21.9531L13.1196 21.9378C15.0252 21.7253 16.7691 20.9774 18.1966 19.849L17.2664 18.6722C16.0596 19.6262 14.5892 20.259 12.9824 20.4438V21.9531Z" fill="black"/>
<path d="M12.9824 3.55598C14.5892 3.74074 16.0596 4.37359 17.2664 5.32751L18.1966 4.15076C16.7691 3.02238 15.0252 2.27443 13.1196 2.06193L12.9824 2.04663V3.55598Z" fill="black"/>
<path d="M18.6318 6.68264C19.6149 7.9071 20.2652 9.40826 20.4475 11.0506L21.9384 10.8851C21.7237 8.95089 20.9574 7.18318 19.8015 5.74354L18.6318 6.68264Z" fill="black"/>
<path d="M20.4475 12.9492C20.2652 14.5915 19.6149 16.0927 18.6318 17.3171L19.8015 18.2562C20.9574 16.8166 21.7237 15.0489 21.9384 13.1147L20.4475 12.9492Z" fill="black"/>
<path d="M13.9938 7.82812H10.0057V12.1788H7.42383L11.9998 16.7548L16.5757 12.1788H13.9938V7.82812Z" fill="black"/>
</svg>
