<svg width="24" height="24" viewBox="0 0 24 24" fill="none" xmlns="http://www.w3.org/2000/svg">
<path d="M14.1081 20.8783C13.9091 20.6843 13.7518 20.4517 13.6457 20.1948C13.5396 19.9379 13.4873 19.6622 13.4914 19.3843C13.4874 19.1067 13.5402 18.8312 13.6472 18.5751C13.7542 18.3189 13.9127 18.0875 14.113 17.8953C14.307 17.6963 14.5397 17.5389 14.7966 17.4328C15.0535 17.3267 15.3293 17.2741 15.6071 17.2783C15.8848 17.2741 16.1605 17.3272 16.4167 17.4342C16.6729 17.5412 16.9042 17.6999 17.0964 17.9003C17.2952 18.0944 17.4522 18.327 17.5583 18.5838C17.6644 18.8406 17.717 19.1164 17.7131 19.3943C17.7174 19.6719 17.6644 19.9474 17.5573 20.2036C17.4503 20.4598 17.2915 20.6912 17.091 20.8832C16.8969 21.0821 16.6648 21.2394 16.4079 21.3455C16.1511 21.4515 15.8752 21.5042 15.5974 21.5002C15.3197 21.5046 15.044 21.4517 14.7878 21.3447C14.5316 21.2376 14.3001 21.0789 14.1081 20.8783ZM6.90842 20.8783C6.709 20.6845 6.55099 20.452 6.44455 20.1951C6.33811 19.9382 6.28535 19.6623 6.28928 19.3843C6.28549 19.1066 6.33884 18.8312 6.44602 18.575C6.55319 18.3189 6.71194 18.0875 6.91233 17.8953C7.10622 17.6961 7.33853 17.5387 7.59543 17.4326C7.85233 17.3265 8.12855 17.274 8.40647 17.2783C8.68421 17.2741 8.9597 17.3273 9.21604 17.4343C9.47238 17.5413 9.70383 17.6999 9.89621 17.9003C10.095 18.0944 10.2521 18.327 10.3581 18.5838C10.4642 18.8406 10.5173 19.1164 10.5134 19.3943C10.5177 19.6719 10.4647 19.9475 10.3576 20.2037C10.2506 20.4599 10.0919 20.6912 9.89133 20.8832C9.69722 21.0821 9.46459 21.2394 9.20774 21.3455C8.95088 21.4515 8.67505 21.5042 8.39719 21.5002C8.11972 21.5045 7.84463 21.4515 7.58859 21.3445C7.33256 21.2375 7.10031 21.0788 6.90842 20.8783ZM14.1081 13.4883C13.909 13.2944 13.7518 13.0618 13.6457 12.8049C13.5396 12.548 13.4872 12.2722 13.4914 11.9943C13.4874 11.7167 13.5402 11.4412 13.6472 11.1851C13.7542 10.9289 13.9127 10.6975 14.113 10.5052C14.3071 10.3064 14.5398 10.1492 14.7966 10.0432C15.0534 9.93708 15.3293 9.88435 15.6071 9.88825C15.8848 9.88409 16.1605 9.93717 16.4167 10.0442C16.6729 10.1512 16.9042 10.3099 17.0964 10.5103C17.2953 10.7043 17.4522 10.9369 17.5583 11.1937C17.6644 11.4506 17.7171 11.7264 17.7131 12.0043C17.7174 12.2819 17.6644 12.5575 17.5573 12.8137C17.4503 13.0699 17.2916 13.3012 17.091 13.4933C16.8971 13.6925 16.6648 13.85 16.4079 13.9562C16.151 14.0625 15.8753 14.1153 15.5974 14.1113C15.3197 14.1152 15.044 14.062 14.7878 13.9548C14.5316 13.8476 14.3002 13.6888 14.1081 13.4883ZM6.90842 13.4883C6.70988 13.295 6.55258 13.0632 6.4465 12.8073C6.34043 12.5513 6.28761 12.2763 6.29123 11.9993C6.28738 11.7216 6.34079 11.4462 6.44797 11.19C6.55515 10.9338 6.71385 10.7024 6.91428 10.5103C7.10831 10.3113 7.341 10.154 7.59787 10.0479C7.85474 9.94183 8.13054 9.88918 8.40842 9.89325C8.68617 9.88913 8.96165 9.94225 9.21799 10.0493C9.47433 10.1563 9.70578 10.3149 9.89816 10.5153C10.0971 10.7093 10.2545 10.9419 10.3606 11.1987C10.4666 11.4556 10.5194 11.7314 10.5154 12.0093C10.5198 12.2869 10.4666 12.5625 10.3596 12.8187C10.2526 13.075 10.0939 13.3063 9.89328 13.4983C9.69941 13.6975 9.46707 13.8551 9.21018 13.9614C8.95329 14.0676 8.67711 14.1203 8.39914 14.1163C8.12094 14.1197 7.84498 14.0658 7.58859 13.9577C7.33221 13.8496 7.10021 13.6898 6.90842 13.4883ZM14.1081 6.10028C13.909 5.90636 13.7518 5.67383 13.6457 5.41693C13.5396 5.16004 13.4872 4.88417 13.4914 4.60626C13.4874 4.32867 13.5402 4.05322 13.6472 3.79706C13.7542 3.54089 13.9127 3.30948 14.113 3.11725C14.307 2.91824 14.5397 2.76087 14.7966 2.65479C15.0535 2.5487 15.3293 2.49612 15.6071 2.50024C15.8848 2.49609 16.1605 2.54917 16.4167 2.65619C16.6729 2.7632 16.9042 2.92186 17.0964 3.12225C17.2952 3.31639 17.4522 3.549 17.5583 3.80585C17.6644 4.06269 17.717 4.33841 17.7131 4.61627C17.7174 4.89389 17.6644 5.1694 17.5573 5.4256C17.4503 5.6818 17.2915 5.9132 17.091 6.10529C16.8969 6.30415 16.6648 6.46143 16.4079 6.56751C16.1511 6.67358 15.8752 6.72624 15.5974 6.72229C15.3197 6.72656 15.044 6.67343 14.7878 6.56622C14.5316 6.45902 14.3 6.30001 14.1081 6.09924V6.10028ZM6.90842 6.10028C6.7089 5.90656 6.551 5.67409 6.44455 5.41718C6.33811 5.16027 6.28523 4.88432 6.28928 4.60626C6.28543 4.32861 6.33884 4.05316 6.44602 3.797C6.55319 3.54084 6.71189 3.30943 6.91233 3.11725C7.10622 2.9181 7.33853 2.76064 7.59543 2.65454C7.85233 2.54844 8.12855 2.49594 8.40647 2.50024C8.68421 2.49613 8.9597 2.54924 9.21604 2.65625C9.47238 2.76326 9.70383 2.92188 9.89621 3.12225C10.095 3.31639 10.2521 3.549 10.3581 3.80585C10.4642 4.06269 10.5173 4.33841 10.5134 4.61627C10.5177 4.8939 10.4647 5.16945 10.3576 5.42566C10.2506 5.68187 10.0919 5.91324 9.89133 6.10529C9.69722 6.30415 9.46459 6.46143 9.20774 6.56751C8.95088 6.67358 8.67505 6.72624 8.39719 6.72229C8.11964 6.72642 7.84415 6.67318 7.58811 6.56598C7.33207 6.45878 7.1012 6.29989 6.9094 6.09924L6.90842 6.10028Z" fill="black"/>
</svg>
