<svg width="24" height="24" viewBox="0 0 24 24" fill="none" xmlns="http://www.w3.org/2000/svg">
<path d="M11.7488 3.0905C12.1028 2.79015 12.6233 2.79015 12.9773 3.0905C15.0282 4.83027 16.7373 6.61344 17.9385 8.40489C19.1384 10.1945 19.8599 12.0357 19.8599 13.8749C19.8599 18.0859 16.4931 21.2868 12.3688 21.3184H12.3573C8.23295 21.2868 4.86621 18.0859 4.86621 13.8749C4.86621 12.0357 5.58765 10.1945 6.78759 8.40489C7.98874 6.61344 9.6979 4.83027 11.7488 3.0905ZM8.98351 14.5784C8.94117 14.2359 8.62914 13.9925 8.28657 14.0348C7.944 14.0771 7.70061 14.3892 7.74294 14.7317L7.7477 14.7703C8.04361 17.1647 10.2245 18.8658 12.6189 18.5699C12.9615 18.5276 13.2049 18.2156 13.1625 17.873C13.1202 17.5304 12.8082 17.287 12.4656 17.3294C10.7564 17.5406 9.1995 16.3262 8.98827 14.617L8.98351 14.5784Z" fill="black"/>
</svg>
