<svg width="24" height="24" viewBox="0 0 24 24" fill="none" xmlns="http://www.w3.org/2000/svg">
<path d="M14.445 3.53642L11.9996 1.70874L9.55417 3.53642H11.9971L11.9996 3.53455L12.0021 3.53642H14.445ZM17.7842 4.74885C17.7555 4.75301 17.7261 4.75516 17.6962 4.75516H5.81166C5.79885 4.75516 5.78614 4.75476 5.77353 4.75398C4.89353 4.82201 4.20065 5.55763 4.20065 6.45508V7.53759L4.19684 7.54044V9.36625L4.20065 9.3634V12.4679L4.19684 12.466V14.0988L12.0001 17.972L19.8004 14.1002V6.45508C19.8004 5.51276 19.0365 4.74885 18.0942 4.74885H17.7842ZM7.75021 9.89675V8.43427H16.2509V9.89675H7.75021ZM21.0192 10.5907V8.44988L21.6031 8.88633C22.1573 9.30047 22.4836 9.95172 22.4836 10.6435V12.7731L21.0211 13.4988V13.4944L21.0192 13.4953V11.8626L21.0211 11.8616V10.6435C21.0211 10.6258 21.0204 10.6082 21.0192 10.5907ZM22.4836 20.6391V14.1336L12.0024 19.3346L1.51562 14.1308V20.6393C1.51562 21.8508 2.49779 22.833 3.70935 22.833H20.2898C21.5014 22.833 22.4836 21.8507 22.4836 20.6391ZM2.97811 13.496L2.97811 8.45131L2.39605 8.88633C1.84193 9.30047 1.51562 9.95172 1.51562 10.6435V12.7703L2.97811 13.496ZM7.75021 12.3453V10.8828H12.6042V12.3453H7.75021Z" fill="black"/>
</svg>
