<svg width="24" height="24" viewBox="0 0 24 24" fill="none" xmlns="http://www.w3.org/2000/svg">
<path d="M17.9265 5.71187L10.4499 1.97974L2.96882 5.71168C2.375 6.0079 1.99982 6.61451 2 7.27811L2.00195 14.6119C2.00224 15.7166 2.79867 16.6353 3.84863 16.8253V15.2438C3.64022 15.1106 3.50202 14.8772 3.50195 14.6115L3.5 7.27771C3.49998 7.18291 3.55357 7.09625 3.6384 7.05394L10.4497 3.65612L16.659 6.75562H18.8153C18.6755 6.30832 18.359 5.92775 17.9265 5.71187Z" fill="black"/>
<path d="M5.49707 10.2756C5.49707 9.03299 6.50443 8.02563 7.74707 8.02563H19.75C20.9926 8.02563 22 9.03299 22 10.2756V18.5767C22 19.8193 20.9926 20.8267 19.75 20.8267H7.74707C6.50443 20.8267 5.49707 19.8193 5.49707 18.5767V10.2756ZM20.041 10.0764L13.7545 13.4519L7.45585 10.0698L7.3623 11.7222L13.7545 15.1544L20.1346 11.7287L20.041 10.0764Z" fill="black"/>
</svg>
