<svg width="24" height="24" viewBox="0 0 24 24" fill="none" xmlns="http://www.w3.org/2000/svg">
<path d="M4.25 2C3.00736 2 2 3.00736 2 4.25V19.75C2 20.9926 3.00736 22 4.25 22H10.3199C10.1266 21.6761 10.0195 21.3011 10.0195 20.9108V17.8829C10.0195 17.1207 10.4277 16.4169 11.0893 16.0384L12.578 15.1867V14.4725L11.7336 13.3671L12.7233 12.6077C12.898 12.1599 13.2227 11.7767 13.6544 11.5317L16.1196 10.1329C16.8329 9.72822 17.7065 9.72919 18.4189 10.1355L20.8711 11.5341C21.4634 11.8719 21.9113 12.4704 22 13.1385V4.25C22 3.00736 20.9926 2 19.75 2H4.25ZM17.5248 5.72628L17.6935 6.9336L17.6755 6.94055L17.6202 6.96166C17.5714 6.98036 17.4992 7.00818 17.4063 7.04431C17.2205 7.1166 16.9522 7.22215 16.6233 7.3547C15.9651 7.61994 15.0663 7.99257 14.1025 8.42246C13.9397 8.49508 13.7174 8.742 13.5804 9.10493C13.5169 9.27317 13.4875 9.42794 13.4856 9.54453C13.4842 9.62503 13.4958 9.66181 13.4986 9.67039L13.868 10.154L12.5574 11.1595L11.9656 11.6116L11.9665 11.6129L10.9747 12.3737L10.5928 11.8738C10.5886 11.8694 10.5712 11.8517 10.5399 11.8303C10.5018 11.8041 10.4562 11.7818 10.4066 11.7698C10.3342 11.7521 10.1786 11.7353 9.92504 11.929C9.66121 12.1306 9.56988 12.3439 9.53469 12.4927C9.51607 12.5714 9.51226 12.6373 9.51254 12.6793C9.51267 12.6989 9.51369 12.7124 9.51425 12.7185L9.57768 13.0813L8.37758 13.9981C7.88385 14.3753 7.17783 14.2808 6.80065 13.787L5.50841 12.0955C5.13127 11.6018 5.2257 10.8958 5.71936 10.5186L6.86488 9.6433L7.15522 9.72392C7.16112 9.72513 7.1753 9.72783 7.19643 9.73048C7.23903 9.73581 7.3075 9.74064 7.39313 9.73411C7.56087 9.72132 7.79778 9.66527 8.04906 9.47332C8.24111 9.3266 8.28968 9.16416 8.29988 9.02728C8.30544 8.95282 8.29862 8.88579 8.29031 8.83829C8.28627 8.81519 8.28221 8.79864 8.28005 8.7905L8.2793 8.78773L8.13645 8.36991L12.1847 5.27734L17.5248 5.72628Z" fill="black"/>
<path d="M14.078 13.3799V16.0567L11.8342 17.3404C11.6396 17.4517 11.5195 17.6587 11.5195 17.8829V20.9108C11.5195 21.1345 11.6391 21.3412 11.8331 21.4526L14.3835 22.9186C14.5765 23.0295 14.814 23.0294 15.007 22.9183L17.2666 21.6164L19.516 22.9177C19.7102 23.0301 19.9498 23.0297 20.1437 22.9167L22.6865 21.4347C22.8786 21.3228 22.9968 21.1171 22.9968 20.8947V17.879C22.9968 17.655 22.877 17.4482 22.6826 17.3368L20.4433 16.053V13.3799C20.4433 13.1555 20.3229 12.9482 20.1279 12.837L17.6757 11.4384C17.423 11.2943 17.113 11.2939 16.8599 11.4375L14.3946 12.8363C14.1989 12.9474 14.078 13.155 14.078 13.3799ZM15.9577 13.3866L17.2665 12.644L18.5685 13.3866L17.2665 14.1479L15.9577 13.3866ZM17.8923 15.2299L19.1933 14.4693V16.0532L17.8923 16.7998V15.2299ZM18.5149 17.8837L19.8184 17.1357L21.1272 17.8859L19.8278 18.65L18.5149 17.8837ZM20.454 19.7319L21.7468 18.9716V20.5356L20.454 21.2891V19.7319ZM19.204 19.7333V21.2931L17.8923 20.5343V18.9676L19.204 19.7333ZM16.6423 18.9653V20.5335L15.32 21.2953V19.734L16.6423 18.9653ZM14.07 19.7329V21.2966L12.7695 20.5491V18.9724L14.07 19.7329ZM14.6959 18.6509L13.3928 17.8888L14.7038 17.1388L16.014 17.8847L14.6959 18.6509ZM16.6423 16.804L15.328 16.0558V14.4665L16.6423 15.2309V16.804Z" fill="black"/>
</svg>
