<svg width="24" height="24" viewBox="0 0 24 24" fill="none" xmlns="http://www.w3.org/2000/svg">
<path d="M4.25 2C3.00736 2 2 3.00736 2 4.25V19.75C2 20.9926 3.00736 22 4.25 22H9.38861L9.37695 13.8301H12.0873L11.7336 13.3671L14.6269 11.1473L16.6763 13.8301H22V4.25C22 3.00736 20.9926 2 19.75 2H4.25ZM17.5248 5.72628L17.6935 6.9336L17.6755 6.94055L17.6202 6.96166C17.5714 6.98036 17.4992 7.00818 17.4063 7.04431C17.2205 7.1166 16.9522 7.22215 16.6233 7.3547C15.9651 7.61994 15.0663 7.99257 14.1025 8.42246C13.9397 8.49508 13.7174 8.742 13.5804 9.10493C13.5169 9.27317 13.4875 9.42794 13.4856 9.54453C13.4842 9.62503 13.4958 9.66181 13.4986 9.67039L13.868 10.154L12.5574 11.1595L11.9656 11.6116L11.9665 11.6129L10.9747 12.3737L10.5928 11.8738C10.5886 11.8694 10.5712 11.8517 10.5399 11.8303C10.5018 11.8041 10.4562 11.7818 10.4066 11.7698C10.3342 11.7521 10.1786 11.7353 9.92504 11.929C9.66121 12.1306 9.56988 12.3439 9.53469 12.4927C9.51607 12.5714 9.51226 12.6373 9.51254 12.6793C9.51267 12.6989 9.51369 12.7124 9.51425 12.7185L9.57768 13.0813L8.37758 13.9981C7.88385 14.3753 7.17783 14.2808 6.80065 13.787L5.50841 12.0955C5.13127 11.6018 5.2257 10.8958 5.71936 10.5186L6.86488 9.6433L7.15522 9.72392C7.16112 9.72513 7.1753 9.72783 7.19643 9.73048C7.23903 9.73581 7.3075 9.74064 7.39313 9.73411C7.56087 9.72132 7.79778 9.66527 8.04906 9.47332C8.24111 9.3266 8.28968 9.16416 8.29988 9.02728C8.30544 8.95282 8.29862 8.88579 8.29031 8.83829C8.28627 8.81519 8.28221 8.79864 8.28005 8.7905L8.2793 8.78773L8.13645 8.36991L12.1847 5.27734L17.5248 5.72628Z" fill="black"/>
<path d="M10.8803 23L10.8789 15.3301H12.4712V23H10.8803Z" fill="black"/>
<path d="M13.3161 15.3301V23H14.4875V15.3301H13.3161Z" fill="black"/>
<path d="M15.3338 15.3301V23H16.0369L16.0449 15.3301H15.3338Z" fill="black"/>
<path d="M16.8999 15.3301L16.9 23H19.04L19.0397 15.3301H16.8999Z" fill="black"/>
<path d="M21.4 15.3301L21.3987 23H23L23.0004 15.3301H21.4Z" fill="black"/>
<path d="M19.9 15.3301V23H20.5452L20.5527 15.3301H19.9Z" fill="black"/>
</svg>
