<svg width="24" height="24" viewBox="0 0 24 24" fill="none" xmlns="http://www.w3.org/2000/svg">
<path d="M8.88703 19.7934V21.2934H2.69922V15.1056H4.19922L4.19922 18.7334L8.17045 14.7622L9.23111 15.8228L5.26057 19.7934H8.88703Z" fill="black"/>
<path d="M8.88703 4.20679L8.88703 2.70679H2.69922V8.8946L4.19922 8.8946V5.26676L8.17045 9.23799L9.23111 8.17733L5.26057 4.20679H8.88703Z" fill="black"/>
<path d="M18.7378 4.20679L15.1113 4.20679V2.70679H21.2991V8.8946H19.7991V5.26676L15.8279 9.23799L14.7672 8.17733L18.7378 4.20679Z" fill="black"/>
<path d="M18.7378 19.7934H15.1113V21.2934H21.2991V15.1056H19.7991V18.7334L15.8279 14.7622L14.7672 15.8228L18.7378 19.7934Z" fill="black"/>
</svg>
