<svg width="24" height="24" viewBox="0 0 24 24" fill="none" xmlns="http://www.w3.org/2000/svg">
<path d="M9.01758 11.5017C9.01758 9.88026 10.345 8.55493 11.9961 8.55493C13.6471 8.55493 14.9745 9.88026 14.9745 11.5017C14.9745 13.123 13.6471 14.4484 11.9961 14.4484C10.345 14.4484 9.01758 13.123 9.01758 11.5017Z" fill="black"/>
<path d="M5.03344 6.3546C7.03369 4.98209 9.30362 4.13989 11.9962 4.13989C14.6889 4.13989 16.959 4.98208 18.9592 6.3546C19.9065 7.00463 20.7625 7.91299 21.4364 8.79103C22.1088 9.66717 22.6369 10.5616 22.9059 11.2167L23.0229 11.5016L22.9059 11.7865C22.6369 12.4416 22.1088 13.3361 21.4364 14.2123C20.7625 15.0904 19.9066 15.9988 18.9592 16.6488C16.959 18.0213 14.6889 18.8635 11.9962 18.8635C9.30362 18.8635 7.03369 18.0213 5.03344 16.6488C4.0861 15.9988 3.23015 15.0904 2.55628 14.2123C1.88385 13.3361 1.35575 12.4416 1.08674 11.7865L0.969727 11.5016L1.08674 11.2167C1.35575 10.5616 1.88386 9.66717 2.55629 8.79103C3.23017 7.91299 4.08611 7.00463 5.03344 6.3546ZM11.9961 7.05493C9.52873 7.05493 7.51758 9.03976 7.51758 11.5017C7.51758 13.9635 9.52873 15.9484 11.9961 15.9484C14.4634 15.9484 16.4745 13.9635 16.4745 11.5017C16.4745 9.03976 14.4634 7.05493 11.9961 7.05493Z" fill="black"/>
</svg>
