<svg width="24" height="24" viewBox="0 0 24 24" fill="none" xmlns="http://www.w3.org/2000/svg">
<path d="M2 4.25C2 3.00736 3.00736 2 4.25 2H14.5743C15.817 2 16.8243 3.00736 16.8243 4.25V8.50645C16.7167 8.50217 16.6086 8.5 16.5 8.5C15.2069 8.5 13.9855 8.80679 12.9045 9.35156H5.50586V10.8516H10.8347C10.2063 11.4818 9.68244 12.2163 9.29121 13.0269H5.50586V14.5269H8.74517C8.58507 15.158 8.5 15.8191 8.5 16.5C8.5 17.9571 8.88958 19.3233 9.57026 20.5H4.25C3.00736 20.5 2 19.4926 2 18.25V4.25ZM5.50586 7.17578H13.3167V5.67578H5.50586V7.17578Z" fill="black"/>
<path d="M16.5 23C20.0899 23 23 20.0899 23 16.5C23 12.9101 20.0899 10 16.5 10C12.9101 10 10 12.9101 10 16.5C10 20.0899 12.9101 23 16.5 23ZM15.75 13.35V12.5H17.25V13.35H19V14.85H15.5833V15.75H18.1667C18.5809 15.75 18.9167 16.0858 18.9167 16.5V18.9C18.9167 19.3142 18.5809 19.65 18.1667 19.65H17.25V20.5H15.75V19.65H14V18.15H17.4167V17.25H14.8333C14.4191 17.25 14.0833 16.9142 14.0833 16.5V14.1C14.0833 13.6858 14.4191 13.35 14.8333 13.35H15.75Z" fill="black"/>
</svg>
