<svg width="24" height="24" viewBox="0 0 24 24" fill="none" xmlns="http://www.w3.org/2000/svg">
<path d="M20 19.2603V8.01472L13.9348 1.74023H7C5.34315 1.74023 4 3.08338 4 4.74023V19.2603C4 20.9171 5.34315 22.2603 7 22.2603H17C18.6569 22.2603 20 20.9171 20 19.2603ZM13.5918 8.31187V3.60205L18.1752 8.31187H13.5918ZM15.0742 12.17L13.8918 17.693H12.6523L11.7985 14.5448L10.9434 17.6976H9.70393L8.52151 12.1746L8.47656 12.0051L9.79163 12.0051L10.4641 15.2007L11.2746 12.197H11.3243V12.1924H12.3211L13.1316 15.1961L13.8041 12.0005L15.1191 12.0005L15.0742 12.17Z" fill="black"/>
</svg>
