<svg width="24" height="24" viewBox="0 0 24 24" fill="none" xmlns="http://www.w3.org/2000/svg">
<path d="M19 8.09838V9.53223L9.94922 18.5832L9.94712 22H5.25C4.00736 22 3 20.9926 3 19.75V4.25C3 3.00736 4.00736 2 5.25 2H12.9104L19 8.09838ZM17.1664 8.38501L12.6113 3.82332V8.38501H17.1664Z" fill="black"/>
<path d="M17.808 13.2372C18.1009 12.9444 18.5758 12.9444 18.8687 13.2372L20.7803 15.1489C20.921 15.2896 21 15.4803 21 15.6792C21 15.8781 20.921 16.0689 20.7803 16.2096L19.5461 17.4437L16.5753 14.47L17.808 13.2372Z" fill="black"/>
<path d="M15.5145 15.5307L18.4853 18.5045L14.9897 22H11.9648V19.0804L15.5145 15.5307Z" fill="black"/>
</svg>
