<svg width="24" height="24" viewBox="0 0 24 24" fill="none" xmlns="http://www.w3.org/2000/svg">
<path d="M7.92822 18.6089C8.12242 18.1367 8.78499 17.6023 9.13274 17.3218C9.18929 17.2761 9.23752 17.2372 9.27405 17.2064C8.43291 18.4206 7.92822 18.6369 7.92822 18.6089Z" fill="black"/>
<path d="M11.5407 10.9715C11.8683 10.9715 11.8373 12.2577 11.6204 12.6064C11.4256 12.0494 11.43 10.9715 11.5407 10.9715Z" fill="black"/>
<path d="M10.4605 16.4451C10.8899 15.7679 11.2574 14.9625 11.554 14.2532C11.9214 14.8583 12.3907 15.3432 12.8866 15.6757C12.189 15.8063 11.5601 16.0403 10.9901 16.2523C10.8077 16.3202 10.6312 16.3858 10.4605 16.4451Z" fill="black"/>
<path d="M16.2865 16.2447C16.2865 16.2447 16.0652 16.4852 14.6352 15.9322C16.1892 15.828 16.4459 16.1486 16.2865 16.2447Z" fill="black"/>
<path d="M4 4.56173C4 3.00346 5.23122 1.74023 6.75 1.74023H13.9104L20 7.99718V19.4387C20 20.997 18.7688 22.2602 17.25 22.2602H6.75C5.23122 22.2602 4 20.997 4 19.4387V4.56173ZM13.6113 3.61096V8.29125H18.1664L13.6113 3.61096ZM16.6983 15.4914C16.1582 15.0106 14.6175 15.1428 13.8472 15.231C13.0858 14.8102 12.5767 14.2292 12.2181 13.3757L12.2334 13.3184C12.4063 12.6736 12.6591 11.7308 12.4571 11.1318C12.2712 10.0819 10.7837 10.1861 10.5712 10.8954C10.3764 11.5405 10.5535 12.4381 10.8811 13.5841C10.4384 14.5417 9.77874 15.828 9.31389 16.5653C8.42848 16.978 7.23317 17.6151 7.05608 18.4165C6.90999 19.0497 8.20712 20.6284 10.4251 17.1664C10.607 17.112 10.7919 17.0553 10.9785 16.9981C11.8089 16.7435 12.6724 16.4787 13.4532 16.3609C14.2899 16.7697 15.2683 17.0421 15.9235 17.0421C17.0524 17.0421 17.1631 15.9122 16.6983 15.4914Z" fill="black"/>
</svg>
