<svg width="24" height="24" viewBox="0 0 24 24" fill="none" xmlns="http://www.w3.org/2000/svg">
<path d="M4 4.25C4 3.00736 5.00736 2 6.25 2H13.9104L20 8.09838V10.2931C19.7277 10.1914 19.4328 10.1357 19.125 10.1357H4.875C4.56717 10.1357 4.27233 10.1914 4 10.2931V4.25ZM13.6113 3.82332V8.38501H18.1664L13.6113 3.82332Z" fill="black"/>
<path d="M19.125 20.1357C19.4284 20.1357 19.7191 20.0817 19.9881 19.9827C19.8716 21.116 18.9141 22 17.75 22H6.25C5.08595 22 4.12836 21.116 4.01189 19.9828C4.28091 20.0817 4.57165 20.1357 4.875 20.1357H19.125Z" fill="black"/>
<path d="M12.271 14.3559C12.3634 14.5676 12.4095 14.8275 12.4095 15.1358C12.4095 15.444 12.3634 15.7039 12.271 15.9156C12.1801 16.1272 12.0516 16.2878 11.8854 16.3971C11.7192 16.5065 11.5246 16.5612 11.3016 16.5612C11.0786 16.5612 10.884 16.5065 10.7178 16.3971C10.5516 16.2878 10.4223 16.1272 10.33 15.9156C10.2391 15.7039 10.1936 15.444 10.1936 15.1358C10.1936 14.8275 10.2391 14.5676 10.33 14.3559C10.4223 14.1443 10.5516 13.9838 10.7178 13.8744C10.884 13.765 11.0786 13.7103 11.3016 13.7103C11.5246 13.7103 11.7192 13.765 11.8854 13.8744C12.0516 13.9838 12.1801 14.1443 12.271 14.3559Z" fill="black"/>
<path d="M3.125 12.6357C3.125 11.6692 3.9085 10.8857 4.875 10.8857H19.125C20.0915 10.8857 20.875 11.6692 20.875 12.6357V17.6357C20.875 18.6022 20.0915 19.3857 19.125 19.3857H4.875C3.9085 19.3857 3.125 18.6022 3.125 17.6357V12.6357ZM13.0743 16.3503C13.2547 16.0164 13.3449 15.6116 13.3449 15.1358C13.3449 14.6599 13.2547 14.2551 13.0743 13.9213C12.8953 13.5875 12.651 13.3332 12.3414 13.1585C12.0331 12.9824 11.6865 12.8943 11.3016 12.8943C10.9138 12.8943 10.5658 12.9824 10.2575 13.1585C9.94931 13.3332 9.7057 13.5875 9.52672 13.9213C9.34774 14.2551 9.25826 14.6599 9.25826 15.1358C9.25826 15.6102 9.34774 16.0143 9.52672 16.3481C9.7057 16.6819 9.94931 16.9369 10.2575 17.113C10.5658 17.2892 10.9138 17.3772 11.3016 17.3772C11.6865 17.3772 12.0331 17.2899 12.3414 17.1152C12.651 16.939 12.8953 16.6841 13.0743 16.3503ZM6.10059 12.9539V17.3176H8.89391V16.5569H7.02317V12.9539H6.10059ZM16.9218 14.3645H17.8593C17.8295 14.1485 17.762 13.9511 17.6569 13.7721C17.5518 13.5917 17.4161 13.4362 17.2499 13.3055C17.0851 13.1748 16.8962 13.074 16.6832 13.003C16.4701 12.9305 16.24 12.8943 15.9928 12.8943C15.7045 12.8943 15.4367 12.9447 15.1895 13.0456C14.9424 13.1464 14.7258 13.2934 14.5397 13.4866C14.3536 13.6798 14.2087 13.9156 14.105 14.194C14.0028 14.471 13.9516 14.7863 13.9516 15.14C13.9516 15.6003 14.0376 15.998 14.2094 16.3332C14.3827 16.667 14.6242 16.9248 14.9339 17.1066C15.2435 17.287 15.6029 17.3772 16.012 17.3772C16.3785 17.3772 16.7037 17.3034 16.9878 17.1557C17.2719 17.0065 17.4949 16.7949 17.6569 16.5207C17.8188 16.2451 17.8998 15.9156 17.8998 15.5321V14.9824H16.0738V15.677H17.011C17.0072 15.8514 16.9675 16.0034 16.892 16.1329C16.8138 16.2693 16.7002 16.3751 16.551 16.4504C16.4033 16.5243 16.2251 16.5612 16.0162 16.5612C15.7861 16.5612 15.5866 16.5058 15.4175 16.395C15.2485 16.2828 15.1178 16.1201 15.0255 15.9071C14.9332 15.694 14.887 15.4355 14.887 15.1315C14.887 14.8275 14.9339 14.5704 15.0276 14.3602C15.1214 14.1485 15.252 13.9873 15.4197 13.8765C15.5887 13.7657 15.7847 13.7103 16.0077 13.7103C16.127 13.7103 16.2357 13.7253 16.3337 13.7551C16.4332 13.7849 16.5212 13.8282 16.5979 13.8851C16.676 13.9405 16.7421 14.0086 16.7961 14.0896C16.8501 14.1691 16.892 14.2608 16.9218 14.3645Z" fill="black"/>
</svg>
