<svg width="24" height="24" viewBox="0 0 24 24" fill="none" xmlns="http://www.w3.org/2000/svg">
<path d="M11.5625 11.3994V10.5028C10.6401 10.7629 9.9134 11.49 9.65379 12.4126H10.5488V13.9126H9.65376C9.91335 14.8353 10.64 15.5623 11.5625 15.8225V14.9258H13.0625V15.8233C13.9864 15.5639 14.7144 14.8363 14.9743 13.9126H14.0762V12.4126H14.9742C14.7143 11.489 13.9864 10.7614 13.0625 10.502V11.3994H11.5625Z" fill="black"/>
<path d="M6.56055 1.92871C5.31791 1.92871 4.31055 2.93607 4.31055 4.17871V19.6787C4.31055 20.9214 5.31791 21.9287 6.56055 21.9287H18.0606C19.3032 21.9287 20.3106 20.9214 20.3106 19.6787V8.02709L14.221 1.92871H6.56055ZM11.5625 8.96544V7.89941H13.0625V8.9649C14.8166 9.27555 16.2002 10.6587 16.5115 12.4126H17.5762V13.9126H16.5115C16.2002 15.6665 14.8166 17.0497 13.0625 17.3604V18.4258H11.5625V17.3599C9.80983 17.0481 8.4276 15.6655 8.11653 13.9126H7.04883V12.4126H8.11655C8.42765 10.6598 9.80986 9.27714 11.5625 8.96544Z" fill="black"/>
</svg>
