<svg width="24" height="24" viewBox="0 0 24 24" fill="none" xmlns="http://www.w3.org/2000/svg">
<path d="M19 4.25V9.82216L14.7445 14H6.75V15.5H13.2166L10.0059 18.6521V22H5.25C4.00736 22 3 20.9926 3 19.75V4.25C3 3.00736 4.00736 2 5.25 2H16.75C17.9926 2 19 3.00736 19 4.25ZM6.75 10V11.5H15.25V10H6.75ZM6.75 7.5H15.25V6H6.75V7.5Z" fill="black"/>
<path d="M21.4941 11.71C21.9084 11.71 22.2441 12.0457 22.2441 12.46C22.2441 13.5523 21.9827 15.0265 21.1621 16.5805C21.1581 16.5884 21.154 16.5963 21.1496 16.6041C20.6869 17.475 20.0482 18.3704 19.1813 19.2372C18.346 20.0726 17.4969 20.6858 16.6838 21.1322L16.6683 21.1406C14.9519 22.0789 13.3971 22.2744 12.4724 22.2476C12.0668 22.2358 11.7441 21.9036 11.7441 21.4979V19.1936C11.7441 18.8436 11.9862 18.5402 12.3274 18.4624L14.3721 17.9962C14.6216 17.9393 14.8829 18.0136 15.0652 18.1932L16.4316 19.5394C16.9835 19.1898 17.5535 18.7437 18.1207 18.1766C18.7155 17.5817 19.1833 16.976 19.5485 16.3826L18.2168 15.1289C18.0279 14.951 17.9443 14.688 17.9959 14.4336L18.4269 12.3108C18.4979 11.9612 18.8052 11.71 19.1619 11.71H21.4941Z" fill="black"/>
</svg>
