<svg width="24" height="24" viewBox="0 0 24 24" fill="none" xmlns="http://www.w3.org/2000/svg">
<path d="M16.6113 1.77783H7.12411L4.92394 4.17849L2.55859 6.65542V19.4722C2.55859 20.991 3.78981 22.2222 5.3086 22.2222H10.2425L10.2527 19.445L10.8711 18.8266H9.32812L9.18359 18.5882L8.67969 17.7592L8.14062 18.5882L7.98437 18.8266L6.0879 18.8266V17.8266L7.44922 17.8266L8.27734 16.5916L8.70703 15.9311L9.11719 16.5916L9.87538 17.8266L11.4141 17.8266V17.8292H11.8685L19.3613 10.3364L19.3613 4.52784C19.3613 3.00905 18.1301 1.77783 16.6113 1.77783ZM6.70408 6.20601H5.06186L6.01938 5.20331L6.70408 4.45622V6.20601ZM12.7922 13.5379H6.4961V12.2879H12.7922V13.5379ZM6.4961 10.3098V9.05978H15.4667V10.3098H6.4961Z" fill="black"/>
<path d="M18.1504 13.3066C18.4413 13.0243 18.904 13.0243 19.1949 13.3066L21.2124 15.2642C21.358 15.4054 21.4401 15.5996 21.4401 15.8024C21.4401 16.0053 21.358 16.1994 21.2124 16.3407L19.8887 17.6251L16.8002 14.6166L18.1504 13.3066Z" fill="black"/>
<path d="M18.8829 18.584L15.1861 22.1709H12.0591V19.2L15.7945 15.5755L18.8829 18.584Z" fill="black"/>
</svg>
