<svg width="24" height="24" viewBox="0 0 24 24" fill="none" xmlns="http://www.w3.org/2000/svg">
<path d="M7.16767 4.25H8.83365L15.0414 19.75H13.4255L11.423 14.75H4.57827L2.57579 19.75H0.959961L7.16767 4.25ZM5.17902 13.25H10.8223L8.00066 6.20465L5.17902 13.25Z" fill="black"/>
<path d="M21.25 19.7734V19.0003C20.6233 19.471 19.8442 19.75 19 19.75C16.9289 19.75 15.25 18.0711 15.25 16C15.25 13.9289 16.9289 12.25 19 12.25C19.8442 12.25 20.6233 12.529 21.25 12.9997V12.2266H22.75V19.7734H21.25ZM19 13.75C17.7574 13.75 16.75 14.7574 16.75 16C16.75 17.2426 17.7574 18.25 19 18.25C20.2426 18.25 21.25 17.2426 21.25 16C21.25 14.7574 20.2426 13.75 19 13.75Z" fill="black"/>
</svg>
