<svg width="24" height="24" viewBox="0 0 24 24" fill="none" xmlns="http://www.w3.org/2000/svg">
<path d="M2.46785 20.4902C2.90712 21.1074 3.65611 21.5 4.41594 21.5C5.08145 21.5 5.71077 21.2606 6.22753 20.8088C7.53775 19.6473 8.16073 17.6626 8.6155 16.2138C9.07605 14.7337 9.35739 13.2419 9.5511 12.1074C9.65236 11.5227 9.73659 11.0495 9.81618 10.6181L9.83588 10.5113H12.0546L12.7957 9.01214H10.1309L10.1639 8.85487C10.3708 7.86863 10.6422 6.87169 10.9704 5.892C11.1305 5.41114 11.3249 4.85685 11.6066 4.36324C11.8743 3.87629 12.1877 3.31947 12.8407 3.41868L13.1609 3.46734L12.8963 3.65423C12.5636 3.88928 12.365 4.27239 12.365 4.6791C12.365 5.37051 12.9275 5.933 13.6189 5.933C14.3103 5.933 14.8728 5.37051 14.8728 4.6791C14.8728 3.40308 13.8042 2.5 12.5774 2.5C11.916 2.5 11.2045 2.77978 10.626 3.26706C10.3753 3.48123 10.1589 3.74504 9.98059 3.97445C9.70933 4.3263 9.4594 4.71403 9.23807 5.12616C8.6737 6.19193 8.31262 7.31973 7.99148 8.38253C7.94123 8.55386 7.89064 8.7333 7.84108 8.91584L7.81495 9.01214H5.66067L4.91948 10.5113H7.45528L7.4225 10.6684C7.36626 10.9382 7.31202 11.2148 7.26141 11.4899C7.2274 11.6803 7.19082 11.8835 7.15279 12.0948C6.98409 13.0323 6.7929 14.0948 6.66386 14.918C6.4496 16.2469 6.22409 17.5409 5.82343 18.7636L5.82235 18.7667C5.63723 19.2865 5.41934 19.8208 4.97515 20.1431L4.97303 20.1446C4.77037 20.2855 4.51015 20.3629 4.2474 20.3629C4.10199 20.3629 3.97656 20.3629 3.83787 20.2459L4.0358 20.1048C4.36558 19.8695 4.56247 19.4876 4.56247 19.0832C4.56247 18.3918 3.99998 17.8293 3.30859 17.8293C2.61719 17.8293 2.05469 18.3918 2.05469 19.0832C2.05469 19.5817 2.17334 20.0764 2.46785 20.4902Z" fill="black"/>
<path d="M19.0113 17.4999C19.0537 17.5022 19.0964 17.5033 19.138 17.5033C19.9005 17.5033 20.545 17.1222 21.0537 16.3705C21.5068 15.701 21.766 14.8655 21.909 14.2333H20.44C20.3129 14.6159 20.1629 14.9532 19.9937 15.2372C19.9214 15.3584 19.8443 15.4677 19.7645 15.5622C19.6722 15.6713 19.4803 15.8983 19.2322 15.8983C19.1732 15.8983 19.1149 15.8855 19.0588 15.8602C18.8972 15.7875 18.8187 15.6274 18.7683 15.496C18.72 15.37 18.6824 15.2327 18.6463 15.0509C18.6002 14.8188 18.5729 14.5827 18.5465 14.3543C18.54 14.2978 18.5334 14.2413 18.5266 14.1849L18.5103 14.0248C18.4837 13.7635 18.4562 13.4934 18.4261 13.227L18.4195 13.1692L20.1843 11.1806L20.2733 11.224C20.4326 11.3017 20.6041 11.3411 20.783 11.3411C21.4251 11.3411 21.9474 10.8188 21.9474 10.1767C21.9474 9.53458 21.4251 9.01221 20.783 9.01221C20.4529 9.01221 20.1369 9.15326 19.9165 9.39863L18.131 11.4107L18.0649 11.1841C17.9838 10.9062 17.8905 10.6623 17.7792 10.4374C17.3719 9.59552 16.6516 9.09909 15.8027 9.07542C15.7744 9.07452 15.7459 9.07406 15.7179 9.07406C14.9265 9.07406 14.264 9.4278 13.749 10.1255C13.3512 10.6643 13.0552 11.4042 12.9083 12.2221H14.2451C14.4826 11.6704 14.9355 10.8276 15.5059 10.7632L15.5084 10.7629L15.5108 10.7627C15.5271 10.7615 15.5441 10.7609 15.5613 10.7609C15.6163 10.7609 15.6762 10.7672 15.7342 10.7791C15.873 10.8071 15.945 10.879 16.0098 10.9775C16.0544 11.0441 16.0958 11.1243 16.1331 11.2166C16.2622 11.5414 16.3277 11.9372 16.3657 12.2064C16.41 12.5164 16.4464 12.888 16.4771 13.212L16.4824 13.2685L14.6671 15.314L14.5781 15.2706C14.4188 15.193 14.2474 15.1536 14.0688 15.1536C13.4267 15.1536 12.9043 15.6759 12.9043 16.3181C12.9043 16.9602 13.4267 17.4827 14.0688 17.4827C14.3905 17.4827 14.701 17.3476 14.9206 17.112L14.9258 17.1064C14.9364 17.0948 14.947 17.0829 14.9573 17.0708L16.7457 15.0553L16.8094 15.2874C17.1943 16.6904 17.9355 17.4348 19.0113 17.4999Z" fill="black"/>
</svg>
