<svg width="24" height="24" viewBox="0 0 24 24" fill="none" xmlns="http://www.w3.org/2000/svg">
<path d="M12.7524 20.4819C8.78391 20.4819 5.44614 17.7813 4.47662 14.1177H2.93273C3.93456 18.6177 7.95062 21.9819 12.7524 21.9819C18.3085 21.9819 22.8125 17.4779 22.8125 11.9219C22.8125 6.36586 18.3085 1.86182 12.7524 1.86182C7.46785 1.86182 3.13496 5.93654 2.72423 11.1155H1.18555V12.6155H2.71592L2.71607 12.6177H4.22025L4.22008 12.6155H14.5211L11.6892 15.4474L12.7499 16.5081L17.3359 11.922L12.7499 7.33594L11.6892 8.3966L14.4081 11.1155H4.22986C4.63623 6.76608 8.29678 3.36182 12.7524 3.36182C17.48 3.36182 21.3125 7.19429 21.3125 11.9219C21.3125 16.6495 17.48 20.4819 12.7524 20.4819Z" fill="black"/>
</svg>
