<svg width="24" height="24" viewBox="0 0 24 24" fill="none" xmlns="http://www.w3.org/2000/svg">
<path d="M4.67773 7.28496C4.67773 5.0344 6.50217 3.20996 8.75273 3.20996C11.0033 3.20996 12.8277 5.0344 12.8277 7.28496C12.8277 9.53552 11.0033 11.36 8.75273 11.36C6.50217 11.36 4.67773 9.53552 4.67773 7.28496Z" fill="black"/>
<path d="M0.5 17.3339V20.7812H17.0059V17.3339C17.0059 16.6503 16.635 16.0696 16.1665 15.6221C15.6919 15.1688 15.0454 14.7792 14.308 14.4609C12.8289 13.8225 10.8502 13.4135 8.75293 13.4135C6.65566 13.4135 4.67695 13.8225 3.1979 14.4609C2.46041 14.7792 1.81391 15.1688 1.33939 15.6221C0.870884 16.0696 0.5 16.6503 0.5 17.3339Z" fill="black"/>
<path d="M23.4977 9.11133L17.8965 9.11144L17.8965 10.6114L23.4977 10.6114V9.11133Z" fill="black"/>
<path d="M14.3265 7.28618C14.3265 8.89153 13.648 10.3384 12.5621 11.3556C12.6248 11.3585 12.688 11.36 12.7515 11.36C15.0021 11.36 16.8265 9.53552 16.8265 7.28496C16.8265 5.0344 15.0021 3.20996 12.7515 3.20996C12.6872 3.20996 12.6232 3.21145 12.5596 3.2144C13.6469 4.23176 14.3265 5.67961 14.3265 7.28618Z" fill="black"/>
<path d="M18.5046 17.3352V20.7812H21.0046V17.3339C21.0046 16.6503 20.6337 16.0696 20.1652 15.6221C19.6907 15.1688 19.0442 14.7792 18.3067 14.4609C17.7002 14.1991 17.0096 13.9758 16.2613 13.8036C16.5996 14.0229 16.9172 14.2672 17.2013 14.5386C17.8257 15.1351 18.5046 16.0815 18.5046 17.3352Z" fill="black"/>
</svg>
