<svg width="24" height="24" viewBox="0 0 24 24" fill="none" xmlns="http://www.w3.org/2000/svg">
<path d="M2.25 4.20508V19.7954H3.75V12.7502H11.25V19.7954H12.75V4.20508H11.25V11.2502L3.75 11.2502V4.20508H2.25Z" fill="black"/>
<path d="M16.2263 8.25024H21.7773V9.75024H17.481L16.8974 13.001C17.3169 12.8391 17.7725 12.7502 18.248 12.7502C20.3191 12.7502 21.998 14.4292 21.998 16.5002C21.998 18.5713 20.3191 20.2502 18.248 20.2502C16.6324 20.2502 15.2554 19.2286 14.7279 17.796L16.1754 17.3773C16.5172 18.1842 17.3165 18.7502 18.248 18.7502C19.4907 18.7502 20.498 17.7429 20.498 16.5002C20.498 15.2576 19.4907 14.2502 18.248 14.2502C17.784 14.2502 17.3548 14.3899 16.9974 14.6294L16.629 14.8764L15.1722 14.1223L16.2263 8.25024Z" fill="black"/>
</svg>
