<svg width="24" height="24" viewBox="0 0 24 24" fill="none" xmlns="http://www.w3.org/2000/svg">
<path d="M2 12C2 6.47717 6.47754 2 12 2C17.5225 2 22 6.47717 22 12C22 17.5228 17.5225 22 12 22C6.47754 22 2 17.5228 2 12ZM11.8584 7.46533C12.5781 7.46533 13.0332 7.7041 13.3076 7.98535C13.5928 8.27747 13.7305 8.66272 13.7305 9.02454C13.7305 9.46326 13.6514 9.72595 13.5234 9.9491C13.3789 10.1996 13.1484 10.4498 12.7402 10.8344L12.667 10.9032C11.916 11.6093 11.1533 12.3263 11.1533 13.5856V14.3356H12.6533V13.5856C12.6533 13.2501 12.7461 13.0099 13.0098 12.6937C13.1826 12.4866 13.4287 12.2467 13.7686 11.926C14.1768 11.541 14.5586 11.158 14.8242 10.6952C15.1055 10.2051 15.2305 9.6748 15.2305 9.02454C15.2305 8.29749 14.957 7.5282 14.3809 6.93774C13.7949 6.33679 12.9385 5.96533 11.8584 5.96533C10.043 5.96533 9.21582 7.06824 8.89258 7.55872L8.48047 8.18506L9.7334 9.01025L10.1455 8.38391C10.3613 8.05701 10.793 7.46533 11.8584 7.46533ZM10.9521 16.7449C10.9521 17.2855 11.3906 17.7239 11.9307 17.7239C12.2402 17.7239 12.5156 17.5806 12.6953 17.3568C12.8301 17.1892 12.9102 16.9764 12.9102 16.7449C12.9102 16.2042 12.4717 15.766 11.9307 15.766C11.3906 15.766 10.9521 16.2042 10.9521 16.7449Z" fill="black"/>
</svg>
