<svg width="24" height="24" viewBox="0 0 24 24" fill="none" xmlns="http://www.w3.org/2000/svg">
<path d="M12.041 4.25C8.96834 4.25 6.31185 6.03858 5.05851 8.63281H9.03906V10.1328H2.71094V3.8042H4.21094V7.07343C5.84844 4.47617 8.74252 2.75 12.041 2.75C17.1496 2.75 21.291 6.89137 21.291 12C21.291 17.1086 17.1496 21.25 12.041 21.25C7.27025 21.25 3.34304 17.6383 2.84444 13H4.35494C4.84548 16.8078 8.09966 19.75 12.041 19.75C16.3212 19.75 19.791 16.2802 19.791 12C19.791 7.71979 16.3212 4.25 12.041 4.25Z" fill="black"/>
<path d="M10.7012 6.6001H12.2012V11.6799L15.7683 15.2471L14.7077 16.3078L10.7012 12.3013V6.6001Z" fill="black"/>
</svg>
