<svg width="24" height="24" viewBox="0 0 24 24" fill="none" xmlns="http://www.w3.org/2000/svg">
<path d="M9.25 3.9502C9.25 2.9837 10.0335 2.2002 11 2.2002H13C13.9665 2.2002 14.75 2.9837 14.75 3.9502V6.9502H19.75C20.9926 6.9502 22 7.95755 22 9.2002V19.5502C22 20.7928 20.9926 21.8002 19.75 21.8002H4.25C3.00736 21.8002 2 20.7928 2 19.5502V9.20019C2 7.95755 3.00736 6.9502 4.25 6.9502H9.25V3.9502ZM13 3.7002H11C10.8619 3.7002 10.75 3.81212 10.75 3.9502V8.9502C10.75 9.08827 10.8619 9.2002 11 9.2002H13C13.1381 9.2002 13.25 9.08827 13.25 8.9502V3.9502C13.25 3.81212 13.1381 3.7002 13 3.7002ZM10.0496 14.3946C10.3458 14.0985 10.4939 13.7312 10.4939 13.2927C10.4939 12.8543 10.3458 12.487 10.0496 12.1908C9.75347 11.8947 9.38616 11.7466 8.94771 11.7466C8.50926 11.7466 8.14195 11.8947 7.84579 12.1908C7.54964 12.487 7.40156 12.8543 7.40156 13.2927C7.40156 13.7312 7.54964 14.0985 7.84579 14.3946C8.14195 14.6908 8.50926 14.8389 8.94771 14.8389C9.38616 14.8389 9.75347 14.6908 10.0496 14.3946ZM12.0439 17.9504V17.5042C12.0439 17.1973 11.956 16.9148 11.7804 16.6567C11.6048 16.3987 11.3746 16.2094 11.09 16.0889C10.7131 15.9286 10.3445 15.8084 9.98424 15.7283C9.62399 15.6481 9.27848 15.6081 8.94771 15.6081C8.61695 15.6081 8.27144 15.6481 7.91119 15.7283C7.55092 15.8084 7.18233 15.9286 6.80541 16.0889C6.5208 16.2094 6.29067 16.3987 6.11504 16.6567C5.93939 16.9148 5.85156 17.1973 5.85156 17.5042V17.9504H12.0439ZM18.3491 13.5161V12.0161H14.0488V13.5161H18.3491ZM18.3491 16.3813V14.8813H14.0488V16.3813H18.3491Z" fill="black"/>
</svg>
