<svg width="24" height="24" viewBox="0 0 24 24" fill="none" xmlns="http://www.w3.org/2000/svg">
<path d="M6.59471 10.7371L6.93535 9.79688H11.0568L11.3974 10.7371H6.59471Z" fill="black"/>
<path d="M7.29991 13.3745C7.6144 13.3745 7.86934 13.1195 7.86934 12.805C7.86934 12.4905 7.6144 12.2356 7.29991 12.2356C6.98541 12.2356 6.73047 12.4905 6.73047 12.805C6.73047 13.1195 6.98541 13.3745 7.29991 13.3745Z" fill="black"/>
<path d="M11.2639 12.805C11.2639 13.1195 11.0089 13.3745 10.6944 13.3745C10.3799 13.3745 10.125 13.1195 10.125 12.805C10.125 12.4905 10.3799 12.2356 10.6944 12.2356C11.0089 12.2356 11.2639 12.4905 11.2639 12.805Z" fill="black"/>
<path d="M2 6.82519C2 5.58255 3.00736 4.5752 4.25 4.5752H19.75C20.9926 4.5752 22 5.58255 22 6.8252V17.1752C22 18.4178 20.9926 19.4252 19.75 19.4252H4.25C3.00736 19.4252 2 18.4178 2 17.1752V6.82519ZM14.7539 10.6653H19.0542V9.16528H14.7539V10.6653ZM14.7539 13.5305H19.0542V12.0305H14.7539V13.5305ZM11.4588 15.0312C11.4588 15.4316 11.7834 15.7562 12.1838 15.7562H12.3218C12.7223 15.7562 13.0469 15.4315 13.0468 15.0311L13.046 11.6177L12.2022 9.28866C12.0409 8.84343 11.618 8.54688 11.1444 8.54688H6.84769C6.37413 8.54688 5.95128 8.84343 5.78997 9.28866L4.94615 11.6177L4.94531 15.0311C4.94521 15.4315 5.26984 15.7562 5.67031 15.7562H5.80833C6.20874 15.7562 6.53333 15.4316 6.53333 15.0312V14.8942H11.4588V15.0312Z" fill="black"/>
</svg>
