<svg width="24" height="24" viewBox="0 0 24 24" fill="none" xmlns="http://www.w3.org/2000/svg">
<path d="M4.25 4.5752C3.00736 4.5752 2 5.58256 2 6.82521V17.1753C2 18.4179 3.00736 19.4253 4.25 19.4253H19.75C20.9926 19.4253 22 18.4179 22 17.1753V6.82521C22 5.58256 20.9926 4.5752 19.75 4.5752H4.25ZM14.0488 10.668V9.168H18.3491V10.668H14.0488ZM19.9448 13.5333H14.0488V12.0333H19.9448V13.5333ZM9.30349 8.42212L10.0761 9.76026H11.6369C11.7427 9.58709 11.9331 9.47152 12.1502 9.47152C12.4824 9.47152 12.752 9.74067 12.752 10.0729C12.752 10.4051 12.4824 10.6743 12.1502 10.6743L12.1361 10.6741L11.3705 12.0005L12.1329 13.3206L12.1502 13.3204C12.4824 13.3204 12.752 13.5896 12.752 13.9218C12.752 14.038 12.7206 14.1488 12.6634 14.2407C12.5576 14.4117 12.3664 14.5232 12.1502 14.5232C11.9355 14.5232 11.7474 14.4104 11.6409 14.2407H10.0761L9.30349 15.5788C9.31524 15.6 9.32621 15.6219 9.33562 15.6445C9.34894 15.6746 9.35912 15.7062 9.36696 15.7389C9.37793 15.7841 9.3842 15.8312 9.3842 15.8795C9.3842 16.0355 9.32465 16.1775 9.22748 16.2843C9.11778 16.4051 8.95872 16.4809 8.7832 16.4809C8.45097 16.4809 8.18143 16.2118 8.18143 15.8795C8.18143 15.7724 8.20963 15.6719 8.259 15.5847L7.49032 14.2407H5.92555C5.81898 14.4104 5.63093 14.5232 5.41623 14.5232C5.19997 14.5232 5.00878 14.4117 4.903 14.2407C4.8458 14.1488 4.81445 14.038 4.81445 13.9218C4.81445 13.5896 5.084 13.3204 5.41623 13.3204L5.43347 13.3206L6.19588 12.0005L5.43033 10.6741L5.41623 10.6743C5.084 10.6743 4.81445 10.4051 4.81445 10.0729C4.81445 9.74067 5.084 9.47152 5.41623 9.47152C5.63328 9.47152 5.82368 9.58709 5.92946 9.76026H7.49032L8.26213 8.42291C8.21042 8.33436 8.18143 8.23132 8.18143 8.12143C8.18143 7.97294 8.23549 7.83699 8.32482 7.73199C8.43452 7.60231 8.59907 7.52004 8.7832 7.52004C9.11465 7.52004 9.3842 7.78919 9.3842 8.12143C9.3842 8.23093 9.35442 8.33358 9.30349 8.42212ZM8.7832 13.4187C9.56677 13.4187 10.2015 12.7839 10.2015 12.0005C10.2015 11.2171 9.56677 10.5822 8.7832 10.5822C8.38045 10.5822 8.01688 10.7499 7.75909 11.0193C7.63215 11.1523 7.53028 11.3102 7.46211 11.4849C7.39943 11.6445 7.36495 11.8185 7.36495 12.0005C7.36495 12.7839 7.99964 13.4187 8.7832 13.4187Z" fill="black"/>
</svg>
