<svg width="24" height="24" viewBox="0 0 24 24" fill="none" xmlns="http://www.w3.org/2000/svg">
<path d="M20.8387 12.1083C21.2559 11.6918 21.9323 11.6918 22.3495 12.1083L23.0865 12.8443C23.5037 13.2609 23.5037 13.9363 23.0865 14.3529L22.5124 14.9262L20.2645 12.6816L20.8387 12.1083ZM19.7641 13.1905L22.0159 15.439L16.6509 20.7959H14.3994L14.3994 18.5477L19.7641 13.1905Z" fill="black"/>
<path d="M5.4248 3.1748C4.18262 3.1748 3.1748 4.18213 3.1748 5.4248V18.5747C3.1748 19.8174 4.18262 20.8247 5.4248 20.8247H12.8994V17.9258L13.6533 17.1711H6.24805L9.15137 13.3425L11.1992 15.9829L14.0586 12.2046L16.0039 14.8203L19.7783 11.0469C20.082 10.7439 20.4424 10.5327 20.8252 10.4131V5.4248C20.8252 4.18213 19.8174 3.1748 18.5752 3.1748H5.4248Z" fill="black"/>
</svg>
