<svg width="24" height="24" viewBox="0 0 24 24" fill="none" xmlns="http://www.w3.org/2000/svg">
<path d="M15.3006 4.22021C13.8869 4.22021 12.6467 5.3117 12.6467 6.71275C12.6467 8.1138 13.7842 9.27418 15.3006 9.27418C16.7142 9.27418 17.8603 8.1138 17.8603 6.71275C17.7779 5.33658 16.7142 4.22021 15.3006 4.22021ZM11.0947 6.71275C11.0947 4.47483 13.0424 2.66064 15.3006 2.66064C17.5587 2.66064 19.3892 4.47483 19.3892 6.71275C19.3892 7.57803 19.1156 8.37997 18.6493 9.03819L21.8793 12.2153L20.8255 13.3128L17.5533 10.0949C16.9073 10.5183 16.0837 10.7876 15.2512 10.7876C12.8839 10.7876 11.0947 8.95066 11.0947 6.71275Z" fill="black"/>
<path d="M11.0178 3.39087C10.3991 4.20151 10.0985 5.27723 10.0244 6.30499C9.92552 7.67699 10.3701 9.03322 11.264 10.0865C11.9877 10.9392 12.9598 11.5391 14.0374 11.8113L14.0462 11.8175L14.0571 11.8163C14.3043 11.8777 14.557 11.9219 14.8135 11.948C15.6452 12.0326 16.22 12.0725 16.9886 11.786L19.1943 14.0828L20.0689 15.0121V19.0897C20.0689 20.3323 19.0616 21.3397 17.8189 21.3397L4.33338 21.3396C4.31904 21.3396 4.30456 21.3392 4.28995 21.3383C3.08444 21.2961 2.12012 20.3055 2.12012 19.0897V5.64087C2.12012 4.4166 3.09792 3.4207 4.31518 3.39153C4.32772 3.39109 4.34023 3.39087 4.35269 3.39087H11.0178ZM16.9575 17.5295L13.257 12.5977L10.4065 16.3473L8.35938 13.7324L5.46875 17.5295H16.9575Z" fill="black"/>
</svg>
