<svg width="24" height="24" viewBox="0 0 24 24" fill="none" xmlns="http://www.w3.org/2000/svg">
<path d="M3 3.49121H16.1016V8.61469L15.2133 9.4453C14.6229 9.99739 13.8005 10.2572 12.208 10.2869L10 10.3282V12.5366C10 14.0556 10.1719 15.3725 10.487 16.5244H8.21863V20.5085H3V3.49121ZM8.5957 9.05737V7.05737H6.5957V9.05737H8.5957ZM12.5039 7.05737H10.5039V9.05737H12.5039V7.05737ZM8.5957 10.9871H6.5957V12.9871H8.5957V10.9871Z" fill="black"/>
<path d="M10.8829 17.7087V20.5085H12.5903C12.3399 20.2215 12.0965 19.9097 11.8666 19.5699C11.4865 19.0082 11.1559 18.3913 10.8829 17.7087Z" fill="black"/>
<path d="M17.2623 10.541L16.7501 10.062L16.2378 10.541C15.2346 11.4791 13.943 11.7549 12.236 11.7868L11.5 11.8005V12.5366C11.5 15.3635 12.1413 17.2993 13.1089 18.7294C14.062 20.138 15.2934 20.9917 16.3118 21.6977L16.7499 22.0014L17.1881 21.6976C18.2065 20.9916 19.4379 20.138 20.391 18.7295C21.3586 17.2993 22 15.3635 22 12.5366V11.8005L21.264 11.7868C19.557 11.7549 18.2655 11.4791 17.2623 10.541ZM15.9735 15.0396V13.8843H17.4735V15.0396H18.6092V16.5396H17.4735V17.695H15.9735V16.5396H14.8379V15.0396H15.9735Z" fill="black"/>
</svg>
