<svg width="24" height="24" viewBox="0 0 24 24" fill="none" xmlns="http://www.w3.org/2000/svg">
<path d="M10.3751 2.14746C9.13244 2.14746 8.12509 3.15479 8.12506 4.39741L8.12502 6.36377H4.24902C3.00638 6.36377 1.99902 7.37113 1.99902 8.61377V18.9638C1.99902 20.2064 3.00638 21.2138 4.24902 21.2138H19.749C20.9917 21.2138 21.999 20.2064 21.999 18.9638V8.61377C21.999 7.37113 20.9917 6.36377 19.749 6.36377H15.8731L15.8731 4.39751C15.8731 3.15485 14.8658 2.14746 13.6231 2.14746H10.3751ZM14.3731 6.36377H9.62502L9.62506 4.39744C9.62507 3.98324 9.96085 3.64746 10.3751 3.64746H13.6231C14.0373 3.64746 14.3731 3.98326 14.3731 4.39748L14.3731 6.36377ZM13.3447 13.1804C12.9749 13.5501 12.5265 13.735 11.9993 13.735C11.4722 13.735 11.0237 13.5501 10.654 13.1804C10.2842 12.8106 10.0994 12.3622 10.0994 11.835C10.0994 11.3079 10.2842 10.8594 10.654 10.4897C11.0237 10.1199 11.4722 9.93506 11.9993 9.93506C12.5265 9.93506 12.9749 10.1199 13.3447 10.4897C13.7144 10.8594 13.8993 11.3079 13.8993 11.835C13.8993 12.3622 13.7144 12.8106 13.3447 13.1804ZM15.8532 17.6427H8.14551V17.185C8.14551 16.485 8.49615 15.928 9.19743 15.5139C9.8987 15.0998 10.8327 14.8927 11.9993 14.8927C13.166 14.8927 14.1 15.0998 14.8012 15.5139C15.5025 15.928 15.8532 16.485 15.8532 17.185V17.6427Z" fill="black"/>
</svg>
