<svg width="24" height="24" viewBox="0 0 24 24" fill="none" xmlns="http://www.w3.org/2000/svg">
<path d="M9.55273 1.53857V3.73767L17.166 3.73767V5.23767L14.108 5.23767C13.2313 8.30203 11.7444 10.5293 9.86281 12.624C10.669 13.4738 11.5946 14.3648 12.6422 15.2816L12.0764 16.7756C10.8581 15.7332 9.77673 14.7078 8.83521 13.7202C8.05906 14.518 7.22991 15.3146 6.36011 16.1502C5.45616 17.0185 4.50828 17.9291 3.5304 18.9272L2.45898 17.8774C3.51744 16.7971 4.5138 15.8373 5.44194 14.9432C6.29309 14.1233 7.08689 13.3586 7.81855 12.6071C6.31318 10.8824 5.2669 9.30627 4.69727 8H6.36089C6.88411 8.9964 7.70978 10.1874 8.84923 11.5062C10.4911 9.66988 11.7455 7.78777 12.5427 5.23767L0.541016 5.23767V3.73767L8.05273 3.73767V1.53857H9.55273Z" fill="black"/>
<path d="M15.1151 19.2412L13.9519 22.3698H12.3516L16.9178 10.0884H18.9788L23.5067 22.3698H21.908L20.7545 19.2412H15.1151ZM20.2015 17.7412L17.9467 11.6252L15.6728 17.7412H20.2015Z" fill="black"/>
</svg>
