<svg width="24" height="24" viewBox="0 0 24 24" fill="none" xmlns="http://www.w3.org/2000/svg">
<path d="M19.9863 4.18762L22.3732 1.80063L21.3125 0.73999L18.9256 3.12698L16.5388 0.740206L15.4781 1.80089L17.865 4.18767L15.4783 6.57444L16.539 7.63508L18.9257 5.2483L21.3126 7.63508L22.3732 6.5744L19.9863 4.18762Z" fill="black"/>
<path d="M15.7433 4.18786L13.6057 2.05029C13.1324 1.95823 12.6445 1.90637 12.1457 1.89843L12.1395 1.89616H12.0075C7.51194 1.89616 3.83984 5.46714 3.83984 9.90596C3.83984 12.7134 5.53091 15.3912 7.24792 17.4446C8.5536 19.0061 9.98991 20.331 10.8462 21.1208C11.1161 21.3697 11.3284 21.5655 11.4608 21.6988L11.9929 22.2346L12.525 21.6988C12.6578 21.5651 12.8717 21.3681 13.144 21.1173C14.0016 20.3272 15.4385 19.0034 16.744 17.4452C18.4642 15.392 20.1592 12.7139 20.1592 9.90596C20.1592 9.41702 20.1148 8.93857 20.0299 8.47426L18.9254 7.36977L16.5387 9.75655L13.3567 6.57464L15.7433 4.18786ZM12 7.94572C13.1466 7.94572 14.0762 8.87525 14.0762 10.0219C14.0762 11.1685 13.1466 12.0981 12 12.0981C10.8534 12.0981 9.92383 11.1685 9.92383 10.0219C9.92383 8.87526 10.8534 7.94572 12 7.94572Z" fill="black"/>
</svg>
