<svg width="24" height="24" viewBox="0 0 24 24" fill="none" xmlns="http://www.w3.org/2000/svg">
<path d="M12.0075 1.8999C7.51194 1.8999 3.83984 5.47088 3.83984 9.9097C3.83984 12.7171 5.53091 15.395 7.24792 17.4484C8.5536 19.0099 9.98991 20.3347 10.8462 21.1245C11.1161 21.3735 11.3284 21.5693 11.4608 21.7026L11.9929 22.2384L12.525 21.7026C12.6578 21.5689 12.8717 21.3719 13.1439 21.1211C14.0016 20.331 15.4385 19.0072 16.744 17.4489C18.4642 15.3957 20.1592 12.7176 20.1592 9.9097C20.1592 5.51768 16.5816 1.97274 12.1457 1.90218L12.1395 1.8999H12.0075ZM11.2005 7.78916C11.0288 7.91079 10.9177 8.06046 10.8332 8.18875L10.4206 8.81507L9.16797 7.98992L9.58054 7.3636C9.84087 6.96841 10.5211 6.06323 12.0001 6.06323C12.8699 6.06323 13.5735 6.36349 14.0595 6.86156C14.5352 7.34899 14.7604 7.98356 14.7604 8.58364C14.7604 9.10684 14.6591 9.54462 14.4257 9.95155C14.2081 10.3311 13.8979 10.6403 13.5846 10.9355C13.5042 11.0113 13.4307 11.0795 13.3635 11.1419C13.1369 11.3524 12.9802 11.4979 12.8565 11.6545C12.727 11.8184 12.6854 11.9346 12.6854 12.0805V12.8305H11.1854V12.0805C11.1854 11.5149 11.3982 11.0807 11.6795 10.7246C11.8824 10.4678 12.1517 10.2186 12.3925 9.99588C12.4489 9.94365 12.5038 9.89286 12.5559 9.84377C12.8687 9.54901 13.0286 9.37265 13.1245 9.20537C13.2047 9.06551 13.2604 8.89529 13.2604 8.58364C13.2604 8.34888 13.1705 8.09825 12.986 7.90918C12.8119 7.73076 12.5103 7.56323 12.0001 7.56323C11.6077 7.56323 11.3618 7.67486 11.2005 7.78916ZM10.8906 14.8981C10.8906 14.2863 11.3866 13.7903 11.9984 13.7903C12.6103 13.7903 13.1062 14.2863 13.1062 14.8981C13.1062 15.5099 12.6103 16.0059 11.9984 16.0059C11.3866 16.0059 10.8906 15.5099 10.8906 14.8981Z" fill="black"/>
</svg>
