<svg width="24" height="24" viewBox="0 0 24 24" fill="none" xmlns="http://www.w3.org/2000/svg">
<path d="M3.15625 7.35462C3.15625 4.38141 5.61439 1.99854 8.61251 1.99854H8.74445L8.75108 2.00095C11.6889 2.07194 14.0586 4.42894 14.0586 7.35462C14.0586 9.23815 12.9273 11.0017 11.8278 12.3141C10.985 13.32 10.0417 14.1888 9.50188 14.6859C9.33763 14.8372 9.21072 14.9541 9.13537 15.03L8.60322 15.5658L8.07108 15.03C7.9958 14.9542 7.86972 14.8379 7.70675 14.6876C7.16776 14.1906 6.22527 13.3215 5.38239 12.3135C4.28487 11.001 3.15625 9.2376 3.15625 7.35462ZM7.01562 7.41319C7.01562 8.2921 7.72811 9.0046 8.60703 9.0046C9.48594 9.0046 10.1984 8.2921 10.1984 7.41319C10.1984 6.53428 9.48594 5.82178 8.60703 5.82178C7.72811 5.82178 7.01562 6.53428 7.01562 7.41319Z" fill="black"/>
<path d="M4.72132 13.8375L2 22.0015H22L19 13.0015H13.2041C13.1277 13.0965 13.052 13.1885 12.9776 13.2774C12.6087 13.7177 12.2238 14.1318 11.8607 14.5015H16.1557L4.2253 20.069L5.89903 15.0478C5.53977 14.7008 5.13094 14.2896 4.72132 13.8375ZM14.2737 17.035L18.159 15.2219L19.5904 19.5162L14.2737 17.035ZM12.5001 17.8627L18.1547 20.5015H6.84561L12.5001 17.8627Z" fill="black"/>
</svg>
