<svg width="24" height="24" viewBox="0 0 24 24" fill="none" xmlns="http://www.w3.org/2000/svg">
<path d="M11.905 4.25247C10.5264 4.26779 9.23423 4.64318 8.11812 5.28902L7.02645 4.19738C8.263 3.40863 9.69962 2.90577 11.2432 2.78193V0.733643H12.7432V2.78197C17.2524 3.144 20.849 6.74071 21.2108 11.25H23.2591V12.75H21.2107C21.0868 14.2933 20.584 15.7297 19.7954 16.966L18.7038 15.8744C19.3497 14.758 19.7251 13.4656 19.7402 12.0866V11.9129C19.694 7.7032 16.2904 4.29926 12.0808 4.25247H11.905Z" fill="black"/>
<path d="M5.45749 5.45685L6.51816 6.51749L6.51658 6.51907L17.4738 17.476L17.4753 17.4744L18.536 18.535L18.5344 18.5366L21.4962 21.4983L20.4355 22.559L17.3881 19.5116C16.0601 20.467 14.4684 21.0791 12.7432 21.2176V23.2661H11.2432V21.2176C6.73384 20.8558 3.13714 17.2593 2.77511 12.75H0.726562V11.25H2.77507C2.9135 9.52466 3.52549 7.9329 4.48099 6.60482L1.47754 3.60145L2.53819 2.54077L5.45591 5.45842L5.45749 5.45685ZM5.55857 7.68237C4.74048 8.89919 4.25843 10.3608 4.24539 11.9342V12.0654C4.28044 16.2929 7.70126 19.7131 11.929 19.7473L12.0569 19.7473C13.631 19.7346 15.0932 19.2524 16.3105 18.434L5.55857 7.68237Z" fill="black"/>
</svg>
