<svg width="24" height="24" viewBox="0 0 24 24" fill="none" xmlns="http://www.w3.org/2000/svg">
<path d="M12.0075 1.83008C7.51194 1.83008 3.83984 5.40106 3.83984 9.83988C3.83984 12.6473 5.53091 15.3252 7.24792 17.3786C8.5536 18.94 9.98991 20.2649 10.8462 21.0547C11.1161 21.3037 11.3284 21.4995 11.4608 21.6328L11.9929 22.1686L12.525 21.6328C12.6578 21.4991 12.8717 21.302 13.1439 21.0513C14.0016 20.2611 15.4385 18.9373 16.744 17.3791C18.4642 15.3259 20.1592 12.6478 20.1592 9.83988C20.1592 5.44786 16.5816 1.90292 12.1457 1.83235L12.1395 1.83008H12.0075ZM12 7.85522C13.1466 7.85522 14.0762 8.78476 14.0762 9.9314C14.0762 11.078 13.1466 12.0076 12 12.0076C10.8534 12.0076 9.92383 11.078 9.92383 9.9314C9.92383 8.78476 10.8534 7.85522 12 7.85522Z" fill="black"/>
</svg>
