<svg width="24" height="24" viewBox="0 0 24 24" fill="none" xmlns="http://www.w3.org/2000/svg">
<path d="M4.91016 9.05602C4.91016 5.34164 8.05449 1.83081 12.0047 1.83081H12.1332L12.1397 1.83312C16.0296 1.91031 19.0852 5.38563 19.0852 9.05602C19.0852 11.4557 17.5946 13.6073 16.1154 15.2112C15.3618 16.0284 14.5785 16.7379 13.9241 17.3034C13.653 17.5376 13.4145 17.7388 13.2099 17.9112C12.8981 18.1741 12.6653 18.3705 12.5168 18.5158L11.9922 19.0291L11.4676 18.5158C11.3195 18.3708 11.088 18.1753 10.7782 17.9138C10.5733 17.7408 10.3336 17.5384 10.0616 17.303C9.40817 16.7375 8.62618 16.0279 7.874 15.2107C6.39738 13.6066 4.91016 11.4552 4.91016 9.05602ZM9.93262 8.90514C9.93262 10.0459 10.8574 10.9707 11.9982 10.9707C13.1389 10.9707 14.0637 10.0459 14.0637 8.90514C14.0637 7.76437 13.1389 6.8396 11.9982 6.8396C10.8574 6.8396 9.93262 7.76438 9.93262 8.90514Z" fill="black"/>
<path d="M4.92773 22.1694L19.0777 22.1694V20.6694L4.92773 20.6694L4.92773 22.1694Z" fill="black"/>
</svg>
