<svg width="24" height="24" viewBox="0 0 24 24" fill="none" xmlns="http://www.w3.org/2000/svg">
<path d="M12.7432 2.78197C17.2524 3.144 20.849 6.74071 21.2108 11.25H23.2591V12.75H21.2107C20.8487 17.2591 17.2522 20.8556 12.7432 21.2176V23.2661H11.2432V21.2176C6.73384 20.8558 3.13714 17.2593 2.77511 12.75H0.726562V11.25H2.77507C3.13687 6.74054 6.73368 3.14373 11.2432 2.78193V0.733643L12.7432 0.733643V2.78197ZM11.905 4.25247C7.68835 4.29934 4.28037 7.71468 4.24539 11.9342V12.0654C4.28044 16.2929 7.70126 19.7131 11.929 19.7473L12.0569 19.7473C16.2775 19.7132 19.6939 16.3043 19.7402 12.0866V11.9129C19.694 7.7032 16.2904 4.29926 12.0808 4.25247H11.905Z" fill="black"/>
</svg>
