<svg width="24" height="24" viewBox="0 0 24 24" fill="none" xmlns="http://www.w3.org/2000/svg">
<path d="M13.0339 15.4641C14.5071 13.8452 17.087 10.7321 17.5725 8.30485C18.3169 4.58309 15.4367 1.43262 12.0005 1.43262C8.90783 1.43262 5.67137 4.58279 6.41428 8.30485C6.89892 10.7329 9.4879 13.8473 10.9653 15.4657C11.2416 15.7684 11.4791 16.0188 11.6566 16.2025C11.8731 16.4267 12.0005 16.5517 12.0005 16.5517C12.0005 16.5517 12.1277 16.4264 12.344 16.2017C12.5212 16.0177 12.7582 15.7671 13.0339 15.4641ZM13.5044 7.28931C13.5044 8.12003 12.831 8.79346 12.0002 8.79346C11.1695 8.79346 10.4961 8.12003 10.4961 7.28931C10.4961 6.45859 11.1695 5.78516 12.0002 5.78516C12.831 5.78516 13.5044 6.45859 13.5044 7.28931Z" fill="black"/>
<path d="M22 22.5669L20.5273 18.0479C20.2504 18.5066 19.9266 18.9464 19.6237 19.3247C19.5616 19.4022 19.5 19.4776 19.4394 19.5506L19.9335 21.0669H4.07959L4.57634 19.5732L4.52726 19.5141C4.19297 19.1104 3.8213 18.6231 3.50607 18.1118L3.49016 18.0859L2 22.5669H22Z" fill="black"/>
<path d="M20.2232 16.2392C19.9107 17.8019 17.6891 19.9898 17.6891 19.9898C17.6891 19.9898 15.4605 17.8019 15.1486 16.2392C14.8107 14.5464 16.2826 13.1138 17.6891 13.1138C19.2519 13.1138 20.5618 14.5466 20.2232 16.2392ZM18.4276 15.7393C18.4276 15.3304 18.0962 14.999 17.6874 14.999C17.2786 14.999 16.9472 15.3304 16.9472 15.7393C16.9472 16.1481 17.2786 16.4795 17.6874 16.4795C18.0962 16.4795 18.4276 16.1481 18.4276 15.7393Z" fill="black"/>
<path d="M8.84053 16.2392C8.52797 17.8019 6.30641 19.9898 6.30641 19.9898C6.30641 19.9898 4.07778 17.8019 3.76587 16.2392C3.428 14.5464 4.89991 13.1138 6.30641 13.1138C7.86919 13.1138 9.17906 14.5466 8.84053 16.2392ZM7.04504 15.8115C7.04504 15.4027 6.71362 15.0713 6.3048 15.0713C5.89598 15.0713 5.56457 15.4027 5.56457 15.8115C5.56457 16.2203 5.89598 16.5518 6.3048 16.5518C6.71362 16.5518 7.04504 16.2203 7.04504 15.8115Z" fill="black"/>
<path d="M6.30555 18.8976C6.13512 18.708 5.93851 18.4807 5.73787 18.2309C5.45299 17.8762 5.16793 17.4858 4.93895 17.101C4.70506 16.7079 4.55532 16.3627 4.50136 16.0924C4.38473 15.5081 4.57442 14.9582 4.94495 14.5373C5.32524 14.1053 5.84866 13.8638 6.30641 13.8638C7.41794 13.8638 8.34653 14.885 8.10509 16.0921C8.05091 16.363 7.90118 16.7085 7.66779 17.1017C7.43928 17.4866 7.15493 17.877 6.87084 18.2317C6.67106 18.4812 6.47531 18.7082 6.30555 18.8976ZM12.4792 14.9593C12.3006 15.1555 12.1388 15.3292 11.9996 15.4763C11.8602 15.3295 11.6981 15.156 11.5192 14.9601C10.7922 14.1637 9.79973 13.0077 8.93341 11.7609C8.05428 10.4958 7.36071 9.21483 7.14978 8.15805C6.83063 6.55907 7.36019 5.07249 8.332 3.96853C9.31356 2.85349 10.6997 2.18262 12.0005 2.18262C14.9855 2.18262 17.4844 4.92146 16.8371 8.15776C16.6256 9.21488 15.9336 10.4957 15.0572 11.7604C14.1934 13.0068 13.2041 14.1627 12.4792 14.9593ZM18.2535 18.2317C18.0538 18.4812 17.858 18.7082 17.6883 18.8976C17.5178 18.708 17.3212 18.4807 17.1206 18.2309C16.8357 17.8762 16.5506 17.4858 16.3217 17.101C16.0878 16.7079 15.938 16.3627 15.8841 16.0924C15.7674 15.5081 15.9571 14.9582 16.3277 14.5373C16.7079 14.1053 17.2314 13.8638 17.6891 13.8638C18.8006 13.8638 19.7292 14.885 19.4878 16.0921C19.4336 16.363 19.2839 16.7085 19.0505 17.1017C18.822 17.4866 18.5376 17.877 18.2535 18.2317ZM12.0002 9.54346C13.2452 9.54346 14.2544 8.53424 14.2544 7.28931C14.2544 6.04437 13.2452 5.03516 12.0002 5.03516C10.7553 5.03516 9.74609 6.04437 9.74609 7.28931C9.74609 8.53424 10.7553 9.54346 12.0002 9.54346ZM17.6874 17.2295C18.5104 17.2295 19.1776 16.5623 19.1776 15.7393C19.1776 14.9162 18.5104 14.249 17.6874 14.249C16.8644 14.249 16.1972 14.9162 16.1972 15.7393C16.1972 16.5623 16.8644 17.2295 17.6874 17.2295ZM6.3048 17.3018C7.12783 17.3018 7.79504 16.6346 7.79504 15.8115C7.79504 14.9885 7.12783 14.3213 6.3048 14.3213C5.48177 14.3213 4.81457 14.9885 4.81457 15.8115C4.81457 16.6346 5.48177 17.3018 6.3048 17.3018Z" stroke="black" stroke-width="1.5"/>
</svg>
