<svg width="24" height="24" viewBox="0 0 24 24" fill="none" xmlns="http://www.w3.org/2000/svg">
<path d="M3.83984 9.84061C3.83984 5.40179 7.51194 1.83081 12.0075 1.83081H12.1395L12.1457 1.83309C16.5816 1.90365 20.1592 5.44859 20.1592 9.84061C20.1592 12.6486 18.4642 15.3267 16.744 17.3798C15.4385 18.9381 14.0016 20.2618 13.144 21.0519C12.8717 21.3027 12.6578 21.4998 12.525 21.6335L11.9929 22.1693L11.4608 21.6335C11.3284 21.5002 11.1161 21.3044 10.8462 21.0554C9.98991 20.2656 8.5536 18.9408 7.24792 17.3793C5.53091 15.3259 3.83984 12.648 3.83984 9.84061ZM9.92383 9.93213C9.92383 11.0788 10.8534 12.0083 12 12.0083C13.1466 12.0083 14.0762 11.0788 14.0762 9.93213C14.0762 8.78549 13.1466 7.85596 12 7.85596C10.8534 7.85596 9.92383 8.7855 9.92383 9.93213ZM16.4007 6.08708L15.907 5.52246L14.7778 6.5098L15.2715 7.07442C15.9397 7.83864 16.3438 8.83725 16.3438 9.93208C16.3438 11.2126 15.7906 12.3629 14.9079 13.159L14.3509 13.6613L15.3555 14.7752L15.9124 14.2729C17.0972 13.2044 17.8438 11.6549 17.8438 9.93208C17.8438 8.46043 17.2988 7.11422 16.4007 6.08708ZM8.72851 7.07441L9.22218 6.5098L8.09294 5.52246L7.59928 6.08708C6.70121 7.11422 6.15625 8.46043 6.15625 9.93208C6.15625 11.6549 6.90274 13.2044 8.08756 14.2729L8.64453 14.7752L9.64909 13.6613L9.09213 13.159C8.20939 12.3629 7.65625 11.2126 7.65625 9.93208C7.65625 8.83724 8.06032 7.83864 8.72851 7.07441Z" fill="black"/>
</svg>
