<svg width="24" height="24" viewBox="0 0 24 24" fill="none" xmlns="http://www.w3.org/2000/svg">
<path d="M3.83984 9.83988C3.83984 5.40106 7.51194 1.83008 12.0075 1.83008H12.1395L12.1457 1.83235C16.5816 1.90292 20.1592 5.44786 20.1592 9.83988C20.1592 12.6478 18.4642 15.3259 16.744 17.3791C15.4385 18.9373 14.0016 20.2611 13.1439 21.0513C12.8717 21.302 12.6578 21.4991 12.525 21.6328L11.9929 22.1686L11.4608 21.6328C11.3284 21.4995 11.1161 21.3037 10.8462 21.0547C9.98991 20.2649 8.5536 18.94 7.24792 17.3786C5.53091 15.3252 3.83984 12.6473 3.83984 9.83988ZM13.0255 8.3523L11.9994 5.93628L10.9733 8.3523L8.3584 8.5816L10.3391 10.3041L9.74913 12.8618L11.9994 11.5103L14.2496 12.8618L13.6597 10.3041L15.6403 8.5816L13.0255 8.3523Z" fill="black"/>
</svg>
