<svg width="24" height="24" viewBox="0 0 24 24" fill="none" xmlns="http://www.w3.org/2000/svg">
<path d="M6.00173 1.09375C3.39128 1.09375 1.24805 3.16839 1.24805 5.7622C1.24805 7.40586 2.23106 8.93248 3.16821 10.0532C3.89141 10.9181 4.70639 11.6695 5.16284 12.0903C5.29798 12.2149 5.40175 12.3106 5.46233 12.3716L5.99448 12.9074L6.52662 12.3716C6.58719 12.3106 6.69153 12.2145 6.82769 12.0892C7.28483 11.6682 8.10072 10.9169 8.82385 10.0538C9.76266 8.93323 10.748 7.40641 10.748 5.7622C10.748 3.17017 8.61399 1.09375 6.00173 1.09375ZM4.53125 5.81211C4.53125 5.00251 5.18755 4.34619 5.99716 4.34619C6.80677 4.34619 7.46308 5.0025 7.46308 5.81211C7.46308 6.62171 6.80677 7.27802 5.99716 7.27802C5.18755 7.27802 4.53125 6.62171 4.53125 5.81211Z" fill="black"/>
<path d="M18.3157 7.14452L19.5301 5.93017L20.5907 6.99084L17.5805 10.001L14.5703 6.99084L15.631 5.93018L16.7869 7.08612C16.5034 5.71828 15.2916 4.69028 13.8397 4.69028H12.5864V3.19028H13.8397C16.1423 3.19028 18.0419 4.91593 18.3157 7.14452Z" fill="black"/>
<path d="M7.00995 17.116L8.1659 18.272L9.22656 17.2113L6.21636 14.2011L3.20615 17.2113L4.26681 18.272L5.48116 17.0576C5.75499 19.2862 7.65456 21.0119 9.95718 21.0119H11.2105V19.5119H9.95718C8.50528 19.5119 7.29349 18.4839 7.00995 17.116Z" fill="black"/>
<path d="M13.252 15.7607C13.252 13.1669 15.3952 11.0923 18.0056 11.0923C20.6179 11.0923 22.752 13.1687 22.752 15.7607C22.752 17.4049 21.7666 18.9318 20.8278 20.0523C20.1046 20.9154 19.2887 21.6667 18.8316 22.0877C18.6954 22.2131 18.5911 22.3092 18.5305 22.3701L17.9984 22.9059L17.4662 22.3701C17.4057 22.3092 17.3019 22.2135 17.1668 22.0889C16.7103 21.6681 15.8953 20.9167 15.1721 20.0518C14.235 18.931 13.252 17.4044 13.252 15.7607ZM18.0011 14.3447C17.1915 14.3447 16.5352 15.001 16.5352 15.8106C16.5352 16.6202 17.1915 17.2766 18.0011 17.2766C18.8107 17.2766 19.467 16.6202 19.467 15.8106C19.467 15.001 18.8107 14.3447 18.0011 14.3447Z" fill="black"/>
</svg>
