<svg width="24" height="24" viewBox="0 0 24 24" fill="none" xmlns="http://www.w3.org/2000/svg">
<path d="M5.68164 2.72461C4.99129 2.72461 4.43164 3.28425 4.43164 3.97461V6.22656H3.75391C2.51127 6.22656 1.50391 7.23392 1.50391 8.47656V17.8701C1.50391 19.1128 2.51127 20.1201 3.75391 20.1201H4.43164V20.5264C4.43164 20.9406 4.7519 21.2764 5.14696 21.2764C5.54202 21.2764 5.86228 20.9406 5.86228 20.5264V20.1201H8.00079V20.5264C8.00079 20.9406 8.32105 21.2764 8.71612 21.2764C9.11118 21.2764 9.43144 20.9406 9.43144 20.5264L9.43164 14.9245C9.43164 13.0928 10.7164 11.5877 12.3583 11.4195V8.47656C12.3583 7.23392 11.351 6.22656 10.1083 6.22656H9.43164V3.97461C9.43164 3.28425 8.872 2.72461 8.18164 2.72461H5.68164ZM7.93164 6.22656H5.93164V4.22461H7.93164V6.22656ZM5.93164 9.83643V16.7768C5.93164 17.191 5.59585 17.5268 5.18164 17.5268C4.76743 17.5268 4.43164 17.191 4.43164 16.7768V9.83643C4.43164 9.42221 4.76743 9.08643 5.18164 9.08643C5.59585 9.08643 5.93164 9.42221 5.93164 9.83643ZM8.6814 9.08643C9.09562 9.08643 9.4314 9.42221 9.4314 9.83643V16.7768C9.4314 17.191 9.09562 17.5268 8.6814 17.5268C8.26719 17.5268 7.9314 17.191 7.9314 16.7768V9.83643C7.9314 9.42221 8.26719 9.08643 8.6814 9.08643Z" fill="black"/>
<path d="M15.5527 10.6562C14.8624 10.6562 14.3027 11.2159 14.3027 11.9062L14.3035 21.2765H19.0559V12.9038H19.0527V11.9062C19.0527 11.2159 18.4931 10.6562 17.8027 10.6562H15.5527ZM17.5527 12.9038H15.8027V12.1562H17.5527V12.9038Z" fill="black"/>
<path d="M12.6074 12.9038H13.0508V21.2765H12.6074C11.6409 21.2765 10.8574 20.493 10.8574 19.5265V14.6538C10.8574 13.6873 11.6409 12.9038 12.6074 12.9038Z" fill="black"/>
<path d="M20.7484 21.2765H20.3086V12.9038H20.7484C21.7149 12.9038 22.4984 13.6873 22.4984 14.6538V19.5265C22.4984 20.493 21.7149 21.2765 20.7484 21.2765Z" fill="black"/>
</svg>
