<svg width="24" height="24" viewBox="0 0 24 24" fill="none" xmlns="http://www.w3.org/2000/svg">
<path d="M6.7222 12.0043C6.7222 12.5861 6.51504 13.0827 6.10072 13.494C5.68641 13.9053 5.18835 14.1109 4.60655 14.1109C4.02475 14.1109 3.5282 13.9037 3.11691 13.4894C2.70564 13.0751 2.5 12.5771 2.5 11.9953C2.5 11.4135 2.70716 10.9169 3.12147 10.5056C3.53579 10.0943 4.03385 9.88867 4.61565 9.88867C5.19745 9.88867 5.69399 10.0958 6.10526 10.5101C6.51655 10.9245 6.7222 11.4225 6.7222 12.0043Z" fill="black"/>
<path d="M14.1109 12.0043C14.1109 12.5861 13.9037 13.0827 13.4894 13.494C13.0751 13.9053 12.577 14.1109 11.9952 14.1109C11.4134 14.1109 10.9169 13.9037 10.5056 13.4894C10.0943 13.0751 9.88867 12.5771 9.88867 11.9953C9.88867 11.4135 10.0958 10.9169 10.5101 10.5056C10.9245 10.0943 11.4225 9.88867 12.0043 9.88867C12.5861 9.88867 13.0827 10.0958 13.4939 10.5101C13.9052 10.9245 14.1109 11.4225 14.1109 12.0043Z" fill="black"/>
<path d="M20.8786 13.494C21.2929 13.0827 21.5 12.5861 21.5 12.0043C21.5 11.4225 21.2944 10.9245 20.8831 10.5101C20.4718 10.0958 19.9753 9.88867 19.3935 9.88867C18.8117 9.88867 18.3136 10.0943 17.8993 10.5056C17.485 10.9169 17.2778 11.4135 17.2778 11.9953C17.2778 12.5771 17.4835 13.0751 17.8947 13.4894C18.306 13.9037 18.8026 14.1109 19.3844 14.1109C19.9662 14.1109 20.4642 13.9053 20.8786 13.494Z" fill="black"/>
</svg>
