<svg width="24" height="24" viewBox="0 0 24 24" fill="none" xmlns="http://www.w3.org/2000/svg">
<path d="M11.9952 6.7222C11.4134 6.7222 10.9169 6.51504 10.5056 6.10072C10.0943 5.68641 9.88867 5.18835 9.88867 4.60655C9.88867 4.02475 10.0958 3.5282 10.5101 3.11691C10.9245 2.70564 11.4225 2.5 12.0043 2.5C12.5861 2.5 13.0827 2.70716 13.494 3.12147C13.9053 3.53579 14.1109 4.03385 14.1109 4.61565C14.1109 5.19745 13.9037 5.69399 13.4894 6.10526C13.0751 6.51655 12.5771 6.7222 11.9952 6.7222Z" fill="black"/>
<path d="M11.9952 14.1109C11.4134 14.1109 10.9169 13.9037 10.5056 13.4894C10.0943 13.0751 9.88867 12.577 9.88867 11.9952C9.88867 11.4134 10.0958 10.9169 10.5101 10.5056C10.9245 10.0943 11.4225 9.88867 12.0043 9.88867C12.5861 9.88867 13.0827 10.0958 13.494 10.5101C13.9053 10.9245 14.1109 11.4225 14.1109 12.0043C14.1109 12.5861 13.9037 13.0827 13.4894 13.4939C13.0751 13.9052 12.5771 14.1109 11.9952 14.1109Z" fill="black"/>
<path d="M10.5056 20.8786C10.9169 21.2929 11.4134 21.5 11.9952 21.5C12.5771 21.5 13.0751 21.2944 13.4894 20.8831C13.9037 20.4718 14.1109 19.9753 14.1109 19.3935C14.1109 18.8117 13.9053 18.3136 13.494 17.8993C13.0827 17.485 12.5861 17.2778 12.0043 17.2778C11.4225 17.2778 10.9245 17.4835 10.5101 17.8947C10.0958 18.306 9.88867 18.8026 9.88867 19.3844C9.88867 19.9662 10.0943 20.4642 10.5056 20.8786Z" fill="black"/>
</svg>
