<svg width="24" height="24" viewBox="0 0 24 24" fill="none" xmlns="http://www.w3.org/2000/svg">
<path d="M20.7508 10.473V13.6387H8.5918V20.25H5.05851C4.55339 20.25 4.12583 20.075 3.77583 19.725C3.42583 19.375 3.25083 18.9474 3.25083 18.4423V10.4538C2.84826 10.123 2.54601 9.69388 2.34408 9.16633C2.14216 8.63876 2.138 8.06921 2.33158 7.45768L3.34313 4.15382C3.47646 3.73332 3.70275 3.39423 4.02198 3.13653C4.34121 2.87884 4.72262 2.75 5.16621 2.75H18.8162C19.2598 2.75 19.6386 2.87307 19.9527 3.11922C20.2668 3.36537 20.4957 3.70383 20.6393 4.1346L21.67 7.45768C21.8636 8.06921 21.8594 8.63683 21.6575 9.16055C21.4556 9.68427 21.1534 10.1218 20.7508 10.473ZM14.2008 9.75C14.747 9.75 15.1576 9.58301 15.4326 9.24903C15.7076 8.91506 15.8201 8.55641 15.7701 8.17308L15.1624 4.24995H12.7508V8.19998C12.7508 8.62049 12.8931 8.98396 13.1777 9.29038C13.4623 9.59679 13.8034 9.75 14.2008 9.75ZM9.70081 9.75C10.1611 9.75 10.5345 9.59679 10.821 9.29038C11.1076 8.98396 11.2508 8.62049 11.2508 8.19998V4.24995H8.83926L8.23156 8.21153C8.17772 8.56666 8.28927 8.91185 8.56618 9.2471C8.84311 9.58237 9.22132 9.75 9.70081 9.75ZM5.25081 9.75C5.62132 9.75 5.93992 9.62083 6.20661 9.3625C6.47327 9.10415 6.63801 8.77947 6.70083 8.38845L7.28931 4.24995H5.16621C5.05722 4.24995 4.97068 4.27399 4.90658 4.32208C4.84246 4.37016 4.79438 4.44228 4.76233 4.53845L3.80081 7.79227C3.66874 8.22178 3.73091 8.65543 3.98733 9.09325C4.24375 9.53108 4.66491 9.75 5.25081 9.75ZM18.7508 9.75C19.2918 9.75 19.7059 9.5375 19.9931 9.1125C20.2803 8.68748 20.3495 8.24741 20.2008 7.79227L19.1893 4.5192C19.1572 4.42305 19.1092 4.35413 19.0451 4.31245C18.981 4.27078 18.8944 4.24995 18.7854 4.24995H16.7123L17.3008 8.38845C17.3636 8.77947 17.5284 9.10415 17.795 9.3625C18.0617 9.62083 18.3803 9.75 18.7508 9.75Z" fill="black"/>
<path d="M10.0293 15.0391V21.25H11.6031V15.0391H10.0293Z" fill="black"/>
<path d="M12.39 15.0391V21.25H13.9426V15.0391H12.39Z" fill="black"/>
<path d="M14.7295 15.0391V21.25H15.5165V15.0391H14.7295Z" fill="black"/>
<path d="M17.0903 15.0391V21.25H18.6641V15.0391H17.0903Z" fill="black"/>
<path d="M19.451 15.0391V21.25H21.8118V15.0391H19.451Z" fill="black"/>
</svg>
