<svg width="24" height="24" viewBox="0 0 24 24" fill="none" xmlns="http://www.w3.org/2000/svg">
<path d="M20.7489 10.473V13.6387H7.94965V20.25H5.05655C4.55144 20.25 4.12388 20.075 3.77388 19.725C3.42388 19.375 3.24888 18.9474 3.24888 18.4423V10.4538C2.84631 10.123 2.54406 9.69388 2.34213 9.16633C2.14021 8.63876 2.13605 8.06921 2.32963 7.45768L3.34118 4.15382C3.47451 3.73332 3.7008 3.39423 4.02003 3.13653C4.33926 2.87884 4.72067 2.75 5.16425 2.75H18.8142C19.2578 2.75 19.6367 2.87307 19.9508 3.11922C20.2649 3.36537 20.4937 3.70383 20.6373 4.1346L21.6681 7.45768C21.8617 8.06921 21.8575 8.63683 21.6556 9.16055C21.4537 9.68427 21.1514 10.1218 20.7489 10.473ZM14.1989 9.75C14.745 9.75 15.1556 9.58301 15.4306 9.24903C15.7056 8.91506 15.8181 8.55641 15.7681 8.17308L15.1604 4.24995H12.7489V8.19998C12.7489 8.62049 12.8912 8.98396 13.1758 9.29038C13.4604 9.59679 13.8014 9.75 14.1989 9.75ZM9.69885 9.75C10.1591 9.75 10.5325 9.59679 10.8191 9.29038C11.1056 8.98396 11.2489 8.62049 11.2489 8.19998V4.24995H8.8373L8.2296 8.21153C8.17577 8.56666 8.28731 8.91185 8.56423 9.2471C8.84116 9.58237 9.21937 9.75 9.69885 9.75ZM5.24885 9.75C5.61937 9.75 5.93797 9.62083 6.20465 9.3625C6.47132 9.10415 6.63606 8.77947 6.69888 8.38845L7.28735 4.24995H5.16425C5.05527 4.24995 4.96873 4.27399 4.90463 4.32208C4.84051 4.37016 4.79243 4.44228 4.76038 4.53845L3.79885 7.79227C3.66679 8.22178 3.72896 8.65543 3.98538 9.09325C4.2418 9.53108 4.66295 9.75 5.24885 9.75ZM18.7489 9.75C19.2899 9.75 19.704 9.5375 19.9912 9.1125C20.2784 8.68748 20.3476 8.24741 20.1989 7.79227L19.1874 4.5192C19.1553 4.42305 19.1072 4.35413 19.0431 4.31245C18.979 4.27078 18.8925 4.24995 18.7835 4.24995H16.7104L17.2989 8.38845C17.3617 8.77947 17.5264 9.10415 17.7931 9.3625C18.0597 9.62083 18.3783 9.75 18.7489 9.75Z" fill="black"/>
<path d="M12.7148 16.3857H15.4871V17.5669H12.7693V21.248H16.7916V19.998H14.0193V18.8169H16.7371V15.1357H12.7148V16.3857Z" fill="black"/>
<path d="M17.791 16.3857H20.5633V17.5669H17.791V18.8169H20.5633V19.998H17.791V21.248H21.8133V15.1357H17.791V16.3857Z" fill="black"/>
<path d="M9.95328 16.3877H9.33984V15.1377H11.2033V20H11.8097V21.25H9.34291V20H9.95328V16.3877Z" fill="black"/>
</svg>
