<svg width="24" height="24" viewBox="0 0 24 24" fill="none" xmlns="http://www.w3.org/2000/svg">
<path d="M15.7021 17.2131L20.2883 21.7994L21.349 20.7388L2.81067 2.2002L1.75 3.26085L8.93945 10.4504V11.219C8.93945 12.731 10.1652 13.9568 11.6772 13.9568C11.913 13.9568 12.1417 13.927 12.36 13.871L14.6151 16.1261C13.7555 16.6386 12.751 16.9331 11.6779 16.9331C8.61044 16.9331 6.10364 14.5271 5.93928 11.4998H4.4375C4.59248 15.1045 7.38067 18.0297 10.9277 18.3947V21.5916H12.4277V18.3947C13.6309 18.271 14.7467 17.8526 15.7021 17.2131Z" fill="black"/>
<path d="M14.415 10.9787V5.2002C14.415 3.68815 13.1893 2.4624 11.6772 2.4624C10.1652 2.4624 8.93945 3.68815 8.93945 5.2002V5.50306L14.415 10.9787Z" fill="black"/>
<path d="M18.9182 11.4998C18.8698 12.6262 18.5642 13.6862 18.0588 14.6225L16.9382 13.5019C17.2109 12.8839 17.3779 12.2089 17.4164 11.4998H18.9182Z" fill="black"/>
</svg>
