<svg width="24" height="24" viewBox="0 0 24 24" fill="none" xmlns="http://www.w3.org/2000/svg">
<path d="M13.6934 9.70312C15.6587 9.70312 17.252 8.10989 17.252 6.14453C17.252 4.17917 15.6587 2.58594 13.6934 2.58594C11.728 2.58594 10.1348 4.17917 10.1348 6.14453C10.1348 8.10989 11.728 9.70312 13.6934 9.70312Z" fill="black"/>
<path d="M5.65235 11.3374H1.44727V22.2905H5.65235V11.3374Z" fill="black"/>
<path d="M14.5121 22.7476L7.13337 20.6406V11.3374H9.45856L15.9601 13.8185C16.8319 14.1512 17.4079 14.9875 17.4079 15.9206V16.2331H14.3958C13.6302 16.2331 12.4929 15.9061 11.4781 15.5378C11.3721 15.4993 11.1519 15.413 10.9812 15.3462L10.9799 15.3457C10.9068 15.3171 10.8429 15.292 10.8011 15.2759L10.3971 16.5668C10.4409 16.5836 10.5157 16.6128 10.5997 16.6457C10.7513 16.705 10.933 16.7761 11.0175 16.8067C12.0299 17.1743 13.3681 17.5831 14.3958 17.5831H20.1534C21.0756 17.5831 21.5784 17.7276 22.0176 18.0121C22.4021 18.2611 22.5538 18.6728 22.5538 19.4542V20.1719L14.5121 22.7476Z" fill="black"/>
<path d="M22.388 4.45471L19.4407 5.45423L18.959 4.03369L21.9062 3.03418L22.388 4.45471Z" fill="black"/>
<path d="M19.4407 6.99988L22.388 7.99939L21.9062 9.41992L18.959 8.42041L19.4407 6.99988Z" fill="black"/>
<path d="M5.00067 4.45471L7.94794 5.45423L8.42969 4.03369L5.48242 3.03418L5.00067 4.45471Z" fill="black"/>
<path d="M7.94794 6.99988L5.00067 7.99939L5.48242 9.41992L8.42969 8.42041L7.94794 6.99988Z" fill="black"/>
</svg>
