<svg width="24" height="24" viewBox="0 0 24 24" fill="none" xmlns="http://www.w3.org/2000/svg">
<path d="M10.0312 10.0952L16.3418 12.5039C17.002 12.7559 17.5605 13.1812 17.9746 13.7163C20.5449 12.8721 22.4004 10.4531 22.4004 7.60059C22.4004 4.04639 19.5195 1.16504 15.9648 1.16504C12.4102 1.16504 9.5293 4.04639 9.5293 7.60059C9.5293 8.48535 9.70703 9.32812 10.0312 10.0952ZM13.7188 4.72705C13.8555 4.55811 14.0645 4.45068 14.2988 4.45068H15.2148V3.60059H16.7148V4.45068H18.4648V5.95068H15.0488V6.85059H17.6309C18.0449 6.85059 18.3809 7.18652 18.3809 7.60059V10.0005C18.3809 10.2607 18.248 10.4902 18.0469 10.6245C17.9277 10.7041 17.7852 10.7505 17.6309 10.7505H16.7148V11.6006H15.2148V10.7505H13.4648V9.25049H16.8809V8.35059H14.2988C13.8848 8.35059 13.5488 8.01465 13.5488 7.60059V5.20068C13.5488 5.021 13.6133 4.85596 13.7188 4.72705Z" fill="black"/>
<path d="M5.76758 9.25879L4.54688 8.03906H8.23633V6.53906H4.54688L5.76758 5.31934L4.70703 4.25879L1.67578 7.28906L4.70703 10.3193L5.76758 9.25879Z" fill="black"/>
<path d="M5.50001 11.4243H1.29492V22.3774H5.50001V11.4243Z" fill="black"/>
<path d="M14.3598 22.8345L6.98102 20.7275V11.4243H9.30621L15.8077 13.9054C16.6795 14.2381 17.2555 15.0744 17.2555 16.0075V16.32H14.2435C13.4779 16.32 12.3405 15.993 11.3258 15.6247C11.2198 15.5862 10.9995 15.4999 10.8289 15.4331C10.7553 15.4043 10.6908 15.379 10.6487 15.3628L10.2447 16.6538C10.2885 16.6705 10.3634 16.6998 10.4474 16.7326C10.5989 16.7919 10.7807 16.863 10.8652 16.8937C11.8776 17.2612 13.2157 17.67 14.2435 17.67H20.001C20.9233 17.67 21.4261 17.8145 21.8652 18.099C22.2497 18.348 22.4014 18.7597 22.4014 19.5411V20.2588L14.3598 22.8345Z" fill="black"/>
</svg>
