<svg width="24" height="24" viewBox="0 0 24 24" fill="none" xmlns="http://www.w3.org/2000/svg">
<path d="M2.13477 2.13477V21.8651H21.8651V2.13477H2.13477ZM18.8264 18.8262H13.3056V17.3141L16.2537 17.3141L12.0001 13.0606L7.74655 17.2924L10.6947 17.2924L10.6947 18.8262H5.17383L5.17385 13.3271L6.68592 13.3271L6.68592 16.2535L10.9395 11.9999L6.68592 7.74637L6.68591 10.6945H5.17383L5.17383 5.17365L10.6947 5.17365V6.68572L7.74655 6.68574L12.0001 10.9393L16.2537 6.70749L13.3056 6.7075L13.3056 5.17365L18.8264 5.17365V10.6945H17.3143L17.3143 7.74637L13.0607 11.9999L17.2926 16.2535L17.2925 13.3054H18.8264V18.8262Z" fill="black"/>
</svg>
