<svg width="24" height="24" viewBox="0 0 24 24" fill="none" xmlns="http://www.w3.org/2000/svg">
<path d="M12 2C12.2249 2 12.4481 2.00743 12.6693 2.02204C13.1402 3.04563 13.5914 4.26328 13.9205 5.65469C13.4418 5.95542 13.0923 6.44269 12.9737 7.01455C12.4448 7.11998 11.907 7.25764 11.3619 7.43188C10.1621 7.81546 9.1139 8.35206 8.19847 8.99019C7.89011 8.81434 7.53321 8.71387 7.15283 8.71387C6.69214 8.71387 6.26587 8.86125 5.9186 9.11143C4.80874 8.61205 3.83493 8.24342 2.86687 7.92134C4.42768 4.43159 7.92987 2 12 2Z" fill="black"/>
<path d="M5.09115 10.3592C4.12651 9.90668 3.19898 9.57659 2.35879 9.33586C2.12493 10.1841 2 11.0774 2 12C2 13.5353 2.34601 14.9899 2.9643 16.2899C3.09332 15.9262 3.23794 15.552 3.39999 15.172C3.86634 14.0784 4.48269 12.9248 5.2941 11.835C5.13145 11.5356 5.03906 11.1924 5.03906 10.8276C5.03906 10.6667 5.05706 10.5099 5.09115 10.3592Z" fill="black"/>
<path d="M6.43103 12.815C5.72852 13.7593 5.16203 14.7591 4.74219 15.7437C4.42499 16.3669 4.27626 16.8396 4.12517 17.3197C4.06414 17.5136 4.00274 17.7087 3.92969 17.9155C5.22719 19.6451 7.13817 21.02 9.27345 21.6238C9.72227 21.1932 10.218 20.6765 10.7194 20.0785C11.1467 19.5688 11.576 19.0028 11.983 18.3831C11.6836 18.0184 11.5039 17.5517 11.5039 17.043C11.5039 16.6123 11.6327 16.2117 11.8539 15.8776C11.1981 15.0412 10.4392 14.2009 9.56111 13.3789C9.21014 13.0504 8.85396 12.7448 8.49501 12.4607C8.12997 12.761 7.66246 12.9414 7.15283 12.9414C6.89933 12.9414 6.65626 12.8968 6.43103 12.815Z" fill="black"/>
<path d="M9.24341 11.1418C9.69561 11.4907 10.1446 11.8704 10.5862 12.2838C11.5399 13.1766 12.3626 14.0904 13.0721 15.0003C13.2462 14.9539 13.429 14.9292 13.6177 14.9292C13.6434 14.9292 13.6689 14.9297 13.6944 14.9306C14.0529 13.886 14.3033 12.7549 14.3892 11.5435C14.44 10.8277 14.451 10.1357 14.4288 9.46881C13.9095 9.31122 13.4747 8.95914 13.2094 8.49735C12.7524 8.59052 12.2884 8.71049 11.8187 8.86064C10.8185 9.18042 9.93568 9.62335 9.15659 10.1528C9.22793 10.3647 9.2666 10.5917 9.2666 10.8276C9.2666 10.9344 9.25869 11.0393 9.24341 11.1418Z" fill="black"/>
<path d="M15.9262 9.36698C15.9524 10.1002 15.9413 10.8616 15.8854 11.6497C15.7867 13.0415 15.4943 14.3328 15.0792 15.5159C15.4811 15.9007 15.7314 16.4426 15.7314 17.043C15.7314 17.5499 15.553 18.0151 15.2556 18.3792C15.7373 19.2951 16.1163 20.1706 16.4143 20.9754C19.7233 19.3449 22 15.9383 22 12C22 11.1278 21.8883 10.2818 21.6786 9.47529C21.381 9.34812 21.063 9.22259 20.7263 9.10303C19.646 8.71943 18.3807 8.39962 16.9855 8.28169C16.7788 8.76127 16.3997 9.14907 15.9262 9.36698Z" fill="black"/>
<path d="M17.0604 6.81133C18.521 6.96836 19.8472 7.21985 20.985 7.60514C19.7023 4.98774 17.3097 3.01316 14.4205 2.29494C14.5801 2.86425 14.7367 3.34458 14.8899 3.81441C15.0513 4.30933 15.2088 4.79259 15.3621 5.3559C16.1662 5.47748 16.8217 6.05206 17.0604 6.81133Z" fill="black"/>
<path d="M13.2861 19.1309C13.3941 19.1479 13.5049 19.1567 13.6177 19.1567C13.7327 19.1567 13.8455 19.1476 13.9555 19.1299C14.3996 19.9801 14.7483 20.7913 15.022 21.5352C14.0686 21.8371 13.0533 22 12 22C11.6816 22 11.3666 21.9851 11.0558 21.956C11.3213 21.6745 11.5943 21.3697 11.8689 21.0422C12.3444 20.475 12.8273 19.8368 13.2861 19.1309Z" fill="black"/>
</svg>
