<svg width="24" height="24" viewBox="0 0 24 24" fill="none" xmlns="http://www.w3.org/2000/svg">
<path d="M3.44141 8.90112H6.6613V15.1006H5.1613V10.4011H3.44141V8.90112Z" fill="black"/>
<path d="M15.0918 8.90112H19.0086C19.5885 8.90112 20.0586 9.37122 20.0586 9.95112V14.0545C20.0586 14.6344 19.5885 15.1045 19.0086 15.1045H15.0918V13.6045H18.5586V12.7528H15.9847V11.2528H18.5586V10.4011H15.0918V8.90112Z" fill="black"/>
<path d="M12.3035 8.90112H8.63867V10.4011H11.8535V11.238H9.68867C9.10877 11.238 8.63867 11.7081 8.63867 12.288V15.1052H13.3535V13.6052H10.1387V12.738H12.3035C12.8834 12.738 13.3535 12.2679 13.3535 11.688V9.95112C13.3535 9.37122 12.8834 8.90112 12.3035 8.90112Z" fill="black"/>
</svg>
