<svg width="24" height="24" viewBox="0 0 24 24" fill="none" xmlns="http://www.w3.org/2000/svg">
<path d="M5.75 3C4.23122 3 3 4.23122 3 5.75V18.25C3 19.7688 4.23122 21 5.75 21H18.25C19.7688 21 21 19.7688 21 18.25V5.75C21 4.23122 19.7688 3 18.25 3H5.75ZM7.15625 5.98315H9.92388V11.3799H8.67388V7.23315H7.15625V5.98315ZM6.92383 12.6008H10.3079C10.8188 12.6008 11.2329 13.015 11.2329 13.5258V17.0761C11.2329 17.5869 10.8188 18.0011 10.3079 18.0011H6.92383V16.7511H9.98292V15.9259H7.71176V14.6759H9.98292V13.8508H6.92383V12.6008ZM12.8945 5.98315H16.0563C16.5672 5.98315 16.9813 6.39729 16.9813 6.90815V8.37023C16.9813 8.8811 16.5672 9.29523 16.0563 9.29523H14.1445V10.134H16.9813V11.384H12.8945V8.97023C12.8945 8.45937 13.3087 8.04523 13.8195 8.04523H15.7313V7.23315H12.8945V5.98315ZM12.7998 12.5669H14.0498V14.6773H15.8252V12.5669H17.0752V18.0377H15.8252V15.9273H12.7998V12.5669Z" fill="black"/>
</svg>
