<svg width="24" height="24" viewBox="0 0 24 24" fill="none" xmlns="http://www.w3.org/2000/svg">
<path d="M12 2C6.47715 2 2 6.47715 2 12C2 17.5228 6.47715 22 12 22C17.5228 22 22 17.5228 22 12C22 6.47715 17.5228 2 12 2ZM11.2499 4.92896H12.7499V7.34441H11.2499V4.92896ZM17.53 7.53026L15.8221 9.23825L14.7614 8.17759L16.4694 6.4696L17.53 7.53026ZM13.2799 12.2805C13.2808 12.303 13.2812 12.3256 13.2812 12.3484C13.2812 13.262 12.5406 14.0027 11.627 14.0027C10.7133 14.0027 9.97266 13.262 9.97266 12.3484C9.97266 11.4347 10.7133 10.6941 11.627 10.6941C11.9669 10.6941 12.2829 10.7966 12.5457 10.9725L14.4668 9.89374L15.2012 11.2017L13.2799 12.2805ZM7.34319 12.75H4.92773V11.25H7.34319V12.75ZM19.0703 12.75H16.6549V11.25H19.0703V12.75ZM6.47046 7.53052L7.53112 6.46986L9.2391 8.17784L8.17844 9.2385L6.47046 7.53052Z" fill="black"/>
</svg>
