<svg width="24" height="24" viewBox="0 0 24 24" fill="none" xmlns="http://www.w3.org/2000/svg">
<path fill-rule="evenodd" clip-rule="evenodd" d="M6.03004 4.8103C6.23023 4.55151 6.62086 4.55151 6.82105 4.8103L7.52906 5.72339C7.65504 5.8855 7.86695 5.95483 8.06324 5.89722L9.17359 5.57495C9.48707 5.48315 9.8025 5.71265 9.81324 6.03882L9.84937 7.19409C9.85523 7.39917 9.98609 7.57983 10.1795 7.64917L11.2673 8.04077C11.574 8.15112 11.6951 8.52222 11.5115 8.79175L10.8611 9.7478C10.8171 9.81323 10.7898 9.88647 10.7791 9.96167C10.7625 10.0818 10.7898 10.2058 10.8611 10.3103L11.5115 11.2664C11.6951 11.5359 11.574 11.907 11.2673 12.0173L10.1795 12.4089C9.98609 12.4783 9.85523 12.6589 9.84937 12.864L9.81324 14.0193C9.8025 14.3455 9.48707 14.575 9.17359 14.4832L8.06324 14.1609C7.86695 14.1033 7.65504 14.1726 7.52906 14.3347L6.82105 15.2478C6.74781 15.3425 6.64918 15.4021 6.54371 15.4275C6.36109 15.4724 6.15699 15.4119 6.03004 15.2478L5.32203 14.3347C5.19605 14.1726 4.98414 14.1033 4.78785 14.1609L3.6775 14.4832C3.36402 14.575 3.04859 14.3455 3.03785 14.0193L3.00172 12.864C2.99586 12.6589 2.865 12.4783 2.67164 12.4089L1.58375 12.0173C1.27711 11.907 1.15602 11.5359 1.33961 11.2664L1.99 10.3103C2.10523 10.1404 2.10523 9.91772 1.99 9.7478L1.33961 8.79175C1.24488 8.65308 1.23121 8.48804 1.28199 8.34546C1.32984 8.20972 1.43434 8.09448 1.58375 8.04077L2.67164 7.64917C2.865 7.57983 2.99586 7.39917 3.00172 7.19409L3.03785 6.03882C3.04176 5.9187 3.08766 5.81128 3.15895 5.72827C3.28102 5.58667 3.48023 5.51733 3.6775 5.57495L4.78785 5.89722C4.98414 5.95483 5.19605 5.8855 5.32203 5.72339L6.03004 4.8103ZM6.42555 7.03589L7.09742 9.10425H9.27223L7.51246 10.3826L8.18531 12.4509L6.42555 11.1726L4.66578 12.4509L5.33863 10.3826L3.57887 9.10425H5.75367L6.42555 7.03589ZM13.6036 10.0303C13.6036 13.6426 10.9352 16.6317 7.46191 17.1338H13.0925C13.4255 18.4277 14.6001 19.3838 15.998 19.3838C17.3959 19.3838 18.5705 18.4277 18.9035 17.1338H21.998C22.4122 17.1338 22.748 16.798 22.748 16.3838V13.0234C22.748 11.7125 21.8227 10.5839 20.5373 10.3268L17.3678 9.69289L13.9677 6.2928C13.5457 5.87084 12.9734 5.63379 12.3767 5.63379H12.1C13.0425 6.84843 13.6036 8.37383 13.6036 10.0303ZM17.498 16.3838C17.498 15.5554 16.8264 14.8838 15.998 14.8838C15.1696 14.8838 14.498 15.5554 14.498 16.3838C14.498 17.2122 15.1696 17.8838 15.998 17.8838C16.8264 17.8838 17.498 17.2122 17.498 16.3838Z" fill="black"/>
</svg>
