<svg width="24" height="24" viewBox="0 0 24 24" fill="none" xmlns="http://www.w3.org/2000/svg">
<path d="M10.3399 2.09632C10.1116 1.96789 9.83284 1.96789 9.60453 2.09632L1.3823 6.72132C1.14615 6.85416 1 7.10404 1 7.375V16.625C1 16.896 1.14615 17.1458 1.3823 17.2787L9.22266 21.6889V10.7179L3.2798 7.375L5.91051 5.89522L12.6029 9.65971L10.7227 10.7174V21.6884L13.1093 20.3459C12.5639 19.442 12.25 18.3827 12.25 17.25C12.25 13.9363 14.9363 11.25 18.25 11.25C18.4849 11.25 18.7166 11.2635 18.9444 11.2898V7.375C18.9444 7.10404 18.7983 6.85416 18.5621 6.72132L10.3399 2.09632ZM14.1327 8.7992L7.44031 5.03471L9.97222 3.61051L16.6646 7.375L14.1327 8.7992Z" fill="black"/>
<path d="M13.5 17.25C13.5 14.6266 15.6266 12.5 18.25 12.5C20.8734 12.5 23 14.6266 23 17.25C23 19.8734 20.8734 22 18.25 22C15.6266 22 13.5 19.8734 13.5 17.25ZM17.5137 15.1777V17.5665L19.3838 19.4366L20.4444 18.3759L19.0137 16.9452V15.1777H17.5137Z" fill="black"/>
</svg>
