<svg width="24" height="24" viewBox="0 0 24 24" fill="none" xmlns="http://www.w3.org/2000/svg">
<path d="M20.4773 5.71112C20.7702 5.41823 20.7702 4.94334 20.4773 4.65045L19.4166 3.58979C19.1237 3.2969 18.6489 3.29689 18.356 3.58978L9.43945 12.5059L11.5608 14.6272L20.4773 5.71112Z" fill="black"/>
<path d="M7.2971 14.2499C6.76794 14.2499 6.08447 14.3696 5.51562 14.8038C4.91135 15.265 4.54263 16 4.54263 17C4.54263 17.1823 4.49565 17.3924 4.40601 17.6015C4.22155 18.1016 3.5158 18.8287 2.7041 19.0727C3.54651 19.8332 4.35162 20.2023 4.68022 20.2967L4.67817 20.298C5.1484 20.4353 5.7175 20.5235 6.42414 20.5235C7.3204 20.5235 8.16764 20.0269 8.76371 19.41C9.36352 18.7893 9.8341 17.9187 9.8341 17C9.8341 15.6325 8.91495 14.2499 7.2971 14.2499Z" fill="black"/>
</svg>
