<svg width="24" height="24" viewBox="0 0 24 24" fill="none" xmlns="http://www.w3.org/2000/svg">
<path d="M6.43166 1.60069L8.84485 4.01393L3.70691 9.15179C3.02348 9.8352 3.02348 10.9432 3.7069 11.6267L8.66807 16.5878C9.35149 17.2713 10.4595 17.2713 11.143 16.5878L16.104 11.6267C16.7874 10.9432 16.7874 9.83521 16.104 9.1518L7.49233 0.540039L6.43166 1.60069ZM4.76756 10.2125L9.90551 5.07459L15.0434 10.2125C15.0888 10.2579 15.1131 10.3165 15.1162 10.376H4.69469C4.69783 10.3165 4.72212 10.2579 4.76756 10.2125Z" fill="black"/>
<path d="M2.11133 23.4897H21.881V20.9897H2.11133V23.4897Z" fill="black"/>
<path d="M17.252 15.5062C17.252 14.7734 17.741 13.8912 18.226 13.1963C18.7034 12.5125 19.177 12.0101 19.177 12.0101C19.177 12.0101 19.6505 12.5126 20.1278 13.1964C20.6127 13.8913 21.1016 14.7734 21.1016 15.5062C21.1016 16.5693 20.2401 17.4312 19.177 17.4312C18.1138 17.4312 17.252 16.5693 17.252 15.5062Z" fill="black"/>
</svg>
