<svg width="24" height="24" viewBox="0 0 24 24" fill="none" xmlns="http://www.w3.org/2000/svg">
<path d="M9.36328 10.7651H4.24805C3.00541 10.7651 1.99805 11.7725 1.99805 13.0151V13.8257H9.36328V10.7651Z" fill="black"/>
<path d="M16.1816 12.9995C16.7339 12.9995 17.1816 12.5518 17.1816 11.9995C17.1816 11.4472 16.7339 10.9995 16.1816 10.9995C15.6294 10.9995 15.1816 11.4472 15.1816 11.9995C15.1816 12.5518 15.6294 12.9995 16.1816 12.9995Z" fill="black"/>
<path d="M10.3633 19.5176C10.3633 20.7602 11.3706 21.7676 12.6133 21.7676H19.752C20.9752 21.7676 21.9704 20.7915 22.0012 19.5757C22.0017 19.5565 22.0019 19.5373 22.002 19.5181L22.002 4.48242C22.002 3.23978 20.9946 2.23242 19.752 2.23242L12.6133 2.23242C11.3805 2.23242 10.3793 3.22384 10.3635 4.45285C10.3633 4.46253 10.3633 4.47223 10.3633 4.48193V19.5176ZM19.1172 4.14258C19.1172 4.69486 19.5649 5.14258 20.1172 5.14258C20.2535 5.14258 20.3835 5.11529 20.502 5.06588V6.61315C20.3765 6.63253 20.248 6.64258 20.1172 6.64258C18.7365 6.64258 17.6172 5.52329 17.6172 4.14258C17.6172 4.00289 17.6286 3.86587 17.6507 3.73242L19.2049 3.73242C19.1485 3.85758 19.1172 3.99642 19.1172 4.14258ZM20.502 18.9673C20.3835 18.9179 20.2535 18.8906 20.1172 18.8906C19.5649 18.8906 19.1172 19.3383 19.1172 19.8906C19.1172 20.0242 19.1434 20.1516 19.1909 20.2681H17.6455C17.6269 20.145 17.6172 20.0189 17.6172 19.8906C17.6172 18.5099 18.7365 17.3906 20.1172 17.3906C20.248 17.3906 20.3765 17.4007 20.502 17.4201V18.9673ZM13.1685 20.2681C13.216 20.1516 13.2422 20.0242 13.2422 19.8906C13.2422 19.3383 12.7945 18.8906 12.2422 18.8906C12.1081 18.8906 11.9801 18.917 11.8633 18.9649V17.4192C11.9868 17.4004 12.1134 17.3906 12.2422 17.3906C13.6229 17.3906 14.7422 18.5099 14.7422 19.8906C14.7422 20.0189 14.7325 20.145 14.7139 20.2681H13.1685ZM11.8633 5.0683C11.9801 5.11618 12.1081 5.14258 12.2422 5.14258C12.7945 5.14258 13.2422 4.69486 13.2422 4.14258C13.2422 3.99642 13.2108 3.85758 13.1545 3.73242L14.7087 3.73242C14.7307 3.86587 14.7422 4.00289 14.7422 4.14258C14.7422 5.52329 13.6229 6.64258 12.2422 6.64258C12.1134 6.64258 11.9868 6.63284 11.8633 6.61405V5.0683ZM13.6816 11.9995C13.6816 10.6188 14.8009 9.49951 16.1816 9.49951C17.5624 9.49951 18.6816 10.6188 18.6816 11.9995C18.6816 13.3802 17.5624 14.4995 16.1816 14.4995C14.8009 14.4995 13.6816 13.3802 13.6816 11.9995Z" fill="black"/>
<path d="M9.36328 15.8257H1.99805V19.517C1.99805 20.7597 3.00541 21.767 4.24805 21.767H10.2676C9.70748 21.1832 9.36328 20.3906 9.36328 19.5176V15.8257ZM4.40234 19.1392V18.1392H7.18199V19.1392H4.40234Z" fill="black"/>
</svg>
