<svg width="24" height="24" viewBox="0 0 24 24" fill="none" xmlns="http://www.w3.org/2000/svg">
<path d="M3.79107 4.69607C4.00872 4.4575 4.38071 4.24465 4.87307 4.11415C5.35842 3.98551 5.90529 3.95245 6.41149 4.02359C6.92309 4.0955 7.34032 4.2657 7.61354 4.49269C7.86619 4.7026 8.01269 4.97027 8.01269 5.34399C8.01269 5.53774 7.904 5.77594 7.41537 6.09559C6.94143 6.40564 6.2957 6.67051 5.54876 6.97691L5.48042 7.00495C4.74801 7.30548 3.91596 7.65032 3.27226 8.10397C2.61765 8.56531 2.01758 9.24031 2.01758 10.2242C2.01758 11.4502 2.86559 12.2905 3.84035 12.8549C4.14685 13.0324 4.48401 13.1939 4.843 13.3418L6.00671 12.1781C5.46543 11.991 4.98665 11.7853 4.59202 11.5568C3.79091 11.0929 3.51758 10.6485 3.51758 10.2242C3.51758 9.94111 3.6669 9.66093 4.13637 9.33007C4.61675 8.99152 5.28348 8.70713 6.04985 8.39266L6.17936 8.33959C6.87015 8.05672 7.63846 7.7421 8.23654 7.35086C8.87199 6.93516 9.51269 6.30346 9.51269 5.34399C9.51269 4.49004 9.14049 3.81115 8.57209 3.33892C8.02425 2.88378 7.31807 2.63627 6.62026 2.53819C5.91704 2.43936 5.16849 2.48406 4.48877 2.66421C3.81605 2.84251 3.15332 3.16951 2.68292 3.68513C2.40376 3.99114 2.42552 4.46551 2.73153 4.74467C3.03753 5.02384 3.51191 5.00208 3.79107 4.69607Z" fill="black"/>
<path d="M16.7791 14.8093L15.6334 15.9549C16.3565 16.2388 16.9478 16.5417 17.3898 16.8667C18.0337 17.3401 18.2673 17.7849 18.2673 18.222C18.2673 18.7564 18.0734 19.1485 17.633 19.4426C17.1454 19.7683 16.2914 20.0133 14.9099 20.0133C14.4957 20.0133 14.1599 20.3491 14.1599 20.7633C14.1599 21.1775 14.4957 21.5133 14.9099 21.5133C16.4242 21.5133 17.624 21.2525 18.4661 20.69C19.3555 20.0959 19.7673 19.2173 19.7673 18.222C19.7673 17.1293 19.1358 16.2886 18.2783 15.6582C17.8504 15.3435 17.3433 15.0628 16.7791 14.8093Z" fill="black"/>
<path d="M18.5623 5.11705C17.7705 4.32521 16.5267 4.47136 15.7905 5.20755L14.6408 6.35724L18.5081 10.2245L19.6578 9.07478C20.3939 8.33859 20.5401 7.09482 19.7483 6.30298L18.5623 5.11705Z" fill="black"/>
<path d="M13.094 7.91878L16.9676 11.7924L7.95419 20.8053H4.08107L4.08107 16.9322L13.094 7.91878Z" fill="black"/>
</svg>
