<svg width="24" height="24" viewBox="0 0 24 24" fill="none" xmlns="http://www.w3.org/2000/svg">
<path d="M21.4954 2.78188C20.7891 2.07559 19.588 1.9231 18.8198 2.69134L17.0888 4.42238L21.1029 8.43649L22.8339 6.70546C23.6021 5.93721 23.4497 4.73618 22.7434 4.02988L21.4954 2.78188Z" fill="black"/>
<path d="M19.8559 9.71234L15.8351 5.69152L9.1702 12.3569L9.1702 16.3772H13.1905L19.8559 9.71234Z" fill="black"/>
<path d="M7.16992 11.5285L14.1943 4.50332H5.75C4.23145 4.50332 3 5.73452 3 7.25332V19.7533C3 21.2721 4.23145 22.5033 5.75 22.5033H18.25C19.7686 22.5033 21 21.2721 21 19.7533V11.3966L14.0186 18.3773H7.16992V11.5285Z" fill="black"/>
</svg>
