<svg width="24" height="24" viewBox="0 0 24 24" fill="none" xmlns="http://www.w3.org/2000/svg">
<path d="M2.98047 3.63989C2.98047 3.22568 3.31626 2.88989 3.73047 2.88989H8.00137C8.35807 2.88989 8.66542 3.14112 8.73638 3.49068L9.52556 7.3782C9.5772 7.63258 9.49364 7.89557 9.30466 8.07349L6.50194 10.7121C7.22953 11.9784 8.19632 13.2783 9.46727 14.5493C10.6847 15.7667 11.912 16.6916 13.0913 17.3907L15.941 14.5829C16.1233 14.4033 16.3846 14.3291 16.6341 14.386L20.3784 15.2396C20.7196 15.3174 20.9617 15.6209 20.9617 15.9709V20.1905C20.9617 20.5963 20.639 20.9284 20.2335 20.9402C18.6381 20.9866 15.9008 20.6494 12.8605 18.9857C12.8554 18.983 12.8504 18.9802 12.8453 18.9774C11.4038 18.1868 9.89441 17.0977 8.40661 15.6099C6.86183 14.0652 5.72718 12.4724 4.90718 10.9273C4.90294 10.9196 4.89885 10.9119 4.89491 10.9042C3.43803 8.14926 2.98047 5.54723 2.98047 3.63989Z" fill="black"/>
</svg>
