<svg width="24" height="24" viewBox="0 0 24 24" fill="none" xmlns="http://www.w3.org/2000/svg">
<path d="M3.73047 2.8999C3.31626 2.8999 2.98047 3.23569 2.98047 3.6499C2.98047 5.55724 3.43803 8.15927 4.89491 10.9142C4.89885 10.9219 4.90294 10.9297 4.90718 10.9373C5.72718 12.4825 6.86183 14.0752 8.40661 15.6199C9.89441 17.1077 11.4038 18.1968 12.8453 18.9874L12.8605 18.9957C15.9008 20.6594 18.6381 20.9966 20.2335 20.9502C20.639 20.9384 20.9617 20.6063 20.9617 20.2005V15.9809C20.9617 15.6309 20.7196 15.3275 20.3784 15.2497L16.6341 14.396C16.3846 14.3391 16.1233 14.4133 15.941 14.593L13.0913 17.4007C11.912 16.7016 10.6847 15.7768 9.46727 14.5593C8.19632 13.2883 7.22953 11.9884 6.50194 10.7221L9.30466 8.0835C9.49364 7.90558 9.5772 7.64259 9.52556 7.38821L8.73638 3.50069C8.66542 3.15113 8.35807 2.8999 8.00137 2.8999H3.73047Z" fill="black"/>
<path d="M11.7549 9.02344C11.2716 9.02344 10.8799 9.41519 10.8799 9.89844C10.8799 10.3817 11.2716 10.7734 11.7549 10.7734C12.2381 10.7734 12.6299 10.3817 12.6299 9.89844C12.6299 9.41519 12.2381 9.02344 11.7549 9.02344Z" fill="black"/>
<path d="M14.9668 9.89844C14.9668 9.41519 15.3585 9.02344 15.8418 9.02344C16.325 9.02344 16.7168 9.41519 16.7168 9.89844C16.7168 10.3817 16.325 10.7734 15.8418 10.7734C15.3585 10.7734 14.9668 10.3817 14.9668 9.89844Z" fill="black"/>
<path d="M19.9531 9.02344C19.4699 9.02344 19.0781 9.41519 19.0781 9.89844C19.0781 10.3817 19.4699 10.7734 19.9531 10.7734C20.4364 10.7734 20.8281 10.3817 20.8281 9.89844C20.8281 9.41519 20.4364 9.02344 19.9531 9.02344Z" fill="black"/>
</svg>
