<svg width="24" height="24" viewBox="0 0 24 24" fill="none" xmlns="http://www.w3.org/2000/svg">
<path d="M2.55859 3.33105C1.31595 3.33105 0.308594 4.33841 0.308594 5.58105V18.4189C0.308594 19.6616 1.31595 20.6689 2.55859 20.6689H21.4414C22.684 20.6689 23.6914 19.6616 23.6914 18.4189V5.58105C23.6914 4.33841 22.684 3.33105 21.4414 3.33105H2.55859ZM17.9509 13.7855H19.588L21.3205 16.0551L19.1951 18.179L18.6663 17.7002C17.2071 16.3791 16.1799 14.2453 16.1945 12.0067C16.1881 11.0301 16.3801 10.078 16.7145 9.20867C17.15 8.07661 17.8342 7.06654 18.6663 6.31328L19.1951 5.83447L21.3205 7.95834L19.588 10.228H17.9509C17.7815 10.7984 17.6901 11.3974 17.6945 12.0013L17.6946 12.0122C17.6902 12.6189 17.7824 13.2179 17.9509 13.7855ZM9.62598 7.2085C11.3662 7.2085 12.7773 8.61914 12.7773 10.3591C12.7773 12.0994 11.3662 13.5098 9.62598 13.5098C7.88574 13.5098 6.47559 12.0994 6.47559 10.3591C6.47559 8.61914 7.88574 7.2085 9.62598 7.2085ZM9.62625 14.9883C12.7618 14.9883 15.5049 16.6753 16.7938 19.1689H2.55896C2.52607 19.1689 2.49368 19.1668 2.46191 19.1627C3.75219 16.6725 6.49335 14.9883 9.62625 14.9883Z" fill="black"/>
</svg>
