<svg width="24" height="24" viewBox="0 0 24 24" fill="none" xmlns="http://www.w3.org/2000/svg">
<path d="M7.6426 10.3492V13.4812C7.6426 13.7151 7.53354 13.9355 7.34767 14.0774L4.39953 16.3278C4.10085 16.5558 3.67954 16.5276 3.41394 16.2618L1.06909 13.9153C0.786601 13.6326 0.775397 13.1781 1.04362 12.8818C3.58219 10.0778 7.70603 8.09079 12.0234 8.12044C13.9028 8.10754 15.7409 8.47682 17.4236 9.12412C19.6151 9.96719 21.5612 11.289 23.0033 12.8818C23.2715 13.1781 23.2603 13.6326 22.9778 13.9153L20.6329 16.2618C20.3673 16.5276 19.946 16.5558 19.6473 16.3278L16.6992 14.0774C16.5133 13.9355 16.4043 13.7151 16.4043 13.4812V10.3492C15.0166 9.87308 13.5327 9.60952 12.0289 9.62044L12.018 9.62052C10.5103 9.60958 9.02636 9.87447 7.6426 10.3492Z" fill="black"/>
</svg>
