<svg width="24" height="24" viewBox="0 0 24 24" fill="none" xmlns="http://www.w3.org/2000/svg">
<path d="M5 3.25C4.0332 3.25 3.25 4.03345 3.25 5V7.25H1.75C1.5957 7.25 1.45312 7.29614 1.33398 7.375C1.13281 7.50928 1 7.73901 1 8C1 8.41431 1.33594 8.75 1.75 8.75H3.25V11.25H1.75C1.5332 11.25 1.33789 11.342 1.20117 11.4895C1.1543 11.5388 1.11523 11.5945 1.08398 11.6548C1.03125 11.7581 1 11.8755 1 12C1 12.4143 1.33594 12.75 1.75 12.75H3.25V15.25H1.75C1.33594 15.25 1 15.5857 1 16C1 16.4143 1.33594 16.75 1.75 16.75H3.25V19C3.25 19.6545 3.60938 20.2251 4.14062 20.5251C4.39453 20.6682 4.6875 20.75 5 20.75H19C19.9668 20.75 20.75 19.9666 20.75 19V5C20.75 4.03345 19.9668 3.25 19 3.25H5ZM15 17C10.582 17 7 13.4182 7 9V7H11V11.5L9.84766 12.0762C10.3574 12.928 11.0723 13.6428 11.9238 14.1523L12.5 13H17V17H15Z" fill="black"/>
</svg>
