<svg width="24" height="24" viewBox="0 0 24 24" fill="none" xmlns="http://www.w3.org/2000/svg">
<path d="M12.5105 2.32103L12.0011 1.84961L11.4917 2.32103C9.4528 4.20784 6.85329 4.72171 3.63459 4.78117L2.89844 4.79477V5.53104C2.89844 10.6249 4.06427 14.0535 5.77658 16.5581C7.47713 19.0455 9.67757 20.5565 11.5765 21.8594L12.0008 22.1505L12.4251 21.8594C14.3241 20.5565 16.5246 19.0455 18.2252 16.5581C19.9376 14.0535 21.1035 10.6249 21.1035 5.53104V4.79477L20.3674 4.78117C17.1487 4.72171 14.5493 4.20785 12.5105 2.32103ZM7.68359 7.48047H8.8764V14.6313H7.68359V7.48047ZM9.47281 7.48047H10.6495V14.6313H9.47281V7.48047ZM11.2459 7.48047H11.8423V14.6313H11.2459V7.48047ZM12.7399 7.48047H13.9327V14.6313H12.7399V7.48047ZM14.5291 7.48047H16.3184V14.6313H14.5291V7.48047Z" fill="black"/>
</svg>
