<svg width="24" height="24" viewBox="0 0 24 24" fill="none" xmlns="http://www.w3.org/2000/svg">
<path d="M11.2225 11.1924V12.6219H9.79297V14.1219H11.2225V15.5515H12.7225V14.1219H14.1521V12.6219H12.7225V11.1924H11.2225Z" fill="black"/>
<path d="M4 4.25C4 3.00736 5.00736 2 6.25 2H13.9104L20 8.09838V19.75C20 20.9926 18.9926 22 17.75 22H6.25C5.00736 22 4 20.9926 4 19.75V4.25ZM12 8.12598L11.5755 8.51883C10.6051 9.41691 9.35813 9.67598 7.73846 9.7059L7.125 9.71723V10.3308C7.125 12.9621 7.72806 14.7569 8.63194 16.079C9.52375 17.3835 10.6763 18.1742 11.639 18.8347L11.9999 19.0824L12.361 18.8346C13.3237 18.1742 14.4762 17.3835 15.368 16.079C16.2719 14.7569 16.875 12.9621 16.875 10.3308V9.71723L16.2615 9.7059C14.6419 9.67598 13.395 9.41692 12.4246 8.51883L12 8.12598Z" fill="black"/>
</svg>
