<svg width="24" height="24" viewBox="0 0 24 24" fill="none" xmlns="http://www.w3.org/2000/svg">
<path d="M6.03906 6.8186H17.9609V2.94775H6.03906V6.8186Z" fill="black"/>
<path d="M19.6256 8.3186H4.37436C3.01688 8.48676 1.96582 9.64445 1.96582 11.0476V17.2603H6.08984V21.0522H17.9092V17.2603H22.0342V11.0476C22.0342 9.64445 20.9831 8.48676 19.6256 8.3186ZM16.4092 19.5522H7.58984V15.7957H16.4092V19.5522ZM17.3047 13.0991C16.9102 13.0991 16.5586 12.9192 16.3262 12.6367C16.1465 12.4182 16.0391 12.1384 16.0391 11.8335C16.0391 11.1345 16.6055 10.5679 17.3047 10.5679C18.0039 10.5679 18.5703 11.1345 18.5703 11.8335C18.5703 12.5325 18.0039 13.0991 17.3047 13.0991Z" fill="black"/>
</svg>
