<svg width="24" height="24" viewBox="0 0 24 24" fill="none" xmlns="http://www.w3.org/2000/svg">
<path d="M17.9307 19.1477L20.6836 21.9006L21.7441 20.8398L17.9307 17.0461L6.06055 5.17578L3.00391 2.09961L1.94336 3.16016L6.06055 7.27734V7.77075H4.7373C3.21875 7.77075 1.9873 9.00195 1.9873 10.5208V16.7334H6.11133V20.5254H17.9307V19.1477ZM16.4307 17.6477V19.0254H7.61133V15.2688H14.0518L16.4307 17.6477Z" fill="black"/>
<path d="M22.0557 16.7334H20.4463L11.4834 7.77075H19.3057C20.8242 7.77075 22.0557 9.00195 22.0557 10.5208V16.7334ZM17.3262 12.5723C17.6377 12.5723 17.9229 12.4597 18.1426 12.2732C18.417 12.041 18.5918 11.6941 18.5918 11.3066C18.5918 10.6077 18.0254 10.041 17.3262 10.041C17.1045 10.041 16.8955 10.0979 16.7139 10.1982C16.3242 10.4138 16.0605 10.8293 16.0605 11.3066C16.0605 11.7117 16.251 12.0723 16.5469 12.304C16.7617 12.4722 17.0322 12.5723 17.3262 12.5723Z" fill="black"/>
<path d="M17.9824 6.27026H9.98301L6.13379 2.4209H17.9824V6.27026Z" fill="black"/>
</svg>
