<svg width="24" height="24" viewBox="0 0 24 24" fill="none" xmlns="http://www.w3.org/2000/svg">
<path d="M12.0023 3L2.26562 8.51495L2.26563 10.2384L4.00638 10.2385V18.7703L2.26562 18.7691V21H21.7332V18.7691L19.9529 18.7703V10.2385L21.7332 10.2384V8.51495L12.0023 3ZM17.7231 18.7703H13.0947V10.2385H17.7231V18.7703ZM10.8651 18.7703H6.23618V10.2385H10.8651V18.7703ZM13.2565 6.80677C13.2565 7.49948 12.6949 8.061 12.0023 8.061C11.3096 8.061 10.748 7.49948 10.748 6.80677C10.748 6.11412 11.3096 5.55254 12.0023 5.55254C12.6949 5.55254 13.2565 6.11412 13.2565 6.80677Z" fill="black"/>
</svg>
