<svg width="24" height="24" viewBox="0 0 24 24" fill="none" xmlns="http://www.w3.org/2000/svg">
<path d="M3.17188 3.17236H10.668V10.6685H3.17188V3.17236ZM4.67188 4.67236V9.16846H9.16797V4.67236H4.67188Z" fill="black"/>
<path d="M3.17188 13.3232H10.668V20.8193H3.17188V13.3232ZM4.67188 14.8232V19.3193H9.16797V14.8232H4.67188Z" fill="black"/>
<path d="M20.8262 3.25H13.3301V10.7461H20.8262V3.25ZM14.8301 9.24609V4.75H19.3262V9.24609H14.8301Z" fill="black"/>
<path d="M14.8301 14.8232H13.3301V13.3232H14.8301V14.8232Z" fill="black"/>
<path d="M17.3613 14.8232H18.8613V13.3232H17.3613V14.8232Z" fill="black"/>
<path d="M14.8301 18.8203H13.3301V17.3203H14.8301V18.8203Z" fill="black"/>
<path d="M17.3613 18.8203H18.8613V17.3203H17.3613V18.8203Z" fill="black"/>
<path d="M16.8457 16.8218H15.3457V15.3218H16.8457V16.8218Z" fill="black"/>
<path d="M19.3262 16.8218H20.8262V15.3218H19.3262V16.8218Z" fill="black"/>
<path d="M16.8457 20.8193H15.3457V19.3193H16.8457V20.8193Z" fill="black"/>
<path d="M19.3262 20.8193H20.8262V19.3193H19.3262V20.8193Z" fill="black"/>
</svg>
