<svg width="25" height="24" viewBox="0 0 25 24" fill="none" xmlns="http://www.w3.org/2000/svg">
<path d="M6.42969 2.25C5.46319 2.25 4.67969 3.0335 4.67969 4V20C4.67969 20.9665 5.46319 21.75 6.42969 21.75H18.4297C19.3962 21.75 20.1797 20.9665 20.1797 20V4C20.1797 3.0335 19.3962 2.25 18.4297 2.25H6.42969ZM11.6797 5.85V5H13.1797V5.85H14.9297V7.35H11.513V8.25H14.0964C14.5106 8.25 14.8464 8.58579 14.8464 9V11.4C14.8464 11.8142 14.5106 12.15 14.0964 12.15H13.1797V13H11.6797V12.15H9.92969V10.65H13.3464V9.75H10.763C10.3488 9.75 10.013 9.41421 10.013 9V6.6C10.013 6.18579 10.3488 5.85 10.763 5.85H11.6797ZM16.4297 16.25H8.42969V14.75H16.4297V16.25ZM16.4297 18.75H8.42969V17.25H16.4297V18.75Z" fill="black"/>
</svg>
