<svg width="24" height="24" viewBox="0 0 24 24" fill="none" xmlns="http://www.w3.org/2000/svg">
<path d="M8.5761 2C4.94422 2 2 4.94422 2 8.5761C2 10.3407 2.695 11.9429 3.82619 13.124H2.58594C2.3098 13.124 2.08594 13.3479 2.08594 13.624C2.08594 13.9002 2.3098 14.124 2.58594 14.124H7.4517C7.5256 13.6673 7.63781 13.2233 7.78493 12.7957C5.79144 12.4245 4.28223 10.6759 4.28223 8.5748C4.28223 6.20354 6.20451 4.28125 8.57577 4.28125C10.6771 4.28125 12.4258 5.79076 12.7968 7.78455C13.5049 7.54107 14.2576 7.39329 15.0394 7.35665C14.4676 4.30742 11.7913 2 8.5761 2Z" fill="black"/>
<path d="M8.18188 11.845C8.39926 11.406 8.65539 10.9895 8.9458 10.6002C8.82594 10.6219 8.70248 10.6332 8.57637 10.6332C8.31365 10.6332 8.06243 10.584 7.83139 10.4944L7.09953 11.5198C7.43206 11.6868 7.79677 11.7991 8.18188 11.845Z" fill="black"/>
<path d="M10.6029 8.94373C10.9918 8.65395 11.4077 8.39834 11.8461 8.18137C11.8411 8.13991 11.8354 8.09868 11.829 8.0577L10.6321 8.44368C10.6348 8.48659 10.6361 8.52986 10.6361 8.57344C10.6361 8.69985 10.6248 8.82361 10.6029 8.94373Z" fill="black"/>
<path d="M6.84587 7.45584L5.6459 7.06886C6.11713 6.1539 7.00436 5.48822 8.05762 5.32178V6.57955C7.55221 6.71067 7.12218 7.02888 6.84587 7.45584Z" fill="black"/>
<path d="M5.28223 8.5748C5.28223 8.39864 5.29606 8.22572 5.32269 8.05705L6.52064 8.44338C6.51796 8.48639 6.5166 8.52976 6.5166 8.57344C6.5166 9.07203 6.69376 9.52925 6.98855 9.88558L6.25566 10.9124C5.65449 10.3157 5.28223 9.48874 5.28223 8.5748Z" fill="black"/>
<path d="M9.09731 5.32231C10.1493 5.48968 11.0353 6.15517 11.506 7.06945L10.307 7.4561C10.0311 7.02962 9.60187 6.71161 9.09731 6.58012V5.32231Z" fill="black"/>
<path d="M8.0166 8.57344C8.0166 8.26429 8.26722 8.01367 8.57637 8.01367C8.88552 8.01367 9.13614 8.26429 9.13614 8.57344C9.13614 8.88259 8.88552 9.13321 8.57637 9.13321C8.26722 9.13321 8.0166 8.88259 8.0166 8.57344Z" fill="black"/>
<path d="M21.2885 6.6655L21.9956 7.3726L20.1719 9.19629L18.3482 7.3726L19.0553 6.6655L19.783 7.39319C19.7869 7.3194 19.7889 7.24509 19.7889 7.17032C19.7889 4.87283 17.9264 3.01035 15.6289 3.01035C15.5411 3.01035 15.454 3.01306 15.3676 3.01842L15.3384 2.01839C15.4346 2.01305 15.5314 2.01035 15.6289 2.01035C18.4769 2.01035 20.786 4.31772 20.7889 7.16509L21.2885 6.6655Z" fill="black"/>
<path d="M12.1703 14.9047C12.1437 15.0734 12.1299 15.2463 12.1299 15.4225C12.1299 16.3364 12.5021 17.1634 13.1033 17.7601L13.8362 16.7332C13.5414 16.3769 13.3643 15.9197 13.3643 15.4211C13.3643 15.3774 13.3656 15.334 13.3683 15.291L12.1703 14.9047Z" fill="black"/>
<path d="M12.4936 13.9165L13.6935 14.3035C13.9698 13.8765 14.3999 13.5583 14.9053 13.4272V12.1694C13.852 12.3359 12.9648 13.0016 12.4936 13.9165Z" fill="black"/>
<path d="M15.4234 18.716C14.8927 18.716 14.3912 18.5905 13.9472 18.3674L14.679 17.342C14.9101 17.4317 15.1613 17.4809 15.424 17.4809C15.6901 17.4809 15.9444 17.4304 16.1778 17.3386L16.9088 18.3628C16.4625 18.5887 15.9578 18.716 15.4234 18.716Z" fill="black"/>
<path d="M17.7508 17.7528C18.3477 17.1567 18.717 16.3327 18.717 15.4225C18.717 15.2465 18.7032 15.0738 18.6766 14.9054L17.4798 15.2913C17.4824 15.3342 17.4838 15.3775 17.4838 15.4211C17.4838 15.9163 17.3091 16.3707 17.0179 16.7259L17.7508 17.7528Z" fill="black"/>
<path d="M15.945 12.17C16.997 12.3373 17.883 13.0028 18.3536 13.9171L17.1547 14.3038C16.8788 13.8773 16.4495 13.5593 15.945 13.4278V12.17Z" fill="black"/>
<path d="M15.424 14.8613C15.1149 14.8613 14.8643 15.1119 14.8643 15.4211C14.8643 15.7302 15.1149 15.9809 15.424 15.9809C15.7332 15.9809 15.9838 15.7302 15.9838 15.4211C15.9838 15.1119 15.7332 14.8613 15.424 14.8613Z" fill="black"/>
<path fill-rule="evenodd" clip-rule="evenodd" d="M15.4238 8.84766C11.7919 8.84766 8.84766 11.7919 8.84766 15.4238C8.84766 19.0556 11.7919 21.9999 15.4238 21.9999C19.0556 21.9999 21.9999 19.0556 21.9999 15.4238C21.9999 11.7919 19.0556 8.84766 15.4238 8.84766ZM15.4234 11.1289C13.0522 11.1289 11.1299 13.0512 11.1299 15.4225C11.1299 17.7937 13.0522 19.716 15.4234 19.716C17.7947 19.716 19.717 17.7937 19.717 15.4225C19.717 13.0512 17.7947 11.1289 15.4234 11.1289Z" fill="black"/>
</svg>
