<svg width="24" height="24" viewBox="0 0 24 24" fill="none" xmlns="http://www.w3.org/2000/svg">
<path d="M12.2394 4.50195C9.43998 4.50195 6.99747 6.03639 5.70947 8.31183H8.98945V9.81183H3.24219V4.05835H4.74219V7.02303C6.35393 4.59987 9.10946 3.00195 12.2394 3.00195C17.2089 3.00195 21.2375 7.03052 21.2375 12C21.2375 16.9695 17.2089 20.998 12.2394 20.998C7.70664 20.998 3.95665 17.6464 3.33262 13.2861H4.85128C5.46118 16.8144 8.53691 19.498 12.2394 19.498C16.3805 19.498 19.7375 16.1411 19.7375 12C19.7375 7.85894 16.3805 4.50195 12.2394 4.50195Z" fill="black"/>
<path d="M12.4703 6.88819L12.4695 11.6792L15.8332 15.0621L14.7695 16.1198L10.9694 12.2979L10.9703 6.88794L12.4703 6.88819Z" fill="black"/>
</svg>
