<svg width="24" height="24" viewBox="0 0 24 24" fill="none" xmlns="http://www.w3.org/2000/svg">
<path d="M6.25 2C5.00736 2 4 3.00736 4 4.25V19.75C4 20.9926 5.00736 22 6.25 22H17.75C18.9926 22 20 20.9926 20 19.75V8.09838L13.9104 2H6.25ZM7.10156 7.8584H8.60156V9.5182C9.48327 8.65128 10.6926 8.11621 12.0276 8.11621C14.7269 8.11621 16.9151 10.3044 16.9151 13.0037C16.9151 15.7029 14.7269 17.8911 12.0276 17.8911C9.69307 17.8911 7.74083 16.2544 7.25586 14.0658H8.80998C9.25554 15.4164 10.5277 16.3911 12.0276 16.3911C13.8984 16.3911 15.4151 14.8745 15.4151 13.0037C15.4151 11.1328 13.8984 9.61621 12.0276 9.61621C10.9956 9.61621 10.0706 10.0779 9.44895 10.8066H11.5383V12.3066H7.10156V7.8584Z" fill="black"/>
</svg>
