<svg width="24" height="24" viewBox="0 0 24 24" fill="none" xmlns="http://www.w3.org/2000/svg">
<path d="M13.6541 1.42822L14.7148 2.48888L12.5907 4.61294C12.8756 4.58574 13.1642 4.57183 13.4559 4.57183C18.4265 4.57183 22.456 8.60127 22.456 13.5718C22.456 18.5424 18.4265 22.5718 13.4559 22.5718C12.0807 22.5718 10.7762 22.2629 9.60938 21.7105L10.6582 20.5328C11.5223 20.8805 12.4663 21.0718 13.4559 21.0718C17.5981 21.0718 20.956 17.714 20.956 13.5718C20.956 9.4297 17.5981 6.07183 13.4559 6.07183C13.1911 6.07183 12.9297 6.08553 12.6722 6.11223L14.7148 8.15479L13.6541 9.21545L9.76052 5.32183L13.6541 1.42822Z" fill="black"/>
<path d="M13.1277 13.5526L7.3363 7.76123L1.54492 13.5526L7.3363 19.344L13.1277 13.5526ZM7.3363 17.2227L3.66624 13.5526L7.3363 9.88255L11.0063 13.5526L7.3363 17.2227Z" fill="black"/>
</svg>
