<svg width="24" height="24" viewBox="0 0 24 24" fill="none" xmlns="http://www.w3.org/2000/svg">
<path d="M1.72266 3.47168C1.72266 2.50518 2.50616 1.72168 3.47266 1.72168H9.2368V3.22168H3.47266C3.33459 3.22168 3.22266 3.33361 3.22266 3.47168V9.23582H1.72266V3.47168ZM20.5292 3.22168H14.7651V1.72168H20.5292C21.4957 1.72168 22.2792 2.50518 22.2792 3.47168V9.23582H20.7792V3.47168C20.7792 3.33361 20.6673 3.22168 20.5292 3.22168ZM3.22266 14.7641V20.5283C3.22266 20.6663 3.33459 20.7783 3.47266 20.7783H9.2368V22.2783H3.47266C2.50616 22.2783 1.72266 21.4948 1.72266 20.5283V14.7641H3.22266ZM20.7792 20.5283V14.7641H22.2792V20.5283C22.2792 21.4948 21.4957 22.2783 20.5292 22.2783H14.7651V20.7783H20.5292C20.6673 20.7783 20.7792 20.6663 20.7792 20.5283Z" fill="black"/>
</svg>
