<svg width="24" height="24" viewBox="0 0 24 24" fill="none" xmlns="http://www.w3.org/2000/svg">
<path d="M8.12637 9.21919C7.56897 9.56055 6.91342 9.75732 6.21191 9.75732C4.18453 9.75732 2.54102 8.11381 2.54102 6.08643C2.54102 4.05904 4.18453 2.41553 6.21191 2.41553C8.2393 2.41553 9.88281 4.05904 9.88281 6.08643C9.88281 6.86349 9.64137 7.58415 9.22941 8.1775L21.4603 20.4658V21.208L19.8392 21.0127L12.1122 13.2325L9.33639 15.9857C9.68285 16.546 9.88281 17.2064 9.88281 17.9136C9.88281 19.941 8.2393 21.5845 6.21191 21.5845C4.18453 21.5845 2.54102 19.941 2.54102 17.9136C2.54102 15.8862 4.18453 14.2427 6.21191 14.2427C6.96248 14.2427 7.66044 14.4679 8.24186 14.8545L10.9633 12.0756L8.12637 9.21919ZM8.22455 6.08641C8.22455 4.94581 7.32367 4.02118 6.21237 4.02118C5.10108 4.02118 4.2002 4.94581 4.2002 6.08641C4.2002 7.227 5.10108 8.15163 6.21237 8.15163C7.32367 8.15163 8.22455 7.227 8.22455 6.08641ZM6.21237 19.9788C7.32367 19.9788 8.22455 19.0541 8.22455 17.9136C8.22455 16.773 7.32367 15.8483 6.21237 15.8483C5.10108 15.8483 4.2002 16.773 4.2002 17.9136C4.2002 19.0541 5.10108 19.9788 6.21237 19.9788ZM12.4205 12.0645C12.4205 11.8224 12.2211 11.6262 11.9751 11.6262C11.7291 11.6262 11.5296 11.8224 11.5296 12.0645C11.5296 12.3065 11.7291 12.5028 11.9751 12.5028C12.2211 12.5028 12.4205 12.3065 12.4205 12.0645Z" fill="black"/>
<path d="M19.2642 3.64331L13.025 9.97648L14.1032 11.0452L20.8885 4.1845V3.4454L19.2642 3.64331Z" fill="black"/>
</svg>
