<svg width="24" height="24" viewBox="0 0 24 24" fill="none" xmlns="http://www.w3.org/2000/svg">
<path d="M7.22559 4.66333C7.22559 3.42065 8.2334 2.41333 9.47559 2.41333H12.4316C13.6748 2.41333 14.6816 3.42065 14.6816 4.66333V6.42944H18.2695C19.5117 6.42944 20.5195 7.43677 20.5195 8.67944V12.513C20.0567 12.2021 19.5535 11.9466 19.0195 11.756V10.6128H2.89062V12.1128H13.6305C11.4408 13.2404 9.94336 15.5232 9.94336 18.1557C9.94336 19.0371 10.1112 19.8793 10.4167 20.6521H3.63867C2.39648 20.6521 1.38867 19.6448 1.38867 18.4021V8.67944C1.38867 7.43677 2.39648 6.42944 3.63867 6.42944H7.22559V4.66333ZM13.1816 4.66333C13.1816 4.24902 12.8457 3.91333 12.4316 3.91333H9.47559C9.06152 3.91333 8.72559 4.24902 8.72559 4.66333V6.42944H13.1816V4.66333Z" fill="black"/>
<path d="M11.9434 18.1557C11.9434 15.5087 14.0892 13.3628 16.7363 13.3628C19.3834 13.3628 21.5292 15.5087 21.5292 18.1557C21.5292 19.2007 21.1948 20.1676 20.6272 20.9552L22.6113 22.9393L21.5507 24L19.5714 22.0207C18.7774 22.6041 17.7971 22.9487 16.7363 22.9487C14.0892 22.9487 11.9434 20.8028 11.9434 18.1557ZM16.7363 14.8628C14.9177 14.8628 13.4434 16.3371 13.4434 18.1557C13.4434 19.9744 14.9177 21.4487 16.7363 21.4487C18.5549 21.4487 20.0292 19.9744 20.0292 18.1557C20.0292 16.3371 18.5549 14.8628 16.7363 14.8628Z" fill="black"/>
</svg>
