<svg width="24" height="24" viewBox="0 0 24 24" fill="none" xmlns="http://www.w3.org/2000/svg">
<path d="M9.44727 4.58887C12.1397 4.58887 14.3223 6.77148 14.3223 9.46387C14.3223 10.8 13.7847 12.0106 12.9141 12.8912L12.8746 12.9307C11.994 13.8013 10.7834 14.3389 9.44727 14.3389C6.75488 14.3389 4.57227 12.1563 4.57227 9.46387C4.57227 6.77148 6.75488 4.58887 9.44727 4.58887ZM14.4729 13.3866C15.3184 12.3049 15.8223 10.9432 15.8223 9.46387C15.8223 5.94305 12.9681 3.08887 9.44727 3.08887C5.92645 3.08887 3.07227 5.94305 3.07227 9.46387C3.07227 12.9847 5.92645 15.8389 9.44727 15.8389C10.9482 15.8389 12.328 15.3202 13.4172 14.4522L19.9843 21.0194L21.045 19.9587L14.4729 13.3866ZM10.197 6.3889L10.1971 8.714L12.5221 8.71395L12.5221 10.214L10.1971 10.214L10.1971 12.5389L8.69714 12.5389L8.69709 10.214L6.37209 10.2141L6.37205 8.71409L8.69705 8.71404L8.697 6.38893L10.197 6.3889Z" fill="black"/>
</svg>
