<svg width="24" height="24" viewBox="0 0 24 24" fill="none" xmlns="http://www.w3.org/2000/svg">
<path d="M5.60059 9.44189C5.60059 6.74951 7.7832 4.56689 10.4756 4.56689C13.168 4.56689 15.3506 6.74951 15.3506 9.44189C15.3506 11.1294 14.4932 12.6167 13.1904 13.4917C13.4512 13.9207 13.668 14.3789 13.8359 14.8601C14.0479 14.7288 14.251 14.585 14.4453 14.4304L21.0127 20.9976L22.0732 19.937L15.501 13.3647C16.3467 12.283 16.8506 10.9214 16.8506 9.44189C16.8506 5.92114 13.9961 3.06689 10.4756 3.06689C6.95508 3.06689 4.10059 5.92114 4.10059 9.44189C4.10059 9.82227 4.13379 10.1948 4.19824 10.5569C4.65918 10.3643 5.14453 10.218 5.64746 10.1238C5.61719 9.90088 5.60059 9.67334 5.60059 9.44189Z" fill="black"/>
<path d="M12.2393 17.25C12.2393 20.1494 9.88867 22.5 6.98926 22.5C4.08984 22.5 1.73926 20.1494 1.73926 17.25C1.73926 14.3506 4.08984 12 6.98926 12C9.88867 12 12.2393 14.3506 12.2393 17.25ZM8.04963 17.2503L9.67619 15.6236L8.61551 14.563L6.98895 16.1896L5.36239 14.5631L4.30176 15.6238L5.92831 17.2503L4.3019 18.8768L5.36259 19.9374L6.989 18.3109L8.61555 19.9374L9.67619 18.8767L8.04963 17.2503Z" fill="black"/>
</svg>
