<svg width="24" height="25" viewBox="0 0 24 25" fill="none" xmlns="http://www.w3.org/2000/svg">
<path d="M1.84961 4.04004V16.965H3.69961V4.04004H1.84961Z" fill="black"/>
<path d="M4.62461 4.04004V16.965H6.44961V4.04004H4.62461Z" fill="black"/>
<path d="M7.37461 4.04004V16.965H8.29961V4.04004H7.37461Z" fill="black"/>
<path d="M10.1496 4.04004V16.965H10.8864C10.6812 16.3373 10.5703 15.6669 10.5703 14.9706C10.5703 13.4408 11.1058 12.036 11.9996 10.9335V4.04004H10.1496Z" fill="black"/>
<path d="M15.6996 8.68433C14.6615 8.89555 13.7145 9.35746 12.9246 10.0041V4.04004H15.6996V8.68433Z" fill="black"/>
<path d="M17.5496 8.57988C17.3637 8.56369 17.1756 8.55542 16.9855 8.55542C16.8644 8.55542 16.7441 8.55878 16.6246 8.5654V4.04004H17.5496V8.57988Z" fill="black"/>
<path d="M22.1496 11.1637C21.4471 10.2124 20.4881 9.46213 19.3746 9.01504V4.04004H22.1496V11.1637Z" fill="black"/>
<path d="M16.9855 10.0554C14.2709 10.0554 12.0703 12.256 12.0703 14.9706C12.0703 17.6852 14.2709 19.8858 16.9855 19.8858C18.0801 19.8858 19.0911 19.528 19.908 18.923L21.9447 20.9597L23.0053 19.899L20.9639 17.8576C21.5532 17.047 21.9007 16.0494 21.9007 14.9706C21.9007 12.256 19.7001 10.0554 16.9855 10.0554ZM13.5703 14.9706C13.5703 13.0845 15.0994 11.5554 16.9855 11.5554C18.8717 11.5554 20.4007 13.0845 20.4007 14.9706C20.4007 16.8568 18.8717 18.3858 16.9855 18.3858C15.0994 18.3858 13.5703 16.8568 13.5703 14.9706Z" fill="black"/>
</svg>
