<svg width="24" height="24" viewBox="0 0 24 24" fill="none" xmlns="http://www.w3.org/2000/svg">
<path d="M14.5581 2.00244H9.39449L8.96622 5.15129C8.46285 5.37273 7.98873 5.64792 7.55111 5.96946L4.60917 4.76559L2.02734 9.23745L4.54052 11.183C4.51131 11.4516 4.49634 11.7242 4.49634 12C4.49634 12.2762 4.51134 12.5491 4.54061 12.8179L2.02783 14.7631L4.60966 19.235L7.55176 18.0311C7.98919 18.3524 8.46308 18.6274 8.9662 18.8488L9.39449 21.9978H14.3171C13.6084 21.3866 12.9158 20.6688 12.3093 19.7817C11.3289 18.3477 10.5976 16.5111 10.3188 14.0276C9.73196 13.5475 9.35742 12.8176 9.35742 12.0003C9.35742 10.5544 10.5295 9.38232 11.9754 9.38232C12.8787 9.38232 13.6752 9.83985 14.1457 10.5358C15.0176 10.2728 15.7871 9.86128 16.4654 9.23363L16.9748 8.76221L17.4842 9.23363C18.2462 9.93882 19.1235 10.3711 20.1316 10.6266L21.9261 9.23733L19.3443 4.76547L16.4004 5.97016C15.9631 5.64881 15.4895 5.37373 14.9866 5.15229L14.5581 2.00244Z" fill="black"/>
<path d="M19.6373 14.9576L16.4462 18.1489L14.3125 16.0153L15.3731 14.9546L16.4462 16.0276L18.5766 13.897L19.6373 14.9576Z" fill="black"/>
<path d="M16.9747 10.7192L16.4653 11.1907C15.5292 12.0569 14.3211 12.3147 12.7108 12.3445L11.9746 12.3581V13.0944C11.9746 15.7459 12.5827 17.5665 13.5034 18.9131C14.4084 20.237 15.5771 21.0388 16.538 21.698L16.9745 21.9975L17.4112 21.6979C18.372 21.0387 19.5407 20.2369 20.4458 18.9132C21.3665 17.5665 21.9746 15.7459 21.9746 13.0944V12.3581L21.2385 12.3445C19.6281 12.3147 18.4201 12.0569 17.4841 11.1907L16.9747 10.7192ZM13.4917 13.8124C14.736 13.726 15.9333 13.4534 16.9747 12.7074C18.016 13.4534 19.2132 13.726 20.4575 13.8124C20.3597 15.8101 19.8528 17.1227 19.2075 18.0666C18.5827 18.9805 17.7982 19.5981 16.9745 20.176C16.1509 19.5981 15.3664 18.9805 14.7416 18.0666C14.0964 17.1227 13.5895 15.8101 13.4917 13.8124Z" fill="black"/>
</svg>
