<svg width="24" height="24" viewBox="0 0 24 24" fill="none" xmlns="http://www.w3.org/2000/svg">
<path d="M2.625 4.875C2.625 3.63236 3.63236 2.625 4.875 2.625H19.125C20.3676 2.625 21.375 3.63236 21.375 4.875V19.125C21.375 20.3676 20.3676 21.375 19.125 21.375H18.2596L18.2589 5.74294L2.625 5.74316V4.875Z" fill="black"/>
<path d="M2.625 7.24609H4.69051V8.74609H4.125V9.3116H2.625V7.24609Z" fill="black"/>
<path d="M6.26912 7.24609H8.90015V8.74609H6.26912V7.24609Z" fill="black"/>
<path d="M10.4788 7.24609H13.1098V8.74609H10.4788V7.24609Z" fill="black"/>
<path d="M14.6884 7.24609H16.7539V9.3116H15.2539V8.74609H14.6884V7.24609Z" fill="black"/>
<path d="M16.7539 10.8902V13.5212H15.2539V10.8902H16.7539Z" fill="black"/>
<path d="M2.625 13.5212V10.8902H4.125V13.5212H2.625Z" fill="black"/>
<path d="M2.625 17.7309V15.0999H4.125V17.7309H2.625Z" fill="black"/>
<path d="M16.7539 15.0999V17.7309H15.2539V15.0999H16.7539Z" fill="black"/>
<path d="M2.625 19.3095H4.125V19.875H4.69051V21.375H2.625V19.3095Z" fill="black"/>
<path d="M16.7539 19.3095V21.375H14.6884V19.875H15.2539V19.3095H16.7539Z" fill="black"/>
<path d="M8.90015 21.375H6.26912V19.875H8.90015V21.375Z" fill="black"/>
<path d="M13.1098 21.375H10.4788V19.875H13.1098V21.375Z" fill="black"/>
</svg>
