<svg width="24" height="24" viewBox="0 0 24 24" fill="none" xmlns="http://www.w3.org/2000/svg">
<path d="M14.5816 2.00244H9.41793L8.98966 5.15129C8.48628 5.37273 8.01217 5.64792 7.57454 5.96946L4.63261 4.76559L2.05078 9.23745L4.56396 11.183C4.53475 11.4516 4.51978 11.7242 4.51978 12C4.51978 12.2762 4.53478 12.5491 4.56405 12.8179L2.05127 14.7631L4.6331 19.235L7.5752 18.0311C8.01263 18.3524 8.48652 18.6274 8.98963 18.8488L9.41793 21.9978H14.5816L15.01 18.8478C15.3176 18.7123 15.6142 18.5568 15.8982 18.383L14.6724 17.6546C13.0025 18.3521 11.033 18.2807 9.35291 17.2824C7.95985 16.4546 7.02832 15.1421 6.64704 13.6932C6.36942 12.638 6.38108 11.503 6.71946 10.4192C6.7274 10.3937 6.73584 10.3685 6.74479 10.3434C7.07268 9.42401 7.4112 8.8641 8.05586 8.1286C8.07759 8.10382 8.09992 8.07957 8.12284 8.05589C9.99056 6.12634 13.001 5.65227 15.4125 7.08515C17.0933 8.08398 18.0978 9.78076 18.2828 11.5819L19.4721 12.2886C19.4758 12.1928 19.4776 12.0966 19.4776 12C19.4776 11.7249 19.4627 11.4529 19.4336 11.185L21.9496 9.23733L19.3678 4.76547L16.4238 5.97016C15.9866 5.64881 15.5129 5.37373 15.01 5.15229L14.5816 2.00244Z" fill="black"/>
<path d="M9.55977 9.44689C10.7976 8.16804 12.7938 7.85567 14.3906 8.80448C15.7904 9.63632 16.4849 11.2002 16.2779 12.7171L21.3761 15.7465C21.6145 15.8881 21.693 16.1962 21.5513 16.4346L20.4987 18.2061C20.357 18.4445 20.0489 18.5229 19.8105 18.3813L14.7115 15.3514C13.4783 16.2572 11.7736 16.3944 10.3744 15.563C9.4508 15.0142 8.8343 14.1465 8.58109 13.1843C8.39654 12.4829 8.40498 11.731 8.62845 11.0152L11.5803 12.7692L12.5121 11.2011L9.55977 9.44689Z" fill="black"/>
</svg>
