<svg width="24" height="24" viewBox="0 0 24 24" fill="none" xmlns="http://www.w3.org/2000/svg">
<path d="M9.41793 2.00244H14.5816L15.01 5.15229C15.5129 5.37373 15.9866 5.64881 16.4238 5.97016L19.3678 4.76547L21.9496 9.23733L19.4336 11.185C19.4627 11.4529 19.4776 11.7249 19.4776 12C19.4776 12.2755 19.4627 12.5477 19.4336 12.8159L21.9491 14.7633L19.3673 19.2351L16.4231 18.0304C15.9861 18.3515 15.5127 18.6264 15.01 18.8478L14.5816 21.9978H9.41793L8.98963 18.8488C8.48652 18.6274 8.01263 18.3524 7.5752 18.0311L4.6331 19.235L2.05127 14.7631L4.56405 12.8179C4.53478 12.5491 4.51978 12.2762 4.51978 12C4.51978 11.7242 4.53475 11.4516 4.56396 11.183L2.05078 9.23745L4.63261 4.76559L7.57454 5.96946C8.01217 5.64792 8.48628 5.37273 8.98966 5.15129L9.41793 2.00244ZM8.63086 12.0005C8.63086 13.8604 10.1387 15.3682 11.999 15.3682C13.8594 15.3682 15.3672 13.8604 15.3672 12.0005C15.3672 10.1401 13.8594 8.63232 11.999 8.63232C10.1387 8.63232 8.63086 10.1401 8.63086 12.0005Z" fill="black"/>
</svg>
