<svg width="24" height="24" viewBox="0 0 24 24" fill="none" xmlns="http://www.w3.org/2000/svg">
<path d="M12 9.93359C10.8584 9.93359 9.93359 10.8589 9.93359 12C9.93359 13.1411 10.8584 14.0659 12 14.0659C13.1416 14.0659 14.0664 13.1411 14.0664 12C14.0664 10.8589 13.1416 9.93359 12 9.93359Z" fill="black"/>
<path d="M3.125 5.375C3.125 4.13232 4.13281 3.125 5.375 3.125H18.625C19.8672 3.125 20.875 4.13232 20.875 5.375V18.625C20.875 19.8677 19.8672 20.875 18.625 20.875H5.375C4.13281 20.875 3.125 19.8677 3.125 18.625V5.375ZM13.3457 6.78809H10.6543L10.4307 8.42969C10.168 8.54492 9.9209 8.68848 9.69336 8.85596L8.15918 8.22852L6.81348 10.5596L8.12402 11.5742C8.1084 11.7139 8.10059 11.856 8.10059 12C8.10059 12.0879 8.10352 12.1753 8.10938 12.2617L8.12402 12.4263L6.81348 13.4404L8.15918 15.7715L9.69336 15.144C9.92188 15.3115 10.1689 15.4546 10.4307 15.5703L10.6543 17.2119H13.3457L13.5693 15.5698C13.8311 15.4541 14.0781 15.311 14.3057 15.1436L15.8408 15.7715L17.1865 13.4404L15.875 12.4253C15.8906 12.2856 15.8984 12.1436 15.8984 12C15.8984 11.8564 15.8906 11.7148 15.875 11.5752L17.1865 10.5596L15.8408 8.22852L14.3066 8.85645C14.0781 8.68896 13.8311 8.54541 13.5693 8.43018L13.3457 6.78809Z" fill="black"/>
</svg>
