<svg width="24" height="24" viewBox="0 0 24 24" fill="none" xmlns="http://www.w3.org/2000/svg">
<path d="M13.0352 16.4619C12.7031 16.5391 12.3555 16.5798 12 16.5798C10.7617 16.5798 9.63672 16.0862 8.8125 15.2854C9.69922 14.3306 11.082 13.2319 12.873 13.0107C13.0801 14.1616 13.1348 15.3132 13.0352 16.4619Z" fill="black"/>
<path d="M13.9395 16.1484C15.002 15.6494 15.8438 14.7534 16.2715 13.6523C15.373 13.2131 14.5332 13.01 13.7598 12.9758C13.9395 14.0322 14 15.0908 13.9395 16.1484Z" fill="black"/>
<path d="M13.582 12.0981C14.5469 12.1072 15.5332 12.3364 16.5117 12.7913C16.5293 12.6851 16.5449 12.5776 16.5566 12.4692C16.5723 12.3149 16.5801 12.1582 16.5801 11.9998C16.5801 11.0352 16.2812 10.1394 15.7695 9.40063C15.0625 10.1174 14.2285 10.6492 13.2793 10.9929C13.3945 11.3608 13.4961 11.7295 13.582 12.0981Z" fill="black"/>
<path d="M12.4355 11.2422C11.8047 11.3889 11.1289 11.4624 10.4141 11.4624C9.9668 11.4624 9.50391 11.4336 9.02539 11.3757C8.53516 11.3164 8.0293 11.2268 7.50781 11.106C7.48633 11.2175 7.46875 11.3306 7.45508 11.4448C7.43164 11.6267 7.41992 11.812 7.41992 11.9998C7.41992 12.9688 7.72266 13.8684 8.23828 14.6091C9.57617 13.1929 11.0957 12.366 12.6895 12.1531C12.6152 11.8491 12.5312 11.5457 12.4355 11.2422Z" fill="black"/>
<path d="M12.1426 10.3997C10.875 10.6772 9.4043 10.6328 7.76367 10.26C8.29492 8.96753 9.4043 7.97046 10.7656 7.58887C11.3262 8.52148 11.7852 9.45923 12.1426 10.3997Z" fill="black"/>
<path d="M12.9902 10.155C13.8398 9.8457 14.5801 9.36816 15.1992 8.72437C14.373 7.91748 13.2441 7.41992 12 7.41992C11.8965 7.41992 11.793 7.42334 11.6914 7.43018C12.2148 8.33374 12.6484 9.24268 12.9902 10.155Z" fill="black"/>
<path d="M2 12C2 6.47705 6.47656 2 12 2C17.5234 2 22 6.47705 22 12C22 17.5229 17.5234 22 12 22C6.47656 22 2 17.5229 2 12ZM12 17.4607C12.5371 17.4607 13.0547 17.3828 13.5449 17.238C13.5586 17.2341 13.5703 17.2302 13.584 17.2263C15.3164 16.7002 16.6875 15.3347 17.2207 13.6057L17.2422 13.5332C17.3105 13.2969 17.3652 13.054 17.4023 12.8054C17.4414 12.5425 17.4609 12.2734 17.4609 11.9998C17.4609 11.6528 17.4297 11.3135 17.3672 10.9844C17.2773 10.5137 17.1289 10.0642 16.9258 9.64429C16.7227 9.22046 16.4648 8.8269 16.1641 8.47192L16.082 8.37988C15.8887 8.16235 15.6797 7.96045 15.4551 7.77588C15.0742 7.46362 14.6504 7.20166 14.1934 7.00024C13.5215 6.70386 12.7793 6.53906 12 6.53906C9.53125 6.53906 7.4375 8.18774 6.76562 10.4421L6.75977 10.4619C6.61523 10.9509 6.53906 11.4646 6.53906 11.9998C6.53906 13.355 7.03711 14.5969 7.85742 15.5527L7.91602 15.6206C8.91797 16.7485 10.377 17.4607 12 17.4607Z" fill="black"/>
</svg>
