<svg width="24" height="24" viewBox="0 0 24 24" fill="none" xmlns="http://www.w3.org/2000/svg">
<path d="M10.8613 13.7146L13.8223 12L10.8613 10.2854V13.7146Z" fill="black"/>
<path d="M12 2C6.47656 2 2 6.47705 2 12C2 17.5229 6.47656 22 12 22C17.5234 22 22 17.5229 22 12C22 6.47705 17.5234 2 12 2ZM17.4629 9.24902C17.5742 9.66724 17.6348 10.2991 17.666 10.8518C17.7012 11.4766 17.7012 12 17.7012 12C17.7012 12 17.7012 13.8601 17.4629 14.751C17.3301 15.2437 16.9453 15.6309 16.4551 15.7617C15.5664 16 12 16 12 16C12 16 8.4375 16 7.54688 15.7617C7.05469 15.6292 6.66797 15.2417 6.53906 14.751C6.45312 14.4304 6.39844 13.9846 6.36328 13.5449C6.30078 12.7625 6.30078 12 6.30078 12C6.30078 12 6.30078 10.1399 6.53906 9.24902C6.61523 8.96338 6.77734 8.71313 6.99609 8.52759C7.1543 8.39331 7.3418 8.29321 7.54688 8.23828C7.91016 8.14111 8.7168 8.0835 9.54492 8.04956C10.75 8 12 8 12 8C12 8 15.5664 8 16.4551 8.23828C16.9473 8.37085 17.332 8.7583 17.4629 9.24902Z" fill="black"/>
</svg>
