<svg width="24" height="24" viewBox="0 0 24 24" fill="none" xmlns="http://www.w3.org/2000/svg">
<path d="M10.3359 12C10.3359 11.0789 11.082 10.3318 12.0039 10.3318C12.9238 10.3318 13.6699 11.0789 13.6699 12C13.6699 12.9214 12.9238 13.6682 12.0039 13.6682C11.082 13.6682 10.3359 12.9214 10.3359 12Z" fill="black"/>
<path d="M9.98242 16.0735C9.49414 16.0513 9.22852 15.97 9.05273 15.9014C8.81836 15.8105 8.65234 15.7021 8.47656 15.5271C8.30273 15.3521 8.19336 15.1855 8.10352 14.9519C8.03516 14.7756 7.95312 14.5105 7.93164 14.0225L7.91406 13.5469C7.9043 13.2471 7.90234 12.8774 7.90234 12C7.90234 10.6636 7.90625 10.5056 7.93164 9.97778C7.95312 9.48975 8.03516 9.2251 8.10352 9.04834C8.14062 8.95215 8.18164 8.86743 8.22852 8.78882C8.29492 8.67603 8.375 8.57593 8.47656 8.47266C8.65234 8.29736 8.81836 8.18896 9.05273 8.09839C9.22852 8.02979 9.49414 7.94849 9.98242 7.92627C10.5098 7.90186 10.668 7.89722 12.0039 7.89722C12.8145 7.89722 13.1895 7.89917 13.4785 7.90601C13.5723 7.9082 13.6562 7.91089 13.7441 7.91431C13.832 7.91772 13.9219 7.92163 14.0254 7.92627C14.5117 7.94849 14.7773 8.03027 14.9531 8.09839C14.9863 8.11108 15.0176 8.12402 15.0488 8.1377C15.127 8.17236 15.1953 8.21021 15.2617 8.25366C15.3242 8.29321 15.3828 8.3374 15.4395 8.38794C15.4688 8.41431 15.5 8.44263 15.5293 8.47266C15.7051 8.64771 15.8125 8.8147 15.9043 9.04834C15.9727 9.22461 16.0527 9.48975 16.0762 9.97778C16.082 10.0889 16.084 10.1836 16.0879 10.2764C16.0879 10.3582 16.0957 10.4385 16.0957 10.5271C16.0957 10.6353 16.1016 10.7559 16.1016 10.907C16.1016 11.1589 16.1055 11.4956 16.1055 12C16.1055 12.5288 16.1055 12.8733 16.1016 13.1292C16.0977 13.5195 16.0898 13.7036 16.0762 14.0225C16.0664 14.2146 16.0488 14.3721 16.0273 14.5032C15.9922 14.7053 15.9453 14.845 15.9043 14.9519C15.8574 15.0703 15.8066 15.1716 15.7461 15.2654C15.7168 15.3083 15.6875 15.3494 15.6543 15.3901C15.6465 15.3994 15.6387 15.4089 15.6309 15.4182C15.6016 15.4519 15.5625 15.4932 15.5293 15.5271C15.3535 15.7019 15.1875 15.8105 14.9531 15.9014C14.7773 15.9702 14.5117 16.0513 14.0254 16.0735C13.498 16.0979 13.3398 16.1025 12.0039 16.1025C10.666 16.1025 10.5098 16.0979 9.98242 16.0735ZM9.43359 12C9.43359 13.4192 10.584 14.5698 12.0039 14.5698C13.4219 14.5698 14.5723 13.4192 14.5723 12C14.5723 11.3848 14.3555 10.8201 13.9961 10.3777C13.5254 9.79956 12.8066 9.43042 12.0039 9.43042C10.584 9.43042 9.43359 10.5808 9.43359 12ZM14.0742 9.32837C14.0742 9.37036 14.0781 9.41211 14.0859 9.45288C14.0918 9.48438 14.1016 9.51514 14.1133 9.54517C14.1133 9.55029 14.1191 9.55518 14.1191 9.5603C14.1348 9.5957 14.1523 9.62988 14.1738 9.66211C14.2402 9.76099 14.334 9.83789 14.4434 9.8833C14.5527 9.92896 14.6738 9.94092 14.791 9.91772C14.9062 9.89453 15.0137 9.8374 15.0977 9.75342C15.1816 9.66943 15.2383 9.5625 15.2617 9.44604C15.2852 9.32959 15.2734 9.20874 15.2285 9.09912C15.1973 9.02368 15.1504 8.95337 15.0918 8.89697C15.0664 8.87207 15.0371 8.84961 15.0078 8.82959C14.9648 8.80029 14.916 8.77734 14.8672 8.7605C14.8594 8.75781 14.8516 8.75513 14.8438 8.75269C14.8359 8.75024 14.8262 8.7478 14.8184 8.74585C14.7832 8.73706 14.748 8.73145 14.7109 8.72925C14.6992 8.72852 14.6855 8.72803 14.6738 8.72803C14.5137 8.72827 14.3613 8.7915 14.25 8.90405C14.1367 9.0166 14.0742 9.16919 14.0742 9.32837Z" fill="black"/>
<path d="M2 12C2 6.47705 6.47656 2 12 2C17.5234 2 22 6.47705 22 12C22 17.5229 17.5234 22 12 22C6.47656 22 2 17.5229 2 12ZM9.93945 7.02588C9.4082 7.05029 9.04297 7.13477 8.72656 7.2583C8.59375 7.31006 8.46875 7.3689 8.34961 7.43896C8.17188 7.54224 8.00586 7.66992 7.83984 7.83569C7.75195 7.92358 7.67383 8.01147 7.60547 8.10107C7.50391 8.23462 7.41992 8.37158 7.34961 8.51758C7.34961 8.52344 7.3418 8.52954 7.3418 8.53564C7.3125 8.59595 7.28711 8.65845 7.26172 8.72217C7.19531 8.89404 7.14062 9.07959 7.09961 9.29785C7.09961 9.30664 7.0957 9.31519 7.0957 9.32397C7.06445 9.50269 7.04297 9.70361 7.03125 9.93677C7.00586 10.4705 7 10.6411 7 12C7 13.3591 7.00586 13.5298 7.03125 14.0632C7.04297 14.3403 7.07227 14.5718 7.11328 14.7749C7.15234 14.9624 7.20312 15.1255 7.26172 15.2781C7.39062 15.6069 7.56055 15.8865 7.83984 16.1646C7.97656 16.3008 8.11328 16.4114 8.25586 16.5039C8.4043 16.6001 8.55859 16.6765 8.72656 16.7417C9.04492 16.8655 9.4082 16.95 9.93945 16.9741C10.2422 16.988 10.4277 16.9958 10.7793 17.0002H10.8027C11.0703 17.0032 11.4316 17.0044 12.0039 17.0044C12.6113 17.0044 12.9824 17.0034 13.2539 17C13.5879 16.9956 13.7715 16.9878 14.0664 16.9741C14.5977 16.95 14.9629 16.8655 15.2793 16.7417C15.4453 16.6775 15.5977 16.6025 15.7441 16.5088C15.8887 16.4153 16.0273 16.3032 16.166 16.1646C16.4453 15.8865 16.6152 15.6069 16.7441 15.2781C16.8672 14.96 16.9512 14.5959 16.9766 14.0632C17 13.5293 17.0059 13.3591 17.0059 12C17.0059 10.6411 17 10.4705 16.9766 9.93677C16.9512 9.40405 16.8672 9.04004 16.7441 8.72217C16.6152 8.39307 16.4434 8.11401 16.166 7.83569C15.8887 7.55713 15.6094 7.38623 15.2812 7.2583C15.1172 7.19458 14.9395 7.14111 14.7344 7.10107C14.543 7.06348 14.3242 7.03735 14.0664 7.02588C13.7051 7.00952 13.5098 7.00146 13 6.99805L12.0039 6.99561C10.6445 6.99561 10.4746 7.00122 9.93945 7.02588Z" fill="black"/>
</svg>
