<svg width="24" height="24" viewBox="0 0 24 24" fill="none" xmlns="http://www.w3.org/2000/svg">
<path d="M12 2C6.47656 2 2 6.47705 2 12C2 17.5229 6.47656 22 12 22C17.5234 22 22 17.5229 22 12C22 6.47705 17.5234 2 12 2ZM10.1582 7.48267C10.584 7.25488 11.0469 7.10767 11.5098 7.05469C13.5625 6.82007 15.4883 7.82666 15.7539 9.80469C16.0547 12.0356 14.8281 14.4541 12.6348 14.2803C12.0391 14.2334 11.7891 13.9314 11.3242 13.6411C11.0664 15.019 10.7539 16.3403 9.82617 17.03C9.73828 16.3899 9.74414 15.7986 9.80273 15.2385C9.9375 13.9766 10.3477 12.8726 10.5742 11.7229C10.0156 10.7573 10.6426 8.81372 11.8223 9.29248C12.5176 9.57471 12.2578 10.4102 11.998 11.2454C11.7168 12.1538 11.4355 13.062 12.3848 13.2571C14.2852 13.6489 15.0605 9.87891 13.8828 8.65332C12.1797 6.88379 8.92578 8.6123 9.32617 11.1472C9.35938 11.3599 9.45508 11.5217 9.54688 11.6772C9.72461 11.9744 9.88672 12.2485 9.57617 12.8096C8.48633 12.5623 8.16016 11.6819 8.20312 10.5083C8.25 9.13379 9.08984 8.05444 10.1582 7.48267Z" fill="black"/>
</svg>
