<svg width="24" height="24" viewBox="0 0 24 24" fill="none" xmlns="http://www.w3.org/2000/svg">
<path d="M12 2C6.47656 2 2 6.47705 2 12C2 17.5229 6.47656 22 12 22C17.5234 22 22 17.5229 22 12C22 6.47705 17.5234 2 12 2ZM9.76562 10.6108V16.0134H7.9707V10.6108H9.76562ZM9.88281 8.94019C9.88281 9.4585 9.49414 9.87354 8.86914 9.87354C8.25391 9.87329 7.86523 9.4585 7.86523 8.94019C7.86523 8.40991 8.26562 8.00659 8.88086 8.00659C9.49414 8.00659 9.87109 8.40991 9.88281 8.94019ZM12.5527 16.0134H10.7578C10.7578 16.0134 10.7812 11.1179 10.7578 10.6111H12.5527V11.3943C12.7773 11.0256 13.2012 10.4844 14.1699 10.4844C15.3496 10.4844 16.2344 11.2566 16.2344 12.9158V16.0134H14.4414V13.1235C14.4414 12.3972 14.1816 11.9019 13.5312 11.9019C13.0371 11.9019 12.7402 12.2358 12.6113 12.5586C12.5645 12.6738 12.5527 12.8354 12.5527 12.9968V16.0134Z" fill="black"/>
</svg>
