<svg width="24" height="24" viewBox="0 0 24 24" fill="none" xmlns="http://www.w3.org/2000/svg">
<path d="M19 9.19426L14.1942 14L6.75 14V15.5L12.6942 15.5L9.94348 18.2506L9.94336 21.9999L5.25 22C4.00736 22 3 20.9926 3 19.75V4.25C3 3.00736 4.00736 2 5.25 2H16.75C17.9926 2 19 3.00736 19 4.25V9.19426ZM11.0007 6.00293L6.85547 8.15777V9.41694H15.1459V8.15777L11.0007 6.00293ZM7.71094 13.0253H9.21094V10.3911H7.71094V13.0253ZM10.252 13.0253H11.752V10.3911H10.252V13.0253ZM12.7832 13.0253H14.2832V10.3911H12.7832V13.0253Z" fill="black"/>
<path d="M18.8706 13.2372C18.5777 12.9444 18.1029 12.9444 17.81 13.2372L16.5772 14.47L19.5481 17.4437L20.7823 16.2096C20.9229 16.0689 21.002 15.8781 21.002 15.6792C21.002 15.4803 20.9229 15.2896 20.7823 15.1489L18.8706 13.2372Z" fill="black"/>
<path d="M18.4873 18.5045L15.5165 15.5307L11.9668 19.0804V22H14.9917L18.4873 18.5045Z" fill="black"/>
</svg>
