<svg width="24" height="24" viewBox="0 0 24 24" fill="none" xmlns="http://www.w3.org/2000/svg">
<path d="M4.25 4.5752C3.00736 4.5752 2 5.58255 2 6.82519V17.1752C2 18.4178 3.00736 19.4252 4.25 19.4252H19.75C20.9926 19.4252 22 18.4178 22 17.1752V6.8252C22 5.58255 20.9926 4.5752 19.75 4.5752H4.25ZM14.6094 10.665V9.16504H18.9096V10.665H14.6094ZM18.9096 13.5303H14.6094V12.0303H18.9096V13.5303ZM12.8316 9.44845V10.7054H4.81854V9.44845L8.82505 7.36572L12.8316 9.44845ZM5.63903 14.1359V11.6093H7.13903V14.1359H5.63903ZM8.07725 11.6093H9.57725V14.1359H8.07725V11.6093ZM10.5049 14.1359V11.6093H12.0049V14.1359H10.5049ZM4.74805 16.54L4.74805 15.04H12.9004V16.54H4.74805Z" fill="black"/>
</svg>
