<svg width="24" height="24" viewBox="0 0 24 24" fill="none" xmlns="http://www.w3.org/2000/svg">
<path d="M2.08398 18.5966H7.51658L17.8613 8.28009V4.99658C17.8613 3.75394 16.854 2.74658 15.6113 2.74658H2.08398V6.23786L7.86862 9.85236L16.6611 4.3584V6.12305L16.2576 6.37931L7.86862 11.6211L2.08398 8.00661V18.5966Z" fill="black"/>
<path d="M20.5331 10.0111C19.8978 9.37583 18.8678 9.37583 18.2325 10.0111L16.9274 11.3163L20.1352 14.5241L21.4404 13.219C22.0757 12.5837 22.0757 11.5537 21.4404 10.9184L20.5331 10.0111Z" fill="black"/>
<path d="M19.8355 14.838L16.6228 11.6252L10.2143 18.0412V21.2533L13.4269 21.2533L19.8355 14.838Z" fill="black"/>
</svg>
