<svg width="24" height="24" viewBox="0 0 24 24" fill="none" xmlns="http://www.w3.org/2000/svg">
<path d="M20.249 2.01904C21.2158 2.01904 21.999 2.80249 21.999 3.76904V10.9985C21.999 11.5955 21.7627 12.1677 21.3408 12.5896L12.4209 21.5088C11.7373 22.1921 10.6299 22.1921 9.94629 21.5088L2.50879 14.072C1.8252 13.3887 1.8252 12.2805 2.50879 11.5972L11.4287 2.67798C11.8506 2.2561 12.4229 2.01904 13.0186 2.01904H20.249ZM17.6162 7.68649C18.3374 7.68649 18.9229 7.1013 18.9229 6.37962C18.9229 5.65794 18.3374 5.07275 17.6162 5.07275C16.895 5.07275 16.3096 5.65794 16.3096 6.37962C16.3096 7.1013 16.895 7.68649 17.6162 7.68649ZM9.71007 8.198L8.64941 9.25866L9.34273 9.95198C9.20276 10.2258 9.1127 10.5379 9.09038 10.8846L9.08825 10.9176L9.08904 10.9507C9.11776 12.1533 10.1779 13.1298 11.4761 12.7714C11.941 12.643 12.3292 12.4442 12.6218 12.2945C12.6588 12.2755 12.6943 12.2573 12.7282 12.2402C13.058 12.0735 13.2346 12.0065 13.4024 11.9988C13.6414 11.9877 13.7916 12.0649 13.8724 12.145C13.9491 12.2209 14.0139 12.3479 13.9948 12.5538C13.9807 12.7056 13.867 12.9232 13.6271 13.1401C13.5157 13.2408 13.3972 13.3221 13.2927 13.3778C13.1948 13.43 13.1381 13.4445 13.1279 13.4471L13.1267 13.4475C12.9461 13.4686 12.8003 13.4629 12.7057 13.4535C12.6585 13.4488 12.6248 13.4432 12.6067 13.4398L12.5944 13.4374L11.8775 13.2484L11.4951 14.6989L12.2219 14.8905L12.2237 14.8909C12.2591 14.9 12.2951 14.9076 12.3311 14.9143C12.3878 14.9249 12.464 14.9368 12.5569 14.9461C12.7424 14.9646 12.9976 14.9727 13.3004 14.9375C13.549 14.9085 13.8114 14.808 14.0589 14.6682L14.7971 15.4063L15.8577 14.3456L15.1531 13.641C15.3251 13.3684 15.4552 13.0495 15.4883 12.6926C15.546 12.0725 15.3461 11.4932 14.9278 11.0791C14.5137 10.669 13.9387 10.4724 13.3333 10.5003C12.8115 10.5244 12.3775 10.7367 12.0516 10.9014L11.9382 10.959C11.637 11.1123 11.3856 11.2402 11.0769 11.3255C10.9183 11.3693 10.813 11.3308 10.744 11.2755C10.6723 11.2181 10.6019 11.11 10.5901 10.9469C10.6429 10.4397 11.1326 10.0812 11.6271 10.1179L12.375 10.1735L12.4862 8.67764L11.7382 8.62206C11.2953 8.58914 10.8283 8.68674 10.4117 8.89965L9.71007 8.198Z" fill="black"/>
</svg>
