<svg width="24" height="24" viewBox="0 0 24 24" fill="none" xmlns="http://www.w3.org/2000/svg">
<path d="M22.001 3.76904C22.001 2.80249 21.2178 2.01904 20.251 2.01904H13.0205C12.4248 2.01904 11.8525 2.2561 11.4307 2.67798L2.51074 11.5972C1.82715 12.2805 1.82715 13.3887 2.51074 14.072L9.94824 21.5088C10.6318 22.1921 11.7393 22.1921 12.4229 21.5088L21.3428 12.5896C21.7646 12.1677 22.001 11.5955 22.001 10.9985V3.76904ZM16.3115 6.37962C16.3115 5.65794 16.8969 5.07275 17.6182 5.07275C18.3394 5.07275 18.9248 5.65794 18.9248 6.37962C18.9248 7.1013 18.3394 7.68649 17.6182 7.68649C16.8969 7.68649 16.3115 7.1013 16.3115 6.37962Z" fill="black"/>
</svg>
