<svg width="24" height="24" viewBox="0 0 24 24" fill="none" xmlns="http://www.w3.org/2000/svg">
<path d="M21.7495 2.01904C22.7163 2.01904 23.4995 2.80249 23.4995 3.76904V10.9985C23.4995 11.5955 23.2631 12.1677 22.8413 12.5896L13.9213 21.5088C13.2378 22.1921 12.1303 22.1921 11.4467 21.5088L4.00924 14.072C3.32564 13.3887 3.32564 12.2805 4.00924 11.5972L12.9292 2.67798C13.351 2.2561 13.9233 2.01904 14.519 2.01904H21.7495ZM19.1167 7.68649C19.8379 7.68649 20.4233 7.1013 20.4233 6.37962C20.4233 5.65794 19.8379 5.07275 19.1167 5.07275C18.3954 5.07275 17.81 5.65794 17.81 6.37962C17.81 7.1013 18.3954 7.68649 19.1167 7.68649Z" fill="black"/>
<path d="M8.4502 21.5088C9.07188 22.1302 10.0441 22.1865 10.7293 21.6776L9.08601 20.0233L2.07324 13.0115C2.02832 12.9668 2.00488 12.9097 2.00098 12.8513C1.99512 12.7817 2.02051 12.7107 2.07324 12.6577L12.7202 2.01904H11.5225C10.9268 2.01904 10.3545 2.2561 9.93262 2.67798L1.0127 11.5972C0.329102 12.2805 0.329102 13.3887 1.0127 14.072L8.4502 21.5088Z" fill="black"/>
</svg>
