<svg width="24" height="24" viewBox="0 0 24 24" fill="none" xmlns="http://www.w3.org/2000/svg">
<path d="M2 4.25C2 3.00736 3.00736 2 4.25 2H14.5743C15.817 2 16.8243 3.00736 16.8243 4.25V8.50645C16.7167 8.50216 16.6086 8.5 16.5 8.5C15.2069 8.5 13.9855 8.80679 12.9045 9.35156H5.50586V10.8516H10.8347C10.2063 11.4818 9.68244 12.2163 9.29121 13.0269H5.50586V14.5269H8.74517C8.58507 15.158 8.5 15.8191 8.5 16.5C8.5 17.9571 8.88958 19.3233 9.57026 20.5H4.25C3.00736 20.5 2 19.4926 2 18.25V4.25ZM5.50586 7.17578H13.3167V5.67578H5.50586V7.17578Z" fill="black"/>
<path d="M16.5 23C20.0899 23 23 20.0899 23 16.5C23 12.9101 20.0899 10 16.5 10C12.9101 10 10 12.9101 10 16.5C10 20.0899 12.9101 23 16.5 23ZM18.5473 13.3896L19.6081 14.4502L14.4495 19.6102L13.3887 18.5497L18.5473 13.3896ZM19.499 18.4187C19.499 19.0188 19.0126 19.5053 18.4125 19.5053C17.8124 19.5053 17.3259 19.0188 17.3259 18.4187C17.3259 17.8187 17.8124 17.3322 18.4125 17.3322C19.0126 17.3322 19.499 17.8187 19.499 18.4187ZM14.5856 15.6675C13.9855 15.6675 13.499 15.1811 13.499 14.581C13.499 13.9809 13.9855 13.4944 14.5856 13.4944C15.1856 13.4944 15.6721 13.9809 15.6721 14.581C15.6721 15.1811 15.1856 15.6675 14.5856 15.6675Z" fill="black"/>
</svg>
