<svg width="24" height="24" viewBox="0 0 24 24" fill="none" xmlns="http://www.w3.org/2000/svg">
<path d="M1.72266 4.44757C1.72266 2.9421 2.94308 1.72168 4.44855 1.72168C5.95402 1.72168 7.17444 2.9421 7.17444 4.44757C7.17444 5.67054 6.36907 6.7054 5.25977 7.05072L5.25977 11.25H11.25V7.06918C10.1089 6.74363 9.27344 5.69317 9.27344 4.44757C9.27344 2.9421 10.4939 1.72168 11.9993 1.72168C13.5048 1.72168 14.7252 2.9421 14.7252 4.44757C14.7252 5.69268 13.8904 6.74281 12.75 7.06879V11.25H18.5508C18.6889 11.25 18.8008 11.1381 18.8008 11V7.06918C17.6597 6.74363 16.8242 5.69317 16.8242 4.44757C16.8242 2.9421 18.0446 1.72168 19.5501 1.72168C21.0556 1.72168 22.276 2.9421 22.276 4.44757C22.276 5.69268 21.4412 6.74281 20.3008 7.06879V11C20.3008 11.9665 19.5173 12.75 18.5508 12.75H12.75V16.9312C13.8904 17.2572 14.7252 18.3073 14.7252 19.5524C14.7252 21.0579 13.5048 22.2783 11.9993 22.2783C10.4939 22.2783 9.27344 21.0579 9.27344 19.5524C9.27344 18.3068 10.1089 17.2564 11.25 16.9308V12.75H5.25977L5.25977 16.9493C6.36907 17.2946 7.17444 18.3295 7.17444 19.5524C7.17444 21.0579 5.95402 22.2783 4.44855 22.2783C2.94308 22.2783 1.72266 21.0579 1.72266 19.5524C1.72266 18.2849 2.58778 17.2194 3.75977 16.9143L3.75977 7.08569C2.58778 6.78055 1.72266 5.71509 1.72266 4.44757Z" fill="black"/>
</svg>
