<svg width="24" height="24" viewBox="0 0 24 24" fill="none" xmlns="http://www.w3.org/2000/svg">
<path d="M2.02344 22V6.48599H6.50945V2H17.4907V11.0187H21.9767V22H13.4253V17.514H10.5281V22H2.02344ZM4.03279 19.9907H6.50947V17.514H4.03276L4.03279 19.9907ZM4.03279 15.5047H6.50947V13.028H4.03276L4.03279 15.5047ZM4.03279 10.972H6.50947V8.49531H4.03276L4.03279 10.972ZM8.51877 15.5047H10.9955V13.028H8.51875L8.51877 15.5047ZM8.51877 10.972H10.9955V8.49531H8.51875L8.51877 10.972ZM8.51877 6.48599H10.9955V4.00932H8.51875L8.51877 6.48599ZM13.0048 15.5047H15.4814V13.028H13.0047L13.0048 15.5047ZM13.0048 10.972H15.4814V8.49531H13.0047L13.0048 10.972ZM13.0048 6.48599H15.4814V4.00932H13.0047L13.0048 6.48599ZM17.4907 19.9907H19.9674V17.514H17.4907L17.4907 19.9907ZM17.4907 15.5047H19.9674V13.028H17.4907L17.4907 15.5047Z" fill="black"/>
</svg>
