<svg width="24" height="24" viewBox="0 0 24 24" fill="none" xmlns="http://www.w3.org/2000/svg">
<path fill-rule="evenodd" clip-rule="evenodd" d="M6.67773 15.8398C9.81346 15.8398 12.3555 13.2978 12.3555 10.1621C12.3555 7.02638 9.81346 4.48438 6.67773 4.48438C3.54201 4.48438 1 7.02638 1 10.1621C1 13.2978 3.54201 15.8398 6.67773 15.8398ZM8.79182 11.5797L9.85248 10.519L6.67819 7.34473L3.50391 10.519L4.56457 11.5797L5.92866 10.2156L5.92866 12.9775H7.42866L7.42866 10.2165L8.79182 11.5797ZM13.8556 10.1621C13.8556 13.7744 11.1871 16.7635 7.71387 17.2656H13.3445C13.6775 18.5595 14.8521 19.5156 16.2499 19.5156C17.6478 19.5156 18.8224 18.5595 19.1554 17.2656H22.2499C22.6642 17.2656 22.9999 16.9298 22.9999 16.5156V13.1552C22.9999 11.8444 22.0747 10.7157 20.7893 10.4586L17.6197 9.82472L14.2196 6.42463C13.7977 6.00268 13.2254 5.76562 12.6286 5.76562H12.352C13.2945 6.98027 13.8556 8.50566 13.8556 10.1621ZM17.7499 16.5156C17.7499 15.6872 17.0784 15.0156 16.2499 15.0156C15.4215 15.0156 14.7499 15.6872 14.7499 16.5156C14.7499 17.3441 15.4215 18.0156 16.2499 18.0156C17.0784 18.0156 17.7499 17.3441 17.7499 16.5156Z" fill="black"/>
</svg>
