<svg width="24" height="24" viewBox="0 0 24 24" fill="none" xmlns="http://www.w3.org/2000/svg">
<path d="M17.2664 5.32751C16.0596 4.37359 14.5892 3.74074 12.9824 3.55598V2.04663L13.1196 2.06193C15.0252 2.27443 16.7691 3.02238 18.1966 4.15076L17.2664 5.32751Z" fill="black"/>
<path d="M10.9414 2.05542L10.9052 2.05937C5.89703 2.60519 2 6.84702 2 12.0001C2 17.1531 5.89703 21.3949 10.9052 21.9407L10.9414 21.9447V20.4349C6.7469 19.9142 3.5 16.3358 3.5 12.0001C3.5 7.6643 6.7469 4.0859 10.9414 3.56526V2.05542Z" fill="black"/>
<path d="M12.9824 21.9531L13.1196 21.9378C15.0252 21.7253 16.7691 20.9774 18.1966 19.849L17.2664 18.6722C16.0596 19.6262 14.5892 20.259 12.9824 20.4438V21.9531Z" fill="black"/>
<path d="M18.6318 6.68264C19.6149 7.9071 20.2652 9.40826 20.4475 11.0506L21.9384 10.8851C21.7237 8.95089 20.9574 7.18318 19.8015 5.74354L18.6318 6.68264Z" fill="black"/>
<path d="M18.6318 17.3171C19.6149 16.0927 20.2652 14.5915 20.4475 12.9492L21.9384 13.1147C21.7237 15.0489 20.9574 16.8166 19.8015 18.2562L18.6318 17.3171Z" fill="black"/>
<path d="M10.0057 16.1453H13.9938V11.7946H16.5757L11.9998 7.21862L7.42383 11.7946H10.0057V16.1453Z" fill="black"/>
</svg>
