<svg width="24" height="24" viewBox="0 0 24 24" fill="none" xmlns="http://www.w3.org/2000/svg">
<path d="M19.1649 20.8325L20.5854 22.253L21.6461 21.1924L2.80188 2.3479L1.74121 3.40855L11.7985 13.466C9.77627 13.491 7.87652 13.894 6.44499 14.5121C5.70776 14.8304 5.06149 15.2201 4.58714 15.6733C4.1188 16.1209 3.74805 16.7016 3.74805 17.3852V20.8325H19.1649Z" fill="black"/>
<path d="M19.409 15.6733C19.7668 16.0153 20.0677 16.435 20.1897 16.919L17.9828 14.7121C18.5405 14.9892 19.0297 15.3109 19.409 15.6733Z" fill="black"/>
<path d="M16.0714 7.33623C16.0714 8.81786 15.281 10.1148 14.0989 10.8281L8.50651 5.23564C9.21938 4.0525 10.5162 3.26123 11.9979 3.26123C14.2476 3.26123 16.0714 5.08567 16.0714 7.33623Z" fill="black"/>
</svg>
