<svg width="24" height="24" viewBox="0 0 24 24" fill="none" xmlns="http://www.w3.org/2000/svg">
<path d="M13.752 2C12.5093 2 11.502 3.00736 11.502 4.25V13.0733L14.0249 10.7238H20.752C21.9946 10.7238 23.002 9.71641 23.002 8.47377V4.25C23.002 3.00736 21.9946 2 20.752 2H13.752ZM15.5254 6.49121C15.5254 6.84229 15.2402 7.12646 14.8887 7.12646C14.5371 7.12646 14.252 6.84229 14.252 6.49121C14.252 6.14062 14.5371 5.85596 14.8887 5.85596C15.2402 5.85596 15.5254 6.14062 15.5254 6.49121ZM17.8887 6.49121C17.8887 6.84229 17.6035 7.12646 17.252 7.12646C17.0566 7.12646 16.8828 7.03906 16.7656 6.90137C16.6719 6.79102 16.6152 6.64795 16.6152 6.49121C16.6152 6.33252 16.6738 6.1875 16.7695 6.07617C16.8867 5.94141 17.0586 5.85596 17.252 5.85596C17.6035 5.85596 17.8887 6.14062 17.8887 6.49121ZM19.6152 7.12646C19.2637 7.12646 18.9785 6.84229 18.9785 6.49121C18.9785 6.14062 19.2637 5.85596 19.6152 5.85596C19.9668 5.85596 20.252 6.14062 20.252 6.49121C20.252 6.84229 19.9668 7.12646 19.6152 7.12646Z" fill="black"/>
<path d="M7.34986 8.5C5.56451 8.5 4.11719 9.94732 4.11719 11.7327C4.11719 13.518 5.56451 14.9654 7.34986 14.9654C9.13522 14.9654 10.5825 13.518 10.5825 11.7327C10.5825 9.94732 9.13522 8.5 7.34986 8.5Z" fill="black"/>
<path d="M13.7031 21.9999H0.998047V19.236C0.998047 18.6536 1.31374 18.1736 1.68355 17.8204C2.05938 17.4614 2.56369 17.1595 3.12719 16.9163C4.25827 16.4281 5.76246 16.1187 7.35092 16.1187C8.93938 16.1187 10.4429 16.4281 11.574 16.9163C12.1375 17.1595 12.6418 17.4614 13.0176 17.8204C13.3874 18.1736 13.7031 18.6536 13.7031 19.236V21.9999Z" fill="black"/>
</svg>
