<svg width="24" height="24" viewBox="0 0 24 24" fill="none" xmlns="http://www.w3.org/2000/svg">
<path d="M12.8939 3.7426C12.2231 2.41237 10.8446 1.5 9.25313 1.5C7.00256 1.5 5.17813 3.32444 5.17813 5.57501C5.17813 7.80945 6.97652 9.62385 9.20482 9.64973C9.18037 9.43778 9.1678 9.22221 9.1678 9.0037C9.1678 6.57279 10.7236 4.50527 12.8939 3.7426ZM9.87052 11.7153C10.3667 12.605 11.0996 13.3448 11.984 13.8494C10.7385 14.0481 9.58126 14.3759 8.59315 14.8024C8.26667 14.9433 7.94352 15.1015 7.63256 15.2785L4.77615 12.3543C6.07999 11.9481 7.63101 11.7035 9.25293 11.7035C9.46007 11.7035 9.66605 11.7075 9.87052 11.7153ZM4.10636 12.5853L4.03576 12.6543L4.03391 12.6524L1 15.6303V15.624C1 14.9404 1.37088 14.3597 1.83939 13.9121C2.31391 13.4588 2.96041 13.0692 3.6979 12.7509C3.83015 12.6938 3.9664 12.6386 4.10636 12.5853ZM1.00964 17.7227L2.04904 18.785L3.74763 17.1231C3.73137 17.3261 3.7275 17.5301 3.7361 17.7339C3.74214 17.8772 3.75435 18.0204 3.77275 18.1631L3.77339 18.1681C3.85748 18.8152 4.06726 19.4391 4.39082 20.0045L4.39434 20.0106C4.71906 20.5761 5.15142 21.0718 5.66683 21.4695L5.67079 21.4726C6.18795 21.8708 6.7784 22.1626 7.40842 22.3314C8.03845 22.5002 8.69571 22.5427 9.34269 22.4564L9.34459 22.4562L9.15167 20.9991C8.54508 21.0601 8.0596 20.9857 7.70987 20.8844C7.53217 20.8329 7.39122 20.775 7.28844 20.7258C7.23706 20.7013 7.19516 20.6788 7.16291 20.6605C7.14677 20.6513 7.13304 20.6431 7.12172 20.6361L7.10656 20.6266L7.10033 20.6226L7.09755 20.6208L7.09625 20.6199C7.09619 20.6199 7.09551 20.6194 7.09829 20.6151C6.91778 20.5215 6.74541 20.412 6.58328 20.2875L6.57931 20.2844C6.21912 20.0071 5.91673 19.6615 5.68922 19.2671L5.68569 19.2609C5.4586 18.8655 5.31113 18.4289 5.25162 17.976L5.25097 17.971C5.21431 17.689 5.21222 17.404 5.24427 17.1225L6.92816 18.85L7.01286 18.768L8.00227 17.8036L4.53916 14.2583L1.00964 17.7227ZM10.8635 22.5H23V19.0527C23 18.3691 22.6291 17.7884 22.1606 17.3409C21.6861 16.8876 21.0396 16.4979 20.3021 16.1796C18.823 15.5412 16.8443 15.1322 14.7471 15.1322C12.6498 15.1322 10.6711 15.5412 9.19204 16.1796C9.03186 16.2488 8.87597 16.3213 8.72521 16.3971L9.60023 17.2928L9.59483 17.2981L10.1237 17.8445L8.41147 19.5018C8.57656 19.5233 8.78238 19.5307 9.02803 19.5038C9.26291 19.4781 9.61204 19.4326 9.90829 19.3926C10.0552 19.3728 10.1869 19.3546 10.2819 19.3414L10.3941 19.3257L10.434 19.3201L10.6449 20.8052L10.6392 20.806L10.8635 22.5ZM14.7473 4.92872C16.9978 4.92872 18.8223 6.75316 18.8223 9.00372C18.8223 11.2543 16.9978 13.0787 14.7473 13.0787C12.4967 13.0787 10.6723 11.2543 10.6723 9.00372C10.6723 6.75316 12.4967 4.92872 14.7473 4.92872ZM4.53529 16.3951L4.50098 16.3859L4.51395 16.3733L4.53529 16.3951Z" fill="black"/>
</svg>
