<svg width="24" height="24" viewBox="0 0 24 24" fill="none" xmlns="http://www.w3.org/2000/svg">
<path d="M4.25 2C3.00736 2 2 3.00736 2 4.25V19.75C2 20.9926 3.00736 22 4.25 22H19.75C20.9926 22 22 20.9926 22 19.75V4.25C22 3.00736 20.9926 2 19.75 2H4.25ZM13.3901 15.4493L11.9477 14.0488L11.2535 17.1685L6.21875 16.1475L6.51992 14.6795L9.96108 15.375L11.109 9.61227L9.87867 10.1457V12.5956H8.36881V9.15716L11.1914 7.94169C11.6173 7.75801 11.9349 7.63916 12.1442 7.58514C12.3535 7.53113 12.5464 7.50412 12.7229 7.50412C12.9957 7.50412 13.2357 7.56646 13.4427 7.69115C13.6498 7.81585 13.8285 7.9957 13.9789 8.23069L14.6812 9.38945C14.9927 9.90716 15.4147 10.3161 15.9473 10.6164C16.4799 10.9167 17.0905 11.0686 17.7793 11.0722V12.5821C16.9249 12.5596 16.1704 12.3908 15.5158 12.0756C14.8613 11.7605 14.3048 11.2941 13.8466 10.6765L13.4117 12.8954L14.9 14.327V19.7588H13.3901V15.4493ZM12.7621 6.76265C12.4803 6.48084 12.3394 6.13105 12.3394 5.71329C12.3394 5.29553 12.4803 4.94574 12.7621 4.66393C13.0439 4.38212 13.3937 4.24121 13.8114 4.24121C14.2292 4.24121 14.579 4.38212 14.8608 4.66393C15.1426 4.94574 15.2835 5.29553 15.2835 5.71329C15.2835 6.13105 15.1426 6.48084 14.8608 6.76265C14.579 7.04446 14.2292 7.18537 13.8114 7.18537C13.3937 7.18537 13.0439 7.04446 12.7621 6.76265Z" fill="black"/>
</svg>
