<svg width="24" height="24" viewBox="0 0 24 24" fill="none" xmlns="http://www.w3.org/2000/svg">
<path d="M9.00273 3.20996C6.75217 3.20996 4.92773 5.0344 4.92773 7.28496C4.92773 9.53552 6.75217 11.36 9.00273 11.36C11.2533 11.36 13.0777 9.53552 13.0777 7.28496C13.0777 5.0344 11.2533 3.20996 9.00273 3.20996Z" fill="black"/>
<path d="M0.75 17.3341V20.7813H17.2559V17.3341C17.2559 16.6505 16.885 16.0697 16.4165 15.6222C15.9419 15.1689 15.2954 14.7793 14.558 14.461C13.0789 13.8226 11.1002 13.4136 9.00293 13.4136C6.90566 13.4136 4.92695 13.8226 3.4479 14.461C2.71041 14.7793 2.06391 15.1689 1.58939 15.6222C1.12088 16.0697 0.75 16.6505 0.75 17.3341Z" fill="black"/>
<path d="M22.0737 9.02078L16.4724 9.02089L16.4724 10.5209L22.0737 10.5208V9.02078Z" fill="black"/>
</svg>
