<svg width="24" height="24" viewBox="0 0 24 24" fill="none" xmlns="http://www.w3.org/2000/svg">
<path d="M11.9998 3.21436C9.75004 3.21436 7.92625 5.03879 7.92625 7.28936C7.92625 9.53992 9.75004 11.3644 11.9998 11.3644C14.2496 11.3644 16.0734 9.53992 16.0734 7.28936C16.0734 5.03879 14.2496 3.21436 11.9998 3.21436Z" fill="black"/>
<path d="M3.75 20.7856V17.3383C3.75 16.6547 4.12075 16.074 4.5891 15.6265C5.06345 15.1732 5.70972 14.7836 6.44694 14.4652C6.88929 14.2743 7.37634 14.1038 7.8979 13.9587L14.7248 20.7856H3.75Z" fill="black"/>
<path d="M9.6504 13.5899C9.03586 13.6809 8.44771 13.8057 7.8979 13.9587L3.01562 9.0764V6.95508L9.6504 13.5899Z" fill="black"/>
<path d="M9.6504 13.5899C10.4014 13.4786 11.1919 13.4178 12 13.4178C14.0965 13.4178 16.0745 13.8269 17.5531 14.4652C18.2903 14.7836 18.9366 15.1732 19.4109 15.6265C19.8792 16.074 20.25 16.6547 20.25 17.3383V20.7856H16.8462L9.6504 13.5899Z" fill="black"/>
</svg>
