<svg width="24" height="24" viewBox="0 0 24 24" fill="none" xmlns="http://www.w3.org/2000/svg">
<path d="M9 4.44031C9 2.78406 10.3427 1.44141 11.9989 1.44141C13.6551 1.44141 14.9978 2.78406 14.9978 4.44031C14.9978 6.09656 13.6551 7.43921 11.9989 7.43921C10.3427 7.43921 9 6.09656 9 4.44031Z" fill="black"/>
<path d="M23 9.89551C23 8.63183 21.9756 7.60742 20.7119 7.60742C19.4482 7.60742 18.4238 8.63183 18.4238 9.89551C18.4238 11.1592 19.4482 12.1836 20.7119 12.1836C21.9756 12.1836 23 11.1592 23 9.89551Z" fill="black"/>
<path d="M3.28809 7.60742C4.55176 7.60742 5.57617 8.63183 5.57617 9.89551C5.57617 11.1592 4.55176 12.1836 3.28809 12.1836C2.02441 12.1836 1 11.1592 1 9.89551C1 8.63183 2.02441 7.60742 3.28809 7.60742Z" fill="black"/>
<path d="M12.0007 18.9766L7.6973 12.7836C6.43016 10.9602 7.73506 8.46436 9.95558 8.46436H14.046C16.2665 8.46436 17.5714 10.9602 16.3043 12.7836L12.9141 17.6623L12.9162 17.6654L12.0029 18.9796L12.0007 18.9766Z" fill="black"/>
<path d="M5.93577 12.8774H5.09344C3.32578 12.8774 2.24845 14.8222 3.18597 16.3208L6.42752 21.5022C7.28401 22.8713 9.26114 22.919 10.1827 21.5929L11.0874 20.2909L5.93577 12.8774Z" fill="black"/>
<path d="M12.9162 20.2939L13.8189 21.5929C14.7404 22.919 16.7176 22.8713 17.574 21.5022L20.8156 16.3208C21.7531 14.8222 20.6758 12.8774 18.9081 12.8774H18.07L12.9162 20.2939Z" fill="black"/>
</svg>
