<svg width="24" height="24" viewBox="0 0 24 24" fill="none" xmlns="http://www.w3.org/2000/svg">
<path d="M8.13574 9.50244C8.13574 7.36829 9.86621 5.63818 12 5.63818C14.1338 5.63818 15.8643 7.36829 15.8643 9.50244C15.8643 11.6366 14.1338 13.3667 12 13.3667C9.86621 13.3667 8.13574 11.6366 8.13574 9.50244Z" fill="black"/>
<path d="M1.75 12C1.75 6.33911 6.33887 1.75 12 1.75C17.6611 1.75 22.25 6.33911 22.25 12C22.25 17.6609 17.6611 22.25 12 22.25C6.33887 22.25 1.75 17.6609 1.75 12ZM12 3.25C7.16797 3.25 3.25 7.16748 3.25 12C3.25 14.1169 4.00195 16.0583 5.25293 17.5718C7.13184 15.964 9.49023 14.9976 12.0615 14.9976C14.5996 14.9976 16.9307 15.9391 18.7979 17.51C20.0186 16.0057 20.75 14.0884 20.75 12C20.75 7.16748 16.832 3.25 12 3.25Z" fill="black"/>
</svg>
