<svg width="24" height="24" viewBox="0 0 24 24" fill="none" xmlns="http://www.w3.org/2000/svg">
<path d="M9.00273 3.21436C6.75217 3.21436 4.92773 5.03879 4.92773 7.28936C4.92773 9.53992 6.75217 11.3644 9.00273 11.3644C11.2533 11.3644 13.0777 9.53992 13.0777 7.28936C13.0777 5.03879 11.2533 3.21436 9.00273 3.21436Z" fill="black"/>
<path d="M0.75 17.3385V20.7857H17.2559V17.3385C17.2559 16.6549 16.885 16.0741 16.4165 15.6266C15.9419 15.1733 15.2954 14.7837 14.558 14.4654C13.0789 13.827 11.1002 13.418 9.00293 13.418C6.90566 13.418 4.92695 13.827 3.4479 14.4654C2.71041 14.7837 2.06391 15.1733 1.58939 15.6266C1.12088 16.0741 0.75 16.6549 0.75 17.3385Z" fill="black"/>
<path d="M19.9249 9.02518L19.9249 5.64893L18.4249 5.64896L18.4249 9.02521L15.0488 9.02529L15.0489 10.5253L18.425 10.5252L18.425 13.9012L19.925 13.9011L19.925 10.5252L23.3011 10.5251L23.301 9.0251L19.9249 9.02518Z" fill="black"/>
</svg>
