<svg width="24" height="24" viewBox="0 0 24 24" fill="none" xmlns="http://www.w3.org/2000/svg">
<path d="M7.92383 6.0752C7.92383 3.82422 9.74805 2 11.998 2C14.25 2 16.0742 3.82422 16.0742 6.0752C16.0742 8.32568 14.25 10.1499 11.998 10.1499C9.74805 10.1499 7.92383 8.32568 7.92383 6.0752Z" fill="black"/>
<path d="M4.69531 20.2637C5.4668 16.9424 8.44336 14.4678 12 14.4678C15.5566 14.4678 18.5332 16.9429 19.3047 20.2642L20.998 19.8364V16.7378C20.998 16.0654 20.627 15.4414 20.1582 14.9326C19.6738 14.4072 19.002 13.9106 18.2051 13.4839C16.6113 12.6294 14.4277 11.998 12.002 12C9.57422 11.998 7.39062 12.6294 5.79688 13.4839C5.41406 13.6885 5.06055 13.9097 4.74219 14.1421C4.39844 14.3936 4.0957 14.6592 3.84375 14.9326C3.375 15.4414 3.00391 16.0654 3.00391 16.7378V19.8364L4.69531 20.2637Z" fill="black"/>
<path d="M12.002 15.9678C8.6875 15.9678 6.00195 18.6543 6.00195 21.9678V22C10.2246 22 13.8182 22 18.002 22V21.9678C18.002 18.6543 15.3164 15.9678 12.002 15.9678ZM7.74609 20.5044C8.27344 18.9663 9.61328 17.8052 11.252 17.5298V19.582C10.9863 19.6655 10.7402 19.7925 10.5195 19.9541C10.3105 20.1079 10.127 20.2939 9.97461 20.5044H7.74609ZM12.752 17.5298C14.3906 17.8052 15.7305 18.9663 16.2578 20.5044H14.0293C13.877 20.2949 13.6934 20.1094 13.4863 19.9556C13.2656 19.793 13.0195 19.666 12.752 19.582V17.5298Z" fill="black"/>
</svg>
