<svg width="24" height="24" viewBox="0 0 24 24" fill="none" xmlns="http://www.w3.org/2000/svg">
<path d="M5 14.1616C5 13.2947 5.11444 12.4982 5.34332 11.7722C5.57452 11.044 5.91784 10.3712 6.3733 9.75391H7.55586C7.38015 9.98279 7.216 10.2637 7.06341 10.5966C6.91082 10.9272 6.77789 11.2902 6.6646 11.6855C6.55363 12.0786 6.46578 12.4866 6.40104 12.9097C6.33862 13.3328 6.30741 13.7501 6.30741 14.1616C6.30741 14.7096 6.36174 15.2644 6.4704 15.8262C6.58137 16.388 6.73049 16.9082 6.91776 17.3868C7.10734 17.8677 7.32004 18.2607 7.55586 18.5659H6.3733C5.91784 17.9486 5.57452 17.277 5.34332 16.551C5.11444 15.8228 5 15.0263 5 14.1616Z" fill="black"/>
<path d="M13.3681 17.2818C13.3376 17.2818 13.3063 17.281 13.2753 17.2793C12.4875 17.2316 11.9448 16.6865 11.663 15.6592L11.6163 15.4893L10.3069 16.9651C10.2993 16.9739 10.2916 16.9827 10.2838 16.9911L10.2799 16.9953C10.1192 17.1677 9.89183 17.2667 9.65623 17.2667C9.18608 17.2667 8.80359 16.8841 8.80359 16.4139C8.80359 15.9437 9.18608 15.5613 9.65623 15.5613C9.78706 15.5613 9.91254 15.5901 10.0292 15.647L10.0944 15.6787L11.4236 14.181L11.4197 14.1396C11.3972 13.9024 11.3706 13.6303 11.3381 13.4033C11.3103 13.2062 11.2623 12.9163 11.1678 12.6785C11.1405 12.611 11.1102 12.5522 11.0775 12.5034C11.03 12.4313 10.9773 12.3787 10.8757 12.3582C10.8332 12.3495 10.7893 12.3448 10.7491 12.3448C10.7365 12.3448 10.7241 12.3453 10.7121 12.3462L10.7103 12.3463L10.7085 12.3465C10.2909 12.3937 9.95922 13.0108 9.78531 13.4147H8.8065C8.91406 12.8159 9.13085 12.2741 9.42212 11.8796C9.79921 11.3687 10.2843 11.1097 10.8638 11.1097C10.8843 11.1097 10.9051 11.11 10.9258 11.1107C11.5474 11.128 12.0748 11.4915 12.3731 12.108C12.4546 12.2727 12.5229 12.4512 12.5823 12.6547L12.6307 12.8207L13.9381 11.3474C14.0995 11.1677 14.3308 11.0644 14.5725 11.0644C15.0427 11.0644 15.4252 11.4469 15.4252 11.9171C15.4252 12.3872 15.0427 12.7697 14.5725 12.7697C14.4415 12.7697 14.316 12.7408 14.1993 12.6839L14.1341 12.6521L12.8419 14.1083L12.8467 14.1506C12.8688 14.3457 12.889 14.5434 12.9084 14.7347L12.9204 14.852C12.9253 14.8931 12.9301 14.9344 12.9349 14.9756C12.9542 15.1428 12.9742 15.3161 13.008 15.4861C13.0344 15.6192 13.062 15.7197 13.0974 15.812C13.1342 15.9082 13.1917 16.0254 13.31 16.0787C13.3511 16.0972 13.3938 16.1065 13.437 16.1065C13.6187 16.1065 13.7592 15.9404 13.8267 15.8605C13.8852 15.7913 13.9416 15.7112 13.9946 15.6225C14.1185 15.4145 14.2283 15.1675 14.3214 14.8874H15.397C15.2923 15.3503 15.1025 15.9621 14.7707 16.4523C14.3983 17.0027 13.9263 17.2818 13.3681 17.2818Z" fill="black"/>
<path d="M18.6532 16.551C18.8844 15.8228 19 15.0263 19 14.1616C19 13.2947 18.8844 12.4982 18.6532 11.7722C18.4243 11.044 18.0822 10.3712 17.6267 9.75391H16.4441C16.68 10.0591 16.8915 10.4521 17.0788 10.933C17.2684 11.4139 17.4175 11.9352 17.5261 12.497C17.6371 13.0588 17.6926 13.6137 17.6926 14.1616C17.6926 14.5708 17.6602 14.987 17.5955 15.4101C17.5331 15.8332 17.4452 16.2424 17.3319 16.6377C17.221 17.0331 17.0892 17.396 16.9366 17.7267C16.7863 18.0573 16.6222 18.337 16.4441 18.5659H17.6267C18.0822 17.9486 18.4243 17.277 18.6532 16.551Z" fill="black"/>
<path d="M2 2.5H22V21.5H2V2.5ZM3.5 8.32031V20H20.5V8.32031H3.5Z" fill="black"/>
</svg>
