<svg width="24" height="24" viewBox="0 0 24 24" fill="none" xmlns="http://www.w3.org/2000/svg">
<path d="M4.54492 5.0495V1.73438H19.4824V5.0495C19.4824 5.49554 19.1904 5.87337 18.7871 6.00223V7.94342H18.5402L19.909 10.7866C20.5205 10.8897 20.9863 11.4217 20.9863 12.0625C20.9863 12.6219 20.6313 13.0984 20.1343 13.279L18.0462 17.6162H18.7207C19.8253 17.6162 20.7207 18.5116 20.7207 19.6162V21.2659C20.7207 21.8182 20.273 22.2659 19.7207 22.2659H17.6119C17.6099 21.2702 16.8021 20.4636 15.806 20.4636C14.8098 20.4636 14.002 21.2702 14 22.2659H10.0104C10.0096 21.2692 9.20131 20.4614 8.20441 20.4614C7.20751 20.4614 6.39926 21.2692 6.39844 22.2659H4.28906C3.73678 22.2659 3.28906 21.8182 3.28906 21.2659V19.6162C3.28906 18.5116 4.18449 17.6162 5.28906 17.6162H6.11209L4.04862 13.3301C3.45908 13.2094 3.01562 12.6877 3.01562 12.0625C3.01562 11.4334 3.46457 10.9092 4.05956 10.7927L5.4313 7.94342H5.22266V5.99644C4.82849 5.86233 4.54492 5.48903 4.54492 5.0495ZM6.04492 3.23438V4.5495H17.9824V3.23438H6.04492ZM17.453 15.3904L18.6721 12.8584C18.5006 12.6389 18.3984 12.3626 18.3984 12.0625C18.3984 11.8364 18.4564 11.6239 18.5583 11.439L16.8754 7.94342H16.2441V6.0495H14.8105V7.94342H14.3256L15.6944 10.7867C16.3058 10.8898 16.7715 11.4218 16.7715 12.0625C16.7715 12.7031 16.3059 13.235 15.6947 13.3383L15.2208 14.3228H15.6834C16.439 14.3228 17.1136 14.7459 17.453 15.3904ZM13.556 14.3228L14.3437 12.6865C14.2417 12.5015 14.1836 12.2888 14.1836 12.0625C14.1836 11.8363 14.2416 11.6237 14.3436 11.4387L12.6608 7.94342H12.2676V6.0495H11.7422V7.94342H11.3109L9.64201 11.41C9.75411 11.6015 9.81836 11.8245 9.81836 12.0625C9.81836 12.3004 9.75415 12.5233 9.64212 12.7149L10.417 14.3244C10.4437 14.3233 10.4706 14.3228 10.4975 14.3228H13.556ZM9.04988 14.9427L8.27461 13.3324C7.67952 13.216 7.23047 12.6917 7.23047 12.0625C7.23047 11.4334 7.67942 10.9092 8.2744 10.7927L9.64614 7.94342H9.19922V6.0495H7.76562V7.94342H7.09608L5.42717 11.41C5.53927 11.6015 5.60352 11.8245 5.60352 12.0625C5.60352 12.3043 5.53718 12.5306 5.42172 12.7243L7.67283 17.4001L8.72678 15.393C8.81436 15.2262 8.92355 15.0752 9.04988 14.9427ZM10.4975 15.3228C10.1259 15.3228 9.78491 15.5288 9.61214 15.8579L8.68973 17.6145H12.625V15.3228H10.4975ZM13.625 17.6145H17.0094L16.6576 16.0969C16.5525 15.6437 16.1487 15.3228 15.6834 15.3228H13.625V17.6145ZM4.30957 12.3564C4.47191 12.3564 4.60352 12.2248 4.60352 12.0625C4.60352 11.9002 4.47191 11.7686 4.30957 11.7686C4.14723 11.7686 4.01562 11.9002 4.01562 12.0625C4.01562 12.2248 4.14723 12.3564 4.30957 12.3564ZM8.81836 12.0625C8.81836 11.9002 8.68676 11.7686 8.52441 11.7686C8.36207 11.7686 8.23047 11.9002 8.23047 12.0625C8.23047 12.2248 8.36207 12.3564 8.52441 12.3564C8.68676 12.3564 8.81836 12.2248 8.81836 12.0625ZM15.4775 12.3564C15.6399 12.3564 15.7715 12.2248 15.7715 12.0625C15.7715 11.9002 15.6399 11.7686 15.4775 11.7686C15.3152 11.7686 15.1836 11.9002 15.1836 12.0625C15.1836 12.2248 15.3152 12.3564 15.4775 12.3564ZM19.9863 12.0625C19.9863 11.9002 19.8547 11.7686 19.6924 11.7686C19.53 11.7686 19.3984 11.9002 19.3984 12.0625C19.3984 12.2248 19.53 12.3564 19.6924 12.3564C19.8547 12.3564 19.9863 12.2248 19.9863 12.0625Z" fill="black"/>
</svg>
