<svg width="24" height="24" viewBox="0 0 24 24" fill="none" xmlns="http://www.w3.org/2000/svg">
<path d="M12.5156 3.49023H16.3081L16.5957 5.60488C16.841 5.72174 17.0754 5.8576 17.2969 6.01052L19.273 5.20187L21.1693 8.48631L19.4802 9.79391C19.4907 9.92725 19.496 10.0619 19.496 10.1977C19.496 10.3337 19.4907 10.4686 19.4802 10.6021L21.169 11.9095L20.652 12.805L20.2299 11.64C19.9431 10.8485 19.1914 10.3213 18.3495 10.3213H16.1879L15.1381 8.47966L14.7777 7.8581L14.1456 8.12971L12.5421 8.77216L12.2757 7.32011L12.1347 6.34859H8.8911L9.55117 5.20195L11.526 6.01008C11.7478 5.85703 11.9824 5.72108 12.228 5.60418L12.5156 3.49023Z" fill="black"/>
<path d="M15.3242 10.3213L14.4502 8.80734L12.474 9.61599C12.2525 9.46307 12.0182 9.32721 11.7728 9.21035L11.4852 7.0957H7.69269L7.40518 9.20965C7.15957 9.32655 6.92493 9.4625 6.70315 9.61554L4.7283 8.80742L2.83203 12.0919L4.51931 13.3981C4.50874 13.5318 4.50336 13.6669 4.50336 13.8032C4.50336 13.9396 4.50875 14.0749 4.51935 14.2089L2.83235 15.5149L4.72861 18.7993L6.70359 17.9912C6.92523 18.1441 7.15972 18.2799 7.40516 18.3967L7.69269 20.5108H9.55085C9.39607 20.2644 9.30659 19.9729 9.30667 19.6605L9.30769 15.4665C8.51009 15.3326 7.90234 14.6389 7.90234 13.8033C7.90234 12.8718 8.65744 12.1167 9.5889 12.1167C9.83696 12.1167 10.0725 12.1703 10.2846 12.2664L10.5116 11.64C10.7984 10.8485 11.5501 10.3213 12.392 10.3213H15.3242Z" fill="black"/>
<path d="M18.8575 19.2373V19.6608C18.8575 20.0612 19.1821 20.3858 19.5825 20.3858H19.8329C20.2334 20.3858 20.558 20.0611 20.5579 19.6607L20.5568 15.1164L19.4053 11.9381C19.244 11.4928 18.8211 11.1963 18.3476 11.1963H12.39C11.9165 11.1963 11.4936 11.4928 11.3323 11.9381L10.1808 15.1164L10.1797 19.6607C10.1796 20.0611 10.5042 20.3858 10.9047 20.3858H11.1551C11.5555 20.3858 11.8801 20.0612 11.8801 19.6608V19.2373H18.8575ZM18.8642 14.1143H11.8734L12.4777 12.4463H18.2599L18.8642 14.1143ZM13.7302 16.661C13.7302 17.08 13.3905 17.4196 12.9715 17.4196C12.5526 17.4196 12.2129 17.08 12.2129 16.661C12.2129 16.242 12.5526 15.9023 12.9715 15.9023C13.3905 15.9023 13.7302 16.242 13.7302 16.661ZM17.7645 17.4196C17.3455 17.4196 17.0059 17.08 17.0059 16.661C17.0059 16.242 17.3455 15.9023 17.7645 15.9023C18.1835 15.9023 18.5232 16.242 18.5232 16.661C18.5232 17.08 18.1835 17.4196 17.7645 17.4196Z" fill="black"/>
</svg>
