<svg width="24" height="24" viewBox="0 0 24 24" fill="none" xmlns="http://www.w3.org/2000/svg">
<path d="M17.4785 16.5114C19.9638 16.5114 21.9785 14.4916 21.9785 12.0001C21.9785 9.50856 19.9638 7.48877 17.4785 7.48877C14.9932 7.48877 12.9785 9.50856 12.9785 12.0001C12.9785 13.1539 13.4106 14.2066 14.1214 15.0043L9.88197 15.0043C10.5908 14.2091 11.0215 13.1605 11.0215 12.0114C11.0215 9.52613 9.00677 7.51141 6.52148 7.51141C4.0362 7.51141 2.02148 9.52613 2.02148 12.0114C2.02148 14.4967 4.0362 16.5114 6.52148 16.5114C6.60692 16.5114 6.6918 16.509 6.77606 16.5043L17.2243 16.5043C17.3085 16.509 17.3932 16.5114 17.4785 16.5114ZM9.52148 12.0114C9.52148 13.6683 8.17834 15.0114 6.52148 15.0114C4.86463 15.0114 3.52148 13.6683 3.52148 12.0114C3.52148 10.3546 4.86463 9.01141 6.52148 9.01141C8.17834 9.01141 9.52148 10.3546 9.52148 12.0114ZM20.4785 12.0001C20.4785 13.6668 19.1318 15.0114 17.4785 15.0114C15.8252 15.0114 14.4785 13.6668 14.4785 12.0001C14.4785 10.3334 15.8252 8.98877 17.4785 8.98877C19.1318 8.98877 20.4785 10.3334 20.4785 12.0001Z" fill="black"/>
</svg>
