<svg width="24" height="24" viewBox="0 0 24 24" fill="none" xmlns="http://www.w3.org/2000/svg">
<path d="M5.25 4.5C4.83579 4.5 4.5 4.83579 4.5 5.25V18.75C4.5 19.1642 4.83579 19.5 5.25 19.5H18.75C19.1642 19.5 19.5 19.1642 19.5 18.75V11.9052H21V18.75C21 19.9926 19.9926 21 18.75 21H5.25C4.00736 21 3 19.9926 3 18.75V5.25C3 4.00736 4.00736 3 5.25 3H12.0821V4.5H5.25Z" fill="black"/>
<path d="M21.0022 3V9.51628H19.5022V5.55543L9.42988 15.6293L8.36914 14.5687L18.4363 4.5L14.4707 4.5V3H21.0022Z" fill="black"/>
</svg>
