<svg width="24" height="24" viewBox="0 0 24 24" fill="none" xmlns="http://www.w3.org/2000/svg">
<path d="M12 22C10.3464 22 8.92952 19.4405 8.33673 15.8047H15.6633C15.0705 19.4405 13.6536 22 12 22Z" fill="black"/>
<path d="M12 2C10.3472 2 8.93097 4.55688 8.33764 8.1897H15.6624C15.069 4.55688 13.6528 2 12 2Z" fill="black"/>
<path d="M2.75153 8.1897H6.86377C7.2033 6.24207 7.80595 4.3429 8.67172 2.5673C5.98885 3.51386 3.83093 5.57257 2.75153 8.1897Z" fill="black"/>
<path d="M2.74914 15.8047H6.86279C7.20216 17.7544 7.80517 19.6555 8.67183 21.4329C5.98692 20.4857 3.82775 18.4246 2.74914 15.8047Z" fill="black"/>
<path d="M21.2509 15.8047H17.1383C16.799 17.7542 16.196 19.6552 15.3295 21.4324C18.0138 20.485 20.1724 18.4242 21.2509 15.8047Z" fill="black"/>
<path d="M17.1373 8.1897H21.2485C20.1693 5.57301 18.0119 3.51455 15.3296 2.56777C16.1953 4.34324 16.7978 6.24224 17.1373 8.1897Z" fill="black"/>
<path d="M6.73379 12.7104L5.86681 9.62939H4.95496L4.09023 12.7137L3.46999 9.62939H2.25195L3.45205 14.3703H4.51306L5.41033 11.3106L6.30871 14.3703H7.36861L8.56982 9.62939H7.3473L6.73379 12.7104Z" fill="black"/>
<path d="M13.3231 12.7104L12.4561 9.62939H11.5443L10.6795 12.7137L10.0593 9.62939H8.84124L10.0413 14.3703H11.1024L11.9996 11.3106L12.898 14.3703H13.959L15.1591 9.62939H13.9366L13.3231 12.7104Z" fill="black"/>
<path d="M19.9124 12.7104L20.5259 9.62939H21.7484L20.5483 14.3703H19.4873L18.5889 11.3106L17.6916 14.3703H16.6306L15.4305 9.62939H16.6486L17.2688 12.7137L18.1335 9.62939H19.0454L19.9124 12.7104Z" fill="black"/>
</svg>
