<svg width="24" height="24" viewBox="0 0 24 24" fill="none" xmlns="http://www.w3.org/2000/svg">
<path d="M10.4883 8.5597V5.93249C10.7329 5.72145 10.8877 5.4092 10.8877 5.06079C10.8877 4.95155 10.8725 4.84585 10.844 4.74572C10.707 4.26328 10.2632 3.90991 9.73682 3.90991C9.21316 3.90991 8.77119 4.25965 8.63174 4.73828C8.60192 4.84061 8.58594 4.94883 8.58594 5.06079C8.58594 5.3786 8.71475 5.66632 8.92302 5.87459C8.94399 5.89555 8.96576 5.91571 8.98828 5.93501V8.5597H3.71875V12.5713C4.20448 12.021 4.91512 11.674 5.70681 11.674C7.17085 11.674 8.35769 12.8608 8.35769 14.3248C8.35769 15.7889 7.17085 16.9757 5.70681 16.9757C4.91512 16.9757 4.20448 16.6287 3.71875 16.0784V20.09H12.0443C12.3729 20.6547 12.7906 21.1611 13.2781 21.59H3.21875C2.66647 21.59 2.21875 21.1423 2.21875 20.59V15.0748H4.83338C5.04444 15.3203 5.35724 15.4757 5.70634 15.4757C5.75706 15.4757 5.80702 15.4724 5.856 15.4661C6.42091 15.3927 6.85769 14.9097 6.85769 14.3248C6.85769 13.7399 6.42138 13.257 5.85647 13.1836C5.80748 13.1772 5.75706 13.174 5.70634 13.174C5.35733 13.174 5.04459 13.3293 4.83353 13.5747L2.21875 13.5748V8.0597C2.21875 7.50741 2.66647 7.0597 3.21875 7.0597H7.98828V7.05327C7.4351 6.56743 7.08594 5.85489 7.08594 5.06079C7.08594 3.59675 8.27278 2.40991 9.73682 2.40991C11.2009 2.40991 12.3877 3.59675 12.3877 5.06079C12.3877 5.85348 12.0398 6.56491 11.4883 7.05069V7.0597H16.2559C16.8081 7.0597 17.2559 7.50741 17.2559 8.0597V11.0372C16.738 11.0373 16.2354 11.1027 15.7559 11.2257V8.5597H10.4883Z" fill="black"/>
<path d="M16.5071 17.814V19.2402H18.0071V17.814H19.4329V16.314H18.0071V14.8875H16.5071V16.314H15.0801V17.814H16.5071Z" fill="black"/>
<path d="M17.2568 21.5901C19.7567 21.5901 21.7832 19.5636 21.7832 17.0637C21.7832 14.5639 19.7567 12.5374 17.2568 12.5374C14.757 12.5374 12.7305 14.5639 12.7305 17.0637C12.7305 19.5636 14.757 21.5901 17.2568 21.5901ZM17.2568 20.0901C15.5854 20.0901 14.2305 18.7351 14.2305 17.0637C14.2305 15.3923 15.5854 14.0374 17.2568 14.0374C18.9283 14.0374 20.2832 15.3923 20.2832 17.0637C20.2832 18.7351 18.9283 20.0901 17.2568 20.0901Z" fill="black"/>
</svg>
