<svg width="24" height="24" viewBox="0 0 24 24" fill="none" xmlns="http://www.w3.org/2000/svg">
<path d="M9.13281 14.0611L12 11.2212L14.8672 14.0611H9.13281Z" fill="black"/>
<path d="M12 18.7588L14.8672 15.9189L9.13281 15.9189L12 18.7588Z" fill="black"/>
<path d="M16.4189 3.98901H7.58105V2.01074H6.08105V3.98901H5.25C4.00736 3.98901 3 4.99637 3 6.23901V19.739C3 20.9817 4.00736 21.989 5.25 21.989H18.75C19.9926 21.989 21 20.9817 21 19.739V6.23901C21 4.99637 19.9926 3.98901 18.75 3.98901H17.9189V2.01074H16.4189V3.98901ZM4.5 6.23901C4.5 5.8248 4.83579 5.48901 5.25 5.48901H18.75C19.1642 5.48901 19.5 5.8248 19.5 6.23901V8.06274H4.5V6.23901ZM4.5 9.56274H19.5V19.739C19.5 20.1532 19.1642 20.489 18.75 20.489H5.25C4.83579 20.489 4.5 20.1532 4.5 19.739V9.56274Z" fill="black"/>
</svg>
