<svg width="24" height="24" viewBox="0 0 24 24" fill="none" xmlns="http://www.w3.org/2000/svg">
<path d="M3 8.5761C3 5.49651 5.49651 3 8.5761 3C11.2754 3 13.5267 4.91798 14.0416 7.46547C14.3679 7.4092 14.7009 7.37251 15.0394 7.35665C14.4676 4.30741 11.7913 2 8.5761 2C4.94422 2 2 4.94422 2 8.5761C2 11.7913 4.30741 14.4676 7.35665 15.0394C7.37251 14.7009 7.4092 14.3679 7.46547 14.0416C4.91798 13.5267 3 11.2754 3 8.5761Z" fill="black"/>
<path fill-rule="evenodd" clip-rule="evenodd" d="M8.57577 4.28125C10.6771 4.28125 12.4258 5.79075 12.7967 7.78453C12.4699 7.89692 12.1525 8.0297 11.8461 8.18135C11.8411 8.13989 11.8354 8.09867 11.829 8.0577L10.6321 8.44368C10.6348 8.48659 10.6361 8.52986 10.6361 8.57344C10.6361 8.69984 10.6248 8.82358 10.603 8.94369C9.97364 9.41263 9.41496 9.97108 8.94576 10.6002C8.82592 10.6219 8.70247 10.6332 8.57637 10.6332C8.31365 10.6332 8.06243 10.584 7.83139 10.4944L7.09953 11.5198C7.43205 11.6868 7.79675 11.7991 8.18186 11.845C8.03016 12.1514 7.89734 12.4688 7.78491 12.7957C5.79143 12.4245 4.28223 10.6759 4.28223 8.5748C4.28223 6.20354 6.20451 4.28125 8.57577 4.28125ZM5.32269 8.05705C5.29606 8.22572 5.28223 8.39864 5.28223 8.5748C5.28223 9.48874 5.65449 10.3157 6.25566 10.9124L6.98855 9.88558C6.69376 9.52925 6.5166 9.07203 6.5166 8.57344C6.5166 8.52976 6.51796 8.48639 6.52064 8.44338L5.32269 8.05705ZM5.6459 7.06886L6.84587 7.45584C7.12218 7.02888 7.55221 6.71067 8.05762 6.57955V5.32178C7.00436 5.48822 6.11713 6.1539 5.6459 7.06886ZM9.09731 5.32231C10.1493 5.48968 11.0353 6.15517 11.506 7.06945L10.307 7.4561C10.0311 7.02962 9.60187 6.71161 9.09731 6.58012V5.32231ZM8.57637 8.01367C8.26722 8.01367 8.0166 8.26429 8.0166 8.57344C8.0166 8.88259 8.26722 9.13321 8.57637 9.13321C8.88552 9.13321 9.13614 8.88259 9.13614 8.57344C9.13614 8.26429 8.88552 8.01367 8.57637 8.01367Z" fill="black"/>
<path fill-rule="evenodd" clip-rule="evenodd" d="M18.4605 12.3869C16.7838 10.7102 14.0653 10.7102 12.3885 12.3869C10.7118 14.0636 10.7118 16.7821 12.3885 18.4589C14.0653 20.1356 16.7838 20.1356 18.4605 18.4589C20.1372 16.7821 20.1372 14.0636 18.4605 12.3869ZM13.4907 12.7563L14.3811 13.6467C15.0232 13.2682 15.8266 13.2679 16.469 13.6456L17.3584 12.7563C16.2087 11.9204 14.6403 11.9204 13.4907 12.7563ZM13.647 14.383L12.7559 13.4918C11.922 14.6412 11.9227 16.208 12.7579 17.3567L13.6492 16.4654C13.2725 15.8248 13.2718 15.0242 13.647 14.383ZM16.4679 17.1997L17.358 18.0898C16.2093 18.9247 14.6427 18.9253 13.4934 18.0915L14.3848 17.2002C15.0259 17.5763 15.8269 17.5761 16.4679 17.1997ZM17.2031 16.4646L18.0929 17.3543C18.9264 16.2058 18.9265 14.6404 18.0932 13.4918L17.2038 14.3812C17.5799 15.0224 17.5796 15.8235 17.2031 16.4646ZM15.8217 15.0265C15.6031 14.8079 15.2487 14.8079 15.0301 15.0265C14.8115 15.2451 14.8115 15.5996 15.0301 15.8182C15.2487 16.0368 15.6031 16.0368 15.8217 15.8182C16.0403 15.5996 16.0403 15.2451 15.8217 15.0265Z" fill="black"/>
<path fill-rule="evenodd" clip-rule="evenodd" d="M20.0738 10.774C17.5057 8.2059 13.3419 8.2059 10.7738 10.774C8.20569 13.3422 8.20569 17.5059 10.7738 20.074C13.3419 22.6422 17.5057 22.6422 20.0738 20.074C22.642 17.5059 22.642 13.3422 20.0738 10.774ZM11.4809 11.4811C13.6585 9.30353 17.1891 9.30353 19.3667 11.4811C21.5443 13.6587 21.5443 17.1893 19.3667 19.3669C17.1891 21.5445 13.6585 21.5445 11.4809 19.3669C9.30332 17.1893 9.30332 13.6587 11.4809 11.4811Z" fill="black"/>
</svg>
