<svg width="24" height="24" viewBox="0 0 24 24" fill="none" xmlns="http://www.w3.org/2000/svg">
<path d="M2 6.30566C2 5.06302 3.00736 4.05566 4.25 4.05566H19.75C20.9926 4.05566 22 5.06302 22 6.30566V17.6946C22 18.9372 20.9926 19.9446 19.75 19.9446H4.25C3.00736 19.9446 2 18.9372 2 17.6946V6.30566ZM4.25 5.55566C3.83579 5.55566 3.5 5.89145 3.5 6.30566V17.6946C3.5 18.1088 3.83579 18.4446 4.25 18.4446H19.75C20.1642 18.4446 20.5 18.1088 20.5 17.6946V6.30566C20.5 5.89145 20.1642 5.55566 19.75 5.55566H4.25Z" fill="black"/>
</svg>
