<svg width="24" height="24" viewBox="0 0 24 24" fill="none" xmlns="http://www.w3.org/2000/svg">
<path d="M10.3936 3.40942C10.3936 2.52693 11.109 1.81152 11.9915 1.81152C12.874 1.81152 13.5894 2.52693 13.5894 3.40942V4.08662C16.2297 4.78981 18.1748 7.19729 18.1748 10.0591V15.3854L16.6748 13.8854V10.0591C16.6748 7.47429 14.5794 5.37891 11.9946 5.37891C10.9199 5.37891 9.92984 5.74114 9.13978 6.35017L8.07242 5.28278C8.74265 4.73175 9.53092 4.31905 10.3936 4.08831V3.40942Z" fill="black"/>
<path d="M14.124 20.2798C14.124 21.4542 13.172 22.4062 11.9976 22.4062C10.8231 22.4062 9.8711 21.4542 9.8711 20.2798H14.124Z" fill="black"/>
<path d="M6.08708 8.23817L1.52832 3.6793L2.58899 2.61865L21.4557 21.4858L20.395 22.5465L16.6943 18.8457H3.7998V17.3457H5.81445V10.0591C5.81445 9.4253 5.90985 8.81381 6.08708 8.23817ZM7.34765 9.49878C7.32573 9.68249 7.31445 9.86947 7.31445 10.0591V17.3457H15.1944L7.34765 9.49878Z" fill="black"/>
</svg>
