<svg width="24" height="24" viewBox="0 0 24 24" fill="none" xmlns="http://www.w3.org/2000/svg">
<path d="M10.9902 6.3147C10.9902 5.75958 11.4402 5.30957 11.9954 5.30957C12.5505 5.30957 13.0005 5.75958 13.0005 6.3147V6.81084C14.814 7.25999 16.1583 8.89833 16.1583 10.8507V14.6885H17.158V16.1885H6.8418V14.6885H7.83496V10.8507C7.83496 8.89926 9.17804 7.26154 10.9902 6.81148V6.3147ZM14.6583 10.8507C14.6583 9.38065 13.4667 8.18896 11.9967 8.18896C10.5266 8.18896 9.33496 9.38065 9.33496 10.8507V14.6885H14.6583V10.8507Z" fill="black"/>
<path d="M11.9978 18.7021C12.8582 18.7021 13.5557 18.0047 13.5557 17.1443H10.44C10.44 18.0047 11.1375 18.7021 11.9978 18.7021Z" fill="black"/>
<path d="M12 2C6.47715 2 2 6.47715 2 12C2 17.5228 6.47715 22 12 22C17.5228 22 22 17.5228 22 12C22 6.47715 17.5228 2 12 2ZM3.5 12C3.5 7.30558 7.30558 3.5 12 3.5C16.6944 3.5 20.5 7.30558 20.5 12C20.5 16.6944 16.6944 20.5 12 20.5C7.30558 20.5 3.5 16.6944 3.5 12Z" fill="black"/>
</svg>
