<svg width="24" height="24" viewBox="0 0 24 24" fill="none" xmlns="http://www.w3.org/2000/svg">
<path d="M5.33691 3.50098H16.3514C17.5941 3.50098 18.6015 4.50834 18.6015 5.75098V20.4096H20.1015V5.75098C20.1015 3.67991 18.4225 2.00098 16.3514 2.00098H5.33691V3.50098Z" fill="black"/>
<path d="M6.14844 4.88574C4.9058 4.88574 3.89844 5.8931 3.89844 7.13574V21.999L10.5578 19.1398L17.2172 21.999V7.13574C17.2172 5.8931 16.2098 4.88574 14.9672 4.88574H6.14844ZM5.39844 7.13574C5.39844 6.72153 5.73422 6.38574 6.14844 6.38574H14.9672C15.3814 6.38574 15.7172 6.72153 15.7172 7.13574V19.7226L10.5578 17.5074L5.39844 19.7226V7.13574Z" fill="black"/>
</svg>
