<svg width="24" height="24" viewBox="0 0 24 24" fill="none" xmlns="http://www.w3.org/2000/svg">
<path d="M15.7089 15.6069C16.7223 14.5936 16.8686 13.0416 16.148 11.8726L14.2745 13.7462L13.2794 12.7511L15.1527 10.8778C14.66 10.5745 14.0994 10.4251 13.5399 10.4295C12.7722 10.4357 12.0061 10.7315 11.4199 11.3177C10.532 12.2056 10.3102 13.5064 10.7527 14.6008L7.51678 17.8367C7.3655 17.988 7.3655 18.2333 7.51678 18.3845L8.64102 19.5088C8.7923 19.6601 9.03758 19.6601 9.18887 19.5088L12.4242 16.2734C13.519 16.7169 14.8205 16.4953 15.7089 15.6069Z" fill="black"/>
<path d="M7.58105 3.98901H16.4189V2.01099H17.9189V3.98901H18.75C19.9926 3.98901 21 4.99637 21 6.23901V19.739C21 20.9817 19.9926 21.989 18.75 21.989H5.25C4.00736 21.989 3 20.9817 3 19.739V6.23901C3 4.99637 4.00736 3.98901 5.25 3.98901H6.08105V2.01099H7.58105V3.98901ZM5.25 5.48901C4.83579 5.48901 4.5 5.8248 4.5 6.23901V8.06274H19.5V6.23901C19.5 5.8248 19.1642 5.48901 18.75 5.48901H5.25ZM4.5 19.739C4.5 20.1532 4.83579 20.489 5.25 20.489H18.75C19.1642 20.489 19.5 20.1532 19.5 19.739V9.56274H4.5V19.739Z" fill="black"/>
</svg>
