<svg width="24" height="24" viewBox="0 0 24 24" fill="none" xmlns="http://www.w3.org/2000/svg">
<path d="M11.0669 16.625C11.7062 16.2207 12.2736 15.7128 12.7454 15.125H13.3434C13.6764 13.8311 14.851 12.875 16.2489 12.875C17.6467 12.875 18.8213 13.8311 19.1544 15.125H21.4989V12.5146C21.4989 11.9188 21.0783 11.4057 20.494 11.2889L16.8791 10.5659L13.1579 6.84467C13.0511 6.73794 12.9156 6.6667 12.7695 6.63855C12.2993 6.04597 11.7326 5.53352 11.093 5.125H12.6275C13.2243 5.125 13.7966 5.36205 14.2185 5.78401L17.6186 9.1841L20.7882 9.81801C22.0736 10.0751 22.9989 11.2037 22.9989 12.5146V15.875C22.9989 16.2892 22.6631 16.625 22.2489 16.625H19.1544C18.8213 17.9189 17.6467 18.875 16.2489 18.875C14.851 18.875 13.6764 17.9189 13.3434 16.625H11.0669ZM17.7489 15.875C17.7489 15.0466 17.0773 14.375 16.2489 14.375C15.4204 14.375 14.7489 15.0466 14.7489 15.875C14.7489 16.7034 15.4204 17.375 16.2489 17.375C17.0773 17.375 17.7489 16.7034 17.7489 15.875Z" fill="black"/>
<path d="M9.72449 8.03999C8.33924 6.91746 6.30304 6.96421 4.96931 8.22063C4.04614 9.09028 3.68088 10.3313 3.88869 11.4941L4.99559 10.4514L5.89954 11.411L3.37673 13.7875L1 11.2646L1.95958 10.3606L2.51492 10.9501C2.48905 9.60596 3.0091 8.25607 4.06535 7.26105C5.93076 5.50377 8.80332 5.48086 10.6939 7.13294L9.72449 8.03999Z" fill="black"/>
<path d="M4.29297 14.7022C6.18338 16.2522 8.97609 16.1946 10.8029 14.4737C11.8591 13.4786 12.3792 12.1287 12.3533 10.7846L12.9087 11.3741L13.8683 10.4701L11.4915 7.94716L8.96871 10.3237L9.87267 11.2833L10.9796 10.2406C11.1874 11.4034 10.8221 12.6444 9.89894 13.5141C8.60335 14.7346 6.64488 14.8136 5.26415 13.7881L4.29297 14.7022Z" fill="black"/>
</svg>
