<svg width="24" height="24" viewBox="0 0 24 24" fill="none" xmlns="http://www.w3.org/2000/svg">
<path d="M16.939 8.11004C15.7053 8.11004 14.7051 9.11019 14.7051 10.3439C14.7051 11.5777 15.7053 12.5778 16.939 12.5778C18.1728 12.5778 19.1729 11.5777 19.1729 10.3439C19.1729 9.11019 18.1728 8.11004 16.939 8.11004ZM16.2051 10.3439C16.2051 9.93862 16.5337 9.61004 16.939 9.61004C17.3443 9.61004 17.6729 9.93862 17.6729 10.3439C17.6729 10.7493 17.3443 11.0778 16.939 11.0778C16.5337 11.0778 16.2051 10.7493 16.2051 10.3439Z" fill="black"/>
<path d="M18.6865 4.35205H15.1923L14.9352 6.24199C14.7455 6.33481 14.5633 6.44035 14.3896 6.55747L12.6241 5.83501L10.877 8.86109L12.3855 10.0289C12.3783 10.133 12.3747 10.238 12.3747 10.3437C12.3747 10.4496 12.3784 10.5548 12.3855 10.659L10.8772 11.8267L12.6243 14.8528L14.39 14.1302C14.5635 14.2473 14.7456 14.3527 14.9352 14.4454L15.1923 16.3355H18.6865L18.9437 14.4448C19.133 14.3521 19.3148 14.2467 19.4882 14.1298L21.2549 14.8528L23.002 11.8267L21.4922 10.6579C21.4992 10.554 21.5028 10.4492 21.5028 10.3437C21.5028 10.2384 21.4993 10.1338 21.4922 10.0301L23.0023 8.86103L21.2552 5.83494L19.4886 6.55786C19.3151 6.44085 19.1331 6.33539 18.9436 6.24263L18.6865 4.35205ZM16.3036 7.31138L16.5021 5.85205H17.3767L17.5752 7.31167L17.9983 7.46757C18.3287 7.58935 18.6329 7.76676 18.8993 7.98888L19.246 8.27787L20.6111 7.71926L21.0484 8.47671L19.883 9.37891L19.9588 9.82274C19.9877 9.99157 20.0028 10.1656 20.0028 10.3437C20.0028 10.522 19.9877 10.6961 19.9588 10.8651L19.8828 11.309L21.0481 12.211L20.6108 12.9685L19.2457 12.4099L18.8991 12.6988C18.6327 12.9208 18.3286 13.0981 17.9983 13.2199L17.5752 13.3758L17.3767 14.8355H16.5021L16.3036 13.3761L15.8803 13.2202C15.5498 13.0986 15.2455 12.9212 14.9789 12.6991L14.6323 12.4103L13.2685 12.9684L12.8312 12.211L13.995 11.31L13.9189 10.866C13.8899 10.6967 13.8747 10.5223 13.8747 10.3437C13.8747 10.1653 13.8899 9.99097 13.9189 9.82186L13.9949 9.37791L12.8309 8.47678L13.2682 7.71932L14.632 8.27742L14.9787 7.98855C15.2453 7.76635 15.5497 7.58892 15.8803 7.4672L16.3036 7.31138Z" fill="black"/>
<path d="M9.77838 6.55696C10.0848 6.25053 10.4705 6.04161 10.8873 5.95019C10.2706 6.79815 9.82775 7.78072 9.61115 8.84551L7.11781 11.3389L3.5029 12.0618C2.91862 12.1787 2.49805 12.6917 2.49805 13.2876V15.8979H4.84256C5.17559 14.604 6.35017 13.6479 7.74805 13.6479C9.14593 13.6479 10.3205 14.604 10.6535 15.8979H11.9309C12.6557 16.552 13.5091 17.0662 14.4487 17.3979H10.6535C10.3205 18.6919 9.14593 19.6479 7.74805 19.6479C6.35017 19.6479 5.17559 18.6919 4.84256 17.3979H1.74805C1.33383 17.3979 0.998047 17.0622 0.998047 16.6479V13.2876C0.998047 11.9767 1.92331 10.848 3.20873 10.591L6.37829 9.95705L9.77838 6.55696ZM6.24805 16.6479C6.24805 17.4764 6.91962 18.1479 7.74805 18.1479C8.57647 18.1479 9.24805 17.4764 9.24805 16.6479C9.24805 15.8195 8.57647 15.1479 7.74805 15.1479C6.91962 15.1479 6.24805 15.8195 6.24805 16.6479Z" fill="black"/>
</svg>
