<svg width="24" height="24" viewBox="0 0 24 24" fill="none" xmlns="http://www.w3.org/2000/svg">
<path d="M13.9873 2.38894C13.6059 2.11691 13.1491 1.9707 12.6807 1.9707H5.96495C5.32086 1.9707 4.70765 2.24673 4.28061 2.72889L1.56566 5.79422C1.20121 6.2057 1 6.73636 1 7.28603V11.3746C1 11.5735 1.07903 11.7643 1.2197 11.905C1.36037 12.0456 1.55115 12.1246 1.75008 12.1246L3.7679 12.1245C4.09072 13.214 5.09928 14.0088 6.29348 14.0088C7.48765 14.0088 8.49612 13.214 8.81899 12.1246H15.6213C15.9441 13.214 16.9526 14.0087 18.1468 14.0087C19.3409 14.0087 20.3494 13.214 20.6723 12.1246H22.2493C22.6635 12.1246 22.9993 11.7888 22.9993 11.3746V8.42484C22.9993 7.85974 22.8039 7.28864 22.4856 6.83068C22.168 6.37366 21.68 5.96432 21.0503 5.83837L21.0369 5.83569L18.0652 5.29772L13.9873 2.38894ZM19.2798 11.415C19.2587 12.0226 18.7595 12.5087 18.1468 12.5087C17.5206 12.5087 17.0123 12.0008 17.0123 11.3746C17.0123 10.7485 17.5199 10.2409 18.1461 10.2409C18.7722 10.2409 19.2798 10.7485 19.2798 11.3746V11.415ZM7.42653 11.415C7.40543 12.0226 6.90615 12.5088 6.29348 12.5088C5.66733 12.5088 5.15904 12.0006 5.15904 11.3745C5.15904 10.7483 5.66664 10.2407 6.29278 10.2407C6.91886 10.2407 7.42653 10.7484 7.42653 11.3746V11.415ZM12.6807 3.4707C12.8368 3.4707 12.9891 3.51944 13.1162 3.61011L15.4687 5.28809H10.5442V3.4707H12.6807ZM9.04418 3.4707V5.28809H4.0177L5.4035 3.72343C5.54585 3.56271 5.75025 3.4707 5.96495 3.4707H9.04418ZM17.8655 6.78809V6.78593L20.7612 7.3103C20.9132 7.34246 21.0959 7.45948 21.2539 7.68674C21.4129 7.91561 21.4993 8.19176 21.4993 8.42484V10.6246H20.6715C20.3485 9.5354 19.3401 8.74086 18.1461 8.74086C16.9521 8.74086 15.9436 9.5354 15.6207 10.6246H8.8182C8.49523 9.53539 7.48684 8.74072 6.29278 8.74072C5.09878 8.74072 4.09035 9.53526 3.76736 10.6245L2.5 10.6245V7.28603C2.5 7.10281 2.56707 6.92592 2.68855 6.78876L17.8655 6.78809Z" fill="black"/>
<path d="M1.87891 17.167H3.29228V20.7793H1.87891V22.0293H5.95566V20.7793H4.54228V15.917H1.87891V17.167Z" fill="black"/>
<path d="M7.72656 15.917C7.38138 15.917 7.10156 16.1968 7.10156 16.542V22.0156H8.35156V19.5997H10.4989V22.0156H11.7489V16.542C11.7489 16.1968 11.469 15.917 11.1239 15.917H7.72656ZM10.4989 18.3497H8.35156V17.167H10.4989V18.3497Z" fill="black"/>
<path d="M12.8457 17.167H15.618V18.3481H12.9002V22.0293H16.9225V20.7793H14.1502V19.5981H16.868V15.917H12.8457V17.167Z" fill="black"/>
<path d="M20.8856 17.167H18.1133V15.917H22.1356V22.0293H18.1133V20.7793H20.8856V19.5981H18.1133V18.3481H20.8856V17.167Z" fill="black"/>
</svg>
