<svg width="24" height="24" viewBox="0 0 24 24" fill="none" xmlns="http://www.w3.org/2000/svg">
<path d="M13.9844 3.18799C13.6035 2.91553 13.1465 2.76953 12.6797 2.76953H5.96289C5.31836 2.76953 4.70508 3.04541 4.2793 3.52783L1.56445 6.59326C1.19922 7.00439 0.998047 7.53516 0.998047 8.08496V12.1733C0.998047 12.3726 1.07617 12.563 1.2168 12.7036C1.35938 12.8442 1.54883 12.9233 1.74805 12.9233H5.15625V12.1733C5.15625 11.5474 5.66406 11.0396 6.29102 11.0396C6.91602 11.0396 7.42383 11.5474 7.42383 12.1733V12.9233H17.0098V12.1733C17.0098 11.5474 17.5176 11.0396 18.1445 11.0396C18.7695 11.0396 19.2773 11.5474 19.2773 12.1733V12.9233H22.248C22.6621 12.9233 22.998 12.5874 22.998 12.1733V9.22363C22.998 8.65869 22.8027 8.0874 22.4844 7.62939C22.166 7.17236 21.6777 6.76318 21.0352 6.63428L18.0625 6.09668L13.9844 3.18799ZM12.6797 4.26953C12.834 4.26953 12.9863 4.31836 13.1133 4.40918L15.4668 6.08691H10.543V4.26953H12.6797ZM9.04297 4.26953V6.08691H4.01562L5.40234 4.52246C5.4707 4.44336 5.55664 4.38086 5.65039 4.33789C5.74805 4.29346 5.85352 4.26953 5.96289 4.26953H9.04297ZM17.8633 7.58691L20.7598 8.10889C20.9121 8.14111 21.0938 8.2583 21.252 8.48535C21.4102 8.71436 21.498 8.99072 21.498 9.22363V11.4233H20.6699C20.3457 10.334 19.3379 9.53955 18.1445 9.53955C16.9492 9.53955 15.9414 10.334 15.6191 11.4233H8.81641C8.49414 10.334 7.48438 9.53955 6.29102 9.53955C5.09766 9.53955 4.08789 10.334 3.76562 11.4233H2.49805V8.08496C2.49805 7.90186 2.56445 7.72461 2.6875 7.5874L17.8633 7.58691Z" fill="black"/>
<path d="M20.0059 16.7378H0.998047V15.2378H20.0059C21.6602 15.2378 23.002 16.5791 23.002 18.2344C23.002 19.8892 21.6602 21.2305 20.0059 21.2305H0.998047V19.7305H20.0059C20.832 19.7305 21.502 19.0605 21.502 18.2344C21.502 17.9351 21.4141 17.6567 21.2637 17.4229C21.2109 17.3403 21.1484 17.2632 21.0801 17.1929L20.9941 17.1094L20.9336 17.0591C20.8984 17.0308 20.8594 17.0039 20.8203 16.979L20.7461 16.9331C20.5273 16.8091 20.2754 16.7378 20.0059 16.7378Z" fill="black"/>
<path d="M16.2129 18.9844C16.627 18.9844 16.9629 18.6484 16.9629 18.2344C16.9629 18.1021 16.9277 17.9775 16.8672 17.8696C16.8496 17.8374 16.8301 17.8066 16.8047 17.7773L16.7812 17.7471C16.7266 17.6831 16.6621 17.6284 16.5898 17.5859C16.5176 17.5439 16.4375 17.5132 16.3516 17.4971L16.3008 17.4897L16.2129 17.4844C15.916 17.4844 15.6602 17.6567 15.5391 17.9072C15.4902 18.0063 15.4629 18.1172 15.4629 18.2344C15.4629 18.6484 15.7988 18.9844 16.2129 18.9844Z" fill="black"/>
<path d="M20.002 18.2344C20.002 18.6484 19.666 18.9844 19.252 18.9844C18.8379 18.9844 18.502 18.6484 18.502 18.2344C18.502 17.8203 18.8379 17.4844 19.252 17.4844C19.666 17.4844 20.002 17.8203 20.002 18.2344Z" fill="black"/>
<path d="M13.1699 18.9844C13.3809 18.9844 13.5723 18.8965 13.709 18.7554C13.8398 18.6201 13.9199 18.4365 13.9199 18.2344C13.9199 18.0757 13.8711 17.9282 13.7871 17.8071C13.7324 17.728 13.6621 17.6597 13.5801 17.6064L13.5254 17.5737C13.4785 17.5483 13.4277 17.5278 13.375 17.5127C13.3105 17.4941 13.2422 17.4844 13.1699 17.4844C13.0527 17.4844 12.9414 17.5112 12.8418 17.5591C12.7852 17.5869 12.7324 17.6221 12.6836 17.6631C12.5938 17.7393 12.5215 17.8364 12.4766 17.9468C12.4629 17.98 12.4512 18.0142 12.4434 18.0493C12.4277 18.1084 12.4199 18.1704 12.4199 18.2344L12.4219 18.3047C12.4297 18.3789 12.4473 18.4502 12.4746 18.5171C12.5234 18.6401 12.6055 18.7471 12.709 18.8271C12.8359 18.9258 12.9961 18.9844 13.1699 18.9844Z" fill="black"/>
<path d="M10.5781 18.8335C10.4531 18.9282 10.2969 18.9844 10.127 18.9844C9.71289 18.9844 9.37695 18.6484 9.37695 18.2344C9.37695 17.9922 9.49219 17.7764 9.66992 17.6392C9.79688 17.542 9.95508 17.4844 10.127 17.4844C10.2012 17.4844 10.2715 17.4951 10.3398 17.5151C10.3809 17.5269 10.4199 17.542 10.457 17.5605C10.5039 17.584 10.5488 17.6123 10.5898 17.6445C10.7656 17.7817 10.877 17.9951 10.877 18.2344C10.877 18.3506 10.8516 18.4604 10.8047 18.5586C10.752 18.6675 10.6738 18.7617 10.5781 18.8335Z" fill="black"/>
<path d="M7.08398 18.9844C7.27539 18.9844 7.45117 18.9121 7.58398 18.7935C7.68359 18.7051 7.75977 18.5908 7.80078 18.4614C7.82227 18.3896 7.83398 18.3135 7.83398 18.2344C7.83398 17.8203 7.49805 17.4844 7.08398 17.4844C6.66992 17.4844 6.33398 17.8203 6.33398 18.2344C6.33398 18.6484 6.66992 18.9844 7.08398 18.9844Z" fill="black"/>
<path d="M4.53906 18.7944C4.50781 18.8218 4.47461 18.8467 4.43945 18.8687C4.32422 18.9419 4.1875 18.9844 4.04102 18.9844C3.62695 18.9844 3.29102 18.6484 3.29102 18.2344C3.29102 17.8203 3.62695 17.4844 4.04102 17.4844C4.45508 17.4844 4.79102 17.8203 4.79102 18.2344C4.79102 18.457 4.69336 18.6567 4.53906 18.7944Z" fill="black"/>
<path d="M1.74805 18.2344C1.74805 18.6484 1.41211 18.9844 0.998047 18.9844V17.4844C1.41211 17.4844 1.74805 17.8203 1.74805 18.2344Z" fill="black"/>
</svg>
