<svg width="24" height="24" viewBox="0 0 24 24" fill="none" xmlns="http://www.w3.org/2000/svg">
<path d="M13.9873 2.95437C13.6059 2.68234 13.1491 2.53613 12.6807 2.53613H5.96495C5.32086 2.53613 4.70765 2.81216 4.28061 3.29432L1.56566 6.35965C1.20121 6.77113 1 7.30179 1 7.85146V11.94C1 12.139 1.07903 12.3297 1.2197 12.4704C1.36037 12.611 1.55115 12.6901 1.75008 12.69L5.15904 12.6899V11.9399C5.15904 11.3137 5.66664 10.8062 6.29278 10.8062C6.91886 10.8062 7.42653 11.3138 7.42653 11.94V12.69H17.0123V11.94C17.0123 11.3139 17.5199 10.8063 18.1461 10.8063C18.7722 10.8063 19.2798 11.3139 19.2798 11.94V12.69H22.2493C22.6635 12.69 22.9993 12.3542 22.9993 11.94V8.99027C22.9993 8.42517 22.8039 7.85407 22.4856 7.3961C22.168 6.93909 21.68 6.52975 21.0503 6.4038L21.0369 6.40112L18.0652 5.86315L13.9873 2.95437ZM12.6807 4.03613C12.8368 4.03613 12.9891 4.08487 13.1162 4.17554L15.4687 5.85352H10.5442V4.03613H12.6807ZM9.04418 4.03613V5.85352H4.0177L5.4035 4.28886C5.54585 4.12814 5.75025 4.03613 5.96495 4.03613H9.04418ZM17.8655 7.35352V7.35136L20.7612 7.87573C20.9132 7.90789 21.0959 8.02491 21.2539 8.25217C21.4129 8.48104 21.4993 8.75719 21.4993 8.99027V11.19H20.6715C20.3485 10.1008 19.3401 9.30629 18.1461 9.30629C16.9521 9.30629 15.9436 10.1008 15.6207 11.19H8.8182C8.49523 10.1008 7.48684 9.30615 6.29278 9.30615C5.09878 9.30615 4.09035 10.1007 3.76736 11.1899L2.5 11.19V7.85146C2.5 7.66824 2.56707 7.49135 2.68855 7.35419L17.8655 7.35352Z" fill="black"/>
<path d="M15.6004 18.1787C15.8816 17.0111 16.9329 16.1436 18.1868 16.1436C19.6559 16.1436 20.8469 17.3345 20.8469 18.8037C20.8469 20.2729 19.6559 21.4639 18.1868 21.4639C16.9329 21.4639 15.8816 20.5963 15.6004 19.4287H13.3535C13.1335 19.8248 12.711 20.0928 12.2258 20.0928C11.7407 20.0928 11.3181 19.8248 11.0981 19.4287H8.85121C8.57006 20.5963 7.51879 21.4639 6.26488 21.4639C4.79572 21.4639 3.60473 20.2729 3.60473 18.8037C3.60473 17.3345 4.79572 16.1436 6.26488 16.1436C7.51879 16.1436 8.57006 17.0111 8.85121 18.1787H11.0981C11.3181 17.7827 11.7407 17.5146 12.2258 17.5146C12.711 17.5146 13.1335 17.7827 13.3535 18.1787H15.6004ZM18.1868 17.6436C17.546 17.6436 17.0266 18.163 17.0266 18.8037C17.0266 19.4444 17.546 19.9639 18.1868 19.9639C18.8275 19.9639 19.3469 19.4444 19.3469 18.8037C19.3469 18.163 18.8275 17.6436 18.1868 17.6436ZM5.10473 18.8037C5.10473 19.4444 5.62415 19.9639 6.26488 19.9639C6.90562 19.9639 7.42504 19.4444 7.42504 18.8037C7.42504 18.163 6.90562 17.6436 6.26488 17.6436C5.62415 17.6436 5.10473 18.163 5.10473 18.8037Z" fill="black"/>
</svg>
