<svg width="24" height="24" viewBox="0 0 24 24" fill="none" xmlns="http://www.w3.org/2000/svg">
<path d="M5.54825 12.2757L6.60891 13.3364L9.7832 10.1621L6.60891 6.98779L5.54825 8.04845L6.91234 9.41254L4.15039 9.41254V10.9125L6.91142 10.9125L5.54825 12.2757Z" fill="black"/>
<path d="M6.67773 15.8403C9.81346 15.8403 12.3555 13.2983 12.3555 10.1626C12.3555 7.02687 9.81346 4.48486 6.67773 4.48486C3.54201 4.48486 1 7.02687 1 10.1626C1 13.2983 3.54201 15.8403 6.67773 15.8403ZM6.67773 14.3403C4.37044 14.3403 2.5 12.4699 2.5 10.1626C2.5 7.8553 4.37044 5.98486 6.67773 5.98486C8.98503 5.98486 10.8555 7.8553 10.8555 10.1626C10.8555 12.4699 8.98503 14.3403 6.67773 14.3403Z" fill="black"/>
<path d="M13.3453 17.2661H7.71387C9.00776 17.0791 10.1899 16.547 11.1639 15.7661H13.3453C13.6784 14.4722 14.8529 13.5161 16.2508 13.5161C17.6487 13.5161 18.8233 14.4722 19.1563 15.7661H21.5008V13.1557C21.5008 12.5599 21.0802 12.0469 20.496 11.93L16.8811 11.207L13.4487 7.77467C13.1909 7.04364 12.8181 6.36687 12.352 5.76611H12.6295C13.2262 5.76611 13.7985 6.00317 14.2205 6.42512L17.6206 9.82521L20.7901 10.4591C22.0756 10.7162 23.0008 11.8448 23.0008 13.1557V16.5161C23.0008 16.9303 22.665 17.2661 22.2508 17.2661H19.1563C18.8233 18.56 17.6487 19.5161 16.2508 19.5161C14.8529 19.5161 13.6784 18.56 13.3453 17.2661ZM17.7508 16.5161C17.7508 15.6877 17.0793 15.0161 16.2508 15.0161C15.4224 15.0161 14.7508 15.6877 14.7508 16.5161C14.7508 17.3445 15.4224 18.0161 16.2508 18.0161C17.0793 18.0161 17.7508 17.3445 17.7508 16.5161Z" fill="black"/>
</svg>
