<svg width="24" height="24" viewBox="0 0 24 24" fill="none" xmlns="http://www.w3.org/2000/svg">
<path d="M14.0606 15.1779C14.4278 15.1779 14.7255 14.8802 14.7255 14.513C14.7255 14.1458 14.4278 13.8481 14.0606 13.8481C13.6934 13.8481 13.3957 14.1458 13.3957 14.513C13.3957 14.8802 13.6934 15.1779 14.0606 15.1779Z" fill="black"/>
<path d="M10.6052 14.513C10.6052 14.8802 10.3075 15.1779 9.94028 15.1779C9.57307 15.1779 9.27539 14.8802 9.27539 14.513C9.27539 14.1458 9.57307 13.8481 9.94028 13.8481C10.3075 13.8481 10.6052 14.1458 10.6052 14.513Z" fill="black"/>
<path d="M14.9803 17.1292V16.8477H9.01968V17.1292C9.01968 17.5297 8.69508 17.8542 8.29468 17.8542H8.1C7.69952 17.8542 7.3749 17.5295 7.375 17.1291L7.37597 13.1452L8.37499 10.3878C8.5363 9.94255 8.95916 9.646 9.43272 9.646H14.5672C15.0408 9.646 15.4636 9.94255 15.625 10.3878L16.624 13.1452L16.625 17.1291C16.625 17.5295 16.3004 17.8542 15.9 17.8542H15.7053C15.3049 17.8542 14.9803 17.5297 14.9803 17.1292ZM9.04673 12.2033H14.9532L14.4796 10.896H9.52038L9.04673 12.2033ZM8.6259 13.4533L8.62537 15.5977H15.3746L15.3741 13.4533H8.6259Z" fill="black"/>
<path d="M3.35547 4.82178C3.28711 5.03564 3.25 5.26367 3.25 5.5V18.5C3.25 19.7427 4.25781 20.75 5.5 20.75H18.5C19.7422 20.75 20.75 19.7427 20.75 18.5V5.5C20.75 4.25732 19.7422 3.25 18.5 3.25H5.5C4.49414 3.25 3.64258 3.91064 3.35547 4.82178ZM4.75 5.5C4.75 5.08594 5.08594 4.75 5.5 4.75H18.5C18.6953 4.75 18.873 4.82471 19.0059 4.94678C19.0742 5.00879 19.1309 5.08301 19.1719 5.16602C19.1973 5.21436 19.2168 5.26611 19.2285 5.31982C19.2422 5.37744 19.25 5.43799 19.25 5.5V6.75H4.75V5.5ZM5.5 19.25C5.08594 19.25 4.75 18.9141 4.75 18.5V8.25H19.25V18.5C19.25 18.9141 18.9141 19.25 18.5 19.25H5.5Z" fill="black"/>
</svg>
