<svg width="24" height="24" viewBox="0 0 24 24" fill="none" xmlns="http://www.w3.org/2000/svg">
<path d="M3.60189 13.6846H9.59257C9.60294 13.1208 9.67869 12.573 9.81255 12.0485H3.0858L3.08649 9.24195H11.252C11.7794 8.61175 12.4135 8.07397 13.1266 7.65642L12.2474 5.22966C12.0362 4.64692 11.4828 4.25879 10.8629 4.25879H4.14251C3.52268 4.25879 2.96922 4.64692 2.75809 5.22966L1.45049 8.83868L1.44922 14.0528C1.44909 14.577 1.87398 15.002 2.39815 15.002H2.65296C3.17704 15.002 3.60189 14.5771 3.60189 14.0531V13.6846ZM10.7482 5.89482L11.3682 7.60592H3.6373L4.25725 5.89482H10.7482Z" fill="black"/>
<path d="M9.98591 11.4726C10.1748 10.9297 10.4274 10.4167 10.7348 9.94244C10.5872 9.82724 10.4015 9.7586 10.1998 9.7586C9.71917 9.7586 9.32954 10.1482 9.32954 10.6288C9.32954 11.0356 9.6087 11.3772 9.98591 11.4726Z" fill="black"/>
<path d="M4.80684 11.4991C5.28747 11.4991 5.67709 11.1095 5.67709 10.6289C5.67709 10.1483 5.28747 9.75868 4.80684 9.75868C4.32622 9.75868 3.93659 10.1483 3.93659 10.6289C3.93659 11.1095 4.32622 11.4991 4.80684 11.4991Z" fill="black"/>
<path d="M19.7022 15.8319L18.6415 16.8925L16.6283 14.8794L14.6154 16.8925L13.5547 15.8319L15.5677 13.8188L13.5548 11.806L14.6154 10.7453L16.6283 12.7581L18.6412 10.7451L19.7019 11.8058L17.689 13.8188L19.7022 15.8319Z" fill="black"/>
<path d="M10.7051 13.8185C10.7051 10.5476 13.3567 7.896 16.6276 7.896C19.8985 7.896 22.5501 10.5476 22.5501 13.8185C22.5501 17.0894 19.8985 19.741 16.6276 19.741C13.3567 19.741 10.7051 17.0894 10.7051 13.8185ZM16.6276 9.396C14.1851 9.396 12.2051 11.376 12.2051 13.8185C12.2051 16.261 14.1851 18.241 16.6276 18.241C19.0701 18.241 21.0501 16.261 21.0501 13.8185C21.0501 11.376 19.0701 9.396 16.6276 9.396Z" fill="black"/>
</svg>
