<svg width="24" height="24" viewBox="0 0 24 24" fill="none" xmlns="http://www.w3.org/2000/svg">
<path d="M7.96507 16.755L8.7735 17.0111C9.76448 17.325 10.853 17.5 12 17.5C17.0241 17.5 20.5 14.2948 20.5 11C20.5 7.7052 17.0241 4.5 12 4.5C6.97593 4.5 3.5 7.7052 3.5 11C3.5 12.6329 4.3036 14.1911 5.75884 15.3983L6.48744 16.0027L6.25538 16.9205C6.10049 17.5331 5.89265 18.091 5.65202 18.5995C6.18578 18.2764 6.71535 17.8563 7.32885 17.3157L7.96507 16.755ZM4.25634 20.768C3.59782 20.9197 2.85932 21 2 21C2.45004 20.55 2.95495 20.029 3.42252 19.401C3.9939 18.6335 4.50952 17.7061 4.80115 16.5528C3.06674 15.114 2 13.1567 2 11C2 6.58172 6.47715 3 12 3C17.5228 3 22 6.58172 22 11C22 15.4183 17.5228 19 12 19C10.7008 19 9.4594 18.8018 8.32058 18.4411C7.04106 19.5686 5.89684 20.39 4.25634 20.768Z" fill="black"/>
</svg>
