<svg width="24" height="24" viewBox="0 0 24 24" fill="none" xmlns="http://www.w3.org/2000/svg">
<path d="M19.0032 7.34717C20.7006 7.34717 22.0767 5.97112 22.0767 4.27368C22.0767 2.57624 20.7006 1.2002 19.0032 1.2002C17.3057 1.2002 15.9297 2.57624 15.9297 4.27368C15.9297 5.97112 17.3057 7.34717 19.0032 7.34717Z" fill="black"/>
<path d="M20.5 15.7797V9.12275C21.0449 8.95475 21.5506 8.69745 22 8.36792V15.7797C22 17.0223 20.9926 18.0297 19.75 18.0297H5.79455L2 21.8242V4.42969C2 3.18705 3.00736 2.17969 4.25 2.17969H14.3806C14.1689 2.64626 14.0258 3.15054 13.9641 3.67969H4.25C3.83579 3.67969 3.5 4.01548 3.5 4.42969V18.2029L5.17323 16.5297H19.75C20.1642 16.5297 20.5 16.1939 20.5 15.7797Z" fill="black"/>
<path d="M15.0659 7.47363C14.7047 7.0297 14.417 6.52351 14.2215 5.97363L5.84473 5.97363L5.84473 7.47363L15.0659 7.47363Z" fill="black"/>
<path d="M5.84473 10.8486L18.1455 10.8486V9.34863L5.84473 9.34863L5.84473 10.8486Z" fill="black"/>
<path d="M5.84473 14.2234L14.1055 14.2234V12.7234L5.84473 12.7234L5.84473 14.2234Z" fill="black"/>
</svg>
