<svg width="24" height="24" viewBox="0 0 24 24" fill="none" xmlns="http://www.w3.org/2000/svg">
<path d="M19.0029 7.34717C20.7002 7.34717 22.0762 5.97119 22.0762 4.27368C22.0762 2.57617 20.7002 1.2002 19.0029 1.2002C17.3057 1.2002 15.9297 2.57617 15.9297 4.27368C15.9297 5.97119 17.3057 7.34717 19.0029 7.34717Z" fill="black"/>
<path d="M20.5 15.7798V9.1228C21.0449 8.95483 21.5508 8.69751 22 8.36792V15.7798C22 17.0222 20.9922 18.0298 19.75 18.0298H5.79492L2 21.8242V4.42969C2 3.18701 3.00781 2.17969 4.25 2.17969H14.3809C14.1689 2.64624 14.0254 3.15063 13.9639 3.67969H4.25C3.83594 3.67969 3.5 4.01538 3.5 4.42969V18.2029L5.17285 16.5298H19.75C19.96 16.5298 20.1504 16.4431 20.2871 16.3037C20.4189 16.1685 20.5 15.9836 20.5 15.7798Z" fill="black"/>
</svg>
