<svg width="24" height="24" viewBox="0 0 24 24" fill="none" xmlns="http://www.w3.org/2000/svg">
<path d="M8.7168 11.5928C8.84766 11.4204 8.9248 11.2061 8.9248 10.9736C8.9248 10.5547 8.67383 10.1948 8.31445 10.0352C8.1875 9.97852 8.04688 9.94727 7.89844 9.94727C7.33203 9.94727 6.87207 10.4067 6.87207 10.9736C6.87207 11.2256 6.96289 11.4565 7.11328 11.6353C7.25586 11.8037 7.45117 11.9258 7.67383 11.9756C7.74609 11.9917 7.82129 12 7.89844 12C8.23242 12 8.5293 11.8403 8.7168 11.5928Z" fill="black"/>
<path d="M13.0264 10.9736C13.0264 11.5405 12.5664 12 12 12C11.4336 12 10.9736 11.5405 10.9736 10.9736C10.9736 10.8071 11.0127 10.6504 11.083 10.5117C11.1504 10.3779 11.2471 10.2607 11.3643 10.1685C11.5391 10.0298 11.7598 9.94727 12 9.94727C12.5664 9.94727 13.0264 10.4067 13.0264 10.9736Z" fill="black"/>
<path d="M16.1016 12C16.668 12 17.1279 11.5405 17.1279 10.9736C17.1279 10.4067 16.668 9.94727 16.1016 9.94727C15.5352 9.94727 15.0752 10.4067 15.0752 10.9736C15.0752 11.5405 15.5352 12 16.1016 12Z" fill="black"/>
<path d="M2.62109 20.9854C2.8291 20.9751 3.03027 20.9595 3.22363 20.939C3.58984 20.8999 3.93262 20.8428 4.25586 20.7681C5.89648 20.3901 7.04102 19.5688 8.32031 18.4409C9.45898 18.8018 10.7012 19 12 19C17.5225 19 22 15.4185 22 11C22 6.58154 17.5225 3 12 3C6.47754 3 2 6.58154 2 11C2 13.1567 3.06641 15.1138 4.80078 16.5527C4.69141 16.9863 4.55078 17.3882 4.38672 17.7612C4.11426 18.3809 3.7793 18.9219 3.42285 19.4009C3.29199 19.5757 3.15918 19.7422 3.02539 19.9014C2.77734 20.1953 2.52734 20.4634 2.28711 20.7104L2 21C2.21387 21 2.4209 20.9951 2.62109 20.9854ZM8.77344 17.0112L7.96484 16.7549L7.3291 17.3159C6.89453 17.6992 6.50098 18.022 6.11914 18.2925C5.96289 18.4033 5.80762 18.5054 5.65234 18.5996C5.89258 18.0908 6.10059 17.5332 6.25586 16.9204L6.4873 16.0024L5.75879 15.3984C4.30371 14.1909 3.5 12.6328 3.5 11C3.5 7.70508 6.97559 4.5 12 4.5C17.0244 4.5 20.5 7.70508 20.5 11C20.5 14.2949 17.0244 17.5 12 17.5C11.6562 17.5 11.3174 17.4844 10.9844 17.4541C10.7568 17.4331 10.5322 17.4053 10.3105 17.3706C9.77734 17.2876 9.26367 17.1665 8.77344 17.0112Z" fill="black"/>
</svg>
