<svg width="24" height="24" viewBox="0 0 24 24" fill="none" xmlns="http://www.w3.org/2000/svg">
<path d="M20.1154 8.48066C18.3193 4.73283 13.8251 3.15059 10.0773 4.94664C7.44272 6.2092 5.87706 8.80595 5.80496 11.5405L7.67338 9.93882L8.64964 11.0776L4.88993 14.3007L1.64062 10.5103L2.77945 9.53402L4.31208 11.3219C4.46116 8.11067 6.32536 5.08131 9.42906 3.59395C13.924 1.43989 19.314 3.33751 21.4681 7.83242C23.6221 12.3273 21.7245 17.7174 17.2296 19.8714C16.9706 19.9956 16.7086 20.1062 16.4444 20.2037C16.9044 19.4839 17.2953 18.7595 17.6642 17.8852C20.6181 15.8093 21.7273 11.8444 20.1154 8.48066Z" fill="black"/>
<path d="M14.4633 20.444C14.4001 20.5317 14.3353 20.6207 14.269 20.7112C14.229 20.7657 14.1877 20.8209 14.1465 20.8766L13.8374 21.2945L5.22281 18.8356L6.05461 17.9397C6.12884 17.8597 6.20201 17.7812 6.27351 17.7044C6.91392 17.017 7.44792 16.4437 7.93783 15.725C8.24338 15.2768 8.53478 14.7665 8.81397 14.1359L16.6435 16.3706C16.2724 17.4045 15.9014 18.1944 15.4526 18.9532C15.1622 19.444 14.84 19.9216 14.4633 20.444ZM7.9833 18.0637L13.2467 19.566C13.8078 18.7885 14.2335 18.13 14.6133 17.3511L9.58906 15.9171C9.45559 16.1463 9.3184 16.3629 9.17725 16.5699C8.95316 16.8987 8.72019 17.2014 8.48072 17.4899C8.35083 17.6463 8.21941 17.7989 8.08608 17.9488C8.05192 17.9873 8.01766 18.0255 7.9833 18.0637Z" fill="black"/>
<path d="M14.3202 12.5948L16.0345 6.5886L14.5921 6.17691L12.8778 12.1831L10.971 11.6389C10.3001 11.4474 9.62337 11.8418 9.42503 12.4814C9.37303 12.6491 9.3206 12.8103 9.26774 12.9655L17.0375 15.1832C17.0838 15.0335 17.1305 14.8791 17.1778 14.7196C17.3754 14.0526 16.988 13.3563 16.3236 13.1667L14.3202 12.5948Z" fill="black"/>
</svg>
