<svg width="24" height="24" viewBox="0 0 24 24" fill="none" xmlns="http://www.w3.org/2000/svg">
<path d="M7 8.66455H17V7.16455H7V8.66455Z" fill="black"/>
<path d="M17 12.7705H7V11.2705H17V12.7705Z" fill="black"/>
<path d="M7 16.8762H14V15.3762H7V16.8762Z" fill="black"/>
<path d="M18.75 3.11854H14.8415C14.6193 1.71868 13.3801 0.72998 12.0009 0.72998C10.6217 0.72998 9.38251 1.71868 9.16033 3.11854H5.25C4.00736 3.11854 3 4.13668 3 5.39261V18.7196C3 19.9755 4.00736 20.9937 5.25 20.9937H18.75C19.9926 20.9937 21 19.9755 21 18.7196V5.39261C21 4.13668 19.9926 3.11854 18.75 3.11854ZM5.25 4.63459H18.75C19.1642 4.63459 19.5 4.97397 19.5 5.39261V18.7196C19.5 19.1382 19.1642 19.4776 18.75 19.4776H5.25C4.83579 19.4776 4.5 19.1382 4.5 18.7196V5.39261C4.5 4.97397 4.83579 4.63459 5.25 4.63459ZM11.25 2.95902C11.25 2.58049 11.55 2.20112 12.0003 2.20112C12.4506 2.20112 12.7506 2.58049 12.7506 2.95902C12.7506 3.33755 12.4506 3.71692 12.0003 3.71692C11.55 3.71692 11.25 3.33755 11.25 2.95902Z" fill="black"/>
</svg>
