<svg width="24" height="24" viewBox="0 0 24 24" fill="none" xmlns="http://www.w3.org/2000/svg">
<path d="M9.18066 2.85107H14.8193V1.35107H9.18066V2.85107Z" fill="black"/>
<path d="M11.25 14.4233V8.68555H12.75V14.4233H11.25Z" fill="black"/>
<path d="M11.9998 4.77637C7.12589 4.77637 3.1748 8.72745 3.1748 13.6014C3.1748 18.4753 7.12589 22.4264 11.9998 22.4264C16.8737 22.4264 20.8248 18.4753 20.8248 13.6014C20.8248 11.4114 20.0271 9.40773 18.7064 7.8651L20.2198 6.35168L19.1592 5.29102L17.6381 6.81209C16.109 5.54085 14.1437 4.77637 11.9998 4.77637ZM4.6748 13.6014C4.6748 9.55588 7.95432 6.27637 11.9998 6.27637C16.0453 6.27637 19.3248 9.55588 19.3248 13.6014C19.3248 17.6469 16.0453 20.9264 11.9998 20.9264C7.95432 20.9264 4.6748 17.6469 4.6748 13.6014Z" fill="black"/>
</svg>
