<svg width="24" height="24" viewBox="0 0 24 24" fill="none" xmlns="http://www.w3.org/2000/svg">
<path d="M14.993 12.0002L17.6127 9.38046L16.552 8.31982L13.9323 10.9396L11.3127 8.3201L10.2521 9.38078L12.8717 12.0003L10.252 14.6202L11.3126 15.6808L13.9324 13.0609L16.5524 15.6808L17.613 14.6202L14.993 12.0002Z" fill="black"/>
<path d="M9.21104 5.0752C8.48739 5.0752 7.80791 5.42325 7.38508 6.01053L3.07617 11.9952L7.38508 17.98C7.80791 18.5672 8.48739 18.9153 9.21104 18.9153H18.7425C19.9851 18.9153 20.9925 17.9079 20.9925 16.6653V7.3252C20.9925 6.08255 19.9851 5.0752 18.7425 5.0752H9.21104ZM8.60239 6.88697C8.74333 6.69122 8.96983 6.5752 9.21104 6.5752H18.7425C19.1567 6.5752 19.4925 6.91098 19.4925 7.3252V16.6653C19.4925 17.0795 19.1567 17.4153 18.7425 17.4153H9.21104C8.96983 17.4153 8.74333 17.2993 8.60239 17.1035L4.92451 11.9952L8.60239 6.88697Z" fill="black"/>
</svg>
