<svg width="24" height="24" viewBox="0 0 24 24" fill="none" xmlns="http://www.w3.org/2000/svg">
<path d="M5.89844 18.9614C6.46875 18.9614 6.92969 18.5 6.92969 17.9312C6.92969 17.3623 6.46875 16.9009 5.89844 16.9009C5.33008 16.9009 4.86914 17.3623 4.86914 17.9312C4.86914 18.5 5.33008 18.9614 5.89844 18.9614Z" fill="black"/>
<path d="M2.6875 3.6875C2.6875 3.13525 3.13477 2.6875 3.6875 2.6875H8.11133C8.66406 2.6875 9.11133 3.13525 9.11133 3.6875V18.1006C9.11133 19.8745 7.67383 21.3125 5.89844 21.3125C4.125 21.3125 2.6875 19.8745 2.6875 18.1006V3.6875ZM4.1875 18.1006C4.1875 19.0459 4.95312 19.8125 5.89844 19.8125C6.8457 19.8125 7.61133 19.0459 7.61133 18.1006V4.1875H4.1875V18.1006Z" fill="black"/>
<path d="M18.3633 10.1802L10.6113 17.9312V15.8101L16.9492 9.47266L14.5273 7.05176L10.6113 10.9678V8.84668L13.8203 5.6377C13.877 5.58057 13.9395 5.53125 14.0059 5.49121L14.0586 5.46094C14.1973 5.38721 14.3496 5.34814 14.5039 5.34473C14.7676 5.33887 15.0332 5.43652 15.2344 5.6377L18.3633 8.76562C18.7539 9.15625 18.7539 9.78955 18.3633 10.1802Z" fill="black"/>
<path d="M9.35156 21.3125H20.3125C20.8652 21.3125 21.3125 20.8647 21.3125 20.3125V15.8887C21.3125 15.4819 21.0703 15.1323 20.7227 14.9761C20.5977 14.9199 20.459 14.8887 20.3125 14.8887H15.7754L14.2754 16.3887H19.8125V19.8125H10.8516L9.35156 21.3125Z" fill="black"/>
</svg>
