<svg width="24" height="24" viewBox="0 0 24 24" fill="none" xmlns="http://www.w3.org/2000/svg">
<path d="M3.75 2.25C2.7835 2.25 2 3.0335 2 4V6C2 6.9665 2.7835 7.75 3.75 7.75H20.25C21.2165 7.75 22 6.9665 22 6V4C22 3.0335 21.2165 2.25 20.25 2.25H3.75ZM3.5 4C3.5 3.86193 3.61193 3.75 3.75 3.75H20.25C20.3881 3.75 20.5 3.86193 20.5 4V6C20.5 6.13807 20.3881 6.25 20.25 6.25H3.75C3.61193 6.25 3.5 6.13807 3.5 6V4Z" fill="black"/>
<path d="M3.75 9.25C2.7835 9.25 2 10.0335 2 11V13C2 13.9665 2.7835 14.75 3.75 14.75H6.75C7.7165 14.75 8.5 13.9665 8.5 13V11C8.5 10.0335 7.7165 9.25 6.75 9.25H3.75ZM3.5 11C3.5 10.8619 3.61193 10.75 3.75 10.75H6.75C6.88807 10.75 7 10.8619 7 11V13C7 13.1381 6.88807 13.25 6.75 13.25H3.75C3.61193 13.25 3.5 13.1381 3.5 13V11Z" fill="black"/>
<path d="M2 18C2 17.0335 2.7835 16.25 3.75 16.25H6.75C7.7165 16.25 8.5 17.0335 8.5 18V20C8.5 20.9665 7.7165 21.75 6.75 21.75H3.75C2.7835 21.75 2 20.9665 2 20V18ZM3.75 17.75C3.61193 17.75 3.5 17.8619 3.5 18V20C3.5 20.1381 3.61193 20.25 3.75 20.25H6.75C6.88807 20.25 7 20.1381 7 20V18C7 17.8619 6.88807 17.75 6.75 17.75H3.75Z" fill="black"/>
<path d="M10.6152 11.75H21.0117V10.25H10.6152V11.75Z" fill="black"/>
<path d="M21.0117 20.75H10.6152V19.25H21.0117V20.75Z" fill="black"/>
<path d="M10.6152 16.25H21.0117V14.75H10.6152V16.25Z" fill="black"/>
</svg>
