<svg width="24" height="24" viewBox="0 0 24 24" fill="none" xmlns="http://www.w3.org/2000/svg">
<path d="M14.1322 12.0292V11.6781C14.1322 11.2309 13.8903 10.8856 13.6523 10.6583C13.4083 10.4252 13.094 10.2406 12.7629 10.0977C12.0968 9.81022 11.2284 9.63385 10.3199 9.63377C10.3197 9.63377 10.3201 9.63377 10.3199 9.63377H10.1233V9.63652C9.28651 9.65988 8.49425 9.83096 7.87626 10.0977C7.5452 10.2406 7.23085 10.4252 6.98686 10.6583C6.74889 10.8856 6.50694 11.2309 6.50694 11.6781V12.0292L4.75195 12.0292V13.5292H5.42773V19.053H18.5775V13.5292H19.252V12.0292L14.1322 12.0292ZM12.6322 12.0292H8.00694V11.7589C8.01149 11.7542 8.0168 11.7488 8.02297 11.743C8.09706 11.6722 8.24098 11.574 8.47068 11.4749C8.92599 11.2784 9.58875 11.1338 10.3199 11.1338C11.0508 11.1339 11.7133 11.2784 12.1685 11.4749C12.3982 11.574 12.5421 11.6722 12.6162 11.743C12.6223 11.7488 12.6277 11.7542 12.6322 11.7589V12.0292ZM6.92773 17.553V13.5292H17.0775V17.553H6.92773Z" fill="black"/>
<path d="M10.3196 4.94727C9.15573 4.94727 8.21222 5.89077 8.21222 7.05465C8.21222 8.21852 9.15573 9.16203 10.3196 9.16203C11.4835 9.16203 12.427 8.21852 12.427 7.05465C12.427 5.89077 11.4835 4.94727 10.3196 4.94727ZM9.71222 7.05465C9.71222 6.7192 9.98416 6.44727 10.3196 6.44727C10.6551 6.44727 10.927 6.7192 10.927 7.05465C10.927 7.39009 10.6551 7.66203 10.3196 7.66203C9.98416 7.66203 9.71222 7.39009 9.71222 7.05465Z" fill="black"/>
<path d="M4.25195 2C3.00931 2 2.00195 3.00736 2.00195 4.25V19.75C2.00195 20.9926 3.00931 22 4.25195 22H19.752C20.9946 22 22.002 20.9926 22.002 19.75V4.25C22.002 3.00736 20.9946 2 19.752 2H4.25195ZM3.50195 4.25C3.50195 3.83579 3.83774 3.5 4.25195 3.5H19.752C20.1662 3.5 20.502 3.83579 20.502 4.25V19.75C20.502 20.1642 20.1662 20.5 19.752 20.5H4.25195C3.83774 20.5 3.50195 20.1642 3.50195 19.75V4.25Z" fill="black"/>
</svg>
