<svg width="24" height="24" viewBox="0 0 24 24" fill="none" xmlns="http://www.w3.org/2000/svg">
<path d="M14.3376 6.72974H7.74805V18.2524H9.24805V13.2502H11.8652L12.8616 15.2416L18.2588 15.2654V8.75895L15.3324 8.73851L14.3376 6.72974ZM12.7919 11.7502H9.24805V8.22974H13.4066L14.3982 10.232L16.7588 10.2485V13.7588L13.7904 13.7457L12.7919 11.7502Z" fill="black"/>
<path d="M11.9998 2C17.5225 2 21.9995 6.47704 21.9995 11.9998C21.9995 17.5225 17.5225 21.9995 11.9998 21.9995C6.47704 21.9995 2 17.5225 2 11.9998C2 6.47704 6.47704 2 11.9998 2ZM3.5 11.9998C3.5 16.694 7.30547 20.4995 11.9998 20.4995C16.694 20.4995 20.4995 16.694 20.4995 11.9998C20.4995 7.30547 16.694 3.5 11.9998 3.5C7.30547 3.5 3.5 7.30547 3.5 11.9998Z" fill="black"/>
</svg>
