<svg width="24" height="24" viewBox="0 0 24 24" fill="none" xmlns="http://www.w3.org/2000/svg">
<path d="M12.8752 5.32837C12.8752 5.79665 12.4821 6.17626 11.9972 6.17626C11.5122 6.17626 11.1191 5.79665 11.1191 5.32837C11.1191 4.86009 11.5122 4.48047 11.9972 4.48047C12.4821 4.48047 12.8752 4.86009 12.8752 5.32837Z" fill="black"/>
<path d="M8.55664 5.29605C8.55664 3.43583 10.1394 1.99902 12.0016 1.99902H12.1292L12.1376 2.00196C13.9426 2.06932 15.4407 3.48311 15.4407 5.29605C15.4407 6.47158 14.7175 7.52891 14.08 8.26363C13.5786 8.84154 12.9974 9.358 12.6964 9.62547C12.6136 9.699 12.552 9.75379 12.5191 9.78577L11.9963 10.2941L11.4734 9.78577C11.4404 9.75362 11.379 9.69901 11.2966 9.62574C10.9959 9.35826 10.4158 8.84216 9.9144 8.26309C9.27802 7.52815 8.55664 6.47102 8.55664 5.29605ZM11.9585 3.49945C10.8656 3.52087 10.0566 4.35523 10.0566 5.29605C10.0566 5.8956 10.4533 6.59399 11.0484 7.28118C11.3852 7.67021 11.7175 7.98455 11.9965 8.23695C12.2761 7.98458 12.6089 7.67037 12.947 7.28064C13.5434 6.59323 13.9407 5.89504 13.9407 5.29605C13.9407 4.34058 13.1149 3.49945 12.0028 3.49945H11.9585Z" fill="black"/>
<path d="M20.2244 11.25V12.75H19.248V19.0178H4.74805V12.75H3.77148V11.25H20.2244ZM6.24805 12.75V17.5178H17.748V12.75H6.24805Z" fill="black"/>
<path d="M3.24805 16.4453C3.06904 16.5654 2.90312 16.6912 2.75199 16.8229C2.17966 17.3214 1.74805 17.9707 1.74805 18.7508C1.74805 19.5309 2.17966 20.1801 2.75199 20.6787C3.32605 21.1787 4.1133 21.5949 5.02124 21.9294C6.84301 22.6006 9.30981 23.0008 11.998 23.0008C14.6862 23.0008 17.153 22.6006 18.9748 21.9294C19.8828 21.5949 20.67 21.1787 21.2441 20.6787C21.8164 20.1801 22.248 19.5309 22.248 18.7508C22.248 17.9707 21.8164 17.3214 21.2441 16.8229C21.093 16.6912 20.927 16.5654 20.748 16.4453V18.7624C20.7439 18.9484 20.64 19.2156 20.2589 19.5476C19.8715 19.885 19.2675 20.223 18.4563 20.5219C16.8397 21.1174 14.5565 21.5008 11.998 21.5008C9.43952 21.5008 7.15633 21.1174 5.5398 20.5219C4.72858 20.223 4.1246 19.885 3.73721 19.5476C3.35611 19.2156 3.25229 18.9484 3.24818 18.7624L3.24805 18.7508V16.4453Z" fill="black"/>
</svg>
