<svg width="24" height="24" viewBox="0 0 24 24" fill="none" xmlns="http://www.w3.org/2000/svg">
<path d="M4.75391 16.0292H8.73047V14.5292H4.75391V16.0292Z" fill="black"/>
<path d="M18.3185 19.3792L21.4657 22.5264L22.5264 21.4657L2.53429 1.47363L1.47363 2.53429L2.91217 3.97283C2.36097 4.38292 2.00391 5.03935 2.00391 5.77917V17.1292C2.00391 18.3718 3.01127 19.3792 4.25391 19.3792H18.3185ZM16.8185 17.8792H4.25391C3.83969 17.8792 3.50391 17.5434 3.50391 17.1292V10.2792H9.21851L16.8185 17.8792ZM7.21851 8.27917H3.50391V5.77917C3.50391 5.4506 3.71519 5.17138 4.0093 5.06996L7.21851 8.27917Z" fill="black"/>
<path d="M22.0039 17.1292C22.0039 17.4276 21.9458 17.7125 21.8403 17.9731L20.5039 16.6368V10.2792H14.1463L12.1463 8.27917H20.5039V5.77917C20.5039 5.36495 20.1681 5.02917 19.7539 5.02917H8.8963L7.3963 3.52917H19.7539C20.9965 3.52917 22.0039 4.53653 22.0039 5.77917V17.1292Z" fill="black"/>
</svg>
