<svg width="24" height="24" viewBox="0 0 24 24" fill="none" xmlns="http://www.w3.org/2000/svg">
<path d="M10.2627 3.42358H13.7359C14.1501 3.42358 14.4859 3.75937 14.4859 4.17358V4.39624L9.5127 4.39624V4.17358C9.5127 3.75937 9.84848 3.42358 10.2627 3.42358ZM15.9859 4.39624V4.17358C15.9859 2.93094 14.9786 1.92358 13.7359 1.92358H10.2627C9.02005 1.92358 8.0127 2.93094 8.0127 4.17358V4.39624L3.75 4.39624V5.89624H4.72754V19.0508C4.72754 20.2934 5.7349 21.3008 6.97754 21.3008H17.0322C18.2749 21.3008 19.2822 20.2934 19.2822 19.0508V5.89624H20.25V4.39624L15.9859 4.39624ZM17.7822 5.89624V19.0508C17.7822 19.465 17.4464 19.8008 17.0322 19.8008H6.97754C6.56333 19.8008 6.22754 19.465 6.22754 19.0508V5.89624L17.7822 5.89624ZM15.7063 9.87388L14.6456 8.81325L12.0047 11.4542L9.36387 8.81349L8.30323 9.87417L10.9441 12.5149L8.30347 15.1557L9.36415 16.2163L12.0048 13.5756L14.6457 16.2163L15.7063 15.1556L13.0654 12.5149L15.7063 9.87388Z" fill="black"/>
</svg>
