<svg width="24" height="24" viewBox="0 0 24 24" fill="none" xmlns="http://www.w3.org/2000/svg">
<path d="M10.2627 3.42578H13.7359C14.1501 3.42578 14.4859 3.76157 14.4859 4.17578V4.39868L9.5127 4.39868V4.17578C9.5127 3.76157 9.84848 3.42578 10.2627 3.42578ZM15.9859 4.39868V4.17578C15.9859 2.93314 14.9786 1.92578 13.7359 1.92578H10.2627C9.02005 1.92578 8.0127 2.93314 8.0127 4.17578V4.39868L3.75 4.39868V5.89868H4.72754V19.053C4.72754 20.2956 5.7349 21.303 6.97754 21.303H17.0322C18.2749 21.303 19.2822 20.2956 19.2822 19.053V5.89868H20.25V4.39868L15.9859 4.39868ZM17.7822 5.89868V19.053C17.7822 19.4672 17.4464 19.803 17.0322 19.803H6.97754C6.56333 19.803 6.22754 19.4672 6.22754 19.053V5.89868L17.7822 5.89868Z" fill="black"/>
</svg>
