<svg width="24" height="24" viewBox="0 0 24 24" fill="none" xmlns="http://www.w3.org/2000/svg">
<path d="M17.25 10.356H6.75V8.85596H17.25V10.356Z" fill="black"/>
<path d="M8.25 13.3569H15.75V11.8569H8.25V13.3569Z" fill="black"/>
<path d="M12 20.604C12.5527 20.604 13 20.1562 13 19.604C13 19.0518 12.5527 18.604 12 18.604C11.4473 18.604 11 19.0518 11 19.604C11 20.1562 11.4473 20.604 12 20.604Z" fill="black"/>
<path d="M5.5 1.25C4.25781 1.25 3.25 2.25732 3.25 3.5V20.5C3.25 21.7427 4.25781 22.75 5.5 22.75H18.5C19.7422 22.75 20.75 21.7427 20.75 20.5V3.5C20.75 3.00977 20.5938 2.55615 20.3281 2.18652C19.9199 1.61914 19.252 1.25 18.5 1.25H5.5ZM4.84766 3.12939C4.88867 3.05713 4.94141 2.99219 5.00391 2.9375C5.13672 2.8208 5.31055 2.75 5.5 2.75H18.5C18.9141 2.75 19.25 3.08594 19.25 3.5V4.38281H4.75V3.5C4.75 3.45361 4.75391 3.4082 4.76172 3.36426C4.77734 3.28027 4.80664 3.20117 4.84766 3.12939ZM4.75 5.88281H19.25V16.4785H4.75V5.88281ZM4.75 20.5V17.9785H19.25V20.5C19.25 20.9141 18.9141 21.25 18.5 21.25H5.5C5.08594 21.25 4.75 20.9141 4.75 20.5Z" fill="black"/>
</svg>
