<svg width="24" height="24" viewBox="0 0 24 24" fill="none" xmlns="http://www.w3.org/2000/svg">
<path d="M16.498 4.15186H17.2656V9.08548L18.7656 7.82918V2.65186H14.998V10.9847L16.498 9.72835V4.15186Z" fill="black"/>
<path d="M14.998 12.6273L15.9348 12.9693C15.6499 13.4321 15.3368 13.8757 14.998 14.2976V12.6273Z" fill="black"/>
<path d="M14.4492 5.96338V14.9378C13.9869 15.443 13.4853 15.9117 12.9492 16.3388V7.46338H12.1816V16.9057C11.7036 17.2325 11.2026 17.5281 10.6816 17.7898V5.96338H14.4492Z" fill="black"/>
<path d="M10.1328 18.0496V9.27588H6.36523V19.0795C6.87477 19.0204 7.37535 18.9319 7.86523 18.8156V10.7759H8.63281V18.6084C9.14699 18.4524 9.64772 18.2654 10.1328 18.0496Z" fill="black"/>
<path d="M5.81641 19.1314V12.5874H2.04883V18.8657L2.36892 18.9302C2.75611 19.005 3.14967 19.0627 3.54883 19.1023V14.0874H4.31641V19.1558C4.4938 19.163 4.67218 19.1666 4.85146 19.1666C5.17601 19.1666 5.4978 19.1547 5.81641 19.1314Z" fill="black"/>
<path d="M20.965 7.94322L21.9516 13.5691L16.5861 11.6106L20.965 7.94322Z" fill="black"/>
<path d="M18.0656 12.1509C15.7856 17.1736 10.7262 20.6667 4.851 20.6667C3.90476 20.6667 2.97969 20.5761 2.08398 20.4031C3.70864 21.0138 5.46871 21.3479 7.30681 21.3479C13.1428 21.3479 18.1922 17.9804 20.618 13.0825L18.0656 12.1509Z" fill="black"/>
</svg>
