<svg width="24" height="24" viewBox="0 0 24 24" fill="none" xmlns="http://www.w3.org/2000/svg">
<path d="M12 7.05322C9.53263 7.05322 7.52148 9.03805 7.52148 11.4999C7.52148 13.9618 9.53263 15.9467 12 15.9467C14.4673 15.9467 16.4785 13.9618 16.4785 11.4999C16.4785 9.03805 14.4673 7.05322 12 7.05322ZM9.02148 11.4999C9.02148 9.87855 10.3489 8.55322 12 8.55322C13.651 8.55322 14.9785 9.87855 14.9785 11.4999C14.9785 13.1213 13.651 14.4467 12 14.4467C10.3489 14.4467 9.02148 13.1213 9.02148 11.4999Z" fill="black"/>
<path d="M12.0002 4.13818C9.30753 4.13818 7.0376 4.98038 5.03735 6.35289C4.09002 7.00292 3.23407 7.91128 2.5602 8.78932C1.88777 9.66546 1.35966 10.5599 1.09064 11.215L0.973633 11.4999L1.09064 11.7848C1.35966 12.4399 1.88776 13.3344 2.56018 14.2106C3.23406 15.0886 4.09 15.9971 5.03735 16.6471C7.0376 18.0196 9.30753 18.8618 12.0002 18.8618C14.6928 18.8618 16.9629 18.0196 18.9631 16.6471C19.9105 15.9971 20.7664 15.0886 21.4403 14.2106C22.1127 13.3344 22.6408 12.4399 22.9098 11.7848L23.0268 11.4999L22.9098 11.215C22.6408 10.5599 22.1127 9.66546 21.4403 8.78932C20.7664 7.91128 19.9105 7.00292 18.9631 6.35289C16.9629 4.98037 14.6928 4.13818 12.0002 4.13818ZM5.88602 7.58972C7.67026 6.36543 9.64908 5.63818 12.0002 5.63818C14.3512 5.63818 16.3302 6.36543 18.1144 7.58972C18.8886 8.12091 19.6344 8.90003 20.2503 9.70258C20.7601 10.3668 21.1556 11.0138 21.3933 11.4999C21.1556 11.986 20.7601 12.6331 20.2503 13.2973C19.6344 14.0999 18.8886 14.8791 18.1144 15.4103C16.3302 16.6346 14.3512 17.3618 12.0002 17.3618C9.64908 17.3618 7.67026 16.6346 5.88602 15.4103C5.1119 14.8791 4.3661 14.0999 3.75015 13.2973C3.24035 12.6331 2.84483 11.986 2.60717 11.4999C2.84483 11.0139 3.24034 10.3668 3.75013 9.70258C4.36608 8.90003 5.11189 8.12091 5.88602 7.58972Z" fill="black"/>
</svg>
