<svg width="24" height="24" viewBox="0 0 24 24" fill="none" xmlns="http://www.w3.org/2000/svg">
<path d="M9.19885 6.25V7.55661C9.84599 7.72058 10.4332 8.07883 10.8474 8.55953L11.3369 9.1277L10.2006 10.1068L9.711 9.53867C9.1705 8.91138 8.14362 8.73206 7.45144 9.31427C7.02929 9.77996 7.13328 10.3555 7.61736 10.6301C8.03174 10.8652 8.43303 10.9957 8.87741 11.1402C8.93266 11.1581 8.98857 11.1763 9.04526 11.1949C9.52829 11.3536 10.108 11.5561 10.5935 11.9987C11.1631 12.5181 11.4929 13.2015 11.4965 13.92C11.5001 14.6445 11.1709 15.3294 10.5671 15.8304C10.1576 16.1703 9.67185 16.3463 9.19885 16.4207V17.75H7.69885V16.3603C7.28977 16.2655 6.90936 16.1074 6.63559 15.8908C6.30857 15.6321 6.06643 15.3546 5.90607 15.1432C5.82523 15.0367 5.76333 14.9445 5.72015 14.8762C5.60857 14.6998 5.51086 14.5138 5.41342 14.3282C5.37163 14.2486 5.32987 14.1691 5.28711 14.0905L6.60546 13.375C6.64524 13.4483 6.6839 13.5227 6.72263 13.5973C6.80666 13.759 6.89103 13.9213 6.98777 14.0743C7.01113 14.1112 7.049 14.168 7.10108 14.2366C7.20657 14.3757 7.3629 14.5535 7.56634 14.7145C7.66226 14.7904 8.00177 14.9338 8.46926 14.9609H8.76503C9.11493 14.9395 9.41169 14.84 9.60917 14.6761C9.89283 14.4407 9.99772 14.1712 9.99651 13.9275C9.99527 13.6779 9.88139 13.3793 9.58283 13.1071C9.35915 12.9032 9.06428 12.78 8.57708 12.62C8.5257 12.6031 8.47192 12.5857 8.41674 12.5679C7.98063 12.427 7.43254 12.2498 6.87726 11.9348C5.43435 11.1164 5.34933 9.3448 6.38798 8.25534L6.41081 8.23139L6.43566 8.20954C6.82502 7.86729 7.25672 7.65202 7.69885 7.54344V6.25H9.19885Z" fill="black"/>
<path d="M18.7129 9.10303H14.0527V7.60303H18.7129V9.10303Z" fill="black"/>
<path d="M18.7129 12.75H14.0527V11.25H18.7129V12.75Z" fill="black"/>
<path d="M18.7129 16.397H14.0527V14.897H18.7129V16.397Z" fill="black"/>
<path d="M4.25 3.25C3.00736 3.25 2 4.25736 2 5.5V18.5C2 19.7426 3.00736 20.75 4.25 20.75H19.75C20.9926 20.75 22 19.7426 22 18.5V5.5C22 4.25736 20.9926 3.25 19.75 3.25H4.25ZM3.5 5.5C3.5 5.08579 3.83579 4.75 4.25 4.75H19.75C20.1642 4.75 20.5 5.08579 20.5 5.5V18.5C20.5 18.9142 20.1642 19.25 19.75 19.25H4.25C3.83579 19.25 3.5 18.9142 3.5 18.5V5.5Z" fill="black"/>
</svg>
