<svg width="24" height="24" viewBox="0 0 24 24" fill="none" xmlns="http://www.w3.org/2000/svg">
<path d="M6.6543 11.7031C6.6543 11.3579 6.93412 11.0781 7.2793 11.0781H16.7826C17.1278 11.0781 17.4076 11.3579 17.4076 11.7031V18.8458C17.4076 19.191 17.1278 19.4708 16.7826 19.4708H7.2793C6.93412 19.4708 6.6543 19.191 6.6543 18.8458V11.7031ZM7.9043 14.709V15.8398H10.166V14.709H7.9043ZM7.9043 18.2208H10.166V17.0898H7.9043V18.2208ZM11.416 18.2208H16.1576V17.0898H11.416V18.2208ZM16.1576 14.709H11.416V15.8398H16.1576V14.709ZM7.9043 13.459H10.166V12.3281H7.9043V13.459ZM16.1576 13.459V12.3281H11.416V13.459H16.1576Z" fill="black"/>
<path d="M6.25 2C5.00736 2 4 3.00736 4 4.25V19.75C4 20.9926 5.00736 22 6.25 22H17.75C18.9926 22 20 20.9926 20 19.75V8.09838L13.9104 2H6.25ZM5.5 4.25C5.5 3.83579 5.83579 3.5 6.25 3.5H12.1113V9.88501H18.5V19.75C18.5 20.1642 18.1642 20.5 17.75 20.5H6.25C5.83579 20.5 5.5 20.1642 5.5 19.75V4.25ZM18.1664 8.38501H13.6113V3.82332L18.1664 8.38501Z" fill="black"/>
</svg>
