<svg width="24" height="24" viewBox="0 0 24 24" fill="none" xmlns="http://www.w3.org/2000/svg">
<path d="M11.25 9.03673C9.49736 9.34843 8.11515 10.731 7.80405 12.4839H6.73633V13.9839H7.80403C8.1151 15.7368 9.49733 17.1194 11.25 17.4311V18.4971H12.75V17.4317C14.5041 17.121 15.8877 15.7378 16.199 13.9839H17.2637V12.4839H16.199C15.8877 10.73 14.5041 9.34684 12.75 9.03619V7.9707H11.25V9.03673ZM11.25 11.4707H12.75V10.5733C13.6739 10.8326 14.4018 11.5602 14.6617 12.4839H13.7637V13.9839H14.6618C14.4019 14.9076 13.6739 15.6352 12.75 15.8946V14.9971H11.25V15.8937C10.3275 15.6336 9.60085 14.9066 9.34126 13.9839H10.2363V12.4839H9.34129C9.6009 11.5613 10.3276 10.8342 11.25 10.5741V11.4707Z" fill="black"/>
<path d="M6.25 2C5.00736 2 4 3.00736 4 4.25V19.75C4 20.9926 5.00736 22 6.25 22H17.75C18.9926 22 20 20.9926 20 19.75V8.09838L13.9104 2H6.25ZM5.5 4.25C5.5 3.83579 5.83579 3.5 6.25 3.5H13.2885L18.5 8.71907V19.75C18.5 20.1642 18.1642 20.5 17.75 20.5H6.25C5.83579 20.5 5.5 20.1642 5.5 19.75V4.25Z" fill="black"/>
</svg>
