<svg width="24" height="24" viewBox="0 0 24 24" fill="none" xmlns="http://www.w3.org/2000/svg">
<path d="M8.92383 5.01012C7.68119 5.01012 6.67383 6.01748 6.67383 7.26012V19.7508C6.67383 20.9935 7.68118 22.0008 8.92383 22.0008H18.0863C19.329 22.0008 20.3363 20.9935 20.3363 19.7508V10.2025L15.4852 5.01012H8.92383ZM8.17383 7.26012C8.17383 6.8459 8.50961 6.51012 8.92383 6.51012H13.8312V11.8565H18.8363V19.7508C18.8363 20.165 18.5005 20.5008 18.0863 20.5008H8.92383C8.50961 20.5008 8.17383 20.165 8.17383 19.7508V7.26012ZM18.4274 10.3565H15.3312V7.04252L18.4274 10.3565Z" fill="black"/>
<path d="M5.16406 5.75098V17.7777H3.66406V5.75098C3.66406 3.67991 5.343 2.00098 7.41407 2.00098H16.3528V3.50098H7.41407C6.17142 3.50098 5.16406 4.50834 5.16406 5.75098Z" fill="black"/>
</svg>
