<svg width="24" height="24" viewBox="0 0 24 24" fill="none" xmlns="http://www.w3.org/2000/svg">
<path d="M4.5 4.25C4.5 3.83579 4.83579 3.5 5.25 3.5H11.1113V9.88501H17.5V11.0167H19V8.09838L12.9104 2H5.25C4.00736 2 3 3.00736 3 4.25V19.75C3 20.9926 4.00736 22 5.25 22H9.94712V20.5H5.25C4.83579 20.5 4.5 20.1642 4.5 19.75V4.25ZM17.1664 8.38501H12.6113V3.82332L17.1664 8.38501Z" fill="black"/>
<path d="M18.8697 13.2372C18.5768 12.9444 18.1019 12.9444 17.809 13.2372L11.9658 19.0804V22H14.9907L20.7813 16.2096C20.922 16.0689 21.001 15.8781 21.001 15.6792C21.001 15.4803 20.922 15.2896 20.7813 15.1489L18.8697 13.2372ZM18.4877 16.3819L17.6367 15.5309L18.3393 14.8282L19.1903 15.6792L18.4877 16.3819ZM16.576 16.5915L17.427 17.4425L14.3694 20.5H13.4658V19.7017L16.576 16.5915Z" fill="black"/>
</svg>
