<svg width="24" height="24" viewBox="0 0 24 24" fill="none" xmlns="http://www.w3.org/2000/svg">
<path d="M15.9894 15.1436L11.959 11.1133L7.92871 15.1436L8.98937 16.2043L11.209 13.9846L11.209 18.9178H12.709V13.9846L14.9287 16.2043L15.9894 15.1436Z" fill="black"/>
<path d="M6.25 2C5.00736 2 4 3.00736 4 4.25V19.75C4 20.9926 5.00736 22 6.25 22H17.75C18.9926 22 20 20.9926 20 19.75V8.09838L13.9104 2H6.25ZM5.5 4.25C5.5 3.83579 5.83579 3.5 6.25 3.5H12.1113V9.88501H18.5V19.75C18.5 20.1642 18.1642 20.5 17.75 20.5H6.25C5.83579 20.5 5.5 20.1642 5.5 19.75V4.25ZM18.1664 8.38501H13.6113V3.82332L18.1664 8.38501Z" fill="black"/>
</svg>
