<svg width="24" height="24" viewBox="0 0 24 24" fill="none" xmlns="http://www.w3.org/2000/svg">
<path d="M5.25 3.5C4.83579 3.5 4.5 3.83579 4.5 4.25V19.75C4.5 20.1642 4.83579 20.5 5.25 20.5H10.0078V22H5.25C4.00736 22 3 20.9926 3 19.75V4.25C3 3.00736 4.00736 2 5.25 2H16.75C17.9926 2 19 3.00736 19 4.25V9.82407L17.5 11.2967V4.25C17.5 3.83579 17.1642 3.5 16.75 3.5H5.25Z" fill="black"/>
<path d="M13.2185 15.5L14.7464 14H6.75V15.5H13.2185Z" fill="black"/>
<path d="M6.75 11.5H15.25V10H6.75V11.5Z" fill="black"/>
<path d="M6.75 7.5H15.25V6H6.75V7.5Z" fill="black"/>
<path d="M21.4961 11.71C21.9103 11.71 22.2461 12.0457 22.2461 12.46C22.2461 13.5523 21.9846 15.0265 21.1641 16.5805C21.1601 16.5884 21.1559 16.5963 21.1516 16.6041C20.6888 17.475 20.0502 18.3704 19.1833 19.2372C18.348 20.0726 17.4989 20.6858 16.6857 21.1322L16.6703 21.1406C14.9538 22.0789 13.399 22.2744 12.4743 22.2476C12.0688 22.2358 11.7461 21.9036 11.7461 21.4979V19.1936C11.7461 18.8436 11.9881 18.5402 12.3294 18.4624L14.374 17.9962C14.6235 17.9393 14.8848 18.0136 15.0671 18.1932L16.4335 19.5394C16.9855 19.1898 17.5555 18.7437 18.1226 18.1766C18.7175 17.5817 19.1853 16.976 19.5504 16.3826L18.2188 15.1289C18.0298 14.951 17.9463 14.688 17.9979 14.4336L18.4288 12.3108C18.4998 11.9612 18.8072 11.71 19.1639 11.71H21.4961ZM19.551 14.3229L20.2479 14.979C20.4952 14.3368 20.6329 13.7354 20.6981 13.21H19.7769L19.551 14.3229ZM13.2461 20.7132C13.739 20.6564 14.3492 20.5246 15.0257 20.2581L14.307 19.55L13.2461 19.7919V20.7132Z" fill="black"/>
</svg>
