<svg width="24" height="24" viewBox="0 0 24 24" fill="none" xmlns="http://www.w3.org/2000/svg">
<path d="M4.27809 5.56665C3.864 5.56665 3.52826 5.90225 3.52809 6.31635L3.52344 17.9294C3.52327 18.3438 3.85911 18.6797 4.27344 18.6797H19.7181C20.1324 18.6797 20.4681 18.3439 20.4681 17.9297V8.58199C20.4681 8.16778 20.1324 7.832 19.7181 7.832H11.2438L8.99119 5.56665H4.27809ZM2.02809 6.31575C2.02859 5.07346 3.03581 4.06665 4.27809 4.06665H9.61498L11.8676 6.332H19.7181C20.9608 6.332 21.9681 7.33935 21.9681 8.58199V17.9297C21.9681 19.1724 20.9608 20.1797 19.7181 20.1797H4.27344C3.03045 20.1797 2.02294 19.1718 2.02344 17.9288L2.02809 6.31575Z" fill="black"/>
</svg>
