<svg width="24" height="24" viewBox="0 0 24 24" fill="none" xmlns="http://www.w3.org/2000/svg">
<path d="M11.9736 9.08936L10.9129 10.15L13.2575 12.4946L7.74717 12.4946V13.9946H13.2576L10.9129 16.3394L11.9736 17.4L16.1289 13.2447L11.9736 9.08936Z" fill="black"/>
<path d="M4.27809 4.06641C3.03581 4.06641 2.02859 5.07322 2.02809 6.3155L2.02344 17.9286C2.02294 19.1716 3.03045 20.1795 4.27344 20.1795H19.7181C20.9608 20.1795 21.9681 19.1721 21.9681 17.9295V8.58175C21.9681 7.33911 20.9608 6.33175 19.7181 6.33175H11.8676L9.61498 4.06641H4.27809ZM3.52809 6.31611C3.52826 5.90201 3.864 5.56641 4.27809 5.56641H8.99119L11.2438 7.83175H19.7181C20.1324 7.83175 20.4681 8.16754 20.4681 8.58175V17.9295C20.4681 18.3437 20.1324 18.6795 19.7181 18.6795H4.27344C3.85911 18.6795 3.52327 18.3435 3.52344 17.9292L3.52809 6.31611Z" fill="black"/>
</svg>
