<svg width="24" height="24" viewBox="0 0 24 24" fill="none" xmlns="http://www.w3.org/2000/svg">
<path d="M18.9999 21.1226L21.0952 23.2179L22.1559 22.1572L1.96886 1.97021L0.908203 3.03087L2.87841 5.00108C2.87615 5.04242 2.875 5.08407 2.875 5.12598V18.876C2.875 20.1186 3.88236 21.126 5.125 21.126H18.875C18.9169 21.126 18.9586 21.1248 18.9999 21.1226ZM17.5033 19.626H15.541V17.6637L17.5033 19.626ZM13.3344 15.457L14.041 16.1637V19.626H9.95898V15.457L13.3344 15.457ZM11.8344 13.957L9.95898 13.957V12.0817L11.8344 13.957ZM7.75135 9.87402L8.45898 10.5817V13.957H4.375V9.87402L7.75135 9.87402ZM6.25135 8.37402L4.375 8.37402V6.49767L6.25135 8.37402ZM4.375 18.876V15.457H8.45898V19.626H5.125C4.71079 19.626 4.375 19.2902 4.375 18.876Z" fill="black"/>
<path d="M21.125 5.12598V18.7206L19.625 17.2206V15.457H17.8615L16.3615 13.957H19.625V9.87402L15.541 9.87402V13.1366L14.041 11.6366V9.87402H12.2785L10.7785 8.37402H14.041V4.37598H9.95898V7.55454L8.45898 6.05454V4.37598H6.78042L5.28042 2.87598H18.875C20.1176 2.87598 21.125 3.88334 21.125 5.12598ZM19.625 8.37402V5.12598C19.625 4.71176 19.2892 4.37598 18.875 4.37598H15.541V8.37402L19.625 8.37402Z" fill="black"/>
</svg>
