<svg width="24" height="24" viewBox="0 0 24 24" fill="none" xmlns="http://www.w3.org/2000/svg">
<path d="M2.875 5.125C2.875 3.88236 3.88236 2.875 5.125 2.875H18.875C20.1176 2.875 21.125 3.88236 21.125 5.125V18.875C21.125 20.1176 20.1176 21.125 18.875 21.125H5.125C3.88236 21.125 2.875 20.1176 2.875 18.875V5.125ZM5.125 4.375C4.71079 4.375 4.375 4.71079 4.375 5.125V8.37256L8.45801 8.37256V4.375H5.125ZM8.45801 9.87256L4.375 9.87256V13.9556H8.45801V9.87256ZM9.95801 9.87256V13.9556L14.041 13.9556V9.87256H9.95801ZM14.041 8.37256V4.375H9.95801V8.37256H14.041ZM15.541 9.87256V13.9556H19.625V9.87256L15.541 9.87256ZM19.625 8.37256V5.125C19.625 4.71079 19.2892 4.375 18.875 4.375H15.541V8.37256L19.625 8.37256ZM4.375 18.875C4.375 19.2892 4.71079 19.625 5.125 19.625H8.45801V15.4556H4.375V18.875ZM9.95801 19.625H14.041V15.4556L9.95801 15.4556V19.625ZM15.541 19.625H18.875C19.2892 19.625 19.625 19.2892 19.625 18.875V15.4556H15.541V19.625Z" fill="black"/>
</svg>
