<svg width="24" height="24" viewBox="0 0 24 24" fill="none" xmlns="http://www.w3.org/2000/svg">
<path d="M10.0496 14.3944C9.75347 14.6906 9.38616 14.8387 8.94771 14.8387C8.50926 14.8387 8.14195 14.6906 7.84579 14.3944C7.54964 14.0983 7.40156 13.731 7.40156 13.2925C7.40156 12.8541 7.54964 12.4868 7.84579 12.1906C8.14195 11.8945 8.50926 11.7464 8.94771 11.7464C9.38616 11.7464 9.75347 11.8945 10.0496 12.1906C10.3458 12.4868 10.4939 12.8541 10.4939 13.2925C10.4939 13.731 10.3458 14.0983 10.0496 14.3944Z" fill="black"/>
<path d="M12.0439 17.9502H5.85156V17.504C5.85156 17.1971 5.93939 16.9146 6.11504 16.6565C6.29067 16.3985 6.5208 16.2092 6.80541 16.0887C7.18233 15.9284 7.55092 15.8082 7.91119 15.7281C8.27144 15.648 8.61695 15.6079 8.94771 15.6079C9.27848 15.6079 9.62399 15.648 9.98424 15.7281C10.3445 15.8082 10.7131 15.9284 11.09 16.0887C11.3746 16.2092 11.6048 16.3985 11.7804 16.6565C11.956 16.9146 12.0439 17.1971 12.0439 17.504V17.9502Z" fill="black"/>
<path d="M18.3491 13.5159H14.0488V12.0159H18.3491V13.5159Z" fill="black"/>
<path d="M18.3491 16.3812H14.0488V14.8812H18.3491V16.3812Z" fill="black"/>
<path d="M11 2.2002C10.0335 2.2002 9.25 2.9837 9.25 3.9502V6.9502H4.25C3.00736 6.9502 2 7.95755 2 9.20019V19.5502C2 20.7928 3.00736 21.8002 4.25 21.8002H19.75C20.9926 21.8002 22 20.7928 22 19.5502V9.2002C22 7.95755 20.9926 6.9502 19.75 6.9502H14.75V3.9502C14.75 2.9837 13.9665 2.2002 13 2.2002H11ZM13.25 3.9502V8.9502C13.25 9.08827 13.1381 9.2002 13 9.2002H11C10.8619 9.2002 10.75 9.08827 10.75 8.9502V3.9502C10.75 3.81212 10.8619 3.7002 11 3.7002H13C13.1381 3.7002 13.25 3.81212 13.25 3.9502ZM9.25 8.4502V8.9502C9.25 9.91669 10.0335 10.7002 11 10.7002H13C13.9665 10.7002 14.75 9.91669 14.75 8.9502V8.4502H19.75C20.1642 8.4502 20.5 8.78598 20.5 9.2002V19.5502C20.5 19.9644 20.1642 20.3002 19.75 20.3002H4.25C3.83579 20.3002 3.5 19.9644 3.5 19.5502V9.20019C3.5 8.78598 3.83579 8.4502 4.25 8.4502H9.25Z" fill="black"/>
</svg>
