<svg width="24" height="24" viewBox="0 0 24 24" fill="none" xmlns="http://www.w3.org/2000/svg">
<path d="M5.27539 3.02539C4.03275 3.02539 3.02539 4.03275 3.02539 5.27539V18.7242C3.02539 19.9669 4.03275 20.9742 5.27539 20.9742H18.7242C19.9669 20.9742 20.9742 19.9669 20.9742 18.7242V5.27539C20.9742 4.03275 19.9669 3.02539 18.7242 3.02539H5.27539ZM4.52539 5.27539C4.52539 4.86118 4.86118 4.52539 5.27539 4.52539H18.7242C19.1384 4.52539 19.4742 4.86118 19.4742 5.27539V10.3261L18.0862 8.94641L14.0005 13.0092L9.94511 8.9343L5.89677 12.9819L4.52539 11.6047V5.27539ZM4.52539 13.7306L5.89444 15.1054L9.94247 11.0581L13.995 15.1301L18.0864 11.0616L19.4742 12.441V18.7242C19.4742 19.1384 19.1384 19.4742 18.7242 19.4742H5.27539C4.86118 19.4742 4.52539 19.1384 4.52539 18.7242V13.7306Z" fill="black"/>
</svg>
