<svg width="24" height="24" viewBox="0 0 24 24" fill="none" xmlns="http://www.w3.org/2000/svg">
<path d="M5.27539 3.02539H13.0967V4.52539H5.27539C4.86118 4.52539 4.52539 4.86118 4.52539 5.27539V18.7242C4.52539 19.1384 4.86118 19.4742 5.27539 19.4742H18.7242C19.1384 19.4742 19.4742 19.1384 19.4742 18.7242V10.9709H20.9742V18.7242C20.9742 19.9669 19.9669 20.9742 18.7242 20.9742H5.27539C4.03275 20.9742 3.02539 19.9669 3.02539 18.7242V5.27539C3.02539 4.03275 4.03275 3.02539 5.27539 3.02539Z" fill="black"/>
<path d="M16.9746 9.50267V7.1333H14.6055V5.6333H16.9746V3.26392H18.4746V5.6333H20.8442V7.1333H18.4746V9.50267H16.9746Z" fill="black"/>
<path d="M17.8828 17.176L14.1476 12.1313L11.2554 15.9691L9.1841 13.2871L6.24805 17.176H17.8828Z" fill="black"/>
</svg>
