<svg width="24" height="24" viewBox="0 0 24 24" fill="none" xmlns="http://www.w3.org/2000/svg">
<path d="M14.0586 12.2046L17.7518 17.1712H6.24805L9.15103 13.3425L11.199 15.9829L14.0586 12.2046Z" fill="black"/>
<path d="M5.4248 3.1748C4.18216 3.1748 3.1748 4.18216 3.1748 5.42481V18.5748C3.1748 19.8174 4.18216 20.8248 5.42481 20.8248H18.5748C19.8174 20.8248 20.8248 19.8174 20.8248 18.5748V5.4248C20.8248 4.18216 19.8174 3.1748 18.5748 3.1748H5.4248ZM4.6748 5.42481C4.6748 5.01059 5.01059 4.6748 5.4248 4.6748H18.5748C18.989 4.6748 19.3248 5.01059 19.3248 5.4248V18.5748C19.3248 18.989 18.989 19.3248 18.5748 19.3248H5.42481C5.01059 19.3248 4.6748 18.989 4.6748 18.5748V5.42481Z" fill="black"/>
</svg>
