<svg width="24" height="24" viewBox="0 0 24 24" fill="none" xmlns="http://www.w3.org/2000/svg">
<path d="M4.25 2C3.00736 2 2 3.00736 2 4.25V19.75C2 20.9926 3.00736 22 4.25 22H19.75C20.9926 22 22 20.9926 22 19.75V4.25C22 3.00736 20.9926 2 19.75 2H4.25ZM3.5 4.25C3.5 3.83579 3.83579 3.5 4.25 3.5H19.75C20.1642 3.5 20.5 3.83579 20.5 4.25V19.75C20.5 20.1642 20.1642 20.5 19.75 20.5H4.25C3.83579 20.5 3.5 20.1642 3.5 19.75V4.25ZM13.0467 8.0839C13.0467 7.50092 12.5741 7.02832 11.9911 7.02832C11.4081 7.02832 10.9355 7.50092 10.9355 8.0839C10.9355 8.66688 11.4081 9.13949 11.9911 9.13949C12.5741 9.13949 13.0467 8.66688 13.0467 8.0839ZM14.5467 8.0839C14.5467 9.49531 13.4025 10.6395 11.9911 10.6395C10.5797 10.6395 9.43555 9.49531 9.43555 8.0839C9.43555 6.67249 10.5797 5.52832 11.9911 5.52832C13.4025 5.52832 14.5467 6.67249 14.5467 8.0839ZM8.3125 18.4477L8.3125 14.1312C8.3125 13.7519 8.44915 13.5238 8.67449 13.3426C8.93522 13.133 9.34162 12.9704 9.8802 12.8522C10.2178 12.7782 10.7427 12.7347 11.2202 12.7119C11.4512 12.7008 11.6583 12.6951 11.8076 12.6922C11.8821 12.6907 11.9419 12.6899 11.9827 12.6895L12.0289 12.6892L12.0403 12.6891L12.0433 12.6891L12.0433 12.6876L12.0469 12.6876C12.0867 12.688 12.1451 12.6888 12.218 12.6903C12.3641 12.6932 12.567 12.6989 12.7938 12.71C12.9147 12.7159 13.0389 12.7231 13.1624 12.7319L12.3472 14.4709L10.8508 14.4709L10.8474 14.4709L10.839 14.471L10.8154 14.4714C10.7968 14.4719 10.7724 14.4728 10.7432 14.4746C10.6849 14.478 10.6057 14.4847 10.5123 14.4977C10.3293 14.5233 10.0721 14.5761 9.80459 14.6893C9.53726 14.8025 9.23 14.9888 8.98788 15.2973C8.73713 15.6168 8.59187 16.0226 8.59187 16.5026C8.59187 16.9764 8.7464 17.3741 9.00327 17.6821C9.24899 17.9767 9.55695 18.1527 9.81966 18.2593C10.0841 18.3665 10.3382 18.4179 10.519 18.4434C10.6114 18.4564 10.6895 18.4634 10.7469 18.4671C10.7757 18.469 10.7996 18.4701 10.8177 18.4707L10.8406 18.4714L10.8488 18.4715L10.852 18.4716L10.8534 18.4716L10.8546 18.4716L10.8612 18.4717H17.1855V14.1293C17.1855 13.2739 16.8257 12.6239 16.2636 12.1718C15.7368 11.7482 15.0647 11.5224 14.4392 11.3852C13.9677 11.2817 13.3405 11.2348 12.8667 11.2118C12.6224 11.1999 12.4048 11.1937 12.2483 11.1906C12.1698 11.189 12.1064 11.1882 12.0621 11.1877L12.0105 11.1873L11.9965 11.1872L11.9909 11.1872L11.9909 11.1894L11.9678 11.1896C11.9227 11.1901 11.8579 11.1909 11.778 11.1925C11.6184 11.1956 11.3968 11.2017 11.1485 11.2136C10.6673 11.2366 10.0311 11.2835 9.55882 11.3871C8.93333 11.5243 8.26123 11.7501 7.73447 12.1737C7.17233 12.6258 6.8125 13.2758 6.8125 14.1312L6.8125 18.4477H8.3125ZM10.87 16.9717C10.8656 16.9715 10.8571 16.9711 10.8449 16.9703C10.8192 16.9686 10.7787 16.9651 10.7286 16.9581C10.6245 16.9434 10.4988 16.916 10.3834 16.8693C10.2663 16.8217 10.1944 16.7683 10.1553 16.7214C10.1273 16.6878 10.0919 16.6317 10.0919 16.5026C10.0919 16.3403 10.1354 16.2648 10.1678 16.2234C10.2089 16.1711 10.2792 16.1173 10.3894 16.0706C10.4994 16.0241 10.6198 15.9973 10.72 15.9833C10.7681 15.9765 10.8069 15.9734 10.8313 15.972C10.8433 15.9713 10.8522 15.971 10.8557 15.9709H11.6264L11.1408 16.9717H10.87ZM12.8081 16.9717L13.4988 15.5483L13.5031 15.5392L14.6888 13.0097C14.9523 13.103 15.1649 13.2131 15.3236 13.3407C15.5489 13.5219 15.6855 13.75 15.6855 14.1293V16.9717H12.8081Z" fill="black"/>
</svg>
