<svg width="24" height="24" viewBox="0 0 24 24" fill="none" xmlns="http://www.w3.org/2000/svg">
<path d="M3 3.49121H16.1016V8.61469L15.2133 9.4453C15.0354 9.61168 14.8364 9.75152 14.6016 9.86652V4.99121H4.5V19.0085H6.71863V15.0244H10.174C10.253 15.5537 10.358 16.0529 10.487 16.5244H8.21863V20.5085H3V3.49121Z" fill="black"/>
<path d="M11.8666 19.5699C12.0965 19.9097 12.3399 20.2215 12.5903 20.5085H10.8829V17.7087C11.1559 18.3913 11.4865 19.0082 11.8666 19.5699Z" fill="black"/>
<path d="M8.5957 7.05737H6.5957V9.05737H8.5957V7.05737Z" fill="black"/>
<path d="M10.5039 7.05737H12.5039V9.05737H10.5039V7.05737Z" fill="black"/>
<path d="M6.5957 10.9871H8.5957V12.9871H6.5957V10.9871Z" fill="black"/>
<path d="M15.9735 15.0396V13.8843H17.4735V15.0396H18.6092V16.5396H17.4735V17.695H15.9735V16.5396H14.8379V15.0396H15.9735Z" fill="black"/>
<path d="M16.7501 10.062L17.2623 10.541C18.2655 11.4791 19.557 11.7549 21.264 11.7868L22 11.8005V12.5366C22 15.3635 21.3586 17.2993 20.391 18.7295C19.4379 20.138 18.2065 20.9916 17.1881 21.6976L16.7499 22.0014L16.3118 21.6977C15.2934 20.9917 14.062 20.138 13.1089 18.7294C12.1413 17.2993 11.5 15.3635 11.5 12.5366V11.8005L12.236 11.7868C13.943 11.7549 15.2346 11.4791 16.2378 10.541L16.7501 10.062ZM13.0157 13.2555C13.1135 15.4316 13.656 16.8612 14.3513 17.8889C15.0236 18.8825 15.8686 19.5504 16.7499 20.174C17.6312 19.5504 18.4763 18.8825 19.1486 17.8889C19.844 16.8612 20.3865 15.4316 20.4843 13.2555C19.1452 13.1661 17.8614 12.8745 16.75 12.0614C15.6387 12.8745 14.3548 13.1661 13.0157 13.2555Z" fill="black"/>
</svg>
