<svg width="24" height="24" viewBox="0 0 24 24" fill="none" xmlns="http://www.w3.org/2000/svg">
<path d="M4.40039 1.54541C3.15775 1.54541 2.15039 2.55277 2.15039 3.79541V19.2954C2.15039 20.5381 3.15775 21.5454 4.40039 21.5454H13.4232C13.094 21.2031 12.7719 20.818 12.4741 20.3825C12.3989 20.2724 12.3258 20.1601 12.2548 20.0454H4.40039C3.98618 20.0454 3.65039 19.7096 3.65039 19.2954V3.79541C3.65039 3.3812 3.98618 3.04541 4.40039 3.04541H10.2617V9.43042H16.6504V9.95086L17.0742 9.55863L18.1504 10.5545V7.64379L12.0608 1.54541H4.40039ZM16.3168 7.93042H11.7617V3.36873L16.3168 7.93042Z" fill="black"/>
<path d="M10.7488 11.7162L12.8945 11.6766V10.6211H5.0957V12.1211H10.7488V11.7162Z" fill="black"/>
<path d="M10.9919 16.7148C11.0943 17.2479 11.2278 17.7468 11.3899 18.2148H5.0957V16.7148H10.9919Z" fill="black"/>
<path d="M10.7488 13.9741V13.668H5.0957V15.168H10.791C10.7631 14.7855 10.7488 14.3878 10.7488 13.9741Z" fill="black"/>
<path d="M19.1474 15.9844L18.4403 15.2772L16.7353 16.9822L16.1204 16.3708L15.4153 17.0798L16.7373 18.3945L19.1474 15.9844Z" fill="black"/>
<path d="M17.0742 11.6704L17.5836 12.1418C18.4593 12.9522 19.5911 13.196 21.1134 13.2241L21.8495 13.2377V13.974C21.8495 16.4918 21.2719 18.2244 20.3946 19.5076C19.5332 20.7675 18.4211 21.5305 17.5116 22.1545L17.0741 22.4546L16.6367 22.1545C15.7272 21.5305 14.6151 20.7675 13.7537 19.5076C12.8764 18.2243 12.2988 16.4918 12.2988 13.974V13.2377L13.035 13.2241C14.5573 13.196 15.6891 12.9522 16.5648 12.1418L17.0742 11.6704ZM13.8169 14.6909C13.9139 16.5551 14.3897 17.7801 14.992 18.661C15.574 19.5124 16.3035 20.0908 17.0741 20.6328C17.8447 20.0908 18.5742 19.5124 19.1563 18.661C19.7586 17.7801 20.2345 16.5551 20.3314 14.6909C19.1718 14.6065 18.0523 14.3484 17.0742 13.6562C16.0962 14.3484 14.9765 14.6065 13.8169 14.6909Z" fill="black"/>
</svg>
