<svg width="24" height="24" viewBox="0 0 24 24" fill="none" xmlns="http://www.w3.org/2000/svg">
<path d="M19.3676 0.545991C19.6183 0.58153 19.8428 0.704178 20.012 0.873439L20.768 1.6294C20.9372 1.79866 21.0599 2.02313 21.0954 2.27384C21.131 2.5249 21.0797 2.85153 20.8267 3.10447L20.0367 3.89447L17.747 1.60469L18.537 0.814692C18.7899 0.561747 19.1165 0.510401 19.3676 0.545991Z" fill="black"/>
<path d="M19.6462 7.12628C19.9778 7.99925 20.1592 8.94513 20.1592 9.93395C20.1592 12.7419 18.4642 15.42 16.744 17.4732C15.4385 19.0314 14.0016 20.3552 13.144 21.1453C12.8717 21.3961 12.6578 21.5931 12.525 21.7268L11.9929 22.2626L11.4608 21.7268C11.3284 21.5935 11.1161 21.3977 10.8462 21.1488C9.98991 20.359 8.5536 19.0341 7.24792 17.4726C5.53091 15.4192 3.83984 12.7413 3.83984 9.93395C3.83984 5.49513 7.51194 1.92415 12.0075 1.92415H12.1395L12.1457 1.92643C12.8884 1.93824 13.607 2.04745 14.2888 2.24172L13.0298 3.50079C12.6979 3.45113 12.3576 3.42536 12.0108 3.42536H11.8789C8.24117 3.49238 5.33984 6.39544 5.33984 9.93395C5.33984 12.1844 6.72618 14.5103 8.39864 16.5104C9.63 17.983 10.9081 19.1623 11.7742 19.9616L11.7767 19.9638C11.852 20.0334 11.9243 20.1 11.9931 20.1637C12.0647 20.0975 12.1401 20.028 12.2188 19.9554C13.0861 19.1562 14.3628 17.9797 15.5942 16.5099C17.2701 14.5096 18.6592 12.1839 18.6592 9.93395C18.6592 9.37694 18.5878 8.83581 18.4533 8.31907L19.6462 7.12628Z" fill="black"/>
<path d="M19.3219 4.62224L17.0293 2.32967L10.6426 8.71634L10.6426 11.0087L12.935 11.0087L19.3219 4.62224ZM12.1426 9.33766L17.0293 4.45099L17.2005 4.62221L12.3137 9.50871H12.1426V9.33766Z" fill="black"/>
</svg>
