<svg width="24" height="24" viewBox="0 0 24 24" fill="none" xmlns="http://www.w3.org/2000/svg">
<path d="M9.93457 8.90441C9.93457 7.76365 10.8593 6.83887 12.0001 6.83887C13.1409 6.83887 14.0656 7.76364 14.0656 8.90441C14.0656 10.0452 13.1409 10.9699 12.0001 10.9699C10.8593 10.9699 9.93457 10.0452 9.93457 8.90441Z" fill="black"/>
<path d="M4.91211 9.05524C4.91211 5.34026 8.05985 1.83105 12.0095 1.83105C15.9621 1.83105 19.0871 5.34338 19.0871 9.05524C19.0871 11.4549 17.5965 13.6065 16.1173 15.2105C15.3638 16.0276 14.5804 16.7371 13.926 17.3026C13.6552 17.5366 13.4169 17.7376 13.2125 17.9099C12.9007 18.1728 12.6672 18.3697 12.5187 18.515L11.9942 19.0283L11.4696 18.515C11.3214 18.37 11.09 18.1746 10.7802 17.9131C10.5753 17.74 10.3356 17.5377 10.0635 17.3022C9.41013 16.7367 8.62814 16.0271 7.87596 15.2099C6.39933 13.6058 4.91211 11.4544 4.91211 9.05524ZM12.0095 3.33105C8.95137 3.33105 6.41211 6.10415 6.41211 9.05524C6.41211 10.8607 7.55709 12.6487 8.97958 14.1941C9.67696 14.9517 10.4113 15.6194 11.0452 16.168C11.2619 16.3556 11.4758 16.5365 11.6743 16.7044C11.7866 16.7993 11.8942 16.8903 11.9943 16.9757C12.0959 16.8892 12.2048 16.7972 12.3188 16.7009C12.5166 16.5339 12.7295 16.3541 12.9453 16.1676C13.5803 15.6189 14.3159 14.9512 15.0147 14.1936C16.44 12.648 17.5871 10.8601 17.5871 9.05524C17.5871 6.10103 15.0647 3.33105 12.0095 3.33105Z" fill="black"/>
<path d="M4.92969 22.1687L19.0797 22.1687V20.6687L4.92969 20.6687L4.92969 22.1687Z" fill="black"/>
</svg>
