<svg width="24" height="24" viewBox="0 0 24 24" fill="none" xmlns="http://www.w3.org/2000/svg">
<path d="M22.3732 1.80429L19.9863 4.19128L22.3732 6.57806L21.3126 7.63874L18.9257 5.25196L16.539 7.63874L15.4783 6.57811L17.865 4.19133L15.4781 1.80455L16.5388 0.743868L18.9256 3.13064L21.3125 0.743652L22.3732 1.80429Z" fill="black"/>
<path d="M9.92383 10.0256C9.92383 8.87892 10.8534 7.94938 12 7.94938C13.1466 7.94938 14.0762 8.87892 14.0762 10.0256C14.0762 11.1722 13.1466 12.1017 12 12.1017C10.8534 12.1017 9.92383 11.1722 9.92383 10.0256Z" fill="black"/>
<path d="M12.1457 1.9021C12.5191 1.90804 12.8865 1.9386 13.2461 1.99221V3.51241C12.8463 3.43928 12.4334 3.40102 12.0108 3.40102H11.8789C8.24117 3.46805 5.33984 6.37111 5.33984 9.90962C5.33984 12.1601 6.72618 14.486 8.39864 16.4861C9.63 17.9587 10.9081 19.138 11.7742 19.9372C11.8505 20.0076 11.9235 20.075 11.9931 20.1394C12.0647 20.0731 12.1401 20.0037 12.2188 19.9311C13.0861 19.1319 14.3628 17.9553 15.5942 16.4855C17.0962 14.6928 18.3678 12.6387 18.6155 10.612H20.1245C19.8751 13.1617 18.3202 15.5676 16.744 17.4489C15.4385 19.0071 14.0016 20.3308 13.144 21.1209C12.8717 21.3718 12.6578 21.5688 12.525 21.7025L11.9929 22.2383L11.4608 21.7025C11.3284 21.5692 11.1161 21.3734 10.8462 21.1244C9.98991 20.3346 8.5536 19.0098 7.24792 17.4483C5.53091 15.3949 3.83984 12.717 3.83984 9.90962C3.83984 5.4708 7.51194 1.89982 12.0075 1.89982H12.1395L12.1457 1.9021Z" fill="black"/>
</svg>
