<svg width="24" height="24" viewBox="0 0 24 24" fill="none" xmlns="http://www.w3.org/2000/svg">
<path d="M7.01367 7.41319C7.01367 6.53428 7.72616 5.82178 8.60508 5.82178C9.48399 5.82178 10.1965 6.53428 10.1965 7.41319C10.1965 8.2921 9.48399 9.0046 8.60508 9.0046C7.72616 9.0046 7.01367 8.2921 7.01367 7.41319Z" fill="black"/>
<path d="M8.61056 1.99854C5.61244 1.99854 3.1543 4.38141 3.1543 7.35462C3.1543 9.2376 4.28291 11.001 5.38044 12.3135C6.22332 13.3215 7.16579 14.1906 7.70477 14.6876C7.86775 14.8379 7.99385 14.9542 8.06913 15.03L8.60127 15.5658L9.13342 15.03C9.20877 14.9541 9.33567 14.8372 9.49993 14.6859C10.0398 14.1888 10.9831 13.32 11.8258 12.3141C12.9253 11.0017 14.0566 9.23815 14.0566 7.35462C14.0566 4.42894 11.6869 2.07194 8.74913 2.00095L8.74249 1.99854H8.61056ZM4.6543 7.35462C4.6543 5.26569 6.36802 3.54075 8.53085 3.4993H8.61266C10.8105 3.4993 12.5566 5.23773 12.5566 7.35462C12.5566 8.68014 11.7312 10.0913 10.676 11.3507C9.91986 12.2533 9.14984 12.9662 8.60148 13.4715C8.05397 12.9663 7.28511 12.253 6.53116 11.3513C5.47818 10.092 4.6543 8.68068 4.6543 7.35462Z" fill="black"/>
<path d="M16.1537 14.5015L4.22335 20.069L5.89708 15.0478C5.53782 14.7008 5.12899 14.2896 4.71937 13.8375L1.99805 22.0015H21.998L18.998 13.0015H13.2022C13.1257 13.0965 13.0501 13.1885 12.9756 13.2774C12.6067 13.7177 12.2218 14.1318 11.8587 14.5015H16.1537ZM12.4982 17.8627L18.1527 20.5015H6.84366L12.4982 17.8627ZM14.2717 17.035L18.157 15.2219L19.5885 19.5162L14.2717 17.035Z" fill="black"/>
</svg>
