<svg width="24" height="24" viewBox="0 0 24 24" fill="none" xmlns="http://www.w3.org/2000/svg">
<path d="M10.0059 7.92154C10.0059 6.81554 10.9024 5.91895 12.0084 5.91895C13.1145 5.91895 14.011 6.81554 14.011 7.92154C14.011 9.02755 13.1145 9.92414 12.0084 9.92414C10.9024 9.92414 10.0059 9.02754 10.0059 7.92154Z" fill="black"/>
<path d="M12.007 1.42383C8.26787 1.42383 5.20898 4.39465 5.20898 8.09313C5.20898 10.4336 6.61593 12.6495 8.02002 14.3287C9.09185 15.6105 10.2785 16.705 10.9747 17.3471C11.1907 17.5462 11.3595 17.7019 11.4629 17.8061L11.9951 18.3419L12.5272 17.8061C12.631 17.7017 12.8009 17.5451 13.0187 17.3445C13.716 16.7021 14.9034 15.6084 15.9751 14.3292C17.3818 12.6503 18.792 10.4341 18.792 8.09313C18.792 4.44174 15.8245 1.49685 12.1452 1.42611L12.139 1.42383H12.007ZM6.70898 8.09313C6.70898 5.28703 9.01011 2.97918 11.9026 2.92481H12.0097C14.9486 2.92481 17.292 5.25097 17.292 8.09313C17.292 9.87611 16.1877 11.7398 14.8253 13.3659C13.8278 14.5565 12.8007 15.503 12.0936 16.1546L11.9953 16.2452L11.9027 16.1598C11.1965 15.5082 10.1682 14.5593 9.17074 13.3665C7.81121 11.7406 6.70898 9.87666 6.70898 8.09313Z" fill="black"/>
<path d="M7.55652 16.0762H4.99258L2.39258 22.5762H21.6081L19.0081 16.0762H16.4378C15.9239 16.6379 15.4139 17.1467 14.9665 17.5762H17.9926L19.3926 21.0762H4.60813L6.00813 17.5762H9.02542C8.57876 17.1468 8.06974 16.6381 7.55652 16.0762Z" fill="black"/>
</svg>
