<svg width="24" height="24" viewBox="0 0 24 24" fill="none" xmlns="http://www.w3.org/2000/svg">
<path d="M20.1205 0.38208L20.1206 3.75772L23.4961 3.75765L23.4961 5.25764L20.1206 5.25772L20.1207 8.63306L18.6207 8.63309L18.6206 5.25775L15.2452 5.25783L15.2451 3.75783L18.6206 3.75775L18.6205 0.382114L20.1205 0.38208Z" fill="black"/>
<path d="M9.92383 10.0894C9.92383 8.94272 10.8534 8.01318 12 8.01318C13.1466 8.01318 14.0762 8.94272 14.0762 10.0894C14.0762 11.236 13.1466 12.1655 12 12.1655C10.8534 12.1655 9.92383 11.236 9.92383 10.0894Z" fill="black"/>
<path d="M12.1457 1.92586C12.5191 1.9318 12.8865 1.96236 13.2461 2.01597V3.53618C12.8463 3.46305 12.4334 3.42479 12.0108 3.42479L11.8789 3.42477C8.24112 3.49179 5.33984 6.39487 5.33984 9.93338C5.33984 12.1839 6.72618 14.5097 8.39864 16.5099C9.63 17.9825 10.9081 19.1618 11.7742 19.961C11.8505 20.0313 11.9235 20.0988 11.9931 20.1632C12.0647 20.0969 12.1401 20.0274 12.2188 19.9549C13.0861 19.1557 14.3628 17.9791 15.5942 16.5093C17.0962 14.7165 18.3678 12.6624 18.6155 10.6357H20.1245C19.8751 13.1855 18.3202 15.5914 16.744 17.4726C15.4385 19.0308 14.0016 20.3546 13.144 21.1447C12.8717 21.3955 12.6578 21.5926 12.525 21.7263L11.9929 22.2621L11.4608 21.7263C11.3284 21.593 11.1161 21.3972 10.8462 21.1482C9.98991 20.3584 8.5536 19.0335 7.24792 17.4721C5.53091 15.4187 3.83984 12.7408 3.83984 9.93338C3.83984 5.49456 7.51194 1.92358 12.0075 1.92358H12.1395L12.1457 1.92586Z" fill="black"/>
</svg>
