<svg width="24" height="24" viewBox="0 0 24 24" fill="none" xmlns="http://www.w3.org/2000/svg">
<path d="M19.9252 10.6848V17.2407L18.4252 15.7407V10.6848C18.4252 10.2706 18.0894 9.93481 17.6752 9.93481H12.6193L11.1193 8.43481H15.3711V6.05151C15.3711 4.18944 13.8616 2.67993 11.9995 2.67993C10.173 2.67993 8.68578 4.13227 8.62958 5.9451L7.33299 4.64851C7.93543 2.64193 9.79674 1.17993 11.9995 1.17993C14.69 1.17993 16.8711 3.36101 16.8711 6.05151V8.43481H17.6752C18.9178 8.43481 19.9252 9.44217 19.9252 10.6848Z" fill="black"/>
<path d="M6.17613 8.43967L0.943359 3.2069L2.00402 2.14624L22.214 22.3562L21.1533 23.4169L19.3135 21.577C18.9032 22.0128 18.321 22.2848 17.6752 22.2848H6.32519C5.08255 22.2848 4.0752 21.2775 4.0752 20.0348V10.6848C4.0752 9.49226 5.00299 8.5164 6.17613 8.43967ZM7.67127 9.93481H6.3252C5.91098 9.93481 5.5752 10.2706 5.5752 10.6848V20.0348C5.5752 20.449 5.91098 20.7848 6.32519 20.7848H17.6752C17.9068 20.7848 18.1138 20.6799 18.2514 20.5149L13.942 16.2055C13.627 16.9677 12.8763 17.504 12.0004 17.504C10.8406 17.504 9.90039 16.5638 9.90039 15.404C9.90039 14.528 10.4367 13.7774 11.1988 13.4624L7.67127 9.93481Z" fill="black"/>
</svg>
