<svg width="24" height="24" viewBox="0 0 24 24" fill="none" xmlns="http://www.w3.org/2000/svg">
<path d="M12.7496 14.5872L12.7496 11.5708L11.2496 11.5708L11.2496 14.5872L8.2334 14.5873L8.23343 16.0873L11.2497 16.0872L11.2497 19.1033L12.7497 19.1033L12.7497 16.0872L15.7659 16.0871L15.7659 14.5871L12.7496 14.5872Z" fill="black"/>
<path d="M7.12793 6.02881C7.12793 3.33831 9.30901 1.15723 11.9995 1.15723C14.69 1.15723 16.8711 3.33831 16.8711 6.02881V8.41211H17.6752C18.9178 8.41211 19.9252 9.41947 19.9252 10.6621V20.0121C19.9252 21.2548 18.9178 22.2621 17.6752 22.2621H6.32519C5.08255 22.2621 4.0752 21.2547 4.0752 20.0121V10.6621C4.0752 9.41947 5.08255 8.41211 6.3252 8.41211H7.12793V6.02881ZM15.3711 6.02881C15.3711 4.16674 13.8616 2.65723 11.9995 2.65723C10.1374 2.65723 8.62793 4.16674 8.62793 6.02881V8.41211H15.3711V6.02881ZM6.3252 9.91211C5.91098 9.91211 5.5752 10.2479 5.5752 10.6621V20.0121C5.5752 20.4263 5.91098 20.7621 6.32519 20.7621H17.6752C18.0894 20.7621 18.4252 20.4263 18.4252 20.0121V10.6621C18.4252 10.2479 18.0894 9.91211 17.6752 9.91211H6.3252Z" fill="black"/>
</svg>
