<svg width="24" height="24" viewBox="0 0 24 24" fill="none" xmlns="http://www.w3.org/2000/svg">
<path d="M12 17.5044C13.1602 17.5044 14.1006 16.5642 14.1006 15.4045C14.1006 14.2446 13.1602 13.3044 12 13.3044C10.8408 13.3044 9.90039 14.2446 9.90039 15.4045C9.90039 16.5642 10.8408 17.5044 12 17.5044Z" fill="black"/>
<path d="M7.12793 6.052C7.12793 3.36157 9.30859 1.18042 12 1.18042C14.6904 1.18042 16.8711 3.36157 16.8711 6.052V8.4353H17.6748C18.918 8.4353 19.9248 9.44263 19.9248 10.6853V20.0354C19.9248 21.2778 18.918 22.2854 17.6748 22.2854H6.3252C5.08301 22.2854 4.0752 21.2778 4.0752 20.0354V10.6853C4.0752 9.44263 5.08301 8.4353 6.3252 8.4353H7.12793V6.052ZM15.3711 6.052C15.3711 4.18994 13.8613 2.68042 12 2.68042C10.1377 2.68042 8.62793 4.18994 8.62793 6.052V8.4353H15.3711V6.052ZM6.3252 9.9353C5.91113 9.9353 5.5752 10.271 5.5752 10.6853V20.0354C5.5752 20.4495 5.91113 20.7854 6.3252 20.7854H17.6748C18.0898 20.7854 18.4248 20.4495 18.4248 20.0354V10.6853C18.4248 10.4895 18.3496 10.3115 18.2275 10.178C18.0908 10.0288 17.8936 9.9353 17.6748 9.9353H6.3252Z" fill="black"/>
</svg>
