<svg width="24" height="24" viewBox="0 0 24 24" fill="none" xmlns="http://www.w3.org/2000/svg">
<path d="M4.43164 3.97461C4.43164 3.28425 4.99129 2.72461 5.68164 2.72461H8.18164C8.872 2.72461 9.43164 3.28425 9.43164 3.97461V6.22656H10.1083C11.351 6.22656 12.3583 7.23392 12.3583 8.47656V11.4195C11.8062 11.476 11.2944 11.6838 10.8583 12.0043V8.47656C10.8583 8.06235 10.5225 7.72656 10.1083 7.72656H3.75391C3.33969 7.72656 3.00391 8.06235 3.00391 8.47656V17.8701C3.00391 18.2843 3.33969 18.6201 3.75391 18.6201H9.43164L9.43144 20.5264C9.43144 20.9406 9.11118 21.2764 8.71612 21.2764C8.32105 21.2764 8.00079 20.9406 8.00079 20.5264V20.1201H5.86228V20.5264C5.86228 20.9406 5.54202 21.2764 5.14696 21.2764C4.7519 21.2764 4.43164 20.9406 4.43164 20.5264V20.1201H3.75391C2.51127 20.1201 1.50391 19.1128 1.50391 17.8701V8.47656C1.50391 7.23392 2.51127 6.22656 3.75391 6.22656H4.43164V3.97461ZM5.93164 6.22656H7.93164V4.22461H5.93164V6.22656Z" fill="black"/>
<path d="M5.18164 9.08643C5.59585 9.08643 5.93164 9.42221 5.93164 9.83643V16.7768C5.93164 17.191 5.59585 17.5268 5.18164 17.5268C4.76743 17.5268 4.43164 17.191 4.43164 16.7768V9.83643C4.43164 9.42221 4.76743 9.08643 5.18164 9.08643Z" fill="black"/>
<path d="M9.4314 9.83643C9.4314 9.42221 9.09562 9.08643 8.6814 9.08643C8.26719 9.08643 7.9314 9.42221 7.9314 9.83643V16.7768C7.9314 17.191 8.26719 17.5268 8.6814 17.5268C9.09562 17.5268 9.4314 17.191 9.4314 16.7768V9.83643Z" fill="black"/>
<path d="M10.8574 14.6538C10.8574 13.6873 11.6409 12.9038 12.6074 12.9038H14.3027V11.9062C14.3027 11.2159 14.8624 10.6562 15.5527 10.6562H17.8027C18.4931 10.6562 19.0527 11.2159 19.0527 11.9062V12.9038H20.7484C21.7149 12.9038 22.4984 13.6873 22.4984 14.6538V19.5265C22.4984 20.493 21.7149 21.2765 20.7484 21.2765H12.6074C11.6409 21.2765 10.8574 20.493 10.8574 19.5265V14.6538ZM17.5527 12.9038V12.1562H15.8027V12.9038H17.5527ZM12.6074 14.4038C12.4694 14.4038 12.3574 14.5157 12.3574 14.6538V19.5265C12.3574 19.6646 12.4694 19.7765 12.6074 19.7765H13.0586V14.4038H12.6074ZM19.0508 19.7765V14.4038H14.3086V19.7765H19.0508ZM20.3008 19.7765H20.7484C20.8865 19.7765 20.9984 19.6646 20.9984 19.5265V14.6538C20.9984 14.5157 20.8865 14.4038 20.7484 14.4038H20.3008V19.7765Z" fill="black"/>
</svg>
