<svg width="24" height="24" viewBox="0 0 24 24" fill="none" xmlns="http://www.w3.org/2000/svg">
<path d="M12.75 14.1714V17.1748H11.25V14.1714H8.24609V12.6714H11.25V9.66772H12.75V12.6714H15.7532V14.1714H12.75Z" fill="black"/>
<path d="M9.25 2.50781C8.00736 2.50781 7 3.51517 7 4.75781V6.27539H4C2.75736 6.27539 1.75 7.28275 1.75 8.52539V18.7576C1.75 20.0003 2.75736 21.0076 4 21.0076H20C21.2426 21.0076 22.25 20.0003 22.25 18.7576V8.52539C22.25 7.28275 21.2426 6.27539 20 6.27539H17V4.75781C17 3.51517 15.9926 2.50781 14.75 2.50781H9.25ZM15.5 6.27539H8.5V4.75781C8.5 4.3436 8.83579 4.00781 9.25 4.00781H14.75C15.1642 4.00781 15.5 4.3436 15.5 4.75781V6.27539ZM3.25 8.52539C3.25 8.11118 3.58579 7.77539 4 7.77539H5.125V19.5076H4C3.58579 19.5076 3.25 19.1719 3.25 18.7576V8.52539ZM6.625 19.5076V7.77539H17.373V19.5076H6.625ZM18.873 19.5076V7.77539H20C20.4142 7.77539 20.75 8.11118 20.75 8.52539V18.7576C20.75 19.1719 20.4142 19.5076 20 19.5076H18.873Z" fill="black"/>
</svg>
