<svg width="24" height="24" viewBox="0 0 24 24" fill="none" xmlns="http://www.w3.org/2000/svg">
<path d="M20.7489 10.473V13.6387H19.2489V11.1615C19.1399 11.2012 19.0489 11.2259 18.9758 11.2355C18.9027 11.2451 18.8271 11.25 18.7489 11.25C18.2989 11.25 17.903 11.1685 17.5614 11.0057C17.2197 10.8429 16.8886 10.582 16.5681 10.223C16.2873 10.5358 15.9553 10.7852 15.572 10.9711C15.1886 11.157 14.7514 11.25 14.2604 11.25C13.836 11.25 13.436 11.1618 13.0604 10.9855C12.6848 10.8092 12.3309 10.5551 11.9989 10.223C11.6899 10.5551 11.3399 10.8092 10.9489 10.9855C10.5578 11.1618 10.1617 11.25 9.7604 11.25C9.30912 11.25 8.88604 11.1682 8.49118 11.0048C8.0963 10.8413 7.74885 10.5807 7.44885 10.223C7.02834 10.6435 6.64084 10.9198 6.28635 11.0519C5.93187 11.1839 5.58604 11.25 5.24885 11.25C5.17065 11.25 5.08989 11.2451 5.00655 11.2355C4.9232 11.2259 4.8373 11.2012 4.74885 11.1615V18.4423C4.74885 18.532 4.7777 18.6058 4.83538 18.6635C4.89308 18.7212 4.9668 18.75 5.05655 18.75H8.58984V20.25H5.05655C4.55144 20.25 4.12388 20.075 3.77388 19.725C3.42388 19.375 3.24888 18.9474 3.24888 18.4423V10.4538C2.84631 10.123 2.54406 9.69388 2.34213 9.16633C2.14021 8.63876 2.13605 8.06921 2.32963 7.45768L3.34118 4.15382C3.47451 3.73332 3.7008 3.39423 4.02003 3.13653C4.33926 2.87884 4.72067 2.75 5.16425 2.75H18.8142C19.2578 2.75 19.6367 2.87307 19.9508 3.11922C20.2649 3.36537 20.4937 3.70383 20.6373 4.1346L21.6681 7.45768C21.8617 8.06921 21.8575 8.63683 21.6556 9.16055C21.4537 9.68427 21.1514 10.1218 20.7489 10.473ZM14.1989 9.75C14.745 9.75 15.1556 9.58301 15.4306 9.24903C15.7056 8.91506 15.8181 8.55641 15.7681 8.17308L15.1604 4.24995H12.7489V8.19998C12.7489 8.62049 12.8912 8.98396 13.1758 9.29038C13.4604 9.59679 13.8014 9.75 14.1989 9.75ZM9.69885 9.75C10.1591 9.75 10.5325 9.59679 10.8191 9.29038C11.1056 8.98396 11.2489 8.62049 11.2489 8.19998V4.24995H8.8373L8.2296 8.21153C8.17577 8.56666 8.28731 8.91185 8.56423 9.2471C8.84116 9.58237 9.21937 9.75 9.69885 9.75ZM5.24885 9.75C5.61937 9.75 5.93797 9.62083 6.20465 9.3625C6.47132 9.10415 6.63606 8.77947 6.69888 8.38845L7.28735 4.24995H5.16425C5.05527 4.24995 4.96873 4.27399 4.90463 4.32208C4.84051 4.37016 4.79243 4.44228 4.76038 4.53845L3.79885 7.79227C3.66679 8.22178 3.72896 8.65543 3.98538 9.09325C4.24179 9.53108 4.66295 9.75 5.24885 9.75ZM18.7489 9.75C19.2899 9.75 19.704 9.5375 19.9912 9.1125C20.2784 8.68748 20.3476 8.24741 20.1989 7.79227L19.1874 4.5192C19.1553 4.42305 19.1072 4.35413 19.0431 4.31245C18.979 4.27078 18.8925 4.24995 18.7835 4.24995H16.7104L17.2989 8.38845C17.3617 8.77947 17.5264 9.10415 17.7931 9.3625C18.0597 9.62083 18.3783 9.75 18.7489 9.75Z" fill="black"/>
<path d="M10.0283 15.0391V21.25H11.6022V15.0391H10.0283Z" fill="black"/>
<path d="M12.3891 15.0391V21.25H13.9416V15.0391H12.3891Z" fill="black"/>
<path d="M14.7286 15.0391V21.25H15.5155V15.0391H14.7286Z" fill="black"/>
<path d="M17.0893 15.0391V21.25H18.6631V15.0391H17.0893Z" fill="black"/>
<path d="M19.4501 15.0391V21.25H21.8108V15.0391H19.4501Z" fill="black"/>
</svg>
