<svg width="24" height="24" viewBox="0 0 24 24" fill="none" xmlns="http://www.w3.org/2000/svg">
<path d="M15.6998 17.2128L20.2864 21.7994L21.347 20.7388L2.80871 2.2002L1.74805 3.26085L8.93652 10.4494V11.219C8.93652 12.731 10.1623 13.9568 11.6743 13.9568C11.9103 13.9568 12.1393 13.9269 12.3578 13.8708L14.6128 16.1257C13.753 16.6385 12.7483 16.9331 11.6749 16.9331C8.60751 16.9331 6.10071 14.5271 5.93635 11.4998H4.43457C4.58955 15.1045 7.37774 18.0297 10.9248 18.3947V21.5916H12.4248V18.3947C13.6282 18.2709 14.7442 17.8525 15.6998 17.2128Z" fill="black"/>
<path d="M14.4121 10.9777V5.2002C14.4121 3.68815 13.1864 2.4624 11.6743 2.4624C10.1623 2.4624 8.93652 3.68815 8.93652 5.2002V5.50208L10.4365 7.0021V5.2002C10.4365 4.51658 10.9907 3.9624 11.6743 3.9624C12.3579 3.9624 12.9121 4.51658 12.9121 5.2002V9.47772L14.4121 10.9777Z" fill="black"/>
<path d="M18.9153 11.4998C18.8669 12.6259 18.5615 13.6857 18.0562 14.6219L16.9356 13.5013C17.2081 12.8834 17.375 12.2086 17.4135 11.4998H18.9153Z" fill="black"/>
</svg>
