<svg width="24" height="24" viewBox="0 0 24 24" fill="none" xmlns="http://www.w3.org/2000/svg">
<path d="M21.0527 7.60059C21.0527 10.1863 19.0644 12.3076 16.5333 12.5188C17.1768 12.7725 17.7217 13.1916 18.1265 13.7163C20.6968 12.8723 22.5527 10.4532 22.5527 7.60059C22.5527 4.04633 19.6714 1.16504 16.1172 1.16504C12.5629 1.16504 9.68164 4.04633 9.68164 7.60059C9.68164 8.48518 9.86012 9.32809 10.183 10.0953L12.5305 10.9911C11.6944 10.1069 11.1816 8.91361 11.1816 7.60059C11.1816 4.87476 13.3914 2.66504 16.1172 2.66504C18.843 2.66504 21.0527 4.87476 21.0527 7.60059Z" fill="black"/>
<path d="M15.3672 4.45059H14.4505C14.0363 4.45059 13.7005 4.78637 13.7005 5.20059V7.60059C13.7005 8.0148 14.0363 8.35059 14.4505 8.35059H17.0339V9.25059H13.6172V10.7506H15.3672V11.6006H16.8672V10.7506H17.7839C18.1981 10.7506 18.5339 10.4148 18.5339 10.0006V7.60059C18.5339 7.18637 18.1981 6.85059 17.7839 6.85059H15.2005V5.95059H18.6172V4.45059H16.8672V3.60059H15.3672V4.45059Z" fill="black"/>
<path d="M5.91912 9.25879L4.69945 8.03912H8.38879V6.53912H4.69945L5.91912 5.31945L4.85846 4.25879L1.82812 7.28912L4.85846 10.3194L5.91912 9.25879Z" fill="black"/>
<path d="M1.44727 11.4243V22.3774H7.13965V20.729L14.5122 22.8347L22.5537 20.2565V19.4122C22.5537 17.8941 21.3246 16.6622 19.8051 16.6622H17.4079V16.0075C17.4079 15.0744 16.8319 14.2381 15.9601 13.9054L9.45856 11.4243H1.44727ZM14.4871 21.2675L7.13965 19.1691V12.9243H9.18207L15.4253 15.3068C15.7159 15.4177 15.9079 15.6965 15.9079 16.0075V16.6622H14.4021C13.6511 16.6622 12.5249 16.3397 11.5101 15.9713C11.314 15.9002 11.1265 15.8289 10.9518 15.7605L10.539 17.2094C10.6853 17.2657 10.839 17.3235 10.9982 17.3813C12.0105 17.7488 13.3598 18.1622 14.4021 18.1622H19.8051C20.412 18.1622 20.9176 18.595 21.0303 19.1698L14.4871 21.2675ZM2.94727 12.9243H5.63965V20.8774H2.94727V12.9243Z" fill="black"/>
</svg>
