<svg width="24" height="24" viewBox="0 0 24 24" fill="none" xmlns="http://www.w3.org/2000/svg">
<path d="M17.252 6.14453C17.252 8.10989 15.6587 9.70312 13.6934 9.70312C11.728 9.70312 10.1348 8.10989 10.1348 6.14453C10.1348 4.17917 11.728 2.58594 13.6934 2.58594C15.6587 2.58594 17.252 4.17917 17.252 6.14453ZM15.752 6.14453C15.752 5.0076 14.8303 4.08594 13.6934 4.08594C12.5564 4.08594 11.6348 5.0076 11.6348 6.14453C11.6348 7.28146 12.5564 8.20312 13.6934 8.20312C14.8303 8.20312 15.752 7.28146 15.752 6.14453Z" fill="black"/>
<path d="M1.44727 11.3369V22.29H7.13965V20.6416L14.5122 22.7473L22.5537 20.1691V19.3248C22.5537 17.8067 21.3246 16.5748 19.8051 16.5748H17.4079V15.9201C17.4079 14.987 16.8319 14.1507 15.9601 13.818L9.45856 11.3369H1.44727ZM14.4871 21.1801L7.13965 19.0817V12.8369H9.18207L15.4253 15.2194C15.7159 15.3303 15.9079 15.6091 15.9079 15.9201V16.5748H14.4021C13.6511 16.5748 12.5249 16.2523 11.5101 15.8839C11.314 15.8128 11.1265 15.7415 10.9518 15.6731L10.539 17.122C10.6853 17.1783 10.839 17.2361 10.9982 17.2939C12.0105 17.6614 13.3598 18.0748 14.4021 18.0748H19.8051C20.412 18.0748 20.9176 18.5076 21.0303 19.0823L14.4871 21.1801ZM2.94727 12.8369H5.63965V20.79H2.94727V12.8369Z" fill="black"/>
<path d="M22.388 4.45471L19.4407 5.45423L18.959 4.03369L21.9062 3.03418L22.388 4.45471Z" fill="black"/>
<path d="M19.4407 6.99988L22.388 7.99939L21.9062 9.41992L18.959 8.42041L19.4407 6.99988Z" fill="black"/>
<path d="M5.00067 4.45471L7.94794 5.45423L8.42969 4.03369L5.48242 3.03418L5.00067 4.45471Z" fill="black"/>
<path d="M7.94794 6.99988L5.00067 7.99939L5.48242 9.41992L8.42969 8.42041L7.94794 6.99988Z" fill="black"/>
</svg>
