<svg width="24" height="24" viewBox="0 0 24 24" fill="none" xmlns="http://www.w3.org/2000/svg">
<path d="M13.184 5.77698C9.74711 5.77698 6.96094 8.56315 6.96094 12.0001C6.96094 15.437 9.74711 18.2231 13.184 18.2231C16.6209 18.2231 19.4071 15.437 19.4071 12.0001C19.4071 8.56315 16.6209 5.77698 13.184 5.77698ZM8.46094 12.0001C8.46094 11.7486 8.48059 11.5018 8.51843 11.261L10.5462 11.9149C10.5453 11.9422 10.5449 11.9697 10.5449 11.9972C10.5449 12.604 10.7497 13.163 11.0939 13.6088L9.85255 15.348C8.99299 14.4927 8.46094 13.3085 8.46094 12.0001ZM11.0168 10.4906L8.9851 9.83538C9.66072 8.52749 10.9295 7.57575 12.4355 7.33595V9.46532C11.8537 9.6372 11.3555 10.0042 11.0168 10.4906ZM11.0697 16.2246L12.3091 14.4882C12.583 14.5845 12.8777 14.6368 13.1846 14.6368C13.4961 14.6368 13.795 14.5829 14.0725 14.4838L15.3106 16.2185C14.6715 16.5413 13.949 16.7231 13.184 16.7231C12.424 16.7231 11.7058 16.5436 11.0697 16.2246ZM17.9071 12.0001C17.9071 13.3035 17.3791 14.4837 16.5252 15.3383L15.2834 13.5983C15.6227 13.1542 15.8242 12.5992 15.8242 11.9972C15.8242 11.9699 15.8238 11.9426 15.823 11.9155L17.8498 11.2619C17.8875 11.5024 17.9071 11.7489 17.9071 12.0001ZM17.3834 9.83623L15.3527 10.4911C15.0144 10.005 14.5168 9.63808 13.9355 9.4659V7.33644C15.4406 7.57709 16.7083 8.52879 17.3834 9.83623ZM12.0449 11.9972C12.0449 11.3678 12.5552 10.8575 13.1846 10.8575C13.814 10.8575 14.3242 11.3678 14.3242 11.9972C14.3242 12.6266 13.814 13.1368 13.1846 13.1368C12.5552 13.1368 12.0449 12.6266 12.0449 11.9972Z" fill="black"/>
<path d="M4.05836 2.48389C3.63996 2.48389 3.30078 2.81967 3.30078 3.23389C3.30078 3.6481 3.63996 3.98389 4.05836 3.98389L8.05378 3.98389C7.39348 4.40736 6.78895 4.91017 6.25363 5.47888H2.97461C2.5604 5.47888 2.22461 5.81467 2.22461 6.22888C2.22461 6.6431 2.5604 6.97888 2.97461 6.97888H5.09899C4.19192 8.43636 3.66797 10.157 3.66797 12.0001C3.66797 13.8704 4.20753 15.6147 5.1395 17.0858H3.72266C3.30844 17.0858 2.97266 17.4216 2.97266 17.8358C2.97266 18.25 3.30844 18.5858 3.72266 18.5858H6.31492C6.83495 19.1281 7.41856 19.6089 8.05378 20.0163H2.05078C1.63657 20.0163 1.30078 20.3521 1.30078 20.7663C1.30078 21.1805 1.63657 21.5163 2.05078 21.5163H13.623C13.6811 21.5163 13.7377 21.5097 13.7919 21.4972C18.7644 21.1838 22.7004 17.0516 22.7004 12.0001C22.7004 6.79067 18.5145 2.55892 13.3226 2.48487L13.2834 2.48389H4.05836ZM21.2004 12.0001C21.2004 16.4273 17.6114 20.0163 13.1842 20.0163C8.75695 20.0163 5.16797 16.4273 5.16797 12.0001C5.16797 7.57409 8.75496 3.98588 13.1805 3.98389H13.1879C17.6134 3.98588 21.2004 7.57409 21.2004 12.0001Z" fill="black"/>
</svg>
