<svg width="24" height="24" viewBox="0 0 24 24" fill="none" xmlns="http://www.w3.org/2000/svg">
<path d="M13.3056 18.8262H18.8264V13.3054H17.2925L17.2926 16.2535L13.0607 11.9999L17.3143 7.74637L17.3143 10.6945H18.8264V5.17365L13.3056 5.17365L13.3056 6.7075L16.2537 6.70749L12.0001 10.9393L7.74655 6.68574L10.6947 6.68572V5.17365L5.17383 5.17365L5.17383 10.6945H6.68591L6.68592 7.74637L10.9395 11.9999L6.68592 16.2535L6.68592 13.3271L5.17385 13.3271L5.17383 18.8262H10.6947L10.6947 17.2924L7.74655 17.2924L12.0001 13.0606L16.2537 17.3141L13.3056 17.3141V18.8262Z" fill="black"/>
<path d="M2.13477 21.8651V2.13477H21.8651V21.8651H2.13477ZM3.63477 3.63477V20.3651H20.3651V3.63477H3.63477Z" fill="black"/>
</svg>
