<svg width="24" height="24" viewBox="0 0 24 24" fill="none" xmlns="http://www.w3.org/2000/svg">
<path d="M11.9847 3.51561C7.30737 3.51561 3.51563 7.3073 3.51563 11.9846C3.51563 15.9179 6.19712 19.225 9.83178 20.1775L8.63334 21.3762C4.77619 19.9997 2.01562 16.3145 2.01562 11.9846C2.01562 6.47888 6.47894 2.01562 11.9847 2.01562C16.9536 2.01562 21.0734 5.65083 21.8297 10.4068C21.3182 10.0437 20.7412 9.81371 20.1468 9.71693C19.1554 6.14076 15.8766 3.51561 11.9847 3.51561ZM18.149 9.8937C17.2783 7.3262 14.8481 5.47848 11.9863 5.47848C8.39324 5.47848 5.48048 8.39121 5.48048 11.9842C5.48048 15.4255 8.15233 18.2427 11.5347 18.4746L13.1569 16.8524C12.7814 16.9424 12.3894 16.99 11.9863 16.99C11.1781 16.99 10.4147 16.7985 9.73887 16.4584L11.088 14.5681C11.3691 14.6656 11.671 14.7185 11.9853 14.7185C12.3044 14.7185 12.6107 14.664 12.8954 14.5636L13.9576 16.0518L15.0885 14.9209L14.1688 13.6323C14.5164 13.1734 14.7226 12.6014 14.7226 11.9813C14.7226 11.957 14.7223 11.9327 14.7217 11.9085L16.1396 11.4512C16.283 11.2382 16.4489 11.0359 16.6373 10.8475C17.0787 10.4061 17.597 10.0881 18.149 9.8937ZM6.98048 11.9842C6.98048 11.7159 7.0016 11.4524 7.04227 11.1955L9.24905 11.9072C9.2484 11.9318 9.24807 11.9565 9.24807 11.9813C9.24807 12.6063 9.45754 13.1824 9.8101 13.6431L8.45901 15.5362C7.54587 14.6293 6.98048 13.3728 6.98048 11.9842ZM9.74416 10.4094L7.5328 9.69623C8.24869 8.30562 9.59679 7.29371 11.1973 7.04029V9.3592C10.6026 9.53768 10.093 9.91295 9.74416 10.4094ZM16.4402 9.69683L14.2273 10.4105C13.8787 9.91388 13.3693 9.5384 12.7748 9.35962V7.0402C14.3758 7.2935 15.7243 8.30575 16.4402 9.69683ZM10.7481 11.9813C10.7481 11.298 11.302 10.7441 11.9853 10.7441C12.6687 10.7441 13.2226 11.298 13.2226 11.9813C13.2226 12.6646 12.6687 13.2186 11.9853 13.2186C11.302 13.2186 10.7481 12.6646 10.7481 11.9813ZM18.92 13.2506L20.6329 11.5392C19.6758 11.0353 18.4649 11.1852 17.6602 11.9899C16.8555 12.794 16.7051 14.005 17.209 14.9615L11.2461 20.9238L12.3067 21.9849L18.2696 16.022C18.8223 16.314 19.461 16.3873 20.0567 16.2408C20.4903 16.1343 20.9024 15.9117 21.2422 15.5723C21.7344 15.0806 21.9805 14.4371 21.9844 13.7926C21.9864 13.3824 21.8887 12.9723 21.6934 12.6002L19.9805 14.3116L18.92 13.2506Z" fill="black"/>
</svg>
