<svg width="24" height="24" viewBox="0 0 24 24" fill="none" xmlns="http://www.w3.org/2000/svg">
<path d="M22 12C22 17.5229 17.5234 22 12 22C6.47656 22 2 17.5229 2 12C2 6.47705 6.47656 2 12 2C17.5234 2 22 6.47705 22 12ZM11.7502 15.7478C11.1187 14.9544 10.3933 14.1583 9.56055 13.3789C9.24902 13.0878 8.93317 12.8145 8.6152 12.5582C8.21495 12.9035 7.69363 13.1123 7.12354 13.1123C6.84164 13.1123 6.57167 13.0612 6.32237 12.9679C6.27326 13.0369 6.22502 13.1062 6.17773 13.1758C6.05469 13.3574 5.93555 13.541 5.82227 13.7261C5.41211 14.3975 5.06836 15.0854 4.7793 15.7607C4.70312 15.8931 4.63086 16.0117 4.5625 16.1177C5.76953 18.2949 7.90625 19.8862 10.4355 20.3564C10.748 19.9834 11.1621 19.4805 11.5449 18.9712C11.6612 18.8167 11.7751 18.6618 11.8829 18.5097C11.5461 18.1148 11.3428 17.6027 11.3428 17.043C11.3428 16.5612 11.4934 16.1146 11.7502 15.7478ZM13.7435 14.786C13.7856 14.6595 13.8252 14.5317 13.8633 14.4028C13.9414 14.1445 14.0117 13.8813 14.0742 13.6133C14.2285 12.9526 14.3379 12.2622 14.3887 11.5435C14.4359 10.8758 14.4487 10.2289 14.4325 9.6038C13.8403 9.44727 13.3445 9.05342 13.0531 8.53015C12.8898 8.5656 12.7256 8.60452 12.5605 8.64697C12.3145 8.70996 12.0664 8.78125 11.8184 8.86084C10.8713 9.16386 10.0276 9.57698 9.27938 10.0694C9.36282 10.3067 9.4082 10.5619 9.4082 10.8276C9.4082 10.9693 9.3953 11.108 9.37062 11.2426C9.59933 11.422 9.82753 11.6095 10.0547 11.8052C10.2324 11.9595 10.4102 12.1191 10.5859 12.2842C11.4939 13.1347 12.2839 14.0044 12.9703 14.8717C13.1714 14.8132 13.384 14.7817 13.604 14.7817C13.6508 14.7817 13.6974 14.7832 13.7435 14.786ZM15.3255 18.5092C15.3671 18.5884 15.4076 18.6665 15.4473 18.7437L15.6504 19.1558L15.8496 19.5801C18.6094 18.1758 20.5 15.3086 20.5 12C20.5 10.8804 20.2832 9.81104 19.8906 8.83203C19.3789 8.68213 18.8359 8.55078 18.2656 8.44971C17.8798 8.38155 17.4814 8.32694 17.0713 8.28962C16.8561 8.81624 16.4455 9.24227 15.9295 9.47757C15.9352 9.66391 15.9385 9.85207 15.9395 10.042C15.9414 10.5645 15.9238 11.1006 15.8848 11.6499C15.7904 12.9858 15.5172 14.229 15.1284 15.3728C15.5812 15.7863 15.8652 16.3815 15.8652 17.043C15.8652 17.6024 15.6621 18.1144 15.3255 18.5092ZM13.1966 19.2676C12.9078 19.7035 12.6107 20.1127 12.3125 20.4946C13.0391 20.4683 13.7422 20.3506 14.4102 20.1533C14.2945 19.8673 14.1667 19.574 14.0169 19.2666C13.883 19.2913 13.745 19.3042 13.604 19.3042C13.4649 19.3042 13.3287 19.2916 13.1966 19.2676ZM9.33594 8.29053C9.95898 7.95557 10.6328 7.66553 11.3613 7.43213C11.8491 7.2759 12.3319 7.14916 12.8077 7.0486C12.9252 6.39468 13.3274 5.83963 13.8816 5.51646C13.6652 4.69988 13.4336 4.2389 13.1358 3.64601L13.0977 3.57031C12.7383 3.52393 12.3711 3.5 12 3.5C8.58008 3.5 5.63281 5.51953 4.2832 8.43115C4.5293 8.50977 4.80664 8.60938 5.11719 8.73633C5.3121 8.8162 5.51995 8.90662 5.74034 9.00911C6.12428 8.71663 6.60363 8.54297 7.12354 8.54297C7.57049 8.54297 7.98746 8.67131 8.33961 8.89315C8.65622 8.67959 8.98832 8.47795 9.33594 8.29053ZM4.375 10.042C4.14844 9.9502 3.95117 9.87891 3.78125 9.82324C3.59766 10.5181 3.5 11.2476 3.5 12C3.5 12.6465 3.57227 13.2754 3.70898 13.8804C3.73828 14.0146 3.77148 14.1475 3.80859 14.2788C4.02344 13.8408 4.26562 13.3989 4.5332 12.96C4.72916 12.64 4.94007 12.3216 5.16695 12.0079C4.95871 11.6634 4.83887 11.2595 4.83887 10.8276C4.83887 10.6364 4.86237 10.4506 4.90664 10.2731C4.7132 10.1845 4.53611 10.108 4.375 10.042ZM17.1389 6.79149C17.4494 6.82003 17.7461 6.85842 18.0312 6.90527C18.3457 6.95703 18.6465 7.01904 18.9375 7.08887C18.3535 6.26514 17.627 5.5498 16.793 4.979C16.2285 4.59277 15.6152 4.27295 14.9629 4.03076C15.1057 4.37919 15.235 4.75948 15.3589 5.24187C16.2052 5.37693 16.8928 5.98774 17.1389 6.79149Z" fill="black"/>
</svg>
