<svg width="24" height="24" viewBox="0 0 24 24" fill="none" xmlns="http://www.w3.org/2000/svg">
<path d="M7.15625 5.98315H9.92388V11.3799H8.67388V7.23315H7.15625V5.98315Z" fill="black"/>
<path d="M10.3079 12.6008H6.92383V13.8508H9.98292V14.6759H7.71176V15.9259H9.98292V16.7511H6.92383V18.0011H10.3079C10.8188 18.0011 11.2329 17.5869 11.2329 17.0761V13.5258C11.2329 13.015 10.8188 12.6008 10.3079 12.6008Z" fill="black"/>
<path d="M12.8945 5.98315H16.0563C16.5672 5.98315 16.9813 6.39729 16.9813 6.90815V8.37023C16.9813 8.8811 16.5672 9.29523 16.0563 9.29523H14.1445V10.134H16.9813V11.384H12.8945V8.97023C12.8945 8.45937 13.3087 8.04523 13.8195 8.04523H15.7313V7.23315H12.8945V5.98315Z" fill="black"/>
<path d="M14.0498 12.5669H12.7998V15.9273H15.8252V18.0377H17.0752V12.5669H15.8252V14.6773H14.0498V12.5669Z" fill="black"/>
<path d="M3 5.75C3 4.23122 4.23122 3 5.75 3H18.25C19.7688 3 21 4.23122 21 5.75V18.25C21 19.7688 19.7688 21 18.25 21H5.75C4.23122 21 3 19.7688 3 18.25V5.75ZM5.75 4.5C5.05964 4.5 4.5 5.05964 4.5 5.75V18.25C4.5 18.9404 5.05964 19.5 5.75 19.5H18.25C18.9404 19.5 19.5 18.9404 19.5 18.25V5.75C19.5 5.05964 18.9404 4.5 18.25 4.5H5.75Z" fill="black"/>
</svg>
