<svg width="24" height="24" viewBox="0 0 24 24" fill="none" xmlns="http://www.w3.org/2000/svg">
<path d="M11.627 14.0027C12.5406 14.0027 13.2812 13.262 13.2812 12.3484C13.2812 12.3256 13.2808 12.303 13.2799 12.2805L15.2012 11.2017L14.4668 9.89374L12.5457 10.9725C12.2829 10.7966 11.9669 10.6941 11.627 10.6941C10.7133 10.6941 9.97266 11.4347 9.97266 12.3484C9.97266 13.262 10.7133 14.0027 11.627 14.0027Z" fill="black"/>
<path d="M7.34319 12.75H4.92773V11.25H7.34319V12.75Z" fill="black"/>
<path d="M16.6543 12.75H19.0698V11.25H16.6543V12.75Z" fill="black"/>
<path d="M15.8242 9.23804L17.5322 7.53005L16.4715 6.46939L14.7636 8.17738L15.8242 9.23804Z" fill="black"/>
<path d="M8.17674 9.2385L6.46875 7.53052L7.52941 6.46986L9.2374 8.17784L8.17674 9.2385Z" fill="black"/>
<path d="M11.25 4.92896V7.34441H12.75V4.92896H11.25Z" fill="black"/>
<path d="M12 2C6.47715 2 2 6.47715 2 12C2 17.5228 6.47715 22 12 22C17.5228 22 22 17.5228 22 12C22 6.47715 17.5228 2 12 2ZM3.5 12C3.5 7.30558 7.30558 3.5 12 3.5C16.6944 3.5 20.5 7.30558 20.5 12C20.5 16.6944 16.6944 20.5 12 20.5C7.30558 20.5 3.5 16.6944 3.5 12Z" fill="black"/>
</svg>
