<svg width="24" height="24" viewBox="0 0 24 24" fill="none" xmlns="http://www.w3.org/2000/svg">
<path fill-rule="evenodd" clip-rule="evenodd" d="M6.02992 4.8103C6.23011 4.55151 6.62074 4.55151 6.82093 4.8103L7.52894 5.72339C7.65492 5.8855 7.86683 5.95483 8.06312 5.89722L9.17347 5.57495C9.48695 5.48315 9.80238 5.71265 9.81312 6.03882L9.84925 7.19409C9.85511 7.39917 9.98597 7.57983 10.1793 7.64917L11.2672 8.04077C11.5739 8.15112 11.695 8.52222 11.5114 8.79175L10.861 9.7478C10.7457 9.91772 10.7457 10.1404 10.861 10.3103L11.5114 11.2664C11.5924 11.3855 11.6139 11.5251 11.5866 11.6531C11.5514 11.8142 11.4381 11.9558 11.2672 12.0173L10.1793 12.4089C9.98597 12.4783 9.85511 12.6589 9.84925 12.864L9.81312 14.0193C9.80238 14.3455 9.48695 14.575 9.17347 14.4832L8.06312 14.1609C7.86683 14.1033 7.65492 14.1726 7.52894 14.3347L6.82093 15.2478C6.75745 15.3298 6.67445 15.3855 6.5846 15.4158C6.39222 15.4802 6.16663 15.4246 6.02992 15.2478L5.32191 14.3347C5.19593 14.1726 4.98402 14.1033 4.78773 14.1609L3.67738 14.4832C3.3639 14.575 3.04847 14.3455 3.03773 14.0193L3.00159 12.864C2.99574 12.6589 2.86488 12.4783 2.67152 12.4089L1.58363 12.0173C1.27699 11.907 1.15589 11.5359 1.33949 11.2664L1.98988 10.3103C2.10511 10.1404 2.10511 9.91772 1.98988 9.7478L1.33949 8.79175C1.15589 8.52222 1.27699 8.15112 1.58363 8.04077L2.67152 7.64917C2.86488 7.57983 2.99574 7.39917 3.00159 7.19409L3.03773 6.03882C3.04847 5.71265 3.3639 5.48315 3.67738 5.57495L4.78773 5.89722C4.98402 5.95483 5.19593 5.8855 5.32191 5.72339L6.02992 4.8103ZM6.42542 7.03589L7.0973 9.10425H9.2721L7.51234 10.3826L8.18519 12.4509L6.42542 11.1726L4.66566 12.4509L5.33851 10.3826L3.57874 9.10425H5.75355L6.42542 7.03589ZM16.6284 11.0747L13.1973 7.64356C12.9394 6.91206 12.5664 6.23487 12.1 5.63379H12.3768C12.9736 5.63379 13.5459 5.87084 13.9678 6.2928L17.3679 9.69289L20.5375 10.3268C21.8229 10.5839 22.7481 11.7125 22.7481 13.0234V16.3838C22.7481 16.798 22.4124 17.1338 21.9981 17.1338H18.9036C18.5706 18.4277 17.396 19.3838 15.9981 19.3838C14.6003 19.3838 13.4257 18.4277 13.0927 17.1338H7.46191C8.75568 16.9468 9.93778 16.4146 10.9119 15.6338H13.0927C13.4257 14.3399 14.6003 13.3838 15.9981 13.3838C17.396 13.3838 18.5706 14.3399 18.9036 15.6338H21.2481V13.0234C21.2481 12.4275 20.8276 11.9145 20.2433 11.7977L16.6284 11.0747ZM17.4981 16.3838C17.4981 15.5554 16.8266 14.8838 15.9981 14.8838C15.1697 14.8838 14.4981 15.5554 14.4981 16.3838C14.4981 17.2122 15.1697 17.8838 15.9981 17.8838C16.8266 17.8838 17.4981 17.2122 17.4981 16.3838Z" fill="black"/>
</svg>
