<svg width="24" height="24" viewBox="0 0 24 24" fill="none" xmlns="http://www.w3.org/2000/svg">
<path d="M11.6319 2.09632C11.8602 1.96789 12.139 1.96789 12.3673 2.09632L20.5895 6.72132C20.8256 6.85416 20.9718 7.10404 20.9718 7.375V16.625C20.9718 16.896 20.8256 17.1458 20.5895 17.2787L12.3673 21.9037C12.139 22.0321 11.8602 22.0321 11.6319 21.9037L3.40965 17.2787C3.17349 17.1458 3.02734 16.896 3.02734 16.625V7.375C3.02734 7.10404 3.17349 6.85416 3.40965 6.72132L11.6319 2.09632ZM4.52734 8.65739V16.1864L11.2496 19.9676V12.4386L4.52734 8.65739ZM12.7496 19.9676L19.4718 16.1864V8.65739L12.7496 12.4386V19.9676ZM11.9996 11.1395L14.6303 9.65971L7.93786 5.89522L5.30714 7.375L11.9996 11.1395ZM9.46766 5.03471L16.1601 8.7992L18.692 7.375L11.9996 3.61051L9.46766 5.03471Z" fill="black"/>
</svg>
