<svg width="24" height="24" viewBox="0 0 24 24" fill="none" xmlns="http://www.w3.org/2000/svg">
<path d="M7.80859 3.0166C5.73753 3.0166 4.05859 4.69553 4.05859 6.7666V13.6226C4.05859 14.8652 5.06595 15.8726 6.30859 15.8726H9.15918V20.2654C9.15918 21.2319 9.94268 22.0154 10.9092 22.0154H13.1182C14.0847 22.0154 14.8682 21.2319 14.8682 20.2654V15.8726H17.7188C18.9614 15.8726 19.9688 14.8652 19.9688 13.6226V3.0166H7.80859ZM10.6592 15.8726H13.3682V20.2654C13.3682 20.4035 13.2562 20.5154 13.1182 20.5154H10.9092C10.7711 20.5154 10.6592 20.4035 10.6592 20.2654V15.8726ZM5.55859 6.7666C5.55859 5.52396 6.56595 4.5166 7.80859 4.5166H11.5762V6.54761H13.0762V4.5166H15.0566V8.15625H16.5566V4.5166H18.4688V10.2498H5.55859V6.7666ZM6.30859 14.3726C5.89438 14.3726 5.55859 14.0368 5.55859 13.6226V11.7498H18.4688V13.6226C18.4688 14.0368 18.133 14.3726 17.7188 14.3726H6.30859Z" fill="black"/>
</svg>
