<svg width="24" height="24" viewBox="0 0 24 24" fill="none" xmlns="http://www.w3.org/2000/svg">
<path d="M20.4773 5.71112C20.7702 5.41823 20.7702 4.94334 20.4773 4.65045L19.4166 3.58979C19.1237 3.2969 18.6489 3.29689 18.356 3.58978L9.43945 12.5059L11.5608 14.6272L20.4773 5.71112Z" fill="black"/>
<path d="M7.2971 14.2499C6.76794 14.2499 6.08447 14.3696 5.51562 14.8038C4.91135 15.265 4.54263 16 4.54263 17C4.54263 17.1823 4.49565 17.3924 4.40601 17.6015C4.22155 18.1016 3.5158 18.8287 2.7041 19.0727C3.54651 19.8332 4.35162 20.2023 4.68022 20.2967L4.67817 20.298C5.1484 20.4353 5.7175 20.5235 6.42414 20.5235C7.3204 20.5235 8.16764 20.0269 8.76371 19.41C9.36352 18.7893 9.8341 17.9187 9.8341 17C9.8341 15.6325 8.91495 14.2499 7.2971 14.2499ZM6.04263 17C6.04263 16.4 6.2439 16.1349 6.42574 15.9961C6.643 15.8303 6.96177 15.7499 7.2971 15.7499C7.86422 15.7499 8.3341 16.2196 8.3341 17C8.3341 17.4203 8.10169 17.9365 7.68501 18.3677C7.2646 18.8028 6.78186 19.0235 6.42414 19.0235C5.99892 19.0235 5.65079 18.9849 5.36142 18.9238C5.41601 18.8509 5.46736 18.7764 5.51527 18.701C5.82303 18.2169 6.04263 17.6138 6.04263 17Z" fill="black"/>
</svg>
