<svg width="24" height="24" viewBox="0 0 24 24" fill="none" xmlns="http://www.w3.org/2000/svg">
<path d="M16.1816 14.5C17.5624 14.5 18.6816 13.3807 18.6816 12C18.6816 10.6193 17.5624 9.5 16.1816 9.5C14.8009 9.5 13.6816 10.6193 13.6816 12C13.6816 13.3807 14.8009 14.5 16.1816 14.5ZM16.1816 13C15.6294 13 15.1816 12.5523 15.1816 12C15.1816 11.4477 15.6294 11 16.1816 11C16.7339 11 17.1816 11.4477 17.1816 12C17.1816 12.5523 16.7339 13 16.1816 13Z" fill="black"/>
<path d="M19.752 21.7681C20.9946 21.7681 22.002 20.7607 22.002 19.5181L22.002 4.48242C22.002 3.23978 20.9946 2.23242 19.752 2.23242H12.6133C11.3706 2.23242 10.3633 3.23978 10.3633 4.48242V19.5176C10.3633 20.7602 11.3706 21.7676 12.6133 21.7676L19.752 21.7681ZM12.6133 20.2681C12.1991 20.2681 11.8633 19.9323 11.8633 19.5181L11.8633 18.9654C11.9801 18.9175 12.1081 18.8911 12.2422 18.8911C12.7945 18.8911 13.2422 19.3388 13.2422 19.8911C13.2422 20.0245 13.2161 20.1517 13.1687 20.2681H12.6133ZM11.8633 17.4196L11.8633 6.61454C11.9868 6.63333 12.1134 6.64307 12.2422 6.64307C13.6229 6.64307 14.7422 5.52378 14.7422 4.14307C14.7422 4.00321 14.7307 3.86603 14.7086 3.73242L13.1543 3.73242C13.2107 3.8577 13.2422 3.99671 13.2422 4.14307C13.2422 4.69535 12.7945 5.14307 12.2422 5.14307C12.1081 5.14307 11.9801 5.11667 11.8633 5.06879L11.8633 4.48242C11.8633 4.06821 12.1991 3.73242 12.6133 3.73242L19.2051 3.73242L17.6508 3.73242C17.6287 3.86603 17.6172 4.00321 17.6172 4.14307C17.6172 5.52378 18.7365 6.64307 20.1172 6.64307C20.248 6.64307 20.3765 6.63301 20.502 6.61364V17.4205C20.3765 17.4012 20.248 17.3911 20.1172 17.3911C18.7365 17.3911 17.6172 18.5104 17.6172 19.8911C17.6172 20.0192 17.6268 20.1451 17.6454 20.2681H14.714C14.7325 20.1451 14.7422 20.0192 14.7422 19.8911C14.7422 18.5104 13.6229 17.3911 12.2422 17.3911C12.1134 17.3911 11.9868 17.4009 11.8633 17.4196ZM19.2051 3.73242L19.752 3.73242C20.1662 3.73242 20.502 4.06821 20.502 4.48242L20.502 5.06636C20.3835 5.11578 20.2535 5.14307 20.1172 5.14307C19.5649 5.14307 19.1172 4.69535 19.1172 4.14307C19.1172 3.99671 19.1486 3.8577 19.2051 3.73242ZM20.502 19.5181C20.502 19.9323 20.1662 20.2681 19.752 20.2681H19.1907C19.1433 20.1517 19.1172 20.0245 19.1172 19.8911C19.1172 19.3388 19.5649 18.8911 20.1172 18.8911C20.2535 18.8911 20.3835 18.9184 20.502 18.9678V19.5181Z" fill="black"/>
<path d="M9.36328 15.8262H3.49805V19.5175C3.49805 19.9317 3.83383 20.2675 4.24805 20.2675H9.45024C9.58575 20.8412 9.87331 21.3562 10.268 21.7675H4.24805C3.00541 21.7675 1.99805 20.7602 1.99805 19.5175V13.0156C1.99805 11.773 3.00541 10.7656 4.24805 10.7656H9.36328V12.2656H4.24805C3.83383 12.2656 3.49805 12.6014 3.49805 13.0156V13.8262H9.36328V15.8262Z" fill="black"/>
<path d="M4.40234 19.1396H7.18199V18.1396H4.40234V19.1396Z" fill="black"/>
</svg>
