<svg width="24" height="24" viewBox="0 0 24 24" fill="none" xmlns="http://www.w3.org/2000/svg">
<path d="M4.87307 4.11415C4.38071 4.24465 4.00872 4.4575 3.79107 4.69607C3.51191 5.00208 3.03753 5.02384 2.73153 4.74467C2.42552 4.46551 2.40376 3.99114 2.68292 3.68513C3.15332 3.16951 3.81605 2.84251 4.48877 2.66421C5.16849 2.48406 5.91704 2.43936 6.62026 2.53819C7.31807 2.63627 8.02425 2.88378 8.57209 3.33892C9.14049 3.81115 9.51269 4.49004 9.51269 5.34399C9.51269 6.30346 8.87199 6.93516 8.23654 7.35086C7.63846 7.7421 6.87015 8.05672 6.17936 8.33959L6.04985 8.39266C5.28348 8.70713 4.61675 8.99152 4.13637 9.33007C3.6669 9.66093 3.51758 9.94111 3.51758 10.2242C3.51758 10.6485 3.79091 11.0929 4.59202 11.5568C4.98665 11.7853 5.46543 11.991 6.00671 12.1781L4.843 13.3418C4.48401 13.1939 4.14685 13.0324 3.84035 12.8549C2.86559 12.2905 2.01758 11.4502 2.01758 10.2242C2.01758 9.24031 2.61765 8.56531 3.27226 8.10397C3.91596 7.65032 4.74801 7.30548 5.48042 7.00495L5.54876 6.97691C6.2957 6.67051 6.94143 6.40564 7.41537 6.09559C7.904 5.77594 8.01269 5.53774 8.01269 5.34399C8.01269 4.97027 7.86619 4.7026 7.61354 4.49269C7.34032 4.2657 6.92309 4.0955 6.41149 4.02359C5.90529 3.95245 5.35842 3.98551 4.87307 4.11415Z" fill="black"/>
<path d="M15.6334 15.9549L16.7791 14.8093C17.3433 15.0628 17.8504 15.3435 18.2783 15.6582C19.1358 16.2886 19.7673 17.1293 19.7673 18.222C19.7673 19.2173 19.3555 20.0959 18.4661 20.69C17.624 21.2525 16.4242 21.5133 14.9099 21.5133C14.4957 21.5133 14.1599 21.1775 14.1599 20.7633C14.1599 20.3491 14.4957 20.0133 14.9099 20.0133C16.2914 20.0133 17.1454 19.7683 17.633 19.4426C18.0734 19.1485 18.2673 18.7564 18.2673 18.222C18.2673 17.7849 18.0337 17.3401 17.3898 16.8667C16.9478 16.5417 16.3565 16.2388 15.6334 15.9549Z" fill="black"/>
<path d="M18.5623 5.11705C17.7705 4.32521 16.5267 4.47136 15.7905 5.20755L14.6408 6.35724L18.5081 10.2245L19.6578 9.07478C20.3939 8.33859 20.5401 7.09482 19.7483 6.30298L18.5623 5.11705ZM16.8512 6.26821C17.11 6.00938 17.3985 6.0745 17.5017 6.17771L18.6876 7.36364C18.7908 7.46685 18.8559 7.75529 18.5971 8.01412L18.5081 8.10315L16.7622 6.35724L16.8512 6.26821Z" fill="black"/>
<path d="M16.9676 11.7924L13.094 7.91878L4.08107 16.9322L4.08107 20.8053H7.95419L16.9676 11.7924ZM5.58107 17.5535L13.0941 10.0401L14.8463 11.7923L7.33289 19.3053H5.58107V17.5535Z" fill="black"/>
</svg>
