<svg width="24" height="24" viewBox="0 0 24 24" fill="none" xmlns="http://www.w3.org/2000/svg">
<path d="M21.4954 2.78188C20.7891 2.07559 19.588 1.9231 18.8198 2.69134L17.0888 4.42238L21.1029 8.43649L22.8339 6.70546C23.6021 5.93721 23.4497 4.73618 22.7434 4.02988L21.4954 2.78188ZM19.8804 3.752C19.9541 3.67836 20.1991 3.60695 20.4347 3.84254L21.6827 5.09054C21.9183 5.32614 21.8469 5.57115 21.7732 5.6448L21.1029 6.31517L19.2101 4.42238L19.8804 3.752Z" fill="black"/>
<path d="M19.8559 9.71234L15.8351 5.69152L9.1702 12.3569L9.1702 16.3772H13.1905L19.8559 9.71234ZM10.6702 12.9782L15.8352 7.81288L17.7346 9.7123L12.5692 14.8772L10.6702 14.8772V12.9782Z" fill="black"/>
<path d="M5.75 4.50332H14.1905L12.6905 6.00332H5.75C5.05964 6.00332 4.5 6.56297 4.5 7.25332V19.7533C4.5 20.4437 5.05964 21.0033 5.75 21.0033H18.25C18.9404 21.0033 19.5 20.4437 19.5 19.7533V12.8819L21 11.3819V19.7533C21 21.2721 19.7688 22.5033 18.25 22.5033H5.75C4.23122 22.5033 3 21.2721 3 19.7533V7.25332C3 5.73454 4.23122 4.50332 5.75 4.50332Z" fill="black"/>
</svg>
