<svg width="24" height="24" viewBox="0 0 24 24" fill="none" xmlns="http://www.w3.org/2000/svg">
<path d="M18.206 4.22797C17.9131 3.93508 17.4382 3.93508 17.1453 4.22797L16.9967 4.37655L19.6097 6.98953L19.7583 6.84095C20.0512 6.54806 20.0512 6.07318 19.7583 5.78029L18.206 4.22797ZM16.0847 3.16731C16.9634 2.28863 18.388 2.28863 19.2667 3.16731L20.819 4.71963C21.6977 5.59831 21.6977 7.02293 20.819 7.90161L19.6097 9.11085L14.8754 4.37655L16.0847 3.16731ZM13.8214 5.44986L18.564 10.1925L7.26449 21.4914H2.52246L2.52246 16.7494L13.8214 5.44986ZM13.8215 7.5712L4.02246 17.3707L4.02246 19.9914L6.64319 19.9914L16.4427 10.1924L13.8215 7.5712Z" fill="black"/>
</svg>
