<svg width="24" height="24" viewBox="0 0 24 24" fill="none" xmlns="http://www.w3.org/2000/svg">
<path d="M16.249 6.68945L6.68945 16.249L7.75011 17.3096L17.3096 7.75011L16.249 6.68945Z" fill="black"/>
<path d="M9.07952 6.70027C7.76761 6.70027 6.7041 7.76378 6.7041 9.07569C6.7041 10.3876 7.76761 11.4511 9.07952 11.4511C10.3914 11.4511 11.455 10.3876 11.455 9.07569C11.455 7.76378 10.3914 6.70027 9.07952 6.70027ZM8.2041 9.07569C8.2041 8.59221 8.59604 8.20027 9.07952 8.20027C9.56301 8.20027 9.95495 8.59221 9.95495 9.07569C9.95495 9.55918 9.56301 9.95112 9.07952 9.95112C8.59604 9.95112 8.2041 9.55918 8.2041 9.07569Z" fill="black"/>
<path d="M12.551 14.9259C12.551 13.614 13.6146 12.5505 14.9265 12.5505C16.2384 12.5505 17.3019 13.614 17.3019 14.9259C17.3019 16.2378 16.2384 17.3013 14.9265 17.3013C13.6146 17.3013 12.551 16.2378 12.551 14.9259ZM14.9265 14.0505C14.443 14.0505 14.051 14.4424 14.051 14.9259C14.051 15.4094 14.443 15.8013 14.9265 15.8013C15.41 15.8013 15.8019 15.4094 15.8019 14.9259C15.8019 14.4424 15.41 14.0505 14.9265 14.0505Z" fill="black"/>
<path d="M12 2C6.47715 2 2 6.47715 2 12C2 17.5228 6.47715 22 12 22C17.5228 22 22 17.5228 22 12C22 6.47715 17.5228 2 12 2ZM3.5 12C3.5 7.30558 7.30558 3.5 12 3.5C16.6944 3.5 20.5 7.30558 20.5 12C20.5 16.6944 16.6944 20.5 12 20.5C7.30558 20.5 3.5 16.6944 3.5 12Z" fill="black"/>
</svg>
