<svg width="24" height="24" viewBox="0 0 24 24" fill="none" xmlns="http://www.w3.org/2000/svg">
<path d="M14.4459 16.6151L20.3525 22.5216L21.4132 21.4609L2.48252 2.53076L1.42188 3.59144L13.3823 15.5515C12.5377 16.2756 11.697 16.8689 10.8793 17.3535L8.0295 14.5458C7.84721 14.3662 7.58591 14.2919 7.3364 14.3488L3.59208 15.2025C3.25085 15.2803 3.00879 15.5838 3.00879 15.9338V20.1534C3.00879 20.5591 3.33145 20.8913 3.73702 20.9031C5.33245 20.9494 8.06973 20.6122 11.1101 18.9486L11.1252 18.9403C12.2066 18.3472 13.326 17.5863 14.4459 16.6151ZM9.48873 18.0892C7.50816 19.0147 5.74514 19.3304 4.50881 19.3942V16.532L7.26935 15.9026L9.48873 18.0892Z" fill="black"/>
<path d="M19.0635 10.8902C18.4988 11.9542 17.785 13.0407 16.8908 14.1186L15.825 13.0529C16.4751 12.2573 17.0178 11.4597 17.4687 10.675L14.666 8.03637C14.477 7.85845 14.3934 7.59546 14.4451 7.34109L15.2343 3.45357C15.3052 3.10401 15.6126 2.85278 15.9693 2.85278H20.2402C20.6544 2.85278 20.9902 3.18857 20.9902 3.60278C20.9902 5.51011 20.5327 8.11214 19.0758 10.867C19.0718 10.8748 19.0677 10.8825 19.0635 10.8902ZM18.1816 9.28593C19.0165 7.44593 19.3722 5.73227 19.4646 4.35278H16.5823L15.9981 7.23038L18.1816 9.28593Z" fill="black"/>
</svg>
