<svg width="24" height="24" viewBox="0 0 24 24" fill="none" xmlns="http://www.w3.org/2000/svg">
<path d="M3.72754 2.88232C3.31333 2.88232 2.97754 3.21811 2.97754 3.63232C2.97754 5.53966 3.4351 8.14169 4.89198 10.8966C4.89592 10.9044 4.90001 10.9121 4.90425 10.9197C5.72425 12.4649 6.8589 14.0576 8.40368 15.6024C9.89148 17.0902 11.4008 18.1792 12.8424 18.9698L12.8576 18.9782C15.8979 20.6418 18.6351 20.979 20.2305 20.9327C20.6361 20.9209 20.9588 20.5887 20.9588 20.183V15.9633C20.9588 15.6133 20.7167 15.3099 20.3755 15.2321L16.6312 14.3784C16.3817 14.3215 16.1204 14.3958 15.9381 14.5754L13.0884 17.3831C11.909 16.6841 10.6818 15.7592 9.46434 14.5417C8.19339 13.2708 7.2266 11.9708 6.49901 10.7045L9.30173 8.06592C9.49071 7.888 9.57427 7.62501 9.52263 7.37063L8.73345 3.48311C8.66249 3.13355 8.35514 2.88232 7.99844 2.88232H3.72754ZM7.96956 7.25993L5.78616 9.31548C4.95126 7.47548 4.59558 5.76182 4.50318 4.38232H7.3854L7.96956 7.25993ZM19.4588 19.4237C18.2224 19.36 16.4594 19.0443 14.4789 18.1188L16.6983 15.9322L19.4588 16.5616V19.4237Z" fill="black"/>
<path d="M17.7789 5.98317L17.7789 2.94238L16.2789 2.94242L16.2789 5.9832L13.2383 5.98327L13.2383 7.48327L16.279 7.4832L16.279 10.5237L17.779 10.5237L17.779 7.48317L20.8196 7.4831L20.8196 5.9831L17.7789 5.98317Z" fill="black"/>
</svg>
