<svg width="24" height="24" viewBox="0 0 24 24" fill="none" xmlns="http://www.w3.org/2000/svg">
<path d="M7 7V9C7 13.4183 10.5817 17 15 17H17V13H12.5L11.9238 14.1525C11.072 13.6428 10.3572 12.928 9.84754 12.0762L11 11.5V7H7Z" fill="black"/>
<path d="M3.25 5C3.25 4.0335 4.0335 3.25 5 3.25H19C19.9665 3.25 20.75 4.0335 20.75 5V19C20.75 19.9665 19.9665 20.75 19 20.75H5C4.0335 20.75 3.25 19.9665 3.25 19V16.75H1.75C1.33579 16.75 1 16.4142 1 16C1 15.5858 1.33579 15.25 1.75 15.25H3.25V12.75H1.75C1.33579 12.75 1 12.4142 1 12C1 11.5858 1.33579 11.25 1.75 11.25H3.25V8.75H1.75C1.33579 8.75 1 8.41421 1 8C1 7.58579 1.33579 7.25 1.75 7.25H3.25V5ZM5 4.75C4.86193 4.75 4.75 4.86193 4.75 5V19C4.75 19.1381 4.86193 19.25 5 19.25H19C19.1381 19.25 19.25 19.1381 19.25 19V5C19.25 4.86193 19.1381 4.75 19 4.75H5Z" fill="black"/>
</svg>
