<svg width="24" height="24" viewBox="0 0 24 24" fill="none" xmlns="http://www.w3.org/2000/svg">
<path d="M17.9307 19.1477L20.6836 21.9006L21.7441 20.8398L17.9307 17.0461L6.06055 5.17578L3.00391 2.09961L1.94336 3.16016L6.06055 7.27734V7.77075H4.7373C3.21875 7.77075 1.9873 9.00195 1.9873 10.5208V16.7334H6.11133V20.5254H17.9307V19.1477ZM16.4307 17.6477V19.0254H7.61133V15.2688H14.0518L16.4307 17.6477ZM12.5518 13.7688H6.11133V15.2334H3.4873V10.5208C3.4873 9.83032 4.04688 9.27075 4.7373 9.27075H8.05371L12.5518 13.7688Z" fill="black"/>
<path d="M22.0557 16.7334H20.4463L18.9463 15.2334H20.5557V10.5208C20.5557 10.197 20.4326 9.9021 20.2305 9.68018C20.002 9.42871 19.6729 9.27075 19.3057 9.27075H12.9834L11.4834 7.77075H16.4824V3.9209H7.63379L6.13379 2.4209H17.9824V7.77075H19.3057C20.8242 7.77075 22.0557 9.00195 22.0557 10.5208V16.7334Z" fill="black"/>
<path d="M17.3262 12.5723C18.0254 12.5723 18.5918 12.0056 18.5918 11.3066C18.5918 10.6077 18.0254 10.041 17.3262 10.041C17.1045 10.041 16.8955 10.0979 16.7139 10.1982C16.3242 10.4138 16.0605 10.8293 16.0605 11.3066C16.0605 11.7117 16.251 12.0723 16.5469 12.304C16.7617 12.4722 17.0322 12.5723 17.3262 12.5723Z" fill="black"/>
</svg>
