<svg width="24" height="24" viewBox="0 0 24 24" fill="none" xmlns="http://www.w3.org/2000/svg">
<path d="M11.9941 3.14014C10.4754 3.14014 9.24414 4.37135 9.24414 5.89014C9.24414 7.40892 10.4754 8.64014 11.9941 8.64014C13.5129 8.64014 14.7441 7.40892 14.7441 5.89014C14.7441 4.37135 13.5129 3.14014 11.9941 3.14014ZM10.7441 5.89014C10.7441 5.19978 11.3038 4.64014 11.9941 4.64014C12.6845 4.64014 13.2441 5.19978 13.2441 5.89014C13.2441 6.58049 12.6845 7.14014 11.9941 7.14014C11.3038 7.14014 10.7441 6.58049 10.7441 5.89014Z" fill="black"/>
<path d="M8.44531 9.24622C6.92653 9.24622 5.69531 10.4774 5.69531 11.9962C5.69531 13.515 6.92653 14.7462 8.44531 14.7462C9.9641 14.7462 11.1953 13.515 11.1953 11.9962C11.1953 10.4774 9.9641 9.24622 8.44531 9.24622ZM7.19531 11.9962C7.19531 11.3059 7.75496 10.7462 8.44531 10.7462C9.13567 10.7462 9.69531 11.3059 9.69531 11.9962C9.69531 12.6866 9.13567 13.2462 8.44531 13.2462C7.75496 13.2462 7.19531 12.6866 7.19531 11.9962Z" fill="black"/>
<path d="M12.7812 11.9962C12.7812 10.4774 14.0125 9.24622 15.5312 9.24622C17.05 9.24622 18.2812 10.4774 18.2812 11.9962C18.2812 13.515 17.05 14.7462 15.5312 14.7462C14.0125 14.7462 12.7812 13.515 12.7812 11.9962ZM15.5312 10.7462C14.8409 10.7462 14.2812 11.3059 14.2812 11.9962C14.2812 12.6866 14.8409 13.2462 15.5312 13.2462C16.2216 13.2462 16.7812 12.6866 16.7812 11.9962C16.7812 11.3059 16.2216 10.7462 15.5312 10.7462Z" fill="black"/>
<path d="M11.9941 15.36C10.4754 15.36 9.24414 16.5913 9.24414 18.11C9.24414 19.6288 10.4754 20.86 11.9941 20.86C13.5129 20.86 14.7441 19.6288 14.7441 18.11C14.7441 16.5913 13.5129 15.36 11.9941 15.36ZM10.7441 18.11C10.7441 17.4197 11.3038 16.86 11.9941 16.86C12.6845 16.86 13.2441 17.4197 13.2441 18.11C13.2441 18.8004 12.6845 19.36 11.9941 19.36C11.3038 19.36 10.7441 18.8004 10.7441 18.11Z" fill="black"/>
<path d="M16.3359 18.11C16.3359 16.5913 17.5672 15.36 19.0859 15.36C20.6047 15.36 21.8359 16.5913 21.8359 18.11C21.8359 19.6288 20.6047 20.86 19.0859 20.86C17.5672 20.86 16.3359 19.6288 16.3359 18.11ZM19.0859 16.86C18.3956 16.86 17.8359 17.4197 17.8359 18.11C17.8359 18.8004 18.3956 19.36 19.0859 19.36C19.7763 19.36 20.3359 18.8004 20.3359 18.11C20.3359 17.4197 19.7763 16.86 19.0859 16.86Z" fill="black"/>
<path d="M4.91406 15.36C3.39528 15.36 2.16406 16.5913 2.16406 18.11C2.16406 19.6288 3.39528 20.86 4.91406 20.86C6.43285 20.86 7.66406 19.6288 7.66406 18.11C7.66406 16.5913 6.43285 15.36 4.91406 15.36ZM3.66406 18.11C3.66406 17.4197 4.22371 16.86 4.91406 16.86C5.60442 16.86 6.16406 17.4197 6.16406 18.11C6.16406 18.8004 5.60442 19.36 4.91406 19.36C4.22371 19.36 3.66406 18.8004 3.66406 18.11Z" fill="black"/>
</svg>
