<svg width="24" height="24" viewBox="0 0 24 24" fill="none" xmlns="http://www.w3.org/2000/svg">
<path d="M15.5176 17.25V6.75H17.5176V17.25H15.5176Z" fill="black"/>
<path d="M6.48242 11.25L6.48242 17.25H8.48242L8.48242 11.25H6.48242Z" fill="black"/>
<path d="M11 11.75V7.80469H13V11.75H11Z" fill="black"/>
<path d="M11 13.3047V17.25H13V13.3047H11Z" fill="black"/>
<path d="M3 5.25C3 4.00736 4.00736 3 5.25 3H18.75C19.9926 3 21 4.00736 21 5.25V18.75C21 19.9926 19.9926 21 18.75 21H5.25C4.00736 21 3 19.9926 3 18.75V5.25ZM5.25 4.5C4.83579 4.5 4.5 4.83579 4.5 5.25V18.75C4.5 19.1642 4.83579 19.5 5.25 19.5H18.75C19.1642 19.5 19.5 19.1642 19.5 18.75V5.25C19.5 4.83579 19.1642 4.5 18.75 4.5H5.25Z" fill="black"/>
</svg>
