<svg width="24" height="24" viewBox="0 0 24 24" fill="none" xmlns="http://www.w3.org/2000/svg">
<path d="M7.10156 7.85889H8.60156V9.51869C9.48327 8.65176 10.6926 8.1167 12.0276 8.1167C14.7269 8.1167 16.9151 10.3049 16.9151 13.0042C16.9151 15.7034 14.7269 17.8916 12.0276 17.8916C9.69307 17.8916 7.74083 16.2548 7.25586 14.0663H8.80998C9.25554 15.4169 10.5277 16.3916 12.0276 16.3916C13.8984 16.3916 15.4151 14.875 15.4151 13.0042C15.4151 11.1333 13.8984 9.6167 12.0276 9.6167C10.9956 9.6167 10.0706 10.0784 9.44895 10.8071H11.5383V12.3071H7.10156V7.85889Z" fill="black"/>
<path d="M6.25 2C5.00736 2 4 3.00736 4 4.25V19.75C4 20.9926 5.00736 22 6.25 22H17.75C18.9926 22 20 20.9926 20 19.75V8.09838L13.9104 2H6.25ZM5.5 4.25C5.5 3.83579 5.83579 3.5 6.25 3.5H13.2885L18.5 8.71907V19.75C18.5 20.1642 18.1642 20.5 17.75 20.5H6.25C5.83579 20.5 5.5 20.1642 5.5 19.75V4.25Z" fill="black"/>
</svg>
