<svg width="24" height="24" viewBox="0 0 24 24" fill="none" xmlns="http://www.w3.org/2000/svg">
<path d="M13.7109 16.7722C14.2695 16.2908 14.625 15.5776 14.625 14.7815C14.625 13.3318 13.4492 12.1565 12 12.1565C11.0137 12.1565 10.1543 12.7009 9.70508 13.5056C9.49414 13.8833 9.375 14.3184 9.375 14.7815C9.375 16.2312 10.5508 17.4065 12 17.4065C12.6543 17.4065 13.252 17.1675 13.7109 16.7722Z" fill="black"/>
<path d="M4.94922 3C3.87305 3 3 3.87305 3 4.94995V19.05C3 20.127 3.87305 21 4.94922 21H19.0508C20.127 21 21 20.127 21 19.05V7.00635L16.9531 3H4.94922ZM4.61133 4.65161C4.69336 4.55859 4.81445 4.5 4.94922 4.5H5.89258V9.75H15.375V4.5H16.3379L19.5 7.63208V19.05C19.5 19.2986 19.2988 19.5 19.0508 19.5H4.94922C4.70117 19.5 4.5 19.2986 4.5 19.05V4.94995C4.5 4.83545 4.54297 4.73096 4.61133 4.65161ZM7.39258 8.25V4.5H13.875V8.25H7.39258Z" fill="black"/>
</svg>
