<svg width="24" height="25" viewBox="0 0 24 25" fill="none" xmlns="http://www.w3.org/2000/svg">
<path d="M9.25586 9.04794C9.25586 7.53234 10.4845 6.30371 12.0001 6.30371C13.5157 6.30371 14.7443 7.53234 14.7443 9.04794V10.3926H14.9725C15.6629 10.3926 16.2225 10.9522 16.2225 11.6426V16.0395C16.2225 16.7299 15.6629 17.2895 14.9725 17.2895H9.0293C8.33894 17.2895 7.7793 16.7299 7.7793 16.0395V11.6426C7.7793 10.9522 8.33894 10.3926 9.0293 10.3926H9.25586V9.04794ZM13.2443 9.04794C13.2443 8.36077 12.6873 7.80371 12.0001 7.80371C11.3129 7.80371 10.7559 8.36077 10.7559 9.04794V10.3926H13.2443V9.04794Z" fill="black"/>
<path d="M20.1602 5.78017L12 2.85156L3.83984 5.78017V12.4372C3.83984 14.3865 4.64107 16.6578 6.00537 18.5759C7.3738 20.4997 9.36605 22.1477 11.8223 22.7458L11.9997 22.789L12.1772 22.7458C14.6334 22.1477 16.6258 20.4997 17.9944 18.5759C19.3588 16.6579 20.1602 14.3865 20.1602 12.4372V5.78017ZM5.33984 12.4372V6.83551L12 4.44524L18.6602 6.83551V12.4372C18.6602 14.0149 17.994 15.9887 16.7721 17.7064C15.5901 19.3679 13.9418 20.7153 11.9997 21.2427C10.0577 20.7153 8.40953 19.3679 7.22769 17.7064C6.00589 15.9887 5.33984 14.015 5.33984 12.4372Z" fill="black"/>
</svg>
