<svg width="24" height="24" viewBox="0 0 24 24" fill="none" xmlns="http://www.w3.org/2000/svg">
<path d="M9.39449 1.99951H14.5581L14.9866 5.14936C15.4895 5.3708 15.9631 5.64588 16.4004 5.96723L19.3443 4.76254L21.9261 9.2344L20.1259 10.6281C19.5425 10.4798 19.0029 10.2721 18.5042 9.98652L19.9722 8.85008L18.7002 6.64686L16.1478 7.69132L15.8012 7.40233C15.2816 6.96922 14.6881 6.62289 14.0427 6.38505L13.6196 6.22914L13.2484 3.49951H10.7043L10.3331 6.22849L9.90984 6.38431C9.264 6.62206 8.67 6.96842 8.15013 7.40168L7.80352 7.69054L5.25331 6.64698L3.98128 8.8502L6.15848 10.5357L6.08244 10.9796C6.02589 11.3098 5.99634 11.6497 5.99634 11.9971C5.99634 12.3447 6.02593 12.6849 6.08257 13.0153L6.15867 13.4593L3.98177 15.1445L5.2538 17.3478L7.80406 16.3042L8.15066 16.593C8.6704 17.026 9.26421 17.3722 9.90982 17.6099L10.3331 17.7657L10.7043 20.4949H12.8404C13.3049 21.0648 13.8034 21.5572 14.3103 21.9949H9.39449L8.9662 18.8458C8.46308 18.6245 7.98919 18.3495 7.55176 18.0281L4.60966 19.2321L2.02783 14.7602L4.54061 12.815C4.51134 12.5461 4.49634 12.2732 4.49634 11.9971C4.49634 11.7212 4.51131 11.4486 4.54052 11.1801L2.02734 9.23452L4.60917 4.76266L7.55111 5.96653C7.98873 5.64499 8.46285 5.3698 8.96622 5.14836L9.39449 1.99951Z" fill="black"/>
<path d="M10.1077 11.9975C10.1077 11.7998 10.1384 11.6092 10.1953 11.4304V10.9706L10.4177 10.9665C10.7522 10.4621 11.3251 10.1295 11.9756 10.1295C12.5199 10.1295 13.0098 10.3623 13.3512 10.7337C13.8923 10.6283 14.3979 10.4797 14.8701 10.2745C14.2825 9.28937 13.2061 8.62951 11.9756 8.62951C10.1156 8.62951 8.60767 10.1374 8.60767 11.9975C8.60767 13.311 9.35955 14.4488 10.4564 15.0041C10.3306 14.2726 10.2474 13.4797 10.2131 12.6176C10.1448 12.4236 10.1077 12.2149 10.1077 11.9975Z" fill="black"/>
<path d="M19.6373 14.9605L16.4462 18.1519L14.3125 16.0183L15.3731 14.9576L16.4462 16.0305L18.5766 13.8999L19.6373 14.9605Z" fill="black"/>
<path d="M16.9747 10.7222L17.4841 11.1936C18.4201 12.0598 19.6281 12.3177 21.2385 12.3474L21.9746 12.361V13.0973C21.9746 15.7489 21.3665 17.5694 20.4458 18.9161C19.5407 20.2398 18.372 21.0417 17.4112 21.7009L16.9745 22.0005L16.538 21.7009C15.5771 21.0417 14.4084 20.2399 13.5034 18.9161C12.5827 17.5694 11.9746 15.7489 11.9746 13.0973V12.361L12.7108 12.3474C14.3211 12.3177 15.5292 12.0598 16.4653 11.1936L16.9747 10.7222ZM13.4917 13.8153C13.5895 15.8131 14.0964 17.1256 14.7416 18.0695C15.3664 18.9834 16.1509 19.601 16.9745 20.1789C17.7982 19.601 18.5827 18.9834 19.2075 18.0695C19.8528 17.1256 20.3597 15.8131 20.4575 13.8153C19.2132 13.7289 18.016 13.4563 16.9747 12.7103C15.9333 13.4563 14.736 13.7289 13.4917 13.8153Z" fill="black"/>
</svg>
