<svg width="24" height="24" viewBox="0 0 24 24" fill="none" xmlns="http://www.w3.org/2000/svg">
<path d="M13.3459 6.78809H10.654L10.4308 8.42961C10.1684 8.54505 9.9212 8.6885 9.69306 8.85612L8.1594 8.22854L6.81348 10.5598L8.12362 11.574C8.10839 11.714 8.10059 11.8561 8.10059 11.9999C8.10059 12.1439 8.1084 12.2861 8.12366 12.4263L6.81373 13.4403L8.15966 15.7716L9.6934 15.1439C9.92144 15.3115 10.1685 15.4548 10.4308 15.5702L10.654 17.2118H13.3459L13.5692 15.5697C13.8313 15.4543 14.0781 15.311 14.3059 15.1436L15.8407 15.7716L17.1866 13.4404L15.8753 12.4252C15.8904 12.2854 15.8982 12.1435 15.8982 11.9999C15.8982 11.8565 15.8905 11.7147 15.8753 11.575L17.1869 10.5597L15.841 8.22848L14.3062 8.85649C14.0783 8.68897 13.8314 8.54556 13.5692 8.43013L13.3459 6.78809ZM12 9.9336C13.1413 9.9336 14.0664 10.8587 14.0664 12C14.0664 13.1411 13.1413 14.0661 12 14.0661C10.8586 14.0661 9.93358 13.1411 9.93358 12C9.93358 10.8587 10.8586 9.9336 12 9.9336Z" fill="black"/>
<path d="M5.375 3.125C4.13236 3.125 3.125 4.13236 3.125 5.375V18.625C3.125 19.8676 4.13236 20.875 5.375 20.875H18.625C19.8676 20.875 20.875 19.8676 20.875 18.625V5.375C20.875 4.13236 19.8676 3.125 18.625 3.125H5.375ZM4.625 5.375C4.625 4.96079 4.96079 4.625 5.375 4.625H18.625C19.0392 4.625 19.375 4.96079 19.375 5.375V18.625C19.375 19.0392 19.0392 19.375 18.625 19.375H5.375C4.96079 19.375 4.625 19.0392 4.625 18.625V5.375Z" fill="black"/>
</svg>
