<svg width="24" height="24" viewBox="0 0 24 24" fill="none" xmlns="http://www.w3.org/2000/svg">
<path d="M21.4883 5.92578C21.4883 7.81132 19.9598 9.33984 18.0742 9.33984C16.9838 9.33984 16.0127 8.82862 15.3877 8.03277L9.23299 11.1492C9.30275 11.4212 9.33984 11.7063 9.33984 12C9.33984 12.2936 9.30279 12.5785 9.2331 12.8503L15.388 15.9669C16.013 15.1712 16.9839 14.6602 18.0742 14.6602C19.9598 14.6602 21.4883 16.1887 21.4883 18.0742C21.4883 19.9598 19.9598 21.4883 18.0742 21.4883C16.1887 21.4883 14.6602 19.9598 14.6602 18.0742C14.6602 17.8157 14.6889 17.5639 14.7433 17.3218L8.54897 14.1852C7.92271 14.9362 6.98005 15.4141 5.92578 15.4141C4.04025 15.4141 2.51172 13.8855 2.51172 12C2.51172 10.1145 4.04025 8.58594 5.92578 8.58594C6.97989 8.58594 7.92242 9.06366 8.54868 9.81441L14.7432 6.67776C14.6889 6.43581 14.6602 6.18415 14.6602 5.92578C14.6602 4.04025 16.1887 2.51172 18.0742 2.51172C19.9598 2.51172 21.4883 4.04025 21.4883 5.92578ZM19.9883 5.92578C19.9883 4.86867 19.1313 4.01172 18.0742 4.01172C17.0171 4.01172 16.1602 4.86867 16.1602 5.92578C16.1602 6.98289 17.0171 7.83984 18.0742 7.83984C19.1313 7.83984 19.9883 6.98289 19.9883 5.92578ZM18.0742 19.9883C19.1313 19.9883 19.9883 19.1313 19.9883 18.0742C19.9883 17.0171 19.1313 16.1602 18.0742 16.1602C17.0171 16.1602 16.1602 17.0171 16.1602 18.0742C16.1602 19.1313 17.0171 19.9883 18.0742 19.9883ZM5.92578 13.9141C6.98289 13.9141 7.83984 13.0571 7.83984 12C7.83984 10.9429 6.98289 10.0859 5.92578 10.0859C4.86867 10.0859 4.01172 10.9429 4.01172 12C4.01172 13.0571 4.86867 13.9141 5.92578 13.9141Z" fill="black"/>
</svg>
