<svg width="24" height="24" viewBox="0 0 24 24" fill="none" xmlns="http://www.w3.org/2000/svg">
<path d="M12 20.0105C9.87276 18.1099 8.29516 16.3714 7.22985 14.7969C6.00528 12.987 5.5 11.4658 5.5 10.2C5.5 8.0531 6.17426 6.48528 7.42945 5.32764C8.77104 4.09031 10.274 3.5 12 3.5C13.726 3.5 15.229 4.09031 16.5706 5.32764C17.8257 6.48528 18.5 8.0531 18.5 10.2C18.5 11.4658 17.9947 12.987 16.7701 14.7969C15.7048 16.3714 14.1272 18.1099 12 20.0105ZM5.9875 15.6375C7.3125 17.5958 9.31667 19.7167 12 22C14.6833 19.7167 16.6875 17.5958 18.0125 15.6375C19.3375 13.6792 20 11.8667 20 10.2C20 7.7 19.1958 5.70833 17.5875 4.225C15.9792 2.74167 14.1167 2 12 2C9.88333 2 8.02083 2.74167 6.4125 4.225C4.80417 5.70833 4 7.7 4 10.2C4 11.8667 4.6625 13.6792 5.9875 15.6375Z" fill="black"/>
</svg>
