<svg width="24" height="24" viewBox="0 0 24 24" fill="none" xmlns="http://www.w3.org/2000/svg">
<path d="M14.5462 9.40257L11.9999 3.40723L9.4536 9.40257L2.96484 9.97157L7.8799 14.2459L6.41592 20.5929L11.3731 17.6157L11.3731 15.866L8.67134 17.4886L9.54401 13.7052L6.61419 11.1573L10.4821 10.8181L11.9999 7.24438L13.5177 10.8181L17.3856 11.1573L15.9476 12.4078L18.2336 12.4077L21.0349 9.97157L14.5462 9.40257Z" fill="black"/>
<path d="M17.4137 16.9485L17.4136 13.9077L15.9136 13.9077L15.9137 16.9485L12.873 16.9486L12.8731 18.4486L15.9137 18.4485L15.9138 21.489L17.4138 21.489L17.4137 18.4485L20.4544 18.4484L20.4543 16.9484L17.4137 16.9485Z" fill="black"/>
</svg>
