<svg width="24" height="24" viewBox="0 0 24 24" fill="none" xmlns="http://www.w3.org/2000/svg">
<path d="M3.67188 20.1029L3.67188 3.70288H5.17188L5.17188 20.1029H3.67188ZM10.9209 7.88599L10.9209 3.70288H12.4209L12.4209 7.88599H10.9209ZM18.1699 12.9321L18.1699 3.70288H19.6699L19.6699 12.9321H18.1699ZM10.9199 13.9944L10.9199 9.81128H12.4199L12.4199 13.9944H10.9199ZM19.67 14.9189L19.67 18.2952L23.0461 18.2951L23.0462 19.7951L19.6701 19.7952L19.6701 23.1711L18.1701 23.1712L18.1701 19.7952L14.794 19.7953L14.7939 18.2953L18.17 18.2952L18.17 14.919L19.67 14.9189ZM10.9199 20.1028L10.9199 15.9197H12.4199L12.4199 20.1028H10.9199Z" fill="black"/>
</svg>
