<svg width="24" height="24" viewBox="0 0 24 24" fill="none" xmlns="http://www.w3.org/2000/svg">
<path d="M7.86471 11.6201L2.08008 8.00563V6.23688L7.86471 9.85139L16.2514 4.61099C16.1204 4.39213 15.881 4.24561 15.6074 4.24561H2.08008V2.74561H15.6074C16.8501 2.74561 17.8574 3.75296 17.8574 4.99561V8.27911L16.3574 9.77501V6.3135L7.86471 11.6201Z" fill="black"/>
<path d="M7.51268 18.5956H2.08008V17.0956H9.01678L7.51268 18.5956Z" fill="black"/>
<path d="M20.535 10.0126C19.8998 9.3773 18.8698 9.3773 18.2345 10.0126L16.9293 11.3177L20.1372 14.5256L21.4424 13.2204C22.0776 12.5852 22.0776 11.5552 21.4424 10.9199L20.535 10.0126ZM19.2952 11.0732C19.3446 11.0237 19.4249 11.0237 19.4744 11.0732L20.3817 11.9805C20.4312 12.03 20.4312 12.1103 20.3817 12.1598L20.1372 12.4043L19.0507 11.3177L19.2952 11.0732Z" fill="black"/>
<path d="M19.8374 14.8394L16.6247 11.6267L10.2163 18.0427V21.2548L13.4289 21.2548L19.8374 14.8394ZM11.7163 18.6635L16.6253 13.7486L17.7167 14.84L12.8071 19.7548H11.7163V18.6635Z" fill="black"/>
</svg>
