<svg width="24" height="24" viewBox="0 0 24 24" fill="none" xmlns="http://www.w3.org/2000/svg">
<path d="M4.71831 4.67175C4.72622 4.66294 4.73185 4.65891 4.73492 4.65723H19.2651C19.2682 4.65891 19.2738 4.66294 19.2817 4.67175C19.3022 4.69454 19.3262 4.73999 19.3262 4.80626V8.29688H4.67383V4.80626C4.67383 4.73999 4.69784 4.69454 4.71831 4.67175ZM20.8262 4.80626C20.8262 3.97319 20.2024 3.15723 19.2686 3.15723H4.73145C3.79758 3.15723 3.17383 3.97319 3.17383 4.80626V19.1908C3.17383 20.0239 3.79758 20.8398 4.73145 20.8398H19.2686C20.2024 20.8398 20.8262 20.0239 20.8262 19.1908V4.80626ZM19.3262 9.79688V13.8068H15.4192V9.79688H19.3262ZM19.3262 15.3068V19.1908C19.3262 19.2571 19.3022 19.3025 19.2817 19.3253C19.2738 19.3341 19.2682 19.3382 19.2651 19.3398H15.4192V15.3068H19.3262ZM13.9192 19.3398H10.0558V15.3068H13.9192V19.3398ZM8.55582 19.3398H4.73492C4.73185 19.3382 4.72622 19.3341 4.71831 19.3253C4.69784 19.3025 4.67383 19.2571 4.67383 19.1908V15.3068H8.55582V19.3398ZM4.67383 13.8068V9.79688H8.55582V13.8068H4.67383ZM10.0558 9.79688H13.9192V13.8068H10.0558V9.79688Z" fill="black"/>
</svg>
