<svg width="24" height="24" viewBox="0 0 24 24" fill="none" xmlns="http://www.w3.org/2000/svg">
<path d="M18.1667 16.875H12V15.375H18.1667V16.875Z" fill="black"/>
<path d="M5.9043 8.86844L9.02505 11.9997L5.90432 15.131L6.96719 16.1895L11.1428 11.9997L6.96674 7.80957L5.9043 8.86844Z" fill="black"/>
<path d="M2 4.75C2 3.7835 2.7835 3 3.75 3H20.25C21.2165 3 22 3.7835 22 4.75V19.25C22 20.2165 21.2165 21 20.25 21H3.75C2.7835 21 2 20.2165 2 19.25V4.75ZM3.75 4.5C3.61193 4.5 3.5 4.61193 3.5 4.75V19.25C3.5 19.3881 3.61193 19.5 3.75 19.5H20.25C20.3881 19.5 20.5 19.3881 20.5 19.25V4.75C20.5 4.61193 20.3881 4.5 20.25 4.5H3.75Z" fill="black"/>
</svg>
