<svg width="24" height="24" viewBox="0 0 24 24" fill="none" xmlns="http://www.w3.org/2000/svg">
<path d="M20.9042 10.2311C22.1145 10.2311 23.0956 9.24998 23.0956 8.03973C23.0956 6.82949 22.1145 5.84839 20.9042 5.84839C19.694 5.84839 18.7129 6.82949 18.7129 8.03973C18.7129 8.37009 18.786 8.68338 18.9169 8.9643L15.9159 11.9653C15.6114 11.805 15.2645 11.7142 14.8964 11.7142C14.5213 11.7142 14.1682 11.8085 13.8595 11.9746L11.9514 10.0665C12.0581 9.80851 12.1171 9.52567 12.1171 9.22906C12.1171 8.01882 11.136 7.03772 9.92572 7.03772C8.71547 7.03772 7.73438 8.01882 7.73438 9.22906C7.73438 9.53394 7.79663 9.82427 7.90913 10.088L4.02329 13.9744C3.74158 13.8426 3.42721 13.7689 3.09564 13.7689C1.8854 13.7689 0.904297 14.75 0.904297 15.9603C0.904297 17.1705 1.8854 18.1516 3.09564 18.1516C4.30589 18.1516 5.28699 17.1705 5.28699 15.9603C5.28699 15.6298 5.21386 15.3165 5.0829 15.0356L8.93453 11.184C9.23218 11.3352 9.569 11.4204 9.92572 11.4204C10.2905 11.4204 10.6345 11.3313 10.9371 11.1736L12.8595 13.096C12.7599 13.3464 12.7051 13.6196 12.7051 13.9056C12.7051 15.1158 13.6862 16.0969 14.8964 16.0969C16.1067 16.0969 17.0878 15.1158 17.0878 13.9056C17.0878 13.6123 17.0302 13.3326 16.9257 13.0769L19.9769 10.0257C20.2585 10.1575 20.5728 10.2311 20.9042 10.2311ZM20.9042 8.73108C20.5224 8.73108 20.2129 8.42155 20.2129 8.03973C20.2129 7.65791 20.5224 7.34839 20.9042 7.34839C21.2861 7.34839 21.5956 7.65791 21.5956 8.03973C21.5956 8.42155 21.2861 8.73108 20.9042 8.73108ZM9.92572 9.92041C9.5439 9.92041 9.23438 9.61088 9.23438 9.22906C9.23438 8.84725 9.5439 8.53772 9.92572 8.53772C10.3075 8.53772 10.6171 8.84725 10.6171 9.22906C10.6171 9.61088 10.3075 9.92041 9.92572 9.92041ZM3.09564 16.6516C2.71382 16.6516 2.4043 16.3421 2.4043 15.9603C2.4043 15.5784 2.71382 15.2689 3.09564 15.2689C3.47746 15.2689 3.78699 15.5784 3.78699 15.9603C3.78699 16.3421 3.47746 16.6516 3.09564 16.6516ZM15.5878 13.9056C15.5878 14.2874 15.2782 14.5969 14.8964 14.5969C14.5146 14.5969 14.2051 14.2874 14.2051 13.9056C14.2051 13.5238 14.5146 13.2142 14.8964 13.2142C15.2782 13.2142 15.5878 13.5238 15.5878 13.9056Z" fill="black"/>
</svg>
