<svg width="24" height="24" viewBox="0 0 24 24" fill="none" xmlns="http://www.w3.org/2000/svg">
<path fill-rule="evenodd" clip-rule="evenodd" d="M6.67773 15.8398C9.81346 15.8398 12.3555 13.2978 12.3555 10.1621C12.3555 7.02638 9.81346 4.48438 6.67773 4.48438C3.54201 4.48438 1 7.02638 1 10.1621C1 13.2978 3.54201 15.8398 6.67773 15.8398ZM6.67773 14.3398C8.98503 14.3398 10.8555 12.4694 10.8555 10.1621C10.8555 7.85481 8.98503 5.98438 6.67773 5.98438C4.37044 5.98438 2.5 7.85481 2.5 10.1621C2.5 12.4694 4.37044 14.3398 6.67773 14.3398ZM8.79182 11.5807L9.85248 10.52L6.67819 7.3457L3.50391 10.52L4.56457 11.5807L5.92866 10.2166L5.92866 12.9785H7.42866L7.42866 10.2175L8.79182 11.5807ZM16.8802 11.2065L13.4493 7.77564C13.1915 7.04404 12.8184 6.36677 12.352 5.76562H12.6286C13.2254 5.76562 13.7977 6.00268 14.2196 6.42463L17.6197 9.82472L20.7893 10.4586C22.0747 10.7157 22.9999 11.8444 22.9999 13.1552V16.5156C22.9999 16.9298 22.6642 17.2656 22.2499 17.2656H19.1554C18.8224 18.5595 17.6478 19.5156 16.2499 19.5156C14.8521 19.5156 13.6775 18.5595 13.3445 17.2656H7.71387C9.00763 17.0786 10.1897 16.5465 11.1638 15.7656H13.3445C13.6775 14.4717 14.8521 13.5156 16.2499 13.5156C17.6478 13.5156 18.8224 14.4717 19.1554 15.7656H21.4999V13.1552C21.4999 12.5594 21.0794 12.0464 20.4951 11.9295L16.8802 11.2065ZM17.7499 16.5156C17.7499 15.6872 17.0784 15.0156 16.2499 15.0156C15.4215 15.0156 14.7499 15.6872 14.7499 16.5156C14.7499 17.3441 15.4215 18.0156 16.2499 18.0156C17.0784 18.0156 17.7499 17.3441 17.7499 16.5156Z" fill="black"/>
</svg>
