<svg width="24" height="24" viewBox="0 0 24 24" fill="none" xmlns="http://www.w3.org/2000/svg">
<path d="M14.8887 7.12646C15.2402 7.12646 15.5254 6.84229 15.5254 6.49121C15.5254 6.31885 15.457 6.16211 15.3438 6.04736C15.2285 5.9292 15.0664 5.85596 14.8887 5.85596C14.5371 5.85596 14.252 6.14062 14.252 6.49121C14.252 6.84229 14.5371 7.12646 14.8887 7.12646Z" fill="black"/>
<path d="M17.8887 6.49121C17.8887 6.63818 17.8379 6.77344 17.7539 6.88135C17.6836 6.97168 17.5898 7.04248 17.4805 7.08447C17.4102 7.11182 17.332 7.12646 17.252 7.12646C16.9004 7.12646 16.6152 6.84229 16.6152 6.49121C16.6152 6.35693 16.6562 6.23193 16.7285 6.12891C16.8438 5.96387 17.0352 5.85596 17.252 5.85596C17.6035 5.85596 17.8887 6.14062 17.8887 6.49121Z" fill="black"/>
<path d="M20.1523 6.83057C20.2148 6.73242 20.252 6.61621 20.252 6.49121C20.252 6.14062 19.9668 5.85596 19.6152 5.85596C19.2637 5.85596 18.9785 6.14062 18.9785 6.49121C18.9785 6.84229 19.2637 7.12646 19.6152 7.12646C19.8418 7.12646 20.041 7.0083 20.1523 6.83057Z" fill="black"/>
<path d="M11.502 4.25C11.502 3.00732 12.5098 2 13.752 2H20.752C21.4277 2 22.0352 2.29834 22.4473 2.77051C22.793 3.16602 23.002 3.68359 23.002 4.25V8.47363C23.002 9.71631 21.9941 10.7236 20.752 10.7236H14.0254L11.502 13.0732V4.25ZM13.752 3.5C13.3379 3.5 13.002 3.83594 13.002 4.25V9.62646L13.4355 9.22363H20.752C20.8398 9.22363 20.9258 9.20801 21.0039 9.17969C21.0488 9.16357 21.0938 9.14307 21.1348 9.11914L21.2324 9.0498C21.3965 8.9126 21.502 8.70557 21.502 8.47363V4.25C21.502 4.01074 21.3906 3.79785 21.2148 3.66064C21.1523 3.61084 21.0801 3.5708 21.0039 3.54346C20.9258 3.51514 20.8418 3.5 20.752 3.5H13.752Z" fill="black"/>
<path d="M4.11719 11.7329C4.11719 9.94727 5.56445 8.5 7.34961 8.5C9.13477 8.5 10.582 9.94727 10.582 11.7329C10.582 13.5181 9.13477 14.9653 7.34961 14.9653C5.56445 14.9653 4.11719 13.5181 4.11719 11.7329ZM7.34961 10C6.39258 10 5.61719 10.7759 5.61719 11.7329C5.61719 12.6895 6.39258 13.4653 7.34961 13.4653C7.9375 13.4653 8.45703 13.1719 8.77148 12.7231C8.9668 12.4424 9.08203 12.1011 9.08203 11.7329C9.08203 10.7759 8.30664 10 7.34961 10Z" fill="black"/>
<path d="M0.998047 22V19.2358C0.998047 19.0571 1.02734 18.8877 1.08008 18.729C1.12305 18.5991 1.17969 18.4761 1.24805 18.3604C1.29688 18.2783 1.34961 18.2002 1.40625 18.1255C1.49219 18.0151 1.58594 17.9136 1.68359 17.8203C1.83789 17.6724 2.01562 17.5342 2.20898 17.4058C2.48633 17.2227 2.79688 17.0591 3.12695 16.916C3.62109 16.7031 4.18555 16.5244 4.79688 16.3901C5.58594 16.2168 6.45508 16.1187 7.34961 16.1187C8.25195 16.1187 9.12695 16.2183 9.92188 16.394C10.5273 16.5278 11.0859 16.7056 11.5742 16.9165C12.1367 17.1597 12.6426 17.4614 13.0176 17.8203C13.3867 18.1738 13.7031 18.6538 13.7031 19.2358V22H0.998047ZM2.71875 18.9048C2.50781 19.1074 2.49805 19.2217 2.49805 19.2358V20.4995H12.2031V19.2358C12.2031 19.2256 12.1973 19.1646 12.1172 19.0566L12.0664 18.9941L11.9824 18.9048C11.7754 18.7085 11.4414 18.4932 10.9805 18.2935C10.0586 17.8965 8.76172 17.6187 7.34961 17.6187C6.95117 17.6187 6.56445 17.6406 6.19141 17.6812C5.91016 17.7114 5.63672 17.7524 5.375 17.8027C4.75 17.9219 4.1875 18.0923 3.7207 18.2935C3.25977 18.4927 2.92578 18.708 2.71875 18.9048Z" fill="black"/>
</svg>
