<svg width="24" height="24" viewBox="0 0 24 24" fill="none" xmlns="http://www.w3.org/2000/svg">
<path d="M10.2527 3.21436C8.00217 3.21436 6.17773 5.03879 6.17773 7.28936C6.17773 9.53992 8.00217 11.3644 10.2527 11.3644C12.5033 11.3644 14.3277 9.53992 14.3277 7.28936C14.3277 5.03879 12.5033 3.21436 10.2527 3.21436ZM7.67773 7.28936C7.67773 5.86722 8.8306 4.71436 10.2527 4.71436C11.6749 4.71436 12.8277 5.86722 12.8277 7.28936C12.8277 8.71149 11.6749 9.86436 10.2527 9.86436C8.8306 9.86436 7.67773 8.71149 7.67773 7.28936Z" fill="black"/>
<path d="M2 17.3382V20.7855H14.2871C14.155 20.6399 14.0228 20.489 13.8934 20.3341C13.6436 20.0354 13.369 19.6832 13.1034 19.2855H11.7293L11.2452 16.2976L11.8179 15.0197C11.8581 14.4985 11.9678 13.9984 12.1374 13.5279C11.5277 13.4562 10.8959 13.4177 10.2529 13.4177C8.15566 13.4177 6.17695 13.8267 4.6979 14.4651C3.96041 14.7834 3.31391 15.1731 2.83939 15.6263C2.37088 16.0739 2 16.6546 2 17.3382ZM3.5 17.3382C3.5 17.2228 3.56486 17.0077 3.8755 16.711C4.18013 16.42 4.65619 16.1169 5.29232 15.8423C6.20546 15.4482 7.38021 15.1423 8.68305 15.0019L9.26382 16.2976L8.77968 19.2855H3.5V17.3382Z" fill="black"/>
<path d="M17.6462 14.177C16.8762 14.177 16.252 14.8012 16.252 15.5713C16.252 16.3413 16.8762 16.9655 17.6462 16.9655C18.4163 16.9655 19.0405 16.3413 19.0405 15.5713C19.0405 14.8012 18.4163 14.177 17.6462 14.177Z" fill="black"/>
<path d="M13.3008 15.4671C13.3008 13.0929 15.2628 11.1956 17.6489 11.1956H17.7807L17.7881 11.1982C20.1135 11.2695 21.9893 13.1409 21.9893 15.4671C21.9893 16.9728 21.0883 18.3627 20.2423 19.3725C19.5882 20.1532 18.8459 20.8367 18.4366 21.2135C18.3167 21.3239 18.2254 21.408 18.1733 21.4604L17.6418 21.9956L17.1103 21.4604C17.0582 21.4079 16.9674 21.3242 16.8483 21.2144C16.4397 20.8377 15.6982 20.1542 15.0441 19.3719C14.1995 18.3619 13.3008 16.9722 13.3008 15.4671ZM17.5897 12.6943C16.0284 12.725 14.7989 13.9694 14.7989 15.4671C14.7989 16.416 15.3933 17.4542 16.1933 18.4109C16.7139 19.0335 17.237 19.5306 17.6421 19.9058C18.0477 19.5306 18.5716 19.0338 19.094 18.4104C19.8957 17.4534 20.4912 16.4155 20.4912 15.4671C20.4912 13.9481 19.2374 12.6943 17.6505 12.6943H17.5897Z" fill="black"/>
</svg>
