<svg width="24" height="24" viewBox="0 0 24 24" fill="none" xmlns="http://www.w3.org/2000/svg">
<path d="M4.92676 7.28936C4.92676 5.03879 6.7512 3.21436 9.00176 3.21436C11.2523 3.21436 13.0768 5.03879 13.0768 7.28936C13.0768 9.53992 11.2523 11.3644 9.00176 11.3644C6.7512 11.3644 4.92676 9.53992 4.92676 7.28936ZM9.00176 4.71436C7.57962 4.71436 6.42676 5.86722 6.42676 7.28936C6.42676 8.71149 7.57962 9.86436 9.00176 9.86436C10.4239 9.86436 11.5768 8.71149 11.5768 7.28936C11.5768 5.86722 10.4239 4.71436 9.00176 4.71436Z" fill="black"/>
<path d="M3.44692 14.4654C4.92598 13.827 6.90469 13.418 9.00195 13.418C11.0992 13.418 13.0779 13.827 14.557 14.4654C15.2945 14.7837 15.941 15.1733 16.4155 15.6266C16.884 16.0741 17.2549 16.6549 17.2549 17.3385V20.7857H0.749023V17.3385C0.749023 16.6549 1.11991 16.0741 1.58842 15.6266C2.06294 15.1733 2.70944 14.7837 3.44692 14.4654ZM2.62453 16.7112C2.31389 17.008 2.24902 17.2231 2.24902 17.3385V19.2857H15.7549V17.3385C15.7549 17.2231 15.69 17.008 15.3794 16.7112C15.0747 16.4202 14.5987 16.1171 13.9626 15.8426C12.6944 15.2952 10.9216 14.918 9.00195 14.918C7.08227 14.918 5.30951 15.2952 4.04134 15.8426C3.40521 16.1171 2.92916 16.4202 2.62453 16.7112Z" fill="black"/>
<path d="M19.9249 9.02518L19.9249 5.64893L18.4249 5.64896L18.4249 9.02521L15.0488 9.02529L15.0489 10.5253L18.425 10.5252L18.425 13.9012L19.925 13.9011L19.925 10.5252L23.3011 10.5251L23.301 9.0251L19.9249 9.02518Z" fill="black"/>
</svg>
