<svg width="24" height="24" viewBox="0 0 24 24" fill="none" xmlns="http://www.w3.org/2000/svg">
<path d="M7.92625 7.28936C7.92625 5.03879 9.75004 3.21436 11.9998 3.21436C14.2496 3.21436 16.0734 5.03879 16.0734 7.28936C16.0734 9.53992 14.2496 11.3644 11.9998 11.3644C9.75004 11.3644 7.92625 9.53992 7.92625 7.28936ZM11.9998 4.71436C10.5782 4.71436 9.42572 5.86722 9.42572 7.28936C9.42572 8.71149 10.5782 9.86436 11.9998 9.86436C13.4214 9.86436 14.5739 8.71149 14.5739 7.28936C14.5739 5.86722 13.4214 4.71436 11.9998 4.71436Z" fill="black"/>
<path d="M3.75 17.3383V20.7856H20.25V17.3383C20.25 16.6547 19.8792 16.074 19.4109 15.6265C18.9366 15.1732 18.2903 14.7836 17.5531 14.4652C16.0745 13.8269 14.0965 13.4178 12 13.4178C11.1916 13.4178 10.4009 13.4787 9.64955 13.59L3.03125 6.97168V9.093L7.89714 13.9589C7.37586 14.104 6.88907 14.2743 6.44694 14.4652C5.70972 14.7836 5.06345 15.1732 4.5891 15.6265C4.12075 16.074 3.75 16.6547 3.75 17.3383ZM9.1402 15.202L13.2239 19.2856H5.24947V17.3383C5.24947 17.2229 5.31431 17.0079 5.62484 16.7111C5.92936 16.4201 6.40525 16.117 7.04115 15.8424C7.64064 15.5836 8.35293 15.3628 9.1402 15.202ZM15.3452 19.2856L11.0108 14.9512C11.3348 14.9293 11.6652 14.9178 12 14.9178C13.919 14.9178 15.6911 15.2951 16.9589 15.8424C17.5948 16.117 18.0706 16.4201 18.3752 16.7111C18.6857 17.0079 18.7505 17.2229 18.7505 17.3383V19.2856H15.3452Z" fill="black"/>
</svg>
