<svg width="24" height="24" viewBox="0 0 24 24" fill="none" xmlns="http://www.w3.org/2000/svg">
<path d="M9 4.44031C9 2.78406 10.3427 1.44141 11.9989 1.44141C13.6551 1.44141 14.9978 2.78406 14.9978 4.44031C14.9978 6.09656 13.6551 7.43921 11.9989 7.43921C10.3427 7.43921 9 6.09656 9 4.44031ZM10.5 4.44031C10.5 5.26813 11.1711 5.93921 11.9989 5.93921C12.8267 5.93921 13.4978 5.26813 13.4978 4.44031C13.4978 3.61249 12.8267 2.94141 11.9989 2.94141C11.1711 2.94141 10.5 3.61249 10.5 4.44031Z" fill="black"/>
<path d="M23 9.89551C23 8.63183 21.9756 7.60742 20.7119 7.60742C19.4482 7.60742 18.4238 8.63183 18.4238 9.89551C18.4238 11.1592 19.4482 12.1836 20.7119 12.1836C21.9756 12.1836 23 11.1592 23 9.89551ZM20.7119 9.10742C21.1472 9.10742 21.5 9.46026 21.5 9.89551C21.5 10.3308 21.1472 10.6836 20.7119 10.6836C20.2767 10.6836 19.9238 10.3308 19.9238 9.89551C19.9238 9.46026 20.2767 9.10742 20.7119 9.10742Z" fill="black"/>
<path d="M3.28809 7.60742C4.55176 7.60742 5.57617 8.63183 5.57617 9.89551C5.57617 11.1592 4.55176 12.1836 3.28809 12.1836C2.02441 12.1836 1 11.1592 1 9.89551C1 8.63183 2.02441 7.60742 3.28809 7.60742ZM4.07617 9.89551C4.07617 9.46026 3.72333 9.10742 3.28809 9.10742C2.85284 9.10742 2.5 9.46026 2.5 9.89551C2.5 10.3308 2.85284 10.6836 3.28809 10.6836C3.72333 10.6836 4.07617 10.3308 4.07617 9.89551Z" fill="black"/>
<path d="M16.3043 12.7836L12.9141 17.6623L15.0507 20.7369C15.3579 21.1789 16.0169 21.163 16.3024 20.7067L19.5439 15.5252C19.8564 15.0257 19.4973 14.3774 18.9081 14.3774H17.0252L18.0676 12.8774H18.9081C20.6758 12.8774 21.7531 14.8222 20.8156 16.3208L17.574 21.5022C16.7176 22.8713 14.7404 22.919 13.8189 21.5929L12.0008 18.9765L10.1827 21.5929C9.26114 22.919 7.28401 22.8713 6.42752 21.5022L3.18597 16.3208C2.24845 14.8222 3.32578 12.8774 5.09344 12.8774H5.93656L6.97892 14.3774H5.09344C4.50422 14.3774 4.14511 15.0257 4.45762 15.5252L7.69917 20.7067C7.98467 21.163 8.64371 21.1789 8.95089 20.7369L11.0875 17.6623L7.6973 12.7836C6.43016 10.9602 7.73506 8.46436 9.95558 8.46436H14.046C16.2665 8.46436 17.5714 10.9602 16.3043 12.7836ZM8.92909 11.9277L12.0008 16.348L15.0725 11.9277C15.6484 11.0988 15.0553 9.96436 14.046 9.96436H9.95558C8.94625 9.96436 8.35312 11.0988 8.92909 11.9277Z" fill="black"/>
</svg>
