<svg width="24" height="24" viewBox="0 0 24 24" fill="none" xmlns="http://www.w3.org/2000/svg">
<path d="M12.0088 3.50195C11.0666 3.50195 10.3027 4.2658 10.3027 5.20806C10.3027 6.15031 11.0666 6.91416 12.0088 6.91416C12.9511 6.91416 13.7149 6.15031 13.7149 5.20806C13.7149 4.2658 12.9511 3.50195 12.0088 3.50195ZM11.5527 5.20806C11.5527 4.95616 11.7569 4.75195 12.0088 4.75195C12.2607 4.75195 12.4649 4.95616 12.4649 5.20806C12.4649 5.45996 12.2607 5.66416 12.0088 5.66416C11.7569 5.66416 11.5527 5.45996 11.5527 5.20806Z" fill="black"/>
<path d="M5.6104 15.2822C4.66815 15.2822 3.9043 16.0461 3.9043 16.9883C3.9043 17.9306 4.66815 18.6944 5.6104 18.6944C6.55266 18.6944 7.3165 17.9306 7.3165 16.9883C7.3165 16.0461 6.55266 15.2822 5.6104 15.2822ZM5.1543 16.9883C5.1543 16.7364 5.3585 16.5322 5.6104 16.5322C5.8623 16.5322 6.0665 16.7364 6.0665 16.9883C6.0665 17.2402 5.8623 17.4444 5.6104 17.4444C5.3585 17.4444 5.1543 17.2402 5.1543 16.9883Z" fill="black"/>
<path d="M16.6836 16.9888C16.6836 16.0466 17.4474 15.2827 18.3897 15.2827C19.332 15.2827 20.0958 16.0466 20.0958 16.9888C20.0958 17.9311 19.332 18.6949 18.3897 18.6949C17.4474 18.6949 16.6836 17.9311 16.6836 16.9888ZM18.3897 16.5327C18.1378 16.5327 17.9336 16.7369 17.9336 16.9888C17.9336 17.2407 18.1378 17.4449 18.3897 17.4449C18.6416 17.4449 18.8458 17.2407 18.8458 16.9888C18.8458 16.7369 18.6416 16.5327 18.3897 16.5327Z" fill="black"/>
<path d="M7.40039 6.10954C7.40039 3.56376 9.46415 1.5 12.0099 1.5C14.5557 1.5 16.6195 3.56376 16.6195 6.10954C16.6195 8.44313 14.8854 10.3717 12.6355 10.677V13.1852L14.9739 14.7957C15.8173 13.8649 17.0358 13.2803 18.3908 13.2803C20.9366 13.2803 23.0003 15.344 23.0003 17.8898C23.0003 20.4356 20.9366 22.4994 18.3908 22.4994C15.845 22.4994 13.7812 20.4356 13.7812 17.8898C13.7812 17.1483 13.9564 16.4476 14.2675 15.827L12.0105 14.2725L9.73812 15.8375C10.046 16.4555 10.2191 17.1525 10.2191 17.8898C10.2191 20.4356 8.15532 22.4994 5.60954 22.4994C3.06376 22.4994 1 20.4356 1 17.8898C1 15.344 3.06376 13.2803 5.60954 13.2803C6.96877 13.2803 8.1906 13.8686 9.03427 14.8045L11.3855 13.1852V10.6772C9.13509 10.3724 7.40039 8.44356 7.40039 6.10954ZM12.0099 2.75C10.1545 2.75 8.65039 4.25412 8.65039 6.10954C8.65039 6.95665 8.96391 7.73053 9.48125 8.32147C10.185 7.73793 11.0657 7.38379 12.0292 7.38379C12.9823 7.38379 13.8547 7.73042 14.5547 8.30296C15.0624 7.71442 15.3695 6.94784 15.3695 6.10954C15.3695 4.25412 13.8654 2.75 12.0099 2.75ZM12.0099 9.46909C12.56 9.46909 13.0792 9.33688 13.5375 9.10252C13.0897 8.80141 12.5736 8.63379 12.0292 8.63379C11.4782 8.63379 10.9561 8.80553 10.5044 9.11368C10.9573 9.34108 11.4687 9.46909 12.0099 9.46909ZM2.25 17.8898C2.25 18.7374 2.56385 19.5116 3.08168 20.1027C3.7856 19.5186 4.66676 19.1641 5.63076 19.1641C6.58333 19.1641 7.4553 19.5103 8.15511 20.0823C8.66238 19.4939 8.96909 18.7277 8.96909 17.8898C8.96909 16.0344 7.46497 14.5303 5.60954 14.5303C3.75412 14.5303 2.25 16.0344 2.25 17.8898ZM5.63076 20.4141C5.07944 20.4141 4.557 20.586 4.10515 20.8945C4.55773 21.1216 5.06871 21.2494 5.60954 21.2494C6.16006 21.2494 6.67965 21.1169 7.1382 20.8822C6.69059 20.5815 6.17485 20.4141 5.63076 20.4141ZM15.0312 17.8898C15.0312 18.7371 15.3449 19.511 15.8624 20.102C16.566 19.5186 17.4467 19.1646 18.4101 19.1646C19.363 19.1646 20.2353 19.5111 20.9353 20.0835C21.4432 19.4949 21.7503 18.7282 21.7503 17.8898C21.7503 16.0344 20.2462 14.5303 18.3908 14.5303C16.5354 14.5303 15.0312 16.0344 15.0312 17.8898ZM16.8857 20.8942C17.3384 21.1214 17.8497 21.2494 18.3908 21.2494C18.9407 21.2494 19.4598 21.1172 19.9179 20.883C19.4702 20.5821 18.9543 20.4146 18.4101 20.4146C17.8592 20.4146 17.3373 20.5862 16.8857 20.8942Z" fill="black"/>
</svg>
