<svg width="24" height="24" viewBox="0 0 24 24" fill="none" xmlns="http://www.w3.org/2000/svg">
<path d="M4.54492 5.04755V1.73242H19.4824V5.04755C19.4824 5.49358 19.1904 5.87142 18.7871 6.00028V7.94147H18.5402L19.909 10.7847C20.5205 10.8877 20.9863 11.4197 20.9863 12.0605C20.9863 12.62 20.6313 13.0965 20.1343 13.2771L18.0462 17.6143H18.7207C19.8253 17.6143 20.7207 18.5097 20.7207 19.6143V21.2639C20.7207 21.8162 20.273 22.2639 19.7207 22.2639H18.1119L18.1119 22.2676H17.1119C17.1119 22.1404 17.0939 22.0182 17.0605 21.9031C16.9027 21.3588 16.4001 20.9617 15.806 20.9617C15.2119 20.9617 14.7092 21.3588 14.5514 21.9031C14.5181 22.0182 14.5 22.1404 14.5 22.2676H13.5L13.5 22.2639H10.5104L10.5104 22.2654H9.51038C9.51038 22.1388 9.49249 22.0171 9.45942 21.9025C9.30216 21.3574 8.7991 20.9595 8.20441 20.9595C7.60971 20.9595 7.10665 21.3574 6.9494 21.9025C6.91632 22.0171 6.89844 22.1388 6.89844 22.2654H5.89844L5.89844 22.2639H4.28906C3.73678 22.2639 3.28906 21.8162 3.28906 21.2639V19.6143C3.28906 18.5097 4.18449 17.6143 5.28906 17.6143H6.11209L4.04862 13.3282C3.45908 13.2074 3.01562 12.6858 3.01562 12.0605C3.01562 11.4314 3.46457 10.9072 4.05956 10.7907L5.4313 7.94147H5.22266V5.99448C4.82849 5.86038 4.54492 5.48708 4.54492 5.04755ZM6.04492 3.23242V4.54755H17.9824V3.23242H6.04492ZM17.453 15.3885L18.6721 12.8564C18.5006 12.6369 18.3984 12.3607 18.3984 12.0605C18.3984 11.8345 18.4564 11.622 18.5583 11.437L16.8754 7.94147H16.2441V6.04755H14.8105V7.94147H14.3256L15.6944 10.7847C16.3058 10.8879 16.7715 11.4198 16.7715 12.0605C16.7715 12.7012 16.3059 13.233 15.6947 13.3363L15.2208 14.3208H15.6834C16.439 14.3208 17.1136 14.744 17.453 15.3885ZM13.556 14.3208L14.3437 12.6846C14.2417 12.4995 14.1836 12.2868 14.1836 12.0605C14.1836 11.8344 14.2416 11.6218 14.3436 11.4368L12.6608 7.94147H12.2676V6.04755H11.7422V7.94147H11.3109L9.64201 11.408C9.75411 11.5996 9.81836 11.8226 9.81836 12.0605C9.81836 12.2985 9.75415 12.5214 9.64212 12.7129L10.417 14.3224C10.4437 14.3213 10.4706 14.3208 10.4975 14.3208H13.556ZM9.04988 14.9407L8.27461 13.3304C7.67952 13.214 7.23047 12.6897 7.23047 12.0605C7.23047 11.4314 7.67942 10.9072 8.2744 10.7907L9.64614 7.94147H9.19922V6.04755H7.76562V7.94147H7.09608L5.42717 11.408C5.53927 11.5996 5.60352 11.8226 5.60352 12.0605C5.60352 12.3024 5.53718 12.5287 5.42172 12.7223L7.67283 17.3981L8.72678 15.391C8.81436 15.2242 8.92355 15.0732 9.04988 14.9407ZM10.4975 15.3208C10.1259 15.3208 9.78491 15.5269 9.61214 15.8559L8.68973 17.6125H12.625V15.3208H10.4975ZM13.625 17.6125H17.0094L16.6576 16.0949C16.5525 15.6417 16.1487 15.3208 15.6834 15.3208H13.625V17.6125ZM4.30957 12.3545C4.47191 12.3545 4.60352 12.2229 4.60352 12.0605C4.60352 11.8982 4.47191 11.7666 4.30957 11.7666C4.14723 11.7666 4.01562 11.8982 4.01562 12.0605C4.01562 12.2229 4.14723 12.3545 4.30957 12.3545ZM8.81836 12.0605C8.81836 11.8982 8.68676 11.7666 8.52441 11.7666C8.36207 11.7666 8.23047 11.8982 8.23047 12.0605C8.23047 12.2229 8.36207 12.3545 8.52441 12.3545C8.68676 12.3545 8.81836 12.2229 8.81836 12.0605ZM15.4775 12.3545C15.6399 12.3545 15.7715 12.2229 15.7715 12.0605C15.7715 11.8982 15.6399 11.7666 15.4775 11.7666C15.3152 11.7666 15.1836 11.8982 15.1836 12.0605C15.1836 12.2229 15.3152 12.3545 15.4775 12.3545ZM19.9863 12.0605C19.9863 11.8982 19.8547 11.7666 19.6924 11.7666C19.53 11.7666 19.3984 11.8982 19.3984 12.0605C19.3984 12.2229 19.53 12.3545 19.6924 12.3545C19.8547 12.3545 19.9863 12.2229 19.9863 12.0605ZM8.20441 19.9595C9.11956 19.9595 9.9093 20.4923 10.282 21.2639H13.7295C14.1026 20.4935 14.8917 19.9617 15.806 19.9617C16.7203 19.9617 17.5094 20.4935 17.8825 21.2639H19.7207V19.6143C19.7207 19.062 19.273 18.6143 18.7207 18.6143H5.28906C4.73678 18.6143 4.28906 19.062 4.28906 19.6143V21.2639H6.12686C6.49952 20.4923 7.28925 19.9595 8.20441 19.9595Z" fill="black"/>
</svg>
