<svg width="24" height="24" viewBox="0 0 24 24" fill="none" xmlns="http://www.w3.org/2000/svg">
<path d="M3.72914 4.06641C2.70351 4.06641 1.87207 4.89518 1.87207 5.91752V18.082C1.87207 19.1043 2.70351 19.9331 3.72914 19.9331H15.9328C16.9584 19.9331 17.7898 19.1043 17.7898 18.082V13.0755L22.1278 17.5153V6.573L17.7898 10.8868V5.91752C17.7898 4.89518 16.9584 4.06641 15.9328 4.06641H3.72914ZM3.46385 5.91752C3.46385 5.77147 3.58262 5.65308 3.72914 5.65308H15.9328C16.0793 5.65308 16.1981 5.77147 16.1981 5.91752V18.082C16.1981 18.228 16.0793 18.3464 15.9328 18.3464H3.72914C3.58262 18.3464 3.46385 18.228 3.46385 18.082V5.91752Z" fill="black"/>
</svg>
