<svg width="24" height="24" viewBox="0 0 24 24" fill="none" xmlns="http://www.w3.org/2000/svg">
<path d="M18.75 3.09326H14.8415C14.6193 1.70821 13.3801 0.72998 12.0009 0.72998C10.6217 0.72998 9.38251 1.70821 9.16033 3.09326H5.25C4.00736 3.09326 3 4.10062 3 5.34326V18.2202C3 19.4629 4.00736 20.4702 5.25 20.4702H11.5V18.9702H5.25C4.83579 18.9702 4.5 18.6344 4.5 18.2202V5.34326C4.5 4.92905 4.83579 4.59326 5.25 4.59326H18.75C19.1642 4.59326 19.5 4.92905 19.5 5.34326V8.22998H21V5.34326C21 4.10062 19.9926 3.09326 18.75 3.09326ZM11.2461 2.93433C11.2461 2.56035 11.5456 2.18555 11.9953 2.18555C12.4449 2.18555 12.7445 2.56035 12.7445 2.93433C12.7445 3.3083 12.4449 3.68311 11.9953 3.68311C11.5456 3.68311 11.2461 3.3083 11.2461 2.93433Z" fill="black"/>
<path d="M13 10.73C13 10.1777 13.4477 9.72998 14 9.72998H22C22.5523 9.72998 23 10.1777 23 10.73V21.73C23 22.2823 22.5523 22.73 22 22.73H14C13.4477 22.73 13 22.2823 13 21.73V10.73ZM21 13.48V11.98H15V13.48H21ZM16 17.73C16.5523 17.73 17 17.2823 17 16.73C17 16.1777 16.5523 15.73 16 15.73C15.4477 15.73 15 16.1777 15 16.73C15 17.2823 15.4477 17.73 16 17.73ZM21 16.73C21 16.1777 20.5523 15.73 20 15.73C19.4477 15.73 19 16.1777 19 16.73C19 17.2823 19.4477 17.73 20 17.73C20.5523 17.73 21 17.2823 21 16.73ZM20 20.73C20.5523 20.73 21 20.2823 21 19.73C21 19.1777 20.5523 18.73 20 18.73C19.4477 18.73 19 19.1777 19 19.73C19 20.2823 19.4477 20.73 20 20.73ZM17 19.73C17 19.1777 16.5523 18.73 16 18.73C15.4477 18.73 15 19.1777 15 19.73C15 20.2823 15.4477 20.73 16 20.73C16.5523 20.73 17 20.2823 17 19.73Z" fill="black"/>
</svg>
