<svg width="24" height="24" viewBox="0 0 24 24" fill="none" xmlns="http://www.w3.org/2000/svg">
<path d="M8.78736 15.7348L17.8912 13.3541C18.1617 13.2771 18.3569 13.1182 18.4768 12.8772C18.5966 12.6361 18.6181 12.3836 18.5412 12.1194C18.4643 11.8554 18.3156 11.6496 18.095 11.5022C17.8745 11.3547 17.6322 11.3195 17.3681 11.3964L14.8797 12.0656L10.7797 8.26562L9.30273 8.60793L11.7527 12.9079L9.32966 13.4964L8.07966 12.5464L7.05273 12.8079L8.78736 15.7348Z" fill="black"/>
<path d="M3.75 4C2.7835 4 2 4.7835 2 5.75V9.74856L2.5348 9.90875C3.43506 10.1784 4.08984 11.0137 4.08984 12C4.08984 12.9863 3.43506 13.8216 2.5348 14.0913L2 14.2514V18.25C2 19.2165 2.7835 20 3.75 20H20.25C21.2165 20 22 19.2165 22 18.25V5.75C22 4.7835 21.2165 4 20.25 4H3.75ZM3.5 5.75C3.5 5.61193 3.61193 5.5 3.75 5.5H20.25C20.3881 5.5 20.5 5.61193 20.5 5.75V18.25C20.5 18.3881 20.3881 18.5 20.25 18.5H3.75C3.61193 18.5 3.5 18.3881 3.5 18.25V15.3211C4.73588 14.7273 5.58984 13.4641 5.58984 12C5.58984 10.5359 4.73588 9.27273 3.5 8.67894V5.75Z" fill="black"/>
</svg>
