<svg width="24" height="24" viewBox="0 0 24 24" fill="none" xmlns="http://www.w3.org/2000/svg">
<path d="M11.999 3.10278C11.7753 3.10278 11.5939 3.28418 11.5939 3.50794V9.56069L3.31916 14.3421L11.5912 11.9165V19.2643L10.4002 20.2153L11.999 19.7648L13.5978 20.2153L12.4068 19.2643V11.9165L20.6789 14.3421L12.4042 9.56069V3.50794C12.4042 3.28418 12.2228 3.10278 11.999 3.10278ZM10.0939 3.50794C10.0939 2.45575 10.9468 1.60278 11.999 1.60278C13.0512 1.60278 13.9042 2.45575 13.9042 3.50794V8.69503L22.3027 13.548V16.3815L13.9068 13.9195V18.5425L15.811 20.063V22.3973L11.999 21.3232L8.18706 22.3973V20.063L10.0912 18.5425V13.9195L1.69531 16.3815V13.548L10.0939 8.69503V3.50794Z" fill="black"/>
</svg>
