<svg width="24" height="24" viewBox="0 0 24 24" fill="none" xmlns="http://www.w3.org/2000/svg">
<path d="M9.29992 13.0927L8.23926 12.0321L11.9996 8.27173L15.7599 12.0321L14.6993 13.0927L12.7496 11.143V15.8558H11.2496V11.143L9.29992 13.0927Z" fill="black"/>
<path d="M12 2C17.5228 2 22 6.47715 22 12C22 17.5228 17.5228 22 12 22C6.47715 22 2 17.5228 2 12C2 6.47715 6.47715 2 12 2ZM20.5 12C20.5 7.30558 16.6944 3.5 12 3.5C7.30558 3.5 3.5 7.30558 3.5 12C3.5 16.6944 7.30558 20.5 12 20.5C16.6944 20.5 20.5 16.6944 20.5 12Z" fill="black"/>
</svg>
