<svg width="24" height="24" viewBox="0 0 24 24" fill="none" xmlns="http://www.w3.org/2000/svg">
<path d="M11.9915 1.88184C11.109 1.88184 10.3936 2.59724 10.3936 3.47974V4.15862C7.75648 4.86398 5.81445 7.2699 5.81445 10.1294V17.4155H3.7998V18.9155H20.1998V17.4155H18.1748V12.4338L16.6748 13.9337V17.4155H7.31445V10.1294C7.31445 7.54461 9.40984 5.44922 11.9946 5.44922C12.8911 5.44922 13.7288 5.70128 14.4405 6.13841L15.3527 5.22614L15.3481 5.22153L15.5182 5.05142C14.9395 4.64914 14.2888 4.34322 13.5894 4.15693V3.47974C13.5894 2.59724 12.874 1.88184 11.9915 1.88184Z" fill="black"/>
<path d="M14.124 20.3496C14.124 21.524 13.172 22.4761 11.9976 22.4761C10.8231 22.4761 9.8711 21.524 9.8711 20.3496H14.124Z" fill="black"/>
<path d="M20.196 4.64618C19.7778 4.22797 19.0998 4.22797 18.6816 4.64618L18.106 5.22172L20.3593 7.47503L20.9349 6.89949C21.3531 6.48128 21.3531 5.80322 20.9349 5.38501L20.196 4.64618Z" fill="black"/>
<path d="M19.8616 7.98983L17.6044 5.73256L12.2266 11.1106L12.2266 13.3676H14.4835L19.8616 7.98983Z" fill="black"/>
</svg>
