<svg width="24" height="24" viewBox="0 0 24 24" fill="none" xmlns="http://www.w3.org/2000/svg">
<path d="M11.9912 1.87891C11.1094 1.87891 10.3936 2.59424 10.3936 3.47705V4.15576C7.75586 4.86133 5.81445 7.26709 5.81445 10.1265V17.4126H3.7998V18.9126H20.2002V17.4126H18.1748V10.1265C18.1748 7.26465 16.2295 4.85693 13.5889 4.15381V3.47705C13.5889 2.59424 12.874 1.87891 11.9912 1.87891ZM16.6748 17.4126H7.31445V10.1265C7.31445 7.5415 9.41016 5.44629 11.9951 5.44629C14.5791 5.44629 16.6748 7.5415 16.6748 10.1265V17.4126Z" fill="black"/>
<path d="M14.124 20.3467C14.124 21.521 13.1719 22.4731 11.9971 22.4731C10.8232 22.4731 9.87109 21.521 9.87109 20.3467H14.124Z" fill="black"/>
</svg>
