<svg width="24" height="24" viewBox="0 0 24 24" fill="none" xmlns="http://www.w3.org/2000/svg">
<path d="M5.53067 4.75C5.53067 3.50736 6.53803 2.5 7.78067 2.5H19.2506C20.4933 2.5 21.5006 3.50736 21.5006 4.75V16.2154C21.5006 17.4581 20.4933 18.4654 19.2506 18.4654H7.78067C6.53803 18.4654 5.53067 17.4581 5.53067 16.2154V4.75ZM7.78067 4C7.36646 4 7.03067 4.33579 7.03067 4.75V16.2154C7.03067 16.6296 7.36646 16.9654 7.78067 16.9654H19.2506C19.6648 16.9654 20.0006 16.6296 20.0006 16.2154V4.75C20.0006 4.33579 19.6648 4 19.2506 4H17.6457V11.6001L15.0162 10.0674L12.3803 11.629V4H7.78067ZM13.8803 4V8.99686L15.0101 8.32755L16.1457 8.98951V4H13.8803Z" fill="black"/>
<path d="M6.24902 20H18.474V21.5H6.24902C4.17796 21.5 2.49902 19.8211 2.49902 17.75V5.52277H3.99902V17.75C3.99902 18.9926 5.00638 20 6.24902 20Z" fill="black"/>
</svg>
