<svg width="24" height="24" viewBox="0 0 24 24" fill="none" xmlns="http://www.w3.org/2000/svg">
<path d="M18.2 3.64258H5.8C4.2536 3.64258 3 4.89618 3 6.44258C3 7.98898 4.2536 9.24258 5.8 9.24258H7.43848V10.7426H5.8C3.42518 10.7426 1.5 8.8174 1.5 6.44258C1.5 4.06775 3.42518 2.14258 5.8 2.14258H18.2C20.5748 2.14258 22.5 4.06775 22.5 6.44258C22.5 8.8174 20.5748 10.7426 18.2 10.7426H13.5609V9.24258H18.2C19.7464 9.24258 21 7.98898 21 6.44258C21 4.89618 19.7464 3.64258 18.2 3.64258Z" fill="black"/>
<path d="M8.6875 21.8574H17.7812V20.3574H8.6875V21.8574Z" fill="black"/>
<path d="M19.788 5.41515L16.5323 8.67083L14.418 6.55586L15.4788 5.49537L16.5324 6.54935L18.7273 4.35449L19.788 5.41515Z" fill="black"/>
<path d="M10.4982 5.67578C9.49793 5.67578 8.68703 6.48668 8.68703 7.48698V13.6958L7.44907 13.1733C6.71773 12.8646 5.87042 13.0753 5.36883 13.6906C4.75194 14.4473 4.85644 15.559 5.60353 16.1875L8.15694 18.3356C8.56248 18.6767 9.07544 18.8638 9.6054 18.8638H17.7819V14.2952C17.7819 13.1569 16.9317 12.1979 15.8017 12.0614L12.3094 11.6396V7.48698C12.3094 6.48668 11.4985 5.67578 10.4982 5.67578ZM10.187 7.48698C10.187 7.31511 10.3264 7.17578 10.4982 7.17578C10.6701 7.17578 10.8094 7.31511 10.8094 7.48698V12.9694L15.6218 13.5506C15.9985 13.5961 16.2819 13.9157 16.2819 14.2952V17.3638H9.6054C9.42875 17.3638 9.25776 17.3015 9.12258 17.1877L6.56916 15.0396C6.4491 14.9386 6.43231 14.76 6.53145 14.6384C6.61206 14.5395 6.74823 14.5056 6.86576 14.5552L10.187 15.9571V7.48698Z" fill="black"/>
</svg>
