<svg width="24" height="24" viewBox="0 0 24 24" fill="none" xmlns="http://www.w3.org/2000/svg">
<path d="M7.58105 4.02368H14.4258V2.01001H15.9258V4.02368H16.7275C17.9702 4.02368 18.9775 5.03104 18.9775 6.27368V12.0497H17.4775V9.59741H4.5V17.7144C4.5 18.1286 4.83579 18.4644 5.25 18.4644H11.8303V19.9644H5.25C4.00736 19.9644 3 18.957 3 17.7144V6.27368C3 5.03104 4.00736 4.02368 5.25 4.02368H6.08105V2.01001H7.58105V4.02368ZM17.4775 6.27368C17.4775 5.85947 17.1418 5.52368 16.7275 5.52368H5.25C4.83579 5.52368 4.5 5.85947 4.5 6.27368V8.09741H17.4775V6.27368Z" fill="black"/>
<path d="M18.7521 17.2498L18.752 13.9272L17.252 13.9273L17.2521 17.2498L13.9297 17.2499L13.9297 18.7499L17.2521 18.7498L17.2522 22.0721L18.7522 22.072L18.7521 18.7498L22.0745 18.7497L22.0745 17.2497L18.7521 17.2498Z" fill="black"/>
</svg>
