<svg width="24" height="24" viewBox="0 0 24 24" fill="none" xmlns="http://www.w3.org/2000/svg">
<path d="M7.58105 3.98853H16.4189V2.01001H17.9189V3.98853H18.75C19.9926 3.98853 21 4.99589 21 6.23853V13.8831L19.5 12.6282V9.56226H4.5V19.7385C4.5 20.1527 4.83579 20.4885 5.25 20.4885H12.7692L12.7676 21.5744C12.7674 21.7171 12.7783 21.8553 12.7992 21.9885H5.25C4.00736 21.9885 3 20.9812 3 19.7385V6.23852C3 4.99588 4.00736 3.98853 5.25 3.98853H6.08105V2.01001H7.58105V3.98853ZM4.5 8.06226H19.5V6.23853C19.5 5.82431 19.1642 5.48853 18.75 5.48853H5.25C4.83579 5.48853 4.5 5.82431 4.5 6.23852V8.06226Z" fill="black"/>
<path d="M6.75 12.01H11.75V17.01H6.75V12.01Z" fill="black"/>
<path d="M15.6108 21.942C15.2916 22.243 14.7672 22.0162 14.7678 21.5774L14.7818 12.3577C14.7825 11.9337 15.2775 11.7029 15.6027 11.975L22.6738 17.8908C23.0103 18.1723 22.8469 18.7198 22.4111 18.7709L20.0544 19.0471L21.7341 22.6492L19.0152 23.9171L17.3358 20.3157L15.6108 21.942Z" fill="black"/>
</svg>
