<svg width="24" height="24" viewBox="0 0 24 24" fill="none" xmlns="http://www.w3.org/2000/svg">
<path d="M7.58105 3.98853H16.4189V2.01001H17.9189V3.98853H18.75C19.9922 3.98853 21 4.99585 21 6.23853V11.1831C20.5234 10.9741 20.0215 10.8132 19.5 10.7065V9.56226H4.5V19.7385C4.5 20.1528 4.83594 20.4885 5.25 20.4885H10.8926C11.0742 21.0178 11.3135 21.5203 11.6025 21.9885H5.25C4.00781 21.9885 3 20.9812 3 19.7385V6.23853C3 4.99585 4.00781 3.98853 5.25 3.98853H6.08105V2.01001H7.58105V3.98853ZM5.25 5.48853C4.83594 5.48853 4.5 5.82422 4.5 6.23853V8.06226H19.5V6.23853C19.5 6.06689 19.4424 5.90869 19.3457 5.78247C19.208 5.60376 18.9922 5.48853 18.75 5.48853H5.25Z" fill="black"/>
<path d="M12.7939 12.6448C12.3262 13.0938 11.917 13.6033 11.5781 14.1599C11.2363 14.001 11 13.6543 11 13.2527C11 13.2065 11.0029 13.1611 11.0088 13.1167C11.0166 13.0591 11.0303 13.0032 11.0469 12.9492C11.0889 12.8181 11.1562 12.6987 11.2441 12.5974C11.4277 12.3862 11.6982 12.2527 12 12.2527C12.3242 12.2527 12.6113 12.4062 12.7939 12.6448Z" fill="black"/>
<path d="M9.00586 13.2527C9.00586 13.8049 8.55859 14.2527 8.00586 14.2527C7.45312 14.2527 7.00586 13.8049 7.00586 13.2527C7.00586 12.7004 7.45312 12.2527 8.00586 12.2527C8.55859 12.2527 9.00586 12.7004 9.00586 13.2527Z" fill="black"/>
<path d="M8.00586 18.1711C8.55859 18.1711 9.00586 17.7234 9.00586 17.1711C9.00586 16.6189 8.55859 16.1711 8.00586 16.1711C7.79688 16.1711 7.60254 16.2354 7.44238 16.345C7.33789 16.416 7.24805 16.5063 7.17773 16.6106C7.06934 16.7705 7.00586 16.9634 7.00586 17.1711C7.00586 17.4666 7.13379 17.7322 7.33789 17.9153C7.51465 18.0742 7.74902 18.1711 8.00586 18.1711Z" fill="black"/>
<path d="M18.6963 17.6199V15.2231H17.1963V18.2585L19.7473 20.7113L20.7869 19.63L18.6963 17.6199Z" fill="black"/>
<path d="M12.4893 18.0544C12.4893 15.0169 14.9517 12.5544 17.9893 12.5544C21.0268 12.5544 23.4893 15.0169 23.4893 18.0544C23.4893 21.092 21.0268 23.5544 17.9893 23.5544C14.9517 23.5544 12.4893 21.092 12.4893 18.0544ZM17.9893 14.0544C15.7801 14.0544 13.9893 15.8453 13.9893 18.0544C13.9893 20.2636 15.7801 22.0544 17.9893 22.0544C20.1984 22.0544 21.9893 20.2636 21.9893 18.0544C21.9893 15.8453 20.1984 14.0544 17.9893 14.0544Z" fill="black"/>
</svg>
