<svg width="24" height="24" viewBox="0 0 24 24" fill="none" xmlns="http://www.w3.org/2000/svg">
<path d="M10.1104 11.3962H7.93359V18.669H9.64524V14.1768H9.70561L11.4528 18.6228H12.5465L14.2937 14.2016H14.354V18.669H16.0657V11.3962H13.8888L12.0423 15.8991H11.957L10.1104 11.3962Z" fill="black"/>
<path d="M7.58105 3.98901H16.4189V2.01074H17.9189V3.98901H18.75C19.9926 3.98901 21 4.99637 21 6.23901V19.739C21 20.9817 19.9926 21.989 18.75 21.989H5.25C4.00736 21.989 3 20.9817 3 19.739V6.23901C3 4.99637 4.00736 3.98901 5.25 3.98901H6.08105V2.01074H7.58105V3.98901ZM5.25 5.48901C4.83579 5.48901 4.5 5.8248 4.5 6.23901V8.06274H19.5V6.23901C19.5 5.8248 19.1642 5.48901 18.75 5.48901H5.25ZM4.5 19.739C4.5 20.1532 4.83579 20.489 5.25 20.489H18.75C19.1642 20.489 19.5 20.1532 19.5 19.739V9.56274H4.5V19.739Z" fill="black"/>
</svg>
