<svg width="24" height="24" viewBox="0 0 24 24" fill="none" xmlns="http://www.w3.org/2000/svg">
<path d="M13.0606 15.0446L15.4701 12.6349L14.4094 11.5743L11.9999 13.9839L9.59031 11.5745L8.52967 12.6352L10.9392 15.0446L8.52989 17.4541L9.59057 18.5147L11.9999 16.1053L14.4095 18.5147L15.4701 17.454L13.0606 15.0446Z" fill="black"/>
<path d="M7.58105 3.98828H16.4189V2.01001H17.9189V3.98828H18.75C19.9926 3.98828 21 4.99564 21 6.23828V19.7383C21 20.9809 19.9926 21.9883 18.75 21.9883H5.25C4.00736 21.9883 3 20.9809 3 19.7383V6.23828C3 4.99564 4.00736 3.98828 5.25 3.98828H6.08105V2.01001H7.58105V3.98828ZM5.25 5.48828C4.83579 5.48828 4.5 5.82407 4.5 6.23828V8.06201H19.5V6.23828C19.5 5.82407 19.1642 5.48828 18.75 5.48828H5.25ZM4.5 19.7383C4.5 20.1525 4.83579 20.4883 5.25 20.4883H18.75C19.1642 20.4883 19.5 20.1525 19.5 19.7383V9.56201H4.5V19.7383Z" fill="black"/>
</svg>
