<svg width="24" height="24" viewBox="0 0 24 24" fill="none" xmlns="http://www.w3.org/2000/svg">
<path d="M14.4482 18.0215C15.8594 18.0215 17.0039 16.8772 17.0039 15.4658C17.0039 14.0544 15.8594 12.9102 14.4482 12.9102C13.0371 12.9102 11.8926 14.0544 11.8926 15.4658C11.8926 16.8772 13.0371 18.0215 14.4482 18.0215Z" fill="black"/>
<path d="M7.58105 3.98926H16.4189V2.01074H17.9189V3.98926H18.75C19.9922 3.98926 21 4.99658 21 6.23926V19.7393C21 20.9819 19.9922 21.9893 18.75 21.9893H5.25C4.00781 21.9893 3 20.9819 3 19.7393V6.23926C3 4.99658 4.00781 3.98926 5.25 3.98926H6.08105V2.01074H7.58105V3.98926ZM5.25 5.48926C4.83594 5.48926 4.5 5.82495 4.5 6.23926V8.06299H19.5V6.23926C19.5 5.82495 19.1641 5.48926 18.75 5.48926H5.25ZM4.5 19.7393C4.5 20.1536 4.83594 20.4893 5.25 20.4893H18.75C19.1641 20.4893 19.5 20.1536 19.5 19.7393V9.56299H4.5V19.7393Z" fill="black"/>
</svg>
