<svg width="24" height="24" viewBox="0 0 24 24" fill="none" xmlns="http://www.w3.org/2000/svg">
<path d="M9.29871 2.96802H14.7013L16.7385 5.21281H19.7295C20.9721 5.21281 21.9795 6.22017 21.9795 7.46281V18.7819C21.9795 20.0245 20.9721 21.0319 19.7295 21.0319H4.27051C3.02787 21.0319 2.02051 20.0245 2.02051 18.7819V7.46281C2.02051 6.22017 3.02787 5.21281 4.27051 5.21281H7.26154L9.29871 2.96802ZM9.96304 4.46802L7.92588 6.71281H4.27051C3.85629 6.71281 3.52051 7.0486 3.52051 7.46281V18.7819C3.52051 19.1961 3.85629 19.5319 4.27051 19.5319H19.7295C20.1437 19.5319 20.4795 19.1961 20.4795 18.7819V7.46281C20.4795 7.0486 20.1437 6.71281 19.7295 6.71281H16.0741L14.037 4.46802H9.96304Z" fill="black"/>
<path d="M12.0039 10.4502C10.5542 10.4502 9.37891 11.6254 9.37891 13.0752C9.37891 14.5249 10.5542 15.7002 12.0039 15.7002C13.4537 15.7002 14.6289 14.5249 14.6289 13.0752C14.6289 11.6254 13.4537 10.4502 12.0039 10.4502ZM7.87891 13.0752C7.87891 10.797 9.72573 8.9502 12.0039 8.9502C14.2821 8.9502 16.1289 10.797 16.1289 13.0752C16.1289 15.3534 14.2821 17.2002 12.0039 17.2002C9.72573 17.2002 7.87891 15.3534 7.87891 13.0752Z" fill="black"/>
</svg>
