<svg width="24" height="24" viewBox="0 0 24 24" fill="none" xmlns="http://www.w3.org/2000/svg">
<path d="M14.7003 1.94653H9.29773L7.26057 4.19133H4.26953C3.02689 4.19133 2.01953 5.19869 2.01953 6.44133V17.7604C2.01953 19.003 3.02689 20.0104 4.26953 20.0104H11.2073C11.0533 19.5298 10.9468 19.028 10.8933 18.5104H4.26953C3.85532 18.5104 3.51953 18.1746 3.51953 17.7604V6.44133C3.51953 6.02711 3.85532 5.69133 4.26953 5.69133H7.9249L9.96207 3.44653H14.036L16.0731 5.69133H19.7285C20.1427 5.69133 20.4785 6.02711 20.4785 6.44133V10.6162C21.0058 10.7775 21.5082 10.9958 21.9785 11.2638V6.44133C21.9785 5.19869 20.9712 4.19133 19.7285 4.19133H16.7375L14.7003 1.94653Z" fill="black"/>
<path d="M12.0029 8.08643C13.7497 8.08643 15.2428 9.17212 15.8444 10.7055C15.3658 10.8725 14.9094 11.087 14.481 11.3434C14.1226 10.3202 13.1485 9.58643 12.0029 9.58643C10.5532 9.58643 9.37793 10.7617 9.37793 12.2114C9.37793 13.4762 10.2723 14.532 11.4632 14.7809C11.2655 15.2373 11.1123 15.7175 11.0089 16.2159C9.21089 15.771 7.87793 14.1469 7.87793 12.2114C7.87793 9.93325 9.72476 8.08643 12.0029 8.08643Z" fill="black"/>
<path d="M19.2269 12.4758H17.4063L17.1709 13.8979C16.5952 14.0707 16.0745 14.3704 15.641 14.7645L14.213 14.2753L13.3094 15.7864L14.4511 16.7636C14.3772 17.0666 14.3381 17.3832 14.3381 17.7089C14.3381 18.0376 14.378 18.357 14.4531 18.6626L13.3008 19.6452L14.2447 21.1676L15.6544 20.6653C16.092 21.0596 16.6176 21.358 17.1982 21.5277L17.4082 22.9592H19.2251L19.4351 21.5275C20.0162 21.3577 20.5417 21.059 20.9788 20.6653L22.3886 21.1676L23.3325 19.6452L22.18 18.6625C22.2553 18.3565 22.2952 18.037 22.2952 17.7089C22.2952 17.3833 22.256 17.0668 22.1821 16.7637L23.3238 15.7864L22.4203 14.2753L20.9922 14.7645C20.5593 14.371 20.0386 14.0711 19.4624 13.8981L19.2269 12.4758ZM17.9518 15.2572C18.0708 15.2396 18.1925 15.2306 18.3163 15.2306C18.4445 15.2306 18.5705 15.2402 18.6923 15.2587C19.2975 15.3504 19.8324 15.6619 20.212 16.1118C20.3795 16.3103 20.5162 16.535 20.6151 16.7792C20.6167 16.7835 20.6184 16.7878 20.6201 16.7921C20.6221 16.7973 20.6243 16.8025 20.6265 16.8077C20.7354 17.0868 20.7952 17.3906 20.7952 17.7089C20.7952 18.0361 20.7321 18.3468 20.6182 18.6308C20.5182 18.8801 20.3786 19.1099 20.2068 19.3121C19.8216 19.7655 19.2783 20.0771 18.6644 20.1629C18.5515 20.1787 18.4347 20.187 18.3162 20.187C18.2022 20.187 18.0899 20.1793 17.98 20.1644C17.9729 20.1633 17.9658 20.1623 17.9587 20.1614C17.3525 20.0738 16.8172 19.7667 16.4362 19.3234C16.43 19.3158 16.4236 19.3084 16.4172 19.3011C16.2496 19.1014 16.1129 18.8749 16.0145 18.6289C15.9007 18.3444 15.8381 18.034 15.8381 17.7089C15.8381 17.3851 15.9002 17.0758 16.0131 16.7922C16.1105 16.5477 16.2457 16.3224 16.4115 16.1235C16.4183 16.1158 16.4249 16.1079 16.4314 16.0999C16.8069 15.6603 17.3335 15.3537 17.9308 15.2604C17.9378 15.2594 17.9449 15.2583 17.9518 15.2572Z" fill="black"/>
</svg>
