<svg width="24" height="24" viewBox="0 0 24 24" fill="none" xmlns="http://www.w3.org/2000/svg">
<path d="M6.30078 17.1492H17.7776L14.0892 12.2146L11.2315 15.9684L9.18151 13.3608L6.30078 17.1492Z" fill="black"/>
<path d="M14.7013 2.96802H9.29871L7.26154 5.21281H4.27051C3.02787 5.21281 2.02051 6.22017 2.02051 7.46281V18.7819C2.02051 20.0245 3.02787 21.0319 4.27051 21.0319H19.7295C20.9721 21.0319 21.9795 20.0245 21.9795 18.7819V7.46281C21.9795 6.22017 20.9721 5.21281 19.7295 5.21281H16.7385L14.7013 2.96802ZM7.92588 6.71281L9.96304 4.46802H14.037L16.0741 6.71281H19.7295C20.1437 6.71281 20.4795 7.0486 20.4795 7.46281V18.7819C20.4795 19.1961 20.1437 19.5319 19.7295 19.5319H4.27051C3.85629 19.5319 3.52051 19.1961 3.52051 18.7819V7.46281C3.52051 7.0486 3.85629 6.71281 4.27051 6.71281H7.92588Z" fill="black"/>
</svg>
