<svg width="24" height="24" viewBox="0 0 24 24" fill="none" xmlns="http://www.w3.org/2000/svg">
<path d="M9.29871 2.96802H14.7013L16.7385 5.21281H19.7295C20.9721 5.21281 21.9795 6.22017 21.9795 7.46281V18.7819C21.9795 20.0245 20.9721 21.0319 19.7295 21.0319H4.27051C3.02787 21.0319 2.02051 20.0245 2.02051 18.7819V7.46281C2.02051 6.22017 3.02787 5.21281 4.27051 5.21281H7.26154L9.29871 2.96802ZM9.96304 4.46802L7.92588 6.71281H4.27051C3.85629 6.71281 3.52051 7.0486 3.52051 7.46281V18.7819C3.52051 19.1961 3.85629 19.5319 4.27051 19.5319H19.7295C20.1437 19.5319 20.4795 19.1961 20.4795 18.7819V7.46281C20.4795 7.0486 20.1437 6.71281 19.7295 6.71281H16.0741L14.037 4.46802H9.96304Z" fill="black"/>
<path d="M15.8541 16.951H8.14648V16.4934C8.14648 15.7934 8.49713 15.2363 9.19841 14.8222C9.89968 14.4081 10.8336 14.2011 12.0003 14.2011C13.167 14.2011 14.1009 14.4081 14.8022 14.8222C15.5035 15.2363 15.8541 15.7934 15.8541 16.4934V16.951Z" fill="black"/>
<path d="M13.3457 12.4887C12.9759 12.8585 12.5275 13.0434 12.0003 13.0434C11.4732 13.0434 11.0247 12.8585 10.655 12.4887C10.2852 12.119 10.1003 11.6705 10.1003 11.1434C10.1003 10.6162 10.2852 10.1678 10.655 9.79803C11.0247 9.42828 11.4732 9.24341 12.0003 9.24341C12.5275 9.24341 12.9759 9.42828 13.3457 9.79803C13.7154 10.1678 13.9003 10.6162 13.9003 11.1434C13.9003 11.6705 13.7154 12.119 13.3457 12.4887Z" fill="black"/>
</svg>
