<svg width="24" height="24" viewBox="0 0 24 24" fill="none" xmlns="http://www.w3.org/2000/svg">
<path d="M5.96875 8.35524C5.96875 7.81306 6.40828 7.37354 6.95046 7.37354C7.49264 7.37354 7.93216 7.81306 7.93216 8.35524C7.93216 8.89742 7.49264 9.33695 6.95046 9.33695C6.40828 9.33695 5.96875 8.89742 5.96875 8.35524Z" fill="black"/>
<path d="M17.0481 7.37354C16.5059 7.37354 16.0664 7.81306 16.0664 8.35524C16.0664 8.89742 16.5059 9.33695 17.0481 9.33695C17.5903 9.33695 18.0298 8.89742 18.0298 8.35524C18.0298 7.81306 17.5903 7.37354 17.0481 7.37354Z" fill="black"/>
<path d="M10.152 11.9302H8.01953V10.6802H11.402V14.1027H9.32199V15.0253H11.4443V16.2753H8.07199V12.8527H10.152V11.9302Z" fill="black"/>
<path d="M12.3418 11.9302H14.4325V12.8527H12.3418V14.1027H14.4325V15.0253H12.3418V16.2753H15.6825V10.6802H12.3418V11.9302Z" fill="black"/>
<path d="M17.7676 12.8602V10.7056H16.5176V14.1102H18.9182V16.2484H20.1682V10.7056H18.9182V12.8602H17.7676Z" fill="black"/>
<path d="M3.86523 11.9302H4.86965V15.0253H3.86523V16.2753H7.12406V15.0253H6.11965V10.6802H3.86523V11.9302Z" fill="black"/>
<path d="M1.5 6.8169C1.5 5.8504 2.2835 5.06689 3.25 5.06689H20.75C21.7165 5.06689 22.5 5.8504 22.5 6.81689V17.1827C22.5 18.1492 21.7165 18.9327 20.75 18.9327H3.25C2.2835 18.9327 1.5 18.1492 1.5 17.1827V6.8169ZM3.25 6.56689C3.11193 6.56689 3 6.67882 3 6.8169V17.1827C3 17.3208 3.11193 17.4327 3.25 17.4327H20.75C20.8881 17.4327 21 17.3208 21 17.1827V6.81689C21 6.67882 20.8881 6.56689 20.75 6.56689H3.25Z" fill="black"/>
</svg>
