<svg width="24" height="24" viewBox="0 0 24 24" fill="none" xmlns="http://www.w3.org/2000/svg">
<path d="M14.0606 10.4176C14.4278 10.4176 14.7255 10.1199 14.7255 9.75271C14.7255 9.38551 14.4278 9.08783 14.0606 9.08783C13.6934 9.08783 13.3957 9.38551 13.3957 9.75271C13.3957 10.1199 13.6934 10.4176 14.0606 10.4176Z" fill="black"/>
<path d="M10.6052 9.75278C10.6052 10.12 10.3075 10.4177 9.94028 10.4177C9.57307 10.4177 9.27539 10.12 9.27539 9.75278C9.27539 9.38557 9.57307 9.08789 9.94028 9.08789C10.3075 9.08789 10.6052 9.38557 10.6052 9.75278Z" fill="black"/>
<path d="M14.9803 12.0874V12.369C14.9803 12.7694 15.3049 13.094 15.7053 13.094H15.9C16.3004 13.094 16.625 12.7693 16.625 12.3688L16.624 8.38498L15.625 5.62753C15.4636 5.18229 15.0408 4.88574 14.5672 4.88574H9.43272C8.95916 4.88574 8.5363 5.18229 8.37499 5.62753L7.37597 8.38498L7.375 12.3688C7.3749 12.7693 7.69952 13.094 8.1 13.094H8.29468C8.69508 13.094 9.01968 12.7694 9.01968 12.369V12.0874H14.9803ZM14.9532 7.44309H9.04673L9.52038 6.13574H14.4796L14.9532 7.44309ZM8.62537 10.8374L8.6259 8.69309H15.3741L15.3746 10.8374H8.62537Z" fill="black"/>
<path d="M16.75 16.2998H7.25V14.7998H16.75V16.2998Z" fill="black"/>
<path d="M7.25 19.2959H16.75V17.7959H7.25V19.2959Z" fill="black"/>
<path d="M6.25 2C5.00736 2 4 3.00736 4 4.25V19.75C4 20.9926 5.00736 22 6.25 22H17.75C18.9926 22 20 20.9926 20 19.75V4.25C20 3.00736 18.9926 2 17.75 2H6.25ZM5.5 4.25C5.5 3.83579 5.83579 3.5 6.25 3.5H17.75C18.1642 3.5 18.5 3.83579 18.5 4.25V19.75C18.5 20.1642 18.1642 20.5 17.75 20.5H6.25C5.83579 20.5 5.5 20.1642 5.5 19.75V4.25Z" fill="black"/>
</svg>
