<svg width="24" height="24" viewBox="0 0 24 24" fill="none" xmlns="http://www.w3.org/2000/svg">
<path d="M9.93945 10.4175C10.3066 10.4175 10.6055 10.1201 10.6055 9.75293C10.6055 9.38574 10.3066 9.08789 9.93945 9.08789C9.57227 9.08789 9.27539 9.38574 9.27539 9.75293C9.27539 10.1201 9.57227 10.4175 9.93945 10.4175Z" fill="black"/>
<path d="M14.7246 9.75293C14.7246 10.1201 14.4277 10.4175 14.0605 10.4175C13.6934 10.4175 13.3965 10.1201 13.3965 9.75293C13.3965 9.38574 13.6934 9.08789 14.0605 9.08789C14.3398 9.08789 14.5781 9.26025 14.6758 9.50391C14.707 9.58105 14.7246 9.66504 14.7246 9.75293Z" fill="black"/>
<path d="M14.9805 12.3691V12.0874H9.01953V12.3691C9.01953 12.7695 8.69531 13.0938 8.29492 13.0938H8.09961C7.69922 13.0938 7.375 12.7695 7.375 12.3687V8.38477L8.375 5.62744C8.53711 5.18213 8.95898 4.88574 9.43359 4.88574H14.5664C15.041 4.88574 15.4629 5.18213 15.625 5.62744L16.623 8.38477L16.625 12.3687C16.625 12.7695 16.3008 13.0938 15.9004 13.0938H15.7051C15.6133 13.0938 15.5254 13.0767 15.4434 13.0454C15.3887 13.0239 15.3379 12.9966 15.291 12.9639C15.2402 12.9277 15.1934 12.8853 15.1523 12.8374L15.1133 12.7876C15.084 12.7461 15.0586 12.7017 15.0391 12.6538C15.0137 12.5952 14.9961 12.5327 14.9863 12.4678L14.9805 12.3691ZM9.04688 7.44287H14.9531L14.4805 6.13574H9.51953L9.04688 7.44287ZM8.625 8.69287V10.8374H15.375V8.69287H8.625Z" fill="black"/>
<path d="M7.375 14.2397V19.1157H8.61133V14.2397H7.375Z" fill="black"/>
<path d="M9.22852 14.2397V19.1157H10.4473V14.2397H9.22852Z" fill="black"/>
<path d="M11.0645 14.2397V19.1157H11.6836V14.2397H11.0645Z" fill="black"/>
<path d="M12.918 14.2397V19.1157H14.1543V14.2397H12.918Z" fill="black"/>
<path d="M14.7715 14.2397V19.1157H16.625V14.2397H14.7715Z" fill="black"/>
<path d="M4 4.25C4 3.00732 5.00781 2 6.25 2H17.75C18.9922 2 20 3.00732 20 4.25V19.75C20 20.9927 18.9922 22 17.75 22H6.25C5.54688 22 4.91992 21.6777 4.50586 21.1729C4.18945 20.7852 4 20.2896 4 19.75V4.25ZM5.98828 3.54688L5.88672 3.59424C5.65625 3.72217 5.5 3.96777 5.5 4.25V19.75C5.5 19.8789 5.53125 20 5.58984 20.106C5.62695 20.1733 5.67383 20.2344 5.72852 20.2876C5.79688 20.3535 5.87695 20.4067 5.96484 20.4434C6.05273 20.48 6.14844 20.5 6.25 20.5H17.75C18.1641 20.5 18.5 20.1641 18.5 19.75V4.25C18.5 3.83594 18.1641 3.5 17.75 3.5H6.25C6.1582 3.5 6.07031 3.5166 5.98828 3.54688Z" fill="black"/>
</svg>
