<svg width="24" height="24" viewBox="0 0 24 24" fill="none" xmlns="http://www.w3.org/2000/svg">
<path d="M4.76758 14.2954H6.40021L7.78516 17.6725H7.84908L9.23402 14.2954H10.8667V19.75H9.58292V16.3995H9.53764L8.22727 19.7153H7.40696L6.09659 16.3808H6.05131V19.75H4.76758V14.2954Z" fill="black"/>
<path d="M13.3823 14.2954V19.75H12.064V14.2954H13.3823Z" fill="black"/>
<path d="M19.2272 19.75V14.2954H17.9115V17.4382H17.8662L15.7195 14.2954H14.585V19.75H15.9033V16.6019H15.9379L18.1086 19.75H19.2272Z" fill="black"/>
<path d="M15.2374 11.5874H17.6201V11.869C17.6201 12.2694 17.9447 12.594 18.3451 12.594H18.5398C18.9403 12.594 19.2649 12.2693 19.2648 11.8688L19.2638 7.88498L18.2648 5.12753C18.1035 4.68229 17.6806 4.38574 17.2071 4.38574H14.0215C14.0756 4.48646 14.1229 4.59196 14.1627 4.70174L14.5011 5.63574H17.1194L17.5931 6.94309H14.9747L15.2364 7.66537L15.2365 8.19309H18.0139L18.0144 10.3374H15.2371L15.2374 11.5874Z" fill="black"/>
<path d="M16.7004 9.9176C17.0676 9.9176 17.3653 9.61992 17.3653 9.25271C17.3653 8.88551 17.0676 8.58783 16.7004 8.58783C16.3332 8.58783 16.0355 8.88551 16.0355 9.25271C16.0355 9.61992 16.3332 9.9176 16.7004 9.9176Z" fill="black"/>
<path d="M11.4219 9.9176C11.7891 9.9176 12.0868 9.61992 12.0868 9.25271C12.0868 8.88551 11.7891 8.58783 11.4219 8.58783C11.0547 8.58783 10.757 8.88551 10.757 9.25271C10.757 9.61992 11.0547 9.9176 11.4219 9.9176Z" fill="black"/>
<path d="M7.96649 9.25278C7.96649 9.61998 7.66881 9.91766 7.3016 9.91766C6.9344 9.91766 6.63672 9.61998 6.63672 9.25278C6.63672 8.88557 6.9344 8.58789 7.3016 8.58789C7.66881 8.58789 7.96649 8.88557 7.96649 9.25278Z" fill="black"/>
<path d="M12.3416 11.5874V11.869C12.3416 12.2694 12.6662 12.594 13.0666 12.594H13.2613C13.6618 12.594 13.9864 12.2693 13.9863 11.8688L13.9853 7.88498L12.9863 5.12753C12.825 4.68229 12.4021 4.38574 11.9286 4.38574H6.79404C6.32049 4.38574 5.89763 4.68229 5.73632 5.12753L4.7373 7.88498L4.73633 11.8688C4.73623 12.2693 5.06085 12.594 5.46133 12.594H5.65601C6.05641 12.594 6.38101 12.2694 6.38101 11.869V11.5874H12.3416ZM12.3146 6.94309H6.40806L6.88171 5.63574H11.8409L12.3146 6.94309ZM5.9867 10.3374L5.98723 8.19309H12.7354L12.7359 10.3374H5.9867Z" fill="black"/>
<path d="M3.75 1.5C2.50736 1.5 1.5 2.50736 1.5 3.75V20.25C1.5 21.4926 2.50736 22.5 3.75 22.5H20.25C21.4926 22.5 22.5 21.4926 22.5 20.25V3.75C22.5 2.50736 21.4926 1.5 20.25 1.5H3.75ZM3 3.75C3 3.33579 3.33579 3 3.75 3H20.25C20.6642 3 21 3.33579 21 3.75V20.25C21 20.6642 20.6642 21 20.25 21H3.75C3.33579 21 3 20.6642 3 20.25V3.75Z" fill="black"/>
</svg>
