<svg width="24" height="24" viewBox="0 0 24 24" fill="none" xmlns="http://www.w3.org/2000/svg">
<path d="M14.0801 14.4165H19.0801V12.9165H14.0801V14.4165Z" fill="black"/>
<path d="M7.46735 5.55715C8.5575 4.35121 10.1072 3.66309 11.7328 3.66309H22.0636L22.0635 18.0875C22.0635 19.3301 21.0561 20.3374 19.8135 20.3374H5.86296C4.8709 20.3374 3.99591 19.6877 3.70906 18.738L2.03365 13.1911C1.8056 12.4361 1.98953 11.6168 2.51844 11.0317L7.46735 5.55715ZM11.7328 5.16309C10.5313 5.16309 9.38584 5.6717 8.58008 6.56305L5.11337 10.3979H20.5636L20.5636 5.16309H11.7328ZM3.63117 12.0376C3.45487 12.2326 3.39356 12.5057 3.46958 12.7574L5.14499 18.3043C5.24061 18.6208 5.53227 18.8374 5.86296 18.8374H19.8135C20.2277 18.8374 20.5635 18.5016 20.5635 18.0874L20.5636 11.8979H3.75739L3.63117 12.0376Z" fill="black"/>
</svg>
