<svg width="24" height="24" viewBox="0 0 24 24" fill="none" xmlns="http://www.w3.org/2000/svg">
<path d="M5.39966 10.8197C4.86285 10.6037 4.34607 11.1702 4.61038 11.685L5.14386 12.7239C5.25089 12.9324 5.46553 13.0634 5.69985 13.0634H9.03958C9.21919 13.0634 9.37359 12.9361 9.40774 12.7597C9.44188 12.5834 9.34619 12.4076 9.17955 12.3405L5.39966 10.8197ZM5.77618 12.3134L5.43067 11.6406L7.10297 12.3134H5.77618Z" fill="black"/>
<path d="M19.3896 11.685C19.6539 11.1702 19.1371 10.6037 18.6003 10.8197L14.8204 12.3405C14.6538 12.4076 14.5581 12.5834 14.5923 12.7597C14.6264 12.9361 14.7808 13.0634 14.9604 13.0634H18.3002C18.5345 13.0634 18.7491 12.9324 18.8561 12.7239L19.3896 11.685ZM18.5693 11.6406L18.2238 12.3134H16.897L18.5693 11.6406Z" fill="black"/>
<path d="M15.6484 6.3877C15.6484 7.07805 15.0888 7.6377 14.3984 7.6377C13.7081 7.6377 13.1484 7.07805 13.1484 6.3877C13.1484 5.69734 13.7081 5.1377 14.3984 5.1377C15.0888 5.1377 15.6484 5.69734 15.6484 6.3877Z" fill="black"/>
<path d="M9.60156 7.6377C10.2919 7.6377 10.8516 7.07805 10.8516 6.3877C10.8516 5.69734 10.2919 5.1377 9.60156 5.1377C8.91121 5.1377 8.35156 5.69734 8.35156 6.3877C8.35156 7.07805 8.91121 7.6377 9.60156 7.6377Z" fill="black"/>
<path d="M11.6504 3.28467C11.7696 3.28467 11.8861 3.28488 12 3.28529C12.1139 3.28488 12.2304 3.28467 12.3496 3.28467V3.28723C14.0345 3.2999 15.1114 3.35768 15.7868 3.41715C16.1695 3.45084 16.4272 3.4854 16.5962 3.51351C16.6809 3.5276 16.7444 3.54026 16.7912 3.55069C16.8146 3.55592 16.834 3.56064 16.85 3.56476L16.8715 3.57052L16.8805 3.57307L16.8846 3.57427L16.8866 3.57485L16.9876 3.60504L17.0754 3.66083L17.0771 3.6619L17.0797 3.66355L17.0859 3.66761L17.1029 3.67882C17.116 3.68767 17.133 3.6993 17.1533 3.71376C17.1938 3.74266 17.248 3.78297 17.3125 3.83514C17.4414 3.93935 17.613 4.09177 17.8013 4.29609C18.1779 4.70481 18.625 5.32528 18.927 6.18388C18.9875 6.35595 19.0425 6.51733 19.0925 6.66834C19.2919 6.53369 19.5323 6.45508 19.791 6.45508H20.7637C21.454 6.45508 22.0137 7.01472 22.0137 7.70508C22.0137 8.34891 21.5269 8.87905 20.9013 8.94758C21.2808 9.2676 21.6538 9.66097 21.9168 10.1213L22.0156 10.2942V18.9658C22.0156 19.9323 21.2321 20.7158 20.2656 20.7158H18.9043C17.9378 20.7158 17.1543 19.9323 17.1543 18.9658V17.6157H6.8457V18.9658C6.8457 19.9323 6.0622 20.7158 5.0957 20.7158H3.73438C2.76788 20.7158 1.98438 19.9323 1.98438 18.9658V10.2942L2.08319 10.1213C2.34618 9.66106 2.71901 9.26776 3.09845 8.94777C2.47203 8.88003 1.98438 8.3495 1.98438 7.70508C1.98438 7.01472 2.54402 6.45508 3.23438 6.45508H4.20703C4.46646 6.45508 4.70744 6.53411 4.90719 6.66942C4.95724 6.5181 5.01235 6.35635 5.07301 6.18388C5.37496 5.32528 5.82209 4.70481 6.19872 4.29609C6.387 4.09177 6.55856 3.93935 6.68748 3.83514C6.75203 3.78297 6.80617 3.74266 6.84674 3.71376C6.86703 3.6993 6.88397 3.68767 6.89715 3.67882L6.91407 3.66761L6.92034 3.66355L6.92291 3.6619L6.92459 3.66083L7.01244 3.60504L7.11341 3.57485L7.11536 3.57427L7.11946 3.57307L7.12847 3.57052L7.14999 3.56476C7.16595 3.56064 7.18539 3.55592 7.20882 3.55069C7.25557 3.54026 7.31912 3.5276 7.40383 3.51351C7.57282 3.4854 7.83046 3.45084 8.21315 3.41715C8.8886 3.35768 9.96547 3.2999 11.6504 3.28723V3.28467ZM5.3457 17.6157H3.48438V18.9658C3.48438 19.1039 3.5963 19.2158 3.73438 19.2158H5.0957C5.23377 19.2158 5.3457 19.1039 5.3457 18.9658V17.6157ZM3.48438 16.1157H5.32031V16.0657C5.32031 15.2495 5.66071 14.6565 6.12778 14.2798C6.56429 13.9278 7.07431 13.7918 7.43558 13.7708L7.45734 13.7695H16.5427L16.5644 13.7708C16.9257 13.7918 17.4357 13.9278 17.8722 14.2798C18.3393 14.6565 18.6797 15.2495 18.6797 16.0657V16.1157H20.5156V10.7102C20.3038 10.4079 19.9874 10.1153 19.6306 9.85771C19.2883 9.61046 18.9469 9.42257 18.7081 9.31048H5.29185C5.0531 9.42257 4.71171 9.61046 4.36937 9.85771C4.01264 10.1153 3.69616 10.4079 3.48438 10.7102V16.1157ZM20.5156 17.6157H18.6543V18.9658C18.6543 19.1039 18.7662 19.2158 18.9043 19.2158H20.2656C20.4037 19.2158 20.5156 19.1039 20.5156 18.9658V17.6157ZM8.3447 4.91137C7.99146 4.94247 7.77306 4.9727 7.65 4.99317L7.63866 4.99508L7.63041 5.00172C7.5513 5.06566 7.43456 5.16849 7.30179 5.31257C7.03631 5.60067 6.71028 6.04963 6.48805 6.68153C6.32592 7.14253 6.20774 7.51652 6.12219 7.81048H17.8778C17.7923 7.51652 17.6741 7.14253 17.512 6.68153C17.2897 6.04963 16.9637 5.60067 16.6982 5.31257C16.5654 5.16849 16.4487 5.06566 16.3696 5.00172L16.3613 4.99508L16.35 4.99317C16.2269 4.9727 16.0085 4.94247 15.6553 4.91137C14.9889 4.8527 13.8562 4.79212 12 4.7853C10.1438 4.79212 9.01111 4.8527 8.3447 4.91137ZM3.23438 7.45508C3.0963 7.45508 2.98438 7.56701 2.98438 7.70508C2.98438 7.84315 3.0963 7.95508 3.23438 7.95508H4.20703C4.3451 7.95508 4.45703 7.84315 4.45703 7.70508C4.45703 7.56701 4.3451 7.45508 4.20703 7.45508H3.23438ZM19.791 7.45508C19.6529 7.45508 19.541 7.56701 19.541 7.70508C19.541 7.84315 19.6529 7.95508 19.791 7.95508H20.7637C20.9017 7.95508 21.0137 7.84315 21.0137 7.70508C21.0137 7.56701 20.9017 7.45508 20.7637 7.45508H19.791ZM17.1797 16.1157V16.0657C17.1797 15.7106 17.0505 15.5441 16.9305 15.4474C16.7875 15.332 16.6047 15.2798 16.494 15.2695H7.50603C7.39527 15.2798 7.21253 15.332 7.06946 15.4474C6.94952 15.5441 6.82031 15.7106 6.82031 16.0657V16.1157H17.1797Z" fill="black"/>
</svg>
