<svg width="24" height="24" viewBox="0 0 24 24" fill="none" xmlns="http://www.w3.org/2000/svg">
<path d="M6.33101 21.356C5.13684 21.356 4.12837 20.5611 3.8055 19.4718H1V17.9718H3.80606C4.12903 16.8826 5.13742 16.0879 6.33148 16.0879C7.52548 16.0879 8.53391 16.8824 8.8569 17.9716L10.1243 17.9717V14.6332C10.1243 14.45 10.0566 14.2724 9.93511 14.1353H1V12.6353H2.08008V10.8179H1V9.31787H6.65931C7.3034 9.31787 7.9166 9.5939 8.34365 10.0761L11.0586 13.1414C11.423 13.5529 11.6243 14.0835 11.6243 14.6332V18.7218C11.6243 18.9207 11.5452 19.1115 11.4046 19.2521C11.2639 19.3928 11.0731 19.4718 10.8742 19.4718L8.85658 19.4717C8.53377 20.5612 7.52521 21.356 6.33101 21.356ZM7.46522 18.7222C7.46522 18.0961 6.95762 17.5879 6.33148 17.5879C5.7054 17.5879 5.19773 18.0955 5.19773 18.7218V18.755C5.21515 19.366 5.71593 19.856 6.33101 19.856C6.95716 19.856 7.46522 19.3484 7.46522 18.7222ZM3.58008 10.8179V12.6353H8.60656L7.22076 11.0706C7.07841 10.9099 6.87401 10.8179 6.65931 10.8179H3.58008Z" fill="black"/>
<path d="M23 19.4718H19.753C19.4302 20.5612 18.4217 21.356 17.2275 21.356C16.0333 21.356 15.0248 20.5612 14.7019 19.4718H13.125C12.7108 19.4718 12.375 19.136 12.375 18.7218V15.772C12.375 15.2069 12.5704 14.6358 12.8887 14.1778C13.2063 13.7208 13.6942 13.3115 14.324 13.1855L14.3374 13.1829L17.309 12.6449L21.387 9.73611C21.7684 9.46408 22.2251 9.31787 22.6936 9.31787H23V10.8179H22.6936C22.5374 10.8179 22.3852 10.8666 22.2581 10.9573L19.9056 12.6353H23V14.1355L17.5088 14.1353V14.1331L14.613 14.6575C14.4611 14.6896 14.2783 14.8066 14.1204 15.0339C13.9613 15.2628 13.875 15.5389 13.875 15.772V17.9718H14.7028C15.0257 16.8826 16.0342 16.088 17.2282 16.088C18.4222 16.088 19.4306 16.8826 19.7536 17.9718H23V19.4718ZM17.2275 19.856C17.8536 19.856 18.3619 19.3484 18.3619 18.7222C18.3619 18.0961 17.8543 17.588 17.2282 17.588C16.602 17.588 16.0944 18.0956 16.0944 18.7218V18.7623C16.1155 19.3699 16.6148 19.856 17.2275 19.856Z" fill="black"/>
<path d="M14.3236 8.74603L15.3896 2.91426L13.9141 2.64453L12.848 8.47629L14.3236 8.74603Z" fill="black"/>
<path d="M20.8194 7.78244L16.6188 10.6846L15.7662 9.45055L19.9668 6.54834L20.8194 7.78244Z" fill="black"/>
<path d="M7.11551 5.27745L10.0177 9.47805L11.2518 8.62541L8.34961 4.4248L7.11551 5.27745Z" fill="black"/>
</svg>
