<svg width="24" height="24" viewBox="0 0 24 24" fill="none" xmlns="http://www.w3.org/2000/svg">
<path d="M9.53561 13.6846H3.56283V14.0531C3.56283 14.5771 3.13798 15.002 2.6139 15.002H2.35909C1.83492 15.002 1.41003 14.577 1.41016 14.0528L1.41143 8.83868L2.71902 5.22966C2.93016 4.64692 3.48362 4.25879 4.10345 4.25879H10.8239C11.4437 4.25879 11.9972 4.64692 12.2083 5.22966L13.0844 7.64779C12.3653 8.06655 11.7261 8.60741 11.1951 9.24195H3.04743L3.04674 12.0485H9.7556C9.62173 12.573 9.54598 13.1208 9.53561 13.6846ZM10.6838 9.93328C10.3746 10.4088 10.1204 10.9235 9.93046 11.4682C9.56158 11.3673 9.29048 11.0297 9.29048 10.6288C9.29048 10.1482 9.68011 9.7586 10.1607 9.7586C10.3571 9.7586 10.5382 9.82361 10.6838 9.93328ZM11.3291 7.60592L10.7091 5.89482H4.21819L3.59824 7.60592H11.3291ZM5.63803 10.6289C5.63803 11.1095 5.2484 11.4991 4.76778 11.4991C4.28715 11.4991 3.89753 11.1095 3.89753 10.6289C3.89753 10.1483 4.28715 9.75868 4.76778 9.75868C5.2484 9.75868 5.63803 10.1483 5.63803 10.6289ZM20.0955 12.4531L15.9021 16.6468L13.2636 14.0084L14.3242 12.9477L15.902 14.5255L19.0348 11.3925L20.0955 12.4531ZM12.2461 13.8185C12.2461 11.376 14.2261 9.396 16.6686 9.396C19.1111 9.396 21.0911 11.376 21.0911 13.8185C21.0911 16.261 19.1111 18.241 16.6686 18.241C14.2261 18.241 12.2461 16.261 12.2461 13.8185ZM16.6686 7.896C13.3977 7.896 10.7461 10.5476 10.7461 13.8185C10.7461 17.0894 13.3977 19.741 16.6686 19.741C19.9395 19.741 22.5911 17.0894 22.5911 13.8185C22.5911 10.5476 19.9395 7.896 16.6686 7.896Z" fill="black"/>
</svg>
