<svg width="24" height="24" viewBox="0 0 24 24" fill="none" xmlns="http://www.w3.org/2000/svg">
<path d="M8.88301 1.87061C8.5224 1.87061 8.21283 2.12725 8.146 2.48162L7.76227 4.5164C7.61713 5.28604 8.20741 5.99805 8.99062 5.99805H9.36328V7.25049H9.05042C7.96104 7.25049 7.02813 8.03093 6.83578 9.1032L6.08991 13.2609C6.08207 13.3046 6.07812 13.349 6.07812 13.3934V14.6616C6.60321 14.6706 7.11966 14.8095 7.57812 15.0643V13.4601L8.31221 9.36806C8.37633 9.01063 8.68729 8.75049 9.05042 8.75049H14.9496C15.3127 8.75049 15.6237 9.01063 15.6878 9.36806L16.4219 13.4601V15.0653C16.8803 14.8102 17.3967 14.671 17.9219 14.6616V13.3934C17.9219 13.349 17.9179 13.3046 17.9101 13.2609L17.1642 9.1032C16.9719 8.03093 16.039 7.25049 14.9496 7.25049H14.6445V5.99805H15.0188C15.802 5.99805 16.3923 5.28604 16.2471 4.5164L15.8634 2.48162C15.7966 2.12725 15.487 1.87061 15.1264 1.87061H8.88301ZM13.1445 5.99805V7.25049H10.8633V5.99805H13.1445ZM9.50479 3.37061H14.5046L14.7172 4.49805H9.29217L9.50479 3.37061Z" fill="black"/>
<path d="M7.76814 17.0039C7.264 15.9606 5.96151 15.5924 4.98572 16.2172C4.51424 16.5191 4.15127 17.0417 4.12914 17.6749C4.06719 19.4467 4.71523 20.7703 5.1204 21.5978L5.17403 21.7076L5.37939 22.1291H18.6226L18.8279 21.7076L18.8816 21.5978C19.2867 20.7703 19.9348 19.4467 19.8728 17.6749C19.8507 17.0417 19.4877 16.5191 19.0162 16.2172C18.0404 15.5924 16.7379 15.9606 16.2338 17.0039L15.7556 17.9936C14.6838 17.6243 13.4174 17.4299 12.0078 17.4287L11.9942 17.4287C10.5845 17.4299 9.3182 17.6243 8.24637 17.9936L7.76814 17.0039ZM12.001 18.9287C13.5678 18.9294 14.8559 19.194 15.8182 19.6302L16.4847 19.9322L17.5844 17.6566C17.6973 17.423 17.9889 17.3405 18.2073 17.4804C18.3279 17.5576 18.3713 17.6579 18.3737 17.7273C18.4158 18.9314 18.0444 19.8659 17.6834 20.6291H6.3186C5.95752 19.8659 5.58612 18.9314 5.62822 17.7273C5.63064 17.6579 5.67407 17.5576 5.79461 17.4804C6.01307 17.3405 6.30469 17.423 6.41756 17.6566L7.51722 19.9322L8.18372 19.6302C9.14606 19.194 10.4341 18.9294 12.001 18.9287Z" fill="black"/>
<path d="M14.5055 11.0763C14.8831 13.236 14.8834 14.7265 14.7968 16.4431C14.3959 16.362 13.9812 16.2997 13.5544 16.2559C13.6323 14.6373 13.6207 13.2738 13.2742 11.2916C13.2267 11.0196 12.9823 10.8101 12.6815 10.8101H11.3185C11.0177 10.8101 10.7733 11.0196 10.7258 11.2916C10.3792 13.2738 10.3677 14.6374 10.4457 16.2561C10.0189 16.2999 9.6041 16.3623 9.20324 16.4435C9.11655 14.7267 9.11686 13.2362 9.49448 11.0763C9.65084 10.1819 10.4353 9.56006 11.3185 9.56006H12.6815C13.5647 9.56006 14.3492 10.1819 14.5055 11.0763Z" fill="black"/>
</svg>
