<svg width="24" height="24" viewBox="0 0 24 24" fill="none" xmlns="http://www.w3.org/2000/svg">
<path d="M10.3611 12.1561C10.3611 12.5751 10.0214 12.9148 9.6024 12.9148C9.18341 12.9148 8.84375 12.5751 8.84375 12.1561C8.84375 11.7371 9.18341 11.3975 9.6024 11.3975C10.0214 11.3975 10.3611 11.7371 10.3611 12.1561Z" fill="black"/>
<path d="M14.3954 12.9148C14.8144 12.9148 15.154 12.5751 15.154 12.1561C15.154 11.7371 14.8144 11.3975 14.3954 11.3975C13.9764 11.3975 13.6367 11.7371 13.6367 12.1561C13.6367 12.5751 13.9764 12.9148 14.3954 12.9148Z" fill="black"/>
<path d="M15.4884 15.156V14.7324H8.51089V15.156C8.51089 15.5564 8.1863 15.881 7.78589 15.881H7.53555C7.13507 15.881 6.81045 15.5563 6.81055 15.1558L6.81166 10.6115L7.96314 7.43319C8.12445 6.98796 8.54731 6.69141 9.02087 6.69141H14.9784C15.452 6.69141 15.8748 6.98796 16.0361 7.43319L17.1876 10.6115L17.1887 15.1558C17.1888 15.5563 16.8642 15.881 16.4637 15.881H16.2134C15.813 15.881 15.4884 15.5564 15.4884 15.156ZM8.50421 9.60941H15.4951L14.8907 7.94141H9.10853L8.50421 9.60941ZM8.0616 10.8594L8.06096 13.4824H15.9383L15.9377 10.8594H8.0616Z" fill="black"/>
<path d="M21 4.89363L12 1.97168L3 4.89363V11.6118C3 13.5947 3.89991 15.891 5.41681 17.8202C6.94161 19.7594 9.14557 21.3995 11.8384 21.9927L11.9997 22.0282L12.161 21.9927C14.8538 21.3995 17.0579 19.7594 18.5829 17.8202C20.0999 15.891 21 13.5947 21 11.6118V4.89363ZM4.5 11.6118V5.98372L12 3.54875L19.5 5.98372V11.6118C19.5 13.1813 18.7662 15.1604 17.4038 16.893C16.0812 18.5749 14.2184 19.9568 11.9997 20.4906C9.781 19.9568 7.91843 18.5749 6.59595 16.893C5.23364 15.1604 4.5 13.1813 4.5 11.6118Z" fill="black"/>
</svg>
