<svg width="24" height="24" viewBox="0 0 24 24" fill="none" xmlns="http://www.w3.org/2000/svg">
<path d="M9.65026 6.61C10.2885 6.55488 11.1574 6.49787 12.0211 6.49787C12.8849 6.49787 13.7538 6.55488 14.392 6.61C14.9416 6.65746 15.3292 7.15471 15.2611 7.70209L14.9803 9.95737C14.9486 10.212 14.7293 10.4013 14.4728 10.3955L12.0211 10.34L9.56952 10.3955C9.31301 10.4013 9.09374 10.212 9.06203 9.95737L8.78121 7.70209C8.71305 7.15471 9.1007 6.65746 9.65026 6.61Z" fill="black"/>
<path d="M12.0214 18.5696C11.1788 18.5696 10.3312 18.5154 9.69775 18.4616C9.13012 18.4133 8.73855 17.8872 8.8349 17.3257L9.08088 15.8924C9.10539 15.7495 9.16577 15.6147 9.29246 15.5443C9.57979 15.3847 10.303 15.1364 12.0214 15.1364C13.7398 15.1364 14.463 15.3847 14.7503 15.5443C14.877 15.6147 14.9374 15.7495 14.9619 15.8924L15.2079 17.3257C15.3042 17.8872 14.9126 18.4133 14.345 18.4616C13.7115 18.5154 12.864 18.5696 12.0214 18.5696Z" fill="black"/>
<path d="M11.9519 1.896C9.77933 1.90554 8.49503 2.29225 7.49354 3.10205C6.8145 3.65112 6.50486 4.26916 6.38601 5.03012C6.30504 5.54856 6.31128 6.17341 6.31822 6.86851C6.32175 7.22185 6.32233 7.57514 6.32233 7.92849L2.63672 11.608L3.6965 12.6695L6.32233 10.0481V12.9832H6.32022V13.7663L2.63672 17.4437L3.6965 18.5052L6.32022 15.8858C6.32022 16.7319 6.32618 17.5783 6.31912 18.4243C6.31563 18.8433 6.3114 19.3515 6.43332 19.8125C6.59512 20.4243 6.9634 20.9474 7.64958 21.3535C8.6688 21.9566 9.86735 22.1006 11.954 22.1041L12.0327 22.1041C14.1194 22.1007 15.3179 21.9566 16.3371 21.3535C17.0233 20.9474 17.3916 20.4243 17.5534 19.8125C17.6753 19.3515 17.6711 18.8433 17.6676 18.4243C17.6605 17.5738 17.6665 16.7231 17.6665 15.8726L20.3035 18.5052L21.3633 17.4437L17.6665 13.753V12.9832H17.6644V10.0348L20.3035 12.6695L21.3633 11.608L17.6644 7.91522C17.6644 7.56629 17.665 7.21742 17.6685 6.86851C17.6754 6.17341 17.6817 5.54856 17.6007 5.03012C17.4818 4.26916 17.1722 3.65112 16.4932 3.10205C15.4917 2.29225 14.2074 1.90554 12.0348 1.896H11.9519ZM11.9934 3.39586C14.0167 3.40065 14.9161 3.75588 15.55 4.26844C15.9155 4.56396 16.0523 4.83641 16.1187 5.26159C16.1788 5.6468 16.1747 6.0977 16.1687 6.75019C16.1328 10.6534 16.1523 14.5586 16.167 18.4618C16.1687 18.8985 16.1697 19.1775 16.1032 19.429C16.046 19.6453 15.9337 19.8493 15.5733 20.0625C14.9331 20.4413 14.1044 20.6022 11.9934 20.6041C9.88235 20.6022 9.05363 20.4413 8.41344 20.0625C8.05302 19.8493 7.94066 19.6453 7.88346 19.429C7.81695 19.1775 7.81801 18.8985 7.81966 18.4618C7.83441 14.5586 7.85392 10.6533 7.81802 6.75017C7.81203 6.09769 7.80788 5.6468 7.86804 5.26159C7.93445 4.83641 8.07121 4.56396 8.43669 4.26844C9.07059 3.75588 9.97005 3.40065 11.9934 3.39586Z" fill="black"/>
</svg>
