<svg width="24" height="24" viewBox="0 0 24 24" fill="none" xmlns="http://www.w3.org/2000/svg">
<path d="M0.794922 3.34717H2.80078L6.625 11.4114L5.17578 14.0605C4.53906 15.2268 5.38281 16.6499 6.71094 16.6499H18.9316V15.1499H6.71094C6.5625 15.1499 6.45703 15.0264 6.46094 14.8928C6.46289 14.8552 6.47266 14.8167 6.49219 14.78L7.69531 12.5818H15.2148C15.6582 12.5818 16.082 12.4517 16.4414 12.2185C16.7402 12.0239 16.9941 11.7578 17.1758 11.436L20.7402 5.1062C20.8359 4.93652 20.8672 4.75464 20.8457 4.58325C20.8301 4.46777 20.791 4.35718 20.7324 4.2583C20.5898 4.01343 20.3242 3.83911 20 3.83911H4.69531L3.75 1.84717H0.794922V3.34717ZM8.12891 11.0818L5.40625 5.33911H18.8887L15.8691 10.7C15.7363 10.9358 15.4863 11.0818 15.2148 11.0818H8.12891Z" fill="black"/>
<path d="M18.8984 19.8984C18.8984 20.9468 18.0488 21.7966 17 21.7966C15.9512 21.7966 15.1016 20.9468 15.1016 19.8984C15.1016 18.8499 15.9512 18 17 18C18.0488 18 18.8984 18.8499 18.8984 19.8984Z" fill="black"/>
<path d="M6.70508 21.7966C7.75391 21.7966 8.60352 20.9468 8.60352 19.8984C8.60352 18.8499 7.75391 18 6.70508 18C5.65625 18 4.80664 18.8499 4.80664 19.8984C4.80664 20.9468 5.65625 21.7966 6.70508 21.7966Z" fill="black"/>
</svg>
