<svg width="24" height="24" viewBox="0 0 24 24" fill="none" xmlns="http://www.w3.org/2000/svg">
<path d="M1.66992 2.7002H9.96984V8.88161H8.46985V4.2002H3.16991V9.50021H7.09369V11.0002H1.66992V2.7002Z" fill="black"/>
<path d="M20.2715 2.7002V8.88161H18.7715V4.2002H13.4716V8.88161H11.9716V2.7002H20.2715Z" fill="black"/>
<path d="M1.66992 12.9971H7.09369V14.4971H3.16991V19.7971H7.09369V21.2971H1.66992V12.9971Z" fill="black"/>
<path d="M15.9902 10.3843H8.59375V19.6329L9.35034 19.627C9.67654 20.7427 10.7073 21.5577 11.9285 21.5577C13.1512 21.5577 14.1812 20.7438 14.5047 19.6261L16.448 19.623C16.7729 20.7408 17.8047 21.5577 19.0273 21.5577C20.3438 21.5577 21.4391 20.6104 21.6687 19.3602L22.5838 18.9026C22.8379 18.7756 22.9984 18.5159 22.9984 18.2318V16.6575C22.9984 15.724 22.3649 14.9098 21.4607 14.6799L19.8499 14.2502L18.2854 11.6753C17.7983 10.8737 16.9282 10.3843 15.9902 10.3843ZM11.9285 16.1863C11.219 16.1863 10.5739 16.4614 10.0938 16.9107V15.6471H19.2671L21.0787 16.1306L21.0895 16.1333C21.3299 16.1936 21.4984 16.4097 21.4984 16.6575V17.7683L21.4804 17.7773C21.0614 16.8397 20.1206 16.1863 19.0273 16.1863C17.8039 16.1863 16.7716 17.0042 16.4474 18.123L14.5043 18.1261C14.1808 17.0091 13.1543 16.1863 11.9285 16.1863ZM13.1142 14.1471H10.0938V11.8843H13.1142V14.1471ZM14.6142 14.1471V11.8843H15.9902C16.4043 11.8843 16.7884 12.1003 17.0035 12.4543L18.0321 14.1471H14.6142ZM19.0273 17.6863C19.6603 17.6863 20.1774 18.1824 20.2112 18.8069C20.2069 18.8523 20.2068 18.8981 20.2108 18.9436C20.1738 19.5651 19.6581 20.0577 19.0273 20.0577C18.3724 20.0577 17.8416 19.5269 17.8416 18.872C17.8416 18.2172 18.3724 17.6863 19.0273 17.6863ZM10.7428 18.872C10.7428 18.2172 11.2736 17.6863 11.9285 17.6863C12.5789 17.6863 13.1104 18.2178 13.1104 18.8771C13.1104 19.5313 12.5839 20.0577 11.9285 20.0577C11.2736 20.0577 10.7428 19.5269 10.7428 18.872Z" fill="black"/>
</svg>
