<svg width="24" height="24" viewBox="0 0 24 24" fill="none" xmlns="http://www.w3.org/2000/svg">
<path d="M8.75 3.2417C8.05964 3.2417 7.5 3.80134 7.5 4.4917V11.7517C7.18829 11.702 6.86864 11.6763 6.54297 11.6763C6.35996 11.6763 6.17886 11.6844 6 11.7003V4.4917C6 2.97292 7.23122 1.7417 8.75 1.7417H15.9104L22 7.84008V18.9917C22 20.5105 20.7688 21.7417 19.25 21.7417H11.0484C11.4466 21.2962 11.7798 20.7912 12.0329 20.2417H19.25C19.9404 20.2417 20.5 19.6821 20.5 18.9917V9.62671H14.1113V3.2417H8.75ZM15.6113 3.56501V8.12671H20.1664L15.6113 3.56501Z" fill="black"/>
<path d="M11.084 17.7173C11.084 20.2252 9.0509 22.2583 6.54297 22.2583C4.03504 22.2583 2.00195 20.2252 2.00195 17.7173C2.00195 15.2094 4.03504 13.1763 6.54297 13.1763C9.0509 13.1763 11.084 15.2094 11.084 17.7173ZM9.58398 17.7173C9.58398 16.0378 8.22248 14.6763 6.54297 14.6763C4.86346 14.6763 3.50195 16.0378 3.50195 17.7173C3.50195 19.3968 4.86346 20.7583 6.54297 20.7583C8.22248 20.7583 9.58398 19.3968 9.58398 17.7173Z" fill="black"/>
</svg>
