<svg width="24" height="24" viewBox="0 0 24 24" fill="none" xmlns="http://www.w3.org/2000/svg">
<path d="M9.60735 3.49234C8.91636 3.49234 8.35621 4.05249 8.35621 4.74348V8.94805C7.8673 8.86968 7.36582 8.82893 6.85484 8.82887V4.74348C6.85484 3.22331 8.08718 1.99097 9.60735 1.99097H16.7743L22.8695 8.09492V19.2567C22.8695 20.7769 21.6371 22.0092 20.1169 22.0092H14.3056V20.5079H20.1169C20.8079 20.5079 21.3681 19.9477 21.3681 19.2567V9.88318H14.9736V3.49234H9.60735ZM16.4749 3.81595V8.38181H21.0342L16.4749 3.81595Z" fill="black"/>
<path d="M1.13523 16.4813C1.2011 17.9798 1.76921 19.2643 2.83956 20.3346C3.20184 20.6969 3.60545 20.9974 4.05038 21.2362C4.49466 21.475 4.96381 21.6602 5.45782 21.7919L5.45782 20.2358C5.17788 20.137 4.90617 20.0096 4.6427 19.8535C4.37923 19.6967 4.13222 19.503 3.90169 19.2725C3.0948 18.4656 2.67078 17.5146 2.62961 16.4196C2.58844 15.3245 2.90132 14.3777 3.56823 13.579L3.92639 13.2209L3.92639 14.777L5.40842 14.7523L5.42077 10.6397L1.30813 10.652L1.30813 12.1588H2.83956L2.48141 12.5169C1.51809 13.6614 1.06936 14.9828 1.13523 16.4813Z" fill="black"/>
<path d="M8.33461 21.8043L8.34696 17.6917L9.82899 17.667V19.2231L10.1871 18.8649C10.8541 18.0663 11.1669 17.1194 11.1258 16.0244C11.0846 14.9293 10.6606 13.9783 9.85369 13.1715C9.62315 12.9409 9.37631 12.7474 9.11317 12.591C8.84937 12.4346 8.5775 12.3069 8.29756 12.2081V10.652C8.79157 10.7837 9.26104 10.969 9.70598 11.2078C10.1503 11.4465 10.5535 11.7471 10.9158 12.1093C11.9862 13.1797 12.5543 14.4641 12.6201 15.9626C12.686 17.4611 12.2373 18.7826 11.274 19.927L10.9158 20.2852H12.4472V21.7919L8.33461 21.8043Z" fill="black"/>
</svg>
