<svg width="24" height="24" viewBox="0 0 24 24" fill="none" xmlns="http://www.w3.org/2000/svg">
<path d="M7.89844 11.1504C8.46484 11.1504 8.9248 10.6909 8.9248 10.124C8.9248 9.86743 8.83105 9.63281 8.6748 9.45288C8.48633 9.23535 8.20801 9.09766 7.89844 9.09766C7.33203 9.09766 6.87207 9.55713 6.87207 10.124C6.87207 10.4258 7.00293 10.6973 7.20996 10.885C7.39258 11.05 7.63379 11.1504 7.89844 11.1504Z" fill="black"/>
<path d="M13.0264 10.124C13.0264 10.4004 12.917 10.6511 12.7393 10.8354C12.6621 10.9163 12.5713 10.9844 12.4707 11.0364C12.3291 11.1091 12.1689 11.1504 12 11.1504C11.7324 11.1504 11.4893 11.0479 11.3066 10.8799C11.1016 10.6924 10.9736 10.4231 10.9736 10.124C10.9736 9.55713 11.4336 9.09766 12 9.09766C12.29 9.09766 12.5518 9.21777 12.7383 9.41113C12.917 9.5957 13.0264 9.84692 13.0264 10.124Z" fill="black"/>
<path d="M16.1016 11.1504C16.668 11.1504 17.1279 10.6909 17.1279 10.124C17.1279 9.55713 16.668 9.09766 16.1016 9.09766C15.7109 9.09766 15.3711 9.31616 15.1973 9.6377C15.1191 9.78247 15.0752 9.948 15.0752 10.124C15.0752 10.6909 15.5352 11.1504 16.1016 11.1504Z" fill="black"/>
<path d="M4.25 2.17773C3.00781 2.17773 2 3.18506 2 4.42773V21.8223L5.79492 18.0278H19.75C20.9922 18.0278 22 17.0203 22 15.7778V4.42773C22 3.18506 20.9922 2.17773 19.75 2.17773H4.25ZM3.56152 4.12891C3.58789 4.06958 3.62109 4.0144 3.66016 3.96436C3.79785 3.78979 4.01074 3.67773 4.25 3.67773H19.75C19.9941 3.67773 20.2109 3.79419 20.3477 3.97437C20.4014 4.04468 20.4424 4.12451 20.4678 4.21094C20.4883 4.27954 20.5 4.35229 20.5 4.42773V15.7778C20.5 16.1919 20.1641 16.5278 19.75 16.5278H5.17285L3.5 18.2009V4.42773C3.5 4.32153 3.52148 4.22046 3.56152 4.12891Z" fill="black"/>
</svg>
