<svg width="24" height="24" viewBox="0 0 24 24" fill="none" xmlns="http://www.w3.org/2000/svg">
<path d="M11.4987 3.75781C7.70028 3.75781 4.62109 6.837 4.62109 10.6354C4.62109 14.4337 7.70028 17.5129 11.4987 17.5129H13.642L13.7698 19.0938C16.1872 17.2336 18.3762 14.2344 18.3762 10.6354C18.3762 6.837 15.297 3.75781 11.4987 3.75781ZM3.12109 10.6354C3.12109 6.00858 6.87186 2.25781 11.4987 2.25781C16.1255 2.25781 19.8762 6.00858 19.8762 10.6354C19.8762 15.4548 16.5624 19.1922 13.5245 21.0892L12.479 21.742L12.2584 19.0129H11.4987C6.87186 19.0129 3.12109 15.2622 3.12109 10.6354Z" fill="black"/>
</svg>
