<svg width="24" height="24" viewBox="0 0 24 24" fill="none" xmlns="http://www.w3.org/2000/svg">
<path d="M10.848 15.7161L16.8951 9.66851L15.8345 8.60788L10.848 13.5947L8.16619 10.9125L7.10547 11.9731L10.848 15.7161Z" fill="black"/>
<path d="M3.95915 9.3873L1.43164 12L3.95915 14.6127L3.45005 18.212L7.03054 18.8401L8.7343 22.0512L12.0002 20.4548L15.266 22.0512L16.9698 18.8401L20.5503 18.212L20.0412 14.6127L22.5687 12L20.0412 9.3873L20.5503 5.78797L16.9698 5.1599L15.266 1.94873L12.0002 3.54517L8.7343 1.94873L7.03054 5.1599L3.45005 5.78797L3.95915 9.3873ZM5.54706 14.0967L3.51867 12L5.54706 9.90325L5.13849 7.01469L8.01192 6.51065L9.37923 3.93361L12.0002 5.21479L14.6211 3.93361L15.9884 6.51065L18.8618 7.01469L18.4533 9.90324L20.4816 12L18.4533 14.0967L18.8618 16.9853L15.9884 17.4893L14.6211 20.0664L12.0002 18.7852L9.37923 20.0664L8.01192 17.4893L5.13849 16.9853L5.54706 14.0967Z" fill="black"/>
</svg>
