<svg width="24" height="24" viewBox="0 0 24 24" fill="none" xmlns="http://www.w3.org/2000/svg">
<path d="M4.7137 19.2879C3.78646 18.361 3.0524 17.2711 2.51152 16.0182C1.97064 14.7652 1.7002 13.4264 1.7002 12.0018C1.7002 10.573 1.97102 9.22993 2.51267 7.9727C3.05432 6.71548 3.7894 5.62186 4.71792 4.69184C5.64645 3.76184 6.73635 3.03074 7.98762 2.49852C9.23887 1.9663 10.5758 1.7002 11.9985 1.7002C13.4272 1.7002 14.7701 1.9662 16.0272 2.4982C17.2843 3.0302 18.3779 3.76111 19.3081 4.69095C20.2384 5.6208 20.9696 6.71423 21.5018 7.97124C22.034 9.22826 22.3001 10.5714 22.3001 12.0006C22.3001 13.4298 22.0341 14.7683 21.5021 16.0161C20.9701 17.2639 20.2393 18.3523 19.3097 19.2812C18.3801 20.2101 17.2869 20.9455 16.0302 21.4873C14.7735 22.0292 13.4307 22.3001 12.0018 22.3001C10.5772 22.3001 9.23821 22.0298 7.98475 21.4891C6.73126 20.9485 5.64091 20.2147 4.7137 19.2879ZM5.77414 18.227C6.56178 19.0143 7.4921 19.6431 8.57884 20.1118C9.63653 20.568 10.7725 20.8001 12.0018 20.8001C13.2356 20.8001 14.3754 20.5674 15.4363 20.1099C16.5263 19.64 17.4594 19.0095 18.2495 18.2201C19.0389 17.4313 19.6631 16.5048 20.1223 15.4278C20.5708 14.3759 20.8001 13.2386 20.8001 12.0006C20.8001 10.7627 20.5707 9.61941 20.1205 8.55608C19.6607 7.47007 19.0362 6.53996 18.2477 5.75182C17.4592 4.96361 16.5288 4.33926 15.4426 3.87958C14.379 3.42949 13.2359 3.2002 11.9985 3.2002C10.7681 3.2002 9.63176 3.42924 8.57474 3.87884C7.49445 4.33833 6.56715 4.96269 5.77944 5.75165C4.99034 6.54202 4.36012 7.47563 3.89026 8.5662C3.4329 9.62779 3.2002 10.768 3.2002 12.0018C3.2002 13.2311 3.43239 14.3667 3.88868 15.4237C4.35755 16.5098 4.98648 17.4397 5.77414 18.227Z" fill="black"/>
</svg>
