<svg width="24" height="24" viewBox="0 0 24 24" fill="none" xmlns="http://www.w3.org/2000/svg">
<path d="M14.5723 3.99463H9.41016V9.15885H11.2422V11.2505H3.56836L3.56836 14.8413H1.75V20.0055H6.91422V14.8413H5.06836L5.06836 12.7505H11.2422V14.8413H9.41211V20.0055H14.5763V14.8413H12.7422V12.7505H18.9166L18.9166 14.8413H17.0859V20.0055H22.2502V14.8413H20.4166V11.2505H12.7422V9.15885H14.5723V3.99463ZM10.9102 7.65885V5.49463H13.0723V7.65885H10.9102ZM10.9121 18.5055V16.3413H13.0763V18.5055H10.9121ZM18.5859 16.3413H20.7502V18.5055H18.5859V16.3413ZM3.25 18.5055V16.3413H5.41422V18.5055H3.25Z" fill="black"/>
</svg>
