<svg width="24" height="24" viewBox="0 0 24 24" fill="none" xmlns="http://www.w3.org/2000/svg">
<path d="M9.99219 3.89014H13.9902V7.89014H12.4922V8.44092H16.0312V9.99622H17.5312V13.9962H16.0312V14.5566H19.5859V16.11H21.0859V20.11H17.0859V16.11H18.5859V15.5566H12.4941V16.11H13.9941V20.11H9.99414V16.11H11.4941V15.5566H5.40234V16.11H6.91406V20.11H2.91406V16.11H4.40234L4.40234 14.5566H7.94922V13.9962H6.44922V9.99622H7.94531V8.44092H11.4922V7.89014H9.99219V3.89014ZM8.94922 14.5566H15.0312V13.9962H13.5312V9.99622H15.0312V9.44092H8.94531V9.99622H10.4492V13.9962H8.94922V14.5566ZM10.9922 4.89014V6.89014H12.9902V4.89014H10.9922ZM14.5312 12.9962H16.5312V10.9962H14.5312V12.9962ZM7.44922 10.9962V12.9962H9.44922V10.9962H7.44922ZM10.9941 19.11H12.9941V17.11H10.9941V19.11ZM18.0859 17.11V19.11H20.0859V17.11H18.0859ZM3.91406 19.11H5.91406V17.11H3.91406V19.11Z" fill="black"/>
</svg>
