<svg width="24" height="24" viewBox="0 0 24 24" fill="none" xmlns="http://www.w3.org/2000/svg">
<path d="M18.75 3.09326H14.8415C14.6193 1.70821 13.3801 0.72998 12.0009 0.72998C10.6217 0.72998 9.38251 1.70821 9.16033 3.09326H5.25C4.00736 3.09326 3 4.10062 3 5.34326V18.7456C3 19.9882 4.00736 20.9956 5.25 20.9956H18.75C19.9926 20.9956 21 19.9882 21 18.7456V5.34326C21 4.10062 19.9926 3.09326 18.75 3.09326ZM5.25 4.59326H18.75C19.1642 4.59326 19.5 4.92905 19.5 5.34326V18.7456C19.5 19.1598 19.1642 19.4956 18.75 19.4956H5.25C4.83579 19.4956 4.5 19.1598 4.5 18.7456V5.34326C4.5 4.92905 4.83579 4.59326 5.25 4.59326ZM11.2461 2.93433C11.2461 2.56035 11.5456 2.18555 11.9953 2.18555C12.4449 2.18555 12.7445 2.56035 12.7445 2.93433C12.7445 3.3083 12.4449 3.68311 11.9953 3.68311C11.5456 3.68311 11.2461 3.3083 11.2461 2.93433Z" fill="black"/>
<path d="M7.32227 6.56787C6.64705 6.56787 6.19727 7.13069 6.19727 7.69227C6.19727 8.25384 6.64705 8.81666 7.32227 8.81666C7.99748 8.81666 8.44727 8.25384 8.44727 7.69227C8.44727 7.13069 7.99748 6.56787 7.32227 6.56787Z" fill="black"/>
<path d="M7.32227 10.9199C6.64705 10.9199 6.19727 11.4827 6.19727 12.0443C6.19727 12.6059 6.64705 13.1687 7.32227 13.1687C7.99748 13.1687 8.44727 12.6059 8.44727 12.0443C8.44727 11.4827 7.99748 10.9199 7.32227 10.9199Z" fill="black"/>
<path d="M7.32227 15.272C6.64705 15.272 6.19727 15.8348 6.19727 16.3964C6.19727 16.9579 6.64705 17.5208 7.32227 17.5208C7.99748 17.5208 8.44727 16.9579 8.44727 16.3964C8.44727 15.8348 7.99748 15.272 7.32227 15.272Z" fill="black"/>
<path d="M17.8033 8.44238L9.94585 8.44238V6.94238L17.8033 6.94238L17.8033 8.44238Z" fill="black"/>
<path d="M17.8033 12.7944L9.94585 12.7944V11.2944L17.8033 11.2944L17.8033 12.7944Z" fill="black"/>
<path d="M17.8033 17.147H9.94585V15.647L17.8033 15.647L17.8033 17.147Z" fill="black"/>
</svg>
