<svg width="24" height="24" viewBox="0 0 24 24" fill="none" xmlns="http://www.w3.org/2000/svg">
<path d="M13.061 11.9999L16.6607 8.39999L15.6 7.33936L12.0003 10.9392L8.40064 7.33973L7.34001 8.40041L10.9397 11.9999L7.33984 15.5999L8.40053 16.6605L12.0003 13.0605L15.6005 16.6606L16.6612 15.5999L13.061 11.9999Z" fill="black"/>
<path d="M6.27083 3C4.46465 3 3 4.46434 3 6.27083V17.7292C3 19.5357 4.46465 21 6.27083 21H17.7292C19.5353 21 21 19.5357 21 17.7292V6.27083C21 4.46434 19.5353 3 17.7292 3H6.27083ZM4.5 6.27083C4.5 5.29286 5.29299 4.5 6.27083 4.5H17.7292C18.707 4.5 19.5 5.29286 19.5 6.27083V17.7292C19.5 18.7071 18.707 19.5 17.7292 19.5H6.27083C5.29299 19.5 4.5 18.7071 4.5 17.7292V6.27083Z" fill="black"/>
</svg>
