<svg width="24" height="24" viewBox="0 0 24 24" fill="none" xmlns="http://www.w3.org/2000/svg">
<path d="M7.60547 11.4869C7.60547 12.2393 6.99512 12.8492 6.24316 12.8492C5.49121 12.8492 4.88086 12.2393 4.88086 11.4869C4.88086 10.7346 5.49121 10.1246 6.24316 10.1246C6.99512 10.1246 7.60547 10.7346 7.60547 11.4869Z" fill="black"/>
<path d="M9.3125 8.76636C10.0645 8.76636 10.6748 8.15637 10.6748 7.40405C10.6748 6.65173 10.0645 6.04175 9.3125 6.04175C8.56055 6.04175 7.9502 6.65173 7.9502 7.40405C7.9502 8.15637 8.56055 8.76636 9.3125 8.76636Z" fill="black"/>
<path d="M15.6689 7.88904C15.6035 8.06201 15.5029 8.21802 15.377 8.349C15.1289 8.60632 14.7803 8.76636 14.3955 8.76636C13.6436 8.76636 13.0332 8.15637 13.0332 7.40405C13.0332 6.65173 13.6436 6.04175 14.3955 6.04175C15.1475 6.04175 15.7578 6.65173 15.7578 7.40405C15.7578 7.57483 15.7266 7.73828 15.6689 7.88904Z" fill="black"/>
<path d="M17.5059 12.8492C18.2578 12.8492 18.8682 12.2393 18.8682 11.4869C18.8682 10.7346 18.2578 10.1246 17.5059 10.1246C16.7539 10.1246 16.1436 10.7346 16.1436 11.4869C16.1436 12.2393 16.7539 12.8492 17.5059 12.8492Z" fill="black"/>
<path d="M1.86133 12.0648C1.86133 6.49878 6.47461 2.01611 12.1289 2.01611C14.083 2.01648 17.5762 2.68445 19.8936 5.2948C22.7256 8.48438 22.6211 12.3892 20.9961 14.6992C20.1289 15.933 18.7461 16.4557 17.6016 16.6849C16.5684 16.8917 15.6094 16.8816 15.1836 16.8771L15.0547 16.8761L14.9141 16.8779C14.8359 16.88 14.7607 16.8838 14.6885 16.8893C14.3418 16.9159 14.0684 16.9823 13.8809 17.0869C13.7695 17.1493 13.7012 17.2185 13.6562 17.2958C13.6455 17.3138 13.6348 17.3347 13.625 17.3588C13.6143 17.3861 13.6035 17.4177 13.5947 17.4542L13.5811 17.52L13.5713 17.5935C13.5674 17.6318 13.5654 17.6738 13.5654 17.7198C13.5654 17.8199 13.5713 17.8998 13.5811 17.9644C13.5908 18.0333 13.6045 18.0848 13.6182 18.1246C13.6455 18.2054 13.6816 18.2715 13.7529 18.3892L13.7686 18.4144C13.8359 18.5259 13.9395 18.6968 14.0186 18.9098C14.1074 19.1515 14.1572 19.4226 14.1572 19.7512C14.1572 19.8517 14.1523 19.9514 14.1426 20.0498C14.126 20.2064 14.0957 20.3597 14.0518 20.5078C14.0039 20.6664 13.9395 20.8187 13.8574 20.9625C13.7461 21.1565 13.6006 21.3347 13.417 21.491C12.9111 21.9221 12.2266 22.0919 11.4736 22.0919H11.4482L11.4238 22.0903C6.09668 21.7363 1.86133 17.3976 1.86133 12.0648ZM12.1289 3.51611C7.27051 3.51624 3.36133 7.35999 3.36133 12.0648C3.36133 16.5646 6.93555 20.2759 11.498 20.5919C12.0352 20.5883 12.3105 20.4631 12.4434 20.3497C12.4961 20.3051 12.5449 20.2462 12.583 20.1638C12.6084 20.1088 12.6289 20.0432 12.6416 19.9642C12.6514 19.902 12.6572 19.8314 12.6572 19.7512C12.6572 19.5815 12.6328 19.488 12.6113 19.4286C12.585 19.3572 12.5508 19.3 12.4697 19.1654C12.3926 19.0382 12.2803 18.8524 12.1973 18.6042C12.1123 18.3522 12.0654 18.0667 12.0654 17.7198C12.0654 17.2834 12.1592 16.8856 12.3594 16.5421C12.5586 16.1979 12.8398 15.9504 13.1484 15.7778C13.7393 15.4473 14.458 15.3761 15.0547 15.3761L15.2021 15.3771C15.6357 15.3809 16.4385 15.3879 17.3066 15.2141C18.2959 15.0161 19.2256 14.6096 19.7695 13.8363C20.9678 12.1323 21.1729 8.99475 18.7715 6.29077C16.8506 4.12695 13.8574 3.51648 12.1289 3.51611Z" fill="black"/>
</svg>
