<svg width="24" height="24" viewBox="0 0 24 24" fill="none" xmlns="http://www.w3.org/2000/svg">
<path d="M17.237 3.23528C17.5299 2.9424 18.0047 2.94241 18.2976 3.23529L20.7614 5.69909C20.9021 5.83974 20.9811 6.03051 20.9811 6.22943C20.9811 6.42834 20.9021 6.61911 20.7614 6.75976L17.4254 10.0957L19.5703 12.2455L18.5085 13.305L16.8716 11.6644L7.55178 20.984L3.04439 20.9584L3.01855 16.4508L12.3435 7.12605L10.7087 5.48757L11.7705 4.42811L13.9049 6.56731L17.237 3.23528ZM16.3659 9.03382L19.1704 6.2294L17.7673 4.82627L14.9643 7.6291L16.3659 9.03382ZM13.3943 8.19651L4.52212 17.0685L4.53587 19.4668L6.934 19.4804L15.8062 10.6084L13.3943 8.19651Z" fill="black"/>
</svg>
