<svg width="24" height="24" viewBox="0 0 24 24" fill="none" xmlns="http://www.w3.org/2000/svg">
<path d="M8.92383 2C7.68119 2 6.67383 3.00736 6.67383 4.25V16.7407C6.67383 17.9833 7.68118 18.9907 8.92383 18.9907H18.0863C19.329 18.9907 20.3363 17.9833 20.3363 16.7407V7.19241L15.4852 2H8.92383ZM8.17383 4.25C8.17383 3.83579 8.50961 3.5 8.92383 3.5H13.8312V8.84639H18.8363V16.7407C18.8363 17.1549 18.5005 17.4907 18.0863 17.4907H8.92383C8.50961 17.4907 8.17383 17.1549 8.17383 16.7407V4.25ZM18.4274 7.34639H15.3312V4.0324L18.4274 7.34639Z" fill="black"/>
<path d="M5.16406 18.2494V6.22266H3.66406V18.2494C3.66406 20.3204 5.343 21.9994 7.41407 21.9994H16.3528V20.4994H7.41407C6.17142 20.4994 5.16406 19.492 5.16406 18.2494Z" fill="black"/>
</svg>
