<svg width="24" height="24" viewBox="0 0 24 24" fill="none" xmlns="http://www.w3.org/2000/svg">
<path d="M8.92383 2C7.68119 2 6.67383 3.00736 6.67383 4.25V16.7407C6.67383 17.9833 7.68118 18.9907 8.92383 18.9907H18.0863C19.329 18.9907 20.3363 17.9833 20.3363 16.7407V4.25C20.3363 3.00736 19.329 2 18.0863 2H8.92383ZM8.17383 4.25C8.17383 3.83579 8.50961 3.5 8.92383 3.5H18.0863C18.5005 3.5 18.8363 3.83579 18.8363 4.25V16.7407C18.8363 17.1549 18.5005 17.4907 18.0863 17.4907H8.92383C8.50961 17.4907 8.17383 17.1549 8.17383 16.7407V4.25Z" fill="black"/>
<path d="M5.16406 8.04663V6.22266H3.66406V8.04663H5.16406Z" fill="black"/>
<path d="M3.66406 9.65759V11.8055H5.16406V9.65759H3.66406Z" fill="black"/>
<path d="M3.66406 13.4165V15.5644H5.16406V13.4165H3.66406Z" fill="black"/>
<path d="M3.66406 17.1754V18.2494C3.66406 18.8311 3.79706 19.3839 4.03502 19.8772L5.38602 19.2254C5.24402 18.9311 5.16406 18.6006 5.16406 18.2494V17.1754H3.66406Z" fill="black"/>
<path d="M5.78627 21.6284C6.2795 21.8664 6.83231 21.9994 7.41407 21.9994H8.58388V20.4994H7.41407C7.06283 20.4994 6.73238 20.4194 6.43804 20.2774L5.78627 21.6284Z" fill="black"/>
<path d="M10.3386 21.9994H12.6782V20.4994H10.3386V21.9994Z" fill="black"/>
<path d="M14.433 20.4994V21.9994H16.3528V20.4994H14.433Z" fill="black"/>
</svg>
