<svg width="24" height="24" viewBox="0 0 24 24" fill="none" xmlns="http://www.w3.org/2000/svg">
<path d="M6.2168 5.71586C6.2168 4.21593 7.43273 3 8.93266 3C10.4326 3 11.6485 4.21593 11.6485 5.71586C11.6485 7.21579 10.4326 8.43172 8.93266 8.43172C7.43273 8.43172 6.2168 7.21579 6.2168 5.71586ZM8.93266 4.5C8.26116 4.5 7.7168 5.04436 7.7168 5.71586C7.7168 6.38736 8.26116 6.93172 8.93266 6.93172C9.60416 6.93172 10.1485 6.38736 10.1485 5.71586C10.1485 5.04436 9.60416 4.5 8.93266 4.5Z" fill="black"/>
<path d="M21.498 14.002H22.5V12.502H14.1172V11.6572C14.1172 11.1369 13.8354 10.7188 13.5261 10.4234C13.2108 10.1223 12.7938 9.87421 12.337 9.67707C11.4197 9.28113 10.208 9.03283 8.9321 9.03271L8.72681 9.03485C7.52634 9.05985 6.39451 9.30233 5.52627 9.67707C5.06953 9.87421 4.65246 10.1223 4.33718 10.4234C4.02792 10.7188 3.74609 11.1369 3.74609 11.6572V12.502H1.5V14.002H2.49805V22.002H21.498V14.002ZM19.998 20.502H3.99805V14.002H19.998V20.502ZM5.24609 11.6701C5.25169 11.6549 5.2769 11.6002 5.3733 11.5081C5.51868 11.3692 5.76531 11.2077 6.12069 11.0543C6.82738 10.7493 7.83341 10.5327 8.9321 10.5327C10.0304 10.5328 11.0361 10.7493 11.7426 11.0543C12.098 11.2077 12.3446 11.3692 12.49 11.5081C12.5864 11.6002 12.6116 11.6549 12.6172 11.6701V12.502H5.24609V11.6701Z" fill="black"/>
</svg>
