<svg width="24" height="24" viewBox="0 0 24 24" fill="none" xmlns="http://www.w3.org/2000/svg">
<path d="M8.93266 3C7.43273 3 6.2168 4.21593 6.2168 5.71586C6.2168 7.21579 7.43273 8.43172 8.93266 8.43172C10.4326 8.43172 11.6485 7.21579 11.6485 5.71586C11.6485 4.21593 10.4326 3 8.93266 3ZM7.7168 5.71586C7.7168 5.04436 8.26116 4.5 8.93266 4.5C9.60416 4.5 10.1485 5.04436 10.1485 5.71586C10.1485 6.38736 9.60416 6.93172 8.93266 6.93172C8.26116 6.93172 7.7168 6.38736 7.7168 5.71586Z" fill="black"/>
<path d="M18.0449 17.4335C18.0449 16.8142 18.5573 16.3564 19.1336 16.3564C19.71 16.3564 20.2224 16.8142 20.2224 17.4335C20.2224 18.0529 19.71 18.5106 19.1336 18.5106C18.5573 18.5106 18.0449 18.0529 18.0449 17.4335Z" fill="black"/>
<path d="M19.1381 13.708C17.0474 13.708 15.2793 15.3199 15.2793 17.3962C15.2793 18.7074 16.0865 19.8993 16.8175 20.7435C16.8532 20.7847 16.8892 20.8257 16.9255 20.8663C17.4698 21.4754 18.0656 22.0057 18.3939 22.2978C18.4928 22.3859 18.5676 22.4524 18.6091 22.4928L19.132 23.0012L19.6548 22.4928C19.6962 22.4525 19.7712 22.3858 19.8708 22.2973C19.9147 22.2583 19.9633 22.2151 20.0159 22.1681C20.3841 21.8387 20.9486 21.3205 21.4487 20.744C22.1809 19.9001 22.9902 18.708 22.9902 17.3962C22.9902 15.3667 21.3071 13.7778 19.2734 13.7107L19.2658 13.708H19.1381ZM16.7793 17.3962C16.7793 16.2418 17.7694 15.2338 19.0873 15.2085H19.1395C19.2233 15.2085 19.3058 15.2125 19.3868 15.2202C20.6025 15.3361 21.4902 16.2979 21.4902 17.3962C21.4902 18.1314 21.0069 18.9644 20.3157 19.761C19.8922 20.2492 19.4715 20.6396 19.1322 20.9438C18.7935 20.6396 18.3735 20.249 17.9514 19.7616C17.2618 18.9652 16.7793 18.132 16.7793 17.3962Z" fill="black"/>
<path d="M8.72681 9.03485C7.52634 9.05985 6.39451 9.30233 5.52627 9.67707C5.06953 9.87421 4.65246 10.1223 4.33718 10.4234C4.02792 10.7188 3.74609 11.1369 3.74609 11.6572V12.502H1.5V14.002H2.49805V22.002H15.9305C15.8475 21.9117 15.7649 21.8193 15.6835 21.7254C15.4017 21.3999 15.0721 20.9869 14.7671 20.502H3.99805V14.002H15.0822C15.6954 13.3206 16.4858 12.8022 17.3669 12.502H14.1172V11.6572C14.1172 11.1369 13.8354 10.7188 13.5261 10.4234C13.2108 10.1223 12.7938 9.87421 12.337 9.67707C11.4197 9.28113 10.208 9.03283 8.9321 9.03271L8.72681 9.03485ZM5.3733 11.5081C5.51868 11.3692 5.76531 11.2077 6.12069 11.0543C6.82738 10.7493 7.83341 10.5327 8.9321 10.5327C10.0304 10.5328 11.0361 10.7493 11.7426 11.0543C12.098 11.2077 12.3446 11.3692 12.49 11.5081C12.5864 11.6002 12.6116 11.6549 12.6172 11.6701V12.502H5.24609V11.6701C5.25169 11.6549 5.2769 11.6002 5.3733 11.5081Z" fill="black"/>
</svg>
