<svg width="24" height="24" viewBox="0 0 24 24" fill="none" xmlns="http://www.w3.org/2000/svg">
<path d="M3.5 4.25C3.5 3.83579 3.83579 3.5 4.25 3.5H14.5743C14.9885 3.5 15.3243 3.83579 15.3243 4.25V10.6713C15.7067 10.4756 16.072 10.216 16.4384 9.87692L16.8243 9.51975V4.25C16.8243 3.00736 15.817 2 14.5743 2H4.25C3.00736 2 2 3.00736 2 4.25V18.25C2 19.4926 3.00736 20.5 4.25 20.5H12.5552L12.5483 20.4899C12.2352 20.0319 11.9553 19.5372 11.713 19H4.25C3.83579 19 3.5 18.6642 3.5 18.25V4.25Z" fill="black"/>
<path d="M5.50586 13.0269H10.6602V13.4475C10.6602 13.8192 10.6705 14.1788 10.6909 14.5269H5.50586V13.0269Z" fill="black"/>
<path d="M13.3167 10.8516H5.50586V9.35156H13.3167V10.8516Z" fill="black"/>
<path d="M5.50586 7.17578H13.3167V5.67578H5.50586V7.17578Z" fill="black"/>
<path d="M16.7066 15.9513V14.5356H18.2066V15.9513H19.6223V17.4513H18.2066V18.8669H16.7066V17.4513H15.291V15.9513H16.7066Z" fill="black"/>
<path d="M17.4572 10.978L17.9666 11.4494C18.9825 12.3896 20.2912 12.6659 22.018 12.6978L22.7541 12.7114V13.4477C22.7541 16.2761 22.1056 18.2131 21.1276 19.6435C20.1649 21.0517 18.9213 21.9049 17.8926 22.6107L17.4571 22.9095L17.0217 22.6107C15.9929 21.9049 14.7493 21.0517 13.7866 19.6435C12.8086 18.213 12.1602 16.2761 12.1602 13.4477V12.7114L12.8963 12.6978C14.6231 12.6659 15.9319 12.3896 16.9478 11.4494L17.4572 10.978ZM13.6761 14.1671C13.7749 16.3414 14.3226 17.7698 15.0249 18.797C15.7062 19.7936 16.5635 20.4629 17.4571 21.0882C18.3506 20.4629 19.2079 19.7936 19.8893 18.7969C20.5916 17.7698 21.1394 16.3414 21.2382 14.1671C19.8815 14.0782 18.5817 13.7864 17.4572 12.9691C16.3326 13.7864 15.0327 14.0782 13.6761 14.1671Z" fill="black"/>
</svg>
