<svg width="24" height="24" viewBox="0 0 24 24" fill="none" xmlns="http://www.w3.org/2000/svg">
<path d="M2 5.44043C2 4.19779 3.00736 3.19043 4.25 3.19043H19.75C20.9926 3.19043 22 4.19779 22 5.44043V12.4544C21.5502 12.0865 21.0455 11.7834 20.5 11.5591V9.94043H3.5V16.7904C3.5 17.2046 3.83579 17.5404 4.25 17.5404H12.3243C12.3667 18.0624 12.4765 18.5653 12.6452 19.0404H4.25C3.00736 19.0404 2 18.0331 2 16.7904V5.44043ZM4.25 4.69043C3.83579 4.69043 3.5 5.02622 3.5 5.44043V7.94043H20.5V5.44043C20.5 5.02622 20.1642 4.69043 19.75 4.69043H4.25Z" fill="black"/>
<path d="M4.75 15.6904H8.72656V14.1904H4.75V15.6904Z" fill="black"/>
<path d="M18.9928 16.304L18.9927 13.2983L17.4927 13.2984L17.4928 16.304L14.4873 16.3041L14.4873 17.8041L17.4928 17.804L17.4929 20.8094L18.9929 20.8093L18.9928 17.804L21.9983 17.8039L21.9983 16.3039L18.9928 16.304Z" fill="black"/>
</svg>
