<svg width="24" height="24" viewBox="0 0 24 24" fill="none" xmlns="http://www.w3.org/2000/svg">
<path d="M4.74414 12.3003H17.4941V13.8003H4.74414V12.3003Z" fill="black"/>
<path d="M9.5 10.4502H4.75V7.2002H9.5V10.4502Z" fill="black"/>
<path d="M2 6.32519C2 5.08255 3.00736 4.0752 4.25 4.0752H19.75C20.9926 4.0752 22 5.08255 22 6.3252V17.6752C22 18.9178 20.9926 19.9252 19.75 19.9252H4.25C3.00736 19.9252 2 18.9178 2 17.6752V6.32519ZM4.25 5.5752C3.83579 5.5752 3.5 5.91098 3.5 6.32519V17.6752C3.5 18.0894 3.83579 18.4252 4.25 18.4252H19.75C20.1642 18.4252 20.5 18.0894 20.5 17.6752V6.3252C20.5 5.91098 20.1642 5.5752 19.75 5.5752H4.25Z" fill="black"/>
</svg>
