<svg width="24" height="24" viewBox="0 0 24 24" fill="none" xmlns="http://www.w3.org/2000/svg">
<path d="M4.75 16.575H8.72656V15.075H4.75V16.575Z" fill="black"/>
<path d="M2 6.32495C2 5.08231 3.00736 4.07495 4.25 4.07495H19.75C20.9926 4.07495 22 5.08231 22 6.32495V17.675C22 18.9176 20.9926 19.925 19.75 19.925H4.25C3.00736 19.925 2 18.9176 2 17.675V6.32495ZM4.25 5.57495C3.83579 5.57495 3.5 5.91074 3.5 6.32495V8.82495H20.5V6.32495C20.5 5.91074 20.1642 5.57495 19.75 5.57495H4.25ZM3.5 17.675C3.5 18.0892 3.83579 18.425 4.25 18.425H19.75C20.1642 18.425 20.5 18.0892 20.5 17.675V10.825H3.5V17.675Z" fill="black"/>
</svg>
