<svg width="24" height="24" viewBox="0 0 24 24" fill="none" xmlns="http://www.w3.org/2000/svg">
<path d="M9.37988 14.5437H8.31454C8.30034 14.4343 8.27122 14.3356 8.22718 14.2475C8.18315 14.1595 8.12491 14.0842 8.05247 14.0217C7.98002 13.9592 7.89409 13.9116 7.79466 13.8789C7.69664 13.8448 7.58798 13.8278 7.46866 13.8278C7.25701 13.8278 7.07448 13.8796 6.92108 13.9833C6.76909 14.087 6.6519 14.2369 6.56951 14.4329C6.48855 14.6289 6.44806 14.8661 6.44806 15.1446C6.44806 15.4343 6.48926 15.6772 6.57164 15.8732C6.65545 16.0678 6.77264 16.2149 6.92321 16.3143C7.0752 16.4123 7.25488 16.4613 7.46227 16.4613C7.57875 16.4613 7.68457 16.4464 7.77974 16.4166C7.87633 16.3867 7.96085 16.3434 8.03329 16.2866C8.10716 16.2284 8.16753 16.158 8.2144 16.0757C8.2627 15.9919 8.29608 15.8974 8.31454 15.7923L9.37988 15.7987C9.36142 15.9919 9.30531 16.1822 9.21156 16.3697C9.11923 16.5572 8.9921 16.7284 8.83017 16.8832C8.66824 17.0366 8.47079 17.1588 8.23784 17.2497C8.0063 17.3406 7.74068 17.386 7.44096 17.386C7.04608 17.386 6.69238 17.2994 6.37988 17.1261C6.0688 16.9514 5.82306 16.6971 5.64267 16.3633C5.46227 16.0295 5.37207 15.6232 5.37207 15.1446C5.37207 14.6644 5.46369 14.2575 5.64693 13.9237C5.83017 13.5899 6.07804 13.3363 6.39054 13.163C6.70304 12.9897 7.05318 12.9031 7.44096 12.9031C7.70517 12.9031 7.94949 12.94 8.17392 13.0139C8.39835 13.0863 8.59579 13.1928 8.76625 13.3335C8.9367 13.4727 9.0752 13.6438 9.18173 13.847C9.28826 14.0501 9.35431 14.2823 9.37988 14.5437Z" fill="black"/>
<path d="M10.9742 12.9627L11.95 16.1588H11.9862L12.9621 12.9627H14.1425L12.6702 17.3264H11.2661L9.79377 12.9627H10.9742Z" fill="black"/>
<path d="M16.5789 16.1588L15.6031 12.9627H14.4227L15.895 17.3264H17.2991L18.7714 12.9627H17.591L16.6151 16.1588H16.5789Z" fill="black"/>
<path d="M2 6.32471C2 5.08206 3.00736 4.07471 4.25 4.07471H19.75C20.9926 4.07471 22 5.08207 22 6.32471V17.6747C22 18.9173 20.9926 19.9247 19.75 19.9247H4.25C3.00736 19.9247 2 18.9173 2 17.6747V6.32471ZM4.25 5.57471C3.83579 5.57471 3.5 5.91049 3.5 6.32471V8.82471H20.5V6.32471C20.5 5.91049 20.1642 5.57471 19.75 5.57471H4.25ZM3.5 17.6747C3.5 18.0889 3.83579 18.4247 4.25 18.4247H19.75C20.1642 18.4247 20.5 18.0889 20.5 17.6747V10.8247H3.5V17.6747Z" fill="black"/>
</svg>
