<svg width="24" height="24" viewBox="0 0 24 24" fill="none" xmlns="http://www.w3.org/2000/svg">
<path d="M2 5.3313C2 4.08866 3.00736 3.0813 4.25 3.0813H19.75C20.9926 3.0813 22 4.08866 22 5.3313V13.1381C21.5581 12.7236 21.0527 12.376 20.5 12.1113V9.8313H3.5V16.6813C3.5 17.0955 3.83579 17.4313 4.25 17.4313H12.0001L12 17.4705C12 17.9745 12.0628 18.464 12.181 18.9313H4.25C3.00736 18.9313 2 17.9239 2 16.6813V5.3313ZM4.25 4.5813C3.83579 4.5813 3.5 4.91708 3.5 5.3313V7.8313H20.5V5.3313C20.5 4.91709 20.1642 4.5813 19.75 4.5813H4.25Z" fill="black"/>
<path d="M4.75 15.5813H8.72656V14.0813H4.75V15.5813Z" fill="black"/>
<path d="M16.9936 20.9185L21.9999 15.9122L20.9393 14.8516L16.9936 18.7971L15.0998 16.9031L14.0391 17.9637L16.9936 20.9185Z" fill="black"/>
</svg>
