<svg width="24" height="24" viewBox="0 0 24 24" fill="none" xmlns="http://www.w3.org/2000/svg">
<path d="M4.9375 6.36084V6.10034C4.9375 5.13384 5.721 4.35034 6.6875 4.35034H9.12293C10.0894 4.35034 10.8729 5.13384 10.8729 6.10034V6.36084L14.1307 6.36084V7.86084H13.1286V17.1506C13.1286 18.3932 12.1213 19.4006 10.8786 19.4006H4.93359C3.69095 19.4006 2.68359 18.3932 2.68359 17.1506V7.86084H1.68066V6.36084L4.9375 6.36084ZM6.4375 6.10034V6.36084L9.37293 6.36084V6.10034C9.37293 5.96227 9.261 5.85034 9.12293 5.85034H6.6875C6.54943 5.85034 6.4375 5.96227 6.4375 6.10034ZM11.6286 7.86084L4.18359 7.86084V17.1506C4.18359 17.5648 4.51938 17.9006 4.93359 17.9006H10.8786C11.2928 17.9006 11.6286 17.5648 11.6286 17.1506V7.86084Z" fill="black"/>
<path d="M22.3398 9.86939V8.36939L15.0908 8.36938V9.86938L22.3398 9.86939Z" fill="black"/>
<path d="M15.0908 13.9546L21.2979 13.9546V12.4546L15.0908 12.4546V13.9546Z" fill="black"/>
<path d="M19.2432 18.0396H15.0908V16.5396H19.2432V18.0396Z" fill="black"/>
</svg>
