<svg width="24" height="24" viewBox="0 0 24 24" fill="none" xmlns="http://www.w3.org/2000/svg">
<path d="M12.755 11.1219L14.6959 13.0782L15.7607 12.0217L12.005 8.23633L8.24893 12.0216L9.31369 13.0782L11.255 11.1218V15.8762H12.755V11.1219Z" fill="black"/>
<path d="M8.0127 4.17188V4.39453L3.75 4.39453V5.89453H4.72754V19.0491C4.72754 20.2917 5.7349 21.2991 6.97754 21.2991H17.0322C18.2749 21.2991 19.2822 20.2917 19.2822 19.0491V5.89453H20.25V4.39453L15.9859 4.39453V4.17188C15.9859 2.92923 14.9786 1.92188 13.7359 1.92188H10.2627C9.02005 1.92188 8.0127 2.92923 8.0127 4.17188ZM10.2627 3.42188H13.7359C14.1501 3.42188 14.4859 3.75766 14.4859 4.17188V4.39453L9.5127 4.39453V4.17188C9.5127 3.75766 9.84848 3.42188 10.2627 3.42188ZM17.7822 5.89453V19.0491C17.7822 19.4633 17.4464 19.7991 17.0322 19.7991H6.97754C6.56333 19.7991 6.22754 19.4633 6.22754 19.0491V5.89453L17.7822 5.89453Z" fill="black"/>
</svg>
