<svg width="24" height="24" viewBox="0 0 24 24" fill="none" xmlns="http://www.w3.org/2000/svg">
<path d="M8.9082 7.35352C8.9082 8.18194 8.23663 8.85352 7.4082 8.85352C6.57978 8.85352 5.9082 8.18194 5.9082 7.35352C5.9082 6.52509 6.57978 5.85352 7.4082 5.85352C8.23663 5.85352 8.9082 6.52509 8.9082 7.35352Z" fill="black"/>
<path d="M3.79492 2.92188C3.38071 2.92188 3.04492 3.25766 3.04492 3.67188V11.0356C3.04492 11.4499 3.38071 11.7856 3.79492 11.7856H20.2051C20.6193 11.7856 20.9551 11.4499 20.9551 11.0356V3.67188C20.9551 3.25766 20.6193 2.92188 20.2051 2.92188H3.79492ZM4.54492 10.2856V4.42188H19.4551V10.2856H4.54492Z" fill="black"/>
<path d="M7.4082 16.0957C8.23663 16.0957 8.9082 16.7673 8.9082 17.5957C8.9082 18.4241 8.23663 19.0957 7.4082 19.0957C6.57978 19.0957 5.9082 18.4241 5.9082 17.5957C5.9082 16.7673 6.57978 16.0957 7.4082 16.0957Z" fill="black"/>
<path d="M3.79492 22.0278C3.38071 22.0278 3.04492 21.692 3.04492 21.2778V13.9141C3.04492 13.4998 3.38071 13.1641 3.79492 13.1641H20.2051C20.6193 13.1641 20.9551 13.4998 20.9551 13.9141V21.2778C20.9551 21.692 20.6193 22.0278 20.2051 22.0278H3.79492ZM4.54492 14.6641V20.5278H19.4551V14.6641H4.54492Z" fill="black"/>
</svg>
