<svg width="24" height="24" viewBox="0 0 24 24" fill="none" xmlns="http://www.w3.org/2000/svg">
<path d="M12.7252 6.46137V4.82861H11.2252V6.44729C10.6323 6.56412 10.0507 6.83439 9.53211 7.29023L9.50726 7.31208L9.48443 7.33603C8.23529 8.64628 8.34638 10.7523 10.0633 11.7263C10.7558 12.1191 11.4381 12.3397 11.9987 12.521C12.0699 12.544 12.1391 12.5664 12.2061 12.5884C12.8306 12.7936 13.2494 12.9628 13.5734 13.2583C13.9949 13.6426 14.1717 14.0802 14.1736 14.4669C14.1755 14.8478 14.0091 15.2524 13.5998 15.5921C13.3005 15.8405 12.87 15.9779 12.3866 16.0065H11.9953C11.3674 15.9711 10.8811 15.7791 10.711 15.6445C10.4324 15.4241 10.2197 15.1817 10.0765 14.993C9.90299 14.7643 9.76994 14.5115 9.63675 14.2584C9.59961 14.1878 9.56245 14.1172 9.52441 14.0471L8.20605 14.7626C8.23981 14.8248 8.27319 14.8871 8.30656 14.9495C8.4817 15.2766 8.65635 15.6028 8.88153 15.8996C9.07953 16.1606 9.37809 16.5026 9.78022 16.8208C10.1368 17.1029 10.661 17.3076 11.2252 17.4181V19.1606H12.7252V17.4819C13.3589 17.409 14.0168 17.1953 14.5577 16.7464C15.2871 16.141 15.6778 15.321 15.6736 14.4595C15.6693 13.6038 15.2767 12.7814 14.5841 12.1499C13.9982 11.6157 13.2947 11.3672 12.6742 11.1633C12.602 11.1396 12.5304 11.1163 12.4593 11.0932C11.8905 10.9084 11.355 10.7344 10.8034 10.4216C10.0458 9.9918 9.91476 9.08276 10.5478 8.39493C11.5394 7.5494 12.9967 7.81671 13.7557 8.6976L14.2453 9.26577L15.3816 8.28663L14.8921 7.71846C14.3529 7.09271 13.5748 6.63909 12.7252 6.46137Z" fill="black"/>
<path d="M12 2C6.47715 2 2 6.47715 2 12C2 17.5228 6.47715 22 12 22C17.5228 22 22 17.5228 22 12C22 6.47715 17.5228 2 12 2ZM3.5 12C3.5 7.30558 7.30558 3.5 12 3.5C16.6944 3.5 20.5 7.30558 20.5 12C20.5 16.6944 16.6944 20.5 12 20.5C7.30558 20.5 3.5 16.6944 3.5 12Z" fill="black"/>
</svg>
