<svg width="24" height="24" viewBox="0 0 24 24" fill="none" xmlns="http://www.w3.org/2000/svg">
<path d="M10.2503 9.16455H13.752V12.9845H16.019L12.0012 17.0023L7.9834 12.9845H10.2503V9.16455Z" fill="black"/>
<path d="M12.0015 4.24023C15.5604 4.24023 18.4926 6.84325 19.2356 10.28C21.7501 10.3953 23.7534 12.4704 23.7534 15.0133C23.7534 17.6303 21.6319 19.7517 19.0149 19.7517H5.97927C2.80645 19.7517 0.234375 17.1797 0.234375 14.0069C0.234375 11.0048 2.56056 8.54901 5.48693 8.28539C6.73908 5.8869 9.17412 4.24023 12.0015 4.24023ZM6.50487 9.67415C5.83359 9.71784 5.18684 9.81445 4.79268 9.93793C3.0297 10.4607 1.73438 12.0883 1.73438 14.0069C1.73438 16.3512 3.63488 18.2517 5.97927 18.2517H19.0149C20.8035 18.2517 22.2534 16.8019 22.2534 15.0133C22.2534 13.4974 21.2118 12.2248 19.8052 11.872C19.354 11.7505 18.6933 11.7199 17.9115 11.7003C17.7668 8.35127 15.144 5.74023 12.0015 5.74023C9.52868 5.74023 7.38177 7.35221 6.50487 9.67415Z" fill="black"/>
</svg>
