<svg width="24" height="24" viewBox="0 0 24 24" fill="none" xmlns="http://www.w3.org/2000/svg">
<path fill-rule="evenodd" clip-rule="evenodd" d="M6.67773 15.8398C9.81346 15.8398 12.3555 13.2978 12.3555 10.1621C12.3555 7.02638 9.81346 4.48438 6.67773 4.48438C3.54201 4.48438 1 7.02638 1 10.1621C1 13.2978 3.54201 15.8398 6.67773 15.8398ZM6.67773 14.3398C8.98503 14.3398 10.8555 12.4694 10.8555 10.1621C10.8555 7.85481 8.98503 5.98438 6.67773 5.98438C4.37044 5.98438 2.5 7.85481 2.5 10.1621C2.5 12.4694 4.37044 14.3398 6.67773 14.3398ZM11.1637 15.7656C10.1896 16.5465 9.00753 17.0786 7.71376 17.2656H13.3445C13.6775 18.5595 14.8521 19.5156 16.25 19.5156C17.6479 19.5156 18.8225 18.5595 19.1555 17.2656H22.25C22.6642 17.2656 23 16.9298 23 16.5156V13.1552C23 11.8444 22.0747 10.7157 20.7893 10.4586L17.6198 9.82472L14.2197 6.42463C13.7977 6.00268 13.2254 5.76562 12.6287 5.76562H12.3519C12.8183 6.36671 13.1913 7.04389 13.4491 7.7754L16.8802 11.2065L20.4951 11.9295C21.0794 12.0464 21.5 12.5594 21.5 13.1552V15.7656H19.1555C18.8225 14.4717 17.6479 13.5156 16.25 13.5156C14.8521 13.5156 13.6775 14.4717 13.3445 15.7656H11.1637ZM16.25 15.0156C17.0784 15.0156 17.75 15.6872 17.75 16.5156C17.75 17.3441 17.0784 18.0156 16.25 18.0156C15.4216 18.0156 14.75 17.3441 14.75 16.5156C14.75 15.6872 15.4216 15.0156 16.25 15.0156ZM3.50396 9.80423L4.56462 8.74357L5.92779 10.1067L5.92779 7.3457L7.42779 7.3457L7.42779 10.1077L8.79188 8.74357L9.85254 9.80423L6.67825 12.9785L3.50396 9.80423Z" fill="black"/>
</svg>
