<svg width="24" height="24" viewBox="0 0 24 24" fill="none" xmlns="http://www.w3.org/2000/svg">
<path d="M11.8386 3.08952C12.1927 2.78917 12.7131 2.78917 13.0672 3.08952C15.118 4.82929 16.8272 6.61246 18.0283 8.40391C19.2283 10.1936 19.9497 12.0348 19.9497 13.874C19.9497 18.0849 16.583 21.2858 12.4586 21.3174L12.4471 21.3175C8.3228 21.2859 4.95605 18.0849 4.95605 13.874C4.95605 12.0348 5.6775 10.1936 6.87743 8.40391C8.07858 6.61246 9.78774 4.82929 11.8386 3.08952ZM8.12331 9.23925C7.02408 10.8787 6.45605 12.4307 6.45605 13.874C6.45605 17.2217 9.11725 19.7889 12.4529 19.8174C15.7885 19.7889 18.4497 17.2217 18.4497 13.874C18.4497 12.4307 17.8817 10.8787 16.7825 9.23925C15.7508 7.70056 14.2762 6.12285 12.4529 4.53902C10.6295 6.12285 9.15498 7.70056 8.12331 9.23925Z" fill="black"/>
<path d="M8.36016 13.9096C8.77125 13.8588 9.14568 14.1509 9.19649 14.5619L9.20125 14.6005C9.40401 16.2412 10.8985 17.4069 12.5392 17.2042C12.9503 17.1533 13.3247 17.4454 13.3755 17.8565C13.4263 18.2676 13.1342 18.642 12.7232 18.6928C10.2603 18.9972 8.01694 17.2474 7.71257 14.7844L7.70781 14.7459C7.65701 14.3348 7.94907 13.9604 8.36016 13.9096Z" fill="black"/>
</svg>
