<svg width="24" height="24" viewBox="0 0 24 24" fill="none" xmlns="http://www.w3.org/2000/svg">
<path d="M16.2509 9.89675H7.75021V8.43427H16.2509V9.89675Z" fill="black"/>
<path d="M12.6042 12.3453H7.75021V10.8828H12.6042V12.3453Z" fill="black"/>
<path d="M11.9996 1.70874L16.0672 4.74885H18.0942C19.0365 4.74885 19.8004 5.51276 19.8004 6.45508V7.53901L21.6031 8.88633C22.1573 9.30047 22.4836 9.95172 22.4836 10.6435V20.6393C22.4836 21.8508 21.5014 22.833 20.2898 22.833H3.70935C2.49779 22.833 1.51562 21.8508 1.51562 20.6393V10.6435C1.51562 9.95172 1.84193 9.30047 2.39605 8.88633L4.20065 7.53759V6.45508C4.20065 5.51276 4.96455 4.74885 5.90688 4.74885H7.93196L11.9996 1.70874ZM10.3749 4.74885H13.6243L11.9996 3.53455L10.3749 4.74885ZM4.20065 9.3634L3.27158 10.0578C3.08687 10.1958 2.97811 10.4129 2.97811 10.6435V11.8611L4.20065 12.4679V9.3634ZM5.66313 13.1938L12.0001 16.3393L18.338 13.1934V6.45508C18.338 6.32046 18.2288 6.21133 18.0942 6.21133H5.90688C5.77226 6.21133 5.66313 6.32046 5.66313 6.45508V13.1938ZM19.8004 12.4675L21.0211 11.8616V10.6435C21.0211 10.4129 20.9123 10.1958 20.7276 10.0578L19.8004 9.36483V12.4675ZM2.97811 20.6393C2.97811 21.0431 3.30549 21.3705 3.70935 21.3705H20.2898C20.6937 21.3705 21.0211 21.0431 21.0211 20.6393V13.4944L12.0001 17.972L2.97811 13.4938V20.6393Z" fill="black"/>
</svg>
