<svg width="24" height="24" viewBox="0 0 24 24" fill="none" xmlns="http://www.w3.org/2000/svg">
<path d="M8.39857 10.7532C9.15588 10.7532 9.76979 10.1393 9.76979 9.38197C9.76979 8.62466 9.15588 8.01074 8.39857 8.01074C7.64126 8.01074 7.02734 8.62466 7.02734 9.38197C7.02734 10.1393 7.64126 10.7532 8.39857 10.7532Z" fill="black"/>
<path d="M16.9553 9.38197C16.9553 10.1393 16.3414 10.7532 15.5841 10.7532C14.8268 10.7532 14.2129 10.1393 14.2129 9.38197C14.2129 8.62466 14.8268 8.01074 15.5841 8.01074C16.3414 8.01074 16.9553 8.62466 16.9553 9.38197Z" fill="black"/>
<path d="M12.0006 17.6119C9.57375 17.6119 7.5067 16.0715 6.72391 13.915H8.3609C9.04967 15.2214 10.4211 16.1119 12.0006 16.1119C13.58 16.1119 14.9515 15.2214 15.6403 13.915H17.2773C16.4945 16.0715 14.4274 17.6119 12.0006 17.6119Z" fill="black"/>
<path d="M12 2C6.47715 2 2 6.47715 2 12C2 17.5228 6.47715 22 12 22C17.5228 22 22 17.5228 22 12C22 6.47715 17.5228 2 12 2ZM3.5 12C3.5 7.30558 7.30558 3.5 12 3.5C16.6944 3.5 20.5 7.30558 20.5 12C20.5 16.6944 16.6944 20.5 12 20.5C7.30558 20.5 3.5 16.6944 3.5 12Z" fill="black"/>
</svg>
