<svg width="24" height="24" viewBox="0 0 24 24" fill="none" xmlns="http://www.w3.org/2000/svg">
<path d="M17.5248 5.72628L12.1847 5.27734L8.13645 8.36991L8.2793 8.78773L8.28005 8.7905C8.28221 8.79864 8.28627 8.81519 8.29031 8.83829C8.29862 8.88579 8.30544 8.95282 8.29988 9.02728C8.28968 9.16416 8.24111 9.3266 8.04906 9.47332C7.79778 9.66527 7.56087 9.72132 7.39313 9.73411C7.3075 9.74064 7.23903 9.73581 7.19643 9.73048C7.1753 9.72783 7.16112 9.72513 7.15522 9.72392L6.86488 9.6433L5.71936 10.5186C5.2257 10.8958 5.13127 11.6018 5.50841 12.0955L6.80065 13.787C7.17783 14.2808 7.88385 14.3753 8.37758 13.9981L9.57768 13.0813L9.51425 12.7185C9.51369 12.7124 9.51267 12.6989 9.51254 12.6793C9.51226 12.6373 9.51607 12.5714 9.53469 12.4927C9.56988 12.3439 9.66121 12.1306 9.92504 11.929C10.1786 11.7353 10.3342 11.7521 10.4066 11.7698C10.4562 11.7818 10.5018 11.8041 10.5399 11.8303C10.5712 11.8517 10.5886 11.8694 10.5928 11.8738L15.8249 18.7227L18.7228 16.5089L13.4986 9.67039C13.4958 9.66181 13.4842 9.62503 13.4856 9.54453C13.4875 9.42794 13.5169 9.27317 13.5804 9.10493C13.7174 8.742 13.9397 8.49508 14.1025 8.42246C15.0663 7.99257 15.9651 7.61994 16.6233 7.3547C16.9522 7.22215 17.2205 7.1166 17.4063 7.04431C17.4992 7.00818 17.5714 6.98036 17.6202 6.96166L17.6755 6.94055L17.6935 6.9336L17.5248 5.72628ZM12.5604 6.56334L14.8089 6.75237C14.4258 6.9149 14.0159 7.09241 13.5933 7.28087C13.0034 7.54399 12.6081 8.14128 12.4109 8.66345C12.3074 8.93777 12.2405 9.23577 12.2358 9.52375C12.2342 9.61658 12.2391 9.71617 12.2543 9.81808L11.0928 10.7054C10.9772 10.6431 10.8465 10.5903 10.702 10.5551C10.2375 10.4422 9.69843 10.5291 9.16621 10.9357C8.64427 11.3344 8.41112 11.8124 8.31826 12.2049C8.2922 12.3151 8.27744 12.4172 8.26974 12.5074L7.71809 12.9289L6.57761 11.436L7.17055 10.9829C7.26182 10.9886 7.3689 10.9896 7.48816 10.9805C7.85453 10.9526 8.33322 10.8292 8.80788 10.4666C9.34176 10.0588 9.51565 9.53297 9.54642 9.12022C9.55327 9.02833 9.55318 8.94217 9.54898 8.86385L12.5604 6.56334ZM11.9656 11.6116L12.8768 10.9155L16.9706 16.2744L16.0594 16.9706L11.9656 11.6116Z" fill="black"/>
<path d="M4.25 2C3.00736 2 2 3.00736 2 4.25V19.75C2 20.9926 3.00736 22 4.25 22H19.75C20.9926 22 22 20.9926 22 19.75V4.25C22 3.00736 20.9926 2 19.75 2H4.25ZM3.5 4.25C3.5 3.83579 3.83579 3.5 4.25 3.5H19.75C20.1642 3.5 20.5 3.83579 20.5 4.25V19.75C20.5 20.1642 20.1642 20.5 19.75 20.5H4.25C3.83579 20.5 3.5 20.1642 3.5 19.75V4.25Z" fill="black"/>
</svg>
