<svg width="24" height="24" viewBox="0 0 24 24" fill="none" xmlns="http://www.w3.org/2000/svg">
<path d="M4.25 2C3.00736 2 2 3.00736 2 4.25V19.75C2 20.9926 3.00736 22 4.25 22H10.3199C10.1266 21.6761 10.0195 21.3011 10.0195 20.9108V20.5H4.25C3.83579 20.5 3.5 20.1642 3.5 19.75V4.25C3.5 3.83579 3.83579 3.5 4.25 3.5H19.75C20.1642 3.5 20.5 3.83579 20.5 4.25V11.3224L20.8711 11.5341C21.4859 11.8847 21.9376 12.5161 22 13.2147V4.25C22 3.00736 20.9926 2 19.75 2H4.25Z" fill="black"/>
<path d="M13.4986 9.67039L14.5377 11.0305L13.6544 11.5317C13.5829 11.5723 13.5143 11.6166 13.4489 11.6644L12.8768 10.9155L11.9656 11.6116L12.7244 12.6049C12.6291 12.8481 12.578 13.1103 12.578 13.3799V14.4725L10.5928 11.8738C10.5886 11.8694 10.5712 11.8517 10.5399 11.8303C10.5018 11.8041 10.4562 11.7818 10.4066 11.7698C10.3342 11.7521 10.1786 11.7353 9.92504 11.929C9.66121 12.1306 9.56988 12.3439 9.53469 12.4927C9.51607 12.5714 9.51226 12.6373 9.51254 12.6793C9.51267 12.6989 9.51369 12.7124 9.51425 12.7185L9.57768 13.0813L8.37758 13.9981C7.88385 14.3753 7.17783 14.2808 6.80065 13.787L5.50841 12.0955C5.13127 11.6018 5.2257 10.8958 5.71936 10.5186L6.86488 9.6433L7.15522 9.72392C7.16112 9.72513 7.1753 9.72783 7.19643 9.73048C7.23903 9.73581 7.3075 9.74064 7.39313 9.73411C7.56087 9.72132 7.79778 9.66527 8.04906 9.47332C8.24111 9.3266 8.28968 9.16416 8.29988 9.02728C8.30544 8.95282 8.29862 8.88579 8.29031 8.83829C8.28627 8.81519 8.28221 8.79864 8.28005 8.7905L8.2793 8.78773L8.13645 8.36991L12.1847 5.27734L17.5248 5.72628L17.6935 6.9336L17.6755 6.94055L17.6202 6.96166C17.5714 6.98036 17.4992 7.00818 17.4063 7.04431C17.2205 7.1166 16.9522 7.22215 16.6233 7.3547C15.9651 7.61994 15.0663 7.99257 14.1025 8.42246C13.9397 8.49508 13.7174 8.742 13.5804 9.10493C13.5169 9.27317 13.4875 9.42794 13.4856 9.54453C13.4842 9.62503 13.4958 9.66181 13.4986 9.67039ZM12.5604 6.56334L9.54898 8.86385C9.55318 8.94217 9.55327 9.02833 9.54642 9.12022C9.51565 9.53297 9.34176 10.0588 8.80788 10.4666C8.33322 10.8292 7.85453 10.9526 7.48816 10.9805C7.3689 10.9896 7.26182 10.9886 7.17055 10.9829L6.57761 11.436L7.71809 12.9289L8.26974 12.5074C8.27744 12.4172 8.2922 12.3151 8.31826 12.2049C8.41112 11.8124 8.64427 11.3344 9.16621 10.9357C9.69843 10.5291 10.2375 10.4422 10.702 10.5551C10.8465 10.5903 10.9772 10.6431 11.0928 10.7054L12.2543 9.81808C12.2391 9.71617 12.2342 9.61658 12.2358 9.52375C12.2405 9.23577 12.3074 8.93777 12.4109 8.66345C12.6081 8.14128 13.0034 7.54399 13.5933 7.28087C14.0159 7.09241 14.4258 6.9149 14.8089 6.75237L12.5604 6.56334Z" fill="black"/>
<path d="M14.078 13.3799V16.0567L11.8342 17.3404C11.6396 17.4517 11.5195 17.6587 11.5195 17.8829V20.9108C11.5195 21.1345 11.6391 21.3412 11.8331 21.4526L14.3835 22.9186C14.5765 23.0295 14.814 23.0294 15.007 22.9183L17.2666 21.6164L19.516 22.9177C19.7102 23.0301 19.9498 23.0297 20.1437 22.9167L22.6865 21.4347C22.8786 21.3228 22.9968 21.1171 22.9968 20.8947V17.879C22.9968 17.655 22.877 17.4482 22.6826 17.3368L20.4433 16.053V13.3799C20.4433 13.1555 20.3229 12.9482 20.1279 12.837L17.6757 11.4384C17.423 11.2943 17.113 11.2939 16.8599 11.4375L14.3946 12.8363C14.1989 12.9474 14.078 13.155 14.078 13.3799ZM15.9577 13.3866L17.2665 12.644L18.5685 13.3866L17.2665 14.1479L15.9577 13.3866ZM17.8923 15.2299L19.1933 14.4693V16.0532L17.8923 16.7998V15.2299ZM18.5149 17.8837L19.8184 17.1357L21.1272 17.8859L19.8278 18.65L18.5149 17.8837ZM20.454 19.7319L21.7468 18.9716V20.5356L20.454 21.2891V19.7319ZM19.204 19.7333V21.2931L17.8923 20.5343V18.9676L19.204 19.7333ZM16.6423 18.9653V20.5335L15.32 21.2953V19.734L16.6423 18.9653ZM14.07 19.7329V21.2966L12.7695 20.5491V18.9724L14.07 19.7329ZM14.6959 18.6509L13.3928 17.8888L14.7038 17.1388L16.014 17.8847L14.6959 18.6509ZM16.6423 16.804L15.328 16.0558V14.4665L16.6423 15.2309V16.804Z" fill="black"/>
</svg>
