<svg width="24" height="24" viewBox="0 0 24 24" fill="none" xmlns="http://www.w3.org/2000/svg">
<path d="M13.3589 4.77924L19.0316 10.4519C19.3245 10.7448 19.3245 11.2197 19.0316 11.5126L16.3834 14.1607L9.64985 7.42755L12.2982 4.77923C12.5911 4.48635 13.066 4.48635 13.3589 4.77924ZM15.3228 15.2214L11.2942 19.25H8.73105L3.80951 14.3284C3.51662 14.0355 3.51662 13.5607 3.80952 13.2678L8.58918 8.4882L15.3228 15.2214ZM13.4155 19.25L20.0922 12.5732C20.9709 11.6946 20.9709 10.2699 20.0922 9.39127L14.4195 3.71858C13.5409 2.83991 12.1163 2.8399 11.2376 3.71856L2.74887 12.2071C1.87018 13.0858 1.87017 14.5104 2.74885 15.3891L8.10973 20.75H20.7798V19.25H13.4155Z" fill="black"/>
</svg>
