<svg width="24" height="24" viewBox="0 0 24 24" fill="none" xmlns="http://www.w3.org/2000/svg">
<path d="M11.9992 4.13818C9.30655 4.13818 7.03662 4.98038 5.03637 6.35289C4.08904 7.00292 3.2331 7.91128 2.55922 8.78932C1.88679 9.66546 1.35868 10.5599 1.08967 11.215L0.972656 11.4999L1.08967 11.7848C1.35868 12.4399 1.88678 13.3344 2.55921 14.2106C3.23308 15.0886 4.08903 15.9971 5.03637 16.6471C7.03662 18.0196 9.30655 18.8618 11.9992 18.8618L12.0602 18.8617L13.6926 17.2295C13.1495 17.3165 12.5859 17.3618 11.9992 17.3618C9.6481 17.3618 7.66929 16.6346 5.88505 15.4103C5.11092 14.8791 4.36512 14.0999 3.74917 13.2973C3.23938 12.6331 2.84385 11.986 2.60619 11.4999C2.84385 11.0139 3.23937 10.3668 3.74916 9.70258C4.3651 8.90003 5.11091 8.12091 5.88505 7.58972C7.66929 6.36543 9.6481 5.63818 11.9992 5.63818C14.3503 5.63818 16.3292 6.36543 18.1135 7.58972C18.8876 8.12091 19.6334 8.90003 20.2494 9.70258C20.7592 10.3668 21.1547 11.0138 21.3923 11.4999C21.3768 11.5317 21.3605 11.5642 21.3436 11.5974L22.4496 12.7034C22.6417 12.3683 22.7975 12.0561 22.9089 11.7848L23.0259 11.4999L22.9089 11.215C22.6398 10.5599 22.1117 9.66546 21.4393 8.78932C20.7654 7.91128 19.9095 7.00292 18.9621 6.35289C16.9619 4.98037 14.6918 4.13818 11.9992 4.13818Z" fill="black"/>
<path d="M11.999 7.05322C9.53166 7.05322 7.52051 9.03805 7.52051 11.4999C7.52051 13.9618 9.53166 15.9467 11.999 15.9467C14.4663 15.9467 16.4775 13.9618 16.4775 11.4999C16.4775 9.03805 14.4663 7.05322 11.999 7.05322ZM9.02051 11.4999C9.02051 9.87855 10.348 8.55322 11.999 8.55322C13.65 8.55322 14.9775 9.87855 14.9775 11.4999C14.9775 13.1213 13.65 14.4467 11.999 14.4467C10.348 14.4467 9.02051 13.1213 9.02051 11.4999Z" fill="black"/>
<path d="M20.8648 13.2397C20.5719 12.9468 20.097 12.9468 19.8041 13.2397L13.9609 19.0828V22.0025H16.9858L22.7764 16.212C22.9171 16.0714 22.9961 15.8806 22.9961 15.6817C22.9961 15.4828 22.9171 15.292 22.7764 15.1513L20.8648 13.2397ZM20.4828 16.3843L19.6318 15.5333L20.3344 14.8307L21.1854 15.6817L20.4828 16.3843ZM18.5711 16.594L19.4221 17.445L16.3645 20.5025H15.4609V19.7042L18.5711 16.594Z" fill="black"/>
</svg>
