<svg width="24" height="24" viewBox="0 0 24 24" fill="none" xmlns="http://www.w3.org/2000/svg">
<path d="M20.4102 22.524L16.0978 18.2118C14.8436 18.6774 13.4861 18.9368 11.9998 18.9368C9.30504 18.9368 7.03396 18.0841 5.03369 16.6957C4.08643 16.0383 3.2308 15.1196 2.55731 14.2319C1.88513 13.3459 1.35761 12.4419 1.08915 11.7807L0.974609 11.4986L1.08915 11.2164C1.35762 10.5552 1.88514 9.6512 2.55733 8.76526C3.11428 8.0312 3.7958 7.27599 4.55069 6.66479L1.4834 3.59753L2.54405 2.53687L5.80746 5.80023L5.80942 5.79905L6.90653 6.89614L6.90452 6.89727L8.44396 8.4367L8.44543 8.43502L9.5097 9.49927L9.50828 9.501L13.9928 13.9855L13.9946 13.9841L15.0602 15.0497L15.0585 15.0512L16.4447 16.4374L16.4469 16.4364L17.5635 17.553L17.5614 17.5541L21.4708 21.4634L20.4102 22.524ZM13.7316 15.8456C13.1953 16.0564 12.611 16.1721 12 16.1721C9.40646 16.1721 7.29297 14.0858 7.29297 11.4988C7.29297 10.8793 7.41416 10.2885 7.63412 9.74818L5.61842 7.7325C4.94186 8.25611 4.29649 8.95469 3.7523 9.67193C3.23998 10.3472 2.84275 11.0052 2.605 11.4986C2.84275 11.992 3.24 12.65 3.75231 13.3253C4.36865 14.1377 5.11477 14.9261 5.88898 15.4635C7.6732 16.7019 9.65086 17.4368 11.9998 17.4368C13.038 17.4368 14.0036 17.2932 14.9121 17.0261L13.7316 15.8456ZM8.79297 11.4988C8.79297 13.2454 10.2228 14.6722 12 14.6722C12.1779 14.6722 12.3524 14.6579 12.5222 14.6304L8.84098 10.9492C8.80942 11.1278 8.79297 11.3115 8.79297 11.4988Z" fill="black"/>
<path d="M19.2941 16.4551C20.1107 15.8241 20.8476 15.016 21.4425 14.2319C22.1146 13.3459 22.6422 12.4419 22.9106 11.7807L23.0252 11.4986L22.9106 11.2164C22.6422 10.5552 22.1146 9.6512 21.4424 8.76526C20.769 7.87761 19.9133 6.95904 18.9661 6.30157C16.9658 4.9132 14.6946 4.06055 11.9998 4.06055C10.4338 4.06055 9.01087 4.3485 7.70102 4.86221L8.87509 6.03626C9.84516 5.72747 10.8803 5.56055 11.9998 5.56055C14.3488 5.56055 16.3266 6.29544 18.1108 7.53383C18.885 8.07121 19.6311 8.8596 20.2475 9.67193C20.7598 10.3472 21.157 11.0052 21.3948 11.4986C21.157 11.992 20.7598 12.65 20.2475 13.3253C19.6609 14.0984 18.9568 14.8499 18.2228 15.3839L19.2941 16.4551Z" fill="black"/>
<path d="M15.2071 11.4988C15.2071 11.7653 15.1738 12.0244 15.111 12.2721L16.2819 13.443C16.5548 12.8514 16.7071 12.1932 16.7071 11.4988C16.7071 8.91173 14.5936 6.82544 12 6.82544C11.314 6.82544 10.6615 6.97142 10.0729 7.23403L11.2512 8.41229C11.4912 8.35552 11.742 8.32544 12 8.32544C13.7773 8.32544 15.2071 9.75223 15.2071 11.4988Z" fill="black"/>
</svg>
