<svg width="24" height="24" viewBox="0 0 24 24" fill="none" xmlns="http://www.w3.org/2000/svg">
<path d="M2 4.25C2 3.00736 3.00736 2 4.25 2H14.5743C15.817 2 16.8243 3.00736 16.8243 4.25V8.50645C16.7167 8.50217 16.6086 8.5 16.5 8.5C16.1006 8.5 15.708 8.52927 15.3243 8.58578V4.25C15.3243 3.83579 14.9885 3.5 14.5743 3.5H4.25C3.83579 3.5 3.5 3.83579 3.5 4.25V18.25C3.5 18.6642 3.83579 19 4.25 19H8.89838C9.07134 19.5262 9.29741 20.0283 9.57026 20.5H4.25C3.00736 20.5 2 19.4926 2 18.25V4.25Z" fill="black"/>
<path d="M9.29121 13.0269C9.0616 13.5026 8.87769 14.0045 8.74517 14.5269H5.50586V13.0269H9.29121Z" fill="black"/>
<path d="M12.9045 9.35156C12.1352 9.73929 11.437 10.2476 10.8347 10.8516H5.50586V9.35156H12.9045Z" fill="black"/>
<path d="M5.50586 7.17578H13.3167V5.67578H5.50586V7.17578Z" fill="black"/>
<path d="M15.75 13.35H14.8333C14.4191 13.35 14.0833 13.6858 14.0833 14.1V16.5C14.0833 16.9142 14.4191 17.25 14.8333 17.25H17.4167V18.15H14V19.65H15.75V20.5H17.25V19.65H18.1667C18.5809 19.65 18.9167 19.3142 18.9167 18.9V16.5C18.9167 16.0858 18.5809 15.75 18.1667 15.75H15.5833V14.85H19V13.35H17.25V12.5H15.75V13.35Z" fill="black"/>
<path d="M23 16.5C23 20.0899 20.0899 23 16.5 23C12.9101 23 10 20.0899 10 16.5C10 12.9101 12.9101 10 16.5 10C20.0899 10 23 12.9101 23 16.5ZM21.5 16.5C21.5 13.7386 19.2614 11.5 16.5 11.5C13.7386 11.5 11.5 13.7386 11.5 16.5C11.5 19.2614 13.7386 21.5 16.5 21.5C19.2614 21.5 21.5 19.2614 21.5 16.5Z" fill="black"/>
</svg>
