<svg width="24" height="24" viewBox="0 0 24 24" fill="none" xmlns="http://www.w3.org/2000/svg">
<path d="M7.10848 1.77783H16.5957C18.1145 1.77783 19.3457 3.00905 19.3457 4.52783V10.9931H17.8457V4.52783C17.8457 3.83748 17.286 3.27783 16.5957 3.27783H8.18845V7.70599H4.04297V19.4722C4.04297 20.1625 4.60261 20.7222 5.29297 20.7222H9.83316V22.2222H5.29297C3.77419 22.2222 2.54297 20.9909 2.54297 19.4722V6.6554L4.90831 4.17848L7.10848 1.77783ZM5.04623 6.20599H6.68845V4.45621L6.00375 5.2033L5.04623 6.20599Z" fill="black"/>
<path d="M18.1684 13.2718C18.4594 12.9895 18.922 12.9895 19.213 13.2718L21.2304 15.2294C21.376 15.3706 21.4582 15.5648 21.4582 15.7676C21.4582 15.9705 21.376 16.1646 21.2304 16.3059L15.1329 22.2222H12.0059V19.2513L18.1684 13.2718ZM17.9068 15.6157L18.8472 16.5282L19.6311 15.7676L18.6907 14.8551L17.9068 15.6157ZM17.7702 17.5733L16.8298 16.6607L13.5059 19.8859V20.7222H14.5248L17.7702 17.5733Z" fill="black"/>
<path d="M8.68944 15.9264L7.42704 17.8339L6.04686 17.834L6.04689 18.834L7.96441 18.8339L8.6593 17.7839L9.30622 18.8339H11.4452V17.8339H9.86467L8.68944 15.9264Z" fill="black"/>
<path d="M12.791 13.5432H6.46875V12.2932H12.791V13.5432Z" fill="black"/>
<path d="M6.44531 10.3188H15.4423V9.06885H6.44531V10.3188Z" fill="black"/>
</svg>
