<svg width="24" height="24" viewBox="0 0 24 24" fill="none" xmlns="http://www.w3.org/2000/svg">
<path d="M4 4.25C4 3.00736 5.00736 2 6.25 2H13.9104L20 8.09838V19.75C20 20.9926 18.9926 22 17.75 22H6.25C5.00736 22 4 20.9926 4 19.75V4.25ZM6.25 3.5C5.83579 3.5 5.5 3.83579 5.5 4.25V19.75C5.5 20.1642 5.83579 20.5 6.25 20.5H17.75C17.9432 20.5 18.1193 20.427 18.2522 20.307L14.3318 16.3866C13.6697 16.8404 12.8684 17.106 12.0051 17.106C9.72951 17.106 7.88477 15.2612 7.88477 12.9856C7.88477 10.71 9.72951 8.86523 12.0051 8.86523C14.2807 8.86523 16.1255 10.71 16.1255 12.9856C16.1255 13.856 15.8556 14.6633 15.395 15.3285L18.5 18.4335V8.71907L13.2885 3.5H6.25ZM9.38477 12.9856C9.38477 14.4328 10.5579 15.606 12.0051 15.606C13.4523 15.606 14.6255 14.4328 14.6255 12.9856C14.6255 11.5384 13.4523 10.3652 12.0051 10.3652C10.5579 10.3652 9.38477 11.5384 9.38477 12.9856Z" fill="black"/>
</svg>
