<svg width="24" height="24" viewBox="0 0 24 24" fill="none" xmlns="http://www.w3.org/2000/svg">
<path d="M5.25 3.5C4.83579 3.5 4.5 3.83579 4.5 4.25V19.75C4.5 20.1642 4.83579 20.5 5.25 20.5H9.94712V22H5.25C4.00736 22 3 20.9926 3 19.75V4.25C3 3.00736 4.00736 2 5.25 2H16.75C17.9926 2 19 3.00736 19 4.25V11.0167H17.5V4.25C17.5 3.83579 17.1642 3.5 16.75 3.5H5.25Z" fill="black"/>
<path d="M17.809 13.2372C18.1019 12.9444 18.5768 12.9444 18.8697 13.2372L20.7813 15.1489C20.922 15.2896 21.001 15.4803 21.001 15.6792C21.001 15.8781 20.922 16.0689 20.7813 16.2096L14.9907 22H11.9658V19.0804L17.809 13.2372ZM17.6367 15.5309L18.4877 16.3819L19.1903 15.6792L18.3393 14.8282L17.6367 15.5309ZM17.427 17.4425L16.576 16.5915L13.4658 19.7017V20.5H14.3694L17.427 17.4425Z" fill="black"/>
<path d="M6.75 15.5H12.75V14H6.75V15.5Z" fill="black"/>
<path d="M15.25 11.5H6.75V10H15.25V11.5Z" fill="black"/>
<path d="M6.75 7.5H15.25V6H6.75V7.5Z" fill="black"/>
</svg>
