<svg width="24" height="24" viewBox="0 0 24 24" fill="none" xmlns="http://www.w3.org/2000/svg">
<path d="M16.5957 1.77734H7.10848L4.90831 4.17799L2.54297 6.65491V19.4717C2.54297 20.9904 3.77419 22.2217 5.29297 22.2217H12.7228C12.1999 21.7929 11.7426 21.2871 11.3681 20.7217H5.29297C4.60261 20.7217 4.04297 20.162 4.04297 19.4717V7.7055H8.18845V3.27734H16.5957C17.286 3.27734 17.8457 3.83699 17.8457 4.52734V10.302C18.3664 10.3671 18.8688 10.4915 19.3457 10.6682V4.52734C19.3457 3.00856 18.1145 1.77734 16.5957 1.77734ZM6.68845 6.2055H5.04623L6.00375 5.20281L6.68845 4.45572V6.2055Z" fill="black"/>
<path d="M12.1617 12.2927H6.46875V13.5427H11.2011C11.4723 13.0888 11.7952 12.6694 12.1617 12.2927Z" fill="black"/>
<path d="M10.301 17.8334H9.86467L8.68944 15.9259L7.42704 17.8334L6.04686 17.8335L6.04689 18.8335L7.96441 18.8334L8.6593 17.7834L9.30622 18.8334H10.5021C10.4108 18.5093 10.3431 18.1753 10.301 17.8334Z" fill="black"/>
<path d="M15.4423 10.3184H6.44531V9.06836H15.4423V10.3184Z" fill="black"/>
<path d="M20.1179 15.8121L16.3318 19.5984L13.8984 17.1652L14.9591 16.1045L16.3318 17.4771L19.0572 14.7515L20.1179 15.8121Z" fill="black"/>
<path d="M17 11.7495C14.1005 11.7495 11.75 14.1 11.75 16.9995C11.75 19.899 14.1005 22.2495 17 22.2495C19.8995 22.2495 22.25 19.899 22.25 16.9995C22.25 14.1 19.8995 11.7495 17 11.7495ZM13.25 16.9995C13.25 14.9284 14.9289 13.2495 17 13.2495C19.0711 13.2495 20.75 14.9284 20.75 16.9995C20.75 19.0706 19.0711 20.7495 17 20.7495C14.9289 20.7495 13.25 19.0706 13.25 16.9995Z" fill="black"/>
</svg>
