<svg width="24" height="24" viewBox="0 0 24 24" fill="none" xmlns="http://www.w3.org/2000/svg">
<path d="M20 8.01471L13.9348 1.74023H7C5.34315 1.74023 4 3.08338 4 4.74023V19.2603C4 20.9171 5.34315 22.2603 7 22.2603H17C18.6569 22.2603 20 20.9171 20 19.2603V8.01471ZM18.5 9.81187V19.2603C18.5 20.0887 17.8284 20.7603 17 20.7603H7C6.17157 20.7603 5.5 20.0887 5.5 19.2603V4.74023C5.5 3.91181 6.17157 3.24023 7 3.24023H12.0918V9.81187H18.5ZM13.5918 3.60205L18.1752 8.31187H13.5918V3.60205Z" fill="black"/>
<path d="M15.0761 12.1696L13.8937 17.6925H12.6543L11.8004 14.5443L10.9453 17.6971H9.70588L8.52346 12.1741L8.47852 12.0046L9.79358 12.0046L10.466 15.2002L11.2766 12.1965H11.3263V12.1919H12.323L13.1336 15.1956L13.806 12L15.1211 12L15.0761 12.1696Z" fill="black"/>
</svg>
