<svg width="24" height="24" viewBox="0 0 24 24" fill="none" xmlns="http://www.w3.org/2000/svg">
<path d="M3.532 6.32367C3.53217 5.90958 3.8679 5.57397 4.282 5.57397H8.9951L11.2477 7.83932C14.7799 7.83932 18.3121 7.83984 21.8442 7.83984C21.5355 6.96568 20.7019 6.33932 19.7221 6.33932H11.8715L9.61889 4.07397H4.282C3.03971 4.07397 2.0325 5.08078 2.032 6.32307L2.02734 17.9362C2.02685 19.1792 3.03435 20.1871 4.27734 20.1871H18.6821C19.68 20.1871 20.5586 19.5299 20.8405 18.5727L23.2252 10.4751H6.60156L4.18523 18.6815C3.81436 18.636 3.52719 18.3199 3.52734 17.9368L3.532 6.32367ZM18.6821 18.6871H5.74725L7.72356 11.9751H21.2197L19.4016 18.1489C19.3076 18.468 19.0147 18.6871 18.6821 18.6871Z" fill="black"/>
</svg>
