<svg width="24" height="24" viewBox="0 0 24 24" fill="none" xmlns="http://www.w3.org/2000/svg">
<path d="M8.02735 13.5179C8.57678 13.2808 9.22265 13.0879 9.92675 12.9574C10.5775 12.8367 11.2786 12.7692 11.9986 12.7692C12.7185 12.7692 13.4188 12.8366 14.0695 12.9572C14.774 13.0877 15.4202 13.2807 15.9699 13.5179C16.4971 13.7455 16.9593 14.024 17.2986 14.3481C17.6335 14.668 17.8986 15.0832 17.8986 15.5719V18.0364H6.09863V15.5719C6.09863 15.0832 6.36378 14.668 6.69871 14.3481C7.03795 14.024 7.50013 13.7455 8.02735 13.5179ZM16.3986 15.5988L16.3977 15.597C16.382 15.5673 16.3427 15.5094 16.2624 15.4328C16.0931 15.271 15.8013 15.0789 15.3755 14.8951C14.529 14.5298 13.3204 14.2692 11.9986 14.2692C10.6769 14.2692 9.46825 14.5298 8.62177 14.8951C8.19593 15.0789 7.90418 15.271 7.73482 15.4328C7.65454 15.5094 7.61524 15.5673 7.59958 15.597L7.59863 15.5988V16.5364H16.3986V15.5988Z" fill="black"/>
<path d="M11.9979 11.9614C11.3391 11.9614 10.7299 11.749 10.2351 11.3889C9.48597 10.8437 8.99902 9.95996 8.99902 8.96253C8.99902 7.30628 10.3417 5.96362 11.9979 5.96362C13.6542 5.96362 14.9968 7.30628 14.9968 8.96253C14.9968 9.95986 14.51 10.8435 13.761 11.3887C13.2663 11.7488 12.6566 11.9613 11.9979 11.9614ZM10.499 8.96253C10.499 9.79035 11.1701 10.4614 11.9979 10.4614C12.8257 10.4614 13.4968 9.79035 13.4968 8.96253C13.4968 8.1347 12.8257 7.46362 11.9979 7.46362C11.1701 7.46362 10.499 8.1347 10.499 8.96253Z" fill="black"/>
<path d="M5.40137 8.8999C4.2968 8.8999 3.40137 9.79533 3.40137 10.8999C3.40137 12.0045 4.2968 12.8999 5.40137 12.8999C6.50594 12.8999 7.40137 12.0045 7.40137 10.8999C7.40137 9.79533 6.50594 8.8999 5.40137 8.8999ZM5.40137 10.3999C5.67751 10.3999 5.90137 10.6238 5.90137 10.8999C5.90137 11.176 5.67751 11.3999 5.40137 11.3999C5.12523 11.3999 4.90137 11.176 4.90137 10.8999C4.90137 10.6238 5.12523 10.3999 5.40137 10.3999Z" fill="black"/>
<path d="M18.5986 8.8999C19.7032 8.8999 20.5986 9.79533 20.5986 10.8999C20.5986 12.0045 19.7032 12.8999 18.5986 12.8999C17.4941 12.8999 16.5986 12.0045 16.5986 10.8999C16.5986 9.79533 17.4941 8.8999 18.5986 8.8999ZM19.0986 10.8999C19.0986 10.6238 18.8748 10.3999 18.5986 10.3999C18.3225 10.3999 18.0986 10.6238 18.0986 10.8999C18.0986 11.176 18.3225 11.3999 18.5986 11.3999C18.8748 11.3999 19.0986 11.176 19.0986 10.8999Z" fill="black"/>
<path d="M2.72002 14.3295C2.9662 14.2151 3.23779 14.1133 3.52886 14.027C4.09344 13.8597 4.73134 13.7509 5.39934 13.7225C5.09185 14.1263 4.82381 14.6511 4.76096 15.2882L4.74707 15.2903C4.20105 15.3734 3.72106 15.5184 3.35203 15.6898C3.05757 15.8266 2.87563 15.9608 2.78269 16.0563C2.7691 16.0703 2.75833 16.0826 2.75 16.0929V16.5364H4.74707V18.0364H1.25V16.0146C1.25 15.6136 1.45209 15.273 1.70737 15.0105C1.96592 14.7447 2.31818 14.5162 2.72002 14.3295Z" fill="black"/>
<path d="M21.28 14.3295C21.0338 14.2151 20.7622 14.1133 20.4711 14.027C19.9066 13.8597 19.2687 13.7509 18.6007 13.7225C18.9081 14.1263 19.1762 14.6511 19.239 15.2882L19.2529 15.2903C19.799 15.3734 20.2789 15.5184 20.648 15.6898C20.9424 15.8266 21.1244 15.9608 21.2173 16.0563C21.2309 16.0703 21.2417 16.0826 21.25 16.0929V16.5364H19.2529V18.0364H22.75V16.0146C22.75 15.6136 22.5479 15.273 22.2926 15.0105C22.0341 14.7447 21.6818 14.5162 21.28 14.3295Z" fill="black"/>
</svg>
