<svg width="24" height="24" viewBox="0 0 24 24" fill="none" xmlns="http://www.w3.org/2000/svg">
<path d="M8.75273 3.21436C6.50217 3.21436 4.67773 5.03879 4.67773 7.28936C4.67773 9.53992 6.50217 11.3644 8.75273 11.3644C11.0033 11.3644 12.8277 9.53992 12.8277 7.28936C12.8277 5.03879 11.0033 3.21436 8.75273 3.21436ZM6.17773 7.28936C6.17773 5.86722 7.3306 4.71436 8.75273 4.71436C10.1749 4.71436 11.3277 5.86722 11.3277 7.28936C11.3277 8.71149 10.1749 9.86436 8.75273 9.86436C7.3306 9.86436 6.17773 8.71149 6.17773 7.28936Z" fill="black"/>
<path d="M12.5615 11.36C12.6247 11.3629 12.6883 11.3644 12.7523 11.3644C15.0029 11.3644 16.8273 9.53992 16.8273 7.28936C16.8273 5.03879 15.0029 3.21436 12.7523 3.21436C12.6885 3.21436 12.625 3.21582 12.5619 3.21873C13.0808 3.70459 13.5068 4.28854 13.8102 4.94101C14.7047 5.34461 15.3273 6.24428 15.3273 7.28936C15.3273 8.33451 14.7046 9.23423 13.81 9.63779C13.5065 10.2902 13.0805 10.8741 12.5615 11.36Z" fill="black"/>
<path d="M19.9491 9.11433L17.8984 9.11437L17.8985 10.6144L19.9492 10.6143L19.9492 12.665H21.4492L21.4492 10.6143L23.4997 10.6143V9.11426L21.4491 9.1143L21.4491 7.06372L19.9491 7.06376L19.9491 9.11433Z" fill="black"/>
<path d="M21.0054 20.7856H18.5055V19.2856H19.5054V17.3383C19.5054 17.2229 19.4406 17.0079 19.1299 16.7111C18.9239 16.5143 18.6393 16.3119 18.2799 16.1165C18.0284 15.4542 17.604 14.9255 17.2022 14.5416C16.9191 14.2711 16.6026 14.0276 16.2655 13.8088C17.0125 13.9809 17.7019 14.2039 18.3075 14.4652C19.045 14.7836 19.6915 15.1732 20.166 15.6265C20.6345 16.074 21.0054 16.6547 21.0054 17.3383V20.7856Z" fill="black"/>
<path d="M0.5 17.3383V20.7856H17.0059V17.3383C17.0059 16.6547 16.635 16.074 16.1665 15.6265C15.6919 15.1732 15.0454 14.7836 14.308 14.4652C12.8289 13.8269 10.8502 13.4178 8.75293 13.4178C6.65566 13.4178 4.67695 13.8269 3.1979 14.4652C2.46041 14.7836 1.81391 15.1732 1.33939 15.6265C0.870884 16.074 0.5 16.6547 0.5 17.3383ZM2.3755 16.7111C2.68013 16.4201 3.15619 16.117 3.79232 15.8424C5.06049 15.2951 6.83324 14.9178 8.75293 14.9178C10.6726 14.9178 12.4454 15.2951 13.7135 15.8424C14.3497 16.117 14.8257 16.4201 15.1304 16.7111C15.441 17.0079 15.5059 17.2229 15.5059 17.3383V19.2856H2V17.3383C2 17.2229 2.06486 17.0079 2.3755 16.7111Z" fill="black"/>
</svg>
