<svg width="24" height="24" viewBox="0 0 24 24" fill="none" xmlns="http://www.w3.org/2000/svg">
<path d="M23.4997 9.11426L17.8984 9.11437L17.8985 10.6144L23.4997 10.6143V9.11426Z" fill="black"/>
<path d="M12.5615 11.36C12.6247 11.3629 12.6883 11.3644 12.7523 11.3644C15.0029 11.3644 16.8273 9.53992 16.8273 7.28936C16.8273 5.03879 15.0029 3.21436 12.7523 3.21436C12.6885 3.21436 12.625 3.21582 12.5619 3.21873C13.0808 3.70459 13.5068 4.28854 13.8102 4.94101C14.7047 5.34461 15.3273 6.24428 15.3273 7.28936C15.3273 8.33451 14.7046 9.23423 13.81 9.63779C13.5065 10.2902 13.0805 10.8741 12.5615 11.36Z" fill="black"/>
<path d="M18.5055 20.7856H21.0054V17.3383C21.0054 16.6547 20.6345 16.074 20.166 15.6265C19.6915 15.1732 19.045 14.7836 18.3075 14.4652C17.7019 14.2039 17.0125 13.9809 16.2655 13.8088C16.6026 14.0276 16.9191 14.2711 17.2022 14.5416C17.604 14.9255 18.0284 15.4542 18.2799 16.1165C18.6393 16.3119 18.9239 16.5143 19.1299 16.7111C19.4406 17.0079 19.5054 17.2229 19.5054 17.3383V19.2856H18.5055V20.7856Z" fill="black"/>
<path d="M8.75273 3.21436C6.50217 3.21436 4.67773 5.03879 4.67773 7.28936C4.67773 9.53992 6.50217 11.3644 8.75273 11.3644C11.0033 11.3644 12.8277 9.53992 12.8277 7.28936C12.8277 5.03879 11.0033 3.21436 8.75273 3.21436ZM6.17773 7.28936C6.17773 5.86722 7.3306 4.71436 8.75273 4.71436C10.1749 4.71436 11.3277 5.86722 11.3277 7.28936C11.3277 8.71149 10.1749 9.86436 8.75273 9.86436C7.3306 9.86436 6.17773 8.71149 6.17773 7.28936Z" fill="black"/>
<path d="M0.5 20.7856V17.3383C0.5 16.6547 0.870884 16.074 1.33939 15.6265C1.81391 15.1732 2.46041 14.7836 3.1979 14.4652C4.67695 13.8269 6.65566 13.4178 8.75293 13.4178C10.8502 13.4178 12.8289 13.8269 14.308 14.4652C15.0454 14.7836 15.6919 15.1732 16.1665 15.6265C16.635 16.074 17.0059 16.6547 17.0059 17.3383V20.7856H0.5ZM2 17.3383V19.2856H15.5059V17.3383C15.5059 17.2229 15.441 17.0079 15.1304 16.7111C14.8257 16.4201 14.3497 16.117 13.7135 15.8424C12.4454 15.2951 10.6726 14.9178 8.75293 14.9178C6.83324 14.9178 5.06049 15.2951 3.79232 15.8424C3.15619 16.117 2.68013 16.4201 2.3755 16.7111C2.06486 17.0079 2 17.2229 2 17.3383Z" fill="black"/>
</svg>
