<svg width="24" height="24" viewBox="0 0 24 24" fill="none" xmlns="http://www.w3.org/2000/svg">
<path d="M5.17578 7.28936C5.17578 5.03879 7.00022 3.21436 9.25078 3.21436C11.5013 3.21436 13.3258 5.03879 13.3258 7.28936C13.3258 9.53992 11.5013 11.3644 9.25078 11.3644C7.00022 11.3644 5.17578 9.53992 5.17578 7.28936ZM9.25078 4.71436C7.82865 4.71436 6.67578 5.86722 6.67578 7.28936C6.67578 8.71149 7.82865 9.86436 9.25078 9.86436C10.6729 9.86436 11.8258 8.71149 11.8258 7.28936C11.8258 5.86722 10.6729 4.71436 9.25078 4.71436Z" fill="black"/>
<path d="M0.998047 17.3383V20.7856H17.5039V17.3383C17.5039 16.6547 17.133 16.074 16.6645 15.6265C16.19 15.1732 15.5435 14.7836 14.806 14.4652C13.327 13.8269 11.3482 13.4178 9.25098 13.4178C7.15371 13.4178 5.175 13.8269 3.69594 14.4652C2.95846 14.7836 2.31196 15.1732 1.83744 15.6265C1.36893 16.074 0.998047 16.6547 0.998047 17.3383ZM2.87355 16.7111C3.17818 16.4201 3.65424 16.117 4.29036 15.8424C5.55854 15.2951 7.33129 14.9178 9.25098 14.9178C11.1707 14.9178 12.9434 15.2951 14.2116 15.8424C14.8477 16.117 15.3238 16.4201 15.6284 16.7111C15.939 17.0079 16.0039 17.2229 16.0039 17.3383V19.2856H2.49805V17.3383C2.49805 17.2229 2.56291 17.0079 2.87355 16.7111Z" fill="black"/>
<path d="M14.75 11.3644C14.2451 11.3644 13.7616 11.2725 13.3154 11.1045C13.6761 10.7203 13.983 10.285 14.224 9.81053C14.3938 9.84581 14.5697 9.86436 14.75 9.86436C16.1711 9.86436 17.3237 8.71176 17.3237 7.28936C17.3237 5.86695 16.1711 4.71436 14.75 4.71436C14.5697 4.71436 14.3938 4.7329 14.224 4.76818C13.983 4.29373 13.6761 3.85839 13.3154 3.47419C13.7616 3.30624 14.2451 3.21436 14.75 3.21436C17.0001 3.21436 18.8237 5.03907 18.8237 7.28936C18.8237 9.53964 17.0001 11.3644 14.75 11.3644Z" fill="black"/>
<path d="M23.0005 20.7856H19.0034V19.2856H21.5005V17.3383C21.5005 17.2228 21.4356 17.0077 21.1251 16.711C20.8206 16.42 20.3448 16.1169 19.709 15.8424C19.3198 15.6744 18.8831 15.5224 18.4092 15.3924C18.1932 15.0578 17.9426 14.7734 17.7001 14.5418C17.2683 14.1293 16.759 13.7794 16.2175 13.4845C17.7574 13.6248 19.1758 13.9783 20.3036 14.4653C21.0408 14.7836 21.6871 15.1733 22.1614 15.6266C22.6298 16.0741 23.0005 16.6549 23.0005 17.3383V20.7856Z" fill="black"/>
</svg>
