<svg width="24" height="24" viewBox="0 0 24 24" fill="none" xmlns="http://www.w3.org/2000/svg">
<path d="M11.8014 19.9875C11.8847 19.9875 11.9807 19.9625 12.0894 19.9125C12.1974 19.8625 12.2764 19.8125 12.3264 19.7625L20.3264 11.7625C20.5597 11.5291 20.7304 11.2875 20.8384 11.0375C20.947 10.7875 21.0014 10.5208 21.0014 10.2375C21.0014 9.93745 20.947 9.65412 20.8384 9.38745C20.7304 9.12078 20.5597 8.87912 20.3264 8.66245L16.3264 4.66245C16.1097 4.42912 15.8764 4.26245 15.6264 4.16245C15.3764 4.06245 15.1097 4.01245 14.8264 4.01245C14.543 4.01245 14.268 4.06245 14.0014 4.16245C13.7347 4.26245 13.493 4.42912 13.2764 4.66245L12.7014 5.23745L14.5514 7.08745C14.7847 7.30412 14.9554 7.54978 15.0634 7.82445C15.172 8.09978 15.2264 8.38745 15.2264 8.68745C15.2264 9.28745 15.0224 9.79178 14.6144 10.2005C14.2057 10.6085 13.693 10.8125 13.0764 10.8125C12.7764 10.8125 12.489 10.7665 12.2144 10.6745C11.939 10.5831 11.693 10.4291 11.4764 10.2125L9.60137 8.33745L5.25137 12.6625C5.16804 12.7458 5.1097 12.8331 5.07637 12.9245C5.04304 13.0165 5.02637 13.1125 5.02637 13.2125C5.02637 13.3958 5.08904 13.5541 5.21437 13.6875C5.33904 13.8208 5.49304 13.8875 5.67637 13.8875C5.77637 13.8875 5.87637 13.8625 5.97637 13.8125C6.07637 13.7625 6.1597 13.7125 6.22637 13.6625L9.50137 10.3625L10.5514 11.4375L7.27637 14.7125C7.2097 14.7791 7.1557 14.8625 7.11437 14.9625C7.07237 15.0625 7.05137 15.1625 7.05137 15.2625C7.05137 15.4291 7.11804 15.5791 7.25137 15.7125C7.3847 15.8458 7.5347 15.9125 7.70137 15.9125C7.80137 15.9125 7.9057 15.8875 8.01437 15.8375C8.12237 15.7875 8.20137 15.7375 8.25137 15.6875L11.6514 12.2875L12.7014 13.3375L9.32637 16.7375C9.2597 16.8041 9.20537 16.8875 9.16337 16.9875C9.12204 17.0875 9.10137 17.1875 9.10137 17.2875C9.10137 17.4708 9.1637 17.6251 9.28837 17.7505C9.4137 17.8751 9.56804 17.9375 9.75137 17.9375C9.85137 17.9375 9.94737 17.9208 10.0394 17.8875C10.1307 17.8541 10.218 17.7958 10.3014 17.7125L13.7014 14.3375L14.7514 15.3875L11.3514 18.7875C11.268 18.8708 11.2097 18.9625 11.1764 19.0625C11.143 19.1625 11.1264 19.2541 11.1264 19.3375C11.1264 19.5208 11.193 19.6751 11.3264 19.8005C11.4597 19.9251 11.618 19.9875 11.8014 19.9875ZM11.7764 21.4875C11.2097 21.4875 10.718 21.2918 10.3014 20.9005C9.8847 20.5085 9.65971 20.0208 9.62637 19.4375C9.0597 19.3875 8.58904 19.1831 8.21437 18.8245C7.83904 18.4665 7.6347 17.9875 7.60137 17.3875C7.00137 17.3541 6.51804 17.1498 6.15137 16.7745C5.7847 16.3998 5.59304 15.9291 5.57637 15.3625C4.97637 15.3125 4.4847 15.0918 4.10137 14.7005C3.71804 14.3085 3.52637 13.8125 3.52637 13.2125C3.52637 12.9125 3.5807 12.6208 3.68937 12.3375C3.79737 12.0541 3.9597 11.8125 4.17637 11.6125L9.60137 6.21245L12.5264 9.13745C12.5764 9.20412 12.6514 9.25812 12.7514 9.29945C12.8514 9.34145 12.9597 9.36245 13.0764 9.36245C13.243 9.36245 13.393 9.29978 13.5264 9.17445C13.6597 9.04978 13.7264 8.89578 13.7264 8.71245C13.7264 8.59578 13.7057 8.49145 13.6644 8.39945C13.6224 8.30812 13.568 8.22912 13.5014 8.16245L10.0014 4.66245C9.78471 4.42912 9.54737 4.26245 9.28937 4.16245C9.0307 4.06245 8.75971 4.01245 8.47637 4.01245C8.19304 4.01245 7.92637 4.06245 7.67637 4.16245C7.42637 4.26245 7.1847 4.42912 6.95137 4.66245L3.67637 7.96245C3.49304 8.14578 3.34304 8.35812 3.22637 8.59945C3.1097 8.84145 3.04304 9.09578 3.02637 9.36245C2.99304 9.57912 2.99737 9.79145 3.03937 9.99945C3.0807 10.2081 3.15137 10.4041 3.25137 10.5875L2.15137 11.6875C1.91804 11.3541 1.74737 10.9875 1.63937 10.5875C1.5307 10.1875 1.4847 9.77912 1.50137 9.36245C1.51804 8.89578 1.62204 8.44978 1.81337 8.02445C2.00537 7.59978 2.26804 7.22078 2.60137 6.88745L5.87637 3.61245C6.24304 3.24578 6.64737 2.97078 7.08937 2.78745C7.5307 2.60412 7.99304 2.51245 8.47637 2.51245C8.9597 2.51245 9.42237 2.60412 9.86437 2.78745C10.3057 2.97078 10.7097 3.24578 11.0764 3.61245L11.6514 4.16245L12.2264 3.61245C12.593 3.24578 12.993 2.97078 13.4264 2.78745C13.8597 2.60412 14.3264 2.51245 14.8264 2.51245C15.3097 2.51245 15.768 2.60412 16.2014 2.78745C16.6347 2.97078 17.0347 3.24578 17.4014 3.61245L21.3764 7.58745C21.743 7.93745 22.022 8.34578 22.2134 8.81245C22.4054 9.27912 22.5014 9.75412 22.5014 10.2375C22.5014 10.7208 22.4054 11.1831 22.2134 11.6245C22.022 12.0665 21.743 12.4708 21.3764 12.8375L13.3764 20.8125C13.1597 21.0291 12.914 21.1958 12.6394 21.3125C12.364 21.4291 12.0764 21.4875 11.7764 21.4875Z" fill="black"/>
</svg>
