<svg width="24" height="24" viewBox="0 0 24 24" fill="none" xmlns="http://www.w3.org/2000/svg">
<path d="M11.8583 7.46533C10.7933 7.46533 10.361 8.05701 10.1457 8.38392L9.73312 9.01024L8.48047 8.18509L8.89304 7.55877C9.21619 7.0682 10.0433 5.96533 11.8583 5.96533C12.9382 5.96533 13.7947 6.33677 14.3812 6.93779C14.9573 7.52816 15.2305 8.29743 15.2305 9.02456C15.2305 9.6748 15.1053 10.2051 14.8242 10.6952C14.5589 11.1579 14.1771 11.541 13.7686 11.926C12.9088 12.7361 12.6536 13.0302 12.6536 13.5856V14.3356H11.1536V13.5856C11.1536 12.3263 11.916 11.6093 12.6667 10.9032L12.7399 10.8343C13.148 10.4498 13.3793 10.1995 13.523 9.94905C13.6509 9.72599 13.7305 9.46324 13.7305 9.02456C13.7305 8.66276 13.5926 8.27742 13.3076 7.98541C13.0331 7.70404 12.5785 7.46533 11.8583 7.46533Z" fill="black"/>
<path d="M10.9521 16.7449C10.9521 16.2043 11.3904 15.766 11.9311 15.766C12.4717 15.766 12.91 16.2043 12.91 16.7449C12.91 17.2856 12.4717 17.7238 11.9311 17.7238C11.3904 17.7238 10.9521 17.2856 10.9521 16.7449Z" fill="black"/>
<path d="M12 2C6.47715 2 2 6.47715 2 12C2 17.5228 6.47715 22 12 22C17.5228 22 22 17.5228 22 12C22 6.47715 17.5228 2 12 2ZM3.5 12C3.5 7.30558 7.30558 3.5 12 3.5C16.6944 3.5 20.5 7.30558 20.5 12C20.5 16.6944 16.6944 20.5 12 20.5C7.30558 20.5 3.5 16.6944 3.5 12Z" fill="black"/>
</svg>
