<svg width="24" height="24" viewBox="0 0 24 24" fill="none" xmlns="http://www.w3.org/2000/svg">
<path d="M11.9267 7.46533C10.8617 7.46533 10.4294 8.05701 10.2141 8.38392L9.80148 9.01024L8.54883 8.18509L8.9614 7.55877C9.28455 7.0682 10.1117 5.96533 11.9267 5.96533C13.0065 5.96533 13.863 6.33677 14.4495 6.93779C15.0257 7.52816 15.2988 8.29743 15.2988 9.02456C15.2988 9.6748 15.1736 10.2051 14.8926 10.6952C14.6272 11.1579 14.2455 11.541 13.8369 11.926C12.9772 12.7361 12.722 13.0302 12.722 13.5856V14.3356H11.222V13.5856C11.222 12.3263 11.9843 11.6093 12.7351 10.9032L12.8082 10.8343C13.2163 10.4498 13.4477 10.1995 13.5913 9.94905C13.7192 9.72599 13.7988 9.46324 13.7988 9.02456C13.7988 8.66276 13.661 8.27742 13.376 7.98541C13.1014 7.70404 12.6469 7.46533 11.9267 7.46533Z" fill="black"/>
<path d="M11.0205 16.7449C11.0205 16.2043 11.4588 15.766 11.9994 15.766C12.5401 15.766 12.9784 16.2043 12.9784 16.7449C12.9784 17.2856 12.5401 17.7238 11.9994 17.7238C11.4588 17.7238 11.0205 17.2856 11.0205 16.7449Z" fill="black"/>
<path d="M5.75 3C4.23122 3 3 4.23122 3 5.75V18.25C3 19.7688 4.23122 21 5.75 21H18.25C19.7688 21 21 19.7688 21 18.25V5.75C21 4.23122 19.7688 3 18.25 3H5.75ZM4.5 5.75C4.5 5.05964 5.05964 4.5 5.75 4.5H18.25C18.9404 4.5 19.5 5.05964 19.5 5.75V18.25C19.5 18.9404 18.9404 19.5 18.25 19.5H5.75C5.05964 19.5 4.5 18.9404 4.5 18.25V5.75Z" fill="black"/>
</svg>
