<svg width="24" height="24" viewBox="0 0 24 24" fill="none" xmlns="http://www.w3.org/2000/svg">
<path d="M8.94771 11.9902C9.38616 11.9902 9.75347 11.8421 10.0496 11.546C10.3458 11.2498 10.4939 10.8825 10.4939 10.4441C10.4939 10.0056 10.3458 9.63832 10.0496 9.34217C9.75347 9.04602 9.38616 8.89795 8.94771 8.89795C8.50926 8.89795 8.14195 9.04602 7.84579 9.34217C7.54964 9.63832 7.40156 10.0056 7.40156 10.4441C7.40156 10.8825 7.54964 11.2498 7.84579 11.546C8.14195 11.8421 8.50926 11.9902 8.94771 11.9902Z" fill="black"/>
<path d="M5.85156 15.1017H12.0439V14.6556C12.0439 14.3486 11.956 14.0661 11.7804 13.8081C11.6048 13.55 11.3746 13.3607 11.09 13.2402C10.7131 13.08 10.3445 12.9598 9.98424 12.8797C9.62399 12.7995 9.27848 12.7594 8.94771 12.7594C8.61695 12.7594 8.27144 12.7995 7.91119 12.8797C7.55092 12.9598 7.18233 13.08 6.80541 13.2402C6.5208 13.3607 6.29067 13.55 6.11504 13.8081C5.93939 14.0661 5.85156 14.3486 5.85156 14.6556V15.1017Z" fill="black"/>
<path d="M18.3491 10.6675H14.0488V9.16748H18.3491V10.6675Z" fill="black"/>
<path d="M14.0488 13.5327H18.3491V12.0327H14.0488V13.5327Z" fill="black"/>
<path d="M4.25 4.57495C3.00736 4.57495 2 5.58231 2 6.82495V17.175C2 18.4176 3.00736 19.425 4.25 19.425H19.75C20.9926 19.425 22 18.4176 22 17.175V6.82495C22 5.58231 20.9926 4.57495 19.75 4.57495H4.25ZM3.5 6.82495C3.5 6.41074 3.83579 6.07495 4.25 6.07495H19.75C20.1642 6.07495 20.5 6.41074 20.5 6.82495V17.175C20.5 17.5892 20.1642 17.925 19.75 17.925H4.25C3.83579 17.925 3.5 17.5892 3.5 17.175V6.82495Z" fill="black"/>
</svg>
