<svg width="24" height="24" viewBox="0 0 24 24" fill="none" xmlns="http://www.w3.org/2000/svg">
<path d="M14.7539 10.6653H19.0542V9.16528H14.7539V10.6653Z" fill="black"/>
<path d="M19.0542 13.5305H14.7539V12.0305H19.0542V13.5305Z" fill="black"/>
<path d="M7.86934 12.805C7.86934 13.1195 7.6144 13.3745 7.29991 13.3745C6.98541 13.3745 6.73047 13.1195 6.73047 12.805C6.73047 12.4905 6.98541 12.2356 7.29991 12.2356C7.6144 12.2356 7.86934 12.4905 7.86934 12.805Z" fill="black"/>
<path d="M10.6944 13.3745C11.0089 13.3745 11.2639 13.1195 11.2639 12.805C11.2639 12.4905 11.0089 12.2356 10.6944 12.2356C10.3799 12.2356 10.125 12.4905 10.125 12.805C10.125 13.1195 10.3799 13.3745 10.6944 13.3745Z" fill="black"/>
<path d="M11.4588 15.0312V14.8942H6.53333V15.0312C6.53333 15.4316 6.20874 15.7562 5.80833 15.7562H5.67031C5.26984 15.7562 4.94521 15.4315 4.94531 15.0311L4.94615 11.6177L5.78997 9.28866C5.95128 8.84343 6.37413 8.54688 6.84769 8.54688H11.1444C11.618 8.54688 12.0409 8.84343 12.2022 9.28866L13.046 11.6177L13.0468 15.0311C13.0469 15.4315 12.7223 15.7562 12.3218 15.7562H12.1838C11.7834 15.7562 11.4588 15.4316 11.4588 15.0312ZM6.59471 10.7371H11.3974L11.0568 9.79688H6.93535L6.59471 10.7371ZM6.19606 11.9871L6.19565 13.6442H11.7965L11.7961 11.9871H6.19606Z" fill="black"/>
<path d="M4.25 4.5752C3.00736 4.5752 2 5.58255 2 6.82519V17.1752C2 18.4178 3.00736 19.4252 4.25 19.4252H19.75C20.9926 19.4252 22 18.4178 22 17.1752V6.8252C22 5.58255 20.9926 4.5752 19.75 4.5752H4.25ZM3.5 6.82519C3.5 6.41098 3.83579 6.0752 4.25 6.0752H19.75C20.1642 6.0752 20.5 6.41098 20.5 6.8252V17.1752C20.5 17.5894 20.1642 17.9252 19.75 17.9252H4.25C3.83579 17.9252 3.5 17.5894 3.5 17.1752V6.82519Z" fill="black"/>
</svg>
