<svg width="24" height="24" viewBox="0 0 24 24" fill="none" xmlns="http://www.w3.org/2000/svg">
<path d="M2 6.82521C2 5.58256 3.00736 4.5752 4.25 4.5752H19.75C20.9926 4.5752 22 5.58256 22 6.82521V17.1753C22 18.4179 20.9926 19.4253 19.75 19.4253H4.25C3.00736 19.4253 2 18.4179 2 17.1753V6.82521ZM4.25 6.07521C3.83579 6.07521 3.5 6.41099 3.5 6.82521V17.1753C3.5 17.5895 3.83579 17.9253 4.25 17.9253H19.75C20.1642 17.9253 20.5 17.5895 20.5 17.1753V6.82521C20.5 6.41099 20.1642 6.07521 19.75 6.07521H4.25ZM18.3491 10.668H14.0488V9.168H18.3491V10.668ZM14.0488 13.5333H19.9612V12.0333H14.0488V13.5333ZM9.30349 8.4221C9.35442 8.33355 9.3842 8.23091 9.3842 8.1214C9.3842 7.78917 9.11465 7.52002 8.7832 7.52002C8.59907 7.52002 8.43452 7.60229 8.32482 7.73197C8.23549 7.83697 8.18143 7.97292 8.18143 8.1214C8.18143 8.2313 8.21042 8.33434 8.26213 8.42288L7.49032 9.76023H5.92946C5.82368 9.58706 5.63328 9.47149 5.41623 9.47149C5.084 9.47149 4.81445 9.74064 4.81445 10.0729C4.81445 10.4051 5.084 10.6743 5.41623 10.6743L5.43033 10.6741L6.19588 12.0004L5.43347 13.3205L5.41623 13.3203C5.084 13.3203 4.81445 13.5895 4.81445 13.9217C4.81445 14.0379 4.8458 14.1488 4.903 14.2406C5.00878 14.4117 5.19997 14.5231 5.41623 14.5231C5.63093 14.5231 5.81898 14.4103 5.92555 14.2406H7.49032L8.259 15.5847C8.20963 15.6718 8.18143 15.7723 8.18143 15.8795C8.18143 16.2117 8.45097 16.4809 8.7832 16.4809C8.95872 16.4809 9.11778 16.405 9.22748 16.2842C9.32465 16.1774 9.3842 16.0354 9.3842 15.8795C9.3842 15.8311 9.37793 15.7841 9.36696 15.7388C9.35912 15.7061 9.34894 15.6746 9.33562 15.6444C9.32621 15.6219 9.31524 15.5999 9.30349 15.5788L10.0761 14.2406H11.6409C11.7474 14.4103 11.9355 14.5231 12.1502 14.5231C12.3664 14.5231 12.5576 14.4117 12.6634 14.2406C12.7206 14.1488 12.752 14.0379 12.752 13.9217C12.752 13.5895 12.4824 13.3203 12.1502 13.3203L12.1329 13.3205L11.3705 12.0004L12.1361 10.6741L12.1502 10.6743C12.4824 10.6743 12.752 10.4051 12.752 10.0729C12.752 9.74064 12.4824 9.47149 12.1502 9.47149C11.9331 9.47149 11.7427 9.58706 11.6369 9.76023H10.0761L9.30349 8.4221ZM8.7832 13.4187C7.99964 13.4187 7.36495 12.7838 7.36495 12.0004C7.36495 11.8185 7.39943 11.6445 7.46211 11.4849C7.53028 11.3101 7.63215 11.1522 7.75909 11.0192C8.01688 10.7499 8.38045 10.5822 8.7832 10.5822C9.56677 10.5822 10.2015 11.2171 10.2015 12.0004C10.2015 12.7838 9.56677 13.4187 8.7832 13.4187Z" fill="black"/>
</svg>
