<svg width="24" height="24" viewBox="0 0 24 24" fill="none" xmlns="http://www.w3.org/2000/svg">
<path d="M21.4787 22.5376L19.5166 20.5758C19.3646 20.6082 19.2069 20.6253 19.0452 20.6253H5.59638C4.35374 20.6253 3.34638 19.6179 3.34638 18.3753V4.92644C3.34638 4.76554 3.36327 4.60859 3.39537 4.45726L1.46094 2.52315L2.52151 1.4624L22.5392 21.4768L21.4787 22.5376ZM15.678 16.7379H6.15625L9.40925 12.4225L11.5054 14.7466L12.461 13.5214L4.84638 5.90804V18.3753C4.84638 18.7895 5.18217 19.1253 5.59638 19.1253H18.0658L15.678 16.7379Z" fill="black"/>
<path d="M21.2952 17.4073V4.92644C21.2952 3.6838 20.2878 2.67644 19.0452 2.67644H6.56038L8.06078 4.17644H19.0452C19.4594 4.17644 19.7952 4.51222 19.7952 4.92644V15.9077L21.2952 17.4073Z" fill="black"/>
</svg>
