<svg width="24" height="24" viewBox="0 0 24 24" fill="none" xmlns="http://www.w3.org/2000/svg">
<path d="M3.1748 5.42481C3.1748 4.18216 4.18216 3.1748 5.4248 3.1748H18.5748C19.8174 3.1748 20.8248 4.18216 20.8248 5.4248V10.4131C20.4422 10.5327 20.0821 10.744 19.7788 11.0468L19.3248 11.5001V5.4248C19.3248 5.01059 18.989 4.6748 18.5748 4.6748H5.4248C5.01059 4.6748 4.6748 5.01059 4.6748 5.42481V18.5748C4.6748 18.989 5.01059 19.3248 5.42481 19.3248H12.8994V20.8248H5.42481C4.18216 20.8248 3.1748 19.8174 3.1748 18.5748V5.42481Z" fill="black"/>
<path d="M16.006 14.8234L13.6549 17.1712H6.24805L9.15103 13.3425L11.199 15.9829L14.0586 12.2046L16.006 14.8234Z" fill="black"/>
<path d="M20.8387 12.1083C21.2559 11.6918 21.9323 11.6918 22.3495 12.1083L23.0865 12.8443C23.5037 13.2609 23.5037 13.9363 23.0865 14.3529L22.5124 14.9262L20.2645 12.6816L20.8387 12.1083ZM19.7641 13.1905L22.0159 15.439L16.6509 20.7959H14.3994L14.3994 18.5477L19.7641 13.1905Z" fill="black"/>
</svg>
