<svg width="24" height="24" viewBox="0 0 24 24" fill="none" xmlns="http://www.w3.org/2000/svg">
<path d="M11.0947 6.71226C11.0947 4.47435 13.0424 2.66016 15.3006 2.66016C17.5587 2.66016 19.3892 4.47435 19.3892 6.71226C19.3892 7.57754 19.1156 8.37948 18.6493 9.0377L21.8793 12.2148L20.8255 13.3123L17.5533 10.0944C16.9073 10.5178 16.0837 10.7871 15.2512 10.7871C12.8839 10.7871 11.0947 8.95018 11.0947 6.71226ZM15.3006 4.21972C13.8869 4.21972 12.6467 5.31121 12.6467 6.71226C12.6467 8.11331 13.7842 9.27369 15.3006 9.27369C16.7142 9.27369 17.8603 8.11331 17.8603 6.71226C17.7779 5.33609 16.7142 4.21972 15.3006 4.21972Z" fill="black"/>
<path d="M13.257 12.5972L16.9575 17.529H5.46875L8.35938 13.7319L10.4065 16.3468L13.257 12.5972Z" fill="black"/>
<path d="M10.2678 3.39038H4.37012C3.12748 3.39038 2.12012 4.39774 2.12012 5.64038V19.0892C2.12012 20.3319 3.12748 21.3392 4.37012 21.3392H17.8189C19.0616 21.3392 20.0689 20.3318 20.0689 19.0892V15.0081L18.5689 13.426V19.0892C18.5689 19.5034 18.2332 19.8392 17.8189 19.8392H4.37012C3.9559 19.8392 3.62012 19.5034 3.62012 19.0892V5.64038C3.62012 5.22617 3.9559 4.89038 4.37012 4.89038H10.2678V3.39038Z" fill="black"/>
</svg>
