<svg width="24" height="24" viewBox="0 0 24 24" fill="none" xmlns="http://www.w3.org/2000/svg">
<path d="M15.0963 1.72435L14.5869 1.25293L14.0775 1.72435C12.523 3.16294 10.5346 3.56436 8.02228 3.61076L7.28613 3.62436V4.36064C7.28613 6.30035 7.50041 7.93786 7.87541 9.3374H9.43494C9.0802 8.16459 8.84861 6.76962 8.79705 5.08565C10.9195 4.98054 12.9082 4.56166 14.5869 3.25767C16.2657 4.56166 18.2542 4.98054 20.3766 5.08565C20.2736 8.45179 19.4511 10.6631 18.3637 12.2537C18.2445 12.4279 18.1218 12.5954 17.9959 12.7568C18.3822 13.1035 18.7012 13.5177 18.9376 13.9773C19.1672 13.7026 19.3895 13.411 19.6019 13.1002C20.9666 11.1042 21.8876 8.38183 21.8876 4.36064V3.62436L21.1514 3.61076C18.6391 3.56436 16.6509 3.16294 15.0963 1.72435Z" fill="black"/>
<path d="M13.7958 10.8518L15.2958 11.4243V9.79771H17.2907V8.29771H15.2958V6.30273H13.7958V8.29771H11.8008V9.79771H13.7958V10.8518Z" fill="black"/>
<path d="M1.44727 22.2905V11.3374H9.45856L15.9601 13.8185C16.8319 14.1511 17.4079 14.9874 17.4079 15.9206V16.5753H19.8051C21.3246 16.5753 22.5537 17.8072 22.5537 19.3253V20.1696L14.5122 22.7477L7.13965 20.6421V22.2905H1.44727ZM7.13965 19.0821L14.4871 21.1806L21.0303 19.0828C20.9176 18.5081 20.412 18.0753 19.8051 18.0753H14.4021C13.3598 18.0753 12.0105 17.6618 10.9982 17.2944C10.839 17.2366 10.6853 17.1788 10.539 17.1224L10.9518 15.6736C11.1265 15.742 11.314 15.8132 11.5101 15.8844C12.5249 16.2528 13.6511 16.5753 14.4021 16.5753H15.9079V15.9206C15.9079 15.6095 15.7159 15.3308 15.4253 15.2199L9.18207 12.8374H7.13965V19.0821ZM5.63965 12.8374H2.94727V20.7905H5.63965V12.8374Z" fill="black"/>
</svg>
