<svg width="24" height="24" viewBox="0 0 24 24" fill="none" xmlns="http://www.w3.org/2000/svg">
<path d="M5.80469 13.8066L10.0473 9.56396L11.108 10.6246L7.92475 13.8079L11.108 16.9911L10.0473 18.0518L5.80469 13.8091L5.80594 13.8079L5.80469 13.8066Z" fill="black"/>
<path d="M18.1953 13.8066L13.9527 9.56396L12.892 10.6246L16.0752 13.8079L12.892 16.9911L13.9527 18.0518L18.1953 13.8091L18.1941 13.8079L18.1953 13.8066Z" fill="black"/>
<path d="M8.88672 4.55664C8.88672 2.83722 10.2806 1.44336 12 1.44336C13.7194 1.44336 15.1133 2.83722 15.1133 4.55664H21V22.5566H3V4.55664H8.88672ZM12 2.94336C11.109 2.94336 10.3867 3.66565 10.3867 4.55664H13.6133C13.6133 3.66565 12.891 2.94336 12 2.94336ZM4.5 21.0566H19.5V6.05664H4.5V21.0566Z" fill="black"/>
</svg>
