<svg width="24" height="24" viewBox="0 0 24 24" fill="none" xmlns="http://www.w3.org/2000/svg">
<path d="M12.0003 13.7374C12.5275 13.7374 12.9759 13.5526 13.3457 13.1828C13.7154 12.8131 13.9003 12.3646 13.9003 11.8375C13.9003 11.3103 13.7154 10.8619 13.3457 10.4921C12.9759 10.1224 12.5275 9.9375 12.0003 9.9375C11.4732 9.9375 11.0247 10.1224 10.655 10.4921C10.2852 10.8619 10.1003 11.3103 10.1003 11.8375C10.1003 12.3646 10.2852 12.8131 10.655 13.1828C11.0247 13.5526 11.4732 13.7374 12.0003 13.7374Z" fill="black"/>
<path d="M8.14648 17.6451H15.8541V17.1875C15.8541 16.4875 15.5035 15.9304 14.8022 15.5163C14.1009 15.1022 13.167 14.8952 12.0003 14.8952C10.8336 14.8952 9.89968 15.1022 9.19841 15.5163C8.49713 15.9304 8.14648 16.4875 8.14648 17.1875V17.6451Z" fill="black"/>
<path d="M8.12604 4.39985C8.12607 3.15723 9.13342 2.1499 10.376 2.1499H13.6241C14.8667 2.1499 15.8741 3.15729 15.8741 4.39995L15.874 6.36621H19.75C20.9926 6.36621 22 7.37357 22 8.61621V18.9662C22 20.2089 20.9926 21.2162 19.75 21.2162H4.25C3.00736 21.2162 2 20.2089 2 18.9662V8.61621C2 7.37357 3.00736 6.36621 4.25 6.36621H8.12599L8.12604 4.39985ZM14.3741 4.39992C14.3741 3.9857 14.0383 3.6499 13.6241 3.6499H10.376C9.96183 3.6499 9.62605 3.98568 9.62604 4.39988L9.62599 6.36621H14.374L14.3741 4.39992ZM4.25 7.86621C3.83579 7.86621 3.5 8.202 3.5 8.61621V18.9662C3.5 19.3804 3.83579 19.7162 4.25 19.7162H19.75C20.1642 19.7162 20.5 19.3804 20.5 18.9662V8.61621C20.5 8.202 20.1642 7.86621 19.75 7.86621H4.25Z" fill="black"/>
</svg>
