<svg width="24" height="24" viewBox="0 0 24 24" fill="none" xmlns="http://www.w3.org/2000/svg">
<path d="M1.8125 7.25C1.8125 6.00736 2.81986 5 4.0625 5H19.9401C21.1827 5 22.1901 6.00736 22.1901 7.25V16.75C22.1901 17.9926 21.1827 19 19.9401 19H4.0625C2.81986 19 1.8125 17.9926 1.8125 16.75V7.25ZM4.0625 6.5C3.64829 6.5 3.3125 6.83579 3.3125 7.25V16.75C3.3125 17.1642 3.64829 17.5 4.0625 17.5H19.9401C20.3543 17.5 20.6901 17.1642 20.6901 16.75V7.25C20.6901 6.83579 20.3543 6.5 19.9401 6.5H4.0625Z" fill="black"/>
<path d="M6.46289 9.76611H4.71289V8.01611H6.46289V9.76611Z" fill="black"/>
<path d="M6.46289 12.8745H4.71289V11.1245H6.46289V12.8745Z" fill="black"/>
<path d="M9.66992 9.76611H7.91992V8.01611H9.66992V9.76611Z" fill="black"/>
<path d="M9.66992 12.8745H7.91992V11.1245H9.66992V12.8745Z" fill="black"/>
<path d="M12.875 9.76611H11.125V8.01611H12.875V9.76611Z" fill="black"/>
<path d="M12.875 12.8745H11.125V11.1245H12.875V12.8745Z" fill="black"/>
<path d="M16.0742 15.9834H7.92578V14.2334H16.0742V15.9834Z" fill="black"/>
<path d="M16.082 9.76611H14.332V8.01611H16.082V9.76611Z" fill="black"/>
<path d="M16.082 12.8745H14.332V11.1245H16.082V12.8745Z" fill="black"/>
<path d="M19.293 9.76611H17.543V8.01611H19.293V9.76611Z" fill="black"/>
<path d="M19.293 12.8745H17.543V11.1245H19.293V12.8745Z" fill="black"/>
</svg>
