<svg width="24" height="24" viewBox="0 0 24 24" fill="none" xmlns="http://www.w3.org/2000/svg">
<path d="M4.44531 4.2085C3.20267 4.2085 2.19531 5.21586 2.19531 6.4585V17.5342C2.19531 18.7768 3.20267 19.7842 4.44531 19.7842H19.5732C20.8159 19.7842 21.8232 18.7768 21.8232 17.5342V6.4585C21.8232 5.21586 20.8159 4.2085 19.5732 4.2085H4.44531ZM3.69531 6.4585C3.69531 6.04428 4.0311 5.7085 4.44531 5.7085H7.49023V8.90039L3.69531 8.90039V6.4585ZM3.69531 10.4004L7.49023 10.4004V13.5923H3.69531V10.4004ZM3.69531 15.0923H7.49023V18.2842H4.44531C4.0311 18.2842 3.69531 17.9484 3.69531 17.5342V15.0923ZM8.99023 15.0923L20.3232 15.0923V17.5342C20.3232 17.9484 19.9875 18.2842 19.5732 18.2842H8.99023V15.0923ZM20.3232 13.5923L8.99023 13.5923V10.4004L20.3232 10.4004V13.5923ZM8.99023 8.90039V5.7085H19.5732C19.9875 5.7085 20.3232 6.04428 20.3232 6.4585V8.90039L8.99023 8.90039Z" fill="black"/>
</svg>
