<svg width="24" height="24" viewBox="0 0 24 24" fill="none" xmlns="http://www.w3.org/2000/svg">
<path d="M9.92383 9.93213C9.92383 8.7855 10.8534 7.85596 12 7.85596C13.1466 7.85596 14.0762 8.78549 14.0762 9.93213C14.0762 11.0788 13.1466 12.0083 12 12.0083C10.8534 12.0083 9.92383 11.0788 9.92383 9.93213Z" fill="black"/>
<path d="M9.38634 7.3394L9.9146 6.807L8.84981 5.75049L8.32155 6.28288C7.39317 7.21853 6.81836 8.50893 6.81836 9.93213C6.81836 11.3553 7.39317 12.6457 8.32155 13.5814L8.84981 14.1138L9.9146 13.0573L9.38634 12.5249C8.72538 11.8587 8.31836 10.9437 8.31836 9.93213C8.31836 8.92057 8.72538 8.00553 9.38634 7.3394Z" fill="black"/>
<path d="M15.6774 6.28288L15.1492 5.75049L14.0844 6.80701L14.6126 7.3394C15.2736 8.00553 15.6806 8.92057 15.6806 9.93213C15.6806 10.9437 15.2736 11.8587 14.6126 12.5249L14.0844 13.0573L15.1492 14.1138L15.6774 13.5814C16.6058 12.6457 17.1806 11.3553 17.1806 9.93213C17.1806 8.50893 16.6058 7.21852 15.6774 6.28288Z" fill="black"/>
<path d="M3.83984 9.84061C3.83984 5.40179 7.51194 1.83081 12.0075 1.83081H12.1395L12.1457 1.83309C16.5816 1.90365 20.1592 5.44859 20.1592 9.84061C20.1592 12.6486 18.4642 15.3267 16.744 17.3798C15.4385 18.9381 14.0016 20.2618 13.144 21.0519C12.8717 21.3027 12.6578 21.4998 12.525 21.6335L11.9929 22.1693L11.4608 21.6335C11.3284 21.5002 11.1161 21.3044 10.8462 21.0554C9.98991 20.2656 8.5536 18.9408 7.24792 17.3793C5.53091 15.3259 3.83984 12.648 3.83984 9.84061ZM11.8789 3.332C8.24112 3.39902 5.33984 6.3021 5.33984 9.84061C5.33984 12.0911 6.72618 14.417 8.39864 16.4171C9.63 17.8897 10.9081 19.069 11.7742 19.8682L11.781 19.8745C11.8548 19.9426 11.9256 20.0079 11.9931 20.0704C12.0647 20.0041 12.1401 19.9347 12.2188 19.8621C13.0861 19.0629 14.3628 17.8863 15.5942 16.4165C17.2701 14.4162 18.6592 12.0905 18.6592 9.84061C18.6592 6.25811 15.7062 3.33201 12.0108 3.33201L11.8789 3.332Z" fill="black"/>
</svg>
