<svg width="24" height="24" viewBox="0 0 24 24" fill="none" xmlns="http://www.w3.org/2000/svg">
<path d="M5.99716 4.35026C5.18755 4.35026 4.53125 5.00622 4.53125 5.81537C4.53125 6.62452 5.18755 7.28048 5.99716 7.28048C6.80677 7.28048 7.46308 6.62453 7.46308 5.81537C7.46308 5.00621 6.80677 4.35026 5.99716 4.35026Z" fill="black"/>
<path d="M6.00173 1.09961C3.39128 1.09961 1.24805 3.17311 1.24805 5.76548C1.24805 7.40825 2.23106 8.93402 3.16821 10.0542C3.89143 10.9186 4.70641 11.6696 5.16285 12.0902C5.29799 12.2147 5.40175 12.3103 5.46233 12.3713L5.99448 12.9068L6.52662 12.3713C6.58719 12.3103 6.69153 12.2143 6.82769 12.089C7.28483 11.6682 8.10072 10.9173 8.82385 10.0547C9.76266 8.93477 10.748 7.4088 10.748 5.76548C10.748 3.17489 8.61399 1.09961 6.00173 1.09961ZM2.74805 5.76548C2.74805 4.03133 4.18911 2.59878 6.00173 2.59878C7.81253 2.59878 9.24805 4.02955 9.24805 5.76548C9.24805 6.85109 8.56857 8.02484 7.67406 9.09193C7.06684 9.81629 6.45401 10.3912 5.99471 10.8149C5.53613 10.3913 4.92424 9.81598 4.31893 9.09248C3.42633 8.02559 2.74805 6.85164 2.74805 5.76548Z" fill="black"/>
<path d="M18.3157 7.14705L19.5301 5.93337L20.5907 6.99345L17.5805 10.002L14.5703 6.99345L15.631 5.93337L16.7869 7.08868C16.5034 5.72159 15.2916 4.69416 13.8397 4.69416L12.5864 4.69416V3.19499L13.8397 3.19499C16.1423 3.19499 18.0419 4.91968 18.3157 7.14705Z" fill="black"/>
<path d="M7.00995 17.1131L8.1659 18.2684L9.22656 17.2083L6.21636 14.1997L3.20615 17.2083L4.26681 18.2684L5.48116 17.0547C5.75499 19.2821 7.65456 21.0068 9.95718 21.0068H11.2105V19.5076H9.95718C8.50528 19.5076 7.29349 18.4802 7.00995 17.1131Z" fill="black"/>
<path d="M16.5352 15.8084C16.5352 14.9992 17.1915 14.3433 18.0011 14.3433C18.8107 14.3433 19.467 14.9992 19.467 15.8084C19.467 16.6176 18.8107 17.2735 18.0011 17.2735C17.1915 17.2735 16.5352 16.6175 16.5352 15.8084Z" fill="black"/>
<path d="M13.252 15.7585C13.252 13.1661 15.3952 11.0926 18.0056 11.0926C20.6179 11.0926 22.752 13.1679 22.752 15.7585C22.752 17.4018 21.7666 18.9278 20.8278 20.0477C20.1047 20.9103 19.2888 21.6612 18.8316 22.0819C18.6955 22.2072 18.5911 22.3033 18.5305 22.3643L17.9984 22.8998L17.4662 22.3643C17.4057 22.3034 17.302 22.2078 17.167 22.0834C16.7105 21.6628 15.8953 20.9116 15.1721 20.0472C14.235 18.927 13.252 17.4013 13.252 15.7585ZM18.0056 12.5918C16.193 12.5918 14.752 14.0244 14.752 15.7585C14.752 16.8447 15.4302 18.0186 16.3228 19.0855C16.9281 19.809 17.54 20.3843 17.9986 20.8079C18.4579 20.3843 19.0707 19.8093 19.678 19.085C20.5725 18.0179 21.252 16.8441 21.252 15.7585C21.252 14.0226 19.8164 12.5918 18.0056 12.5918Z" fill="black"/>
</svg>
