<svg width="24" height="24" viewBox="0 0 24 24" fill="none" xmlns="http://www.w3.org/2000/svg">
<path d="M21.376 23.0802L16.3227 18.027C15.1386 19.3714 13.9101 20.5031 13.1439 21.209C12.8717 21.4598 12.6578 21.6568 12.525 21.7905L11.9929 22.3263L11.4608 21.7905C11.3284 21.6572 11.1162 21.4615 10.8464 21.2127C9.99017 20.4228 8.5536 19.0978 7.24792 17.5363C5.53091 15.4829 3.83984 12.805 3.83984 9.99759C3.83984 8.70525 4.15111 7.48647 4.70334 6.40797L1.16309 2.8678L2.22373 1.80713L5.53177 5.11508L5.53477 5.11127L6.60532 6.18179L6.60242 6.18571L9.9888 9.572L9.9902 9.56659L12.5228 12.0991L12.5174 12.1005L16.2152 15.7983L16.2182 15.7944L17.2878 16.864L17.2848 16.8678L22.4366 22.0195L21.376 23.0802ZM5.83297 7.53756C5.51491 8.29748 5.33984 9.12837 5.33984 9.99759C5.33984 12.2481 6.72618 14.574 8.39864 16.5741C9.63 18.0467 10.9081 19.226 11.7742 20.0252L11.7767 20.0275C11.852 20.097 11.9243 20.1637 11.9931 20.2274C12.0647 20.1611 12.1401 20.0916 12.2188 20.0191C13.0078 19.292 14.1357 18.2526 15.26 16.9643L5.83297 7.53756Z" fill="black"/>
<path d="M18.4523 15.2001C19.4347 13.6137 20.1592 11.8334 20.1592 9.99759C20.1592 5.60557 16.5816 2.06063 12.1457 1.99007L12.1395 1.98779H12.0075C10.1038 1.98779 8.34768 2.62818 6.95559 3.70366L8.02654 4.77458C9.10373 3.9902 10.4331 3.51561 11.8789 3.48898L12.0108 3.489C15.7062 3.489 18.6592 6.41509 18.6592 9.99759C18.6592 11.3696 18.1426 12.7699 17.3595 14.1073L18.4523 15.2001Z" fill="black"/>
<path d="M14.0762 10.0894C14.0762 10.3111 14.0414 10.5246 13.9771 10.725L11.3643 8.1123C11.5647 8.04794 11.7783 8.01318 12 8.01318C13.1466 8.01318 14.0762 8.94272 14.0762 10.0894Z" fill="black"/>
</svg>
