<svg width="24" height="24" viewBox="0 0 24 24" fill="none" xmlns="http://www.w3.org/2000/svg">
<path d="M11.2014 7.79283C11.0298 7.91445 10.9187 8.06413 10.8342 8.19241L10.4216 8.81874L9.16895 7.99358L9.58152 7.36726C9.84184 6.97207 10.522 6.06689 12.0011 6.06689C12.8709 6.06689 13.5744 6.36715 14.0605 6.86522C14.5361 7.35265 14.7614 7.98722 14.7614 8.5873C14.7614 9.1105 14.6601 9.54829 14.4267 9.95521C14.2091 10.3347 13.8989 10.6439 13.5856 10.9391C13.5052 11.0149 13.4319 11.083 13.3647 11.1454C13.1381 11.3558 12.9812 11.5015 12.8575 11.6581C12.7279 11.8221 12.6863 11.9383 12.6863 12.0841V12.8341H11.1863V12.0841C11.1863 11.5186 11.3991 11.0843 11.6805 10.7282C11.8834 10.4714 12.1527 10.2223 12.3934 9.99956C12.4499 9.94732 12.5048 9.89652 12.5569 9.84744C12.8697 9.55267 13.0295 9.37631 13.1255 9.20903C13.2057 9.06917 13.2614 8.89895 13.2614 8.5873C13.2614 8.35255 13.1715 8.10191 12.9869 7.91284C12.8128 7.73442 12.5112 7.56689 12.0011 7.56689C11.6087 7.56689 11.3628 7.67852 11.2014 7.79283Z" fill="black"/>
<path d="M11.9994 13.7939C11.3876 13.7939 10.8916 14.2899 10.8916 14.9018C10.8916 15.5136 11.3876 16.0096 11.9994 16.0096C12.6112 16.0096 13.1072 15.5136 13.1072 14.9018C13.1072 14.2899 12.6112 13.7939 11.9994 13.7939Z" fill="black"/>
<path d="M3.83984 9.91336C3.83984 5.47454 7.51194 1.90356 12.0075 1.90356H12.1395L12.1457 1.90584C16.5816 1.97641 20.1592 5.52134 20.1592 9.91336C20.1592 12.7213 18.4642 15.3994 16.744 17.4526C15.4385 19.0108 14.0016 20.3346 13.144 21.1247C12.8717 21.3755 12.6578 21.5725 12.525 21.7062L11.9929 22.242L11.4608 21.7062C11.3284 21.5729 11.1161 21.3771 10.8462 21.1282C9.98991 20.3384 8.5536 19.0135 7.24792 17.452C5.53091 15.3987 3.83984 12.7208 3.83984 9.91336ZM11.8789 3.40475C8.24112 3.47177 5.33984 6.37485 5.33984 9.91336C5.33984 12.1638 6.72618 14.4897 8.39864 16.4898C9.63 17.9624 10.9081 19.1418 11.7742 19.941L11.781 19.9472C11.8548 20.0153 11.9256 20.0806 11.9931 20.1431C12.0647 20.0769 12.1401 20.0074 12.2188 19.9349C13.0861 19.1356 14.3628 17.9591 15.5942 16.4893C17.2701 14.489 18.6592 12.1633 18.6592 9.91336C18.6592 6.33086 15.7062 3.40477 12.0108 3.40477L11.8789 3.40475Z" fill="black"/>
</svg>
