<svg width="24" height="24" viewBox="0 0 24 24" fill="none" xmlns="http://www.w3.org/2000/svg">
<path d="M13.0255 8.3523L11.9994 5.93628L10.9733 8.3523L8.3584 8.5816L10.3391 10.3041L9.74913 12.8618L11.9994 11.5103L14.2496 12.8618L13.6597 10.3041L15.6403 8.5816L13.0255 8.3523Z" fill="black"/>
<path d="M3.83984 9.84061C3.83984 5.40179 7.51194 1.83081 12.0075 1.83081H12.1395L12.1457 1.83309C16.5816 1.90365 20.1592 5.44859 20.1592 9.84061C20.1592 12.6486 18.4642 15.3267 16.744 17.3798C15.4385 18.9381 14.0016 20.2619 13.1439 21.052C12.8717 21.3028 12.6578 21.4998 12.525 21.6335L11.9929 22.1693L11.4608 21.6335C11.3284 21.5002 11.1161 21.3044 10.8462 21.0555C9.98997 20.2657 8.5536 18.9408 7.24792 17.3793C5.53091 15.3259 3.83984 12.648 3.83984 9.84061ZM11.8789 3.332C8.24112 3.39902 5.33984 6.3021 5.33984 9.84061C5.33984 12.0911 6.72618 14.417 8.39864 16.4171C9.63 17.8897 10.9081 19.069 11.7742 19.8682L11.7767 19.8705C11.852 19.94 11.9243 20.0067 11.9931 20.0704C12.0647 20.0041 12.1401 19.9346 12.2188 19.8621C13.0861 19.0629 14.3628 17.8863 15.5942 16.4165C17.2701 14.4162 18.6592 12.0905 18.6592 9.84061C18.6592 6.25811 15.7062 3.33201 12.0108 3.33201L11.8789 3.332Z" fill="black"/>
</svg>
