<svg width="24" height="24" viewBox="0 0 24 24" fill="none" xmlns="http://www.w3.org/2000/svg">
<path d="M12 7.85596C10.8534 7.85596 9.92383 8.7855 9.92383 9.93213C9.92383 11.0788 10.8534 12.0083 12 12.0083C13.1466 12.0083 14.0762 11.0788 14.0762 9.93213C14.0762 8.78549 13.1466 7.85596 12 7.85596Z" fill="black"/>
<path d="M12.0075 1.83081C7.51194 1.83081 3.83984 5.40179 3.83984 9.84061C3.83984 12.648 5.53091 15.3259 7.24792 17.3793C8.5536 18.9408 9.98991 20.2656 10.8462 21.0554C11.1161 21.3044 11.3284 21.5002 11.4608 21.6335L11.9929 22.1693L12.525 21.6335C12.6578 21.4998 12.8717 21.3028 13.1439 21.052C14.0016 20.2619 15.4385 18.9381 16.744 17.3798C18.4642 15.3267 20.1592 12.6486 20.1592 9.84061C20.1592 5.44859 16.5816 1.90365 12.1457 1.83309L12.1395 1.83081H12.0075ZM5.33984 9.84061C5.33984 6.3021 8.24112 3.39902 11.8789 3.332L12.0108 3.33201C15.7062 3.33201 18.6592 6.25811 18.6592 9.84061C18.6592 12.0905 17.2701 14.4162 15.5942 16.4165C14.3628 17.8863 13.0861 19.0629 12.2188 19.8621C12.1401 19.9346 12.0647 20.0041 11.9931 20.0704C11.9243 20.0067 11.852 19.94 11.7767 19.8705L11.7742 19.8682C10.9081 19.069 9.63 17.8897 8.39864 16.4171C6.72618 14.417 5.33984 12.0911 5.33984 9.84061Z" fill="black"/>
</svg>
