<svg width="24" height="24" viewBox="0 0 24 24" fill="none" xmlns="http://www.w3.org/2000/svg">
<path d="M13.5044 7.28931C13.5044 8.12003 12.831 8.79346 12.0002 8.79346C11.1695 8.79346 10.4961 8.12003 10.4961 7.28931C10.4961 6.45859 11.1695 5.78516 12.0002 5.78516C12.831 5.78516 13.5044 6.45859 13.5044 7.28931Z" fill="black"/>
<path d="M12.0003 16.5518C12.0003 16.5518 12.1272 16.4268 12.3429 16.2028L12.3439 16.2018C12.5211 16.0178 12.758 15.7671 13.0338 15.4641C14.5069 13.8453 17.0868 10.7321 17.5723 8.30488C18.3166 4.5831 15.4365 1.43262 12.0003 1.43262C8.90778 1.43262 5.67139 4.58281 6.41428 8.30488C6.8989 10.7329 9.48783 13.8473 10.9652 15.4657C11.2415 15.7684 11.479 16.0188 11.6565 16.2026L11.6575 16.2037L12.0003 16.5518ZM11.9986 14.3727C11.2916 13.5935 10.3606 12.5006 9.54924 11.333C8.6835 10.0871 8.06478 8.91081 7.88524 8.01127C7.6184 6.67434 8.05414 5.41922 8.8949 4.4641C9.75516 3.48683 10.9451 2.93262 12.0003 2.93262C14.5341 2.93262 16.6516 5.25985 16.1014 8.0107C15.9213 8.9113 15.3036 10.0878 14.4405 11.3333C13.6316 12.5006 12.7036 13.5934 11.9986 14.3727Z" fill="black"/>
<path d="M17.6891 19.9898C17.6891 19.9898 19.9107 17.8019 20.2232 16.2392C20.5618 14.5466 19.2519 13.1138 17.6891 13.1138C16.2826 13.1138 14.8107 14.5464 15.1486 16.2392C15.4605 17.8019 17.6891 19.9898 17.6891 19.9898ZM17.6874 16.4795C17.2786 16.4795 16.9472 16.1481 16.9472 15.7393C16.9472 15.3304 17.2786 14.999 17.6874 14.999C18.0962 14.999 18.4276 15.3304 18.4276 15.7393C18.4276 16.1481 18.0962 16.4795 17.6874 16.4795Z" fill="black"/>
<path d="M22 22.5669L20.5273 18.0479C20.2504 18.5066 19.9266 18.9464 19.6237 19.3247C19.5616 19.4022 19.5 19.4776 19.4394 19.5506L19.9335 21.0669H4.07959L4.57634 19.5732L4.52726 19.5141C4.19297 19.1104 3.8213 18.6231 3.50607 18.1118L3.49016 18.0859L2 22.5669H22Z" fill="black"/>
<path d="M6.3063 19.9898C6.3063 19.9898 8.52786 17.8019 8.84041 16.2392C9.17895 14.5466 7.86907 13.1138 6.3063 13.1138C4.8998 13.1138 3.42788 14.5464 3.76575 16.2392C4.07767 17.8019 6.3063 19.9898 6.3063 19.9898ZM6.30469 16.5518C5.89587 16.5518 5.56445 16.2203 5.56445 15.8115C5.56445 15.4027 5.89587 15.0713 6.30469 15.0713C6.71351 15.0713 7.04492 15.4027 7.04492 15.8115C7.04492 16.2203 6.71351 16.5518 6.30469 16.5518Z" fill="black"/>
</svg>
