<svg width="24" height="24" viewBox="0 0 24 24" fill="none" xmlns="http://www.w3.org/2000/svg">
<path d="M4.16992 4.13013C2.92728 4.13013 1.91992 5.13748 1.91992 6.38013V17.7301C1.91992 18.9728 2.92728 19.9801 4.16992 19.9801H11.2677L9.76808 18.4801H4.16992C3.75571 18.4801 3.41992 18.1443 3.41992 17.7301V7.6894L11.9272 13.0051L20.4199 7.69851V12.4275L21.9199 10.9274V6.38013C21.9199 5.13749 20.9126 4.13013 19.6699 4.13013H4.16992ZM11.9272 11.2364L3.52971 5.98925C3.66149 5.77386 3.89892 5.63013 4.16992 5.63013H19.6699C19.9437 5.63013 20.1832 5.77681 20.3141 5.99586L11.9272 11.2364Z" fill="black"/>
<path d="M15.9562 21.8412L23.0128 14.784L21.9521 13.7234L15.9563 19.7197L12.845 16.6076L11.7842 17.6682L15.9562 21.8412Z" fill="black"/>
</svg>
