<svg width="24" height="24" viewBox="0 0 24 24" fill="none" xmlns="http://www.w3.org/2000/svg">
<path d="M18.9961 8.45923C20.6943 8.45923 22.0713 7.08252 22.0713 5.38428C22.0713 3.68604 20.6943 2.30933 18.9961 2.30933C17.2979 2.30933 15.9209 3.68604 15.9209 5.38428C15.9209 7.08252 17.2979 8.45923 18.9961 8.45923Z" fill="black"/>
<path d="M20.5 17.675V10.2327C21.0449 10.064 21.5508 9.80566 22 9.4751V17.675C22 18.9175 20.9922 19.925 19.75 19.925H4.25C3.00781 19.925 2 18.9175 2 17.675V6.32495C2 5.08228 3.00781 4.07495 4.25 4.07495H14.0918C13.9805 4.49268 13.9209 4.93164 13.9209 5.38428L13.9248 5.57495H4.25C3.97852 5.57495 3.74121 5.71875 3.60938 5.93408L12.0068 11.1812L15.459 9.02417C15.6895 9.24805 15.9414 9.45044 16.2109 9.62769C16.3975 9.75024 16.5928 9.86084 16.7949 9.9585L12.0068 12.95L3.5 7.63428V17.675C3.5 18.0891 3.83594 18.425 4.25 18.425H19.75C20.1641 18.425 20.5 18.0891 20.5 17.675Z" fill="black"/>
</svg>
