<svg width="24" height="24" viewBox="0 0 24 24" fill="none" xmlns="http://www.w3.org/2000/svg">
<path d="M20.8834 6.42209L12.0029 1.24341L3.11711 6.42181C2.42524 6.82501 1.99981 7.56554 2 8.36632L2.00246 18.8405C2.00275 20.083 3.01003 21.09 4.25246 21.09H19.7525C20.9953 21.09 22.0028 20.0823 22.0025 18.8395L22 8.36522C21.9998 7.56504 21.5747 6.82518 20.8834 6.42209ZM3.87237 7.7178L12.0027 2.97968L20.1278 7.71786C20.2878 7.81117 20.4051 7.95863 20.4618 8.12936L12.0078 13.1559L3.54084 8.12164C3.59853 7.95414 3.71469 7.80969 3.87237 7.7178ZM3.50035 9.84268L12.0078 14.901L20.5003 9.85155L20.5025 18.8398C20.5026 19.2541 20.1667 19.59 19.7525 19.59H4.25246C3.83832 19.59 3.50256 19.2543 3.50246 18.8402L3.50035 9.84268Z" fill="black"/>
</svg>
