<svg width="24" height="24" viewBox="0 0 24 24" fill="none" xmlns="http://www.w3.org/2000/svg">
<path d="M18.0287 1.74902L17.0285 5.48188L18.5011 5.87647L19.5014 2.14362L20.4006 2.88227C21.6969 3.94703 22.3272 5.70971 21.864 7.43856C21.4067 9.14516 20.0105 10.3477 18.3813 10.6418L18.3343 10.8173H16.7814L17.2051 9.23586L17.7499 9.20787C18.979 9.14475 20.0799 8.3013 20.4151 7.05033C20.5954 6.37755 20.525 5.69613 20.2606 5.1057L19.7559 6.98914C19.6487 7.38924 19.2375 7.62668 18.8374 7.51947L15.9158 6.73665C15.5157 6.62945 15.2783 6.21819 15.3855 5.81809L15.8902 3.93466C15.3659 4.31375 14.9643 4.86871 14.784 5.54149C14.4488 6.79245 14.9806 8.07339 16.0134 8.74258L16.4712 9.0392L15.9947 10.8173H14.4418L14.7496 9.66874C13.4858 8.5994 12.8779 6.85987 13.3351 5.15326C13.7984 3.42441 15.2256 2.21303 16.8806 1.93908L18.0287 1.74902Z" fill="black"/>
<path d="M9.93832 10.3623C8.61028 10.3623 7.45884 11.1184 6.89101 12.2236C6.65947 12.6748 6.52584 13.184 6.51618 13.7236H1.98242V12.2236H5.26758C5.92077 10.2702 7.76513 8.8623 9.93832 8.8623C11.5427 8.8623 12.9679 9.62966 13.8668 10.8174H19.2238C20.3089 10.8174 21.1886 11.6971 21.1886 12.7822V12.8359C21.1886 13.7717 20.5345 14.5547 19.6585 14.7525C19.7027 14.9161 19.7262 15.0881 19.7262 15.2656V15.3193C19.7262 16.2523 19.0759 17.0334 18.2039 17.2341C18.2484 17.3982 18.2721 17.5709 18.2721 17.749V17.8027C18.2721 18.7376 17.6192 19.52 16.7445 19.7187C16.7887 19.8825 16.8123 20.0547 16.8123 20.2324V20.2861C16.8123 21.3713 15.9326 22.251 14.8475 22.251H6.99525C5.91009 22.251 5.0304 21.3713 5.0304 20.2861V20.2368H1.98242V18.7368H6.5304V20.2861C6.5304 20.5429 6.73852 20.751 6.99525 20.751H14.8475C15.1042 20.751 15.3123 20.5429 15.3123 20.2861V20.2324C15.3123 19.9757 15.1042 19.7676 14.8475 19.7676H14.3358L14.3359 18.2676H16.3072C16.564 18.2676 16.7721 18.0595 16.7721 17.8027V17.749C16.7721 17.4923 16.564 17.2842 16.3072 17.2842L15.8379 17.2842V15.7842H17.7614C18.0181 15.7842 18.2262 15.5761 18.2262 15.3193V15.2656C18.2262 15.0089 18.0181 14.8008 17.7614 14.8008L17.3379 14.8008V13.3008H19.2238C19.4805 13.3008 19.6886 13.0927 19.6886 12.8359V12.7822C19.6886 12.5255 19.4805 12.3174 19.2238 12.3174H10.3652V10.8174H11.6451C11.1427 10.5279 10.5598 10.3623 9.93832 10.3623Z" fill="black"/>
</svg>
