<svg width="24" height="24" viewBox="0 0 24 24" fill="none" xmlns="http://www.w3.org/2000/svg">
<path d="M1.72266 4.44757C1.72266 2.9421 2.94308 1.72168 4.44855 1.72168C5.95402 1.72168 7.17444 2.9421 7.17444 4.44757C7.17444 5.67054 6.36907 6.7054 5.25977 7.05072L5.25977 11.25H11.25V7.06918C10.1089 6.74363 9.27344 5.69317 9.27344 4.44757C9.27344 2.9421 10.4939 1.72168 11.9993 1.72168C13.5048 1.72168 14.7252 2.9421 14.7252 4.44757C14.7252 5.69268 13.8904 6.74281 12.75 7.06879V11.25H18.7402V7.05114C17.6302 6.70623 16.8242 5.67103 16.8242 4.44757C16.8242 2.9421 18.0446 1.72168 19.5501 1.72168C21.0556 1.72168 22.276 2.9421 22.276 4.44757C22.276 5.71461 21.4115 6.77974 20.2402 7.08534V11.25H22.2754V12.75H16.4961V16.9308C17.6365 17.2568 18.4713 18.307 18.4713 19.5521C18.4713 21.0575 17.2509 22.278 15.7454 22.278C14.24 22.278 13.0195 21.0575 13.0195 19.5521C13.0195 18.3065 13.855 17.256 14.9961 16.9305V12.75H9.00391L9.00391 16.9303C10.1453 17.2556 10.9811 18.3062 10.9811 19.5521C10.9811 21.0575 9.76066 22.278 8.25519 22.278C6.74972 22.278 5.5293 21.0575 5.5293 19.5521C5.5293 18.3072 6.36379 17.2572 7.50391 16.931L7.50391 12.75H1.72266V11.25H3.75977L3.75977 7.08569C2.58778 6.78055 1.72266 5.71509 1.72266 4.44757ZM4.44855 3.22168C3.77151 3.22168 3.22266 3.77053 3.22266 4.44757C3.22266 5.12461 3.77151 5.67346 4.44855 5.67346C5.12559 5.67346 5.67444 5.12461 5.67444 4.44757C5.67444 3.77053 5.12559 3.22168 4.44855 3.22168ZM8.25519 18.3262C7.57815 18.3262 7.0293 18.875 7.0293 19.5521C7.0293 20.2291 7.57815 20.778 8.25519 20.778C8.93223 20.778 9.48108 20.2291 9.48108 19.5521C9.48108 18.875 8.93223 18.3262 8.25519 18.3262ZM10.7734 4.44757C10.7734 5.12461 11.3223 5.67346 11.9993 5.67346C12.6764 5.67346 13.2252 5.12461 13.2252 4.44757C13.2252 3.77053 12.6764 3.22168 11.9993 3.22168C11.3223 3.22168 10.7734 3.77053 10.7734 4.44757ZM15.7454 18.3262C15.0684 18.3262 14.5195 18.875 14.5195 19.5521C14.5195 20.2291 15.0684 20.778 15.7454 20.778C16.4225 20.778 16.9713 20.2291 16.9713 19.5521C16.9713 18.875 16.4225 18.3262 15.7454 18.3262ZM18.3242 4.44757C18.3242 5.12461 18.8731 5.67346 19.5501 5.67346C20.2271 5.67346 20.776 5.12461 20.776 4.44757C20.776 3.77053 20.2271 3.22168 19.5501 3.22168C18.8731 3.22168 18.3242 3.77053 18.3242 4.44757Z" fill="black"/>
</svg>
