<svg width="24" height="24" viewBox="0 0 24 24" fill="none" xmlns="http://www.w3.org/2000/svg">
<path d="M9.26172 5.17334C9.26172 3.6613 10.4875 2.43555 11.9995 2.43555C13.5116 2.43555 14.7373 3.6613 14.7373 5.17334V11.1921C14.7373 12.7042 13.5116 13.9299 11.9995 13.9299C10.4875 13.9299 9.26172 12.7042 9.26172 11.1921V5.17334ZM11.9995 3.93555C11.3159 3.93555 10.7617 4.48973 10.7617 5.17334V11.1921C10.7617 11.8758 11.3159 12.4299 11.9995 12.4299C12.6831 12.4299 13.2373 11.8758 13.2373 11.1921V5.17334C13.2373 4.48973 12.6831 3.93555 11.9995 3.93555Z" fill="black"/>
<path d="M12.75 18.3679C16.2972 18.003 19.0855 15.0777 19.2405 11.4729H17.7387C17.5743 14.5003 15.0675 16.9062 12.0001 16.9062C8.9327 16.9062 6.42591 14.5003 6.26155 11.4729H4.75977C4.91474 15.0776 7.70294 18.0028 11.25 18.3679V21.5647H12.75V18.3679Z" fill="black"/>
</svg>
