<svg width="24" height="24" viewBox="0 0 24 24" fill="none" xmlns="http://www.w3.org/2000/svg">
<path d="M10.9512 10.5498C10.9512 9.16909 12.0705 8.0498 13.4512 8.0498C14.8319 8.0498 15.9512 9.16909 15.9512 10.5498C15.9512 11.9305 14.8319 13.0498 13.4512 13.0498C12.0705 13.0498 10.9512 11.9305 10.9512 10.5498ZM13.4512 9.5498C12.8989 9.5498 12.4512 9.99752 12.4512 10.5498C12.4512 11.1021 12.8989 11.5498 13.4512 11.5498C14.0035 11.5498 14.4512 11.1021 14.4512 10.5498C14.4512 9.99752 14.0035 9.5498 13.4512 9.5498Z" fill="black"/>
<path d="M6.41699 4.22974C5.17435 4.22974 4.16699 5.2371 4.16699 6.47974V14.6262C4.16699 15.8689 5.17435 16.8762 6.41699 16.8762H20.5283C21.771 16.8762 22.7783 15.8689 22.7783 14.6262V6.47974C22.7783 5.23709 21.771 4.22974 20.5283 4.22974H6.41699ZM5.66699 6.47974C5.66699 6.06552 6.00278 5.72974 6.41699 5.72974H6.96767C7.01688 5.84787 7.04395 5.97749 7.04395 6.11401C7.04395 6.6663 6.59623 7.11401 6.04395 7.11401C5.91022 7.11401 5.78314 7.08805 5.66699 7.04075V6.47974ZM8.54395 6.11401C8.54395 5.9834 8.53389 5.85506 8.51451 5.72974H18.4308C18.4114 5.85506 18.4014 5.9834 18.4014 6.11401C18.4014 7.49473 19.5207 8.61401 20.9014 8.61401C21.0294 8.61401 21.1553 8.60434 21.2783 8.5857V12.5203C21.1553 12.5016 21.0294 12.4919 20.9014 12.4919C19.5207 12.4919 18.4014 13.6112 18.4014 14.9919C18.4014 15.1226 18.4114 15.2509 18.4308 15.3762H8.51451C8.53389 15.2509 8.54395 15.1226 8.54395 14.9919C8.54395 13.6112 7.42466 12.4919 6.04395 12.4919C5.91588 12.4919 5.78999 12.5016 5.66699 12.5203V8.5857C5.78999 8.60434 5.91588 8.61401 6.04395 8.61401C7.42466 8.61401 8.54395 7.49473 8.54395 6.11401ZM19.9014 6.11401C19.9014 5.97749 19.9284 5.84787 19.9776 5.72974H20.5283C20.9425 5.72974 21.2783 6.06552 21.2783 6.47974V7.04075C21.1622 7.08805 21.0351 7.11401 20.9014 7.11401C20.3491 7.11401 19.9014 6.6663 19.9014 6.11401ZM20.9014 13.9919C21.0351 13.9919 21.1622 14.0179 21.2783 14.0652V14.6262C21.2783 15.0404 20.9425 15.3762 20.5283 15.3762H19.9776C19.9284 15.2581 19.9014 15.1285 19.9014 14.9919C19.9014 14.4397 20.3491 13.9919 20.9014 13.9919ZM7.04395 14.9919C7.04395 15.1285 7.01688 15.2581 6.96767 15.3762H6.41699C6.00278 15.3762 5.66699 15.0404 5.66699 14.6262V14.0652C5.78314 14.0179 5.91022 13.9919 6.04395 13.9919C6.59623 13.9919 7.04395 14.4397 7.04395 14.9919Z" fill="black"/>
<path d="M2.7207 7.25342V17.5203C2.7207 17.9345 3.05649 18.2703 3.4707 18.2703H19.6985V19.7703H3.4707C2.22806 19.7703 1.2207 18.7629 1.2207 17.5203V7.25342H2.7207Z" fill="black"/>
</svg>
