<svg width="24" height="24" viewBox="0 0 24 24" fill="none" xmlns="http://www.w3.org/2000/svg">
<path d="M6.25 20.4951C5.83579 20.4951 5.5 20.1593 5.5 19.7451V4.24512C5.5 3.8309 5.83579 3.49512 6.25 3.49512H17.75C18.1642 3.49512 18.5 3.8309 18.5 4.24512V14.1101H12.1113V20.4951H6.25ZM13.6113 20.1718V15.6101H18.1664L13.6113 20.1718ZM4 19.7451C4 20.9878 5.00736 21.9951 6.25 21.9951H13.9104L20 15.8967V4.24512C20 3.00248 18.9926 1.99512 17.75 1.99512H6.25C5.00736 1.99512 4 3.00248 4 4.24512V19.7451Z" fill="black"/>
</svg>
