<svg width="24" height="24" viewBox="0 0 24 24" fill="none" xmlns="http://www.w3.org/2000/svg">
<path d="M1.74414 13.2927C1.74414 12.9986 1.74414 12.7045 1.74414 12.4104C1.75747 12.3676 1.77912 12.3254 1.78356 12.2809C1.83742 11.7622 1.97124 11.263 2.27218 10.8377C2.52093 10.4863 2.82243 10.1711 3.11394 9.85256C3.2111 9.74638 3.23887 9.65965 3.20389 9.51789C3.02843 8.80907 2.98512 8.08579 3.13781 7.37364C3.62587 5.09486 5.0784 3.71836 7.27718 3.12129C8.22554 2.86389 9.20889 2.73713 10.175 2.54589C10.4004 2.50142 10.657 2.48974 10.8391 2.37077C11.4882 1.94826 12.1933 1.75869 12.9557 1.7459C13.9685 1.72922 14.9285 1.97995 15.8352 2.40024C18.2139 3.50321 20.0634 5.1927 21.3083 7.51318C21.939 8.68899 22.265 9.94484 22.2539 11.2947C22.2328 13.847 22.2489 16.3998 22.2461 18.9527C22.2461 19.1589 22.2328 19.3663 22.21 19.5714C22.0268 21.2053 20.8813 22.2255 19.2494 22.2366C18.3921 22.2427 17.7181 21.8752 17.1656 21.2598C16.6559 20.6922 16.4077 20.0128 16.4021 19.2479C16.401 19.0811 16.4021 18.9138 16.4021 18.7025C16.3116 18.7881 16.2633 18.8331 16.2161 18.8798C15.4265 19.6582 14.6398 20.4387 13.8452 21.2126C13.6642 21.3888 13.4687 21.5533 13.2622 21.6984C12.3999 22.3022 11.4116 22.3022 10.4315 22.2116C9.42543 22.1187 8.49595 21.7368 7.61422 21.252C5.92293 20.3231 4.54148 19.0444 3.43043 17.4739C2.74025 16.4982 2.20888 15.4403 1.92904 14.27C1.85186 13.9481 1.80522 13.6185 1.74414 13.2927ZM3.76635 10.9122C3.15724 11.4336 2.94681 12.1002 2.95236 12.8413C2.96069 13.9009 3.30994 14.8715 3.80799 15.7894C4.63476 17.3127 5.77524 18.5635 7.18723 19.5581C8.31161 20.3503 9.52204 20.9502 10.9263 21.0502C11.743 21.108 12.461 20.9062 13.0573 20.3047C14.0118 19.3418 14.9724 18.3845 15.9596 17.4561C16.2938 17.142 16.4299 16.8268 16.4132 16.3676C16.3893 15.7093 16.1867 15.169 15.7136 14.7053C14.6836 13.6952 13.6603 12.6784 12.6575 11.6416C12.1622 11.1295 11.6892 10.5892 11.2566 10.0232C10.4893 9.01865 9.91183 7.90734 9.61866 6.66871C9.51372 6.22563 9.47041 5.7681 9.39656 5.30111C7.84187 6.88998 6.28384 8.48162 4.72637 10.0733C4.67363 10.0321 4.67252 10.0466 4.67807 10.0571C5.32104 11.2574 6.31494 11.9596 7.6603 12.1669C7.81133 12.1903 7.87796 12.1436 7.94681 12.0068C8.23665 11.4281 8.71249 11.0873 9.35381 11.015C10.0729 10.9339 10.6531 11.2113 11.0595 11.8033C11.6337 12.6395 11.3538 13.8508 10.4954 14.3384C9.53593 14.8832 8.36991 14.5302 7.92515 13.5518C7.86907 13.4283 7.80244 13.3828 7.67585 13.3722C6.64975 13.2871 5.74248 12.9041 4.94014 12.2631C4.47096 11.8884 4.09117 11.4359 3.7658 10.9133L3.76635 10.9122ZM20.7169 9.32664L20.7802 9.2755C20.5554 8.79572 20.3616 8.29816 20.1006 7.8384C19.0207 5.93599 17.4676 4.5317 15.5054 3.58494C14.602 3.14908 13.6525 2.87056 12.6309 2.98175C11.949 3.05624 11.376 3.33421 11.0029 3.93629C10.6314 4.53559 10.6009 5.19993 10.6947 5.8715C10.8463 6.95558 11.3105 7.91735 11.8902 8.83186C11.9712 8.95973 12.0551 9.00698 12.2078 9.00642C14.4687 9.00086 16.7303 9.00754 18.9912 8.9992C19.5898 8.99697 20.1761 9.02699 20.7169 9.32664ZM13.0012 10.2045L12.9624 10.2684C13.0212 10.3123 13.0867 10.349 13.1378 10.4007C14.3055 11.5743 15.4693 12.7518 16.6386 13.9237C17.2888 14.5752 17.6164 15.3508 17.6048 16.277C17.5931 17.2321 17.6064 18.1872 17.6003 19.1422C17.597 19.6982 17.7875 20.1691 18.1689 20.5699C18.8363 21.2726 20.0112 21.217 20.5998 20.4509C20.9368 20.0128 21.0429 19.5025 21.0434 18.9649C21.0456 16.7873 21.0456 14.6097 21.0429 12.4327C21.0429 12.1797 21.0395 11.924 21.0051 11.6738C20.9463 11.2452 20.7586 10.876 20.4282 10.5864C20.0984 10.2968 19.7042 10.205 19.28 10.2045C17.245 10.2034 15.2106 10.2045 13.1756 10.2045H13.0001H13.0012ZM4.3266 8.65952C5.84353 7.10735 7.36102 5.55462 8.85131 4.02969C8.60256 4.07583 8.29606 4.13253 7.98956 4.18868C6.77413 4.41217 5.75691 4.96977 5.01455 5.97768C4.43376 6.76656 4.19722 7.65494 4.3266 8.65952ZM9.56813 13.39C9.89961 13.3866 10.1628 13.1159 10.1561 12.7857C10.1495 12.4549 9.87962 12.1986 9.54481 12.2058C9.22388 12.2125 8.96291 12.4799 8.96402 12.7996C8.96513 13.1287 9.23554 13.3933 9.56813 13.39Z" fill="black"/>
</svg>
