<svg width="24" height="24" viewBox="0 0 24 24" fill="none" xmlns="http://www.w3.org/2000/svg">
<path d="M10.7648 12.6438V14.7326H9.2652V7.08447H12.0338C13.5686 7.08447 14.8127 8.32896 14.8127 9.86412C14.8127 11.3993 13.5686 12.6438 12.0338 12.6438H10.7648ZM12.0338 8.58447H10.7648V11.1438H12.0338C12.7404 11.1438 13.3131 10.5709 13.3131 9.86412C13.3131 9.15739 12.7404 8.58447 12.0338 8.58447Z" fill="black"/>
<path d="M5.21933 8.66916H2.99952C2.03329 8.66916 1.25 7.88566 1.25 6.91916V4.85986C1.25 3.89336 2.03329 3.10986 2.99952 3.10986H21.0005C21.9667 3.10986 22.75 3.89336 22.75 4.85986V6.91916C22.75 7.88566 21.9667 8.66916 21.0005 8.66916H18.7882L18.7882 20.8901L17.0254 19.3472L15.3389 20.8899L13.6523 19.3472L11.9658 20.8899L10.2793 19.3472L8.59274 20.8899L6.90621 19.3472L5.21967 20.8899L5.21933 8.66916ZM2.74959 4.85986V6.91916C2.74959 7.05724 2.86149 7.16916 2.99952 7.16916H5.21933L5.21933 4.60986H2.99952C2.86149 4.60986 2.74959 4.72179 2.74959 4.85986ZM18.7882 7.16916H21.0005C21.1385 7.16916 21.2504 7.05724 21.2504 6.91916V4.85986C21.2504 4.72179 21.1385 4.60986 21.0005 4.60986H18.7882V7.16916ZM17.2886 17.8433L17.2886 4.61035H6.71892L6.71892 17.8433L17.2886 17.8433Z" fill="black"/>
</svg>
