<svg width="24" height="24" viewBox="0 0 24 24" fill="none" xmlns="http://www.w3.org/2000/svg">
<path d="M18.918 3.16731C18.0393 2.28863 16.6147 2.28863 15.736 3.16731L14.5268 4.37655L19.2611 9.11085L20.4703 7.90161C21.349 7.02293 21.349 5.59831 20.4703 4.71963L18.918 3.16731ZM16.7967 4.22797C17.0896 3.93508 17.5645 3.93508 17.8574 4.22797L19.4097 5.78029C19.7026 6.07318 19.7026 6.54806 19.4097 6.84095L19.2611 6.98953L16.6481 4.37655L16.7967 4.22797Z" fill="black"/>
<path d="M18.2154 10.1925L13.4728 5.44986L2.17383 16.7494L2.17383 21.4914L6.91585 21.4914L18.2154 10.1925ZM3.67383 17.3707L13.4728 7.57121L16.0941 10.1924L6.29456 19.9914L3.67383 19.9914L3.67383 17.3707Z" fill="black"/>
<path d="M21.8251 21.4845L9.03274 21.4845L11.0329 19.4845H21.8251V21.4845Z" fill="black"/>
</svg>
