<svg width="24" height="24" viewBox="0 0 24 24" fill="none" xmlns="http://www.w3.org/2000/svg">
<path d="M19.2033 3.22053C18.3246 2.34185 16.9 2.34185 16.0213 3.22053L14.8121 4.42978L19.5464 9.16408L20.7556 7.95483C21.6343 7.07615 21.6343 5.65153 20.7556 4.77285L19.2033 3.22053ZM17.082 4.28119C17.3749 3.9883 17.8497 3.9883 18.1426 4.28119L19.695 5.83351C19.9878 6.12641 19.9878 6.60128 19.695 6.89417L19.5464 7.04276L16.9334 4.42978L17.082 4.28119Z" fill="black"/>
<path d="M18.5007 10.2457L13.7581 5.50308L10.9725 8.28885L12.0331 9.34948L13.7581 7.62443L16.3793 10.2457L14.671 11.9539L15.7317 13.0146L18.5007 10.2457Z" fill="black"/>
<path d="M8.505 10.7567L2.1416 4.39333L3.20226 3.33267L20.6324 20.7628L19.5718 21.8235L13.247 15.4988L7.20114 21.5447L2.45911 21.5447L2.45911 16.8026L8.505 10.7567ZM12.1864 14.4381L9.56566 11.8174L3.95911 17.4239L3.95911 20.0447L6.57982 20.0447L12.1864 14.4381Z" fill="black"/>
</svg>
