<svg width="24" height="24" viewBox="0 0 24 24" fill="none" xmlns="http://www.w3.org/2000/svg">
<path d="M14.8848 5.16921C14.8848 4.48734 15.4375 3.93458 16.1194 3.93458C16.8013 3.93458 17.354 4.48734 17.354 5.16921C17.354 5.85107 16.8013 6.40384 16.1194 6.40384C15.4375 6.40384 14.8848 5.85107 14.8848 5.16921ZM16.1194 2.43457C14.6091 2.43457 13.3848 3.65891 13.3848 5.16921C13.3848 6.67951 14.6091 7.90385 16.1194 7.90385C17.6297 7.90385 18.854 6.67951 18.854 5.16921C18.854 3.65891 17.6297 2.43457 16.1194 2.43457ZM12.5232 11.0116C12.4226 11.1077 12.3978 11.1643 12.3926 11.1791V12.0273L19.8496 12.0267V11.1791C19.8444 11.1643 19.8195 11.1077 19.719 11.0116C19.5714 10.8706 19.3216 10.7071 18.9623 10.5521C18.2479 10.2437 17.2309 10.0249 16.1209 10.0249C15.0109 10.0249 13.9943 10.2437 13.2798 10.5521C12.9206 10.7071 12.6708 10.8706 12.5232 11.0116ZM12.6854 9.17486C13.6107 8.77548 14.8333 8.52494 16.1209 8.52494C17.4085 8.52494 18.6314 8.77548 19.5568 9.17486C20.0174 9.37368 20.4376 9.62367 20.7551 9.92694C21.0666 10.2245 21.3496 10.6448 21.3496 11.1674V13.5273H10.8926V11.1674C10.8926 10.6448 11.1756 10.2245 11.4871 9.92694C11.8046 9.62367 12.2248 9.37368 12.6854 9.17486ZM3.40231 3.51173C2.98812 3.51173 2.65234 3.84751 2.65234 4.26172C2.65234 6.16906 3.10988 8.77108 4.56671 11.526C4.57065 11.5337 4.57474 11.5415 4.57897 11.5491C5.39894 13.0943 6.53354 14.687 8.07826 16.2317C9.566 17.7195 11.0753 18.8086 12.5168 19.5992L12.532 19.6075C15.5721 21.2712 18.3093 21.6084 19.9046 21.562C20.3102 21.5502 20.6328 21.2181 20.6328 20.8123V16.5927C20.6328 16.2427 20.3908 15.9393 20.0496 15.8615L16.3054 15.0078C16.0559 14.9509 15.7947 15.0251 15.6124 15.2048L12.7627 18.0125C11.5835 17.3134 10.3563 16.3886 9.13888 15.1711C7.86797 13.9001 6.90123 12.6002 6.17367 11.3339L8.97627 8.69531C9.16525 8.51739 9.2488 8.2544 9.19716 8.00003L8.40801 4.11251C8.33705 3.76295 8.02972 3.51173 7.67304 3.51173H3.40231ZM7.64416 7.88932L5.46085 9.94487C4.62599 8.10487 4.27032 6.39121 4.17792 5.01172H7.06002L7.64416 7.88932ZM19.1329 20.0531C17.8966 19.9894 16.1337 19.6737 14.1532 18.7482L16.3725 16.5616L19.1329 17.1909V20.0531Z" fill="black"/>
</svg>
