<svg width="24" height="24" viewBox="0 0 24 24" fill="none" xmlns="http://www.w3.org/2000/svg">
<path d="M9.62627 7.2085C7.8862 7.2085 6.47559 8.61911 6.47559 10.3592C6.47559 12.0993 7.8862 13.5099 9.62627 13.5099C11.3663 13.5099 12.777 12.0993 12.777 10.3592C12.777 8.61911 11.3663 7.2085 9.62627 7.2085ZM7.97559 10.3592C7.97559 9.44753 8.71462 8.7085 9.62627 8.7085C10.5379 8.7085 11.277 9.44753 11.277 10.3592C11.277 11.2708 10.5379 12.0099 9.62627 12.0099C8.71462 12.0099 7.97559 11.2708 7.97559 10.3592Z" fill="black"/>
<path d="M19.588 13.7855H17.9509C17.7824 13.2179 17.6902 12.6189 17.6946 12.0121L17.6945 12.0013C17.6901 11.3974 17.7815 10.7984 17.9509 10.2279H19.588L21.3205 7.95832L19.1951 5.83446L18.6663 6.31326C17.8342 7.06653 17.15 8.0766 16.7145 9.20866C16.3801 10.078 16.1881 11.0301 16.1945 12.0067C16.1799 14.2453 17.2071 16.3791 18.6663 17.7001L19.1951 18.179L21.3205 16.0551L19.588 13.7855ZM19.3317 15.9219L19.1782 16.0753C18.9732 15.8333 18.7833 15.5685 18.6127 15.2855H18.8459L19.3317 15.9219ZM18.8459 8.72794H18.6127C18.7839 8.44416 18.9739 8.17943 19.1782 7.93814L19.3317 8.09153L18.8459 8.72794Z" fill="black"/>
<path d="M2.55859 3.33105C1.31595 3.33105 0.308594 4.33841 0.308594 5.58105V18.4189C0.308594 19.6616 1.31595 20.6689 2.55859 20.6689H21.4414C22.684 20.6689 23.6914 19.6616 23.6914 18.4189V5.58105C23.6914 4.33841 22.684 3.33105 21.4414 3.33105H2.55859ZM1.80859 5.58105C1.80859 5.16684 2.14438 4.83105 2.55859 4.83105H21.4414C21.8556 4.83105 22.1914 5.16684 22.1914 5.58105V18.4189C22.1914 18.8332 21.8556 19.1689 21.4414 19.1689H16.7934C15.5045 16.6753 12.7614 14.9883 9.62589 14.9883C6.49299 14.9883 3.75183 16.6725 2.46155 19.1627C2.09318 19.1151 1.80859 18.8003 1.80859 18.4189V5.58105ZM9.62589 16.4883C11.9152 16.4883 13.9009 17.5694 15.04 19.1689H4.21181C5.35083 17.5694 7.33661 16.4883 9.62589 16.4883Z" fill="black"/>
</svg>
