<svg width="24" height="24" viewBox="0 0 24 24" fill="none" xmlns="http://www.w3.org/2000/svg">
<path d="M2.97754 3.6355C2.97754 3.22128 3.31333 2.8855 3.72754 2.8855H7.99844C8.35514 2.8855 8.66249 3.13672 8.73345 3.48629L9.52263 7.37381C9.57427 7.62818 9.49071 7.89117 9.30173 8.0691L6.49901 10.7077C7.2266 11.974 8.19339 13.2739 9.46434 14.5449C10.6818 15.7624 11.909 16.6872 13.0884 17.3863L15.9381 14.5785C16.1204 14.3989 16.3817 14.3247 16.6312 14.3816L20.3755 15.2353C20.7167 15.3131 20.9588 15.6165 20.9588 15.9665V20.1861C20.9588 20.5919 20.6361 20.924 20.2305 20.9358C18.6351 20.9822 15.8979 20.645 12.8576 18.9813C12.8525 18.9786 12.8474 18.9758 12.8424 18.973C11.4008 18.1824 9.89148 17.0933 8.40368 15.6055C6.8589 14.0608 5.72425 12.468 4.90425 10.9229C4.90001 10.9153 4.89592 10.9075 4.89198 10.8998C3.4351 8.14486 2.97754 5.54283 2.97754 3.6355ZM5.78616 9.31865L7.96956 7.2631L7.3854 4.3855H4.50318C4.59558 5.76499 4.95126 7.47865 5.78616 9.31865ZM14.4789 18.122C16.4594 19.0475 18.2224 19.3632 19.4588 19.4269V16.5647L16.6983 15.9353L14.4789 18.122Z" fill="black"/>
</svg>
