<svg width="24" height="24" viewBox="0 0 24 24" fill="none" xmlns="http://www.w3.org/2000/svg">
<path d="M12.75 11.2502L12.7499 7L11.2499 7.00003L11.25 11.2502L7 11.2503L7.00003 12.7503L11.25 12.7502L11.2501 17L12.7501 17L12.75 12.7502L17 12.7501L17 11.2501L12.75 11.2502Z" fill="black"/>
<path d="M12 2C6.47715 2 2 6.47715 2 12C2 17.5228 6.47715 22 12 22C17.5228 22 22 17.5228 22 12C22 6.47715 17.5228 2 12 2ZM3.5 12C3.5 7.30558 7.30558 3.5 12 3.5C16.6944 3.5 20.5 7.30558 20.5 12C20.5 16.6944 16.6944 20.5 12 20.5C7.30558 20.5 3.5 16.6944 3.5 12Z" fill="black"/>
</svg>
