<svg width="24" height="24" viewBox="0 0 24 24" fill="none" xmlns="http://www.w3.org/2000/svg">
<path d="M7.68359 7.48047V14.6313H8.87695V7.48047H7.68359Z" fill="black"/>
<path d="M9.47266 7.48047V14.6313H10.6504V7.48047H9.47266Z" fill="black"/>
<path d="M11.2461 7.48047V14.6313H11.8418V7.48047H11.2461Z" fill="black"/>
<path d="M12.7402 7.48047V14.6313H13.9336V7.48047H12.7402Z" fill="black"/>
<path d="M14.5293 7.48047V14.6313H16.3184V7.48047H14.5293Z" fill="black"/>
<path d="M12.5098 2.3208L12.002 1.84961L11.4922 2.3208C9.45312 4.20801 6.85352 4.72168 3.63477 4.78125L2.89844 4.79492V5.53125C2.89844 10.625 4.06445 14.0537 5.77734 16.5581C7.47656 19.0454 9.67773 20.5566 11.5762 21.8594L12 22.1504L12.4258 21.8594C14.3242 20.5566 16.5254 19.0454 18.2246 16.5581C19.9375 14.0537 21.1035 10.625 21.1035 5.53125V4.79492L20.3672 4.78125C17.1484 4.72168 14.5488 4.20801 12.5098 2.3208ZM7.01562 15.7114C5.58008 13.6133 4.51172 10.6973 4.40625 6.25879C7.22461 6.13965 9.83008 5.60791 12.002 3.86182C14.1719 5.60791 16.7773 6.13965 19.5957 6.25879C19.4902 10.6973 18.4219 13.6133 16.9863 15.7114C15.5762 17.7749 13.7773 19.104 12 20.3306C10.2246 19.104 8.42578 17.7749 7.01562 15.7114Z" fill="black"/>
</svg>
