<svg width="24" height="24" viewBox="0 0 24 24" fill="none" xmlns="http://www.w3.org/2000/svg">
<path d="M5.23828 1.91504C3.99564 1.91504 2.98828 2.9224 2.98828 4.16504V19.665C2.98828 20.9077 3.99564 21.915 5.23828 21.915H12.8866C12.8057 21.8563 12.7255 21.7953 12.6463 21.7321C12.2502 21.4158 11.8053 20.9826 11.4601 20.415H5.23828C4.82407 20.415 4.48828 20.0793 4.48828 19.665V4.16504C4.48828 3.75083 4.82407 3.41504 5.23828 3.41504H11.0996V9.80005H17.4883V10.5583L18.2129 11.3986L18.9883 10.8442V8.01342L12.8987 1.91504H5.23828ZM11.1114 17.6159C11.173 17.3855 11.2562 17.1275 11.3329 16.8979H5.58398V18.1479H10.9953C11.0277 17.9473 11.0716 17.7647 11.1114 17.6159ZM10.3614 15.323L11.1225 14.0981H5.58398V15.3481H10.3901L10.3614 15.323ZM12.8624 11.2983H5.58398V12.5483H12.0856L12.8624 11.2983ZM17.1547 8.30005H12.5996V3.73835L17.1547 8.30005ZM19.4058 18.7835C19.4011 18.8207 19.3453 18.9723 19.0716 19.2235C18.8196 19.4548 18.4743 19.6872 18.1031 19.9001C17.7369 20.11 17.3713 20.2864 17.0949 20.411C17.0112 20.4487 16.9363 20.4815 16.8728 20.5086C16.8107 20.4902 16.7377 20.4679 16.656 20.4415C16.3749 20.3509 15.9978 20.2153 15.6075 20.035C15.2141 19.8532 14.8287 19.6357 14.5183 19.3879C14.2228 19.1519 14.0367 18.9213 13.9473 18.7079C13.9476 18.7017 13.9482 18.6943 13.949 18.6855C13.9554 18.6207 13.9738 18.5248 14.0095 18.3913C14.0647 18.1848 14.1415 17.9579 14.2293 17.698C14.2586 17.6113 14.2892 17.5211 14.3206 17.4267C14.4373 17.0755 14.5651 16.6684 14.6237 16.2912C14.676 15.9547 14.7127 15.4206 14.3963 14.9886C14.3436 14.9166 14.2866 14.8467 14.23 14.7815L14.4301 14.4594C14.6677 14.5613 14.965 14.6587 15.2846 14.6869C15.5583 14.711 15.799 14.622 15.9496 14.553C16.1163 14.4766 16.2768 14.375 16.418 14.2748C16.4993 14.2171 16.5805 14.1552 16.66 14.0916C16.7912 14.2014 16.9473 14.3193 17.1177 14.4204C17.3031 14.5303 17.5526 14.6489 17.836 14.6841C18.1052 14.7175 18.3593 14.6682 18.5525 14.6116C18.6867 14.5723 18.8145 14.5225 18.9298 14.471L19.1234 14.7905C19.063 14.8622 19.0017 14.9391 18.9451 15.0175C18.6462 15.432 18.6781 15.9371 18.7255 16.254C18.7784 16.6087 18.8961 16.9921 19.0062 17.3279C19.0407 17.4332 19.0744 17.5338 19.1069 17.6308C19.1857 17.8661 19.2573 18.0796 19.3147 18.2845C19.4008 18.5917 19.4115 18.7396 19.4058 18.7835ZM16.7412 22.0283L16.9713 22.0849L17.192 21.9993L17.1961 21.9978L17.2045 21.9944L17.2342 21.9826C17.2594 21.9725 17.2953 21.958 17.3405 21.9392C17.4308 21.9018 17.5584 21.8474 17.7113 21.7785C18.0158 21.6412 18.4279 21.4429 18.8492 21.2013C19.2655 20.9626 19.7177 20.6666 20.0859 20.3286C20.4324 20.0106 20.8196 19.552 20.8937 18.9742C20.9415 18.6011 20.8467 18.1926 20.759 17.8797C20.6907 17.636 20.6006 17.367 20.5172 17.118C20.4874 17.0293 20.4583 16.9425 20.4316 16.8609C20.3216 16.5251 20.2414 16.2491 20.209 16.0325C20.1943 15.9343 20.1942 15.8772 20.1956 15.8496C20.2628 15.7624 20.3474 15.6669 20.4265 15.5829C20.4711 15.5356 20.5102 15.4959 20.5378 15.4684C20.5515 15.4547 20.5622 15.4442 20.5691 15.4375L20.5764 15.4303L20.5774 15.4294L21.0125 15.0134L19.4174 12.3814L18.7606 12.8509L18.7596 12.8517L18.7581 12.8527L18.7416 12.864C18.7259 12.8747 18.7011 12.8911 18.6693 12.9111C18.6047 12.9518 18.5155 13.0047 18.416 13.0548C18.3143 13.106 18.2158 13.1472 18.1307 13.1722C18.0628 13.1921 18.0276 13.1944 18.0194 13.1949C18.0094 13.1921 17.9645 13.1786 17.8828 13.1302C17.7908 13.0756 17.6894 12.9992 17.5888 12.9125C17.49 12.8273 17.4036 12.7422 17.3417 12.678C17.311 12.6462 17.2873 12.6204 17.2719 12.6035L17.2556 12.5853L17.2532 12.5826L16.7416 11.9893L16.1712 12.5269C15.9731 12.7136 15.7494 12.9099 15.5497 13.0516C15.4591 13.1159 15.3888 13.158 15.3398 13.1821C15.1969 13.1559 15.0331 13.0927 14.8773 13.0129C14.7913 12.9689 14.7196 12.926 14.6707 12.8949C14.6464 12.8795 14.6284 12.8674 14.6176 12.86L14.6073 12.8529L14.6064 12.8523L13.9566 12.3795L12.3076 15.033L12.7861 15.4518L12.7871 15.4527L12.7939 15.4588C12.8005 15.4646 12.8109 15.474 12.8243 15.4864C12.8513 15.5113 12.8897 15.5475 12.9334 15.5908C13.0124 15.6693 13.0942 15.7571 13.1568 15.8364C13.1591 15.8638 13.1615 15.932 13.1415 16.061C13.1043 16.3006 13.0146 16.6002 12.8972 16.9534C12.8728 17.0267 12.8469 17.1031 12.8204 17.1814C12.7287 17.4523 12.6295 17.7455 12.5604 18.0036C12.5148 18.174 12.4739 18.3585 12.4562 18.539C12.4395 18.7091 12.4358 18.9435 12.5209 19.1779C12.7321 19.7593 13.1496 20.2144 13.5823 20.56C14.0197 20.9093 14.5214 21.1855 14.9784 21.3967C15.4387 21.6093 15.8754 21.7659 16.1956 21.8691C16.3565 21.921 16.4897 21.96 16.5842 21.9864C16.6315 21.9996 16.6691 22.0097 16.6958 22.0167L16.7274 22.0248L16.7367 22.0272L16.7397 22.0279L16.7412 22.0283Z" fill="black"/>
</svg>
