<svg width="24" height="24" viewBox="0 0 24 24" fill="none" xmlns="http://www.w3.org/2000/svg">
<path d="M12.0005 5.21631L12.425 5.60916C13.0475 6.18523 13.8553 6.36351 14.9675 6.38406L15.581 6.39539V7.00895C15.581 8.86967 15.1539 10.1571 14.4998 11.1138C13.8594 12.0504 13.0332 12.6172 12.3664 13.0747L12.0004 13.3258L11.6344 13.0747C10.9676 12.6173 10.1414 12.0504 9.50109 11.1138C8.847 10.1571 8.41992 8.86966 8.41992 7.00895V6.39539L9.03338 6.38406C10.1456 6.36351 10.9535 6.18523 11.576 5.60916L12.0005 5.21631ZM11.998 6.86788V11.8054L12.0004 11.8071C12.5479 11.4195 13.0585 11.0071 13.4679 10.4083C13.8934 9.7859 14.2348 8.92036 14.3137 7.60382C13.4971 7.53716 12.7024 7.3482 12.0005 6.86621L11.998 6.86788Z" fill="black"/>
<path d="M8.09375 18.5566H15.9046V17.3066H8.09375V18.5566Z" fill="black"/>
<path d="M8.09375 15.8745H15.9046V14.6245H8.09375V15.8745Z" fill="black"/>
<path d="M4.58789 5C4.58789 3.75736 5.59525 2.75 6.83789 2.75H17.1622C18.4049 2.75 19.4122 3.75736 19.4122 5V19C19.4122 20.2426 18.4049 21.25 17.1622 21.25H6.83789C5.59525 21.25 4.58789 20.2426 4.58789 19V5ZM6.83789 4.25C6.42368 4.25 6.08789 4.58579 6.08789 5V19C6.08789 19.4142 6.42368 19.75 6.83789 19.75H17.1622C17.5764 19.75 17.9122 19.4142 17.9122 19V5C17.9122 4.58579 17.5764 4.25 17.1622 4.25H6.83789Z" fill="black"/>
</svg>
