<svg width="24" height="24" viewBox="0 0 24 24" fill="none" xmlns="http://www.w3.org/2000/svg">
<path d="M11.2225 11.1929V12.6224H9.79297V14.1224H11.2225V15.552H12.7225V14.1224H14.1521V12.6224H12.7225V11.1929H11.2225Z" fill="black"/>
<path d="M12 8.12646L12.4246 8.51931C13.395 9.4174 14.6419 9.67647 16.2615 9.70639L16.875 9.71772V10.3313C16.875 12.9626 16.2719 14.7574 15.368 16.0795C14.4762 17.3839 13.3237 18.1746 12.361 18.8351L11.9999 19.0829L11.639 18.8352C10.6763 18.1747 9.52375 17.384 8.63194 16.0795C7.72806 14.7574 7.125 12.9626 7.125 10.3313V9.71772L7.73846 9.70639C9.35813 9.67647 10.6051 9.4174 11.5755 8.51931L12 8.12646ZM8.38679 10.9325C8.4704 13.0184 8.99017 14.3886 9.66384 15.374C10.3196 16.3333 11.1474 16.9711 11.9999 17.5655C12.8525 16.9711 13.6803 16.3332 14.3361 15.374C15.0098 14.3886 15.5296 13.0184 15.6132 10.9325C14.3075 10.8545 13.0655 10.5819 12 9.78955C10.9345 10.5819 9.69246 10.8545 8.38679 10.9325Z" fill="black"/>
<path d="M4 4.25C4 3.00736 5.00736 2 6.25 2H13.9104L20 8.09838V19.75C20 20.9926 18.9926 22 17.75 22H6.25C5.00736 22 4 20.9926 4 19.75V4.25ZM6.25 3.5C5.83579 3.5 5.5 3.83579 5.5 4.25V19.75C5.5 20.1642 5.83579 20.5 6.25 20.5H17.75C18.1642 20.5 18.5 20.1642 18.5 19.75V8.71907L13.2885 3.5H6.25Z" fill="black"/>
</svg>
