<svg width="24" height="24" viewBox="0 0 24 24" fill="none" xmlns="http://www.w3.org/2000/svg">
<path d="M15.2661 19.0522H18.4374L18.4374 8.30871L21.998 8.30871L15.6874 1.99805L9.37673 8.30872H12.9374V9.5781C13.5034 10.0084 14.0085 10.5147 14.4374 11.0818V6.80871L12.998 6.80872L15.6874 4.11937L18.3767 6.80871H16.9374L16.9374 17.5522H15.7918C15.6675 18.0747 15.4903 18.5767 15.2661 19.0522Z" fill="black"/>
<path d="M6.31421 12.5405C5.60997 12.5405 5.03906 13.1114 5.03906 13.8157C5.03906 14.5199 5.60997 15.0908 6.31421 15.0908C7.01845 15.0908 7.58936 14.5199 7.58936 13.8157C7.58936 13.1114 7.01845 12.5405 6.31421 12.5405ZM6.53906 13.8157C6.53906 13.9399 6.43839 14.0405 6.31421 14.0405C6.19003 14.0405 6.08936 13.9399 6.08936 13.8157C6.08936 13.6915 6.19003 13.5908 6.31421 13.5908C6.43839 13.5908 6.53906 13.6915 6.53906 13.8157Z" fill="black"/>
<path d="M10.3063 12.6357L5.13477 17.8073L6.19543 18.8679L11.367 13.6964L10.3063 12.6357Z" fill="black"/>
<path d="M8.91406 17.6894C8.91406 16.9853 9.48482 16.4146 10.1889 16.4146C10.893 16.4146 11.4637 16.9853 11.4637 17.6894C11.4637 18.3935 10.893 18.9642 10.1889 18.9642C9.48482 18.9642 8.91406 18.3935 8.91406 17.6894ZM10.1889 17.9146C10.3133 17.9146 10.4141 17.8137 10.4141 17.6894C10.4141 17.565 10.3133 17.4642 10.1889 17.4642C10.0645 17.4642 9.96373 17.565 9.96373 17.6894C9.96373 17.8137 10.0645 17.9146 10.1889 17.9146Z" fill="black"/>
<path d="M2.00195 15.7519C2.00195 12.3001 4.80017 9.50189 8.25195 9.50189C11.7037 9.50189 14.502 12.3001 14.502 15.7519C14.502 19.2037 11.7037 22.0019 8.25195 22.0019C4.80017 22.0019 2.00195 19.2037 2.00195 15.7519ZM8.25195 11.0019C5.6286 11.0019 3.50195 13.1285 3.50195 15.7519C3.50195 18.3752 5.6286 20.5019 8.25195 20.5019C10.8753 20.5019 13.002 18.3752 13.002 15.7519C13.002 13.1285 10.8753 11.0019 8.25195 11.0019Z" fill="black"/>
</svg>
