<svg width="24" height="24" viewBox="0 0 24 24" fill="none" xmlns="http://www.w3.org/2000/svg">
<path d="M21.2875 6.66003L21.9946 7.36714L20.1709 9.19083L18.3472 7.36714L19.0543 6.66003L19.782 7.38773C19.7859 7.31393 19.7879 7.23962 19.7879 7.16485C19.7879 4.86736 17.9254 3.00488 15.6279 3.00488C15.5401 3.00488 15.453 3.0076 15.3666 3.01296L15.3374 2.01292C15.4336 2.00759 15.5304 2.00488 15.6279 2.00488C18.4759 2.00488 20.7851 4.31226 20.7879 7.15963L21.2875 6.66003Z" fill="black"/>
<path fill-rule="evenodd" clip-rule="evenodd" d="M15.4234 11.1234C13.0522 11.1234 11.1299 13.0457 11.1299 15.417C11.1299 17.7883 13.0522 19.7105 15.4234 19.7105C17.7947 19.7105 19.717 17.7883 19.717 15.417C19.717 13.0457 17.7947 11.1234 15.4234 11.1234ZM12.1703 14.8992C12.1437 15.0679 12.1299 15.2408 12.1299 15.417C12.1299 16.3309 12.5021 17.1579 13.1033 17.7546L13.8362 16.7278C13.5414 16.3714 13.3643 15.9142 13.3643 15.4156C13.3643 15.3719 13.3656 15.3286 13.3683 15.2856L12.1703 14.8992ZM12.4936 13.9111L13.6935 14.298C13.9698 13.8711 14.3999 13.5529 14.9053 13.4217V12.164C13.852 12.3304 12.9648 12.9961 12.4936 13.9111ZM15.4234 18.7105C14.8927 18.7105 14.3912 18.585 13.9472 18.362L14.679 17.3366C14.9101 17.4262 15.1613 17.4754 15.424 17.4754C15.6901 17.4754 15.9444 17.425 16.1778 17.3331L16.9088 18.3574C16.4625 18.5833 15.9578 18.7105 15.4234 18.7105ZM17.7508 17.7474C18.3477 17.1512 18.717 16.3272 18.717 15.417C18.717 15.2411 18.7032 15.0684 18.6766 14.8999L17.4798 15.2859C17.4824 15.3288 17.4838 15.372 17.4838 15.4156C17.4838 15.9108 17.3091 16.3652 17.0179 16.7204L17.7508 17.7474ZM15.945 12.1645C16.997 12.3319 17.883 12.9974 18.3536 13.9116L17.1547 14.2983C16.8788 13.8718 16.4495 13.5538 15.945 13.4223V12.1645ZM15.424 14.8559C15.1149 14.8559 14.8643 15.1065 14.8643 15.4156C14.8643 15.7248 15.1149 15.9754 15.424 15.9754C15.7332 15.9754 15.9838 15.7248 15.9838 15.4156C15.9838 15.1065 15.7332 14.8559 15.424 14.8559Z" fill="black"/>
<path fill-rule="evenodd" clip-rule="evenodd" d="M15.4238 8.84219C11.7919 8.84219 8.84766 11.7864 8.84766 15.4183C8.84766 19.0502 11.7919 21.9944 15.4238 21.9944C19.0556 21.9944 21.9999 19.0502 21.9999 15.4183C21.9999 11.7864 19.0556 8.84219 15.4238 8.84219ZM9.84766 15.4183C9.84766 12.3387 12.3442 9.84219 15.4238 9.84219C18.5034 9.84219 20.9999 12.3387 20.9999 15.4183C20.9999 18.4979 18.5034 20.9944 15.4238 20.9944C12.3442 20.9944 9.84766 18.4979 9.84766 15.4183Z" fill="black"/>
<path d="M3.82619 13.1596H2.58594C2.3098 13.1596 2.08594 13.3834 2.08594 13.6596C2.08594 13.9357 2.3098 14.1596 2.58594 14.1596H7.44518C7.49853 13.8187 7.57319 13.4849 7.66778 13.1596H5.34898C3.9274 12.149 3 10.4886 3 8.61165C3 5.53206 5.49651 3.03555 8.5761 3.03555C11.2614 3.03555 13.5033 4.93369 14.0334 7.46143C14.3599 7.40479 14.693 7.36774 15.0316 7.35155C14.4438 4.32248 11.777 2.03555 8.5761 2.03555C4.94422 2.03555 2 4.97977 2 8.61165C2 10.3762 2.695 11.9785 3.82619 13.1596Z" fill="black"/>
<path fill-rule="evenodd" clip-rule="evenodd" d="M8.57577 4.3168C10.6635 4.3168 12.4033 5.80692 12.7894 7.78162C12.4634 7.89406 12.1468 8.02679 11.8412 8.1783C11.8375 8.14984 11.8334 8.12149 11.829 8.09326L10.6321 8.47923C10.6348 8.52214 10.6361 8.56541 10.6361 8.60899C10.6361 8.719 10.6275 8.827 10.6109 8.93234C9.96272 9.41412 9.38924 9.99076 8.911 10.6417C8.80209 10.6595 8.69031 10.6688 8.57637 10.6688C8.31365 10.6688 8.06243 10.6196 7.83139 10.5299L7.09953 11.5553C7.42658 11.7196 7.78476 11.831 8.16286 11.8783C8.01316 12.1847 7.8823 12.502 7.77178 12.8287C5.7848 12.4523 4.28223 10.7068 4.28223 8.61035C4.28223 6.23909 6.20451 4.3168 8.57577 4.3168ZM5.32269 8.0926C5.29606 8.26127 5.28223 8.43419 5.28223 8.61035C5.28223 9.5243 5.65449 10.3513 6.25566 10.948L6.98855 9.92113C6.69376 9.5648 6.5166 9.10758 6.5166 8.60899C6.5166 8.56531 6.51796 8.52194 6.52064 8.47893L5.32269 8.0926ZM5.6459 7.10441L6.84587 7.49139C7.12218 7.06443 7.55221 6.74622 8.05762 6.6151V5.35733C7.00436 5.52377 6.11713 6.18946 5.6459 7.10441ZM9.09731 5.35786C10.1493 5.52523 11.0353 6.19072 11.506 7.105L10.307 7.49165C10.0311 7.06517 9.60187 6.74717 9.09731 6.61567V5.35786ZM8.57637 8.04922C8.26722 8.04922 8.0166 8.29984 8.0166 8.60899C8.0166 8.91814 8.26722 9.16876 8.57637 9.16876C8.88552 9.16876 9.13614 8.91814 9.13614 8.60899C9.13614 8.29984 8.88552 8.04922 8.57637 8.04922Z" fill="black"/>
</svg>
