<svg width="24" height="24" viewBox="0 0 24 24" fill="none" xmlns="http://www.w3.org/2000/svg">
<path d="M11.9791 10.4786L7.01827 19.0178H16.9396L11.9791 10.4786ZM10.8983 9.35303C11.3802 8.52357 12.5782 8.52359 13.06 9.35307L18.4548 18.6399C18.9389 19.4732 18.3376 20.5178 17.3739 20.5178H6.5839C5.62015 20.5178 5.01893 19.4732 5.50306 18.6399L10.8983 9.35303Z" fill="black"/>
<path d="M11.2519 16.3617V13.1909H12.7519V16.3617H11.2519Z" fill="black"/>
<path d="M11.1719 17.6471C11.1719 17.1888 11.5433 16.8164 12.0025 16.8164C12.4618 16.8164 12.8332 17.1888 12.8332 17.6471C12.8332 18.1054 12.4618 18.4778 12.0025 18.4778C11.5433 18.4778 11.1719 18.1054 11.1719 17.6471Z" fill="black"/>
<path d="M21.9703 12.9748L19.9726 13.0721C19.8816 11.2026 19.1307 9.4118 17.8611 8.03652L19.3307 6.67991C20.9186 8.40001 21.8565 10.6366 21.9703 12.9748ZM18.7127 6.06675L17.3678 7.54707C16.6993 6.93971 15.9137 6.43523 15.0232 6.07091C14.1327 5.7066 13.2189 5.5158 12.3163 5.4804L12.3947 3.48193C13.527 3.52634 14.671 3.76589 15.7805 4.21984C16.8901 4.6738 17.8739 5.30477 18.7127 6.06675ZM11.5241 3.48606L11.6214 5.4837C9.7519 5.57471 7.96112 6.32562 6.58584 7.59521L5.22922 6.12566C6.94933 4.53774 9.18591 3.59989 11.5241 3.48606ZM4.61607 6.74369C3.85408 7.58242 3.22311 8.56622 2.76916 9.6758C2.3152 10.7854 2.07566 11.9293 2.03125 13.0616L4.02971 13.14C4.06511 12.2375 4.25591 11.3236 4.62023 10.4331C4.98455 9.54264 5.48903 8.75708 6.09639 8.08855L4.61607 6.74369Z" fill="black"/>
</svg>
