<svg width="24" height="24" viewBox="0 0 24 24" fill="none" xmlns="http://www.w3.org/2000/svg">
<path d="M8.84375 12.91L10.9384 15.0047L8.84375 17.0994L9.90441 18.16L11.9991 16.0654L14.0938 18.16L15.1544 17.0994L13.0597 15.0047L15.1544 12.91L14.0938 11.8494L11.9991 13.944L9.90441 11.8494L8.84375 12.91Z" fill="black"/>
<path d="M4.95 3C3.87304 3 3 3.87304 3 4.95V19.05C3 20.127 3.87304 21 4.95 21H19.05C20.127 21 21 20.127 21 19.05V7.00645L16.954 3H4.95ZM4.5 4.95C4.5 4.70147 4.70147 4.5 4.95 4.5H5.89187V9.75H15.375V4.5H16.337L19.5 7.63209V19.05C19.5 19.2985 19.2985 19.5 19.05 19.5H4.95C4.70147 19.5 4.5 19.2985 4.5 19.05V4.95ZM7.39187 8.25V4.5H13.875V8.25H7.39187Z" fill="black"/>
</svg>
