<svg width="24" height="24" viewBox="0 0 24 24" fill="none" xmlns="http://www.w3.org/2000/svg">
<path d="M16.3941 15.0043L10.9907 11.7622V18.2463L16.3941 15.0043Z" fill="black"/>
<path d="M8.30664 11.7699V18.2426H9.80664V11.7699H8.30664Z" fill="black"/>
<path d="M4.95 3C3.87304 3 3 3.87304 3 4.95V19.05C3 20.127 3.87304 21 4.95 21H19.05C20.127 21 21 20.127 21 19.05V7.00645L16.954 3H4.95ZM4.5 4.95C4.5 4.70147 4.70147 4.5 4.95 4.5H5.89187V9.75H15.375V4.5H16.337L19.5 7.63209V19.05C19.5 19.2985 19.2985 19.5 19.05 19.5H4.95C4.70147 19.5 4.5 19.2985 4.5 19.05V4.95ZM7.39187 8.25V4.5H13.875V8.25H7.39187Z" fill="black"/>
</svg>
