<svg width="24" height="24" viewBox="0 0 24 24" fill="none" xmlns="http://www.w3.org/2000/svg">
<path d="M9.47559 2.40991C8.23294 2.40991 7.22559 3.41727 7.22559 4.65991V6.42603H3.63867C2.39603 6.42603 1.38867 7.43339 1.38867 8.67603V18.3988C1.38867 19.6414 2.39603 20.6488 3.63867 20.6488H10.4168C10.2286 20.1727 10.0926 19.6704 10.0159 19.1488H3.63867C3.22446 19.1488 2.88867 18.813 2.88867 18.3988V12.1094H19.7552C19.8236 12.1434 19.8914 12.1756 19.9585 12.2075C20.1513 12.299 20.3384 12.3879 20.5194 12.5095V8.67603C20.5194 7.43338 19.5121 6.42603 18.2694 6.42603H14.6819V4.65991C14.6819 3.41727 13.6746 2.40991 12.4319 2.40991H9.47559ZM13.1819 6.42603H8.72559V4.65991C8.72559 4.2457 9.06137 3.90991 9.47559 3.90991H12.4319C12.8461 3.90991 13.1819 4.2457 13.1819 4.65991V6.42603ZM19.0194 10.6094H2.88867V8.67603C2.88867 8.26181 3.22446 7.92603 3.63867 7.92603H18.2694C18.6836 7.92603 19.0194 8.26181 19.0194 8.67603V10.6094Z" fill="black"/>
<path d="M11.9434 18.1523C11.9434 15.5052 14.0892 13.3594 16.7363 13.3594C19.3834 13.3594 21.5292 15.5052 21.5292 18.1523C21.5292 19.1973 21.1948 20.1642 20.6272 20.9518L22.6113 22.9359L21.5507 23.9966L19.5714 22.0173C18.7774 22.6007 17.7971 22.9453 16.7363 22.9453C14.0892 22.9453 11.9434 20.7994 11.9434 18.1523ZM16.7363 14.8594C14.9177 14.8594 13.4434 16.3337 13.4434 18.1523C13.4434 19.971 14.9177 21.4453 16.7363 21.4453C18.5549 21.4453 20.0292 19.971 20.0292 18.1523C20.0292 16.3337 18.5549 14.8594 16.7363 14.8594Z" fill="black"/>
</svg>
