<svg width="24" height="24" viewBox="0 0 24 24" fill="none" xmlns="http://www.w3.org/2000/svg">
<path d="M4.875 2.625C3.63236 2.625 2.625 3.63236 2.625 4.875V9.45995H4.125V4.875C4.125 4.46079 4.46079 4.125 4.875 4.125H19.125C19.5392 4.125 19.875 4.46079 19.875 4.875V19.125C19.875 19.5392 19.5392 19.875 19.125 19.875H14.5425V21.375H19.125C20.3676 21.375 21.375 20.3676 21.375 19.125V4.875C21.375 3.63236 20.3676 2.625 19.125 2.625H4.875Z" fill="black"/>
<path d="M4.76874 10.9551H2.625V13.0988H4.125V12.4551H4.76874V10.9551Z" fill="black"/>
<path d="M9.2287 10.9551H6.44122V12.4551H9.2287V10.9551Z" fill="black"/>
<path d="M13.0449 10.9551H10.9012V12.4551H11.5449V13.0988H13.0449V10.9551Z" fill="black"/>
<path d="M2.625 14.7713V17.5588H4.125V14.7713H2.625Z" fill="black"/>
<path d="M13.0449 17.5588V14.7713H11.5449V17.5588H13.0449Z" fill="black"/>
<path d="M4.125 19.2313H2.625V21.375H4.76874V19.875H4.125V19.2313Z" fill="black"/>
<path d="M13.0449 21.375V19.2313H11.5449V19.875H10.9012V21.375H13.0449Z" fill="black"/>
<path d="M6.44122 21.375H9.2287V19.875H6.44122V21.375Z" fill="black"/>
</svg>
