<svg width="24" height="24" viewBox="0 0 24 24" fill="none" xmlns="http://www.w3.org/2000/svg">
<path d="M4.875 2.625C3.63236 2.625 2.625 3.63236 2.625 4.875V5.74316H4.125V4.875C4.125 4.46079 4.46079 4.125 4.875 4.125H19.125C19.5392 4.125 19.875 4.46079 19.875 4.875V19.125C19.875 19.5392 19.5392 19.875 19.125 19.875H18.2596V21.375H19.125C20.3676 21.375 21.375 20.3676 21.375 19.125V4.875C21.375 3.63236 20.3676 2.625 19.125 2.625H4.875Z" fill="black"/>
<path d="M4.69051 7.24609H2.625V9.3116H4.125V8.74609H4.69051V7.24609Z" fill="black"/>
<path d="M8.90015 7.24609H6.26912V8.74609H8.90015V7.24609Z" fill="black"/>
<path d="M13.1098 7.24609H10.4788V8.74609H13.1098V7.24609Z" fill="black"/>
<path d="M16.7539 7.24609H14.6884V8.74609H15.2539V9.3116H16.7539V7.24609Z" fill="black"/>
<path d="M16.7539 13.5212V10.8902H15.2539V13.5212H16.7539Z" fill="black"/>
<path d="M2.625 10.8902V13.5212H4.125V10.8902H2.625Z" fill="black"/>
<path d="M2.625 15.0999V17.7309H4.125V15.0999H2.625Z" fill="black"/>
<path d="M16.7539 17.7309V15.0999H15.2539V17.7309H16.7539Z" fill="black"/>
<path d="M4.125 19.3095H2.625V21.375H4.69051V19.875H4.125V19.3095Z" fill="black"/>
<path d="M16.7539 21.375V19.3095H15.2539V19.875H14.6884V21.375H16.7539Z" fill="black"/>
<path d="M6.26912 21.375H8.90015V19.875H6.26912V21.375Z" fill="black"/>
<path d="M10.4788 21.375H13.1098V19.875H10.4788V21.375Z" fill="black"/>
</svg>
