<svg width="24" height="24" viewBox="0 0 24 24" fill="none" xmlns="http://www.w3.org/2000/svg">
<path d="M6.143 1.24902H9.95323L10.2426 3.37697C10.4913 3.49524 10.7287 3.6329 10.9531 3.78796L12.9417 2.97423L14.688 5.99891H13.2505C13.2428 5.99891 13.2351 5.99895 13.2273 5.99902H12.9554L12.2975 4.85854L10.7077 5.50912L10.3611 5.22014C10.0467 4.95808 9.68775 4.74869 9.2977 4.60494L8.87465 4.44904L8.64343 2.74902H7.4528L7.22163 4.44868L6.79835 4.6045C6.40803 4.74818 6.04881 4.95759 5.73426 5.21974L5.38765 5.50861L3.79925 4.85862L3.20394 5.88974L4.55975 6.93934L4.48371 7.38329C4.44952 7.58289 4.43162 7.78854 4.43162 7.99897C4.43162 8.20954 4.44954 8.41534 4.48378 8.61508L4.55989 9.05908L3.20425 10.1085L3.79957 11.1397L5.38799 10.4897L5.73459 10.7785C6.04906 11.0405 6.40815 11.2498 6.79833 11.3934L7.22161 11.5492L7.4528 13.249H8.64343L8.87466 11.5489L9.29771 11.393C9.68762 11.2493 10.0465 11.04 10.3607 10.7781L10.7073 10.4892L11.0005 10.6091V12.2299L10.9527 12.2103C10.7284 12.3652 10.4911 12.5028 10.2427 12.6209L9.95323 14.749H6.143L5.85366 12.6217C5.6049 12.5034 5.36731 12.3658 5.14284 12.2107L3.15543 13.024L1.25032 9.72423L2.94794 8.41002C2.93712 8.2743 2.93162 8.13721 2.93162 7.99897C2.93162 7.86091 2.93711 7.72401 2.94789 7.58848L1.25 6.27406L3.15511 2.9743L5.1424 3.78752C5.36701 3.63233 5.60475 3.49458 5.85368 3.37627L6.143 1.24902Z" fill="black"/>
<path d="M5.5991 7.99921C5.5991 6.64691 6.69536 5.55064 8.04767 5.55064C9.39998 5.55064 10.4962 6.64691 10.4962 7.99921C10.4962 9.35152 9.39998 10.4478 8.04767 10.4478C6.69536 10.4478 5.5991 9.35152 5.5991 7.99921ZM8.04767 7.05064C7.52379 7.05064 7.0991 7.47533 7.0991 7.99921C7.0991 8.52309 7.52379 8.94778 8.04767 8.94778C8.57155 8.94778 8.99624 8.52309 8.99624 7.99921C8.99624 7.47533 8.57155 7.05064 8.04767 7.05064Z" fill="black"/>
<path d="M13.2522 7.49902C13.6664 7.49902 14.0022 7.83481 14.0022 8.24902V18.4801L10.9518 17.6444L14.1911 20.8844C14.4255 21.1189 14.7435 21.2506 15.0751 21.2506H19.0025C20.2451 21.2506 21.2525 20.2432 21.2525 19.0006V14.9998C21.2525 14.5856 21.5883 14.2498 22.0025 14.2498C22.4167 14.2498 22.7525 14.5856 22.7525 14.9998V19.0006C22.7525 21.0717 21.0736 22.7506 19.0025 22.7506H15.0751C14.3457 22.7506 13.6461 22.4608 13.1304 21.9449L8.11719 16.9315L8.63272 16.3972C8.81764 16.2058 9.03987 16.0627 9.28078 15.9731C9.61882 15.8472 9.99393 15.8268 10.3541 15.9255L12.5022 16.5138V8.24902C12.5022 7.83481 12.838 7.49902 13.2522 7.49902Z" fill="black"/>
<path d="M16.9199 11.9971C16.9199 11.5829 16.5841 11.2471 16.1699 11.2471C15.7557 11.2471 15.4199 11.5829 15.4199 11.9971V16.0073H16.9199V11.9971Z" fill="black"/>
<path d="M19.0918 12.2485C19.506 12.2485 19.8418 12.5843 19.8418 12.9985V16.0073H18.3418V12.9985C18.3418 12.5843 18.6776 12.2485 19.0918 12.2485Z" fill="black"/>
</svg>
