<svg width="24" height="24" viewBox="0 0 24 24" fill="none" xmlns="http://www.w3.org/2000/svg">
<path d="M9.41793 2.00244H14.5816L15.01 5.15229C15.5129 5.37373 15.9866 5.64881 16.4238 5.97016L19.3678 4.76547L21.9496 9.23733L19.4336 11.185C19.4627 11.4529 19.4776 11.7249 19.4776 12C19.4776 12.0968 19.4758 12.1933 19.4721 12.2892L18.2821 11.5821C18.2399 11.1719 18.1553 10.7672 18.0299 10.3748L19.9956 8.85301L18.7236 6.64979L16.1712 7.69425L15.8246 7.40526C15.3051 6.97215 14.7115 6.62582 14.0661 6.38798L13.643 6.23207L13.2718 3.50244H10.7277L10.3566 6.23142L9.93328 6.38724C9.28744 6.62499 8.69344 6.97135 8.17357 7.40461L7.82696 7.69347L5.27675 6.64991L4.00472 8.85313L6.18192 10.5386L6.10588 10.9826C6.04933 11.3127 6.01978 11.6526 6.01978 12C6.01978 12.3477 6.04937 12.6878 6.106 13.0182L6.18211 13.4622L4.00521 15.1475L5.27724 17.3507L7.8275 16.3071L8.1741 16.5959C8.69384 17.0289 9.28765 17.3751 9.93326 17.6128L10.3565 17.7686L10.7277 20.4978H13.2718L13.6135 17.9852C13.9754 17.9082 14.3298 17.7976 14.6717 17.6548L15.8977 18.3833C15.6138 18.557 15.3174 18.7124 15.01 18.8478L14.5816 21.9978H9.41793L8.98963 18.8488C8.48652 18.6274 8.01263 18.3524 7.5752 18.0311L4.6331 19.235L2.05127 14.7631L4.56405 12.8179C4.53478 12.5491 4.51978 12.2762 4.51978 12C4.51978 11.7242 4.53475 11.4516 4.56396 11.183L2.05078 9.23745L4.63261 4.76559L7.57454 5.96946C8.01217 5.64792 8.48628 5.37273 8.98966 5.15129L9.41793 2.00244Z" fill="black"/>
<path d="M14.3906 8.80448C12.7938 7.85567 10.7976 8.16804 9.55977 9.44689L12.5121 11.2011L11.5803 12.7692L8.62845 11.0152C8.40498 11.731 8.39654 12.4829 8.58109 13.1843C8.8343 14.1465 9.4508 15.0142 10.3744 15.563C11.7736 16.3944 13.4783 16.2572 14.7115 15.3514L19.8105 18.3813C20.0489 18.5229 20.357 18.4445 20.4987 18.2061L21.5513 16.4346C21.693 16.1962 21.6145 15.8881 21.3761 15.7465L16.2779 12.7171C16.4849 11.2002 15.7904 9.63632 14.3906 8.80448Z" fill="black"/>
</svg>
