<svg width="24" height="24" viewBox="0 0 24 24" fill="none" xmlns="http://www.w3.org/2000/svg">
<path d="M9.41793 2.00244H14.5816L15.01 5.15229C15.5129 5.37373 15.9866 5.64881 16.4238 5.97016L19.3678 4.76547L21.9496 9.23733L19.4336 11.185C19.4627 11.4529 19.4776 11.7249 19.4776 12C19.4776 12.2755 19.4627 12.5477 19.4336 12.8159L21.9491 14.7633L19.3673 19.2351L16.4231 18.0304C15.9861 18.3515 15.5127 18.6264 15.01 18.8478L14.5816 21.9978H9.41793L8.98963 18.8488C8.48652 18.6274 8.01263 18.3524 7.5752 18.0311L4.6331 19.235L2.05127 14.7631L4.56405 12.8179C4.53478 12.5491 4.51978 12.2762 4.51978 12C4.51978 11.7242 4.53475 11.4516 4.56396 11.183L2.05078 9.23745L4.63261 4.76559L7.57454 5.96946C8.01217 5.64792 8.48628 5.37273 8.98966 5.15129L9.41793 2.00244ZM10.7277 3.50244L10.3566 6.23142L9.93328 6.38724C9.28744 6.62499 8.69344 6.97135 8.17357 7.40461L7.82696 7.69347L5.27675 6.64991L4.00472 8.85313L6.18192 10.5386L6.10588 10.9826C6.04933 11.3127 6.01978 11.6526 6.01978 12C6.01978 12.3477 6.04937 12.6878 6.106 13.0182L6.18211 13.4622L4.00521 15.1475L5.27724 17.3507L7.8275 16.3071L8.1741 16.5959C8.69384 17.0289 9.28765 17.3751 9.93326 17.6128L10.3565 17.7686L10.7277 20.4978H13.2718L13.6431 17.768L14.0661 17.6121C14.7113 17.3743 15.3047 17.0281 15.8241 16.5952L16.1707 16.3063L18.7231 17.3508L19.9952 15.1476L17.8157 13.4604L17.8917 13.0165C17.9481 12.6866 17.9776 12.3471 17.9776 12C17.9776 11.6532 17.9482 11.3139 17.8918 10.9843L17.8159 10.5405L19.9956 8.85301L18.7236 6.64979L16.1712 7.69425L15.8246 7.40526C15.3051 6.97215 14.7115 6.62582 14.0661 6.38798L13.643 6.23207L13.2718 3.50244H10.7277ZM11.9991 10.1324C10.9674 10.1324 10.1311 10.9688 10.1311 12.0004C10.1311 13.0321 10.9674 13.8684 11.9991 13.8684C13.0307 13.8684 13.867 13.0321 13.867 12.0004C13.867 10.9688 13.0307 10.1324 11.9991 10.1324ZM8.63111 12.0004C8.63111 10.1403 10.139 8.63244 11.9991 8.63244C13.8592 8.63244 15.367 10.1403 15.367 12.0004C15.367 13.8605 13.8592 15.3684 11.9991 15.3684C10.139 15.3684 8.63111 13.8605 8.63111 12.0004Z" fill="black"/>
</svg>
