<svg width="24" height="24" viewBox="0 0 24 24" fill="none" xmlns="http://www.w3.org/2000/svg">
<path d="M14.6094 10.665H18.9096V9.16504H14.6094V10.665Z" fill="black"/>
<path d="M18.9096 13.5303H14.6094V12.0303H18.9096V13.5303Z" fill="black"/>
<path d="M12.8316 9.44845L8.82505 7.36572L4.81854 9.44845V10.7054H12.8316V9.44845Z" fill="black"/>
<path d="M5.63903 14.1359V11.6093H7.13903V14.1359H5.63903Z" fill="black"/>
<path d="M8.07725 11.6093V14.1359H9.57725V11.6093H8.07725Z" fill="black"/>
<path d="M10.5049 14.1359V11.6093H12.0049V14.1359H10.5049Z" fill="black"/>
<path d="M4.74805 16.54H12.9004V15.04H4.74805L4.74805 16.54Z" fill="black"/>
<path d="M4.25 4.5752C3.00736 4.5752 2 5.58255 2 6.82519V17.1752C2 18.4178 3.00736 19.4252 4.25 19.4252H19.75C20.9926 19.4252 22 18.4178 22 17.1752V6.8252C22 5.58255 20.9926 4.5752 19.75 4.5752H4.25ZM3.5 6.82519C3.5 6.41098 3.83579 6.0752 4.25 6.0752H19.75C20.1642 6.0752 20.5 6.41098 20.5 6.8252V17.1752C20.5 17.5894 20.1642 17.9252 19.75 17.9252H4.25C3.83579 17.9252 3.5 17.5894 3.5 17.1752V6.82519Z" fill="black"/>
</svg>
