<svg width="24" height="24" viewBox="0 0 24 24" fill="none" xmlns="http://www.w3.org/2000/svg">
<path d="M20.7489 10.973V18.9423C20.7489 19.4474 20.5739 19.875 20.2239 20.225C19.8739 20.575 19.4463 20.75 18.9412 20.75H5.05655C4.55144 20.75 4.12388 20.575 3.77388 20.225C3.42388 19.875 3.24888 19.4474 3.24888 18.9423V10.9538C2.84631 10.623 2.54406 10.1939 2.34213 9.66633C2.14021 9.13876 2.13605 8.56921 2.32963 7.95768L3.34118 4.65382C3.47451 4.23332 3.7008 3.89423 4.02003 3.63653C4.33926 3.37884 4.72067 3.25 5.16425 3.25H18.8142C19.2578 3.25 19.6367 3.37307 19.9508 3.61922C20.2649 3.86537 20.4937 4.20383 20.6373 4.6346L21.6681 7.95768C21.8617 8.56921 21.8575 9.13683 21.6556 9.66055C21.4537 10.1843 21.1514 10.6218 20.7489 10.973ZM14.1989 10.25C14.745 10.25 15.1556 10.083 15.4306 9.74903C15.7056 9.41506 15.8181 9.05641 15.7681 8.67308L15.1604 4.74995H12.7489V8.69998C12.7489 9.12049 12.8912 9.48396 13.1758 9.79038C13.4604 10.0968 13.8014 10.25 14.1989 10.25ZM9.69885 10.25C10.1591 10.25 10.5325 10.0968 10.8191 9.79038C11.1056 9.48396 11.2489 9.12049 11.2489 8.69998V4.74995H8.8373L8.2296 8.71153C8.17577 9.06666 8.28731 9.41185 8.56423 9.7471C8.84116 10.0824 9.21937 10.25 9.69885 10.25ZM5.24885 10.25C5.61937 10.25 5.93797 10.1208 6.20465 9.8625C6.47132 9.60415 6.63606 9.27947 6.69888 8.88845L7.28735 4.74995H5.16425C5.05527 4.74995 4.96873 4.77399 4.90463 4.82208C4.84051 4.87016 4.79243 4.94228 4.76038 5.03845L3.79885 8.29227C3.66679 8.72178 3.72896 9.15543 3.98538 9.59325C4.2418 10.0311 4.66295 10.25 5.24885 10.25ZM18.7489 10.25C19.2899 10.25 19.704 10.0375 19.9912 9.6125C20.2784 9.18748 20.3476 8.74741 20.1989 8.29227L19.1874 5.0192C19.1553 4.92305 19.1072 4.85413 19.0431 4.81245C18.979 4.77078 18.8925 4.74995 18.7835 4.74995H16.7104L17.2989 8.88845C17.3617 9.27947 17.5264 9.60415 17.7931 9.8625C18.0597 10.1208 18.3783 10.25 18.7489 10.25ZM5.05655 19.25H18.9412C19.0309 19.25 19.1046 19.2212 19.1623 19.1635C19.22 19.1058 19.2489 19.032 19.2489 18.9423V11.6615C19.1399 11.7012 19.0489 11.7259 18.9758 11.7355C18.9027 11.7451 18.8271 11.75 18.7489 11.75C18.2989 11.75 17.903 11.6685 17.5614 11.5057C17.2197 11.3429 16.8886 11.082 16.5681 10.723C16.2873 11.0358 15.9553 11.2852 15.572 11.4711C15.1886 11.657 14.7514 11.75 14.2604 11.75C13.836 11.75 13.436 11.6618 13.0604 11.4855C12.6848 11.3092 12.3309 11.0551 11.9989 10.723C11.6899 11.0551 11.3399 11.3092 10.9489 11.4855C10.5578 11.6618 10.1617 11.75 9.7604 11.75C9.30912 11.75 8.88604 11.6682 8.49118 11.5048C8.0963 11.3413 7.74885 11.0807 7.44885 10.723C7.02834 11.1435 6.64084 11.4198 6.28635 11.5519C5.93187 11.6839 5.58604 11.75 5.24885 11.75C5.17065 11.75 5.08989 11.7451 5.00655 11.7355C4.9232 11.7259 4.8373 11.7012 4.74885 11.6615V18.9423C4.74885 19.032 4.7777 19.1058 4.83538 19.1635C4.89308 19.2212 4.9668 19.25 5.05655 19.25Z" fill="black"/>
</svg>
