<svg width="24" height="24" viewBox="0 0 24 24" fill="none" xmlns="http://www.w3.org/2000/svg">
<path d="M3.67188 20.1129V3.71289H5.17188L5.17188 20.1129H3.67188Z" fill="black"/>
<path d="M10.9209 7.896L10.9209 3.71289H12.4209L12.4209 7.896H10.9209Z" fill="black"/>
<path d="M10.9199 14.0044L10.9199 9.82129H12.4199L12.4199 14.0044H10.9199Z" fill="black"/>
<path d="M10.9199 20.1128L10.9199 15.9297H12.4199L12.4199 20.1128H10.9199Z" fill="black"/>
<path d="M20.7854 12.5786C21.1466 12.2173 21.7324 12.2173 22.0937 12.5786L22.732 13.2169C23.0933 13.5781 23.0933 14.1639 22.732 14.5252L22.2348 15.0224L20.2882 13.0758L20.7854 12.5786Z" fill="black"/>
<path d="M19.8548 13.5171L21.8048 15.4671L17.1588 20.1129H15.209L15.209 18.1631L19.8548 13.5171Z" fill="black"/>
<path d="M18.1699 13.4342V3.71289H19.6699V11.9263L18.1699 13.4342Z" fill="black"/>
</svg>
