<svg width="24" height="24" viewBox="0 0 24 24" fill="none" xmlns="http://www.w3.org/2000/svg">
<path d="M3.67188 20.0987L3.67188 3.69873H5.17188L5.17188 20.0987H3.67188ZM10.9209 7.88184L10.9209 3.69873H12.4209L12.4209 7.88184H10.9209ZM18.1699 12.928L18.1699 3.69873H19.6699L19.6699 12.928H18.1699ZM10.9199 13.9902L10.9199 9.80713H12.4199L12.4199 13.9902H10.9199ZM22.3678 16.0471L19.9805 18.4345L22.3678 20.8217L21.3072 21.8824L18.9198 19.4952L16.5327 21.8824L15.4721 20.8218L17.8592 18.4346L15.4718 16.0474L16.5325 14.9867L18.9198 17.3739L21.3071 14.9865L22.3678 16.0471ZM10.9199 20.0986L10.9199 15.9155H12.4199L12.4199 20.0986H10.9199Z" fill="black"/>
</svg>
