<svg width="24" height="24" viewBox="0 0 24 24" fill="none" xmlns="http://www.w3.org/2000/svg">
<path d="M3.54883 3.7749C3.96094 3.30029 4.57031 3 5.24805 3H16.0762L20.998 7.9707V12.1855C20.555 11.7648 20.0499 11.4086 19.498 11.1322V10.4253H13.5625V4.5H5.24805C4.83398 4.5 4.49805 4.83594 4.49805 5.25V18.7021C4.49805 19.1162 4.83398 19.4521 5.24805 19.4521H11.1459C11.4194 20.0035 11.7723 20.5085 12.1896 20.9521H5.24805C4.00586 20.9521 2.99805 19.9448 2.99805 18.7021V5.25C2.99805 4.68555 3.20508 4.16992 3.54883 3.7749ZM19.498 8.5874L15.4512 4.5H15.0625V8.92529H19.498V8.5874Z" fill="black"/>
<path d="M7.93164 9.02881C8.26953 9.02881 8.57227 8.88037 8.77734 8.64502C8.95117 8.44678 9.05664 8.1875 9.05664 7.90381C9.05664 7.28271 8.55273 6.77881 7.93164 6.77881C7.67383 6.77881 7.4375 6.86523 7.24805 7.01074C6.97852 7.21631 6.80664 7.54004 6.80664 7.90381C6.80664 8.29883 7.00977 8.64648 7.31836 8.84717C7.49414 8.96191 7.70508 9.02881 7.93164 9.02881Z" fill="black"/>
<path d="M8.21875 13.0645C8.12695 13.0884 8.03125 13.1011 7.93164 13.1011C7.31055 13.1011 6.80664 12.5972 6.80664 11.9761C6.80664 11.355 7.31055 10.8511 7.93164 10.8511C8.12695 10.8511 8.31055 10.9009 8.4707 10.9888C8.82031 11.1802 9.05664 11.5508 9.05664 11.9761C9.05664 12.498 8.70117 12.9375 8.21875 13.0645Z" fill="black"/>
<path d="M9.05664 16.0479C9.05664 16.6689 8.55273 17.1729 7.93164 17.1729C7.31055 17.1729 6.80664 16.6689 6.80664 16.0479C6.80664 15.4268 7.31055 14.9229 7.93164 14.9229C8.22656 14.9229 8.49414 15.0361 8.69336 15.2207C8.91602 15.4263 9.05664 15.7207 9.05664 16.0479Z" fill="black"/>
<path d="M12.002 16.6937C12.002 14.0891 14.1135 11.9775 16.7182 11.9775C19.3229 11.9775 21.4344 14.0891 21.4344 16.6937C21.4344 17.7262 21.1026 18.6811 20.5399 19.4578L22.5025 21.4204L21.4419 22.481L19.4788 20.518C18.7027 21.0792 17.7491 21.41 16.7182 21.41C14.1135 21.41 12.002 19.2984 12.002 16.6937ZM16.7182 13.4775C14.9419 13.4775 13.502 14.9175 13.502 16.6937C13.502 18.47 14.9419 19.91 16.7182 19.91C18.4944 19.91 19.9344 18.47 19.9344 16.6937C19.9344 14.9175 18.4944 13.4775 16.7182 13.4775Z" fill="black"/>
</svg>
