<svg width="24" height="24" viewBox="0 0 24 24" fill="none" xmlns="http://www.w3.org/2000/svg">
<path d="M17.6396 7.68649C16.9184 7.68649 16.333 7.1013 16.333 6.37962C16.333 5.65794 16.9184 5.07275 17.6396 5.07275C18.3609 5.07275 18.9463 5.65794 18.9463 6.37962C18.9463 7.1013 18.3609 7.68649 17.6396 7.68649Z" fill="black"/>
<path d="M9.71203 8.198L10.4137 8.89965C10.8303 8.68674 11.2973 8.58914 11.7402 8.62206L12.4881 8.67764L12.377 10.1735L11.629 10.1179C11.1346 10.0812 10.6448 10.4397 10.5921 10.9469C10.6039 11.11 10.6743 11.2181 10.746 11.2755C10.815 11.3308 10.9202 11.3693 11.0788 11.3255C11.3875 11.2402 11.6389 11.1123 11.9401 10.959L12.0536 10.9014C12.3795 10.7367 12.8135 10.5244 13.3352 10.5003C13.9406 10.4724 14.5157 10.669 14.9298 11.0791C15.348 11.4932 15.5479 12.0725 15.4903 12.6926C15.4571 13.0495 15.327 13.3684 15.155 13.641L15.8597 14.3456L14.799 15.4063L14.0609 14.6682C13.8133 14.808 13.5509 14.9085 13.3023 14.9375C12.9995 14.9727 12.7444 14.9646 12.5589 14.9461C12.4659 14.9368 12.3898 14.9249 12.333 14.9143C12.2971 14.9076 12.2611 14.9 12.2256 14.8909L12.2239 14.8905L11.4971 14.6989L11.8795 13.2484L12.5963 13.4374L12.6086 13.4398C12.6267 13.4432 12.6605 13.4488 12.7076 13.4535C12.8022 13.4629 12.9481 13.4686 13.1287 13.4475L13.1299 13.4471C13.1401 13.4445 13.1968 13.43 13.2946 13.3778C13.3992 13.3221 13.5176 13.2408 13.629 13.1401C13.869 12.9232 13.9826 12.7056 13.9967 12.5538C14.0159 12.3479 13.9511 12.2209 13.8744 12.145C13.7935 12.0649 13.6433 11.9877 13.4044 11.9988C13.2365 12.0065 13.06 12.0735 12.7302 12.2402C12.6963 12.2573 12.6608 12.2755 12.6237 12.2945C12.3312 12.4442 11.9429 12.643 11.4781 12.7714C10.1799 13.1298 9.11971 12.1533 9.091 10.9507L9.09021 10.9176L9.09233 10.8846C9.11466 10.5379 9.20471 10.2258 9.34469 9.95198L8.65137 9.25866L9.71203 8.198Z" fill="black"/>
<path d="M20.2725 2.01904C21.2393 2.01904 22.0225 2.80249 22.0225 3.76904V10.9985C22.0225 11.5955 21.7861 12.1677 21.3643 12.5896L12.4443 21.5088C11.7607 22.1921 10.6533 22.1921 9.96973 21.5088L2.53223 14.072C1.84863 13.3887 1.84863 12.2805 2.53223 11.5972L11.4521 2.67798C11.874 2.2561 12.4463 2.01904 13.042 2.01904H20.2725ZM20.5225 3.76904C20.5225 3.63086 20.4111 3.51904 20.2725 3.51904H13.042C12.8447 3.51904 12.6533 3.59814 12.5127 3.73877L3.59277 12.6577C3.54004 12.7107 3.51465 12.7817 3.52051 12.8513C3.52441 12.9097 3.54785 12.9668 3.59277 13.0115L11.0303 20.448C11.1279 20.5457 11.2861 20.5457 11.3838 20.448L20.3037 11.5291C20.4443 11.3884 20.5225 11.1975 20.5225 10.9985V3.76904Z" fill="black"/>
</svg>
