<svg width="24" height="24" viewBox="0 0 24 24" fill="none" xmlns="http://www.w3.org/2000/svg">
<path d="M19.1186 7.68649C18.3974 7.68649 17.812 7.1013 17.812 6.37962C17.812 5.65794 18.3974 5.07275 19.1186 5.07275C19.8398 5.07275 20.4253 5.65794 20.4253 6.37962C20.4253 7.1013 19.8398 7.68649 19.1186 7.68649Z" fill="black"/>
<path d="M21.7514 2.01904C22.7182 2.01904 23.5014 2.80249 23.5014 3.76904V10.9985C23.5014 11.5955 23.2651 12.1677 22.8432 12.5896L13.9233 21.5088C13.2397 22.1921 12.1323 22.1921 11.4487 21.5088L4.01119 14.072C3.32759 13.3887 3.32759 12.2805 4.01119 11.5972L12.9311 2.67798C13.353 2.2561 13.9253 2.01904 14.521 2.01904H21.7514ZM22.0014 3.76904C22.0014 3.63086 21.8901 3.51904 21.7514 3.51904H14.521C14.3237 3.51904 14.1323 3.59814 13.9917 3.73877L5.07174 12.6577C5.019 12.7107 4.99361 12.7817 4.99947 12.8513C5.00338 12.9097 5.02681 12.9668 5.07174 13.0115L12.5092 20.448C12.6069 20.5457 12.7651 20.5457 12.8628 20.448L21.7827 11.5291C21.9233 11.3884 22.0014 11.1975 22.0014 10.9985V3.76904Z" fill="black"/>
<path d="M8.44824 21.5088C9.06992 22.1302 10.0421 22.1865 10.7273 21.6776L9.08406 20.0233L2.07129 13.0115C2.02637 12.9668 2.00293 12.9097 1.99902 12.8513C1.99316 12.7817 2.01855 12.7107 2.07129 12.6577L12.7182 2.01904H11.5205C10.9248 2.01904 10.3525 2.2561 9.93066 2.67798L1.01074 11.5972C0.327148 12.2805 0.327148 13.3887 1.01074 14.072L8.44824 21.5088Z" fill="black"/>
</svg>
