<svg width="24" height="24" viewBox="0 0 24 24" fill="none" xmlns="http://www.w3.org/2000/svg">
<path d="M2 4.25C2 3.00736 3.00736 2 4.25 2H14.5743C15.817 2 16.8243 3.00736 16.8243 4.25V8.50645C16.7167 8.50216 16.6086 8.5 16.5 8.5C16.1006 8.5 15.708 8.52927 15.3243 8.58578V4.25C15.3243 3.83579 14.9885 3.5 14.5743 3.5H4.25C3.83579 3.5 3.5 3.83579 3.5 4.25V18.25C3.5 18.6642 3.83579 19 4.25 19H8.89838C9.07134 19.5262 9.29741 20.0283 9.57026 20.5H4.25C3.00736 20.5 2 19.4926 2 18.25V4.25Z" fill="black"/>
<path d="M9.29121 13.0269C9.0616 13.5026 8.87769 14.0045 8.74517 14.5269H5.50586V13.0269H9.29121Z" fill="black"/>
<path d="M10.8347 10.8516C11.437 10.2476 12.1352 9.73929 12.9045 9.35156H5.50586V10.8516H10.8347Z" fill="black"/>
<path d="M5.50586 7.17578H13.3167V5.67578H5.50586V7.17578Z" fill="black"/>
<path d="M18.5473 13.3896L13.3887 18.5497L14.4495 19.6102L19.6081 14.4502L18.5473 13.3896Z" fill="black"/>
<path d="M19.499 18.4187C19.499 19.0188 19.0126 19.5053 18.4125 19.5053C17.8124 19.5053 17.3259 19.0188 17.3259 18.4187C17.3259 17.8187 17.8124 17.3322 18.4125 17.3322C19.0126 17.3322 19.499 17.8187 19.499 18.4187Z" fill="black"/>
<path d="M14.5856 15.6675C15.1856 15.6675 15.6721 15.1811 15.6721 14.581C15.6721 13.9809 15.1856 13.4944 14.5856 13.4944C13.9855 13.4944 13.499 13.9809 13.499 14.581C13.499 15.1811 13.9855 15.6675 14.5856 15.6675Z" fill="black"/>
<path d="M23 16.5C23 20.0899 20.0899 23 16.5 23C12.9101 23 10 20.0899 10 16.5C10 12.9101 12.9101 10 16.5 10C20.0899 10 23 12.9101 23 16.5ZM21.5 16.5C21.5 13.7386 19.2614 11.5 16.5 11.5C13.7386 11.5 11.5 13.7386 11.5 16.5C11.5 19.2614 13.7386 21.5 16.5 21.5C19.2614 21.5 21.5 19.2614 21.5 16.5Z" fill="black"/>
</svg>
