<svg width="24" height="24" viewBox="0 0 24 24" fill="none" xmlns="http://www.w3.org/2000/svg">
<path d="M11 1C5.47715 1 1 5.47715 1 11C1 16.5228 5.47715 21 11 21L11.0439 20.9999C10.7561 20.5247 10.5214 20.0138 10.3479 19.4754C5.95818 19.1423 2.5 15.475 2.5 11C2.5 6.30558 6.30558 2.5 11 2.5C15.475 2.5 19.1423 5.95818 19.4754 10.3479C20.0138 10.5214 20.5247 10.7561 20.9999 11.0439L21 11C21 5.47715 16.5228 1 11 1Z" fill="black"/>
<path d="M11.6742 10.1633C12.2576 10.355 12.9146 10.5862 13.478 11.0573C13.03 11.3307 12.614 11.6514 12.237 12.0124C11.9663 11.8531 11.6347 11.7292 11.2061 11.5884C11.1391 11.5664 11.0699 11.544 10.9987 11.521C10.4381 11.3397 9.75576 11.1191 9.06334 10.7263C7.34638 9.75233 7.23529 7.64628 8.48443 6.33603L8.50726 6.31208L8.53211 6.29023C9.0507 5.83439 9.63234 5.56412 10.2252 5.44729V3.82861H11.7252V5.46137C12.5748 5.63909 13.3529 6.09271 13.8921 6.71846L14.3816 7.28663L13.2453 8.26577L12.7557 7.6976C11.9967 6.81671 10.5394 6.5494 9.54775 7.39493C8.91476 8.08276 9.0458 8.9918 9.80344 9.42157C10.355 9.73442 10.8905 9.90843 11.4593 10.0932C11.5304 10.1163 11.602 10.1396 11.6742 10.1633Z" fill="black"/>
<path d="M10.0516 16.3808C10.112 15.8754 10.2243 15.386 10.3832 14.918C10.0596 14.8409 9.82016 14.7308 9.71097 14.6445C9.43242 14.4241 9.21967 14.1817 9.07654 13.993C8.90299 13.7643 8.76994 13.5115 8.63675 13.2584C8.59961 13.1878 8.56245 13.1172 8.52441 13.0471L7.20605 13.7626C7.23979 13.8248 7.27316 13.8871 7.30652 13.9494C7.48166 14.2765 7.65635 14.6028 7.88153 14.8996C8.07953 15.1606 8.37809 15.5026 8.78022 15.8208C9.09994 16.0737 9.5544 16.2644 10.0516 16.3808Z" fill="black"/>
<path d="M14.5703 18.8694L18.8692 14.5693L19.93 15.6299L15.6311 19.9299L14.5703 18.8694Z" fill="black"/>
<path d="M18.8452 19.7541C19.3453 19.7541 19.7507 19.3487 19.7507 18.8486C19.7507 18.3486 19.3453 17.9432 18.8452 17.9432C18.3452 17.9432 17.9398 18.3486 17.9398 18.8486C17.9398 19.3487 18.3452 19.7541 18.8452 19.7541Z" fill="black"/>
<path d="M15.6561 16.5559C16.1562 16.5559 16.5616 16.1506 16.5616 15.6505C16.5616 15.1504 16.1562 14.745 15.6561 14.745C15.1561 14.745 14.7507 15.1504 14.7507 15.6505C14.7507 16.1506 15.1561 16.5559 15.6561 16.5559Z" fill="black"/>
<path d="M11.5 17.25C11.5 14.0744 14.0744 11.5 17.25 11.5C20.4256 11.5 23 14.0744 23 17.25C23 20.4256 20.4256 23 17.25 23C14.0744 23 11.5 20.4256 11.5 17.25ZM17.25 13C14.9028 13 13 14.9028 13 17.25C13 19.5972 14.9028 21.5 17.25 21.5C19.5972 21.5 21.5 19.5972 21.5 17.25C21.5 14.9028 19.5972 13 17.25 13Z" fill="black"/>
</svg>
