<svg width="24" height="24" viewBox="0 0 24 24" fill="none" xmlns="http://www.w3.org/2000/svg">
<path d="M17 8.07568H7V6.57568H17V8.07568Z" fill="black"/>
<path d="M7 11.1743H17V9.67432H7V11.1743Z" fill="black"/>
<path d="M7 12.4243H11V17.4243H7V12.4243Z" fill="black"/>
<path d="M17 12.4243H13V17.4243H17V12.4243Z" fill="black"/>
<path d="M3.25 5.5C3.25 4.25732 4.25781 3.25 5.5 3.25H18.5C19.7422 3.25 20.75 4.25732 20.75 5.5V18.5C20.75 19.7427 19.7422 20.75 18.5 20.75H5.5C4.25781 20.75 3.25 19.7427 3.25 18.5V5.5ZM5.5 4.75C5.27344 4.75 5.07031 4.85156 4.93164 5.01123C4.81836 5.14258 4.75 5.31348 4.75 5.5V18.5C4.75 18.9141 5.08594 19.25 5.5 19.25H18.5C18.9141 19.25 19.25 18.9141 19.25 18.5V5.5C19.25 5.29443 19.168 5.10791 19.0332 4.97217C18.8984 4.83496 18.709 4.75 18.5 4.75H5.5Z" fill="black"/>
</svg>
