<svg width="24" height="24" viewBox="0 0 24 24" fill="none" xmlns="http://www.w3.org/2000/svg">
<path d="M7 11.3486H17V9.84863H7V11.3486Z" fill="black"/>
<path d="M7 12.5986H11V17.5986H7V12.5986Z" fill="black"/>
<path d="M17 12.5986H13V17.5986H17V12.5986Z" fill="black"/>
<path d="M3.25 5.5C3.25 5.26367 3.28711 5.03564 3.35547 4.82178C3.64258 3.91064 4.49414 3.25 5.5 3.25H18.5C19.7422 3.25 20.75 4.25732 20.75 5.5V18.5C20.75 19.7427 19.7422 20.75 18.5 20.75H5.5C4.25781 20.75 3.25 19.7427 3.25 18.5V5.5ZM5.5 4.75C5.08594 4.75 4.75 5.08594 4.75 5.5V6.75H19.25V5.5C19.25 5.43799 19.2422 5.37744 19.2285 5.31982C19.2168 5.26611 19.1973 5.21436 19.1719 5.16602C19.1309 5.08301 19.0742 5.00879 19.0059 4.94678C18.873 4.82471 18.6953 4.75 18.5 4.75H5.5ZM4.75 18.5C4.75 18.9141 5.08594 19.25 5.5 19.25H18.5C18.9141 19.25 19.25 18.9141 19.25 18.5V8.25H4.75V18.5Z" fill="black"/>
</svg>
