<svg width="24" height="24" viewBox="0 0 24 24" fill="none" xmlns="http://www.w3.org/2000/svg">
<path d="M1.875 3.48828H4.25195V7.36121C4.25195 9.32982 5.30987 11.0513 6.8882 11.9883C5.30987 12.9252 4.25195 14.6467 4.25195 16.6154V20.4883H1.875V21.9883H12.9425C11.5255 20.7959 10.625 19.0094 10.625 17.0125C10.625 14.28 12.3111 11.9413 14.6996 10.9801C15.5694 10.0248 16.0996 8.75493 16.0996 7.36121V3.48828H18.475V1.98828H1.875V3.48828ZM9.62903 11.2383C7.48778 11.2383 5.75195 9.50246 5.75195 7.36121V3.48828H14.5996V7.36121C14.5996 9.50246 12.8638 11.2383 10.7225 11.2383H9.62903Z" fill="black"/>
<path d="M16.375 17.4562V14.7134H17.875V17.4562H16.375Z" fill="black"/>
<path d="M17.1257 18.0679C16.6793 18.0679 16.3184 18.4299 16.3184 18.8753C16.3184 19.3207 16.6793 19.6827 17.1258 19.6827C17.5722 19.6827 17.9331 19.3207 17.9331 18.8753C17.9331 18.4299 17.5722 18.0679 17.1257 18.0679Z" fill="black"/>
<path d="M17.125 22.0127C19.8864 22.0127 22.125 19.7741 22.125 17.0127C22.125 14.2513 19.8864 12.0127 17.125 12.0127C14.3636 12.0127 12.125 14.2513 12.125 17.0127C12.125 19.7741 14.3636 22.0127 17.125 22.0127ZM20.625 17.0127C20.625 18.9457 19.058 20.5127 17.125 20.5127C15.192 20.5127 13.625 18.9457 13.625 17.0127C13.625 15.0797 15.192 13.5127 17.125 13.5127C19.058 13.5127 20.625 15.0797 20.625 17.0127Z" fill="black"/>
</svg>
