<svg width="24" height="24" viewBox="0 0 24 24" fill="none" xmlns="http://www.w3.org/2000/svg">
<path d="M4.44855 1.72168C2.94308 1.72168 1.72266 2.9421 1.72266 4.44757C1.72266 5.71509 2.58778 6.78055 3.75977 7.08569L3.75977 16.9143C2.58778 17.2194 1.72266 18.2849 1.72266 19.5524C1.72266 21.0579 2.94308 22.2783 4.44855 22.2783C5.95402 22.2783 7.17444 21.0579 7.17444 19.5524C7.17444 18.3295 6.36907 17.2946 5.25977 16.9493L5.25977 12.75H11.25V16.9308C10.1089 17.2564 9.27344 18.3068 9.27344 19.5524C9.27344 21.0579 10.4939 22.2783 11.9993 22.2783C13.5048 22.2783 14.7252 21.0579 14.7252 19.5524C14.7252 18.3073 13.8904 17.2572 12.75 16.9312V12.75H18.5508C19.5173 12.75 20.3008 11.9665 20.3008 11V7.06879C21.4412 6.74281 22.276 5.69268 22.276 4.44757C22.276 2.9421 21.0556 1.72168 19.5501 1.72168C18.0446 1.72168 16.8242 2.9421 16.8242 4.44757C16.8242 5.69317 17.6597 6.74363 18.8008 7.06918V11C18.8008 11.1381 18.6889 11.25 18.5508 11.25H12.75V7.06879C13.8904 6.74281 14.7252 5.69268 14.7252 4.44757C14.7252 2.9421 13.5048 1.72168 11.9993 1.72168C10.4939 1.72168 9.27344 2.9421 9.27344 4.44757C9.27344 5.69317 10.1089 6.74363 11.25 7.06918V11.25H5.25977L5.25977 7.05072C6.36907 6.7054 7.17444 5.67054 7.17444 4.44757C7.17444 2.9421 5.95402 1.72168 4.44855 1.72168ZM3.22266 4.44757C3.22266 3.77053 3.77151 3.22168 4.44855 3.22168C5.12559 3.22168 5.67444 3.77053 5.67444 4.44757C5.67444 5.12461 5.12559 5.67346 4.44855 5.67346C3.77151 5.67346 3.22266 5.12461 3.22266 4.44757ZM3.22266 19.5524C3.22266 18.8754 3.77151 18.3265 4.44855 18.3265C5.12559 18.3265 5.67444 18.8754 5.67444 19.5524C5.67444 20.2295 5.12559 20.7783 4.44855 20.7783C3.77151 20.7783 3.22266 20.2295 3.22266 19.5524ZM11.9993 3.22168C12.6764 3.22168 13.2252 3.77053 13.2252 4.44757C13.2252 5.12461 12.6764 5.67346 11.9993 5.67346C11.3223 5.67346 10.7734 5.12461 10.7734 4.44757C10.7734 3.77053 11.3223 3.22168 11.9993 3.22168ZM10.7734 19.5524C10.7734 18.8754 11.3223 18.3265 11.9993 18.3265C12.6764 18.3265 13.2252 18.8754 13.2252 19.5524C13.2252 20.2295 12.6764 20.7783 11.9993 20.7783C11.3223 20.7783 10.7734 20.2295 10.7734 19.5524ZM19.5501 3.22168C20.2271 3.22168 20.776 3.77053 20.776 4.44757C20.776 5.12461 20.2271 5.67346 19.5501 5.67346C18.8731 5.67346 18.3242 5.12461 18.3242 4.44757C18.3242 3.77053 18.8731 3.22168 19.5501 3.22168Z" fill="black"/>
</svg>
