<svg width="24" height="24" viewBox="0 0 24 24" fill="none" xmlns="http://www.w3.org/2000/svg">
<path d="M7.92383 6.075C7.92383 3.82444 9.74827 2 11.9988 2C14.2494 2 16.0738 3.82444 16.0738 6.075C16.0738 8.32556 14.2494 10.15 11.9988 10.15C9.74827 10.15 7.92383 8.32556 7.92383 6.075ZM11.9988 3.5C10.5767 3.5 9.42383 4.65287 9.42383 6.075C9.42383 7.49713 10.5767 8.65 11.9988 8.65C13.421 8.65 14.5738 7.49713 14.5738 6.075C14.5738 4.65287 13.421 3.5 11.9988 3.5Z" fill="black"/>
<path d="M4.94637 15.9489C4.58832 16.3376 4.50391 16.6115 4.50391 16.738V18.6677L5.1817 18.8392C4.97379 19.2916 4.80957 19.7682 4.69445 20.2636L3.00391 19.8362V16.738C3.00391 16.0655 3.37439 15.4415 3.84306 14.9326C4.3272 14.407 4.9999 13.9108 5.79665 13.4837C7.3901 12.6296 9.57396 11.9979 12.001 12C14.428 11.9979 16.6119 12.6296 18.2053 13.4837C19.0021 13.9108 19.6748 14.407 20.1589 14.9326C20.6276 15.4415 20.998 16.0655 20.998 16.738V19.8362L19.3057 20.2641C19.1906 19.7686 19.0264 19.292 18.8185 18.8396L19.498 18.6677V16.738C19.498 16.6115 19.4136 16.3376 19.0556 15.9489C18.713 15.5769 18.1872 15.1759 17.4966 14.8058C16.1207 14.0682 14.1822 13.5021 12.001 13.5C9.81977 13.5021 7.88129 14.0682 6.50532 14.8058C5.81479 15.1759 5.28895 15.5769 4.94637 15.9489Z" fill="black"/>
<path d="M6 21.9678C6 18.6541 8.68629 15.9678 12 15.9678C15.3137 15.9678 18 18.6541 18 21.9678L17.9999 22H12.9995C12.9998 21.9893 13 21.9786 13 21.9678C13 20.6781 11 20.6781 11 21.9678C11 22.0283 6.45427 22 6.00008 22L6 21.9678ZM11.25 17.53C9.6107 17.805 8.27193 18.9663 7.74329 20.5044H9.97283C10.2847 20.0731 10.7309 19.7453 11.25 19.5822V17.53ZM16.2567 20.5044C15.7281 18.9663 14.3893 17.805 12.75 17.53V19.5822C13.2691 19.7453 13.7153 20.0731 14.0272 20.5044H16.2567Z" fill="black"/>
</svg>
