<svg width="24" height="24" viewBox="0 0 24 24" fill="none" xmlns="http://www.w3.org/2000/svg">
<path d="M2.99805 2.75C2.99805 2.33579 3.33383 2 3.74805 2H13.248C13.6623 2 13.998 2.33579 13.998 2.75V7.28405C13.998 7.69826 13.6623 8.03405 13.248 8.03405H5.42277L2.99805 10.0478V2.75ZM4.49805 3.5V6.85218L4.88111 6.53405H12.498V3.5H4.49805Z" fill="black"/>
<path d="M14.6621 9.03405H18.577L21.0017 11.0478V3.75C21.0017 3.33579 20.6659 3 20.2517 3H15.4978V4.5H19.5017V7.85218L19.1186 7.53405H15.484C15.4172 8.13855 15.1109 8.67087 14.6621 9.03405Z" fill="black"/>
<path d="M10.2351 16.3559C10.7299 16.716 11.3391 16.9285 11.9979 16.9285C12.6566 16.9283 13.2663 16.7158 13.761 16.3558C14.51 15.8105 14.9968 14.9269 14.9968 13.9296C14.9968 12.2733 13.6542 10.9307 11.9979 10.9307C10.3417 10.9307 8.99902 12.2733 8.99902 13.9296C8.99902 14.927 9.48597 15.8107 10.2351 16.3559ZM11.9979 15.4285C11.1701 15.4285 10.499 14.7574 10.499 13.9296C10.499 13.1017 11.1701 12.4307 11.9979 12.4307C12.8257 12.4307 13.4968 13.1017 13.4968 13.9296C13.4968 14.7574 12.8257 15.4285 11.9979 15.4285Z" fill="black"/>
<path d="M9.92675 17.9244C9.22265 18.055 8.57678 18.2478 8.02735 18.485C7.50013 18.7125 7.03795 18.9911 6.69871 19.3151C6.36378 19.6351 6.09863 20.0503 6.09863 20.539V23.0034H17.8986V20.539C17.8986 20.0503 17.6335 19.6351 17.2986 19.3151C16.9593 18.9911 16.4971 18.7125 15.9699 18.485C15.4202 18.2477 14.774 18.0548 14.0695 17.9242C13.4188 17.8036 12.7185 17.7362 11.9986 17.7362C11.2786 17.7362 10.5775 17.8037 9.92675 17.9244ZM16.3977 20.564L16.3986 20.5658V21.5034H7.59863V20.5658L7.59958 20.564C7.61524 20.5344 7.65454 20.4765 7.73482 20.3998C7.90418 20.238 8.19593 20.046 8.62177 19.8622C9.46825 19.4968 10.6769 19.2362 11.9986 19.2362C13.3204 19.2362 14.529 19.4968 15.3755 19.8622C15.8013 20.046 16.0931 20.238 16.2624 20.3998C16.3427 20.4765 16.382 20.5344 16.3977 20.564Z" fill="black"/>
<path d="M5.40137 13.8669C4.2968 13.8669 3.40137 14.7624 3.40137 15.8669C3.40137 16.9715 4.2968 17.8669 5.40137 17.8669C6.50594 17.8669 7.40137 16.9715 7.40137 15.8669C7.40137 14.7624 6.50594 13.8669 5.40137 13.8669ZM5.40137 15.3669C5.67751 15.3669 5.90137 15.5908 5.90137 15.8669C5.90137 16.1431 5.67751 16.3669 5.40137 16.3669C5.12523 16.3669 4.90137 16.1431 4.90137 15.8669C4.90137 15.5908 5.12523 15.3669 5.40137 15.3669Z" fill="black"/>
<path d="M20.5986 15.8669C20.5986 14.7624 19.7032 13.8669 18.5986 13.8669C17.4941 13.8669 16.5986 14.7624 16.5986 15.8669C16.5986 16.9715 17.4941 17.8669 18.5986 17.8669C19.7032 17.8669 20.5986 16.9715 20.5986 15.8669ZM18.5986 15.3669C18.8748 15.3669 19.0986 15.5908 19.0986 15.8669C19.0986 16.1431 18.8748 16.3669 18.5986 16.3669C18.3225 16.3669 18.0986 16.1431 18.0986 15.8669C18.0986 15.5908 18.3225 15.3669 18.5986 15.3669Z" fill="black"/>
<path d="M2.72002 19.2965C2.9662 19.1821 3.23779 19.0803 3.52886 18.994C4.09344 18.8267 4.73134 18.7179 5.39934 18.6896C5.09185 19.0934 4.82381 19.6181 4.76096 20.2553L4.74707 20.2574C4.20105 20.3405 3.72106 20.4854 3.35203 20.6569C3.05757 20.7937 2.87563 20.9278 2.78269 21.0234C2.7691 21.0373 2.75833 21.0496 2.75 21.0599V21.5035H4.74707V23.0035H1.25V20.9816C1.25 20.5807 1.45209 20.2401 1.70737 19.9776C1.96592 19.7117 2.31818 19.4832 2.72002 19.2965Z" fill="black"/>
<path d="M20.4711 18.994C20.7622 19.0803 21.0338 19.1821 21.28 19.2965C21.6818 19.4832 22.0341 19.7117 22.2926 19.9776C22.5479 20.2401 22.75 20.5807 22.75 20.9816V23.0035H19.2529V21.5035H21.25V21.0599C21.2417 21.0496 21.2309 21.0373 21.2173 21.0234C21.1244 20.9278 20.9424 20.7937 20.648 20.6569C20.2789 20.4854 19.799 20.3405 19.2529 20.2574L19.239 20.2553C19.1762 19.6181 18.9081 19.0934 18.6007 18.6896C19.2687 18.7179 19.9066 18.8267 20.4711 18.994Z" fill="black"/>
</svg>
