<svg width="24" height="24" viewBox="0 0 24 24" fill="none" xmlns="http://www.w3.org/2000/svg">
<path d="M19.1659 20.8325L20.5864 22.253L21.6471 21.1924L2.80285 2.3479L1.74219 3.40855L11.7995 13.466C9.77725 13.491 7.87749 13.894 6.44596 14.5121C5.70874 14.8304 5.06247 15.2201 4.58812 15.6733C4.11978 16.1209 3.74902 16.7016 3.74902 17.3852V20.8325H19.1659ZM17.6659 19.3325H5.24849V17.3852C5.24849 17.2698 5.31333 17.0547 5.62386 16.758C5.92838 16.467 6.40427 16.1639 7.04017 15.8893C8.30789 15.342 10.08 14.9647 11.999 14.9647C12.4635 14.9647 12.9194 14.9868 13.3616 15.0281L17.6659 19.3325Z" fill="black"/>
<path d="M19.4099 15.6733C19.7678 16.0153 20.0687 16.435 20.1907 16.919L17.9838 14.7121C18.5415 14.9892 19.0307 15.3109 19.4099 15.6733Z" fill="black"/>
<path d="M16.0724 7.33623C16.0724 8.81786 15.2819 10.1148 14.0999 10.8281L12.9866 9.71482C13.918 9.32731 14.5729 8.40827 14.5729 7.33623C14.5729 5.9141 13.4205 4.76123 11.9988 4.76123C10.9269 4.76123 10.0079 5.41674 9.62075 6.34891L8.50749 5.23564C9.22036 4.0525 10.5172 3.26123 11.9988 3.26123C14.2486 3.26123 16.0724 5.08567 16.0724 7.33623Z" fill="black"/>
</svg>
