<svg width="24" height="24" viewBox="0 0 24 24" fill="none" xmlns="http://www.w3.org/2000/svg">
<path d="M12.8939 3.7426C12.2231 2.41237 10.8446 1.5 9.25313 1.5C7.00256 1.5 5.17813 3.32444 5.17813 5.57501C5.17813 7.80945 6.97652 9.62385 9.20482 9.64973C9.18037 9.43778 9.1678 9.22221 9.1678 9.0037C9.1678 8.7134 9.18999 8.42827 9.23276 8.14993C7.82 8.13899 6.67813 6.99035 6.67813 5.57501C6.67813 4.15287 7.83099 3 9.25313 3C10.2627 3 11.1366 3.581 11.5586 4.42689C11.9672 4.14213 12.4156 3.91068 12.8939 3.7426ZM9.87052 11.7153C9.66605 11.7075 9.46007 11.7035 9.25293 11.7035C7.63101 11.7035 6.08 11.9481 4.77615 12.3543L5.97377 13.5803C6.95698 13.345 8.0774 13.2035 9.25293 13.2035C9.93829 13.2035 10.6049 13.2516 11.2366 13.3383C10.6842 12.891 10.219 12.3401 9.87052 11.7153ZM9.82802 17.539L9.59483 17.2981L9.60023 17.2928L8.72521 16.3971C8.87597 16.3213 9.03186 16.2488 9.19204 16.1796C10.6711 15.5412 12.6498 15.1322 14.7471 15.1322C16.8443 15.1322 18.823 15.5412 20.3021 16.1796C21.0396 16.4979 21.6861 16.8876 22.1606 17.3409C22.6291 17.7884 23 18.3691 23 19.0527V22.5H10.8635L10.6649 21H21.5V19.0527C21.5 18.9373 21.4351 18.7222 21.1245 18.4255C20.8199 18.1345 20.3438 17.8314 19.7077 17.5568C18.4395 17.0095 16.6668 16.6322 14.7471 16.6322C12.8483 16.6322 11.0932 17.0013 9.82802 17.539ZM7.09829 20.6151C7.09551 20.6194 7.09556 20.6195 7.09562 20.6195L7.09755 20.6208L7.10033 20.6226L7.10655 20.6266L7.12172 20.6361C7.13304 20.6431 7.14677 20.6513 7.1629 20.6605C7.19516 20.6788 7.23705 20.7013 7.28844 20.7258C7.39122 20.775 7.53217 20.8329 7.70987 20.8844C8.0596 20.9857 8.54508 21.0601 9.15167 20.9991L9.34459 22.4562L9.34269 22.4564C8.69571 22.5427 8.03845 22.5002 7.40842 22.3314C6.7784 22.1626 6.18795 21.8708 5.67079 21.4726L5.66683 21.4695C5.15142 21.0718 4.71906 20.5761 4.39434 20.0106L4.39082 20.0045C4.06726 19.4391 3.85748 18.8152 3.77339 18.1681L3.77275 18.1631C3.75435 18.0204 3.74214 17.8772 3.7361 17.7339C3.7275 17.5301 3.73137 17.3261 3.74763 17.1231L2.04904 18.785L1.00964 17.7227L4.53916 14.2583L8.00227 17.8036L7.01287 18.768L6.92816 18.85L5.24427 17.1225C5.21222 17.404 5.21431 17.689 5.25097 17.971L5.25162 17.976C5.31113 18.4289 5.4586 18.8655 5.68569 19.2609L5.68922 19.2671C5.91673 19.6615 6.21912 20.0071 6.57931 20.2844L6.58328 20.2875C6.74541 20.412 6.91778 20.5215 7.09829 20.6151ZM1 15.6304L4.03391 12.6524L4.03576 12.6543L4.10636 12.5853C3.9664 12.6386 3.83015 12.6938 3.6979 12.7509C2.96041 13.0692 2.31391 13.4588 1.83939 13.9121C1.37088 14.3597 1 14.9404 1 15.624V15.6304ZM14.7473 4.92872C16.9978 4.92872 18.8223 6.75316 18.8223 9.00372C18.8223 11.2543 16.9978 13.0787 14.7473 13.0787C12.4967 13.0787 10.6723 11.2543 10.6723 9.00372C10.6723 6.75316 12.4967 4.92872 14.7473 4.92872ZM17.3223 9.00372C17.3223 7.58159 16.1694 6.42872 14.7473 6.42872C13.3251 6.42872 12.1723 7.58159 12.1723 9.00372C12.1723 10.4259 13.3251 11.5787 14.7473 11.5787C16.1694 11.5787 17.3223 10.4259 17.3223 9.00372ZM4.53529 16.3951L4.50098 16.3859L4.51395 16.3733L4.53529 16.3951Z" fill="black"/>
</svg>
