<svg width="24" height="24" viewBox="0 0 24 24" fill="none" xmlns="http://www.w3.org/2000/svg">
<path d="M5.4282 7.28496C5.4282 5.0344 7.252 3.20996 9.50176 3.20996C11.7515 3.20996 13.5753 5.0344 13.5753 7.28496C13.5753 9.53552 11.7515 11.36 9.50176 11.36C7.252 11.36 5.4282 9.53552 5.4282 7.28496ZM9.50176 4.70996C8.08013 4.70996 6.92767 5.86283 6.92767 7.28496C6.92767 8.70709 8.08013 9.85996 9.50176 9.85996C10.9234 9.85996 12.0758 8.70709 12.0758 7.28496C12.0758 5.86283 10.9234 4.70996 9.50176 4.70996Z" fill="black"/>
<path d="M1.25195 17.3339V20.7812H12.4375C11.9755 20.348 11.5826 19.8419 11.2772 19.2812H2.75142V17.3339C2.75142 17.2185 2.81626 17.0035 3.12679 16.7067C3.43131 16.4157 3.9072 16.1126 4.5431 15.838C5.81082 15.2907 7.58295 14.9135 9.50195 14.9135C9.9227 14.9135 10.3364 14.9316 10.7393 14.9657C10.8698 14.4526 11.0671 13.9662 11.3212 13.5161C10.7317 13.4492 10.122 13.4135 9.50195 13.4135C7.40543 13.4135 5.42742 13.8225 3.94889 14.4609C3.21167 14.7792 2.5654 15.1688 2.09105 15.6221C1.62271 16.0696 1.25195 16.6503 1.25195 17.3339Z" fill="black"/>
<path d="M16.5077 12.4863C14.325 12.4863 12.5557 14.2557 12.5557 16.4383C12.5557 18.621 14.325 20.3903 16.5077 20.3903C17.3341 20.3903 18.1013 20.1367 18.7356 19.703L21.6879 22.6553L22.7485 21.5946L19.7916 18.6377C20.2135 18.009 20.4597 17.2524 20.4597 16.4383C20.4597 14.2557 18.6903 12.4863 16.5077 12.4863ZM14.0557 16.4383C14.0557 15.0841 15.1535 13.9863 16.5077 13.9863C17.8619 13.9863 18.9597 15.0841 18.9597 16.4383C18.9597 17.7925 17.8619 18.8903 16.5077 18.8903C15.1535 18.8903 14.0557 17.7925 14.0557 16.4383Z" fill="black"/>
</svg>
