<svg width="24" height="24" viewBox="0 0 24 24" fill="none" xmlns="http://www.w3.org/2000/svg">
<path d="M5.67773 7.28936C5.67773 5.03879 7.50217 3.21436 9.75273 3.21436C12.0033 3.21436 13.8277 5.03879 13.8277 7.28936C13.8277 9.53992 12.0033 11.3644 9.75273 11.3644C7.50217 11.3644 5.67773 9.53992 5.67773 7.28936ZM9.75273 4.71436C8.3306 4.71436 7.17773 5.86722 7.17773 7.28936C7.17773 8.71149 8.3306 9.86436 9.75273 9.86436C11.1749 9.86436 12.3277 8.71149 12.3277 7.28936C12.3277 5.86722 11.1749 4.71436 9.75273 4.71436Z" fill="black"/>
<path d="M1.5 20.7855V17.3382C1.5 16.6546 1.87088 16.0739 2.33939 15.6263C2.81391 15.1731 3.46041 14.7834 4.1979 14.4651C5.67695 13.8267 7.65566 13.4177 9.75293 13.4177C10.6141 13.4177 11.4552 13.4867 12.25 13.6122V15.1328C11.9508 15.0802 11.642 15.0363 11.3258 15.0022L10.7452 16.2976L11.2293 19.2855H12.25V20.7855H1.5ZM3.3755 16.711C3.06486 17.0077 3 17.2228 3 17.3382V19.2855H8.27968L8.76382 16.2976L8.18305 15.0019C6.88021 15.1423 5.70546 15.4482 4.79232 15.8423C4.15619 16.1169 3.68013 16.42 3.3755 16.711Z" fill="black"/>
<path d="M16.2793 13.3098H17.5291V14.5596H16.2793V13.3098Z" fill="black"/>
<path d="M19.9705 13.3098H18.7207V14.5596H19.9705V13.3098Z" fill="black"/>
<path d="M16.2793 15.7659H17.5291V17.0157H16.2793V15.7659Z" fill="black"/>
<path d="M19.9705 15.7659H18.7207V17.0157H19.9705V15.7659Z" fill="black"/>
<path d="M22.5 10.8H13.75V21.9971H17.5738V19.5073H18.6762V21.9971H22.5V10.8ZM15.25 20.4971V12.3H21V20.4971H20.1762V18.0073H16.0738V20.4971H15.25Z" fill="black"/>
</svg>
