<svg width="24" height="24" viewBox="0 0 24 24" fill="none" xmlns="http://www.w3.org/2000/svg">
<path d="M8.25 10.1198C8.25 8.04868 9.92893 6.36975 12 6.36975C14.0711 6.36975 15.75 8.04868 15.75 10.1198C15.75 12.1908 14.0711 13.8698 12 13.8698C9.92893 13.8698 8.25 12.1908 8.25 10.1198ZM12 7.86975C10.7574 7.86975 9.75 8.87711 9.75 10.1198C9.75 11.3624 10.7574 12.3698 12 12.3698C13.2426 12.3698 14.25 11.3624 14.25 10.1198C14.25 8.87711 13.2426 7.86975 12 7.86975Z" fill="black"/>
<path d="M2.85059 5.60059C2.85059 4.0818 4.0818 2.85059 5.60059 2.85059H18.3994C19.9182 2.85059 21.1494 4.0818 21.1494 5.60059V18.3994C21.1494 19.9182 19.9182 21.1494 18.3994 21.1494H5.60059C4.0818 21.1494 2.85059 19.9182 2.85059 18.3994V5.60059ZM5.60059 4.35059C4.91023 4.35059 4.35059 4.91023 4.35059 5.60059V18.3994C4.35059 18.4217 4.35117 18.4439 4.35233 18.466C6.30817 16.2679 9.00085 14.8873 11.9994 14.8873C14.9985 14.8873 17.6917 16.2684 19.6476 18.4673C19.6488 18.4448 19.6494 18.4222 19.6494 18.3994V5.60059C19.6494 4.91023 19.0898 4.35059 18.3994 4.35059H5.60059ZM18.6641 19.6213C16.9442 17.6064 14.5805 16.3873 11.9994 16.3873C9.41831 16.3873 7.05474 17.6063 5.33478 19.6211C5.42044 19.6396 5.50937 19.6494 5.60059 19.6494H18.3994C18.4902 19.6494 18.5788 19.6397 18.6641 19.6213Z" fill="black"/>
</svg>
