<svg width="24" height="24" viewBox="0 0 24 24" fill="none" xmlns="http://www.w3.org/2000/svg">
<path d="M4.92676 7.28496C4.92676 5.0344 6.7512 3.20996 9.00176 3.20996C11.2523 3.20996 13.0768 5.0344 13.0768 7.28496C13.0768 9.53552 11.2523 11.36 9.00176 11.36C6.7512 11.36 4.92676 9.53552 4.92676 7.28496ZM9.00176 4.70996C7.57962 4.70996 6.42676 5.86283 6.42676 7.28496C6.42676 8.70709 7.57962 9.85996 9.00176 9.85996C10.4239 9.85996 11.5768 8.70709 11.5768 7.28496C11.5768 5.86283 10.4239 4.70996 9.00176 4.70996Z" fill="black"/>
<path d="M3.44692 14.461C4.92598 13.8226 6.90469 13.4136 9.00195 13.4136C11.0992 13.4136 13.0779 13.8226 14.557 14.461C15.2945 14.7793 15.941 15.1689 16.4155 15.6222C16.884 16.0697 17.2549 16.6505 17.2549 17.3341V20.7813H0.749023V17.3341C0.749023 16.6505 1.11991 16.0697 1.58842 15.6222C2.06294 15.1689 2.70944 14.7793 3.44692 14.461ZM2.62453 16.7068C2.31389 17.0036 2.24902 17.2187 2.24902 17.3341V19.2813H15.7549V17.3341C15.7549 17.2187 15.69 17.0036 15.3794 16.7068C15.0747 16.4159 14.5987 16.1127 13.9626 15.8382C12.6944 15.2908 10.9216 14.9136 9.00195 14.9136C7.08227 14.9136 5.30951 15.2908 4.04134 15.8382C3.40521 16.1127 2.92916 16.4159 2.62453 16.7068Z" fill="black"/>
<path d="M22.0729 9.02075L16.4717 9.02086L16.4717 10.5209L22.0729 10.5208V9.02075Z" fill="black"/>
</svg>
