<svg width="24" height="24" viewBox="0 0 24 24" fill="none" xmlns="http://www.w3.org/2000/svg">
<path d="M11.9998 3.21436C9.75004 3.21436 7.92625 5.03879 7.92625 7.28936C7.92625 9.53992 9.75004 11.3644 11.9998 11.3644C14.2496 11.3644 16.0734 9.53992 16.0734 7.28936C16.0734 5.03879 14.2496 3.21436 11.9998 3.21436ZM9.42572 7.28936C9.42572 5.86722 10.5782 4.71436 11.9998 4.71436C13.4214 4.71436 14.5739 5.86722 14.5739 7.28936C14.5739 8.71149 13.4214 9.86436 11.9998 9.86436C10.5782 9.86436 9.42572 8.71149 9.42572 7.28936Z" fill="black"/>
<path d="M3.75 20.7856V17.3383C3.75 16.6547 4.12075 16.074 4.5891 15.6265C5.06345 15.1732 5.70972 14.7836 6.44694 14.4652C7.92547 13.8269 9.90348 13.4178 12 13.4178C14.0965 13.4178 16.0745 13.8269 17.5531 14.4652C18.2903 14.7836 18.9366 15.1732 19.4109 15.6265C19.8792 16.074 20.25 16.6547 20.25 17.3383V20.7856H3.75ZM5.24947 17.3383V19.2856H18.7505V17.3383C18.7505 17.2229 18.6857 17.0079 18.3752 16.7111C18.0706 16.4201 17.5948 16.117 16.9589 15.8424C15.6911 15.2951 13.919 14.9178 12 14.9178C10.081 14.9178 8.30887 15.2951 7.04115 15.8424C6.40525 16.117 5.92936 16.4201 5.62484 16.7111C5.31431 17.0079 5.24947 17.2229 5.24947 17.3383Z" fill="black"/>
</svg>
