<svg width="24" height="24" viewBox="0 0 24 24" fill="none" xmlns="http://www.w3.org/2000/svg">
<path d="M6.30125 7.28936C6.30125 5.03879 8.12504 3.21436 10.3748 3.21436C12.6246 3.21436 14.4484 5.03879 14.4484 7.28936C14.4484 9.53992 12.6246 11.3644 10.3748 11.3644C8.12504 11.3644 6.30125 9.53992 6.30125 7.28936ZM10.3748 4.71436C8.95318 4.71436 7.80072 5.86722 7.80072 7.28936C7.80072 8.71149 8.95318 9.86436 10.3748 9.86436C11.7964 9.86436 12.9489 8.71149 12.9489 7.28936C12.9489 5.86722 11.7964 4.71436 10.3748 4.71436Z" fill="black"/>
<path d="M2.125 17.3383V20.7856H12.3647C11.9194 20.3427 11.5356 19.8381 11.2272 19.2856H3.62447V17.3383C3.62447 17.2229 3.68931 17.0079 3.99984 16.7111C4.30436 16.4201 4.78025 16.117 5.41615 15.8424C6.68387 15.2951 8.45599 14.9178 10.375 14.9178L10.4612 14.9181C10.545 14.3984 10.688 13.8986 10.8832 13.4258C10.7147 13.4205 10.5452 13.4178 10.375 13.4178C8.27848 13.4178 6.30047 13.8269 4.82194 14.4652C4.08472 14.7836 3.43845 15.1732 2.9641 15.6265C2.49575 16.074 2.125 16.6547 2.125 17.3383Z" fill="black"/>
<path d="M16.3896 13.9277H17.8896V15.6952L19.3204 17.1259L18.2597 18.1866L16.3896 16.3165V13.9277Z" fill="black"/>
<path d="M17.125 11.25C14.5016 11.25 12.375 13.3766 12.375 16C12.375 18.6234 14.5016 20.75 17.125 20.75C19.7484 20.75 21.875 18.6234 21.875 16C21.875 13.3766 19.7484 11.25 17.125 11.25ZM13.875 16C13.875 14.2051 15.3301 12.75 17.125 12.75C18.9199 12.75 20.375 14.2051 20.375 16C20.375 17.7949 18.9199 19.25 17.125 19.25C15.3301 19.25 13.875 17.7949 13.875 16Z" fill="black"/>
</svg>
