<svg width="24" height="24" viewBox="0 0 24 24" fill="none" xmlns="http://www.w3.org/2000/svg">
<path d="M7.92383 7.28936C7.92383 5.03879 9.74827 3.21436 11.9988 3.21436C14.2494 3.21436 16.0738 5.03879 16.0738 7.28936C16.0738 9.53992 14.2494 11.3644 11.9988 11.3644C9.74827 11.3644 7.92383 9.53992 7.92383 7.28936ZM11.9988 4.71436C10.5767 4.71436 9.42383 5.86722 9.42383 7.28936C9.42383 8.71149 10.5767 9.86436 11.9988 9.86436C13.421 9.86436 14.5738 8.71149 14.5738 7.28936C14.5738 5.86722 13.421 4.71436 11.9988 4.71436Z" fill="black"/>
<path d="M3.74609 20.7855V17.3382C3.74609 16.6546 4.11698 16.0739 4.58549 15.6263C5.06001 15.1731 5.70651 14.7834 6.44399 14.4651C7.92305 13.8267 9.90176 13.4177 11.999 13.4177C14.0963 13.4177 16.075 13.8267 17.5541 14.4651C18.2915 14.7834 18.938 15.1731 19.4126 15.6263C19.8811 16.0739 20.252 16.6546 20.252 17.3382V20.7855H3.74609ZM5.6216 16.711C5.31096 17.0077 5.24609 17.2228 5.24609 17.3382V19.2855H10.5258L11.0099 16.2976L10.4291 15.0019C9.1263 15.1423 7.95155 15.4482 7.03841 15.8423C6.40228 16.1169 5.92623 16.42 5.6216 16.711ZM13.5719 15.0022L12.9912 16.2976L13.4754 19.2855H18.752V17.3382C18.752 17.2228 18.6871 17.0077 18.3764 16.711C18.0718 16.42 17.5958 16.1169 16.9596 15.8423C16.0472 15.4485 14.8735 15.1427 13.5719 15.0022Z" fill="black"/>
</svg>
