<svg width="24" height="24" viewBox="0 0 24 24" fill="none" xmlns="http://www.w3.org/2000/svg">
<path d="M8.13574 9.50244C8.13574 7.36827 9.86583 5.63818 12 5.63818C14.1342 5.63818 15.8643 7.36827 15.8643 9.50244C15.8643 11.6366 14.1342 13.3667 12 13.3667C9.86583 13.3667 8.13574 11.6366 8.13574 9.50244ZM12 7.13818C10.6943 7.13818 9.63574 8.1967 9.63574 9.50244C9.63574 10.8082 10.6943 11.8667 12 11.8667C13.3057 11.8667 14.3643 10.8082 14.3643 9.50244C14.3643 8.1967 13.3057 7.13818 12 7.13818Z" fill="black"/>
<path d="M1.75 12C1.75 6.33908 6.33908 1.75 12 1.75C17.6609 1.75 22.25 6.33908 22.25 12C22.25 17.6609 17.6609 22.25 12 22.25C6.33908 22.25 1.75 17.6609 1.75 12ZM12 3.25C7.16751 3.25 3.25 7.16751 3.25 12C3.25 14.117 4.00182 16.0584 5.25304 17.5718C7.13229 15.964 9.49091 14.9976 12.0617 14.9976C14.5992 14.9976 16.9303 15.9392 18.7976 17.5101C20.0184 16.0058 20.75 14.0883 20.75 12C20.75 7.16751 16.8325 3.25 12 3.25ZM17.7536 18.5925C16.1468 17.2684 14.1788 16.4976 12.0617 16.4976C9.91702 16.4976 7.92508 17.2886 6.30685 18.6448C7.83713 19.9571 9.82597 20.75 12 20.75C14.2027 20.75 16.2154 19.9361 17.7536 18.5925Z" fill="black"/>
</svg>
