<svg width="24" height="24" viewBox="0 0 24 24" fill="none" xmlns="http://www.w3.org/2000/svg">
<path d="M16.8823 6.47485C16.8823 5.7156 16.2668 5.1001 15.5076 5.1001C14.7483 5.1001 14.1328 5.7156 14.1328 6.47485C14.1328 7.23411 14.7483 7.84961 15.5076 7.84961C16.2668 7.84961 16.8823 7.23411 16.8823 6.47485ZM18.3823 6.47485C18.3823 8.06254 17.0953 9.34961 15.5076 9.34961C13.9199 9.34961 12.6328 8.06254 12.6328 6.47485C12.6328 4.88717 13.9199 3.6001 15.5076 3.6001C17.0953 3.6001 18.3823 4.88717 18.3823 6.47485ZM20.2612 15.3343H16.9911V13.8343H19.5112L19.5112 12.8081L19.5109 12.8067L19.5102 12.8039C19.5088 12.799 19.5047 12.7873 19.4939 12.7687C19.4711 12.7293 19.4226 12.6669 19.329 12.588C19.1371 12.4264 18.8261 12.2541 18.4055 12.0973C17.9692 11.9347 17.4611 11.8057 16.9377 11.7194C16.7769 11.0846 16.2691 10.461 15.6275 10.0981C16.7248 10.1134 17.9477 10.3259 18.9294 10.6918C19.4367 10.8809 19.9225 11.1266 20.2955 11.4409C20.6636 11.7511 21.0112 12.2085 21.0112 12.8083V14.5843V15.3343H20.2612ZM14.422 20.3994C15.1164 20.4048 15.682 19.8432 15.6816 19.1488L15.6782 12.5035C15.6779 11.8134 15.1184 11.2541 14.4282 11.2541L11.8635 11.2541L11.8655 10.021C11.8666 9.32991 11.3067 8.76904 10.6155 8.76904L8.00553 8.76904C7.31596 8.76904 6.75665 9.32747 6.75554 10.017V11.2541L6.06333 11.2552L6.03778 11.2541L6.01222 11.2548L4.2139 11.2541C3.5365 11.2722 2.98988 11.814 2.99023 12.4916L2.99363 19.0717C2.99399 19.7581 3.54768 20.3157 4.23401 20.321L14.422 20.3994ZM10.3651 10.269L10.3635 11.2541L8.25356 11.2541L8.25513 10.269L10.3651 10.269ZM14.1784 12.7234L14.1815 18.8975L13.3675 18.8913V12.7235L14.1784 12.7234ZM6.74834 18.8403V12.7235L7.46486 12.7228L7.48042 12.7235H7.496L11.1084 12.7228L11.8635 12.7228L11.8675 18.8797L6.74834 18.8403ZM5.24835 12.7228V18.8461L4.4935 18.8403V12.7222L5.24835 12.7228Z" fill="black"/>
</svg>
