<svg width="24" height="24" viewBox="0 0 24 24" fill="none" xmlns="http://www.w3.org/2000/svg">
<path d="M5.2517 3.80249H3.2509V2.80153H5.2517V3.80249Z" fill="black"/>
<path d="M11.0644 1H1V5.60441H11.0644L14.0121 3.30221L11.0644 1ZM2.5006 4.10298V2.50144H10.5481L11.5734 3.30221L10.5481 4.10298H2.5006Z" fill="black"/>
<path d="M5.2517 15.3995H3.2509V14.3986H5.2517V15.3995Z" fill="black"/>
<path d="M17.0856 12.5971H1V17.2015H17.0856L20.0333 14.8993L17.0856 12.5971ZM2.5006 15.7V14.0985H16.5693L17.5946 14.8993L16.5693 15.7H2.5006Z" fill="black"/>
<path d="M3.2509 9.60102H5.2517V8.60006H3.2509V9.60102Z" fill="black"/>
<path d="M1 6.79853H14.0659L17.0135 9.10074L14.0659 11.4029H1V6.79853ZM2.5006 8.29997V9.9015H13.5495L14.5748 9.10074L13.5495 8.29997H2.5006Z" fill="black"/>
<path d="M3.2509 21.1981H5.2517V20.1971H3.2509V21.1981Z" fill="black"/>
<path d="M20.0523 18.3956H1V23H20.0523L23 20.6978L20.0523 18.3956ZM2.5006 21.4986V19.897H19.536L20.5613 20.6978L19.536 21.4986H2.5006Z" fill="black"/>
</svg>
