<svg width="24" height="24" viewBox="0 0 24 24" fill="none" xmlns="http://www.w3.org/2000/svg">
<path d="M12.5151 3.49023H16.3076L16.5951 5.60418C16.8408 5.72108 17.0754 5.85703 17.2972 6.01007L19.272 5.20195L21.1683 8.48638L19.481 9.79258C19.4916 9.92636 19.497 10.0615 19.497 10.1977C19.497 10.3342 19.4916 10.4695 19.481 10.6034L21.168 11.9094L20.6506 12.8056L20.2283 11.64C19.9415 10.8485 19.1898 10.3213 18.3479 10.3213H17.9949C17.9963 10.2803 17.997 10.2391 17.997 10.1977C17.997 9.9891 17.9792 9.7852 17.9453 9.5873L17.8693 9.14335L19.2144 8.10206L18.6279 7.08627L17.0521 7.73111L16.7054 7.44224C16.3936 7.18233 16.0374 6.97471 15.6505 6.83226L15.2272 6.67644L14.9978 4.99023H13.8249L13.5955 6.67679L13.1725 6.8327C12.8483 6.95215 12.5458 7.11734 12.2729 7.32068L12.1403 6.3457H8.88977L9.55016 5.20187L11.5263 6.01052C11.7478 5.8576 11.9822 5.72174 12.2275 5.60488L12.5151 3.49023ZM15.3242 10.3213H12.3904C11.9915 10.3213 11.6129 10.4396 11.2944 10.6483C11.1451 10.5675 10.9895 10.497 10.8286 10.4377L10.4053 10.2819L10.176 8.5957H9.00303L8.77365 10.2823L8.35059 10.4382C7.96388 10.5807 7.60798 10.7883 7.29633 11.0481L6.9497 11.3371L5.37244 10.6917L4.78597 11.7075L6.13263 12.75L6.05675 13.1938C6.02296 13.3914 6.00528 13.5949 6.00528 13.8032C6.00528 14.0116 6.02299 14.2153 6.05682 14.413L6.13277 14.8569L4.78628 15.8993L5.37275 16.9151L6.95003 16.2697L7.29665 16.5586C7.60822 16.8183 7.96401 17.0258 8.35058 17.1682L8.77363 17.3241L9.00303 19.0108H9.3052L9.30504 19.6605C9.30496 19.9729 9.39445 20.2644 9.54922 20.5108H7.69324L7.40561 18.396C7.16046 18.2793 6.92625 18.1435 6.70486 17.9907L4.72861 18.7994L2.83235 15.515L4.52116 14.2076C4.51064 14.074 4.50528 13.9392 4.50528 13.8032C4.50528 13.6674 4.51062 13.5327 4.52112 13.3994L2.83203 12.0918L4.7283 8.80734L6.70443 9.61599C6.92595 9.46307 7.16031 9.32721 7.40563 9.21035L7.69324 7.0957H11.4858L11.7733 9.20965C12.0189 9.32655 12.2535 9.4625 12.4753 9.61554L14.4502 8.80742L15.3242 10.3213ZM10.5411 11.5595C10.2489 11.4355 9.92742 11.3669 9.58995 11.3669C8.24428 11.3669 7.15339 12.4578 7.15339 13.8034C7.15339 15.053 8.09405 16.0829 9.30588 16.2236L9.30619 14.9626L9.39427 14.7195C8.97096 14.6295 8.65339 14.2536 8.65339 13.8034C8.65339 13.2862 9.0727 12.8669 9.58995 12.8669C9.74757 12.8669 9.8961 12.9058 10.0264 12.9746L10.51 11.64C10.5198 11.6129 10.5302 11.586 10.5411 11.5595ZM12.4777 12.4463H18.2599L18.8642 14.1143H11.8734L12.4777 12.4463ZM19.3068 15.3643L19.3075 17.9873H11.4301L11.4308 15.3643H19.3068ZM18.8575 19.2373V19.6608C18.8575 20.0612 19.1821 20.3858 19.5825 20.3858H19.8329C20.2334 20.3858 20.558 20.0611 20.5579 19.6607L20.5568 15.1164L19.4053 11.9381C19.244 11.4928 18.8211 11.1963 18.3476 11.1963H12.39C11.9165 11.1963 11.4936 11.4928 11.3323 11.9381L10.1808 15.1164L10.1797 19.6607C10.1796 20.0611 10.5042 20.3858 10.9047 20.3858H11.1551C11.5555 20.3858 11.8801 20.0612 11.8801 19.6608V19.2373H18.8575ZM12.9735 17.4196C13.3925 17.4196 13.7321 17.08 13.7321 16.661C13.7321 16.242 13.3911 15.9018 12.9725 15.9023C12.554 15.9029 12.2148 16.2423 12.2148 16.661C12.2148 17.08 12.5545 17.4196 12.9735 17.4196ZM17.7665 17.4196C18.1855 17.4196 18.5251 17.08 18.5251 16.661L18.5193 16.6551C18.5193 16.2362 18.1782 15.8955 17.7596 15.896C17.3411 15.8965 17.002 16.236 17.002 16.6546C17.002 16.8547 17.0794 17.0367 17.206 17.1723C17.3447 17.3243 17.5444 17.4196 17.7665 17.4196Z" fill="black"/>
</svg>
