<svg width="24" height="24" viewBox="0 0 24 24" fill="none" xmlns="http://www.w3.org/2000/svg">
<path d="M17.3266 19.0455L19.9409 21.6598L21.0016 20.5991L2.7423 2.33984L1.68164 3.4005L2.52728 4.24614C2.23799 4.57255 2.0625 5.00146 2.0625 5.47119V17.6357C2.0625 18.658 2.89355 19.4868 3.91992 19.4868H16.123C16.582 19.4868 17.0023 19.3207 17.3266 19.0455ZM16.176 17.8949C16.1589 17.8983 16.1412 17.9001 16.123 17.9001H3.91992C3.77344 17.9001 3.6543 17.7817 3.6543 17.6357V5.47119C3.6543 5.44174 3.65915 5.41341 3.66809 5.38695L16.176 17.8949Z" fill="black"/>
<path d="M17.9805 12.6298V14.8478L16.3887 13.256V5.4713C16.3887 5.32531 16.2695 5.2069 16.123 5.2069H8.33984L6.75293 3.62023H16.123C17.1484 3.62023 17.9805 4.44909 17.9805 5.4713V10.4403L22.3174 6.12682V17.069L17.9805 12.6298Z" fill="black"/>
</svg>
