<svg width="24" height="24" viewBox="0 0 24 24" fill="none" xmlns="http://www.w3.org/2000/svg">
<path d="M10.3811 8.68817C10.8512 8.39861 11.4045 8.23145 11.9988 8.23145C13.666 8.23145 15.0248 9.55203 15.0862 11.2042L14.4395 10.5576L13.5557 11.4415L15.6509 13.5367L17.7461 11.4415L16.8622 10.5576L16.3322 11.0877C16.2109 8.79948 14.3171 6.98145 11.9988 6.98145C11.1664 6.98145 10.387 7.21639 9.7255 7.62389L10.3811 8.68817Z" fill="black"/>
<path d="M9.5585 12.0276L8.90971 11.3788C8.94051 13.0585 10.3117 14.4106 11.9988 14.4106C12.5932 14.4106 13.1467 14.2433 13.6169 13.9535L14.2727 15.0177C13.6111 15.4255 12.8314 15.6606 11.9988 15.6606C9.66222 15.6606 7.75699 13.814 7.66283 11.5006L7.13584 12.0276L6.25195 11.1437L8.34717 9.04849L10.4424 11.1437L9.5585 12.0276Z" fill="black"/>
<path d="M12.5085 2.32103L11.9991 1.84961L11.4897 2.32103C9.45085 4.20784 6.85133 4.72171 3.63263 4.78117L2.89648 4.79477V5.53104C2.89648 10.6249 4.06232 14.0535 5.77463 16.5581C7.47517 19.0455 9.67562 20.5565 11.5746 21.8594L11.9989 22.1505L12.4232 21.8594C14.3221 20.5565 16.5226 19.0455 18.2233 16.5581C19.9356 14.0535 21.1016 10.6249 21.1016 5.53104V4.79477L20.3654 4.78117C17.1467 4.72171 14.5474 4.20785 12.5085 2.32103ZM7.01291 15.7115C5.57858 13.6135 4.51008 10.6971 4.40499 6.25865C7.223 6.13976 9.82798 5.60777 11.9991 3.86173C14.1702 5.60776 16.7751 6.13976 19.5931 6.25865C19.488 10.6971 18.4194 13.6135 16.985 15.7115C15.5744 17.7748 13.7754 19.1038 11.9989 20.3306C10.2224 19.1038 8.42348 17.7748 7.01291 15.7115Z" fill="black"/>
</svg>
