<svg width="24" height="24" viewBox="0 0 24 24" fill="none" xmlns="http://www.w3.org/2000/svg">
<path d="M4.64338 8.45213H8.19754C8.65186 6.85533 9.39881 5.32422 10.4384 3.94345C7.89678 4.49513 5.77836 6.18371 4.64338 8.45213ZM12.25 4.09445C11.0996 5.39667 10.2714 6.88373 9.76518 8.45213H14.7348C14.2286 6.88373 13.4004 5.39667 12.25 4.09445ZM15.1167 9.95213H9.38329C9.09693 11.4696 9.09693 13.0304 9.38329 14.5479H15.1167C15.4031 13.0304 15.4031 11.4696 15.1167 9.95213ZM16.6404 14.5479H20.436C20.6405 13.8177 20.75 13.0472 20.75 12.25C20.75 11.4528 20.6405 10.6823 20.436 9.95213H16.6404C16.8952 11.4726 16.8952 13.0274 16.6404 14.5479ZM14.7348 16.0479H9.76518C10.2714 17.6163 11.0996 19.1033 12.25 20.4056C13.4004 19.1033 14.2286 17.6163 14.7348 16.0479ZM10.4384 20.5565C9.3988 19.1758 8.65186 17.6447 8.19754 16.0479H4.64334C5.77782 18.3156 7.89642 20.0047 10.4384 20.5565ZM4.06404 14.5479H7.85963C7.60482 13.0274 7.60482 11.4726 7.85963 9.95213H4.06404C3.85953 10.6823 3.75 11.4528 3.75 12.25C3.75 13.0472 3.85953 13.8177 4.06404 14.5479ZM14.0616 20.5565C16.6036 20.0047 18.7222 18.3156 19.8567 16.0479H16.3025C15.8481 17.6447 15.1012 19.1758 14.0616 20.5565ZM19.8567 8.45213C18.7222 6.18436 16.6036 4.49532 14.0616 3.94349C15.1012 5.32425 15.8481 6.85534 16.3025 8.45213H19.8567ZM3.28987 7.80511C4.9253 4.51422 8.32254 2.25 12.25 2.25C16.6195 2.25 20.3327 5.05208 21.6943 8.9551C22.0545 9.98779 22.25 11.0969 22.25 12.25C22.25 13.4031 22.0545 14.5122 21.6943 15.5449C20.3327 19.4479 16.6195 22.25 12.25 22.25C7.88045 22.25 4.16731 19.4479 2.80574 15.5449C2.44549 14.5122 2.25 13.4031 2.25 12.25C2.25 11.0969 2.44549 9.98779 2.80574 8.9551C2.94363 8.55983 3.1056 8.17591 3.28987 7.80511Z" fill="black"/>
</svg>
