<svg width="24" height="24" viewBox="0 0 24 24" fill="none" xmlns="http://www.w3.org/2000/svg">
<path d="M5.88392 3.79107C8.14706 2.39596 11.1518 2.67934 13.1137 4.6412C14.8335 6.36117 15.2626 8.88099 14.404 11.0005L20.6678 17.2643C20.9607 17.5572 20.9607 18.0321 20.6678 18.325L18.4913 20.5016C18.1984 20.7945 17.7235 20.7945 17.4306 20.5016L11.1657 14.2367C9.04688 15.0935 6.52858 14.6639 4.80954 12.9449C3.67473 11.8101 3.10201 10.3269 3.09003 8.84061C3.08134 7.75726 3.37061 6.67196 3.95785 5.71818L7.58462 9.34495L9.51121 7.41836L5.88392 3.79107ZM11.1022 6.88803C11.3951 7.18092 11.3951 7.6558 11.1022 7.94869L8.11495 10.9359C7.82206 11.2288 7.34718 11.2288 7.05429 10.9359L4.60057 8.48222C4.51417 9.70289 4.93798 10.952 5.8702 11.8842C7.25265 13.2667 9.3323 13.5306 10.9805 12.6721L11.4684 12.418L17.9609 18.9106L19.0768 17.7947L12.5847 11.3026L12.8394 10.8146C13.6996 9.16591 13.4361 7.08474 12.0529 5.70152C11.1195 4.76816 9.86848 4.34445 8.64638 4.43221L11.1022 6.88803Z" fill="black"/>
</svg>
