<svg width="24" height="24" viewBox="0 0 24 24" fill="none" xmlns="http://www.w3.org/2000/svg">
<path d="M10.188 3.69345C9.15109 5.07063 8.40532 6.59738 7.95066 8.1897H9.51878C10.0253 6.62587 10.8523 5.14323 11.9996 3.84445C13.1469 5.14323 13.9738 6.62587 14.4804 8.1897H16.0485C15.5938 6.59739 14.8481 5.07066 13.8112 3.69349C16.3485 4.24431 18.464 5.92819 19.6 8.1897H21.2478C19.7498 4.55776 16.1743 2 11.9996 2C8.07212 2 4.67488 4.26422 3.03945 7.55511C2.93632 7.76264 2.84018 7.97427 2.75133 8.1897H4.39919C5.53569 5.92754 7.651 4.24412 10.188 3.69345Z" fill="black"/>
<path d="M19.6028 15.8047H21.2501C19.7535 19.4396 16.1764 22 11.9996 22C7.82272 22 4.24565 19.4396 2.74902 15.8047H4.39633C5.53165 18.069 7.64855 19.7552 10.1879 20.3065C9.14986 18.9277 8.40356 17.399 7.94906 15.8047H9.51696C10.0234 17.3706 10.8509 18.8552 11.9996 20.1556C13.1483 18.8552 13.9758 17.3706 14.4822 15.8047H16.0501C15.5956 17.399 14.8493 18.9277 13.8112 20.3065C16.3506 19.7552 18.4675 18.069 19.6028 15.8047Z" fill="black"/>
<path d="M6.73379 12.7104L5.86681 9.62939H4.95496L4.09023 12.7137L3.46999 9.62939H2.25195L3.45205 14.3703H4.51306L5.41033 11.3106L6.30871 14.3703H7.36861L8.56982 9.62939H7.3473L6.73379 12.7104Z" fill="black"/>
<path d="M13.3231 12.7104L12.4561 9.62939H11.5443L10.6795 12.7137L10.0593 9.62939H8.84124L10.0413 14.3703H11.1024L11.9996 11.3106L12.898 14.3703H13.959L15.1591 9.62939H13.9366L13.3231 12.7104Z" fill="black"/>
<path d="M19.9124 12.7104L20.5259 9.62939H21.7484L20.5483 14.3703H19.4873L18.5889 11.3106L17.6916 14.3703H16.6306L15.4305 9.62939H16.6486L17.2688 12.7137L18.1335 9.62939H19.0454L19.9124 12.7104Z" fill="black"/>
</svg>
