<svg width="24" height="24" viewBox="0 0 24 24" fill="none" xmlns="http://www.w3.org/2000/svg">
<path d="M11.3823 12.0027V17.0015H12.6323V12.0027H11.3823Z" fill="black"/>
<path d="M15.5798 15.8231H15.0842V16.9955H13.8342L13.8342 12.7467C13.8342 12.4015 14.1141 12.1217 14.4592 12.1217H15.5798C16.6019 12.1217 17.4305 12.9503 17.4305 13.9724C17.4305 14.9945 16.6019 15.8231 15.5798 15.8231ZM15.0842 14.5731H15.5798C15.9115 14.5731 16.1805 14.3041 16.1805 13.9724C16.1805 13.6406 15.9115 13.3717 15.5798 13.3717H15.0842V14.5731Z" fill="black"/>
<path d="M7.19629 13.376H8.58569L7.39343 15.9875C7.3051 16.181 7.32122 16.4061 7.43622 16.585C7.55121 16.7639 7.7493 16.8721 7.96198 16.8721H10.3168V15.6221H8.93437L10.1266 13.0105C10.215 12.8171 10.1988 12.592 10.0838 12.413C9.96885 12.2341 9.77076 12.126 9.55808 12.126H7.19629V13.376Z" fill="black"/>
<path d="M22.7746 10.6471L12.0001 2.61011L1.22559 10.6471L2.12245 11.8494L3.90161 10.5223V20.808H20.0987V10.5223L21.8777 11.8494L22.7746 10.6471ZM5.40161 19.308V9.40341L12.0001 4.48144L18.5987 9.40346V19.308H5.40161Z" fill="black"/>
</svg>
