<svg width="24" height="24" viewBox="0 0 24 24" fill="none" xmlns="http://www.w3.org/2000/svg">
<path d="M17.2559 8.0597V11.0374C13.928 11.0379 11.2305 13.7358 11.2305 17.0637C11.2305 18.8672 12.0227 20.4857 13.2781 21.5901L3.21875 21.59C2.66647 21.59 2.21875 21.1423 2.21875 20.59V15.0745H3.82965C4.12851 15.8011 4.84342 16.3127 5.67783 16.3127C6.78105 16.3127 7.67538 15.4184 7.67538 14.3151C7.67538 13.2119 6.78105 12.3176 5.67783 12.3176C4.83574 12.3176 4.11536 12.8386 3.8215 13.5759H2.21875V8.0597C2.21875 7.50741 2.66647 7.0597 3.21875 7.0597H7.98828V7.05327C7.4351 6.56743 7.08594 5.85489 7.08594 5.06079C7.08594 3.59675 8.27278 2.40991 9.73682 2.40991C11.2009 2.40991 12.3877 3.59675 12.3877 5.06079C12.3877 5.85348 12.0398 6.56491 11.4883 7.05069V7.0597H16.2559C16.8081 7.0597 17.2559 7.50741 17.2559 8.0597Z" fill="black"/>
<path d="M17.2568 21.5901C19.7567 21.5901 21.7832 19.5636 21.7832 17.0637C21.7832 14.5639 19.7567 12.5374 17.2568 12.5374C14.757 12.5374 12.7305 14.5639 12.7305 17.0637C12.7305 19.5636 14.757 21.5901 17.2568 21.5901ZM16.5078 17.814H15.0808V16.314H16.5078V14.8875H18.0078V16.314H19.4336V17.814H18.0078V19.2402H16.5078V17.814Z" fill="black"/>
</svg>
