<svg width="24" height="24" viewBox="0 0 24 24" fill="none" xmlns="http://www.w3.org/2000/svg">
<path d="M17.9772 6.74545H9.11914V5.24545H17.9772V6.74545Z" fill="black"/>
<path d="M9.11914 10.1922H17.9772V8.69223H9.11914V10.1922Z" fill="black"/>
<path d="M20.9434 1.87109H6.10742L6.10547 3.30298L6.10742 4.46655L6.10547 16.249H3.05859V19.365C3.05859 19.5925 3.08594 19.8137 3.13672 20.0251C3.19336 20.2583 3.28125 20.4797 3.39453 20.6853C3.44727 20.7832 3.50586 20.8774 3.57031 20.9678C3.70117 21.1472 3.85156 21.3103 4.01953 21.4539C4.23242 21.6365 4.47461 21.7871 4.73633 21.8982C5.06641 22.0378 5.42773 22.115 5.80859 22.115H18.1055C19.6719 22.115 20.9395 20.8462 20.9395 19.2812L20.9434 1.87109ZM16.7734 16.249H7.60547V3.375H19.4395V19.2812C19.4395 20.0178 18.8438 20.615 18.1055 20.615C17.3691 20.615 16.7734 20.0178 16.7734 19.2812V16.249Z" fill="black"/>
<path d="M9.11914 13.6349H17.9772V12.1349H9.11914V13.6349Z" fill="black"/>
</svg>
