<svg width="24" height="24" viewBox="0 0 24 24" fill="none" xmlns="http://www.w3.org/2000/svg">
<path d="M3.75 4C2.7835 4 2 4.7835 2 5.75V9.74856L2.5348 9.90875C3.43506 10.1784 4.08984 11.0137 4.08984 12C4.08984 12.9863 3.43506 13.8216 2.5348 14.0913L2 14.2514V18.25C2 19.2165 2.7835 20 3.75 20H20.25C21.2165 20 22 19.2165 22 18.25V5.75C22 4.7835 21.2165 4 20.25 4H3.75ZM8.78736 15.7348L7.05273 12.8079L8.07966 12.5464L9.32966 13.4964L11.7527 12.9079L9.30273 8.60793L10.7797 8.26562L14.8797 12.0656L17.3681 11.3964C17.6322 11.3195 17.8745 11.3547 18.095 11.5022C18.3156 11.6496 18.4643 11.8554 18.5412 12.1194C18.6181 12.3836 18.5966 12.6361 18.4768 12.8772C18.3569 13.1182 18.1617 13.2771 17.8912 13.3541L8.78736 15.7348Z" fill="black"/>
</svg>
