<svg width="24" height="24" viewBox="0 0 24 24" fill="none" xmlns="http://www.w3.org/2000/svg">
<path d="M5.95312 5.67587C5.95312 3.45428 7.75408 1.65332 9.97567 1.65332C12.1973 1.65332 13.9982 3.45428 13.9982 5.67587V14.7485H12.4982V5.67587C12.4982 4.2827 11.3688 3.15332 9.97567 3.15332C8.58251 3.15332 7.45312 4.2827 7.45312 5.67587V16.6533C7.45312 18.8625 9.24399 20.6533 11.4531 20.6533C12.6719 20.6533 13.7634 20.1082 14.497 19.2485H14.7344V21.0677C13.8184 21.7497 12.6829 22.1533 11.4531 22.1533C8.41556 22.1533 5.95312 19.6909 5.95312 16.6533V5.67587Z" fill="black"/>
<path d="M16.9531 11.4985H15.4531V5.61036H16.9531V11.4985Z" fill="black"/>
<path d="M11.4844 16.553V18.0534L11.4488 18.0536C10.0407 18.0536 8.8993 16.9122 8.8993 15.5041V5.61036H10.3993V15.5041C10.3993 16.0837 10.8692 16.5536 11.4488 16.5536C11.4607 16.5536 11.4726 16.5534 11.4844 16.553Z" fill="black"/>
<path d="M16.2344 20.9985V17.7485H12.9844V16.2485H16.2344V12.9985H17.7344V16.2485H20.9844V17.7485H17.7344V20.9985H16.2344Z" fill="black"/>
</svg>
