<svg width="24" height="24" viewBox="0 0 24 24" fill="none" xmlns="http://www.w3.org/2000/svg">
<path d="M6.5 5.77254C6.5 3.55096 8.30095 1.75 10.5225 1.75C12.7441 1.75 14.5451 3.55096 14.5451 5.77255V15.6008C14.5451 17.0088 13.4037 18.1503 11.9956 18.1503C10.5876 18.1503 9.44617 17.0088 9.44617 15.6008V5.70704H10.9462V15.6008C10.9462 16.1804 11.416 16.6503 11.9956 16.6503C12.5752 16.6503 13.0451 16.1804 13.0451 15.6008V5.77255C13.0451 4.37938 11.9157 3.25 10.5225 3.25C9.12938 3.25 8 4.37938 8 5.77254V16.75C8 18.9591 9.79086 20.75 12 20.75C14.2091 20.75 16 18.9591 16 16.75V5.70704H17.5V16.75C17.5 19.7876 15.0376 22.25 12 22.25C8.96243 22.25 6.5 19.7876 6.5 16.75V5.77254Z" fill="black"/>
</svg>
