<svg width="24" height="24" viewBox="0 0 24 24" fill="none" xmlns="http://www.w3.org/2000/svg">
<path d="M12 2C6.47715 2 2 6.47715 2 12C2 17.5228 6.47715 22 12 22C17.5228 22 22 17.5228 22 12C22 6.47715 17.5228 2 12 2ZM3.5 12C3.5 7.30558 7.30558 3.5 12 3.5C14.0768 3.5 15.9797 4.24485 17.4561 5.48198L5.48226 17.4564C4.24496 15.98 3.5 14.077 3.5 12ZM6.54286 18.5171L18.5169 6.54252C19.7547 8.01907 20.5 9.9225 20.5 12C20.5 16.6944 16.6944 20.5 12 20.5C9.92266 20.5 8.01936 19.7548 6.54286 18.5171Z" fill="black"/>
</svg>
