<svg width="24" height="24" viewBox="0 0 24 24" fill="none" xmlns="http://www.w3.org/2000/svg">
<path d="M11.9912 1.81152C11.1094 1.81152 10.3936 2.52686 10.3936 3.40967V4.08838C9.53125 4.31885 8.74219 4.73145 8.07227 5.28271L18.1748 15.3853V10.0591C18.1748 7.19775 16.2305 4.79053 13.5898 4.08691V3.40967C13.5898 2.52686 12.874 1.81152 11.9912 1.81152Z" fill="black"/>
<path d="M6.75 6.78857L18.8066 18.8457L21.4561 21.4858L20.3945 22.5464L16.6943 18.8457H3.7998V17.3457H5.81445V10.0591C5.81445 9.42529 5.90918 8.81396 6.08691 8.23828L1.52832 3.6792L2.58887 2.61865L6.75 6.78857Z" fill="black"/>
<path d="M14.124 20.2798C14.124 21.4541 13.1719 22.4062 11.9971 22.4062C10.8232 22.4062 9.87109 21.4541 9.87109 20.2798H14.124Z" fill="black"/>
</svg>
