<svg width="24" height="24" viewBox="0 0 24 24" fill="none" xmlns="http://www.w3.org/2000/svg">
<path d="M2 12C2 6.47705 6.47754 2 12 2C17.5225 2 22 6.47705 22 12C22 17.5229 17.5225 22 12 22C6.47754 22 2 17.5229 2 12ZM11.9951 5.30957C11.4404 5.30957 10.9902 5.75977 10.9902 6.31494V6.81152C9.17773 7.26172 7.83496 8.89941 7.83496 10.8506V14.6885H6.8418V16.1885H17.1582V14.6885H16.1582V10.8506C16.1582 8.89844 14.8145 7.26025 13.001 6.81104V6.31494C13.001 5.75977 12.5508 5.30957 11.9951 5.30957ZM13.5557 17.1445H10.4404C10.4404 18.0049 11.1377 18.7021 11.998 18.7021C12.4746 18.7021 12.9004 18.4883 13.1865 18.1514C13.417 17.8799 13.5557 17.5283 13.5557 17.1445Z" fill="black"/>
</svg>
