<svg width="24" height="24" viewBox="0 0 24 24" fill="none" xmlns="http://www.w3.org/2000/svg">
<path d="M10.3936 3.47974C10.3936 2.59724 11.109 1.88184 11.9915 1.88184C12.874 1.88184 13.5894 2.59724 13.5894 3.47974V4.15693C14.2888 4.34322 14.9395 4.64914 15.5182 5.05142L15.3481 5.22153L15.3527 5.22614L10.2764 10.3028V15.3174H15.291L18.1748 12.4338V17.4155H20.1998V18.9155H3.7998V17.4155H5.81445V10.1294C5.81445 7.2699 7.75648 4.86398 10.3936 4.15862V3.47974Z" fill="black"/>
<path d="M14.124 20.3496C14.124 21.524 13.172 22.4761 11.9976 22.4761C10.8231 22.4761 9.8711 21.524 9.8711 20.3496H14.124Z" fill="black"/>
<path d="M18.6816 4.64618C19.0998 4.22797 19.7778 4.22797 20.196 4.64618L20.9349 5.38501C21.3531 5.80322 21.3531 6.48128 20.9349 6.89949L20.3593 7.47503L18.106 5.22172L18.6816 4.64618Z" fill="black"/>
<path d="M17.6044 5.73256L19.8616 7.98983L14.4835 13.3676H12.2266L12.2266 11.1106L17.6044 5.73256Z" fill="black"/>
</svg>
