<svg width="24" height="24" viewBox="0 0 24 24" fill="none" xmlns="http://www.w3.org/2000/svg">
<path d="M18.9156 5.11693L18.9156 2.78906L17.4156 2.7891L17.4156 5.11696L15.0879 5.11701L15.0879 6.61701L17.4157 6.61696L17.4157 8.94461L18.9157 8.94458L18.9157 6.61693L21.2434 6.61687L21.2434 5.11687L18.9156 5.11693Z" fill="black"/>
<path d="M7.33984 3.10889H13.8557C13.4218 3.8693 13.1738 4.74957 13.1738 5.68774C13.1738 8.56567 15.5068 10.8987 18.3848 10.8987C18.5641 10.8987 18.7413 10.8896 18.916 10.8719V20.8758L12.0029 17.9077L5.08984 20.8758V5.35889C5.08984 4.11624 6.0972 3.10889 7.33984 3.10889Z" fill="black"/>
</svg>
