<svg width="24" height="24" viewBox="0 0 24 24" fill="none" xmlns="http://www.w3.org/2000/svg">
<path d="M13.1406 2.2749H2.27344V17.6499H8.39844V3.7749H13.1406V2.2749ZM6.89844 3.7749V6.8999H3.77344V3.7749H6.89844ZM3.77344 8.3999H6.89844V11.5249H3.77344V8.3999ZM3.77344 13.0249H6.89844V16.1499H3.77344V13.0249Z" fill="black"/>
<path d="M21.7246 5.76939H10.3964V21.7225H21.7246V5.76939ZM11.8964 20.2225V16.8084H15.3144V20.2225H11.8964ZM15.3144 15.3084H11.8964V12.1834H15.3144V15.3084ZM15.3144 10.6834H11.8964V7.26938H15.3144V10.6834ZM16.8144 10.6834V7.26938H20.2246V10.6834H16.8144ZM16.8144 12.1834H20.2246V15.3084H16.8144V12.1834ZM16.8144 16.8084H20.2246V20.2225H16.8144V16.8084Z" fill="black"/>
</svg>
