<svg width="24" height="24" viewBox="0 0 24 24" fill="none" xmlns="http://www.w3.org/2000/svg">
<path d="M11.3401 8.5918H9.96094V9.97092H11.3401V8.5918Z" fill="black"/>
<path d="M12.6582 8.5918H14.0373V9.97092H12.6582V8.5918Z" fill="black"/>
<path d="M11.3401 11.3013H9.96094V12.6804H11.3401V11.3013Z" fill="black"/>
<path d="M12.6582 11.3013H14.0373V12.6804H12.6582V11.3013Z" fill="black"/>
<path d="M12 2C6.47715 2 2 6.47715 2 12C2 17.5228 6.47715 22 12 22C17.5228 22 22 17.5228 22 12C22 6.47715 17.5228 2 12 2ZM16.75 18.1001H12.6858V15.3527H11.3142V18.1001H7.25V5.8999H16.75V18.1001Z" fill="black"/>
</svg>
