<svg width="24" height="24" viewBox="0 0 24 24" fill="none" xmlns="http://www.w3.org/2000/svg">
<path d="M16.3328 14.0353L13.205 13.7845L11.9999 10.8872L10.7949 13.7845L7.66699 14.0353L10.0501 16.0766L9.32202 19.1289L11.9999 17.4933L14.6778 19.1289L13.9497 16.0766L16.3328 14.0353Z" fill="black"/>
<path d="M7.58105 3.98901H16.4189V2.01074H17.9189V3.98901H18.75C19.9926 3.98901 21 4.99637 21 6.23901V19.739C21 20.9817 19.9926 21.989 18.75 21.989H5.25C4.00736 21.989 3 20.9817 3 19.739V6.23901C3 4.99637 4.00736 3.98901 5.25 3.98901H6.08105V2.01074H7.58105V3.98901ZM4.5 19.739C4.5 20.1532 4.83579 20.489 5.25 20.489H18.75C19.1642 20.489 19.5 20.1532 19.5 19.739V9.56274H4.5V19.739Z" fill="black"/>
</svg>
