<svg width="24" height="24" viewBox="0 0 24 24" fill="none" xmlns="http://www.w3.org/2000/svg">
<path d="M7.58105 3.98828H16.4189V2.01001H17.9189V3.98828H18.75C19.9926 3.98828 21 4.99564 21 6.23828V12.6249H19.5V9.56201H4.5V19.7383C4.5 20.1525 4.83579 20.4883 5.25 20.4883H11.1146V21.9883H5.25C4.00736 21.9883 3 20.9809 3 19.7383V6.23828C3 4.99564 4.00736 3.98828 5.25 3.98828H6.08105V2.01001H7.58105V3.98828Z" fill="black"/>
<path d="M21.709 14.4626C21.2781 14.0317 20.5795 14.0317 20.1486 14.4626L19.5556 15.0555L21.8772 17.3771L22.4702 16.7841C22.901 16.3533 22.901 15.6547 22.4702 15.2238L21.709 14.4626Z" fill="black"/>
<path d="M21.3644 17.9075L19.0388 15.5819L13.498 21.1229L13.498 23.4482H15.8234L21.3644 17.9075Z" fill="black"/>
</svg>
