<svg width="24" height="24" viewBox="0 0 24 24" fill="none" xmlns="http://www.w3.org/2000/svg">
<path d="M14.7003 1.94995H9.29773L7.26057 4.19474H4.26953C3.02689 4.19474 2.01953 5.20211 2.01953 6.44475V17.7638C2.01953 19.0065 3.02689 20.0138 4.26953 20.0138H11.2073C10.9776 19.2969 10.8535 18.5327 10.8535 17.7395C10.8535 17.2185 10.907 16.7101 11.0089 16.2193C9.21089 15.7744 7.87793 14.1503 7.87793 12.2148C7.87793 9.93667 9.72476 8.08984 12.0029 8.08984C13.7497 8.08984 15.2428 9.17554 15.8444 10.7089C16.6126 10.4409 17.4382 10.2952 18.2979 10.2952C19.6367 10.2952 20.893 10.6486 21.9785 11.2673V6.44475C21.9785 5.20211 20.9712 4.19474 19.7285 4.19474H16.7375L14.7003 1.94995Z" fill="black"/>
<path d="M11.6884 14.3108C12.2457 13.2386 13.0563 12.3192 14.0408 11.6317C13.7875 10.7449 12.971 10.0957 12.0029 10.0957C10.8326 10.0957 9.88379 11.0445 9.88379 12.2148C9.88379 13.2783 10.6672 14.1588 11.6884 14.3108Z" fill="black"/>
<path d="M19.2269 12.4792H17.4063L17.1709 13.9014C16.5952 14.0742 16.0745 14.3738 15.641 14.7679L14.213 14.2787L13.3094 15.7898L14.4511 16.767C14.3772 17.07 14.3381 17.3866 14.3381 17.7123C14.3381 18.041 14.378 18.3605 14.4531 18.666L13.3008 19.6486L14.2447 21.171L15.6544 20.6687C16.092 21.063 16.6176 21.3615 17.1982 21.5311L17.4082 22.9626H19.2251L19.4351 21.531C20.0162 21.3611 20.5417 21.0624 20.9788 20.6687L22.3886 21.171L23.3325 19.6486L22.18 18.6659C22.2553 18.3599 22.2952 18.0404 22.2952 17.7123C22.2952 17.3868 22.256 17.0702 22.1821 16.7671L23.3238 15.7898L22.4203 14.2787L20.9922 14.7679C20.5593 14.3744 20.0386 14.0746 19.4624 13.9016L19.2269 12.4792ZM17.9518 15.2606C18.0708 15.2431 18.1925 15.234 18.3163 15.234C18.4445 15.234 18.5705 15.2437 18.6923 15.2621C19.2975 15.3538 19.8324 15.6653 20.212 16.1152C20.3795 16.3137 20.5162 16.5385 20.6151 16.7826C20.6167 16.7869 20.6184 16.7912 20.6201 16.7955C20.6221 16.8007 20.6243 16.8059 20.6265 16.8111C20.7354 17.0903 20.7952 17.394 20.7952 17.7123C20.7952 18.0395 20.7321 18.3502 20.6182 18.6342C20.5182 18.8835 20.3786 19.1133 20.2068 19.3155C19.8216 19.7689 19.2783 20.0805 18.6644 20.1663C18.5515 20.1821 18.4347 20.1904 18.3162 20.1904C18.2022 20.1904 18.0899 20.1827 17.98 20.1678C17.9729 20.1667 17.9658 20.1657 17.9587 20.1648C17.3525 20.0772 16.8172 19.7702 16.4362 19.3268C16.43 19.3192 16.4236 19.3118 16.4172 19.3045C16.2496 19.1048 16.1129 18.8783 16.0145 18.6323C15.9007 18.3479 15.8381 18.0374 15.8381 17.7123C15.8381 17.3885 15.9002 17.0792 16.0131 16.7956C16.1105 16.5512 16.2457 16.3258 16.4115 16.1269C16.4183 16.1192 16.4249 16.1113 16.4314 16.1033C16.8069 15.6637 17.3335 15.3571 17.9308 15.2638C17.9378 15.2628 17.9449 15.2618 17.9518 15.2606Z" fill="black"/>
</svg>
