<svg width="24" height="24" viewBox="0 0 24 24" fill="none" xmlns="http://www.w3.org/2000/svg">
<path d="M14.9532 7.44309H9.04673L9.52038 6.13574H14.4796L14.9532 7.44309Z" fill="black"/>
<path d="M14.7255 9.75278C14.7255 10.12 14.4278 10.4177 14.0606 10.4177C13.6934 10.4177 13.3957 10.12 13.3957 9.75278C13.3957 9.38557 13.6934 9.08789 14.0606 9.08789C14.4278 9.08789 14.7255 9.38557 14.7255 9.75278Z" fill="black"/>
<path d="M9.94028 10.4177C10.3075 10.4177 10.6052 10.12 10.6052 9.75284C10.6052 9.38563 10.3075 9.08795 9.94028 9.08795C9.57307 9.08795 9.27539 9.38563 9.27539 9.75284C9.27539 10.12 9.57307 10.4177 9.94028 10.4177Z" fill="black"/>
<path d="M4 4.25C4 3.00736 5.00736 2 6.25 2H17.75C18.9926 2 20 3.00736 20 4.25V19.75C20 20.9926 18.9926 22 17.75 22H6.25C5.00736 22 4 20.9926 4 19.75V4.25ZM14.9803 12.0874V12.369C14.9803 12.7694 15.3049 13.094 15.7053 13.094H15.9C16.3004 13.094 16.625 12.7693 16.625 12.3688L16.624 8.38498L15.625 5.62753C15.4636 5.18229 15.0408 4.88574 14.5672 4.88574H9.43272C8.95916 4.88574 8.5363 5.18229 8.37499 5.62753L7.37597 8.38498L7.375 12.3688C7.3749 12.7693 7.69952 13.094 8.1 13.094H8.29468C8.69508 13.094 9.01968 12.7694 9.01968 12.369V12.0874H14.9803ZM7.375 14.2397V19.1157H8.61056V14.2397H7.375ZM9.22834 14.2397V19.1157H10.4472V14.2397H9.22834ZM11.065 14.2397V19.1157H11.6828V14.2397H11.065ZM12.9183 14.2397V19.1157H14.1539V14.2397H12.9183ZM14.7717 14.2397V19.1157H16.625V14.2397H14.7717Z" fill="black"/>
</svg>
