<svg width="24" height="24" viewBox="0 0 24 24" fill="none" xmlns="http://www.w3.org/2000/svg">
<path d="M14.2447 10.8667C14.2447 13.2906 12.9779 15.4187 11.0703 16.625H13.3468C13.6799 17.9189 14.8544 18.875 16.2523 18.875C17.6502 18.875 18.8248 17.9189 19.1578 16.625H22.2523C22.6665 16.625 23.0023 16.2892 23.0023 15.875V12.5146C23.0023 11.2037 22.077 10.0751 20.7916 9.81801L17.6221 9.1841L14.222 5.78401C13.8 5.36205 13.2277 5.125 12.631 5.125H11.0964C12.9895 6.33417 14.2447 8.45385 14.2447 10.8667ZM17.7523 15.875C17.7523 16.7034 17.0807 17.375 16.2523 17.375C15.4239 17.375 14.7523 16.7034 14.7523 15.875C14.7523 15.0466 15.4239 14.375 16.2523 14.375C17.0807 14.375 17.7523 15.0466 17.7523 15.875Z" fill="black"/>
<path d="M9.72449 8.0401C8.33924 6.91757 6.30304 6.96432 4.96931 8.22074C4.04614 9.09039 3.68088 10.3315 3.88869 11.4942L4.99559 10.4515L5.89954 11.4111L3.37673 13.7877L1 11.2647L1.95958 10.3607L2.51492 10.9502C2.48905 9.60607 3.0091 8.25618 4.06535 7.26116C5.93076 5.50388 8.80332 5.48097 10.6939 7.13305L9.72449 8.0401Z" fill="black"/>
<path d="M4.29297 14.7023C6.18338 16.2523 8.97609 16.1947 10.8029 14.4738C11.8591 13.4787 12.3792 12.1289 12.3533 10.7847L12.9087 11.3742L13.8683 10.4703L11.4915 7.94727L8.96871 10.3238L9.87267 11.2834L10.9796 10.2407C11.1874 11.4035 10.8221 12.6445 9.89894 13.5142C8.60335 14.7347 6.64488 14.8137 5.26415 13.7882L4.29297 14.7023Z" fill="black"/>
</svg>
