<svg width="24" height="24" viewBox="0 0 24 24" fill="none" xmlns="http://www.w3.org/2000/svg">
<path d="M13.9873 2.81765C13.6059 2.54562 13.1491 2.39941 12.6807 2.39941H5.96495C5.32086 2.39941 4.70765 2.67544 4.28061 3.1576L1.56566 6.22293C1.20121 6.63441 1 7.16507 1 7.71474V11.8033C1 12.0022 1.07903 12.193 1.2197 12.3337C1.36037 12.4743 1.55115 12.5533 1.75008 12.5533L3.76717 12.5532C4.08873 13.6447 5.09827 14.4414 6.2939 14.4414C7.4895 14.4414 8.49895 13.6447 8.82056 12.5533H15.6208C15.9424 13.6447 16.9519 14.4413 18.1474 14.4413C19.343 14.4413 20.3525 13.6447 20.6741 12.5533H22.2493C22.6635 12.5533 22.9993 12.2175 22.9993 11.8033V8.85355C22.9993 8.28845 22.8039 7.71735 22.4856 7.25939C22.168 6.80237 21.68 6.39303 21.0503 6.26708L21.0369 6.2644L18.0652 5.72643L13.9873 2.81765ZM10.5442 5.7168V3.89941H12.6807C12.8368 3.89941 12.9899 3.94815 13.117 4.03883L16.5216 6.4668H10.545L10.5442 5.7168ZM5.40343 4.15214C5.54578 3.99142 5.75025 3.89941 5.96495 3.89941H9.04411V6.4668L3.35352 6.4668L5.40343 4.15214ZM5.16016 11.8077C5.16016 11.1816 5.66791 10.6738 6.29413 10.6738C6.92018 10.6738 7.42764 11.1813 7.42764 11.8075C7.42764 12.4337 6.91998 12.9414 6.2939 12.9414C5.66775 12.9414 5.16016 12.4338 5.16016 11.8077ZM18.1474 10.6738C18.7736 10.6738 19.2812 11.1814 19.2812 11.8075C19.2812 12.4337 18.7736 12.9413 18.1474 12.9413C17.5213 12.9413 17.0137 12.4337 17.0137 11.8075C17.0137 11.1814 17.5212 10.6738 18.1474 10.6738Z" fill="black"/>
<path d="M10.2207 20.1123V15.1318H9.56836V13.6318H14.8809V15.1318H14.2285V20.1123H21V21.6123H2.5V20.1123H10.2207Z" fill="black"/>
</svg>
