<svg width="24" height="24" viewBox="0 0 24 24" fill="none" xmlns="http://www.w3.org/2000/svg">
<path d="M2.69922 2.7002H10.9992V10.1445C10.722 10.4091 10.4677 10.6966 10.2384 11.0002H2.69922V2.7002Z" fill="black"/>
<path d="M18.0839 8.49854C19.3023 8.49854 20.3919 8.9105 21.301 9.56301V2.7002H13.001V8.85621C13.595 8.62776 14.2393 8.49854 14.9251 8.49854H18.0839Z" fill="black"/>
<path d="M8.5 16.4985C8.5 15.264 8.72221 14.0711 9.13722 12.9971H2.69922V21.2971H9.76744C8.95081 19.9309 8.5 18.2569 8.5 16.4985Z" fill="black"/>
<path d="M17.6545 16.4989C17.6545 15.5096 17.3446 14.6447 16.8793 14.0569C17.2431 13.4896 17.675 13.2347 18.071 13.2347C18.4773 13.2347 18.9221 13.5028 19.291 14.1009C19.6549 14.691 19.8966 15.5375 19.8966 16.4985C19.8966 17.4595 19.6549 18.3061 19.291 18.8962C18.9221 19.494 18.4773 19.7624 18.071 19.7624C17.675 19.7624 17.2431 19.5075 16.8793 18.9405C17.1621 18.5841 17.3871 18.1255 17.5208 17.599C17.6069 17.2577 17.6545 16.8878 17.6545 16.4989Z" fill="black"/>
<path d="M18.0839 22.9985H14.9251C13.5071 22.9985 12.2652 22.2188 11.3949 21.0386C10.5232 19.8585 10 18.2518 10 16.4985C10 14.7453 10.5232 13.1386 11.3949 11.9584C12.2652 10.7783 13.5071 9.99854 14.9251 9.99854H18.0839C19.4916 9.99854 20.7348 10.7783 21.6051 11.9584C22.4755 13.1386 23 14.7453 23 16.4985C23 18.2518 22.4755 19.8585 21.6051 21.0386C20.7348 22.2188 19.4916 22.9985 18.0839 22.9985ZM18.0736 12.2474C17.1981 12.2474 16.4833 12.8204 16.014 13.5821C15.5384 14.3519 15.2607 15.3842 15.2607 16.4985C15.2607 17.6125 15.5384 18.6448 16.014 19.4146C16.4833 20.1766 17.1981 20.7497 18.0736 20.7497C18.9478 20.7497 19.6626 20.1766 20.1331 19.4146C20.6088 18.6448 20.8865 17.6125 20.8865 16.4985C20.8865 15.3842 20.6088 14.3519 20.1331 13.5821C19.6626 12.8204 18.9478 12.2474 18.0736 12.2474Z" fill="black"/>
</svg>
