<svg width="24" height="24" viewBox="0 0 24 24" fill="none" xmlns="http://www.w3.org/2000/svg">
<path d="M12.6807 1.9707C13.1491 1.9707 13.6059 2.11691 13.9873 2.38894L18.0652 5.29772L21.0369 5.83569L21.0503 5.83837C21.68 5.96432 22.168 6.37366 22.4856 6.83068C22.8039 7.28864 22.9993 7.85974 22.9993 8.42484V11.3746C22.9993 11.7888 22.6635 12.1246 22.2493 12.1246H20.6723C20.3494 13.214 19.3409 14.0087 18.1468 14.0087C16.9526 14.0087 15.9441 13.214 15.6213 12.1246H8.81899C8.49612 13.214 7.48765 14.0088 6.29348 14.0088C5.09928 14.0088 4.09072 13.214 3.7679 12.1245L1.75008 12.1246C1.55115 12.1246 1.36037 12.0456 1.2197 11.905C1.07903 11.7643 1 11.5735 1 11.3746V7.28603C1 6.73636 1.20121 6.2057 1.56566 5.79422L4.28061 2.72889C4.70765 2.24673 5.32086 1.9707 5.96495 1.9707H12.6807ZM5.15973 11.375C5.15973 12.0012 5.66733 12.5088 6.29348 12.5088C6.90615 12.5088 7.40543 12.0226 7.42653 11.415V11.3746C7.42653 10.7484 6.91886 10.2407 6.29278 10.2407C5.66664 10.2407 5.15973 10.7489 5.15973 11.375ZM17.013 11.3749C17.013 12.0011 17.5206 12.5087 18.1468 12.5087C18.7595 12.5087 19.2587 12.0226 19.2798 11.415V11.3746C19.2798 10.7485 18.7722 10.2409 18.1461 10.2409C17.5199 10.2409 17.013 10.7488 17.013 11.3749ZM12.739 3.47297C12.7197 3.47146 12.7002 3.4707 12.6807 3.4707H10.5449L10.545 6.03808H16.5201L13.1162 3.61011C13.005 3.53077 12.8745 3.48354 12.739 3.47297ZM3.35352 6.03809L9.04411 6.03809V3.4707H5.96495C5.90133 3.4707 5.83862 3.47878 5.77816 3.49433C5.63457 3.53126 5.50367 3.61034 5.4035 3.72343L3.35352 6.03809Z" fill="black"/>
<path d="M3.29228 17.167H1.87891V15.917H4.54228V20.7793H5.95566V22.0293H1.87891V20.7793H3.29228V17.167Z" fill="black"/>
<path d="M7.10156 16.542C7.10156 16.1968 7.38138 15.917 7.72656 15.917H11.1239C11.469 15.917 11.7489 16.1968 11.7489 16.542V22.0156H10.4989V19.5997H8.35156V22.0156H7.10156V16.542ZM8.35156 18.3497H10.4989V17.167H8.35156V18.3497Z" fill="black"/>
<path d="M12.8457 17.167H15.618V18.3481H12.9002V22.0293H16.9225V20.7793H14.1502V19.5981H16.868V15.917H12.8457V17.167Z" fill="black"/>
<path d="M18.1133 17.167H20.8856V18.3481H18.1133V19.5981H20.8856V20.7793H18.1133V22.0293H22.1356V15.917H18.1133V17.167Z" fill="black"/>
</svg>
