<svg width="24" height="24" viewBox="0 0 24 24" fill="none" xmlns="http://www.w3.org/2000/svg">
<path d="M18.6865 4.35107H15.1923L14.9352 6.24102C14.7455 6.33383 14.5633 6.43938 14.3896 6.5565L12.6241 5.83403L10.877 8.86012L12.3855 10.0279C12.3783 10.132 12.3747 10.237 12.3747 10.3427C12.3747 10.4486 12.3784 10.5538 12.3855 10.6581L10.8772 11.8257L12.6243 14.8518L14.39 14.1293C14.5635 14.2463 14.7456 14.3517 14.9352 14.4445L15.1923 16.3345H18.6865L18.9437 14.4438C19.133 14.3511 19.3148 14.2458 19.4882 14.1289L21.2549 14.8518L23.002 11.8258L21.4922 10.6569C21.4992 10.553 21.5028 10.4482 21.5028 10.3427C21.5028 10.2374 21.4993 10.1328 21.4922 10.0291L23.0023 8.86005L21.2552 5.83396L19.4886 6.55689C19.3151 6.43988 19.1331 6.33442 18.9436 6.24165L18.6865 4.35107ZM14.7051 10.3428C14.7051 9.10904 15.7052 8.10889 16.939 8.10889C18.1727 8.10889 19.1729 9.10904 19.1729 10.3428C19.1729 11.5765 18.1727 12.5767 16.939 12.5767C15.7052 12.5767 14.7051 11.5765 14.7051 10.3428Z" fill="black"/>
<path d="M9.77838 6.55746C10.0848 6.25102 10.4705 6.04211 10.8873 5.95068C9.99015 7.18426 9.46094 8.7027 9.46094 10.3447C9.46094 13.6017 11.543 16.3724 14.4487 17.3984H10.6535C10.3205 18.6924 9.14593 19.6484 7.74805 19.6484C6.35017 19.6484 5.17559 18.6924 4.84256 17.3984H1.74805C1.33383 17.3984 0.998047 17.0627 0.998047 16.6484V13.2881C0.998047 11.9772 1.92331 10.8485 3.20873 10.5915L6.37829 9.95754L9.77838 6.55746ZM6.24805 16.6484C6.24805 17.4769 6.91962 18.1484 7.74805 18.1484C8.57647 18.1484 9.24805 17.4769 9.24805 16.6484C9.24805 15.82 8.57647 15.1484 7.74805 15.1484C6.91962 15.1484 6.24805 15.82 6.24805 16.6484Z" fill="black"/>
</svg>
