<svg width="24" height="24" viewBox="0 0 24 24" fill="none" xmlns="http://www.w3.org/2000/svg">
<path d="M18.8017 2.98865C19.0882 3.01418 19.4302 3.13861 19.5654 3.19764L19.5673 3.19623L19.8577 3.32796C21.7081 4.16731 22.9976 6.0318 22.9976 8.19906C22.9976 10.3813 21.6906 12.2566 19.8182 13.0878V20.261C19.8182 20.6752 19.4825 21.011 19.0682 21.011H16.234C15.8198 21.011 15.484 20.6752 15.484 20.261V13.0878C13.6117 12.2566 12.3047 10.3813 12.3047 8.19906C12.3047 6.0318 13.5942 4.16731 15.4446 3.32796L15.7353 3.19609L15.7373 3.19764C15.8725 3.13861 16.2146 3.01418 16.501 2.98865L16.5044 2.98833V7.58892H18.7978V2.98828L18.8017 2.98865Z" fill="black"/>
<path d="M9.78033 7.91909C10.0797 7.61974 10.4547 7.41346 10.8604 7.31885C10.8237 7.60617 10.8047 7.89911 10.8047 8.19655C10.8047 10.6315 12.0753 12.7656 13.984 13.9785V18.7601H10.6555C10.3225 20.054 9.14788 21.0101 7.75 21.0101C6.35212 21.0101 5.17755 20.054 4.84451 18.7601H1.75C1.33579 18.7601 1 18.4243 1 18.0101V14.6497C1 13.3388 1.92527 12.2102 3.21068 11.9531L6.38024 11.3192L9.78033 7.91909ZM7.75 16.5101C6.92157 16.5101 6.25 17.1817 6.25 18.0101C6.25 18.8385 6.92157 19.5101 7.75 19.5101C8.57843 19.5101 9.25 18.8385 9.25 18.0101C9.25 17.1817 8.57843 16.5101 7.75 16.5101Z" fill="black"/>
</svg>
