<svg width="24" height="24" viewBox="0 0 24 24" fill="none" xmlns="http://www.w3.org/2000/svg">
<path d="M8.88106 1.87109C8.52044 1.87109 8.21088 2.12774 8.14405 2.4821L7.76032 4.51689C7.61517 5.28653 8.20546 5.99854 8.98867 5.99854H9.36328V7.25098H9.05042C7.96104 7.25098 7.02813 8.03141 6.83578 9.10369L6.08991 13.2614C6.08207 13.3051 6.07812 13.3495 6.07812 13.3939V14.6621C7.23388 14.6819 8.34783 15.3309 8.8936 16.4604L8.91565 16.506C9.00947 16.4845 9.1041 16.4641 9.19951 16.4448C9.11253 14.7279 9.11286 13.2365 9.49099 11.0767C9.64724 10.1826 10.4324 9.56055 11.3152 9.56055H12.6785C13.5613 9.56055 14.3465 10.1826 14.5027 11.0767C14.8808 13.2361 14.8812 14.7266 14.7942 16.4431C14.8924 16.463 14.9898 16.4839 15.0862 16.506L15.1083 16.4604C15.6538 15.3316 16.7668 14.6826 17.9219 14.6621V13.3939C17.9219 13.3495 17.9179 13.3051 17.9101 13.2614L17.1642 9.10369C16.9719 8.03141 16.039 7.25098 14.9496 7.25098H14.6445V5.99854H15.0172C15.8004 5.99854 16.3907 5.28653 16.2455 4.51689L15.8618 2.4821C15.795 2.12774 15.4854 1.87109 15.1248 1.87109H8.88106ZM13.1445 7.25098H10.8633V5.99854H13.1445V7.25098Z" fill="black"/>
<path d="M13.5508 16.256C13.6291 14.6376 13.6173 13.2741 13.2703 11.292C13.2234 11.02 12.9793 10.8105 12.6785 10.8105H11.3152C11.0144 10.8105 10.7703 11.02 10.7234 11.292C10.3764 13.2743 10.3647 14.6378 10.4429 16.2565C10.944 16.2049 11.4617 16.1795 11.993 16.179L11.9941 16.179L12.0089 16.179C12.5373 16.1795 13.0523 16.2051 13.5508 16.256Z" fill="black"/>
<path d="M16.2338 17.0042C16.5618 16.3254 17.2278 15.9324 17.9219 15.9127C18.2946 15.9021 18.6753 15.9994 19.0162 16.2177C19.4877 16.5196 19.8507 17.0421 19.8728 17.6754C19.9348 19.4472 19.2867 20.7708 18.8816 21.5983L18.8279 21.7081L18.6226 22.1296H5.37939L5.17403 21.7081L5.1204 21.5983C4.71523 20.7708 4.06719 19.4472 4.12914 17.6754C4.15127 17.0421 4.51424 16.5196 4.98572 16.2177C5.32603 15.9998 5.70607 15.9027 6.07812 15.9128C6.77289 15.9318 7.4398 16.3248 7.76811 17.0042L8.24637 17.9941C9.3182 17.6248 10.5845 17.4304 11.9942 17.4292L12.0078 17.4292C13.4174 17.4304 14.6838 17.6248 15.7556 17.9941L16.2338 17.0042Z" fill="black"/>
</svg>
