<svg width="24" height="24" viewBox="0 0 24 24" fill="none" xmlns="http://www.w3.org/2000/svg">
<path d="M12.3146 6.94309L11.8409 5.63574H6.88171L6.40806 6.94309H12.3146Z" fill="black"/>
<path d="M12.0868 9.25278C12.0868 9.61998 11.7891 9.91766 11.4219 9.91766C11.0547 9.91766 10.757 9.61998 10.757 9.25278C10.757 8.88557 11.0547 8.58789 11.4219 8.58789C11.7891 8.58789 12.0868 8.88557 12.0868 9.25278Z" fill="black"/>
<path d="M7.3016 9.91772C7.66881 9.91772 7.96649 9.62004 7.96649 9.25284C7.96649 8.88563 7.66881 8.58795 7.3016 8.58795C6.9344 8.58795 6.63672 8.88563 6.63672 9.25284C6.63672 9.62004 6.9344 9.91772 7.3016 9.91772Z" fill="black"/>
<path d="M16.7012 9.91766C17.0684 9.91766 17.3661 9.61998 17.3661 9.25278C17.3661 8.88557 17.0684 8.58789 16.7012 8.58789C16.334 8.58789 16.0363 8.88557 16.0363 9.25278C16.0363 9.61998 16.334 9.91766 16.7012 9.91766Z" fill="black"/>
<path d="M3.75 1.5C2.50736 1.5 1.5 2.50736 1.5 3.75V20.25C1.5 21.4926 2.50736 22.5 3.75 22.5H20.25C21.4926 22.5 22.5 21.4926 22.5 20.25V3.75C22.5 2.50736 21.4926 1.5 20.25 1.5H3.75ZM12.3416 11.5874H6.38101V11.869C6.38101 12.2694 6.05641 12.594 5.65601 12.594H5.46133C5.06085 12.594 4.73623 12.2693 4.73633 11.8688L4.7373 7.88498L5.73632 5.12753C5.89763 4.68229 6.32049 4.38574 6.79404 4.38574H11.9286C12.4021 4.38574 12.825 4.68229 12.9863 5.12753L13.9853 7.88498L13.9863 11.8688C13.9864 12.2693 13.6618 12.594 13.2613 12.594H13.0666C12.6662 12.594 12.3416 12.2694 12.3416 11.869V11.5874ZM15.2382 11.5874L15.2372 7.66537L14.9755 6.94309H17.5938L17.1202 5.63574H14.5019L14.1635 4.70174C14.1237 4.59196 14.0764 4.48646 14.0223 4.38574H17.2079C17.6814 4.38574 18.1043 4.68229 18.2656 5.12753L19.2646 7.88498L19.2656 11.8688C19.2657 12.2693 18.9411 12.594 18.5406 12.594H18.3459C17.9455 12.594 17.6209 12.2694 17.6209 11.869V11.5874H15.2382ZM6.40021 14.2954L7.78516 17.6725H7.84908L9.23402 14.2954H10.8667V19.75H9.58292V16.3995H9.53764L8.22727 19.7153H7.40696L6.09659 16.3808H6.05131V19.75H4.76758V14.2954H6.40021ZM13.3823 14.2954V19.75H12.064V14.2954H13.3823ZM19.2272 14.2954V19.75H18.1086L15.9379 16.6019H15.9033V19.75H14.585V14.2954H15.7195L17.8662 17.4382H17.9115V14.2954H19.2272Z" fill="black"/>
</svg>
