<svg width="24" height="24" viewBox="0 0 24 24" fill="none" xmlns="http://www.w3.org/2000/svg">
<path d="M19.0029 7.34717C20.7002 7.34717 22.0771 5.97119 22.0771 4.27368C22.0771 2.57617 20.7002 1.2002 19.0029 1.2002C17.3057 1.2002 15.9297 2.57617 15.9297 4.27368C15.9297 5.97119 17.3057 7.34717 19.0029 7.34717Z" fill="black"/>
<path d="M19.0029 9.34717C20.124 9.34717 21.1602 8.98364 22 8.36792V15.7798C22 17.0222 20.9922 18.0298 19.75 18.0298H5.79492L2 21.8242V4.42969C2 3.18701 3.00781 2.17969 4.25 2.17969H14.3809C14.0908 2.81812 13.9297 3.5271 13.9297 4.27368C13.9297 7.07568 16.2012 9.34717 19.0029 9.34717Z" fill="black"/>
</svg>
