<svg width="24" height="24" viewBox="0 0 24 24" fill="none" xmlns="http://www.w3.org/2000/svg">
<path d="M3.50293 22V7.4358H8.94205V4.98527L12.0221 2L15.0581 4.98527V11.6599H20.4972V22H3.50293ZM5.39494 20.108H7.72699V17.7759H5.39494V20.108ZM5.39494 15.8839H7.72699V13.5519H5.39494V15.8839ZM5.39494 11.6599H7.72699V9.32781H5.39494V11.6599ZM10.834 20.108H13.1661V17.7759H10.834V20.108ZM10.834 15.8839H13.1661V13.5519H10.834V15.8839ZM10.834 11.6599H13.1661V9.32781H10.834V11.6599ZM10.834 7.4358H13.1661V5.10374H10.834V7.4358ZM16.2732 20.108H18.6052V17.7759H16.2732V20.108ZM16.2732 15.8839H18.6052V13.5519H16.2732V15.8839Z" fill="black"/>
</svg>
