<svg width="24" height="24" viewBox="0 0 24 24" fill="none" xmlns="http://www.w3.org/2000/svg">
<path d="M14.8418 3.11865H18.75C19.9922 3.11865 21 4.13672 21 5.39258V18.7195C21 19.9756 19.9922 20.9937 18.75 20.9937H5.25C4.00781 20.9937 3 19.9756 3 18.7195V5.39258C3 4.13672 4.00781 3.11865 5.25 3.11865H9.16016C9.38281 1.71875 10.6221 0.72998 12.001 0.72998C13.3799 0.72998 14.6191 1.71875 14.8418 3.11865ZM12 2.20117C11.5498 2.20117 11.25 2.58057 11.25 2.95898C11.25 3.0769 11.2793 3.19507 11.333 3.30176C11.4521 3.53711 11.6904 3.7168 12 3.7168C12.4502 3.7168 12.751 3.33765 12.751 2.95898C12.751 2.58057 12.4502 2.20117 12 2.20117ZM17 7.16455H7V8.66455H17V7.16455ZM17 11.2705H7V12.7705H17V11.2705ZM14 16.8762V15.3762H7V16.8762H14Z" fill="black"/>
</svg>
