<svg width="24" height="24" viewBox="0 0 24 24" fill="none" xmlns="http://www.w3.org/2000/svg">
<path d="M14.8418 3.09326H18.75C19.9922 3.09326 21 4.10059 21 5.34326V18.7456C21 19.4434 20.6816 20.0669 20.1836 20.4795C19.9629 20.6616 19.707 20.8027 19.4277 20.8911L19.2246 20.9448L19.1582 20.9585C19.0254 20.9829 18.8887 20.9956 18.75 20.9956H5.25C4.63281 20.9956 4.07422 20.7471 3.66797 20.3438C3.25586 19.936 3 19.3706 3 18.7456V5.34326C3 4.10059 4.00781 3.09326 5.25 3.09326H9.16016C9.18164 2.96289 9.21094 2.83643 9.25 2.71387C9.30469 2.53857 9.375 2.37207 9.46094 2.21484C9.65625 1.85742 9.92969 1.55029 10.252 1.30957C10.7461 0.942383 11.3574 0.72998 12 0.72998C13.3809 0.72998 14.6191 1.70801 14.8418 3.09326ZM11.9961 2.18555C11.5449 2.18555 11.2461 2.56055 11.2461 2.93408C11.2461 3.15576 11.3516 3.37744 11.5312 3.52148C11.6543 3.62061 11.8125 3.68311 11.9961 3.68311C12.4453 3.68311 12.7441 3.30811 12.7441 2.93408C12.7441 2.56055 12.4453 2.18555 11.9961 2.18555ZM7.32227 6.56787C6.64648 6.56787 6.19727 7.13086 6.19727 7.69238C6.19727 7.93555 6.28125 8.17871 6.43164 8.37646C6.62891 8.63574 6.93945 8.81689 7.32227 8.81689C7.99805 8.81689 8.44727 8.25391 8.44727 7.69238L8.44141 7.58496L8.42969 7.49561L8.39062 7.34668L8.35547 7.25439L8.30859 7.15381L8.24023 7.04541C8.04492 6.7666 7.72266 6.56787 7.32227 6.56787ZM6.48438 11.2964C6.30078 11.5044 6.19727 11.7744 6.19727 12.0444C6.19727 12.3838 6.36133 12.7236 6.64062 12.9395C6.82227 13.0811 7.05469 13.1689 7.32227 13.1689C7.99805 13.1689 8.44727 12.606 8.44727 12.0444C8.44727 11.7598 8.33203 11.4751 8.13086 11.2632C7.93359 11.0571 7.65625 10.9199 7.32227 10.9199C6.9707 10.9199 6.68164 11.0718 6.48438 11.2964ZM6.2207 16.1689C6.20508 16.2441 6.19727 16.3203 6.19727 16.3965C6.19727 16.501 6.21289 16.6055 6.24219 16.7065C6.37305 17.1479 6.77148 17.521 7.32227 17.521C7.99805 17.521 8.44727 16.958 8.44727 16.3965C8.44727 16.0713 8.29688 15.7451 8.03711 15.5288C7.94727 15.4531 7.84375 15.3906 7.72852 15.3462C7.60547 15.2988 7.46875 15.272 7.32227 15.272C7.23047 15.272 7.14453 15.2822 7.0625 15.3018C6.97461 15.3218 6.89258 15.3521 6.81641 15.3901C6.53711 15.5312 6.33594 15.7847 6.24805 16.0684L6.2207 16.1689ZM9.94531 8.44238H17.8027V6.94238H9.94531V8.44238ZM17.8027 12.7944V11.2944H9.94531V12.7944H17.8027ZM9.94531 17.147H17.8027V15.647H9.94531V17.147Z" fill="black"/>
</svg>
