<svg width="24" height="24" viewBox="0 0 24 24" fill="none" xmlns="http://www.w3.org/2000/svg">
<path d="M14.8262 2.85107H9.1875V1.35107H14.8262V2.85107Z" fill="black"/>
<path d="M5.22266 7.93701L1.4668 4.18066L2.52734 3.12012L6.26953 6.87598L18.7129 19.3193L21.4375 22.0303L20.377 23.0908L17.6523 20.3657C16.1221 21.6401 14.1543 22.4067 12.0068 22.4067C7.13281 22.4067 3.18164 18.4556 3.18164 13.582C3.18164 11.4351 3.94824 9.46729 5.22266 7.93701Z" fill="black"/>
<path d="M19.8516 17.6294C20.4785 16.417 20.832 15.041 20.832 13.582C20.832 11.3917 20.0341 9.38765 18.713 7.84488L20.2257 6.33214L19.165 5.27148L17.6445 6.792C16.1155 5.52109 14.1504 4.75684 12.0068 4.75684C10.5479 4.75684 9.1709 5.11084 7.95898 5.73779L11.2568 9.03516V8.66602H12.7568V10.5352L19.8516 17.6294Z" fill="black"/>
</svg>
