<svg width="24" height="24" viewBox="0 0 24 24" fill="none" xmlns="http://www.w3.org/2000/svg">
<path d="M7.55533 6.49345L3.5841 2.52222L2.52344 3.58288L6.49399 7.55342L2.86752 7.55342L2.86752 9.05342H9.05533L9.05533 2.86561L7.55533 2.86561V6.49345Z" fill="black"/>
<path d="M17.505 16.4468H21.1315L21.1315 14.9468L14.9437 14.9468L14.9437 21.1346H16.4437L16.4437 17.5068L20.4149 21.478L21.4756 20.4173L17.505 16.4468Z" fill="black"/>
<path d="M17.505 7.55342H21.1315L21.1315 9.05342L14.9437 9.05342L14.9437 2.86561L16.4437 2.86561V6.49345L20.4149 2.52222L21.4756 3.58288L17.505 7.55342Z" fill="black"/>
<path d="M6.49398 16.4468L2.86752 16.4468L2.86752 14.9468L9.05533 14.9468L9.05533 21.1346H7.55533V17.5068L3.5841 21.478L2.52344 20.4173L6.49398 16.4468Z" fill="black"/>
</svg>
