<svg width="24" height="24" viewBox="0 0 24 24" fill="none" xmlns="http://www.w3.org/2000/svg">
<path d="M3.69141 2.6875C3.13912 2.6875 2.69141 3.13522 2.69141 3.6875V18.1006C2.69141 19.8745 4.12943 21.3125 5.90332 21.3125C7.67721 21.3125 9.11523 19.8745 9.11523 18.1006V3.6875C9.11523 3.13522 8.66752 2.6875 8.11523 2.6875H3.69141ZM6.93359 17.9312C6.93359 18.5002 6.47232 18.9614 5.90332 18.9614C5.33432 18.9614 4.87305 18.5002 4.87305 17.9312C4.87305 17.3621 5.33432 16.9009 5.90332 16.9009C6.47232 16.9009 6.93359 17.3621 6.93359 17.9312Z" fill="black"/>
<path d="M10.6171 17.9312L18.3684 10.18C18.7589 9.78943 18.7589 9.15626 18.3684 8.76574L15.2402 5.63762C14.8497 5.2471 14.2166 5.2471 13.826 5.63762L10.6171 8.84653V13.6624L10.6153 14.5268L10.6171 15.8099V17.9312Z" fill="black"/>
<path d="M9.35547 21.3125H20.3162C20.8685 21.3125 21.3162 20.8648 21.3162 20.3125V15.8887C21.3162 15.3364 20.8685 14.8887 20.3162 14.8887H15.7793L9.35547 21.3125Z" fill="black"/>
</svg>
