<svg width="24" height="24" viewBox="0 0 24 24" fill="none" xmlns="http://www.w3.org/2000/svg">
<path d="M12.1289 2.01611C6.47482 2.01611 1.86133 6.49875 1.86133 12.0649C1.86133 17.3976 6.09671 21.7364 11.4239 22.0903L11.4487 22.092H11.4736C12.2268 22.092 12.9115 21.9221 13.4169 21.491C13.9421 21.043 14.1572 20.4138 14.1572 19.7513C14.1572 19.4226 14.1075 19.1515 14.0184 18.9098C13.9399 18.6968 13.8361 18.5259 13.7683 18.4144L13.7529 18.3891C13.6818 18.2714 13.6455 18.2055 13.6182 18.1246C13.5923 18.0477 13.5651 17.9269 13.5651 17.7198C13.5651 17.5021 13.6107 17.3736 13.656 17.2957C13.7009 17.2185 13.7696 17.1493 13.881 17.0869C14.1298 16.9477 14.5314 16.8761 15.0543 16.8761C15.0892 16.8761 15.1324 16.8766 15.1832 16.8771C15.6095 16.8816 16.5682 16.8918 17.6011 16.685C18.7466 16.4557 20.1285 15.933 20.9962 14.6992C22.6209 12.3892 22.7254 8.48443 19.8934 5.29481C17.5757 2.68444 14.0825 2.01654 12.1289 2.01611ZM7.60547 11.4869C7.60547 12.2393 6.99554 12.8492 6.24316 12.8492C5.49078 12.8492 4.88086 12.2393 4.88086 11.4869C4.88086 10.7346 5.49078 10.1246 6.24316 10.1246C6.99554 10.1246 7.60547 10.7346 7.60547 11.4869ZM9.3125 8.76636C8.56012 8.76636 7.9502 8.15643 7.9502 7.40405C7.9502 6.65167 8.56012 6.04175 9.3125 6.04175C10.0649 6.04175 10.6748 6.65167 10.6748 7.40405C10.6748 8.15643 10.0649 8.76636 9.3125 8.76636ZM15.7578 7.40405C15.7578 8.15643 15.1479 8.76636 14.3955 8.76636C13.6431 8.76636 13.0332 8.15643 13.0332 7.40405C13.0332 6.65167 13.6431 6.04175 14.3955 6.04175C15.1479 6.04175 15.7578 6.65167 15.7578 7.40405ZM17.5059 12.8492C16.7535 12.8492 16.1436 12.2393 16.1436 11.4869C16.1436 10.7346 16.7535 10.1246 17.5059 10.1246C18.2582 10.1246 18.8682 10.7346 18.8682 11.4869C18.8682 12.2393 18.2582 12.8492 17.5059 12.8492Z" fill="black"/>
</svg>
