<svg width="24" height="24" viewBox="0 0 24 24" fill="none" xmlns="http://www.w3.org/2000/svg">
<path d="M3.76758 1.6499C2.52494 1.6499 1.51758 2.65726 1.51758 3.8999V20.0999C1.51758 21.3425 2.52494 22.3499 3.76758 22.3499H20.2344C21.477 22.3499 22.4844 21.3425 22.4844 20.0999V3.8999C22.4844 2.65726 21.477 1.6499 20.2344 1.6499H3.76758ZM3.01758 3.8999C3.01758 3.48569 3.35336 3.1499 3.76758 3.1499H11.25V20.8499H3.76758C3.35336 20.8499 3.01758 20.5141 3.01758 20.0999V3.8999ZM12.75 20.8499V3.1499H20.2344C20.6486 3.1499 20.9844 3.48569 20.9844 3.8999V20.0999C20.9844 20.5141 20.6486 20.8499 20.2344 20.8499H12.75Z" fill="black"/>
</svg>
