<svg width="24" height="24" viewBox="0 0 24 24" fill="none" xmlns="http://www.w3.org/2000/svg">
<path d="M8.93359 3C7.43359 3 6.2168 4.21582 6.2168 5.71582C6.2168 7.21582 7.43359 8.43164 8.93359 8.43164C10.4316 8.43164 11.6484 7.21582 11.6484 5.71582C11.6484 4.21582 10.4316 3 8.93359 3Z" fill="black"/>
<path d="M22.5 14.002H21.498V22.002H2.49805V14.002H1.5V12.502H22.5V14.002Z" fill="black"/>
<path d="M5.52539 9.67725C6.39453 9.30225 7.52539 9.06006 8.72656 9.03467L8.93164 9.03271C10.209 9.03271 11.4199 9.28125 12.3379 9.67725C12.793 9.87402 13.2109 10.1221 13.5254 10.4233C13.6719 10.5635 13.8145 10.7314 13.9219 10.9248C13.9785 11.0269 14.0254 11.1357 14.0586 11.252H3.80469C3.90234 10.9165 4.11328 10.6377 4.33789 10.4233C4.65234 10.1221 5.07031 9.87402 5.52539 9.67725Z" fill="black"/>
</svg>
