<svg width="24" height="24" viewBox="0 0 24 24" fill="none" xmlns="http://www.w3.org/2000/svg">
<path d="M8.55859 5.29703C8.55859 3.43681 10.1414 2 12.0035 2H12.1312L12.1396 2.00293C13.9445 2.0703 15.4426 3.48409 15.4426 5.29703C15.4426 6.47255 14.7194 7.52989 14.082 8.26461C13.5806 8.84252 12.9994 9.35898 12.6983 9.62645C12.6157 9.69985 12.5539 9.75481 12.521 9.78674L11.9982 10.2951L11.4754 9.78674C11.4423 9.7546 11.3809 9.69998 11.2986 9.62672C10.9979 9.35923 10.4178 8.84314 9.91636 8.26406C9.27997 7.52912 8.55859 6.47199 8.55859 5.29703ZM12.8772 5.32934C12.8772 4.86106 12.4841 4.48145 11.9991 4.48145C11.5142 4.48145 11.1211 4.86106 11.1211 5.32934C11.1211 5.79762 11.5142 6.17724 11.9991 6.17724C12.4841 6.17724 12.8772 5.79762 12.8772 5.32934Z" fill="black"/>
<path d="M20.2263 11.251V12.751H19.25V19.0187H4.75V12.751H3.77344V11.251H20.2263Z" fill="black"/>
<path d="M3.25 16.4463C3.07099 16.5664 2.90508 16.6922 2.75394 16.8238C2.18162 17.3224 1.75 17.9716 1.75 18.7517C1.75 19.5318 2.18162 20.1811 2.75394 20.6796C3.328 21.1797 4.11525 21.5959 5.02319 21.9304C6.84496 22.6016 9.31176 23.0017 12 23.0017C14.6882 23.0017 17.155 22.6016 18.9768 21.9304C19.8847 21.5959 20.672 21.1797 21.246 20.6796C21.8184 20.1811 22.25 19.5318 22.25 18.7517C22.25 17.9716 21.8184 17.3224 21.246 16.8238C21.0949 16.6922 20.929 16.5664 20.75 16.4463V18.7634C20.7459 18.9494 20.6419 19.2166 20.2608 19.5486C19.8734 19.886 19.2695 20.224 18.4582 20.5229C16.8417 21.1184 14.5585 21.5017 12 21.5017C9.44147 21.5017 7.15828 21.1184 5.54175 20.5229C4.73053 20.224 4.12655 19.886 3.73916 19.5486C3.35806 19.2166 3.25425 18.9494 3.25013 18.7634L3.25 18.7517V16.4463Z" fill="black"/>
</svg>
