<svg width="24" height="24" viewBox="0 0 24 24" fill="none" xmlns="http://www.w3.org/2000/svg">
<path d="M4.25 2C3.00736 2 2 3.00736 2 4.25V18.25C2 19.4926 3.00736 20.5 4.25 20.5H12.5552L12.5483 20.4899C11.512 18.974 10.8387 17.0549 10.6909 14.5269H5.50586V13.0269H10.6602V10.8516H5.50586V9.35156H13.3167V10.8406C14.5578 10.8168 15.4944 10.7505 16.4384 9.87692L16.8243 9.51975V4.25C16.8243 3.00736 15.817 2 14.5743 2H4.25ZM5.50586 7.17578V5.67578H13.3167V7.17578H5.50586Z" fill="black"/>
<path d="M17.9666 11.4494L17.4572 10.978L16.9478 11.4494C15.9319 12.3896 14.6231 12.6659 12.8963 12.6978L12.1602 12.7114V13.4477C12.1602 16.2761 12.8086 18.213 13.7866 19.6435C14.7493 21.0517 15.9929 21.9049 17.0217 22.6107L17.4571 22.9095L17.8926 22.6107C18.9213 21.9049 20.1649 21.0517 21.1276 19.6435C22.1056 18.2131 22.7541 16.2761 22.7541 13.4477V12.7114L22.018 12.6978C20.2912 12.6659 18.9825 12.3896 17.9666 11.4494ZM16.7066 14.5356H18.2066V15.9513H19.6223V17.4513H18.2066V18.8669H16.7066V17.4513H15.291V15.9513H16.7066V14.5356Z" fill="black"/>
</svg>
