<svg width="24" height="24" viewBox="0 0 24 24" fill="none" xmlns="http://www.w3.org/2000/svg">
<path d="M2 5.44043C2 4.19779 3.00736 3.19043 4.25 3.19043H19.75C20.9926 3.19043 22 4.19779 22 5.44043V7.94043H2V5.44043Z" fill="black"/>
<path d="M2 9.94043H22V12.4544C20.9765 11.6174 19.6685 11.1152 18.2432 11.1152C14.9634 11.1152 12.3047 13.774 12.3047 17.0537C12.3047 17.7505 12.4247 18.4192 12.6452 19.0404H4.25C3.00736 19.0404 2 18.0331 2 16.7904V9.94043ZM4.75 15.6904H8.72656V14.1904H4.75V15.6904Z" fill="black"/>
<path d="M18.9948 16.304L18.9947 13.2983L17.4947 13.2984L17.4948 16.304L14.4893 16.3041L14.4893 17.8041L17.4948 17.804L17.4949 20.8094L18.9949 20.8093L18.9948 17.804L22.0003 17.8039L22.0002 16.3039L18.9948 16.304Z" fill="black"/>
</svg>
