<svg width="24" height="24" viewBox="0 0 24 24" fill="none" xmlns="http://www.w3.org/2000/svg">
<path d="M18.3185 19.3792L21.4657 22.5264L22.5264 21.4657L2.53429 1.47363L1.47363 2.53429L2.91217 3.97283C2.36097 4.38292 2.00391 5.03935 2.00391 5.77917V8.27917H7.21851L9.21851 10.2792H2.00391V17.1292C2.00391 18.3718 3.01127 19.3792 4.25391 19.3792H18.3185ZM4.75391 16.0292V14.5292H8.73047V16.0292H4.75391Z" fill="black"/>
<path d="M22.0039 17.1292C22.0039 17.4276 21.9458 17.7125 21.8403 17.9731L14.1463 10.2792H22.0039V17.1292Z" fill="black"/>
<path d="M22.0039 8.27917H12.1463L7.3963 3.52917H19.7539C20.9965 3.52917 22.0039 4.53653 22.0039 5.77917V8.27917Z" fill="black"/>
</svg>
