<svg width="24" height="24" viewBox="0 0 24 24" fill="none" xmlns="http://www.w3.org/2000/svg">
<path d="M18.5216 11.6431C18.5216 12.1338 18.1086 12.5353 17.6037 12.5353C17.0989 12.5353 16.6859 12.1338 16.6859 11.6431V7.98521H3.83573V20.4756H16.6859V17.701C16.6859 17.2103 17.0989 16.8088 17.6037 16.8088C18.1086 16.8088 18.5216 17.2103 18.5216 17.701V20.4846C18.5216 21.466 17.7047 22.26 16.695 22.26H3.82655C2.8169 22.26 2 21.466 2 20.4846V5.29976C2 4.31837 2.8169 3.52434 3.82655 3.52434H7.67241C8.05792 2.48942 9.05839 1.73999 10.2608 1.73999C11.4632 1.73999 12.4729 2.48942 12.8492 3.52434H16.695C17.7047 3.52434 18.5216 4.31837 18.5216 5.29976V11.6431ZM5.67146 6.05811C5.67146 6.47743 6.02025 6.81646 6.45165 6.81646H14.0699C14.5013 6.81646 14.8501 6.47743 14.8501 6.05811C14.8501 5.63879 14.5013 5.29976 14.0699 5.29976H11.1787V4.40759C11.1787 3.91689 10.7656 3.51542 10.2608 3.51542C9.75597 3.51542 9.34293 3.91689 9.34293 4.40759V5.29976H6.45165C6.02025 5.29976 5.67146 5.63879 5.67146 6.05811ZM15.3188 10.3316L10.4449 14.7925L15.3188 19.2533V15.8988H22V13.4453H15.3188V10.3316ZM11.509 9.1629H6.18538C5.67846 9.1629 5.26751 9.56234 5.26751 10.0551C5.26751 10.5478 5.67846 10.9473 6.18538 10.9473H11.509C12.0159 10.9473 12.4269 10.5478 12.4269 10.0551C12.4269 9.56234 12.0159 9.1629 11.509 9.1629ZM6.18538 11.7948H8.22304C8.72997 11.7948 9.14091 12.1942 9.14091 12.687C9.14091 13.1797 8.72997 13.5791 8.22304 13.5791H6.18538C5.67846 13.5791 5.26751 13.1797 5.26751 12.687C5.26751 12.1942 5.67846 11.7948 6.18538 11.7948ZM9.77424 17.4691H6.18538C5.67846 17.4691 5.26751 17.8685 5.26751 18.3612C5.26751 18.854 5.67846 19.2534 6.18538 19.2534H9.77424C10.2812 19.2534 10.6921 18.854 10.6921 18.3612C10.6921 17.8685 10.2812 17.4691 9.77424 17.4691ZM6.18538 14.846H7.2501C7.75703 14.846 8.16797 15.2454 8.16797 15.7382C8.16797 16.2309 7.75703 16.6304 7.2501 16.6304H6.18538C5.67846 16.6304 5.26751 16.2309 5.26751 15.7382C5.26751 15.2454 5.67846 14.846 6.18538 14.846Z" fill="black"/>
</svg>
