<svg width="24" height="24" viewBox="0 0 24 24" fill="none" xmlns="http://www.w3.org/2000/svg">
<path d="M15.9863 4.39258V4.16992C15.9863 3.4436 15.6426 2.79785 15.1084 2.38647C14.7285 2.09399 14.2529 1.91992 13.7363 1.91992H10.2627C9.02051 1.91992 8.0127 2.92725 8.0127 4.16992V4.39258H3.75V5.89258H4.72754V19.0471C4.72754 20.2898 5.73535 21.2971 6.97754 21.2971H17.0322C18.2744 21.2971 19.2822 20.2898 19.2822 19.0471V5.89258H20.25V4.39258H15.9863ZM10.2627 3.41992H13.7363C14.1504 3.41992 14.4863 3.75562 14.4863 4.16992V4.39258H9.5127V4.16992C9.5127 3.91113 9.64355 3.68335 9.84277 3.54834C9.96289 3.46729 10.1074 3.41992 10.2627 3.41992ZM13.0654 12.5112L15.707 15.1519L14.6465 16.2126L12.0049 13.5718L9.36426 16.2126L8.30371 15.1521L10.9443 12.5112L8.30371 9.87061L9.36426 8.80981L12.0049 11.4507L14.6465 8.80957L15.707 9.87012L13.0654 12.5112Z" fill="black"/>
</svg>
