<svg width="24" height="24" viewBox="0 0 24 24" fill="none" xmlns="http://www.w3.org/2000/svg">
<path d="M2 12C2 6.47705 6.47754 2 12 2C17.5225 2 22 6.47705 22 12C22 17.5229 17.5225 22 12 22C6.47754 22 2 17.5229 2 12ZM12.7256 6.46143V4.82861H11.2256V6.44727C10.6328 6.56421 10.0508 6.83447 9.53223 7.29028L9.50684 7.31201L9.48438 7.33594C8.23535 8.64624 8.34668 10.7524 10.0635 11.7263C10.7559 12.1191 11.4385 12.3396 11.999 12.521L12.2061 12.5884C12.8311 12.7937 13.249 12.9629 13.5732 13.2583C13.9951 13.6426 14.1719 14.0803 14.1738 14.467C14.1758 14.8477 14.0088 15.2524 13.5996 15.592C13.4619 15.7065 13.2959 15.7974 13.1104 15.865C12.8926 15.9441 12.6475 15.9912 12.3867 16.0066H11.9951C11.3672 15.9712 10.8809 15.7791 10.7109 15.6445C10.4326 15.4241 10.2197 15.1816 10.0762 14.9929C9.9043 14.7656 9.77148 14.5144 9.63965 14.2627L9.52441 14.0471L8.20605 14.7627L8.30762 14.9517C8.48242 15.2781 8.65723 15.6035 8.88184 15.8997C9.0791 16.1606 9.37793 16.5027 9.78027 16.8208C10.1367 17.103 10.6611 17.3076 11.2256 17.418V19.1606H12.7256V17.4819C13.0674 17.4426 13.416 17.3623 13.75 17.2261C14.0352 17.1099 14.3086 16.9531 14.5576 16.7463C14.96 16.4128 15.2588 16.0142 15.4453 15.5793C15.5977 15.2249 15.6758 14.8464 15.6738 14.4595C15.6689 13.6038 15.2764 12.7812 14.584 12.1499C13.998 11.6157 13.2949 11.3672 12.6738 11.1633L12.459 11.0933C12.127 10.9854 11.8057 10.8811 11.4873 10.7507C11.2598 10.658 11.0332 10.5518 10.8037 10.4216C10.0459 9.9917 9.91504 9.08276 10.5479 8.39502C11.5391 7.54932 12.9971 7.81665 13.7559 8.69751L14.2451 9.26587L15.3818 8.28662L14.8916 7.71851C14.3525 7.09277 13.5752 6.63916 12.7256 6.46143Z" fill="black"/>
</svg>
