<svg width="24" height="24" viewBox="0 0 24 24" fill="none" xmlns="http://www.w3.org/2000/svg">
<path d="M2 12C2 6.47715 6.47715 2 12 2C17.5228 2 22 6.47715 22 12C22 17.5228 17.5228 22 12 22C6.47715 22 2 17.5228 2 12ZM8.39927 10.7532C9.15658 10.7532 9.7705 10.1393 9.7705 9.38197C9.7705 8.62466 9.15658 8.01074 8.39927 8.01074C7.64197 8.01074 7.02805 8.62466 7.02805 9.38197C7.02805 10.1393 7.64197 10.7532 8.39927 10.7532ZM16.956 9.38197C16.956 8.62466 16.3421 8.01074 15.5848 8.01074C14.8275 8.01074 14.2136 8.62466 14.2136 9.38197C14.2136 10.1393 14.8275 10.7532 15.5848 10.7532C16.3421 10.7532 16.956 10.1393 16.956 9.38197ZM6.72461 13.915C7.5074 16.0715 9.57445 17.6119 12.0013 17.6119C14.4281 17.6119 16.4952 16.0715 17.278 13.915H15.641C14.9522 15.2214 13.5807 16.1119 12.0013 16.1119C10.4218 16.1119 9.05037 15.2214 8.36161 13.915H6.72461Z" fill="black"/>
</svg>
