<svg width="24" height="24" viewBox="0 0 24 24" fill="none" xmlns="http://www.w3.org/2000/svg">
<path d="M2 4.25C2 3.00736 3.00736 2 4.25 2H19.75C20.9926 2 22 3.00736 22 4.25V12.0801H15.3394L14.6269 11.1473L11.7336 13.3671L12.0801 13.8206V22H4.25C3.00736 22 2 20.9926 2 19.75V4.25ZM12.1847 5.27734L8.13645 8.36991L8.2793 8.78773L8.28005 8.7905C8.28221 8.79864 8.28627 8.81519 8.29031 8.83829C8.29862 8.88579 8.30544 8.95282 8.29988 9.02728C8.28968 9.16416 8.24111 9.3266 8.04906 9.47332C7.79778 9.66527 7.56087 9.72132 7.39313 9.73411C7.3075 9.74064 7.23903 9.73581 7.19643 9.73048C7.1753 9.72783 7.16112 9.72513 7.15522 9.72392L6.86488 9.6433L5.71936 10.5186C5.22571 10.8958 5.13127 11.6018 5.50841 12.0955L6.80065 13.787C7.17783 14.2808 7.88385 14.3753 8.37758 13.9981L9.57768 13.0813L9.51425 12.7185C9.51369 12.7124 9.51267 12.6989 9.51254 12.6793C9.51226 12.6373 9.51607 12.5714 9.53469 12.4927C9.56988 12.3439 9.66121 12.1306 9.92504 11.929C10.1786 11.7353 10.3342 11.7521 10.4066 11.7698C10.4562 11.7818 10.5018 11.8041 10.5399 11.8303C10.5712 11.8517 10.5886 11.8694 10.5928 11.8738L10.9747 12.3737L11.9665 11.6129L11.9656 11.6116L12.5574 11.1595L13.868 10.154L13.4986 9.67039C13.4958 9.66181 13.4842 9.62503 13.4856 9.54453C13.4875 9.42794 13.5169 9.27317 13.5804 9.10493C13.7174 8.742 13.9397 8.49508 14.1025 8.42246C15.0663 7.99257 15.9651 7.61994 16.6233 7.3547C16.9522 7.22215 17.2205 7.1166 17.4063 7.04431C17.4992 7.00818 17.5714 6.98036 17.6202 6.96166L17.6755 6.94055L17.6935 6.9336L17.5248 5.72628L12.1847 5.27734Z" fill="black"/>
<path d="M16.9859 21.4366H19.3418V22.7505H22.7476V19.3447H21.4352V16.9859H22.7476V13.5801H19.3418V14.894H16.9859V13.5801H13.5801V16.9859H14.8926V19.3447H13.5801V22.7505H16.9859V21.4366ZM16.9859 20.1866V19.3447H16.1426V16.9859H16.9859V16.144H19.3418V16.9859H20.1852V19.3447H19.3418V20.1866H16.9859ZM21.7476 14.5801V15.9859H20.3418V14.5801H21.7476ZM14.5801 14.5801H15.9859V15.9859H14.5801V14.5801ZM21.7476 20.3447V21.7505H20.3418V20.3447H21.7476ZM14.5801 20.3447H15.9859V21.7505H14.5801V20.3447Z" fill="black"/>
</svg>
