<svg width="24" height="24" viewBox="0 0 24 24" fill="none" xmlns="http://www.w3.org/2000/svg">
<path d="M22 12C22 17.5228 17.5225 22 12 22C6.47754 22 2 17.5228 2 12C2 6.47717 6.47754 2 12 2C17.5225 2 22 6.47717 22 12ZM11.25 12.9657H12.75V6.99597H11.25V12.9657ZM11.125 16.0543C11.125 16.5371 11.5166 16.9293 12 16.9293C12.1162 16.9293 12.2275 16.9066 12.3291 16.8654C12.4785 16.8046 12.6074 16.7037 12.7021 16.5763C12.8105 16.4305 12.875 16.2499 12.875 16.0543C12.875 15.5715 12.4834 15.1793 12 15.1793C11.5166 15.1793 11.125 15.5715 11.125 16.0543Z" fill="black"/>
</svg>
