<svg width="24" height="24" viewBox="0 0 24 24" fill="none" xmlns="http://www.w3.org/2000/svg">
<path d="M1.47852 3.60071L4.54583 6.66798C3.79093 7.27918 3.1094 8.03439 2.55244 8.76846C1.88025 9.6544 1.35273 10.5584 1.08427 11.2196L0.969727 11.5018L1.08427 11.7839C1.35273 12.4451 1.88024 13.3491 2.55243 14.2351C3.22591 15.1228 4.08155 16.0415 5.0288 16.6989C7.02908 18.0873 9.30016 18.94 11.9949 18.94C13.4812 18.94 14.8387 18.6806 16.093 18.215L20.4053 22.5272L21.4659 21.4665L17.5566 17.5572L17.5586 17.5562L16.442 16.4396L16.4399 16.4406L6.89965 6.90046L6.90165 6.89934L5.80454 5.80225L5.80259 5.80342L2.53917 2.54004L1.47852 3.60071ZM7.28809 11.502C7.28809 10.8825 7.40929 10.2917 7.62925 9.75136L8.83523 10.9573C8.80423 11.1344 8.78809 11.3164 8.78809 11.502C8.78809 13.2485 10.2179 14.6753 11.9951 14.6753C12.1713 14.6753 12.344 14.6613 12.5123 14.6343L13.7267 15.8488C13.1904 16.0596 12.6061 16.1754 11.9951 16.1754C9.40157 16.1754 7.28809 14.0891 7.28809 11.502Z" fill="black"/>
<path d="M19.2894 16.4583C20.106 15.8273 20.8429 15.0191 21.4377 14.2351C22.1099 13.3491 22.6374 12.4451 22.9059 11.7839L23.0204 11.5017L22.9059 11.2196C22.6374 10.5583 22.1099 9.65438 21.4377 8.76844C20.7642 7.88079 19.9086 6.96222 18.9614 6.30475C16.9611 4.91637 14.6898 4.06372 11.9951 4.06372C10.4291 4.06372 9.00614 4.35168 7.69629 4.86538L10.0688 7.23788C10.6575 6.97527 11.3095 6.82861 11.9955 6.82861C14.5891 6.82861 16.7026 8.91491 16.7026 11.502C16.7026 12.1963 16.5503 12.8546 16.2774 13.4462L16.2765 13.4455L19.2894 16.4583Z" fill="black"/>
<path d="M11.2501 8.41464L11.2481 8.4171L15.1054 12.2744L15.1256 12.1955C15.176 11.9721 15.2026 11.74 15.2026 11.502C15.2026 9.75541 13.7728 8.32861 11.9955 8.32861C11.7387 8.32861 11.4892 8.3584 11.2501 8.41464Z" fill="black"/>
</svg>
