<svg width="24" height="24" viewBox="0 0 24 24" fill="none" xmlns="http://www.w3.org/2000/svg">
<path d="M9.0166 11.5019C9.0166 9.8805 10.3441 8.55518 11.9951 8.55518C13.6461 8.55518 14.9736 9.8805 14.9736 11.5019C14.9736 13.1233 13.6461 14.4486 11.9951 14.4486C10.3441 14.4486 9.0166 13.1233 9.0166 11.5019Z" fill="black"/>
<path d="M5.03247 6.35484C7.03271 4.98233 9.30265 4.14014 11.9953 4.14014C14.6879 4.14014 16.958 4.98232 18.9582 6.35484C19.9056 7.00487 20.7615 7.91324 21.4354 8.79127C22.1078 9.66741 22.6359 10.5619 22.9049 11.2169L23.022 11.5019L22.9049 11.7868C22.7938 12.0573 22.6386 12.3687 22.4472 12.7027L21.9235 12.179C21.0448 11.3004 19.6202 11.3003 18.7415 12.179L12.0567 18.8636L11.9953 18.8638C9.30265 18.8638 7.03271 18.0216 5.03247 16.6491C4.08512 15.999 3.22917 15.0906 2.5553 14.2125C1.88287 13.3363 1.35477 12.4418 1.08576 11.7868L0.96875 11.5019L1.08576 11.2169C1.35478 10.5619 1.88289 9.66741 2.55531 8.79127C3.22919 7.91324 4.08513 7.00487 5.03247 6.35484ZM11.9951 7.05518C9.52775 7.05518 7.5166 9.04 7.5166 11.5019C7.5166 13.9638 9.52775 15.9486 11.9951 15.9486C14.4624 15.9486 16.4736 13.9638 16.4736 11.5019C16.4736 9.04 14.4624 7.05518 11.9951 7.05518Z" fill="black"/>
<path d="M19.8022 13.2397C20.0951 12.9468 20.5699 12.9468 20.8628 13.2397L22.7745 15.1513C22.9151 15.292 22.9941 15.4828 22.9941 15.6817C22.9941 15.8806 22.9151 16.0714 22.7745 16.212L21.5403 17.4462L18.5694 14.4724L19.8022 13.2397Z" fill="black"/>
<path d="M17.5087 15.5332L20.4794 18.507L16.9839 22.0025H13.959V19.0828L17.5087 15.5332Z" fill="black"/>
</svg>
