<svg width="24" height="24" viewBox="0 0 24 24" fill="none" xmlns="http://www.w3.org/2000/svg">
<path d="M16.6113 1.77734H7.12411L4.92394 4.178L2.55859 6.65493V19.4717C2.55859 20.9905 3.78981 22.2217 5.3086 22.2217H12.7229C11.6673 21.3561 10.8788 20.1768 10.5 18.8261H9.32812L9.18359 18.5877L8.67969 17.7587L8.14062 18.5877L7.98437 18.8261L6.0879 18.8261V17.8261L7.44922 17.8261L8.27734 16.5911L8.70703 15.9306L9.11719 16.5911L9.87538 17.8261H10.3001C10.267 17.5552 10.25 17.2793 10.25 16.9995C10.25 15.7339 10.5983 14.5497 11.2043 13.5374H6.4961V12.2874H12.1669C13.3929 11.0302 15.1053 10.2495 17 10.2495C17.8307 10.2495 18.6263 10.3996 19.3613 10.6741L19.3613 4.52735C19.3613 3.00856 18.1301 1.77734 16.6113 1.77734ZM6.70408 6.20552H5.06186L6.01938 5.20283L6.70408 4.45573V6.20552ZM6.4961 10.3093V9.05929H15.4667V10.3093H6.4961Z" fill="black"/>
<path d="M11.75 16.9995C11.75 14.1 14.1005 11.7495 17 11.7495C19.8995 11.7495 22.25 14.1 22.25 16.9995C22.25 19.899 19.8995 22.2495 17 22.2495C14.1005 22.2495 11.75 19.899 11.75 16.9995ZM20.1179 15.8121L19.0572 14.7515L16.3318 17.4771L14.9591 16.1045L13.8984 17.1652L16.3318 19.5984L20.1179 15.8121Z" fill="black"/>
</svg>
