<svg width="24" height="24" viewBox="0 0 24 24" fill="none" xmlns="http://www.w3.org/2000/svg">
<path d="M4 4.24512C4 3.00248 5.00736 1.99512 6.25 1.99512H13.9104L20 8.0935V11.6359C19.1701 11.2287 18.2368 11 17.25 11C13.7982 11 11 13.7982 11 17.25C11 19.1483 11.8463 20.8489 13.1821 21.9951H6.25C5.00736 21.9951 4 20.9878 4 19.7451V4.24512ZM13.6113 3.81843V8.38013H18.1664L13.6113 3.81843Z" fill="black"/>
<path d="M12.5 17.25C12.5 14.6266 14.6266 12.5 17.25 12.5C19.8734 12.5 22 14.6266 22 17.25C22 19.8734 19.8734 22 17.25 22C14.6266 22 12.5 19.8734 12.5 17.25ZM16.5156 15.1777V17.5665L18.3857 19.4366L19.4464 18.3759L18.0156 16.9452V15.1777H16.5156Z" fill="black"/>
</svg>
