<svg width="24" height="24" viewBox="0 0 24 24" fill="none" xmlns="http://www.w3.org/2000/svg">
<path d="M6.25 2C5.00736 2 4 3.00736 4 4.25V19.75C4 20.9926 5.00736 22 6.25 22H17.75C18.9926 22 20 20.9926 20 19.75V8.09838L13.9104 2H6.25ZM18.1664 8.38501H13.6113V3.82332L18.1664 8.38501ZM6.6543 11.708C6.6543 11.3604 6.93555 11.0781 7.28516 11.0781H10.166V13.0425H6.6543V11.708ZM11.416 11.0781H16.7773C16.8555 11.0781 16.9297 11.0923 17 11.1182C17.0605 11.1411 17.1152 11.1724 17.166 11.2114C17.2832 11.3037 17.3672 11.437 17.3965 11.5894C17.4043 11.6279 17.4082 11.6675 17.4082 11.708V13.0425H11.416V11.0781ZM6.6543 14.292H10.166V16.2563H6.6543V14.292ZM11.416 14.292H17.4082V16.2563H11.416V14.292ZM6.6543 17.5063H10.166V19.4707H7.28516C6.93555 19.4707 6.6543 19.1885 6.6543 18.8408V17.5063ZM11.416 17.5063H17.4082V18.8408C17.4082 19.1885 17.127 19.4707 16.7773 19.4707H11.416V17.5063Z" fill="black"/>
</svg>
