<svg width="24" height="24" viewBox="0 0 24 24" fill="none" xmlns="http://www.w3.org/2000/svg">
<path d="M4 4.24512C4 3.00248 5.00736 1.99512 6.25 1.99512H13.9104L20 8.0935V11.6736C19.0907 11.2417 18.0736 11 17 11C13.134 11 10 14.134 10 18C10 19.4851 10.4625 20.8622 11.2513 21.9951H6.25C5.00736 21.9951 4 20.9878 4 19.7451V4.24512ZM13.6113 3.81843V8.38013H18.1664L13.6113 3.81843Z" fill="black"/>
<path d="M18.2973 13H15.7023L15.4871 14.5748C15.2341 14.6855 14.9959 14.8232 14.7759 14.984L13.2975 14.3819L12 16.6183L13.263 17.5914C13.2483 17.7257 13.2408 17.862 13.2408 18C13.2408 18.1381 13.2483 18.2745 13.263 18.409L12.0002 19.3818L13.2977 21.6183L14.7763 21.0162C14.9961 21.1769 15.2342 21.3144 15.4871 21.4251L15.7023 23H18.2973L18.5126 21.4246C18.7652 21.3139 19.0031 21.1764 19.2227 21.0158L20.7023 21.6183L21.9998 19.3819L20.7356 18.408C20.7502 18.2739 20.7577 18.1377 20.7577 18C20.7577 17.8623 20.7502 17.7263 20.7356 17.5924L22 16.6183L20.7025 14.3818L19.2231 14.9843C19.0033 14.8236 18.7653 14.686 18.5126 14.5753L18.2973 13ZM16.9994 16.3157C17.9343 16.3157 18.6921 17.0698 18.6921 18.0002C18.6921 18.9303 17.9343 19.6844 16.9994 19.6844C16.0645 19.6844 15.3068 18.9303 15.3068 18.0002C15.3068 17.0698 16.0645 16.3157 16.9994 16.3157Z" fill="black"/>
</svg>
