<svg width="24" height="24" viewBox="0 0 24 24" fill="none" xmlns="http://www.w3.org/2000/svg">
<path d="M11.25 1V23H12.75V1H11.25Z" fill="black"/>
<path d="M5.25 4.5C4.83579 4.5 4.5 4.83579 4.5 5.25V18.75C4.5 19.1642 4.83579 19.5 5.25 19.5H9.23828V21H5.25C4.00736 21 3 19.9926 3 18.75V5.25C3 4.00736 4.00736 3 5.25 3H9.23828V4.5H5.25Z" fill="black"/>
<path d="M16.3125 4.5H14.4375V3H16.3125V4.5Z" fill="black"/>
<path d="M18.75 4.5H17.8125V3H18.75C19.9926 3 21 4.00736 21 5.25V6.5H19.5V5.25C19.5 4.83579 19.1642 4.5 18.75 4.5Z" fill="black"/>
<path d="M19.5 11V8.5H21V11H19.5Z" fill="black"/>
<path d="M19.5 15.5V13H21V15.5H19.5Z" fill="black"/>
<path d="M19.5 18.75V17.5H21V18.75C21 19.9926 19.9926 21 18.75 21H17.8125V19.5H18.75C19.1642 19.5 19.5 19.1642 19.5 18.75Z" fill="black"/>
<path d="M14.4375 19.5H16.3125V21H14.4375V19.5Z" fill="black"/>
</svg>
