<svg width="24" height="24" viewBox="0 0 24 24" fill="none" xmlns="http://www.w3.org/2000/svg">
<path d="M5.44922 2.7002C4.34465 2.7002 3.44922 3.59563 3.44922 4.7002V21.3003H13.8906V13.6104H14.6787C15.0945 13.6104 15.4309 13.9487 15.4287 14.3644L15.4057 18.6735C15.3981 20.0996 16.5521 21.2598 17.9783 21.2598C19.3991 21.2598 20.5509 20.108 20.5509 18.6872V8.76514H20.5473C20.5184 8.02714 20.1824 7.36801 19.6636 6.91191L15.9708 3.21913L14.9102 4.27979L17.0516 6.42125C16.0529 6.78571 15.3398 7.74403 15.3398 8.8689C15.3398 10.3075 16.506 11.4736 17.9446 11.4736C18.3401 11.4736 18.7151 11.3855 19.0509 11.2277V18.6872C19.0509 19.2796 18.5706 19.7598 17.9783 19.7598C17.3836 19.7598 16.9025 19.2761 16.9057 18.6815L16.9287 14.3724C16.9353 13.1251 15.926 12.1104 14.6787 12.1104H13.8906V4.7002C13.8906 3.59563 12.9952 2.7002 11.8906 2.7002H5.44922ZM11.8906 4.2002C12.1668 4.2002 12.3906 4.42405 12.3906 4.7002V10.2095H4.94922V4.7002C4.94922 4.42405 5.17308 4.2002 5.44922 4.2002H11.8906ZM19.0493 8.8689C19.0493 9.47903 18.5547 9.97363 17.9446 9.97363C17.3345 9.97363 16.8398 9.47903 16.8398 8.8689C16.8398 8.25877 17.3345 7.76416 17.9446 7.76416C18.2102 7.76416 18.4539 7.85791 18.6445 8.01413L18.7419 8.11157L18.7455 8.108C18.9338 8.30612 19.0493 8.57402 19.0493 8.8689Z" fill="black"/>
</svg>
