<svg width="24" height="24" viewBox="0 0 24 24" fill="none" xmlns="http://www.w3.org/2000/svg">
<path d="M3.44922 4.7002C3.44922 3.59563 4.34465 2.7002 5.44922 2.7002H11.8906C12.9952 2.7002 13.8906 3.59563 13.8906 4.7002V12.1104H14.6787C15.926 12.1104 16.9353 13.1251 16.9287 14.3724L16.9057 18.6815C16.9025 19.2761 17.3836 19.7598 17.9783 19.7598C18.5706 19.7598 19.0509 19.2796 19.0509 18.6872V11.2277C18.7151 11.3855 18.3401 11.4736 17.9446 11.4736C16.506 11.4736 15.3398 10.3075 15.3398 8.8689C15.3398 7.74403 16.0529 6.78571 17.0516 6.42125L14.9102 4.27979L15.9708 3.21913L19.6636 6.91191C20.1824 7.36801 20.5184 8.02714 20.5473 8.76514H20.5509V18.6872C20.5509 20.108 19.3991 21.2598 17.9783 21.2598C16.5521 21.2598 15.3981 20.0996 15.4057 18.6735L15.4287 14.3644C15.4309 13.9487 15.0945 13.6104 14.6787 13.6104H13.8906V21.3003H3.44922V4.7002ZM12.3906 4.7002C12.3906 4.42405 12.1668 4.2002 11.8906 4.2002H5.44922C5.17308 4.2002 4.94922 4.42405 4.94922 4.7002V10.2095H12.3906V4.7002ZM17.9446 9.97363C18.5547 9.97363 19.0493 9.47903 19.0493 8.8689C19.0493 8.57402 18.9338 8.30612 18.7455 8.108L18.7419 8.11157L18.6445 8.01413C18.4539 7.85791 18.2102 7.76416 17.9446 7.76416C17.3345 7.76416 16.8398 8.25877 16.8398 8.8689C16.8398 9.47903 17.3345 9.97363 17.9446 9.97363ZM6.0918 12.9888V14.4888H7.95898V18.4067H9.45898V14.4888H11.3242V12.9888H6.0918Z" fill="black"/>
</svg>
