<svg width="24" height="24" viewBox="0 0 24 24" fill="none" xmlns="http://www.w3.org/2000/svg">
<path d="M11.2476 20.5601C15.2161 20.5601 18.5539 17.8595 19.5234 14.1958H21.0673C20.0654 18.6958 16.0494 22.0601 11.2476 22.0601C5.69154 22.0601 1.1875 17.556 1.1875 12C1.1875 6.44398 5.69154 1.93994 11.2476 1.93994C16.5321 1.93994 20.865 6.01466 21.2758 11.1937H22.8145V12.6937H21.2841L21.2839 12.6958H19.7797L19.7799 12.6937H9.47889L12.3108 15.5256L11.2501 16.5862L6.66406 12.0001L11.2501 7.41406L12.3108 8.47472L9.59188 11.1937H19.7701C19.3638 6.8442 15.7032 3.43994 11.2476 3.43994C6.51997 3.43994 2.6875 7.27241 2.6875 12C2.6875 16.7276 6.51997 20.5601 11.2476 20.5601Z" fill="black"/>
</svg>
