<svg width="24" height="24" viewBox="0 0 24 24" fill="none" xmlns="http://www.w3.org/2000/svg">
<path d="M19.002 21.1226L21.0977 23.2178L22.1582 22.1572L1.9707 1.97021L0.910156 3.03076L2.87988 5.00098C2.87793 5.04248 2.87695 5.08398 2.87695 5.12598V7.95947H5.83887L7.33887 9.45947H2.87695V14.543H7.95996V10.0806L9.45996 11.5806V14.543H12.4229L13.9229 16.043H9.45996V21.126H14.543V16.6631L16.043 18.1631V21.126H18.877C18.9189 21.126 18.96 21.125 19.002 21.1226Z" fill="black"/>
<path d="M21.127 16.043V18.7217L18.4482 16.043H21.127Z" fill="black"/>
<path d="M16.043 13.6377L16.9482 14.543H21.127V9.45947H16.043V13.6377Z" fill="black"/>
<path d="M11.8652 9.45947L14.543 12.1377V9.45947H11.8652Z" fill="black"/>
<path d="M9.45996 7.05469L10.3652 7.95947H14.543V2.87598H9.45996V7.05469Z" fill="black"/>
<path d="M5.28125 2.87598L7.95996 5.55469V2.87598H5.28125Z" fill="black"/>
<path d="M16.043 7.95947V2.87598H18.877C20.1191 2.87598 21.127 3.8833 21.127 5.12598V7.95947H16.043Z" fill="black"/>
<path d="M7.95996 16.043H2.87695V18.876C2.87695 20.1187 3.88477 21.126 5.12695 21.126H7.95996V16.043Z" fill="black"/>
</svg>
