<svg width="24" height="24" viewBox="0 0 24 24" fill="none" xmlns="http://www.w3.org/2000/svg">
<path d="M9 8.96253C9 7.30628 10.3427 5.96362 11.9989 5.96362C13.6551 5.96362 14.9978 7.30628 14.9978 8.96253C14.9978 10.6188 13.6551 11.9614 11.9989 11.9614C10.3427 11.9614 9 10.6188 9 8.96253Z" fill="black"/>
<path d="M6.09961 15.5719V18.0364H17.8996V15.5719C17.8996 15.0832 17.6345 14.668 17.2995 14.3481C16.9603 14.024 16.4981 13.7455 15.9709 13.5179C14.9135 13.0616 13.4989 12.7692 11.9996 12.7692C10.5003 12.7692 9.0857 13.0616 8.02833 13.5179C7.5011 13.7455 7.03892 14.024 6.69969 14.3481C6.36475 14.668 6.09961 15.0832 6.09961 15.5719Z" fill="black"/>
<path d="M20.5986 10.8998C20.5986 9.79521 19.7032 8.89978 18.5986 8.89978C17.4941 8.89978 16.5986 9.79521 16.5986 10.8998C16.5986 12.0043 17.4941 12.8998 18.5986 12.8998C19.7032 12.8998 20.5986 12.0043 20.5986 10.8998Z" fill="black"/>
<path d="M19.2529 18.0364V15.5718C19.2529 14.8054 18.9526 14.1847 18.6007 13.7225C19.6131 13.7654 20.5563 13.9932 21.28 14.3294C21.6818 14.5161 22.0341 14.7446 22.2926 15.0105C22.5479 15.273 22.75 15.6136 22.75 16.0145V18.0364H19.2529Z" fill="black"/>
<path d="M5.40137 8.89978C4.2968 8.89978 3.40137 9.79521 3.40137 10.8998C3.40137 12.0043 4.2968 12.8998 5.40137 12.8998C6.50594 12.8998 7.40137 12.0043 7.40137 10.8998C7.40137 9.79521 6.50594 8.89978 5.40137 8.89978Z" fill="black"/>
<path d="M4.74707 15.5718V18.0364H1.25V16.0145C1.25 15.6136 1.45209 15.273 1.70737 15.0105C1.96592 14.7446 2.31818 14.5161 2.72002 14.3294C3.44371 13.9932 4.38694 13.7654 5.39934 13.7225C5.04735 14.1847 4.74707 14.8054 4.74707 15.5718Z" fill="black"/>
</svg>
