<svg width="24" height="24" viewBox="0 0 24 24" fill="none" xmlns="http://www.w3.org/2000/svg">
<path d="M11.9504 20.8C11.6837 20.8 11.4547 20.7123 11.2634 20.537C11.0714 20.3623 10.9754 20.1333 10.9754 19.85C10.9754 19.7333 11.0044 19.6043 11.0624 19.463C11.1211 19.321 11.2004 19.1916 11.3004 19.075L15.4504 14.925L14.8254 14.3L10.6754 18.45C10.5754 18.55 10.4587 18.629 10.3254 18.687C10.1921 18.7456 10.0587 18.775 9.92539 18.775C9.65872 18.775 9.42972 18.6793 9.23839 18.488C9.04639 18.296 8.95039 18.0666 8.95039 17.8C8.95039 17.65 8.97972 17.5083 9.03839 17.375C9.09639 17.2416 9.17539 17.1333 9.27539 17.05L13.4254 12.9L12.8004 12.275L8.65039 16.4C8.55039 16.5 8.43372 16.5793 8.30039 16.638C8.16706 16.696 8.02539 16.725 7.87539 16.725C7.60872 16.725 7.37972 16.629 7.18839 16.437C6.99639 16.2456 6.90039 16.025 6.90039 15.775C6.90039 15.625 6.92972 15.4873 6.98839 15.362C7.04639 15.2373 7.12539 15.1166 7.22539 15L11.2754 10.975L10.6254 10.35L6.60039 14.375C6.51706 14.475 6.40872 14.554 6.27539 14.612C6.14206 14.6706 5.99206 14.7 5.82539 14.7C5.55872 14.7 5.33372 14.6083 5.15039 14.425C4.96706 14.2416 4.87539 14.0083 4.87539 13.725C4.87539 13.5916 4.90039 13.4583 4.95039 13.325C5.00039 13.1916 5.08372 13.075 5.20039 12.975L10.4504 7.72495L13.4004 10.675C13.5837 10.8583 13.7964 10.9956 14.0384 11.087C14.2797 11.179 14.5171 11.225 14.7504 11.225C15.2671 11.225 15.7044 11.054 16.0624 10.712C16.4211 10.3706 16.6004 9.92495 16.6004 9.37495C16.6004 9.14162 16.5587 8.90395 16.4754 8.66195C16.3921 8.42062 16.2504 8.19995 16.0504 7.99995L12.4754 4.44995L12.9754 3.94995C13.2254 3.69995 13.5171 3.51262 13.8504 3.38795C14.1837 3.26262 14.5087 3.19995 14.8254 3.19995C15.2087 3.19995 15.5714 3.26262 15.9134 3.38795C16.2547 3.51262 16.5587 3.70828 16.8254 3.97495L21.0754 8.24995C21.3254 8.49995 21.5171 8.79162 21.6504 9.12495C21.7837 9.45828 21.8504 9.84162 21.8504 10.275C21.8504 10.6083 21.7837 10.9333 21.6504 11.25C21.5171 11.5666 21.3254 11.85 21.0754 12.1L12.7004 20.475C12.5837 20.6083 12.4631 20.696 12.3384 20.738C12.2131 20.7793 12.0837 20.8 11.9504 20.8ZM3.85039 13.025L3.02539 12.2C2.74206 11.9166 2.52539 11.5873 2.37539 11.212C2.22539 10.8373 2.15039 10.4583 2.15039 10.075C2.15039 9.65828 2.22539 9.27495 2.37539 8.92495C2.52539 8.57495 2.70872 8.29162 2.92539 8.07495L7.02539 3.97495C7.25872 3.74162 7.53372 3.55395 7.85039 3.41195C8.16706 3.27062 8.49206 3.19995 8.82539 3.19995C9.20872 3.19995 9.55872 3.25828 9.87539 3.37495C10.1921 3.49162 10.4921 3.69162 10.7754 3.97495L15.4254 8.62495C15.5254 8.72495 15.6004 8.84162 15.6504 8.97495C15.7004 9.10828 15.7254 9.24162 15.7254 9.37495C15.7254 9.64162 15.6337 9.87062 15.4504 10.062C15.2671 10.254 15.0421 10.35 14.7754 10.35C14.6254 10.35 14.4921 10.325 14.3754 10.275C14.2587 10.225 14.1421 10.1416 14.0254 10.025L10.4254 6.47495L3.85039 13.025Z" fill="black"/>
</svg>
