<svg width="24" height="24" viewBox="0 0 24 24" fill="none" xmlns="http://www.w3.org/2000/svg">
<path d="M2.25 4.20508V19.7954H3.75V12.7502H11.25V19.7954H12.75V4.20508H11.25V11.2502L3.75 11.2502V4.20508H2.25Z" fill="black"/>
<path d="M15.3099 14.5518L18.942 8.24194H20.6728L18.0623 12.777C18.2106 12.7591 18.3616 12.7499 18.5146 12.7499C20.5857 12.7499 22.2647 14.4289 22.2647 16.4999C22.2647 18.571 20.5857 20.2499 18.5146 20.2499C16.4436 20.2499 14.7646 18.571 14.7646 16.4999C14.7646 15.7863 14.9642 15.1193 15.3099 14.5518ZM16.5277 15.4429C16.3596 15.7582 16.2646 16.118 16.2646 16.4999C16.2646 17.7426 17.272 18.7499 18.5146 18.7499C19.7573 18.7499 20.7647 17.7426 20.7647 16.4999C20.7647 15.2573 19.7573 14.2499 18.5146 14.2499C18.0506 14.2499 17.6214 14.3896 17.264 14.6292C16.9965 14.8085 16.77 15.043 16.6006 15.3163L16.5277 15.4429Z" fill="black"/>
</svg>
