<svg width="24" height="24" viewBox="0 0 24 24" fill="none" xmlns="http://www.w3.org/2000/svg">
<path d="M2.25 4.20508V19.7954H3.75V12.7502H11.25V19.7954H12.75V4.20508H11.25V11.2502L3.75 11.2502V4.20508H2.25Z" fill="black"/>
<path d="M16.5547 11.7395C16.5547 10.6487 17.439 9.7644 18.5298 9.7644C19.6206 9.7644 20.5049 10.6487 20.5049 11.7395C20.5049 12.1501 20.2793 12.6516 19.8446 13.2471C19.5313 13.6762 19.1727 14.0744 18.818 14.4682C18.6842 14.6168 18.5507 14.765 18.4207 14.9137C18.131 15.2451 17.8826 15.5338 17.6276 15.8302C17.0961 16.4481 16.5359 17.0992 15.5135 18.239L15.3217 18.4527V19.7987H21.7188V18.2987H17.4688C18.0151 17.6799 18.4053 17.2264 18.776 16.7955C19.0286 16.5018 19.2722 16.2187 19.5499 15.901C19.651 15.7854 19.7651 15.6588 19.887 15.5235C20.2548 15.1153 20.6933 14.6286 21.0561 14.1315C21.5361 13.474 22.0049 12.6453 22.0049 11.7395C22.0049 9.82026 20.449 8.2644 18.5298 8.2644C16.6105 8.2644 15.0547 9.82026 15.0547 11.7395H16.5547Z" fill="black"/>
</svg>
