<svg width="24" height="24" viewBox="0 0 24 24" fill="none" xmlns="http://www.w3.org/2000/svg">
<path d="M3 5.75C3 4.2312 4.23145 3 5.75 3H18.25C19.7686 3 21 4.2312 21 5.75V18.25C21 19.7688 19.7686 21 18.25 21H5.75C4.23145 21 3 19.7688 3 18.25V5.75ZM11.9267 7.46533C12.6469 7.46533 13.1014 7.70404 13.376 7.98541C13.661 8.27742 13.7988 8.66276 13.7988 9.02456C13.7988 9.46324 13.7192 9.72599 13.5913 9.94905C13.4477 10.1995 13.2163 10.4498 12.8082 10.8343L12.7351 10.9032C11.9843 11.6093 11.222 12.3263 11.222 13.5856V14.3356H12.722V13.5856C12.722 13.0302 12.9772 12.7361 13.8369 11.926C14.2455 11.541 14.6272 11.1579 14.8926 10.6952C15.1736 10.2051 15.2988 9.6748 15.2988 9.02456C15.2988 8.29743 15.0257 7.52816 14.4495 6.93779C13.863 6.33677 13.0065 5.96533 11.9267 5.96533C10.1117 5.96533 9.28455 7.0682 8.9614 7.55877L8.54883 8.18509L9.80148 9.01024L10.2141 8.38392C10.4294 8.05701 10.8617 7.46533 11.9267 7.46533ZM11.0205 16.7449C11.0205 17.2856 11.4588 17.7238 11.9994 17.7238C12.5401 17.7238 12.9784 17.2856 12.9784 16.7449C12.9784 16.2043 12.5401 15.766 11.9994 15.766C11.4588 15.766 11.0205 16.2043 11.0205 16.7449Z" fill="black"/>
</svg>
