<svg width="24" height="24" viewBox="0 0 24 24" fill="none" xmlns="http://www.w3.org/2000/svg">
<path d="M5.05851 8.63281C6.31185 6.03858 8.96834 4.25 12.041 4.25C16.3212 4.25 19.791 7.71979 19.791 12C19.791 16.2802 16.3212 19.75 12.041 19.75C8.09966 19.75 4.84548 16.8078 4.35494 13H2.84444C3.34304 17.6383 7.27025 21.25 12.041 21.25C17.1496 21.25 21.291 17.1086 21.291 12C21.291 6.89137 17.1496 2.75 12.041 2.75C8.74252 2.75 5.84844 4.47617 4.21094 7.07343V3.8042H2.71094V10.1328H7.97985V8.63281H5.05851Z" fill="black"/>
<path d="M12.6758 7.54142V6.23047H11.1758V7.52823C10.7316 7.63695 10.2979 7.85298 9.9068 8.19676L9.88195 8.2186L9.85911 8.24255C8.81763 9.33499 8.903 11.111 10.3496 11.9316C10.9067 12.2476 11.4566 12.4254 11.8944 12.5668C11.9499 12.5848 12.0037 12.6021 12.0554 12.6191C12.5444 12.7798 12.841 12.9035 13.066 13.1087C13.3662 13.3824 13.4809 13.6828 13.4822 13.9343C13.4834 14.1799 13.3777 14.4512 13.0923 14.688C12.8935 14.8531 12.5949 14.953 12.2432 14.9746H11.9462C11.4765 14.9473 11.135 14.8033 11.0381 14.7266C10.8337 14.5648 10.6766 14.3861 10.5706 14.2463C10.42 14.0479 10.3054 13.8266 10.191 13.6057C10.1525 13.5313 10.114 13.457 10.0742 13.3836L8.75586 14.0991C8.79864 14.1778 8.84039 14.2573 8.88219 14.3369C8.97968 14.5225 9.07745 14.7087 9.18909 14.8851C9.2324 14.9536 9.29449 15.0461 9.37558 15.153C9.53644 15.365 9.77934 15.6433 10.1074 15.9029C10.3823 16.1204 10.7646 16.2791 11.1758 16.3742V17.7685H12.6758V16.4346C13.1509 16.3602 13.6389 16.1837 14.0503 15.8423C14.6557 15.3398 14.9857 14.6531 14.9821 13.9269C14.9786 13.2065 14.6479 12.5212 14.0766 12.0003C13.5898 11.5564 13.0084 11.3534 12.5236 11.1941C12.4669 11.1754 12.411 11.1573 12.3557 11.1393C11.9097 10.9943 11.5059 10.863 11.0897 10.6269C10.6019 10.3502 10.4976 9.77017 10.9226 9.30148C11.6188 8.71574 12.6514 8.89624 13.1949 9.52694L13.6845 10.0951L14.8208 9.11597L14.3312 8.5478C13.9153 8.06515 13.3256 7.7056 12.6758 7.54142Z" fill="black"/>
</svg>
