<svg width="24" height="24" viewBox="0 0 24 24" fill="none" xmlns="http://www.w3.org/2000/svg">
<path d="M4.25 2C3.00736 2 2 3.00736 2 4.25V19.75C2 20.9926 3.00736 22 4.25 22H19.75C20.9926 22 22 20.9926 22 19.75V4.25C22 3.00736 20.9926 2 19.75 2H4.25ZM11.9892 10.6395C10.5778 10.6395 9.43359 9.49532 9.43359 8.08391C9.43359 6.6725 10.5778 5.52832 11.9892 5.52832C13.4006 5.52832 14.5448 6.6725 14.5448 8.08391C14.5448 9.49532 13.4006 10.6395 11.9892 10.6395ZM15.8008 11.8652C15.9634 11.9539 16.1189 12.0553 16.2636 12.1717C16.8257 12.6237 17.1855 13.2738 17.1855 14.1292V18.4717H15.8008V11.8652ZM12.8667 11.2116C13.1549 11.2256 13.4998 11.2484 13.8319 11.2875L12.3464 14.4709L10.8508 14.4709L10.8474 14.4709L10.839 14.471L10.8154 14.4714C10.7968 14.4719 10.7725 14.4729 10.7432 14.4746C10.6849 14.478 10.6057 14.4847 10.5123 14.4977C10.3293 14.5233 10.0722 14.5761 9.80461 14.6894C9.53729 14.8025 9.23002 14.9889 8.9879 15.2973C8.73715 15.6168 8.5919 16.0227 8.5919 16.5026C8.5919 16.9764 8.74642 17.3741 9.0033 17.6821C9.24901 17.9768 9.55698 18.1528 9.81968 18.2593C10.0842 18.3666 10.3382 18.4179 10.5191 18.4434C10.6114 18.4564 10.6896 18.4634 10.7469 18.4671C10.7757 18.469 10.7996 18.4701 10.8177 18.4708L10.8233 18.4709C10.8597 18.4716 10.8598 18.4716 6.81641 18.4717V18.4478H6.8125L6.8125 14.1311C6.8125 13.2757 7.17233 12.6256 7.73447 12.1735C8.26123 11.7499 8.93333 11.5241 9.55882 11.3869C10.0311 11.2833 10.6673 11.2364 11.1485 11.2134C11.3968 11.2015 11.6184 11.1954 11.778 11.1923C11.8579 11.1907 11.9227 11.1899 11.9678 11.1894L11.9909 11.1892L11.9909 11.187L11.9965 11.187L12.0105 11.1871L12.0621 11.1875C12.1064 11.188 12.1698 11.1888 12.2483 11.1904C12.4048 11.1935 12.6224 11.1997 12.8667 11.2116ZM10.87 16.9717C10.8662 16.9715 10.859 16.9716 10.849 16.9717C10.7731 16.9722 10.5335 16.974 10.3594 16.9033C10.2422 16.8558 10.1681 16.8018 10.1289 16.7549C10.1009 16.7213 10.0391 16.6317 10.0391 16.5026C10.0391 16.3403 10.0965 16.2493 10.1289 16.208C10.17 16.1557 10.2491 16.0984 10.3594 16.0518C10.5381 15.9761 10.7996 15.9718 10.8493 15.971L10.8557 15.9709H11.6265L11.1409 16.9717H10.87Z" fill="black"/>
</svg>
