<svg width="24" height="24" viewBox="0 0 24 24" fill="none" xmlns="http://www.w3.org/2000/svg">
<path d="M12.0001 1.98145L12.5095 2.45286C14.5484 4.33968 17.1477 4.85355 20.3664 4.913L21.1025 4.9266V5.66288C21.1025 10.7567 19.9366 14.1853 18.2242 16.69C16.5236 19.1774 14.3231 20.6883 12.4242 21.9912L11.9998 22.2823L11.5755 21.9912C9.6766 20.6883 7.47615 19.1774 5.7756 16.6899C4.0633 14.1853 2.89746 10.7567 2.89746 5.66288V4.9266L3.63361 4.913C6.85231 4.85355 9.45182 4.33968 11.4907 2.45286L12.0001 1.98145ZM11.1982 10.8892H8.44824V12.3892H11.1982V15.1392H12.6982V12.3892H15.4482V10.8892H12.6982V8.13916H11.1982V10.8892Z" fill="black"/>
</svg>
