<svg width="24" height="24" viewBox="0 0 24 24" fill="none" xmlns="http://www.w3.org/2000/svg">
<path d="M4.40039 1.54541C3.15775 1.54541 2.15039 2.55277 2.15039 3.79541V19.2954C2.15039 20.5381 3.15775 21.5454 4.40039 21.5454H13.4232C13.094 21.2031 12.7719 20.818 12.4741 20.3825C12.0358 19.7414 11.6701 19.0243 11.3899 18.2148H5.0957V16.7148H10.9919C10.8985 16.2284 10.8309 15.7136 10.791 15.168H5.0957V13.668H10.7488V12.1211H5.0957V10.6211H12.8945V11.6766L13.0063 11.6745C14.4135 11.6485 15.0629 11.42 15.512 11.0043L17.0742 9.55863L18.1504 10.5545V7.64379L12.0608 1.54541H4.40039ZM16.3168 7.93042H11.7617V3.36873L16.3168 7.93042ZM17.5837 12.1418L17.0743 11.6704L16.5649 12.1418C15.6892 12.9522 14.5573 13.196 13.035 13.2241L12.2988 13.2377V13.974C12.2988 16.4918 12.8764 18.2243 13.7537 19.5075C14.6151 20.7675 15.7272 21.5305 16.6367 22.1545L17.0741 22.4546L17.5117 22.1544C18.4212 21.5304 19.5333 20.7675 20.3947 19.5076C21.272 18.2243 21.8496 16.4918 21.8496 13.974V13.2377L21.1135 13.2241C19.5911 13.196 18.4594 12.9522 17.5837 12.1418ZM19.1474 15.9844L16.7373 18.3945L15.4153 17.0798L16.1204 16.3708L16.7353 16.9822L18.4403 15.2772L19.1474 15.9844Z" fill="black"/>
</svg>
