<svg width="24" height="24" viewBox="0 0 24 24" fill="none" xmlns="http://www.w3.org/2000/svg">
<path d="M8.88672 4.55664H3V22.5566H21V4.55664H15.1133C15.1133 2.83722 13.7194 1.44336 12 1.44336C10.2806 1.44336 8.88672 2.83722 8.88672 4.55664ZM13.6133 4.55664H10.3867C10.3867 3.66565 11.109 2.94336 12 2.94336C12.891 2.94336 13.6133 3.66565 13.6133 4.55664ZM10.0473 9.56396L11.108 10.6246L7.92475 13.8079L11.108 16.9911L10.0473 18.0518L5.80469 13.8091L5.80594 13.8079L5.80469 13.8066L10.0473 9.56396ZM18.1953 13.8066L18.1941 13.8079L18.1953 13.8091L13.9527 18.0518L12.892 16.9911L16.0752 13.8079L12.892 10.6246L13.9527 9.56396L18.1953 13.8066Z" fill="black"/>
</svg>
