<svg width="24" height="24" viewBox="0 0 24 24" fill="none" xmlns="http://www.w3.org/2000/svg">
<path d="M4.0625 5C2.81986 5 1.8125 6.00736 1.8125 7.25V16.75C1.8125 17.9926 2.81986 19 4.0625 19H19.9401C21.1827 19 22.1901 17.9926 22.1901 16.75V7.25C22.1901 6.00736 21.1827 5 19.9401 5H4.0625ZM6.46289 9.76611H4.71289V8.01611H6.46289V9.76611ZM6.46289 12.8745H4.71289V11.1245H6.46289V12.8745ZM9.66992 9.76611H7.91992V8.01611H9.66992V9.76611ZM9.66992 12.8745H7.91992V11.1245H9.66992V12.8745ZM12.875 9.76611H11.125V8.01611H12.875V9.76611ZM12.875 12.8745H11.125V11.1245H12.875V12.8745ZM16.0742 15.9834H7.92578V14.2334H16.0742V15.9834ZM16.082 9.76611H14.332V8.01611H16.082V9.76611ZM16.082 12.8745H14.332V11.1245H16.082V12.8745ZM19.293 9.76611H17.543V8.01611H19.293V9.76611ZM19.293 12.8745H17.543V11.1245H19.293V12.8745Z" fill="black"/>
</svg>
