<svg width="24" height="24" viewBox="0 0 24 24" fill="none" xmlns="http://www.w3.org/2000/svg">
<path d="M1.98242 11.9998C1.98242 9.2649 4.11885 7.04785 6.75426 7.04785H10.7439V8.6802H6.75426C4.98759 8.6802 3.55541 10.1664 3.55541 11.9998C3.55541 13.8331 4.98759 15.3193 6.75426 15.3193H10.7439V16.9517H6.75426C4.11885 16.9517 1.98242 14.7346 1.98242 11.9998Z" fill="black"/>
<path d="M22.0176 11.9998C22.0176 9.2649 19.8812 7.04785 17.2457 7.04785H13.2561V8.6802H17.2457C19.0124 8.6802 20.4446 10.1664 20.4446 11.9998C20.4446 13.8331 19.0124 15.3193 17.2457 15.3193H13.2561V16.9517H17.2457C19.8812 16.9517 22.0176 14.7346 22.0176 11.9998Z" fill="black"/>
<path d="M8.06957 11.184H15.9393V12.8163H8.06957V11.184Z" fill="black"/>
</svg>
