<svg width="24" height="24" viewBox="0 0 24 24" fill="none" xmlns="http://www.w3.org/2000/svg">
<path d="M10.6376 12.8166L20.2822 22.4613L21.3429 21.4006L2.59582 2.65332L1.53516 3.71397L5.15441 7.33327C3.30586 8.01576 1.98242 9.8475 1.98242 12C1.98242 14.7349 4.11885 16.9519 6.75426 16.9519H10.7439V15.3196H6.75426C4.98759 15.3196 3.55541 13.8333 3.55541 12C3.55541 10.2516 4.85798 8.81888 6.51101 8.6899L9.00531 11.1842H8.06957V12.8166H10.6376Z" fill="black"/>
<path d="M22.0176 12C22.0176 13.9908 20.8855 15.7072 19.253 16.4938L17.9888 15.2295C19.3971 14.8819 20.4446 13.5679 20.4446 12C20.4446 10.1667 19.0124 8.68044 17.2457 8.68044H13.2561V7.0481H17.2457C19.8812 7.0481 22.0176 9.26514 22.0176 12Z" fill="black"/>
<path d="M15.9393 12.8166H15.5759L13.9435 11.1842H15.9393V12.8166Z" fill="black"/>
</svg>
