<svg width="24" height="24" viewBox="0 0 24 24" fill="none" xmlns="http://www.w3.org/2000/svg">
<path d="M3.12305 4H4.12305V6H3.12305V7H6.12305V6H5.12305V3H3.12305V4Z" fill="black"/>
<path d="M3.12305 10V11H5.12305V11.5H3.12305V14H6.12305V13H4.12305V12.5H6.12305V10H3.12305Z" fill="black"/>
<path d="M3.12305 17V18H5.12305V18.5H3.12305V19.5H5.12305V20H3.12305V21H6.12305V17H3.12305Z" fill="black"/>
<path d="M8.36133 5.75L20.877 5.75V4.25L8.36133 4.25V5.75Z" fill="black"/>
<path d="M8.36133 12.75L20.877 12.75V11.25L8.36133 11.25V12.75Z" fill="black"/>
<path d="M20.877 19.7505L8.36133 19.7505V18.2505L20.877 18.2505V19.7505Z" fill="black"/>
</svg>
