<svg width="24" height="24" viewBox="0 0 24 24" fill="none" xmlns="http://www.w3.org/2000/svg">
<path d="M4.54395 6.33545C5.28125 6.33545 5.87891 5.73755 5.87891 4.99976C5.87891 4.26196 5.28125 3.66406 4.54395 3.66406C3.80566 3.66406 3.20801 4.26196 3.20801 4.99976C3.20801 5.16187 3.2373 5.31738 3.29004 5.46118C3.35645 5.64355 3.46191 5.80737 3.59668 5.94238C3.83887 6.18506 4.17383 6.33545 4.54395 6.33545Z" fill="black"/>
<path d="M8.27637 5.74976H20.792V4.24976H8.27637V5.74976Z" fill="black"/>
<path d="M8.27637 12.7498H20.792V11.2498H8.27637V12.7498Z" fill="black"/>
<path d="M20.792 19.7502H8.27637V18.2502H20.792V19.7502Z" fill="black"/>
<path d="M5.87891 11.9998C5.87891 12.7375 5.28125 13.3354 4.54395 13.3354C3.80566 13.3354 3.20801 12.7375 3.20801 11.9998C3.20801 11.262 3.80566 10.6641 4.54395 10.6641C5.28125 10.6641 5.87891 11.262 5.87891 11.9998Z" fill="black"/>
<path d="M4.54395 20.3359C5.28125 20.3359 5.87891 19.738 5.87891 19.0002C5.87891 18.2625 5.28125 17.6646 4.54395 17.6646C3.80566 17.6646 3.20801 18.2625 3.20801 19.0002C3.20801 19.738 3.80566 20.3359 4.54395 20.3359Z" fill="black"/>
</svg>
