<svg width="24" height="24" viewBox="0 0 24 24" fill="none" xmlns="http://www.w3.org/2000/svg">
<path d="M3.85742 8.54492C4.53516 8.54492 5.08398 7.99561 5.08398 7.31836C5.08398 6.64111 4.53516 6.0918 3.85742 6.0918C3.17969 6.0918 2.63086 6.64111 2.63086 7.31836C2.63086 7.99561 3.17969 8.54492 3.85742 8.54492Z" fill="black"/>
<path d="M7.19141 8.06836H21.3711V6.56836H7.19141V8.06836Z" fill="black"/>
<path d="M7.19141 12.7568H21.3711V11.2568H7.19141V12.7568Z" fill="black"/>
<path d="M21.3711 17.4458H7.19141V15.9458H21.3711V17.4458Z" fill="black"/>
<path d="M5.08398 12.0068C5.08398 12.6841 4.53516 13.2334 3.85742 13.2334C3.17969 13.2334 2.63086 12.6841 2.63086 12.0068C2.63086 11.3296 3.17969 10.7803 3.85742 10.7803C4.00293 10.7803 4.14258 10.8057 4.27246 10.8525C4.38184 10.8916 4.4834 10.9463 4.57617 11.0132C4.88379 11.2358 5.08398 11.5981 5.08398 12.0068Z" fill="black"/>
<path d="M3.85742 17.9224C4.53516 17.9224 5.08398 17.373 5.08398 16.6958C5.08398 16.0186 4.53516 15.4692 3.85742 15.4692C3.17969 15.4692 2.63086 16.0186 2.63086 16.6958C2.63086 17.373 3.17969 17.9224 3.85742 17.9224Z" fill="black"/>
</svg>
