<svg width="24" height="24" viewBox="0 0 24 24" fill="none" xmlns="http://www.w3.org/2000/svg">
<path d="M19.6462 7.13043C19.9778 8.0034 20.1592 8.94928 20.1592 9.9381C20.1592 12.746 18.4642 15.4241 16.744 17.4773C15.4385 19.0356 14.0016 20.3593 13.144 21.1494C12.8717 21.4002 12.6578 21.5973 12.525 21.731L11.9929 22.2668L11.4608 21.731C11.3284 21.5977 11.1161 21.4019 10.8462 21.1529C9.98991 20.3631 8.5536 19.0383 7.24792 17.4768C5.53091 15.4234 3.83984 12.7455 3.83984 9.9381C3.83984 5.49928 7.51194 1.9283 12.0075 1.9283H12.1395L12.1457 1.93058C12.8884 1.94239 13.607 2.0516 14.2888 2.24587L8.64258 7.89212L8.64258 13.0129L13.7633 13.0129L19.6462 7.13043Z" fill="black"/>
<path d="M19.3676 0.550141C19.6183 0.58568 19.8428 0.708328 20.012 0.877589L20.768 1.63355C20.9372 1.80281 21.0599 2.02728 21.0954 2.27799C21.131 2.52905 21.0797 2.85568 20.8267 3.10862L20.0367 3.89862L17.747 1.60884L18.537 0.818843C18.7899 0.565898 19.1165 0.514551 19.3676 0.550141Z" fill="black"/>
<path d="M19.3219 4.62639L17.0293 2.33382L10.6426 8.72049L10.6426 11.0129H12.935L19.3219 4.62639Z" fill="black"/>
</svg>
