<svg width="24" height="24" viewBox="0 0 24 24" fill="none" xmlns="http://www.w3.org/2000/svg">
<path d="M20.1206 3.75552L20.1205 0.379883L18.6205 0.379917L18.6206 3.75556L15.2451 3.75563L15.2452 5.25563L18.6206 5.25556L18.6207 8.63089L20.1207 8.63086L20.1206 5.25552L23.4961 5.25545L23.4961 3.75545L20.1206 3.75552Z" fill="black"/>
<path d="M13.7452 6.7557L13.7451 2.1039C13.2285 1.99411 12.6937 1.93238 12.1457 1.92366L12.1395 1.92139H12.0075C7.51194 1.92139 3.83984 5.49236 3.83984 9.93118C3.83984 12.7386 5.53091 15.4165 7.24792 17.4699C8.5536 19.0313 9.98991 20.3562 10.8462 21.146C11.1161 21.395 11.3284 21.5908 11.4608 21.7241L11.9929 22.2599L12.525 21.7241C12.6578 21.5904 12.8717 21.3933 13.144 21.1425C14.0016 20.3524 15.4385 19.0286 16.744 17.4704C18.4234 15.466 20.0787 12.8659 20.1563 10.1309L17.1208 10.131L17.1207 6.75562L13.7452 6.7557ZM12 8.01099C13.1466 8.01099 14.0762 8.94052 14.0762 10.0872C14.0762 11.2338 13.1466 12.1633 12 12.1633C10.8534 12.1633 9.92383 11.2338 9.92383 10.0872C9.92383 8.94053 10.8534 8.01099 12 8.01099Z" fill="black"/>
</svg>
