<svg width="24" height="24" viewBox="0 0 24 24" fill="none" xmlns="http://www.w3.org/2000/svg">
<path d="M21.373 23.0831L16.3198 18.03C15.1357 19.3743 13.9072 20.5061 13.141 21.212C12.8687 21.4627 12.6549 21.6598 12.5221 21.7935L11.99 22.3293L11.4578 21.7935C11.3255 21.6602 11.1133 21.4645 10.8435 21.2156C9.98724 20.4258 8.55067 19.1007 7.24499 17.5393C5.52798 15.4859 3.83691 12.808 3.83691 10.0006C3.83691 8.70822 4.14819 7.48943 4.70043 6.41092L1.16016 2.87073L2.2208 1.81006L22.4337 22.0224L21.373 23.0831Z" fill="black"/>
<path d="M20.1567 10.0006C20.1567 11.8364 19.4322 13.6167 18.4499 15.2031L13.9742 10.7275C14.0385 10.5273 14.0732 10.3139 14.0732 10.0924C14.0732 8.94571 13.1436 8.01618 11.997 8.01618C11.7754 8.01618 11.562 8.05088 11.3617 8.11516L6.95312 3.70666C8.43073 2.5651 10.2781 1.96236 12.1433 1.99306C16.5791 2.06363 20.1567 5.60856 20.1567 10.0006Z" fill="black"/>
</svg>
