<svg width="24" height="24" viewBox="0 0 24 24" fill="none" xmlns="http://www.w3.org/2000/svg">
<path d="M12 2C6.47715 2 2 6.47715 2 12C2 17.5228 6.47715 22 12 22C12.6577 22 13.3005 21.9365 13.9228 21.8153C13.534 21.4413 13.1032 21.0024 12.6942 20.5289C12.1575 19.9091 11.5021 19.0624 11 18.0483V20.4418C6.77683 19.9469 3.5 16.3561 3.5 12C3.5 11.2356 3.6009 10.4948 3.79011 9.79011L9 15V16C9 17.0966 9.88258 17.9871 10.9762 17.9999C10.5329 17.091 10.2148 16.0499 10.2148 14.9189C10.2148 13.8561 10.464 12.8701 10.9022 12H8V10H10C10.5523 10 11 9.55228 11 9V7H13C14.1046 7 15 6.10457 15 5V4.04455C17.2194 4.88191 18.9963 6.62137 19.8835 8.8158C20.5908 9.11719 21.2419 9.53114 21.8076 10.0381C20.8959 5.45465 16.8514 2 12 2Z" fill="black"/>
<path d="M12.2148 14.8693C12.2148 12.2513 14.4476 10.2002 17.1115 10.2002L17.2459 10.2025C19.8528 10.2692 21.9992 12.2971 21.9992 14.8693C21.9992 16.5228 20.9742 18.0529 20.0045 19.1707C19.2562 20.0331 18.4129 20.7831 17.9392 21.2043C17.7978 21.33 17.6893 21.4265 17.6262 21.4879L17.1033 21.9963L16.5805 21.4879C16.5174 21.4265 16.4095 21.3305 16.2692 21.2055C15.7962 20.7845 14.9538 20.0344 14.2054 19.1702C13.2374 18.0522 12.2148 16.5222 12.2148 14.8693ZM15.6152 14.919C15.6152 15.7531 16.3078 16.385 17.1066 16.385C17.9053 16.385 18.598 15.7531 18.598 14.919C18.598 14.085 17.9053 13.4531 17.1066 13.4531C16.3078 13.4531 15.6152 14.085 15.6152 14.919Z" fill="black"/>
</svg>
