<svg width="24" height="24" viewBox="0 0 24 24" fill="none" xmlns="http://www.w3.org/2000/svg">
<path d="M12.0039 1.15991C9.31348 1.15991 7.13281 3.34106 7.13281 6.03149V8.41479H6.33008C5.08789 8.41479 4.08008 9.42212 4.08008 10.6648V20.0149C4.08008 21.2573 5.08789 22.2649 6.33008 22.2649H17.6797C18.9229 22.2649 19.9297 21.2573 19.9297 20.0149V10.6648C19.9297 9.42212 18.9229 8.41479 17.6797 8.41479H16.876V6.03149C16.876 3.34106 14.6953 1.15991 12.0039 1.15991ZM15.376 8.41479H8.63281V6.03149C8.63281 4.16943 10.1426 2.65991 12.0039 2.65991C13.8662 2.65991 15.376 4.16943 15.376 6.03149V8.41479ZM12.7549 14.5898H15.7705V16.0898H12.7549V19.106H11.2549V16.0898H8.23828V14.5898H11.2549V11.5735H12.7549V14.5898Z" fill="black"/>
</svg>
