<svg width="24" height="24" viewBox="0 0 24 24" fill="none" xmlns="http://www.w3.org/2000/svg">
<path d="M12.0049 1.17993C9.31348 1.17993 7.13281 3.36108 7.13281 6.05151H8.63281C8.63281 4.18945 10.1426 2.67993 12.0049 2.67993C13.8662 2.67993 15.376 4.18945 15.376 6.05151V8.43481H6.33008C5.08789 8.43481 4.08008 9.44214 4.08008 10.6848V20.0349C4.08008 21.2773 5.08789 22.2849 6.33008 22.2849H17.6797C18.9229 22.2849 19.9297 21.2773 19.9297 20.0349V10.6848C19.9297 9.44214 18.9229 8.43481 17.6797 8.43481H16.876V6.05151C16.876 3.36108 14.6953 1.17993 12.0049 1.17993ZM14.1055 15.4041C14.1055 16.5637 13.165 17.5039 12.0049 17.5039C10.8457 17.5039 9.90527 16.5637 9.90527 15.4041C9.90527 14.2441 10.8457 13.304 12.0049 13.304C13.165 13.304 14.1055 14.2441 14.1055 15.4041Z" fill="black"/>
</svg>
