<svg width="24" height="24" viewBox="0 0 24 24" fill="none" xmlns="http://www.w3.org/2000/svg">
<path d="M11 2C9.75736 2 8.75 3.00736 8.75 4.25V5.79932H7.25C6.00736 5.79932 5 6.80668 5 8.04932V18.4948C5 19.7257 5.98842 20.7258 7.21484 20.7446V21.2495C7.21484 21.6637 7.55063 21.9995 7.96484 21.9995C8.37906 21.9995 8.71484 21.6637 8.71484 21.2495V20.7448H15.2852V21.2495C15.2852 21.6637 15.6209 21.9995 16.0352 21.9995C16.4494 21.9995 16.7852 21.6637 16.7852 21.2495V20.7446C18.0116 20.7258 19 19.7257 19 18.4948V8.04932C19 6.80668 17.9926 5.79932 16.75 5.79932H15.25V4.25C15.25 3.00736 14.2426 2 13 2H11ZM13.75 5.79932H10.25V4.25C10.25 3.83579 10.5858 3.5 11 3.5H13C13.4142 3.5 13.75 3.83579 13.75 4.25V5.79932ZM9.66602 9.65186V17.1814C9.66602 17.5956 9.33023 17.9314 8.91602 17.9314C8.5018 17.9314 8.16602 17.5956 8.16602 17.1814V9.65186C8.16602 9.23764 8.5018 8.90186 8.91602 8.90186C9.33023 8.90186 9.66602 9.23764 9.66602 9.65186ZM15.084 8.90186C15.4982 8.90186 15.834 9.23764 15.834 9.65186V17.1814C15.834 17.5956 15.4982 17.9314 15.084 17.9314C14.6698 17.9314 14.334 17.5956 14.334 17.1814V9.65186C14.334 9.23764 14.6698 8.90186 15.084 8.90186Z" fill="black"/>
</svg>
