<svg width="24" height="24" viewBox="0 0 24 24" fill="none" xmlns="http://www.w3.org/2000/svg">
<path d="M18.9961 8.45923C20.6943 8.45923 22.0713 7.08252 22.0713 5.38428C22.0713 3.68604 20.6943 2.30933 18.9961 2.30933C17.2979 2.30933 15.9209 3.68604 15.9209 5.38428C15.9209 7.08252 17.2979 8.45923 18.9961 8.45923Z" fill="black"/>
<path d="M18.9961 10.4592C20.1201 10.4592 21.1592 10.0938 22 9.4751V17.675C22 18.9175 20.9922 19.925 19.75 19.925H4.25C3.00781 19.925 2 18.9175 2 17.675V6.32495C2 5.08228 3.00781 4.07495 4.25 4.07495H14.0918C13.9805 4.49268 13.9209 4.93164 13.9209 5.38428C13.9209 6.81177 14.5098 8.10156 15.459 9.02368L12.0068 11.1809L3.98926 6.17139L3.86719 7.86377L12.0068 12.9497L16.7939 9.95801C17.46 10.2791 18.207 10.4592 18.9961 10.4592Z" fill="black"/>
</svg>
