<svg width="24" height="24" viewBox="0 0 24 24" fill="none" xmlns="http://www.w3.org/2000/svg">
<path d="M18.0287 1.74902L17.0285 5.48188L18.5011 5.87647L19.5014 2.14362L20.4006 2.88227C21.6969 3.94703 22.3272 5.70971 21.864 7.43856C21.4067 9.14516 20.0105 10.3477 18.3813 10.6418L18.3343 10.8173C15.0989 10.8173 19.3186 10.8173 14.4418 10.8173L14.7496 9.66874C13.4858 8.5994 12.8779 6.85987 13.3351 5.15326C13.7984 3.42441 15.2256 2.21303 16.8806 1.93908L18.0287 1.74902Z" fill="black"/>
<path d="M9.94027 10.3623C8.61224 10.3623 7.4608 11.1184 6.89296 12.2236C6.66142 12.6748 6.52779 13.184 6.51814 13.7236H1.98438V12.2236H5.26953C5.92273 10.2702 7.76709 8.8623 9.94027 8.8623C11.5447 8.8623 12.9698 9.62966 13.8688 10.8174H19.2257C20.3109 10.8174 21.1906 11.6971 21.1906 12.7822V12.8359C21.1906 13.7717 20.5364 14.5547 19.6605 14.7525C19.7046 14.9161 19.7282 15.0881 19.7282 15.2656V15.3193C19.7282 16.2523 19.0779 17.0334 18.2059 17.2341C18.2503 17.3982 18.274 17.5709 18.274 17.749V17.8027C18.274 18.7376 17.6211 19.52 16.7465 19.7187C16.7907 19.8825 16.8143 20.0547 16.8143 20.2324V20.2861C16.8143 21.3713 15.9346 22.251 14.8494 22.251H6.9972C5.91205 22.251 5.03236 21.3713 5.03236 20.2861V20.2368H1.98438V18.7368H6.53236V20.2861C6.53236 20.5429 6.74047 20.751 6.9972 20.751H14.8494C15.1062 20.751 15.3143 20.5429 15.3143 20.2861V20.2324C15.3143 19.9757 15.1062 19.7676 14.8494 19.7676H14.3378L14.3379 18.2676H16.3092C16.5659 18.2676 16.774 18.0595 16.774 17.8027V17.749C16.774 17.4923 16.5659 17.2842 16.3092 17.2842L15.8398 17.2842V15.7842H17.7633C18.02 15.7842 18.2282 15.5761 18.2282 15.3193V15.2656C18.2282 15.0089 18.02 14.8008 17.7633 14.8008L17.3398 14.8008V13.3008H19.2257C19.4824 13.3008 19.6906 13.0927 19.6906 12.8359V12.7822C19.6906 12.5255 19.4824 12.3174 19.2257 12.3174H10.3672V10.8174H11.647C11.1446 10.5279 10.5618 10.3623 9.94027 10.3623Z" fill="black"/>
</svg>
