<svg width="24" height="24" viewBox="0 0 24 24" fill="none" xmlns="http://www.w3.org/2000/svg">
<path d="M9.25 2.99268C8.00736 2.99268 7 4.00004 7 5.24268V6.76025H6.625V21.4925H17.373V6.76025H17V5.24268C17 4.00004 15.9926 2.99268 14.75 2.99268H9.25ZM15.5 6.76025H8.5V5.24268C8.5 4.82846 8.83579 4.49268 9.25 4.49268H14.75C15.1642 4.49268 15.5 4.82846 15.5 5.24268V6.76025ZM12.75 10.1526V13.1562H15.7532V14.6562H12.75V17.6597H11.25V14.6562H8.24609V13.1562H11.25L11.25 10.1526H12.75Z" fill="black"/>
<path d="M18.873 6.76025V21.4925H20C21.2426 21.4925 22.25 20.4852 22.25 19.2425V9.01025C22.25 7.76761 21.2426 6.76025 20 6.76025H18.873Z" fill="black"/>
<path d="M5.125 6.76025H4C2.75736 6.76025 1.75 7.76761 1.75 9.01025V19.2425C1.75 20.4851 2.75736 21.4925 4 21.4925H5.125V6.76025Z" fill="black"/>
</svg>
