<svg width="24" height="24" viewBox="0 0 24 24" fill="none" xmlns="http://www.w3.org/2000/svg">
<path d="M7.02539 5.81686C7.02527 5.54909 7.16793 5.30156 7.39969 5.16742L11.6248 2.72198C11.8572 2.58747 12.1438 2.58747 12.3762 2.72198L16.6013 5.16742C16.833 5.30156 16.9757 5.54909 16.9756 5.81686C16.9756 5.84611 16.9739 5.87511 16.9705 5.90374V10.3422L20.8259 12.5737C21.0577 12.7078 21.2003 12.9553 21.2002 13.2231C21.2002 13.2524 21.1985 13.2814 21.1951 13.31V18.1919C21.1951 18.4598 21.0522 18.7074 20.8201 18.8414L16.5987 21.2786C16.3667 21.4125 16.0802 21.4129 15.8481 21.2789L11.9985 19.0564L8.14916 21.2788C8.14923 21.2787 8.14908 21.2788 8.14916 21.2788C7.91711 21.4127 7.63097 21.4129 7.39892 21.2789C7.399 21.2789 7.39885 21.2788 7.39892 21.2789L3.17696 18.8414C2.9449 18.7074 2.80195 18.4598 2.80195 18.1919V13.2647C2.80118 13.2509 2.80079 13.237 2.80078 13.2231C2.80067 12.9553 2.94332 12.7078 3.17508 12.5737L7.02656 10.3445V5.85848C7.02579 5.84467 7.0254 5.83079 7.02539 5.81686ZM7.77393 14.7944L10.497 13.2223L7.76953 11.6476L5.04986 13.2217L7.77393 14.7944ZM8.52393 16.0974V19.3303L11.2459 17.7589V14.5251L8.52393 16.0974ZM4.30195 14.5228V17.7589L7.02393 19.3303V16.0951L4.30195 14.5228ZM8.52656 10.3453L11.2485 11.9207V8.68886L8.52656 7.11657V10.3453ZM15.4705 10.3475V7.11882L12.7485 8.69112V11.923L15.4705 10.3475ZM14.7246 5.81432L12.0005 4.23766L9.27447 5.81545L11.9985 7.38816L14.7246 5.81432ZM16.2231 14.7944L18.9492 13.2206L16.2295 11.6465L13.5 13.2223L16.2231 14.7944ZM16.9731 16.0974V19.3303L19.6951 17.7589V14.5251L16.9731 16.0974ZM12.7512 14.5228V17.7589L15.4731 19.3303V16.0951L12.7512 14.5228Z" fill="black"/>
</svg>
