<svg width="24" height="24" viewBox="0 0 24 24" fill="none" xmlns="http://www.w3.org/2000/svg">
<path d="M21.168 7.60059C21.168 10.1069 19.7353 12.2786 17.6442 13.3413C17.2811 12.9822 16.8417 12.6942 16.3445 12.5044L9.58465 9.9248H8.72938C8.45007 9.20389 8.29688 8.42013 8.29688 7.60059C8.29688 4.04633 11.1782 1.16504 14.7324 1.16504C18.2867 1.16504 21.168 4.04633 21.168 7.60059ZM13.0658 4.45059C12.6515 4.45059 12.3158 4.78637 12.3158 5.20059V7.60059C12.3158 8.0148 12.6515 8.35059 13.0658 8.35059H15.6491V9.25059H12.2324V10.7506H13.9824V11.6006H15.4824V10.7506H16.3991C16.8133 10.7506 17.1491 10.4148 17.1491 10.0006V7.60059C17.1491 7.18637 16.8133 6.85059 16.3991 6.85059H13.8158V5.95059H17.2324V4.45059H15.4824V3.60059H13.9824V4.45059H13.0658Z" fill="black"/>
<path d="M1.29492 11.4238H5.50001V22.377H1.29492V11.4238Z" fill="black"/>
<path d="M6.98102 20.7271L14.3598 22.834L22.4014 20.2583V19.5406C22.4014 18.7592 22.2497 18.3476 21.8652 18.0985C21.4261 17.814 20.9233 17.6696 20.001 17.6696H14.2435C13.2157 17.6696 11.8776 17.2607 10.8652 16.8932C10.7807 16.8625 10.5989 16.7914 10.4474 16.7321C10.3634 16.6993 10.2885 16.67 10.2447 16.6533L10.6487 15.3623C10.6906 15.3784 10.7545 15.4035 10.8276 15.4321L10.8289 15.4326C10.9995 15.4994 11.2198 15.5857 11.3258 15.6242C12.3405 15.9925 13.4779 16.3196 14.2435 16.3196H17.2555V16.007C17.2555 15.0739 16.6795 14.2376 15.8077 13.9049L9.30621 11.4238H6.98102V20.7271Z" fill="black"/>
</svg>
