<svg width="24" height="24" viewBox="0 0 24 24" fill="none" xmlns="http://www.w3.org/2000/svg">
<path d="M4.16699 6.47974C4.16699 5.2371 5.17435 4.22974 6.41699 4.22974H20.5283C21.771 4.22974 22.7783 5.23709 22.7783 6.47974V14.6262C22.7783 15.8689 21.771 16.8762 20.5283 16.8762H6.41699C5.17435 16.8762 4.16699 15.8689 4.16699 14.6262V6.47974ZM6.41699 5.72974C6.00278 5.72974 5.66699 6.06552 5.66699 6.47974V7.82331C5.7884 7.84997 5.91453 7.86401 6.04395 7.86401C7.01044 7.86401 7.79395 7.08051 7.79395 6.11401C7.79395 5.982 7.77933 5.85339 7.75162 5.72974H6.41699ZM19.1937 5.72974C19.166 5.85339 19.1514 5.982 19.1514 6.11401C19.1514 7.08051 19.9349 7.86401 20.9014 7.86401C21.0308 7.86401 21.1569 7.84997 21.2783 7.82331V6.47974C21.2783 6.06552 20.9425 5.72974 20.5283 5.72974H19.1937ZM21.2783 13.2826C21.1569 13.256 21.0308 13.2419 20.9014 13.2419C19.9349 13.2419 19.1514 14.0254 19.1514 14.9919C19.1514 15.124 19.166 15.2526 19.1937 15.3762H20.5283C20.9425 15.3762 21.2783 15.0404 21.2783 14.6262V13.2826ZM7.75162 15.3762C7.77933 15.2526 7.79395 15.124 7.79395 14.9919C7.79395 14.0254 7.01044 13.2419 6.04395 13.2419C5.91453 13.2419 5.7884 13.256 5.66699 13.2826V14.6262C5.66699 15.0404 6.00278 15.3762 6.41699 15.3762H7.75162ZM10.9512 10.5498C10.9512 11.9305 12.0705 13.0498 13.4512 13.0498C14.8319 13.0498 15.9512 11.9305 15.9512 10.5498C15.9512 9.16909 14.8319 8.0498 13.4512 8.0498C12.0705 8.0498 10.9512 9.16909 10.9512 10.5498Z" fill="black"/>
<path d="M2.7207 7.25342V17.5203C2.7207 17.9345 3.05649 18.2703 3.4707 18.2703H19.6985V19.7703H3.4707C2.22806 19.7703 1.2207 18.7629 1.2207 17.5203V7.25342H2.7207Z" fill="black"/>
</svg>
