<svg width="24" height="24" viewBox="0 0 24 24" fill="none" xmlns="http://www.w3.org/2000/svg">
<path d="M12.3673 2.09632C12.139 1.96789 11.8602 1.96789 11.6319 2.09632L3.40965 6.72132C3.17349 6.85416 3.02734 7.10404 3.02734 7.375V16.625C3.02734 16.896 3.17349 17.1458 3.40965 17.2787L11.25 21.6889V10.7179L5.30714 7.375L7.93786 5.89522L14.6303 9.65971L12.75 10.7174V21.6884L20.5895 17.2787C20.8256 17.1458 20.9718 16.896 20.9718 16.625V7.375C20.9718 7.10404 20.8256 6.85416 20.5895 6.72132L12.3673 2.09632ZM16.1601 8.7992L9.46766 5.03471L11.9996 3.61051L18.692 7.375L16.1601 8.7992Z" fill="black"/>
</svg>
