<svg width="24" height="24" viewBox="0 0 24 24" fill="none" xmlns="http://www.w3.org/2000/svg">
<path d="M1.74219 12.4016C1.77662 12.2344 1.81162 12.0672 1.84605 11.8999C2.02657 11.0139 2.54756 10.3456 3.2174 9.76281C3.33516 10.0361 3.43624 10.3172 3.57232 10.58C4.33159 12.0449 5.5241 12.9466 7.13928 13.2838C7.32813 13.3232 7.52308 13.3304 7.71193 13.3699C7.77414 13.3832 7.85245 13.4388 7.87745 13.4954C8.28569 14.4082 9.30601 14.8276 10.2125 14.4493C11.1084 14.0754 11.5416 13.0588 11.1972 12.1366C10.9606 11.5039 10.2947 11.025 9.61205 10.9978C8.88333 10.9689 8.19848 11.3716 7.91299 12.0127C7.85801 12.1366 7.80469 12.1822 7.66472 12.1644C6.31503 11.9916 5.31248 11.3005 4.67651 10.11C4.47934 9.74115 4.39713 9.31116 4.26272 8.90951C4.24828 8.86618 4.2355 8.82174 4.21884 8.7673C3.8978 9.09228 3.58454 9.40894 3.23073 9.76726C3.18019 9.55726 3.1352 9.40283 3.10632 9.24561C2.71141 7.09292 3.69007 4.953 5.56353 3.81416C6.3839 3.31529 7.27925 3.06697 8.21126 2.9092C8.40732 2.87586 8.60228 2.83642 8.82445 2.7942C8.74058 3.00586 8.65838 3.19641 8.59006 3.39195C8.53063 3.56139 8.46787 3.73361 8.44287 3.90916C8.41899 4.07582 8.33734 4.12637 8.18626 4.14859C7.1304 4.30359 6.18284 4.69413 5.41801 5.46132C4.53377 6.3485 4.13442 7.41735 4.24106 8.72119C4.93423 8.02788 5.60075 7.36124 6.26726 6.6946C6.93544 6.02629 7.60362 5.35799 8.29957 4.6619C8.29957 4.91578 8.29624 5.12577 8.29957 5.33577C8.32401 6.72404 8.75447 8.00455 9.33656 9.24561C9.76146 10.1511 10.3969 10.9111 11.0423 11.6555C11.6055 12.3049 12.2287 12.9021 12.8274 13.521C13.505 14.2215 14.1871 14.917 14.8597 15.6226C14.9236 15.6892 14.9586 15.8098 14.9597 15.9059C14.9669 16.9142 14.9586 17.9225 14.9675 18.9308C14.9703 19.243 15.0147 19.5552 15.0314 19.868C15.0352 19.9407 15.0264 20.0385 14.9819 20.0852C14.5381 20.5474 14.0999 21.0163 13.6317 21.4529C13.1212 21.9284 12.4825 22.1384 11.7999 22.2173C10.2636 22.3956 8.86389 21.9534 7.55308 21.2135C5.23083 19.9024 3.48568 18.0403 2.37593 15.6037C2.06267 14.9154 1.8505 14.1949 1.78162 13.4371C1.77718 13.3854 1.75718 13.3354 1.74441 13.2849V12.4033L1.74219 12.4016Z" fill="black"/>
<path d="M13.399 1.74316C13.5939 1.77816 13.7894 1.81094 13.9838 1.84872C15.7268 2.18759 17.2425 2.99978 18.6072 4.1064C19.8675 5.12914 20.8823 6.35409 21.5454 7.85014C21.5665 7.89792 21.5865 7.94625 21.621 8.02569C21.4904 7.98291 21.3888 7.93403 21.2827 7.91792C20.9606 7.86959 20.6368 7.79903 20.3135 7.79848C16.942 7.78959 13.5706 7.79181 10.1991 7.79737C10.0375 7.79737 9.97142 7.74959 9.91755 7.59904C9.64705 6.83963 9.45876 6.06466 9.47931 5.25413C9.50875 4.09751 9.89811 3.10255 10.8357 2.37092C11.2728 2.02982 11.7793 1.85816 12.3231 1.78261C12.3886 1.77316 12.4531 1.7565 12.5181 1.74316C12.8119 1.74316 13.1051 1.74316 13.399 1.74316Z" fill="black"/>
<path d="M9.52351 12.1944C9.86843 12.1938 10.115 12.4382 10.1178 12.7849C10.1212 13.1282 9.87176 13.3854 9.5324 13.3904C9.1997 13.3949 8.91254 13.1116 8.91643 12.7832C8.92032 12.4527 9.18581 12.1955 9.52351 12.1944Z" fill="black"/>
<path d="M22.2475 10.84C22.2464 10.5683 22.1875 10.2744 22.072 10.0305C21.7371 9.32335 21.145 8.99558 20.3663 8.99558C17.1692 8.99614 13.9722 8.99558 10.7751 8.99614C10.7174 8.99614 10.6596 9.00114 10.6024 9.00336C10.6024 9.02781 10.5979 9.04281 10.6029 9.0528C10.6252 9.09391 10.6502 9.1328 10.674 9.17336C11.2572 10.1639 12.0015 11.0227 12.8113 11.8338C13.8111 12.8349 14.7903 13.8559 15.7812 14.8665C16.0539 15.1448 16.1711 15.4742 16.1694 15.8609C16.1639 16.9558 16.1711 18.0502 16.1661 19.1452C16.1622 19.989 16.4633 20.7062 17.0431 21.3101C17.9052 22.2078 19.2143 22.495 20.3535 22.0423C21.4821 21.5934 22.2525 20.4646 22.2542 19.2313C22.258 16.4342 22.2597 13.6371 22.2475 10.84Z" fill="black"/>
</svg>
