<svg width="24" height="24" viewBox="0 0 24 24" fill="none" xmlns="http://www.w3.org/2000/svg">
<path d="M7.05606 7.91138C6.58662 7.91138 6.20605 7.53082 6.20605 7.06138V5.80273H4.24233C3.82813 5.80273 3.49235 6.1385 3.49233 6.5527L3.49219 9.73668C3.49217 10.1509 3.82796 10.4867 4.24219 10.4867H11.62C12.8625 10.4867 13.8699 11.494 13.87 12.7366L13.8701 15.5088H15.1148C15.5843 15.5088 15.9648 15.8893 15.9648 16.3588V22.3724C15.9648 22.8419 15.5843 23.2224 15.1148 23.2224H11.1117C10.6423 23.2224 10.2617 22.8419 10.2617 22.3724V16.3588C10.2617 15.8893 10.6423 15.5088 11.1117 15.5088H12.3701L12.37 12.7367C12.3699 12.3225 12.0342 11.9867 11.62 11.9867H4.24219C2.99951 11.9867 1.99213 10.9793 1.99219 9.73662L1.99233 6.55263C1.99238 5.31003 2.99973 4.30273 4.24233 4.30273H6.20605V3.05215C6.20605 2.5827 6.58661 2.20215 7.05605 2.20215H19.1725C19.6419 2.20215 20.0225 2.5827 20.0225 3.05215V7.06138C20.0225 7.53082 19.6419 7.91138 19.1725 7.91138L7.05606 7.91138Z" fill="black"/>
</svg>
