<svg width="24" height="24" viewBox="0 0 24 24" fill="none" xmlns="http://www.w3.org/2000/svg">
<path d="M4.04492 6.7666C4.04492 4.69553 5.72385 3.0166 7.79492 3.0166H19.9551V13.6226C19.9551 14.8652 18.9477 15.8726 17.7051 15.8726H14.8545V20.2659C14.8545 21.2324 14.071 22.0159 13.1045 22.0159H10.8955C9.92901 22.0159 9.14551 21.2324 9.14551 20.2659V15.8726H6.29492C5.05228 15.8726 4.04492 14.8652 4.04492 13.6226V6.7666ZM7.79492 4.5166C6.55228 4.5166 5.54492 5.52396 5.54492 6.7666V10.2498H18.4551V4.5166H16.543V8.15625H15.043V4.5166H13.0625V6.54761H11.5625V4.5166H7.79492Z" fill="black"/>
</svg>
