<svg width="24" height="24" viewBox="0 0 24 24" fill="none" xmlns="http://www.w3.org/2000/svg">
<path d="M13.3134 9.86412C13.3134 9.15739 12.7406 8.58447 12.0341 8.58447H10.7651V11.1438H12.0341C12.7406 11.1438 13.3134 10.5709 13.3134 9.86412Z" fill="black"/>
<path d="M21.0005 3.10986C21.9667 3.10986 22.75 3.89336 22.75 4.85986V6.91916C22.75 7.88566 21.9667 8.66916 21.0005 8.66916H18.7885L18.7882 20.8901L17.0254 19.3472L15.3389 20.8899L13.6523 19.3472L11.9658 20.8899L10.2793 19.3472L8.59274 20.8899L6.90621 19.3472L5.21967 20.8899L5.21962 8.66916H2.99952C2.03329 8.66916 1.25 7.88566 1.25 6.91916V4.85986C1.25 3.89336 2.03329 3.10986 2.99952 3.10986H21.0005ZM2.74959 4.85986V6.91916C2.74959 7.05724 2.86149 7.16916 2.99952 7.16916H5.21962L5.21962 4.60986H2.99952C2.86149 4.60986 2.74959 4.72179 2.74959 4.85986ZM18.7885 7.16916H21.0005C21.1385 7.16916 21.2504 7.05724 21.2504 6.91916V4.85986C21.2504 4.72179 21.1385 4.60986 21.0005 4.60986H18.7885V7.16916ZM10.7651 14.7326V12.6438H12.0341C13.5688 12.6438 14.813 11.3993 14.813 9.86412C14.813 8.32896 13.5688 7.08447 12.0341 7.08447H9.26548V14.7326H10.7651Z" fill="black"/>
</svg>
