<svg width="24" height="24" viewBox="0 0 24 24" fill="none" xmlns="http://www.w3.org/2000/svg">
<path d="M4.11719 18.8213L18.8203 4.11816L19.881 5.17882L5.17785 19.8819L4.11719 18.8213Z" fill="black"/>
<path d="M4.25195 7.50342C4.25195 9.29834 5.70703 10.7534 7.50195 10.7534C9.29688 10.7534 10.752 9.29834 10.752 7.50342C10.752 5.70849 9.29688 4.25342 7.50195 4.25342C5.70703 4.25342 4.25195 5.70849 4.25195 7.50342ZM7.50195 5.75342C8.46845 5.75342 9.25195 6.53692 9.25195 7.50342C9.25195 8.46992 8.46845 9.25342 7.50195 9.25342C6.53545 9.25342 5.75195 8.46992 5.75195 7.50342C5.75195 6.53692 6.53545 5.75342 7.50195 5.75342Z" fill="black"/>
<path d="M16.4961 13.25C14.7012 13.25 13.2461 14.7051 13.2461 16.5C13.2461 18.2949 14.7012 19.75 16.4961 19.75C18.291 19.75 19.7461 18.2949 19.7461 16.5C19.7461 14.7051 18.291 13.25 16.4961 13.25ZM14.7461 16.5C14.7461 15.5335 15.5296 14.75 16.4961 14.75C17.4626 14.75 18.2461 15.5335 18.2461 16.5C18.2461 17.4665 17.4626 18.25 16.4961 18.25C15.5296 18.25 14.7461 17.4665 14.7461 16.5Z" fill="black"/>
</svg>
