<svg width="24" height="24" viewBox="0 0 24 24" fill="none" xmlns="http://www.w3.org/2000/svg">
<path d="M9.07855 8.2002C8.59507 8.2002 8.20312 8.59214 8.20312 9.07562C8.20312 9.55911 8.59507 9.95105 9.07855 9.95105C9.56204 9.95105 9.95398 9.55911 9.95398 9.07562C9.95398 8.59214 9.56204 8.2002 9.07855 8.2002Z" fill="black"/>
<path d="M14.9262 14.0503C14.4427 14.0503 14.0508 14.4422 14.0508 14.9257C14.0508 15.4092 14.4427 15.8011 14.9262 15.8011C15.4097 15.8011 15.8016 15.4092 15.8016 14.9257C15.8016 14.4422 15.4097 14.0503 14.9262 14.0503Z" fill="black"/>
<path d="M12 2C6.47715 2 2 6.47715 2 12C2 17.5228 6.47715 22 12 22C17.5228 22 22 17.5228 22 12C22 6.47715 17.5228 2 12 2ZM6.68945 16.249L16.249 6.68945L17.3096 7.75011L7.75011 17.3096L6.68945 16.249ZM6.70312 9.07562C6.70312 7.76371 7.76664 6.7002 9.07855 6.7002C10.3905 6.7002 11.454 7.76371 11.454 9.07562C11.454 10.3875 10.3905 11.451 9.07855 11.451C7.76664 11.451 6.70312 10.3875 6.70312 9.07562ZM12.5508 14.9257C12.5508 13.6138 13.6143 12.5503 14.9262 12.5503C16.2381 12.5503 17.3016 13.6138 17.3016 14.9257C17.3016 16.2376 16.2381 17.3011 14.9262 17.3011C13.6143 17.3011 12.5508 16.2376 12.5508 14.9257Z" fill="black"/>
</svg>
