<svg width="24" height="24" viewBox="0 0 24 24" fill="none" xmlns="http://www.w3.org/2000/svg">
<path d="M3.73047 2.87988C3.31626 2.87988 2.98047 3.21567 2.98047 3.62988C2.98047 5.53722 3.43803 8.13925 4.89491 10.8941C4.89885 10.9019 4.90294 10.9096 4.90718 10.9173C5.72718 12.4624 6.86183 14.0551 8.40661 15.5999C9.89441 17.0877 11.4038 18.1767 12.8453 18.9674L12.8605 18.9757C15.9008 20.6393 18.6381 20.9766 20.2335 20.9302C20.639 20.9184 20.9617 20.5863 20.9617 20.1805V15.9609C20.9617 15.6109 20.7196 15.3074 20.3784 15.2296L16.6341 14.376C16.3846 14.3191 16.1233 14.3933 15.941 14.5729L13.0913 17.3807C11.912 16.6816 10.6847 15.7567 9.46727 14.5393C8.19632 13.2683 7.22953 11.9684 6.50194 10.7021L9.30466 8.06348C9.49364 7.88556 9.5772 7.62257 9.52556 7.36819L8.73638 3.48067C8.66542 3.13111 8.35807 2.87988 8.00137 2.87988H3.73047Z" fill="black"/>
<path d="M17.7819 5.98073L17.7818 2.93994L16.2818 2.93998L16.2819 5.98076L13.2412 5.98083L13.2412 7.48083L16.2819 7.48076L16.282 10.5213L17.782 10.5212L17.7819 7.48073L20.8225 7.48066L20.8225 5.98066L17.7819 5.98073Z" fill="black"/>
</svg>
