<svg width="24" height="24" viewBox="0 0 24 24" fill="none" xmlns="http://www.w3.org/2000/svg">
<path d="M14.4439 16.6144L20.3506 22.5209L21.4112 21.4602L2.48057 2.53003L1.41992 3.5907L13.3803 15.5508C12.5358 16.2749 11.695 16.8681 10.8773 17.3528L8.02755 14.5451C7.84525 14.3655 7.58396 14.2912 7.33445 14.3481L3.59012 15.2018C3.24889 15.2796 3.00684 15.583 3.00684 15.933V20.1527C3.00684 20.5584 3.3295 20.8906 3.73506 20.9023C5.3305 20.9487 8.06778 20.6115 11.1081 18.9479L11.1233 18.9395C12.2046 18.3465 13.3241 17.5856 14.4439 16.6144Z" fill="black"/>
<path d="M19.0615 10.8895C18.4969 11.9534 17.783 13.04 16.8888 14.1179L15.8231 13.0522C16.4731 12.2566 17.0159 11.459 17.4668 10.6742L14.664 8.03564C14.475 7.85772 14.3915 7.59473 14.4431 7.34035L15.2323 3.45284C15.3033 3.10327 15.6106 2.85205 15.9673 2.85205H20.2383C20.6525 2.85205 20.9883 3.18784 20.9883 3.60205C20.9883 5.50938 20.5307 8.11141 19.0738 10.8663C19.0699 10.8741 19.0658 10.8818 19.0615 10.8895Z" fill="black"/>
</svg>
