<svg width="24" height="24" viewBox="0 0 24 24" fill="none" xmlns="http://www.w3.org/2000/svg">
<path d="M13.3848 5.16921C13.3848 3.65891 14.6091 2.43457 16.1194 2.43457C17.6297 2.43457 18.854 3.65891 18.854 5.16921C18.854 6.67951 17.6297 7.90385 16.1194 7.90385C14.6091 7.90385 13.3848 6.67951 13.3848 5.16921ZM12.6854 9.17488C13.6107 8.77549 14.8333 8.52495 16.1209 8.52495C17.4085 8.52495 18.6314 8.77549 19.5568 9.17488C20.0174 9.37369 20.4376 9.62369 20.7551 9.92695C21.0666 10.2245 21.3496 10.6448 21.3496 11.1674V13.5273H10.8926V11.1674C10.8926 10.6448 11.1756 10.2245 11.4871 9.92695C11.8046 9.62369 12.2248 9.37369 12.6854 9.17488ZM3.40234 3.51123C2.98813 3.51123 2.65234 3.84701 2.65234 4.26123C2.65234 6.16856 3.1099 8.77059 4.56679 11.5255C4.57073 11.5333 4.57482 11.541 4.57905 11.5486C5.39906 13.0938 6.5337 14.6865 8.07849 16.2313C9.56629 17.719 11.0756 18.8081 12.5172 19.5987L12.5324 19.607C15.5727 21.2707 18.3099 21.6079 19.9053 21.5615C20.3109 21.5497 20.6336 21.2176 20.6336 20.8118V16.5922C20.6336 16.2422 20.3915 15.9388 20.0503 15.861L16.306 15.0073C16.0565 14.9504 15.7952 15.0247 15.6129 15.2043L12.7632 18.012C11.5838 17.3129 10.3566 16.3881 9.13915 15.1706C7.86819 13.8996 6.9014 12.5997 6.17381 11.3334L8.97653 8.69482C9.16552 8.5169 9.24908 8.25391 9.19744 7.99953L8.40825 4.11202C8.33729 3.76245 8.02994 3.51123 7.67325 3.51123H3.40234Z" fill="black"/>
</svg>
