<svg width="24" height="24" viewBox="0 0 24 24" fill="none" xmlns="http://www.w3.org/2000/svg">
<path d="M9.6875 7.60383C9.76643 8.92038 10.1078 9.78591 10.5333 10.4084C10.9427 11.0071 11.4533 11.4195 12.0007 11.8071L12.0008 6.86621C11.2989 7.3482 10.5042 7.53717 9.6875 7.60383Z" fill="black"/>
<path d="M4.58789 5C4.58789 3.75736 5.59525 2.75 6.83789 2.75H17.1622C18.4049 2.75 19.4122 3.75736 19.4122 5V19C19.4122 20.2426 18.4049 21.25 17.1622 21.25H6.83789C5.59525 21.25 4.58789 20.2426 4.58789 19V5ZM15.9046 15.8745V14.6245H8.09375V15.8745H15.9046ZM8.09375 18.5566H15.9046V17.3066H8.09375V18.5566ZM12.425 5.60916L12.0005 5.21631L11.576 5.60916C10.9535 6.18523 10.1456 6.36351 9.03338 6.38406L8.41992 6.39539V7.00895C8.41992 8.86966 8.847 10.1571 9.50109 11.1138C10.1414 12.0504 10.9676 12.6173 11.6344 13.0747L12.0004 13.3258L12.3664 13.0747C13.0332 12.6172 13.8594 12.0504 14.4998 11.1138C15.1539 10.1571 15.581 8.86967 15.581 7.00895V6.39539L14.9675 6.38406C13.8553 6.36351 13.0475 6.18523 12.425 5.60916Z" fill="black"/>
</svg>
