<svg width="24" height="24" viewBox="0 0 24 24" fill="none" xmlns="http://www.w3.org/2000/svg">
<path d="M6.14792 9.98023C6.2287 11.5311 6.62462 12.5502 7.12563 13.283C7.60983 13.9913 8.21663 14.4725 8.85775 14.9235C9.49889 14.4725 10.1057 13.9913 10.5899 13.283C11.091 12.5502 11.4869 11.5311 11.5677 9.98023C10.6031 9.90992 9.67163 9.69512 8.85785 9.11935C8.04405 9.69512 7.11257 9.90992 6.14792 9.98023Z" fill="black"/>
<path d="M4.25 4.57495C3.00736 4.57495 2 5.58231 2 6.82495V17.175C2 18.4176 3.00736 19.425 4.25 19.425H19.75C20.9926 19.425 22 18.4176 22 17.175V6.82495C22 5.58231 20.9926 4.57495 19.75 4.57495H4.25ZM8.85785 7.4646L9.28236 7.85745C10.0109 8.53165 10.9525 8.73455 12.2194 8.75795L12.8328 8.76928V9.38285C12.8328 11.4784 12.3521 12.9204 11.6218 13.9885C10.9049 15.0372 9.97924 15.6722 9.22236 16.1915L8.85775 16.4417L8.49323 16.1916C7.73632 15.6723 6.81068 15.0372 6.09373 13.9885C5.36352 12.9204 4.88281 11.4784 4.88281 9.38285V8.76928L5.49627 8.75795C6.76312 8.73455 7.70481 8.53165 8.43334 7.85745L8.85785 7.4646ZM14.8164 10.665V9.16504H19.1167V10.665H14.8164ZM14.8164 13.5303V12.0303H19.1167V13.5303H14.8164Z" fill="black"/>
</svg>
