<svg width="24" height="24" viewBox="0 0 24 24" fill="none" xmlns="http://www.w3.org/2000/svg">
<path d="M11.25 2.96484V12.6548H12.75V2.96484H11.25Z" fill="black"/>
<path d="M4.5 11.9249C4.5 9.69447 5.47365 7.69142 7.01912 6.31761L5.95428 5.25781C4.13959 6.90436 3 9.28156 3 11.9249C3 16.8955 7.02944 20.9249 12 20.9249C16.9706 20.9249 21 16.8955 21 11.9249C21 9.28196 19.8608 6.90508 18.0466 5.25856L16.9817 6.31836C18.5267 7.69214 19.5 9.69487 19.5 11.9249C19.5 16.0671 16.1421 19.4249 12 19.4249C7.85786 19.4249 4.5 16.0671 4.5 11.9249Z" fill="black"/>
</svg>
