<svg width="24" height="24" viewBox="0 0 24 24" fill="none" xmlns="http://www.w3.org/2000/svg">
<path d="M9.24414 5.89014C9.24414 4.37135 10.4754 3.14014 11.9941 3.14014C13.5129 3.14014 14.7441 4.37135 14.7441 5.89014C14.7441 7.40892 13.5129 8.64014 11.9941 8.64014C10.4754 8.64014 9.24414 7.40892 9.24414 5.89014Z" fill="black"/>
<path d="M5.69531 11.9962C5.69531 10.4774 6.92653 9.24622 8.44531 9.24622C9.9641 9.24622 11.1953 10.4774 11.1953 11.9962C11.1953 13.515 9.9641 14.7462 8.44531 14.7462C6.92653 14.7462 5.69531 13.515 5.69531 11.9962Z" fill="black"/>
<path d="M12.7812 11.9962C12.7812 10.4774 14.0125 9.24622 15.5312 9.24622C17.05 9.24622 18.2812 10.4774 18.2812 11.9962C18.2812 13.515 17.05 14.7462 15.5312 14.7462C14.0125 14.7462 12.7812 13.515 12.7812 11.9962Z" fill="black"/>
<path d="M9.24414 18.11C9.24414 16.5913 10.4754 15.36 11.9941 15.36C13.5129 15.36 14.7441 16.5913 14.7441 18.11C14.7441 19.6288 13.5129 20.86 11.9941 20.86C10.4754 20.86 9.24414 19.6288 9.24414 18.11Z" fill="black"/>
<path d="M16.3359 18.11C16.3359 16.5913 17.5672 15.36 19.0859 15.36C20.6047 15.36 21.8359 16.5913 21.8359 18.11C21.8359 19.6288 20.6047 20.86 19.0859 20.86C17.5672 20.86 16.3359 19.6288 16.3359 18.11Z" fill="black"/>
<path d="M2.16406 18.11C2.16406 16.5913 3.39528 15.36 4.91406 15.36C6.43285 15.36 7.66406 16.5913 7.66406 18.11C7.66406 19.6288 6.43285 20.86 4.91406 20.86C3.39528 20.86 2.16406 19.6288 2.16406 18.11Z" fill="black"/>
</svg>
