<svg width="24" height="24" viewBox="0 0 24 24" fill="none" xmlns="http://www.w3.org/2000/svg">
<path d="M7.29102 11.7457C6.612 11.7457 5.9816 11.9539 5.46023 12.31C5.45668 12.165 5.46011 12.0104 5.47183 11.8472C5.52147 11.1564 5.71761 10.3497 6.12028 9.53446C6.92081 7.91377 8.34678 6.88036 9.18114 6.39081L9.63868 6.12236L8.9072 5.0293L8.5098 5.23644C6.47771 6.29563 5.45006 7.52541 4.81121 8.28992L4.74447 8.36948L4.73677 8.37916C4.27404 8.96019 3.19141 10.5897 3.19141 13.1616C3.19141 16.0577 4.99319 17.4873 5.81404 17.8926L5.81451 17.8917C6.25755 18.118 6.75938 18.2457 7.29102 18.2457C9.08595 18.2457 10.541 16.7906 10.541 14.9957C10.541 13.2007 9.08595 11.7457 7.29102 11.7457Z" fill="black"/>
<path d="M17.3242 11.7457C16.6452 11.7457 16.0148 11.9539 15.4934 12.31C15.4899 12.165 15.4933 12.0104 15.505 11.8472C15.5547 11.1564 15.7508 10.3497 16.1535 9.53446C16.954 7.91377 18.38 6.88036 19.2143 6.39081L19.6719 6.12236L18.9404 5.0293L18.543 5.23644C16.5109 6.29563 15.4833 7.52541 14.8444 8.28992L14.7777 8.36948L14.77 8.37916C14.3072 8.96019 13.2246 10.5897 13.2246 13.1616C13.2246 16.0577 15.0264 17.4873 15.8472 17.8926L15.8477 17.8917C16.2907 18.118 16.7926 18.2457 17.3242 18.2457C19.1192 18.2457 20.5742 16.7906 20.5742 14.9957C20.5742 13.2007 19.1192 11.7457 17.3242 11.7457Z" fill="black"/>
</svg>
