<svg width="24" height="24" viewBox="0 0 24 24" fill="none" xmlns="http://www.w3.org/2000/svg">
<path d="M18.4374 19.0522H15.2661C15.7381 18.0509 16.002 16.9322 16.002 15.7519C16.002 13.2323 14.7996 10.9936 12.9374 9.5781V8.30872H9.37673L15.6874 1.99805L21.998 8.30871L18.4374 8.30871L18.4374 19.0522Z" fill="black"/>
<path d="M6.53906 13.8156C6.53906 13.9398 6.43839 14.0405 6.31421 14.0405C6.19003 14.0405 6.08936 13.9398 6.08936 13.8156C6.08936 13.6914 6.19003 13.5908 6.31421 13.5908C6.43839 13.5908 6.53906 13.6914 6.53906 13.8156Z" fill="black"/>
<path d="M10.4141 17.6893C10.4141 17.8137 10.3133 17.9145 10.1889 17.9145C10.0645 17.9145 9.96373 17.8137 9.96373 17.6893C9.96373 17.565 10.0645 17.4642 10.1889 17.4642C10.3133 17.4642 10.4141 17.565 10.4141 17.6893Z" fill="black"/>
<path d="M2.00195 15.7519C2.00195 12.3001 4.80017 9.50189 8.25195 9.50189C11.7037 9.50189 14.502 12.3001 14.502 15.7519C14.502 19.2037 11.7037 22.0019 8.25195 22.0019C4.80017 22.0019 2.00195 19.2037 2.00195 15.7519ZM6.31421 12.5405C5.60997 12.5405 5.03906 13.1114 5.03906 13.8156C5.03906 14.5199 5.60997 15.0908 6.31421 15.0908C7.01845 15.0908 7.58936 14.5199 7.58936 13.8156C7.58936 13.1114 7.01845 12.5405 6.31421 12.5405ZM10.3063 12.6357L5.13477 17.8072L6.19543 18.8679L11.367 13.6963L10.3063 12.6357ZM10.1889 16.4145C9.48482 16.4145 8.91406 16.9853 8.91406 17.6893C8.91406 18.3934 9.48482 18.9642 10.1889 18.9642C10.893 18.9642 11.4637 18.3934 11.4637 17.6893C11.4637 16.9853 10.893 16.4145 10.1889 16.4145Z" fill="black"/>
</svg>
