<svg width="24" height="24" viewBox="0 0 24 24" fill="none" xmlns="http://www.w3.org/2000/svg">
<path d="M1.35742 4.5625H23.0859V19.4376H1.35742V4.5625ZM7.71007 8.93627C7.71007 8.03581 6.98011 7.30585 6.07965 7.30585C5.17919 7.30585 4.44922 8.03581 4.44922 8.93627C4.44922 9.83673 5.17919 10.5667 6.07965 10.5667C6.98011 10.5667 7.71007 9.83673 7.71007 8.93627ZM15.8926 13.9519H20.151V12.4519H15.8926V13.9519ZM20.1504 16.6565V15.1565L14.0293 15.1565V16.6565L20.1504 16.6565ZM10.9878 15.4758C11.8883 15.4758 12.6183 14.7458 12.6183 13.8453C12.6183 12.9449 11.8883 12.2149 10.9878 12.2149C10.0874 12.2149 9.35742 12.9449 9.35742 13.8453C9.35742 14.7458 10.0874 15.4758 10.9878 15.4758ZM12.6185 8.38991L11.5579 7.32922L4.45312 14.4337L5.51376 15.4943L12.6185 8.38991Z" fill="black"/>
</svg>
