<svg width="24" height="24" viewBox="0 0 24 24" fill="none" xmlns="http://www.w3.org/2000/svg">
<path d="M12.0391 4.25C8.96638 4.25 6.30989 6.03858 5.05656 8.63281H9.03711V10.1328H2.70898V3.8042H4.20898V7.07343C5.84649 4.47617 8.74056 2.75 12.0391 2.75C17.1477 2.75 21.2891 6.89137 21.2891 12C21.2891 17.1086 17.1477 21.25 12.0391 21.25C7.2683 21.25 3.34109 17.6383 2.84249 13H4.35298C4.84353 16.8078 8.09771 19.75 12.0391 19.75C16.3193 19.75 19.7891 16.2802 19.7891 12C19.7891 7.71979 16.3193 4.25 12.0391 4.25Z" fill="black"/>
<path d="M12.0391 13.834C13.0519 13.834 13.873 13.0129 13.873 12C13.873 10.9871 13.0519 10.166 12.0391 10.166C11.0262 10.166 10.2051 10.9871 10.2051 12C10.2051 13.0129 11.0262 13.834 12.0391 13.834Z" fill="black"/>
</svg>
