<svg width="24" height="24" viewBox="0 0 24 24" fill="none" xmlns="http://www.w3.org/2000/svg">
<path d="M10.3467 1.42822L9.28608 2.48888L11.4101 4.61294C11.1253 4.58574 10.8366 4.57183 10.5449 4.57183C5.57436 4.57183 1.54492 8.60127 1.54492 13.5718C1.54492 18.5424 5.57436 22.5718 10.5449 22.5718C11.9202 22.5718 13.2246 22.2629 14.3915 21.7105L13.3427 20.5328C12.4786 20.8805 11.5346 21.0718 10.5449 21.0718C6.40279 21.0718 3.04492 17.714 3.04492 13.5718C3.04492 9.4297 6.40279 6.07183 10.5449 6.07183C10.8097 6.07183 11.0712 6.08553 11.3286 6.11223L9.28608 8.15479L10.3467 9.21545L14.2403 5.32183L10.3467 1.42822Z" fill="black"/>
<path d="M10.8732 13.5526L16.6646 7.76123L22.456 13.5526L16.6646 19.344L10.8732 13.5526ZM16.6646 17.2227L20.3346 13.5526L16.6646 9.88255L12.9945 13.5526L16.6646 17.2227Z" fill="black"/>
</svg>
