<svg width="24" height="24" viewBox="0 0 24 24" fill="none" xmlns="http://www.w3.org/2000/svg">
<path d="M9.44727 4.57812C6.75488 4.57812 4.57227 6.76074 4.57227 9.45312C4.57227 12.1455 6.75488 14.3281 9.44727 14.3281C12.1397 14.3281 14.3223 12.1455 14.3223 9.45312C14.3223 6.76074 12.1397 4.57812 9.44727 4.57812ZM3.07227 9.45312C3.07227 5.93231 5.92645 3.07812 9.44727 3.07812C12.9681 3.07812 15.8223 5.93231 15.8223 9.45312C15.8223 10.9325 15.3183 12.2942 14.4728 13.376L21.045 19.9482L19.9843 21.0089L13.417 14.4416C12.3279 15.3095 10.9482 15.8281 9.44727 15.8281C5.92645 15.8281 3.07227 12.9739 3.07227 9.45312ZM9.44967 5.78558L10.2962 8.28616H12.8262L10.7884 9.97213L11.6108 12.5816L9.44633 10.9595L7.2683 12.5811L8.12423 9.97586L6.01771 8.28616H8.59861L9.44967 5.78558Z" fill="black"/>
</svg>
