<svg width="24" height="24" viewBox="0 0 24 24" fill="none" xmlns="http://www.w3.org/2000/svg">
<path d="M9.44727 4.5896C12.1397 4.5896 14.3223 6.77221 14.3223 9.4646C14.3223 10.8008 13.7847 12.0114 12.9141 12.892L12.8746 12.9314C11.994 13.802 10.7834 14.3396 9.44727 14.3396C6.75488 14.3396 4.57227 12.157 4.57227 9.4646C4.57227 6.77221 6.75488 4.5896 9.44727 4.5896ZM14.4729 13.3873C15.3184 12.3056 15.8223 10.9439 15.8223 9.4646C15.8223 5.94378 12.9681 3.0896 9.44727 3.0896C5.92645 3.0896 3.07227 5.94378 3.07227 9.4646C3.07227 12.9854 5.92645 15.8396 9.44727 15.8396C10.9482 15.8396 12.328 15.3209 13.4172 14.4529L19.9843 21.0201L21.045 19.9594L14.4729 13.3873Z" fill="black"/>
</svg>
