<svg width="24" height="25" viewBox="0 0 24 25" fill="none" xmlns="http://www.w3.org/2000/svg">
<path d="M13.2443 9.16513V10.5098H10.7559V9.16513C10.7559 8.47796 11.3129 7.9209 12.0001 7.9209C12.6873 7.9209 13.2443 8.47796 13.2443 9.16513Z" fill="black"/>
<path d="M20.1602 5.89736L12 2.96875L3.83984 5.89736V12.5544C3.83984 14.5037 4.64107 16.775 6.00537 18.693C7.3738 20.6169 9.36605 22.2649 11.8223 22.8629L11.9997 22.9062L12.1772 22.8629C14.6334 22.2649 16.6258 20.6169 17.9944 18.6931C19.3588 16.7751 20.1602 14.5037 20.1602 12.5544V5.89736ZM9.25586 9.16513C9.25586 7.64953 10.4845 6.4209 12.0001 6.4209C13.5157 6.4209 14.7443 7.64953 14.7443 9.16513V10.5098H14.9725C15.6629 10.5098 16.2225 11.0694 16.2225 11.7598V16.1567C16.2225 16.8471 15.6629 17.4067 14.9725 17.4067H9.0293C8.33894 17.4067 7.7793 16.8471 7.7793 16.1567V11.7598C7.7793 11.0694 8.33894 10.5098 9.0293 10.5098H9.25586V9.16513Z" fill="black"/>
</svg>
