<svg width="24" height="24" viewBox="0 0 24 24" fill="none" xmlns="http://www.w3.org/2000/svg">
<path d="M18.9911 2.27759L5.00391 15.7853L13.232 15.774L18.9968 21.7223L18.9911 2.27759Z" fill="black"/>
<path d="M6.00448 7.94627C5.37864 7.32043 5.04646 6.56943 5.00795 5.69325C4.96944 4.81708 5.23181 4.04441 5.79506 3.37524L6.00448 3.16582H5.10905L5.10905 2.28483L7.51372 2.27761L7.50649 4.68228L6.63995 4.69672L6.63995 3.78685L6.43053 3.99626C6.04059 4.46324 5.85765 5.01686 5.88172 5.65715C5.90579 6.29743 6.15372 6.85346 6.6255 7.32525C6.7603 7.46005 6.90473 7.57328 7.05878 7.66494C7.21283 7.75621 7.3717 7.83074 7.53538 7.8885L7.53538 8.79838C7.24653 8.72135 6.97222 8.61303 6.71245 8.47342C6.45229 8.33381 6.2163 8.1581 6.00448 7.94627Z" fill="black"/>
<path d="M9.22467 6.40092L9.21745 8.80559L11.6221 8.79837V7.91738H10.7267L10.9361 7.70796C11.4994 7.03879 11.7617 6.26612 11.7232 5.38995C11.6847 4.51377 11.3525 3.76276 10.7267 3.13692C10.5149 2.9251 10.2791 2.74939 10.0193 2.60977C9.75913 2.47016 9.48463 2.36185 9.19578 2.28482V3.19469C9.35946 3.25246 9.51843 3.32708 9.67267 3.41855C9.82653 3.51002 9.97086 3.62315 10.1057 3.75795C10.5774 4.22974 10.8254 4.78577 10.8494 5.42605C10.8735 6.06633 10.6906 6.61996 10.3006 7.08694L10.0912 7.29635V6.38648L9.22467 6.40092Z" fill="black"/>
</svg>
