<svg width="24" height="24" viewBox="0 0 24 24" fill="none" xmlns="http://www.w3.org/2000/svg">
<path d="M2.625 4.875C2.625 3.63236 3.63236 2.625 4.875 2.625H19.125C20.3676 2.625 21.375 3.63236 21.375 4.875V19.125C21.375 20.3676 20.3676 21.375 19.125 21.375H14.5425L14.5428 9.45997L2.625 9.45995V4.875Z" fill="black"/>
<path d="M2.625 10.9551H4.76874V12.4551H4.125V13.0988H2.625V10.9551Z" fill="black"/>
<path d="M6.44122 10.9551H9.2287V12.4551H6.44122V10.9551Z" fill="black"/>
<path d="M10.9012 10.9551H13.0449V13.0988H11.5449V12.4551H10.9012V10.9551Z" fill="black"/>
<path d="M2.625 17.5588V14.7713H4.125V17.5588H2.625Z" fill="black"/>
<path d="M13.0449 14.7713V17.5588H11.5449V14.7713H13.0449Z" fill="black"/>
<path d="M2.625 19.2313H4.125V19.875H4.76874V21.375H2.625V19.2313Z" fill="black"/>
<path d="M13.0449 19.2313V21.375H10.9012V19.875H11.5449V19.2313H13.0449Z" fill="black"/>
<path d="M9.2287 21.375H6.44122V19.875H9.2287V21.375Z" fill="black"/>
</svg>
