<svg width="24" height="24" viewBox="0 0 24 24" fill="none" xmlns="http://www.w3.org/2000/svg">
<path d="M6.143 1.24902H9.95323L10.2426 3.37697C10.4913 3.49524 10.7287 3.6329 10.9531 3.78796L12.9417 2.97423L14.688 5.99902H13.2512C12.0085 5.99902 11.0012 7.00638 11.0012 8.24902V12.2301L10.9527 12.2103C10.7284 12.3652 10.4911 12.5028 10.2427 12.6209L9.95323 14.749H6.143L5.85366 12.6217C5.6049 12.5034 5.36731 12.3658 5.14283 12.2107L3.15543 13.024L1.25032 9.72423L2.94794 8.41002C2.93712 8.2743 2.93162 8.13721 2.93162 7.99897C2.93162 7.86091 2.93711 7.72401 2.94789 7.58848L1.25 6.27406L3.15511 2.9743L5.1424 3.78752C5.36701 3.63233 5.60475 3.49458 5.85368 3.37627L6.143 1.24902ZM8.04818 5.55078C6.69587 5.55078 5.59961 6.64704 5.59961 7.99935C5.59961 9.35166 6.69587 10.4479 8.04818 10.4479C9.40048 10.4479 10.4967 9.35166 10.4967 7.99935C10.4967 6.64704 9.40049 5.55078 8.04818 5.55078Z" fill="black"/>
<path d="M14.0022 8.24902C14.0022 7.83481 13.6664 7.49902 13.2522 7.49902C12.838 7.49902 12.5022 7.83481 12.5022 8.24902V16.5138L10.3541 15.9255C9.99393 15.8268 9.6191 15.8475 9.28106 15.9734C9.04015 16.063 8.81764 16.2058 8.63272 16.3972L8.11719 16.9308L13.1304 21.9449C13.6461 22.4608 14.3457 22.7506 15.0751 22.7506H19.0025C21.0736 22.7506 22.7525 21.0717 22.7525 19.0006V14.9998C22.7525 14.5856 22.4167 14.2498 22.0025 14.2498C21.5883 14.2498 21.2525 14.5856 21.2525 14.9998V15.3828H19.8418V12.9985C19.8418 12.5843 19.506 12.2485 19.0918 12.2485C18.6776 12.2485 18.3418 12.5843 18.3418 12.9985V15.3828H16.9199V11.9971C16.9199 11.5829 16.5841 11.2471 16.1699 11.2471C15.7557 11.2471 15.4199 11.5829 15.4199 11.9971V15.3828H14.0022V8.24902Z" fill="black"/>
</svg>
