<svg width="24" height="24" viewBox="0 0 24 24" fill="none" xmlns="http://www.w3.org/2000/svg">
<path d="M18.0344 5.25V2L22 6L18.0344 10V6.75H14.8735C14.6065 6.75 14.3596 6.89168 14.2251 7.1221L11.377 12L14.2251 16.8779C14.3596 17.1083 14.6065 17.25 14.8735 17.25H18.0344V14L22 18L18.0344 22V18.75H14.8735C14.0725 18.75 13.3318 18.325 12.9282 17.6337L10.5079 13.4885L8.08759 17.6337C7.68399 18.3249 6.94328 18.75 6.14228 18.75H2V17.25H6.14228C6.40928 17.25 6.65619 17.1083 6.79072 16.8779L9.6388 12L6.79072 7.1221C6.65619 6.89168 6.40928 6.75 6.14228 6.75H2V5.25H6.14228C6.94328 5.25 7.68399 5.67505 8.08759 6.36629L10.5079 10.5115L12.9282 6.36629C13.3318 5.67505 14.0725 5.25 14.8735 5.25H18.0344Z" fill="black"/>
</svg>
