<svg width="24" height="24" viewBox="0 0 24 24" fill="none" xmlns="http://www.w3.org/2000/svg">
<path d="M12 2C6.47656 2 2 6.47705 2 12C2 17.5229 6.47656 22 12 22C17.5234 22 22 17.5229 22 12C22 6.47705 17.5234 2 12 2ZM14.625 10.8147L14.3398 12.6252H12.8691V17.0044H10.8945V12.6252H9.29297V10.8147H10.8945V9.43408C10.8945 7.86401 11.8379 6.99561 13.2832 6.99561C13.7598 7.00146 14.2363 7.04199 14.707 7.11719V8.65894H13.8984C13.1152 8.65894 12.8691 9.14282 12.8691 9.63794V10.8147H14.625Z" fill="black"/>
</svg>
