<svg width="24" height="24" viewBox="0 0 24 24" fill="none" xmlns="http://www.w3.org/2000/svg">
<path d="M12 2C6.47656 2 2 6.47705 2 12C2 17.5229 6.47656 22 12 22C17.5234 22 22 17.5229 22 12C22 6.47705 17.5234 2 12 2ZM16.5078 9.21484C16.7461 9.15869 16.9805 9.08154 17.2051 8.98438C17.25 8.96558 17.25 8.95825 17.25 8.9939C17.252 9.05615 17.2324 9.11719 17.1934 9.16504C16.9629 9.48657 16.6895 9.77319 16.3789 10.0159C16.3535 10.0337 16.3203 10.0527 16.2949 10.0762C16.2715 10.0969 16.2539 10.1213 16.2539 10.1514C16.2539 11.8389 15.8223 13.5239 14.5918 14.7456C13.0273 16.3022 10.6816 16.7253 8.5957 16.1501C8.19336 16.0349 7.80469 15.8755 7.4375 15.6748C7.31445 15.6082 7.19531 15.5393 7.07617 15.4609C7.05078 15.4373 7.02734 15.4109 7.05078 15.3992C7.07422 15.3872 7.0957 15.3848 7.18945 15.3992C7.77539 15.4514 8.36719 15.3752 8.92188 15.1758L9.00391 15.1484C9.33203 15.0376 9.90234 14.8447 10.0527 14.5696L10.0664 14.5554C9.98047 14.5364 9.9043 14.5364 9.82812 14.5244C9.47852 14.4224 9.04688 14.269 8.6875 13.9302C8.47852 13.7327 8.29492 13.4722 8.16602 13.1223C8.15625 13.095 8.15625 13.0737 8.16406 13.0605C8.17383 13.0474 8.19531 13.0425 8.22461 13.0486C8.48828 13.0845 8.75781 13.0764 9.01953 13.0249C8.92773 13.0066 8.83789 12.9785 8.75195 12.9417C8.39648 12.7983 8.08789 12.5635 7.85352 12.2612C7.61914 11.959 7.4707 11.5999 7.42188 11.2209C7.41406 11.1418 7.41406 11.0623 7.42188 10.9832C7.42383 10.9263 7.44922 10.9097 7.49805 10.9404C7.75 11.0693 8.02539 11.1462 8.30859 11.1663C8.21875 11.095 8.13281 11.0188 8.05078 10.9404C7.43359 10.3535 7.19336 9.16504 7.6875 8.41406C7.70898 8.38403 7.72656 8.36987 7.74414 8.37134C7.76172 8.3728 7.7793 8.38696 7.80273 8.41406C8.93945 9.70459 10.3281 10.3059 12.0215 10.5554C12.0645 10.5625 12.0645 10.5554 12.0645 10.5056C12.0293 10.3069 12.0234 10.1047 12.043 9.90479C12.0508 9.81128 12.0645 9.71826 12.084 9.62622C12.1621 9.32227 12.3047 9.03882 12.5 8.79443C12.6875 8.55688 12.9199 8.35962 13.1836 8.21436C13.3379 8.13525 13.502 8.07495 13.6699 8.03418C13.793 8.00415 13.9199 7.98486 14.0488 7.97681C14.3594 7.95703 14.6699 8.0083 14.959 8.12646C15.0605 8.17139 15.1582 8.22388 15.252 8.28345C15.3535 8.34888 15.4512 8.42285 15.543 8.50439C15.5801 8.53931 15.6152 8.57666 15.6484 8.61621C15.6602 8.6272 15.6738 8.63501 15.6895 8.63867C15.7031 8.64233 15.7188 8.64209 15.7344 8.63745C16.1602 8.53101 16.5723 8.37134 16.957 8.16211L16.9844 8.15527C16.9941 8.15527 17.0039 8.15747 17.0117 8.16211C17.0234 8.17017 17.0195 8.18335 17.0156 8.19629L17.0117 8.21436C16.9395 8.43848 16.8281 8.64722 16.6797 8.83008C16.582 8.95117 16.3379 9.25073 16.1719 9.2793C16.2852 9.26245 16.3965 9.24097 16.5078 9.21484Z" fill="black"/>
</svg>
