<svg width="24" height="24" viewBox="0 0 24 24" fill="none" xmlns="http://www.w3.org/2000/svg">
<path d="M14.7378 2.04277C14.4163 1.95661 14.0737 2.00172 13.7854 2.16817C13.5093 2.34066 13.311 2.61359 13.2323 2.92943C13.1535 3.24527 13.2005 3.57934 13.3633 3.86124C13.526 4.14314 13.7918 4.35084 14.1047 4.44056C14.4176 4.53029 14.7531 4.49503 15.0406 4.34221C15.3289 4.17577 15.5392 3.90161 15.6254 3.58006C15.7115 3.2585 15.6664 2.91589 15.5 2.6276C15.3335 2.3393 15.0594 2.12893 14.7378 2.04277Z" fill="black"/>
<path d="M7.64834 3.35801C7.79152 3.27534 7.956 3.23697 8.12098 3.24775C8.28597 3.25852 8.44405 3.31796 8.57527 3.41855C8.70648 3.51914 8.80494 3.65637 8.85819 3.81289C8.91144 3.96942 8.9171 4.13822 8.87446 4.29796C8.83181 4.4577 8.74277 4.60121 8.61859 4.71037C8.49441 4.81952 8.34066 4.88942 8.17677 4.91123C8.01288 4.93303 7.8462 4.90577 7.6978 4.83288C7.5494 4.75999 7.42593 4.64475 7.343 4.50172C7.28785 4.4066 7.252 4.30154 7.2375 4.19255C7.223 4.08356 7.23013 3.97277 7.25849 3.86654C7.28685 3.76031 7.33588 3.66072 7.40278 3.57346C7.46967 3.4862 7.55312 3.41298 7.64834 3.35801Z" fill="black"/>
<path d="M4.04029 8.82428C4.13633 8.76883 4.25047 8.75381 4.35759 8.78251C4.4647 8.81121 4.55603 8.88129 4.61148 8.97733C4.66693 9.07337 4.68196 9.1875 4.65326 9.29462C4.62455 9.40174 4.55447 9.49307 4.45843 9.54852C4.36239 9.60397 4.24826 9.619 4.14114 9.59029C4.03402 9.56159 3.94269 9.49151 3.88724 9.39547C3.83179 9.29943 3.81677 9.1853 3.84547 9.07818C3.87417 8.97106 3.94425 8.87973 4.04029 8.82428Z" fill="black"/>
<path d="M5.2218 12.1734C4.56131 12.1301 3.90281 12.2836 3.32959 12.6146C2.56091 13.0584 2.00002 13.7894 1.77029 14.6467C1.54057 15.504 1.66083 16.4175 2.10463 17.1862C2.43558 17.7594 2.92908 18.2216 3.52273 18.5144C4.11637 18.8072 4.7835 18.9173 5.43974 18.8309C6.09598 18.7445 6.71187 18.4655 7.20952 18.029C7.70716 17.5926 8.06422 17.0184 8.23554 16.3791C8.40685 15.7397 8.38473 15.0639 8.17196 14.4371C7.9592 13.8104 7.56535 13.2607 7.04023 12.8578C6.5151 12.4549 5.88229 12.2167 5.2218 12.1734Z" fill="black"/>
<path d="M16.5973 16.0712C16.1019 16.0387 15.6079 16.1539 15.178 16.4021C14.6014 16.735 14.1806 17.2833 14.0083 17.9264C13.836 18.5695 13.9262 19.2548 14.2591 19.8313C14.5073 20.2613 14.8775 20.608 15.3228 20.8276C15.7681 21.0472 16.2686 21.1299 16.7608 21.0651C17.2531 21.0002 17.7151 20.7909 18.0883 20.4636C18.4616 20.1362 18.7295 19.7055 18.858 19.2259C18.9865 18.7463 18.9699 18.2394 18.8103 17.7692C18.6507 17.2991 18.3553 16.8868 17.9614 16.5845C17.5675 16.2823 17.0928 16.1036 16.5973 16.0712Z" fill="black"/>
<path d="M7.44013 19.6869C7.39544 19.3389 7.42028 18.9856 7.51321 18.6473C7.70269 17.9605 8.15346 17.3766 8.77048 17.0204C9.3875 16.6641 10.1199 16.5649 10.8094 16.7443C11.1488 16.8329 11.4673 16.9881 11.7462 17.2007C12.0252 17.4134 12.2592 17.6793 12.4346 17.9831C12.61 18.2869 12.7233 18.6225 12.768 18.9704C12.8127 19.3184 12.7878 19.6717 12.6949 20.01C12.5052 20.6964 12.0533 21.2806 11.4366 21.6367C10.8199 21.9927 10.0879 22.092 9.39867 21.913C9.05927 21.8244 8.74085 21.6692 8.46188 21.4566C8.1829 21.2439 7.94894 20.978 7.77354 20.6742C7.59815 20.3704 7.48482 20.0348 7.44013 19.6869Z" fill="black"/>
<path d="M18.6611 5.69354C18.9479 5.52795 19.2774 5.45115 19.6078 5.47285C19.9383 5.49454 20.2549 5.61377 20.5176 5.81543C20.7803 6.01709 20.9772 6.29214 21.0836 6.60577C21.1899 6.9194 21.2008 7.25752 21.115 7.57737C21.0291 7.89722 20.8503 8.18441 20.6012 8.40262C20.3521 8.62084 20.0439 8.76026 19.7155 8.80326C19.3871 8.84627 19.0534 8.79091 18.7565 8.6442C18.4596 8.49749 18.2129 8.26602 18.0476 7.97906C17.826 7.59458 17.7662 7.13788 17.8813 6.70932C17.9963 6.28076 18.2768 5.9154 18.6611 5.69354Z" fill="black"/>
<path d="M20.3857 11.3848C19.9728 11.3577 19.5611 11.4537 19.2027 11.6606C18.7222 11.9381 18.3715 12.395 18.2279 12.931C18.0843 13.467 18.1595 14.0381 18.4369 14.5187C18.6438 14.877 18.9523 15.166 19.3235 15.349C19.6946 15.532 20.1117 15.6009 20.5219 15.5469C20.9322 15.4929 21.3172 15.3184 21.6283 15.0456C21.9395 14.7727 22.1627 14.4138 22.2698 14.0141C22.3769 13.6143 22.3631 13.1919 22.23 12.8C22.097 12.4082 21.8508 12.0646 21.5225 11.8127C21.1942 11.5608 20.7986 11.4119 20.3857 11.3848Z" fill="black"/>
</svg>
