<svg width="24" height="24" viewBox="0 0 24 24" fill="none" xmlns="http://www.w3.org/2000/svg">
<path d="M20.748 18.9424V10.9731C21.1523 10.6216 21.4531 10.1841 21.6562 9.66064C21.8574 9.13672 21.8613 8.56934 21.668 7.95752L20.6367 4.63477C20.4941 4.20361 20.2656 3.86523 19.9512 3.61914C19.6367 3.37305 19.2578 3.25 18.8145 3.25H5.16406C4.7207 3.25 4.33984 3.37891 4.01953 3.63672C3.85742 3.76807 3.71875 3.92041 3.60352 4.09424C3.49414 4.26123 3.40625 4.44775 3.3418 4.65381L2.33008 7.95752C2.23438 8.25928 2.1875 8.55078 2.1875 8.83203C2.18945 9.12109 2.24023 9.39893 2.3418 9.6665C2.54492 10.1938 2.8457 10.623 3.24805 10.9536V18.9424C3.24805 19.4473 3.42383 19.875 3.77344 20.2251C4.02148 20.4736 4.30859 20.6338 4.63477 20.7061C4.76953 20.7354 4.91016 20.75 5.05664 20.75H18.9414C19.2012 20.75 19.4395 20.7036 19.6582 20.6113C19.8652 20.5239 20.0547 20.395 20.2246 20.2251C20.5742 19.875 20.748 19.4473 20.748 18.9424ZM15.4297 9.74902C15.1562 10.083 14.7441 10.25 14.1992 10.25C13.8008 10.25 13.4609 10.0967 13.1758 9.79053C12.8906 9.48389 12.748 9.12061 12.748 8.7002V4.75H15.1602L15.7676 8.67285C15.8184 9.05664 15.7051 9.41504 15.4297 9.74902ZM10.8184 9.79053C10.5332 10.0967 10.1582 10.25 9.69922 10.25C9.21875 10.25 8.8418 10.0825 8.56445 9.74707C8.28711 9.41162 8.17578 9.06689 8.23047 8.71143L8.83789 4.75H11.248V8.7002C11.248 9.12061 11.1055 9.48389 10.8184 9.79053ZM6.20508 9.8623C5.9375 10.1206 5.61914 10.25 5.24805 10.25C4.66211 10.25 4.24219 10.0312 3.98633 9.59326C3.82031 9.31201 3.73438 9.03271 3.73047 8.75537C3.72852 8.60059 3.75195 8.44629 3.79883 8.29248L4.75977 5.03857C4.79297 4.94238 4.83984 4.87012 4.9043 4.82227C4.96875 4.77393 5.05469 4.75 5.16406 4.75H7.28711L6.69922 8.88867C6.66406 9.11279 6.59375 9.31543 6.49023 9.49609C6.41406 9.63037 6.31836 9.75244 6.20508 9.8623ZM19.9902 9.6123C19.7031 10.0376 19.2891 10.25 18.748 10.25C18.3789 10.25 18.0605 10.1206 17.793 9.8623C17.5273 9.604 17.3613 9.2793 17.2988 8.88867L16.7109 4.75H18.7832L18.8516 4.75293C18.9297 4.76025 18.9922 4.78027 19.043 4.8125C19.0742 4.83252 19.1016 4.85889 19.125 4.8916C19.1504 4.92676 19.1719 4.96924 19.1875 5.01904L20.1992 8.29248C20.3477 8.74756 20.2793 9.1875 19.9902 9.6123Z" fill="black"/>
</svg>
