<svg width="24" height="24" viewBox="0 0 24 24" fill="none" xmlns="http://www.w3.org/2000/svg">
<path d="M3 5.25C3 4.00736 4.00736 3 5.25 3H16.079L21 7.97068V12.1855C19.8854 11.127 18.3786 10.4775 16.7201 10.4775C13.287 10.4775 10.5039 13.2606 10.5039 16.6937C10.5039 18.3416 11.1451 19.8397 12.1916 20.9521H5.25C4.00736 20.9521 3 19.9448 3 18.7021V5.25ZM19.5 8.58759L15.4532 4.5H15.0645V8.92529H19.5V8.58759ZM9.05859 7.90381C9.05859 7.28249 8.55491 6.77881 7.93359 6.77881C7.31227 6.77881 6.80859 7.28249 6.80859 7.90381C6.80859 8.52513 7.31227 9.02881 7.93359 9.02881C8.55491 9.02881 9.05859 8.52513 9.05859 7.90381ZM7.93359 13.1011C8.55491 13.1011 9.05859 12.5974 9.05859 11.9761C9.05859 11.3548 8.55491 10.8511 7.93359 10.8511C7.31227 10.8511 6.80859 11.3548 6.80859 11.9761C6.80859 12.5974 7.31227 13.1011 7.93359 13.1011ZM9.05859 16.0479C9.05859 15.4265 8.55491 14.9229 7.93359 14.9229C7.31227 14.9229 6.80859 15.4265 6.80859 16.0479C6.80859 16.6692 7.31227 17.1729 7.93359 17.1729C8.55491 17.1729 9.05859 16.6692 9.05859 16.0479Z" fill="black"/>
<path d="M12.0039 16.6937C12.0039 14.0891 14.1154 11.9775 16.7201 11.9775C19.3248 11.9775 21.4363 14.0891 21.4363 16.6937C21.4363 17.7262 21.1046 18.6811 20.5419 19.4578L22.5045 21.4204L21.4438 22.481L19.4808 20.518C18.7047 21.0792 17.751 21.41 16.7201 21.41C14.1154 21.41 12.0039 19.2984 12.0039 16.6937ZM16.7201 13.4775C14.9439 13.4775 13.5039 14.9175 13.5039 16.6937C13.5039 18.47 14.9439 19.91 16.7201 19.91C18.4964 19.91 19.9363 18.47 19.9363 16.6937C19.9363 14.9175 18.4964 13.4775 16.7201 13.4775Z" fill="black"/>
</svg>
