<svg width="24" height="24" viewBox="0 0 24 24" fill="none" xmlns="http://www.w3.org/2000/svg">
<path d="M11.25 5.53247V1.77759H12.75V5.53247H11.25Z" fill="black"/>
<path d="M11.25 22.2224V18.4675H12.75V22.2224H11.25Z" fill="black"/>
<path d="M22.2227 11.25H18.4678V12.75H22.2227V11.25Z" fill="black"/>
<path d="M1.77734 11.25H5.53223V12.75H1.77734V11.25Z" fill="black"/>
<path d="M18.6982 4.24121L16.043 6.89624L17.1035 7.95703L19.7588 5.30176L18.6982 4.24121Z" fill="black"/>
<path d="M4.24121 18.6982L6.89648 16.0432L7.95703 17.1038L5.30176 19.759L4.24121 18.6982Z" fill="black"/>
<path d="M19.7588 18.6982L17.1035 16.0432L16.043 17.1038L18.6982 19.7588L19.7588 18.6982Z" fill="black"/>
<path d="M5.30176 4.24146L7.95703 6.89648L6.89648 7.95703L4.24121 5.302L5.30176 4.24146Z" fill="black"/>
<path d="M6.82129 11.9976C6.82129 9.13745 9.13965 6.81885 12 6.81885C14.8604 6.81885 17.1787 9.13745 17.1787 11.9976C17.1787 14.8577 14.8604 17.1763 12 17.1763C9.13965 17.1763 6.82129 14.8577 6.82129 11.9976Z" fill="black"/>
</svg>
