<svg width="24" height="24" viewBox="0 0 24 24" fill="none" xmlns="http://www.w3.org/2000/svg">
<path d="M1 11C1 5.47705 5.47754 1 11 1C16.5225 1 21 5.47705 21 11L20.9999 11.0439C19.9058 10.3813 18.6224 10 17.25 10C15.8683 10 14.5769 10.3865 13.4779 11.0573C12.9145 10.5862 12.2579 10.355 11.6738 10.1633L11.4527 10.0912C11.1229 9.98404 10.8037 9.88029 10.4873 9.75073C10.2598 9.65796 10.0332 9.55176 9.80371 9.42163C9.0459 8.9917 8.91504 8.08276 9.54785 7.39502C10.5391 6.54932 11.9971 6.81665 12.7559 7.69751L13.2451 8.26587L14.3818 7.28662L13.8916 6.71851C13.3525 6.09277 12.5752 5.63916 11.7256 5.46143V3.82861H10.2256V5.44727C9.63281 5.56421 9.05078 5.83447 8.53223 6.29028L8.50684 6.31201L8.48438 6.33594C7.23535 7.64624 7.34668 9.75244 9.06348 10.7263C9.75406 11.1181 10.4349 11.3385 10.9946 11.5196L10.999 11.521L11.2061 11.5884C11.635 11.7293 11.9664 11.8532 12.2369 12.0125C11.4045 12.8094 10.7618 13.8028 10.3832 14.9181C10.0595 14.841 9.82002 14.7309 9.71094 14.6445C9.43262 14.4241 9.21973 14.1816 9.07617 13.9929C8.9043 13.7656 8.77148 13.5144 8.63965 13.2627L8.52441 13.0471L7.20605 13.7627L7.30762 13.9517C7.48242 14.2781 7.65723 14.6035 7.88184 14.8997C8.0791 15.1606 8.37793 15.5027 8.78027 15.8208C9.09979 16.0738 9.55428 16.2644 10.0516 16.3807C10.0175 16.6657 10 16.9558 10 17.25C10 18.6224 10.3813 19.9058 11.0439 20.9999L11 21C5.47754 21 1 16.5229 1 11Z" fill="black"/>
<path d="M11.5 17.25C11.5 14.0744 14.0744 11.5 17.25 11.5C20.4256 11.5 23 14.0744 23 17.25C23 20.4256 20.4256 23 17.25 23C14.0744 23 11.5 20.4256 11.5 17.25ZM14.5703 18.8694L15.6311 19.9299L19.93 15.6299L18.8692 14.5693L14.5703 18.8694ZM18.8449 19.7543C19.345 19.7543 19.7504 19.3489 19.7504 18.8488C19.7504 18.3487 19.345 17.9434 18.8449 17.9434C18.3448 17.9434 17.9395 18.3487 17.9395 18.8488C17.9395 19.3489 18.3448 19.7543 18.8449 19.7543ZM16.5609 15.6506C16.5609 15.1505 16.1555 14.7451 15.6555 14.7451C15.1554 14.7451 14.75 15.1505 14.75 15.6506C14.75 16.1506 15.1554 16.556 15.6555 16.556C16.1555 16.556 16.5609 16.1506 16.5609 15.6506Z" fill="black"/>
</svg>
