<svg width="24" height="24" viewBox="0 0 24 24" fill="none" xmlns="http://www.w3.org/2000/svg">
<path d="M17 11.3486H7V9.84863H17V11.3486Z" fill="black"/>
<path d="M11 12.5986H7V17.5986H11V12.5986Z" fill="black"/>
<path d="M17 12.5986H13V17.5986H17V12.5986Z" fill="black"/>
<path d="M3.26758 5.21484L3.25586 5.3501L3.25 5.5V18.5C3.25 19.7427 4.25781 20.75 5.5 20.75H18.5C19.7422 20.75 20.75 19.7427 20.75 18.5V5.5C20.75 4.9082 20.5215 4.37012 20.1484 3.96826C19.7363 3.52637 19.1504 3.25 18.5 3.25H5.5C4.49414 3.25 3.64258 3.91064 3.35547 4.82178C3.31445 4.94824 3.28516 5.07959 3.26758 5.21484ZM4.75 8.25H19.25V18.5C19.25 18.6108 19.2266 18.7158 19.1836 18.8105C19.1074 18.9746 18.9746 19.1069 18.8125 19.1821C18.7168 19.2256 18.6113 19.25 18.5 19.25H5.5C5.08594 19.25 4.75 18.9141 4.75 18.5V8.25Z" fill="black"/>
</svg>
