<svg width="24" height="24" viewBox="0 0 24 24" fill="none" xmlns="http://www.w3.org/2000/svg">
<path d="M20.9042 10.2311C22.1145 10.2311 23.0956 9.24998 23.0956 8.03973C23.0956 6.82949 22.1145 5.84839 20.9042 5.84839C19.694 5.84839 18.7129 6.82949 18.7129 8.03973C18.7129 8.37041 18.7861 8.68397 18.9173 8.9651L15.9167 11.9657C15.6119 11.8051 15.2648 11.7142 14.8964 11.7142C14.5217 11.7142 14.169 11.8083 13.8606 11.974L11.9519 10.0653C12.0583 9.80762 12.1171 9.5252 12.1171 9.22906C12.1171 8.01882 11.136 7.03772 9.92572 7.03772C8.71547 7.03772 7.73438 8.01882 7.73438 9.22906C7.73438 9.53424 7.79676 9.82485 7.90947 10.0888L4.02367 13.9746C3.74187 13.8426 3.42736 13.7689 3.09564 13.7689C1.8854 13.7689 0.904297 14.75 0.904297 15.9603C0.904297 17.1705 1.8854 18.1516 3.09564 18.1516C4.30589 18.1516 5.28699 17.1705 5.28699 15.9603C5.28699 15.6301 5.21399 15.3171 5.08325 15.0363L8.93528 11.1843C9.23275 11.3353 9.5693 11.4204 9.92572 11.4204C10.291 11.4204 10.6354 11.331 10.9382 11.173L12.86 13.0947C12.76 13.3455 12.7051 13.6191 12.7051 13.9056C12.7051 15.1158 13.6862 16.0969 14.8964 16.0969C16.1067 16.0969 17.0878 15.1158 17.0878 13.9056C17.0878 13.6126 17.0303 13.3331 16.926 13.0777L19.9776 10.0261C20.2591 10.1576 20.5731 10.2311 20.9042 10.2311Z" fill="black"/>
</svg>
