<svg width="24" height="24" viewBox="0 0 24 24" fill="none" xmlns="http://www.w3.org/2000/svg">
<path d="M9.75273 3.21436C7.50217 3.21436 5.67773 5.03879 5.67773 7.28936C5.67773 9.53992 7.50217 11.3644 9.75273 11.3644C12.0033 11.3644 13.8277 9.53992 13.8277 7.28936C13.8277 5.03879 12.0033 3.21436 9.75273 3.21436Z" fill="black"/>
<path d="M1.5 17.3382V20.7855H8.03605L8.76324 16.2976L8.17702 14.9897L9.75391 13.8291L11.3308 14.9897L10.7446 16.2976L11.4718 20.7855H12.25V13.6122C11.4552 13.4867 10.6141 13.4177 9.75293 13.4177C7.65566 13.4177 5.67695 13.8267 4.1979 14.4651C3.46041 14.7834 2.81391 15.1731 2.33939 15.6263C1.87088 16.0739 1.5 16.6546 1.5 17.3382Z" fill="black"/>
<path d="M22.5 10.8H13.75V21.9971H17.5738V19.5073H18.6762V21.9971H22.5V10.8ZM17.5291 13.3098V14.5596H16.2793V13.3098H17.5291ZM18.7207 13.3098H19.9705V14.5596H18.7207V13.3098ZM17.5291 15.7659V17.0157H16.2793V15.7659H17.5291ZM18.7207 15.7659H19.9705V17.0157H18.7207V15.7659Z" fill="black"/>
</svg>
