<svg width="24" height="24" viewBox="0 0 24 24" fill="none" xmlns="http://www.w3.org/2000/svg">
<path d="M2.99805 2.75C2.99805 2.33579 3.33383 2 3.74805 2H13.248C13.6623 2 13.998 2.33579 13.998 2.75V7.28405C13.998 7.69826 13.6623 8.03405 13.248 8.03405H5.42277L2.99805 10.0478V2.75Z" fill="black"/>
<path d="M14.6621 9.03405C15.1719 8.62156 15.4978 7.99087 15.4978 7.28405V3H20.2517C20.6659 3 21.0017 3.33579 21.0017 3.75V11.0478L18.577 9.03405H14.6621Z" fill="black"/>
<path d="M11.9989 10.9312C10.3427 10.9312 9 12.2738 9 13.9301C9 15.5863 10.3427 16.929 11.9989 16.929C13.6551 16.929 14.9978 15.5863 14.9978 13.9301C14.9978 12.2738 13.6551 10.9312 11.9989 10.9312Z" fill="black"/>
<path d="M6.09961 23.0039V20.5394C6.09961 20.0507 6.36475 19.6356 6.69969 19.3156C7.03892 18.9916 7.5011 18.713 8.02833 18.4855C9.0857 18.0291 10.5003 17.7367 11.9996 17.7367C13.4989 17.7367 14.9135 18.0291 15.9709 18.4855C16.4981 18.713 16.9603 18.9916 17.2995 19.3156C17.6345 19.6356 17.8996 20.0507 17.8996 20.5394V23.0039H6.09961Z" fill="black"/>
<path d="M20.5986 15.8673C20.5986 14.7627 19.7032 13.8673 18.5986 13.8673C17.4941 13.8673 16.5986 14.7627 16.5986 15.8673C16.5986 16.9719 17.4941 17.8673 18.5986 17.8673C19.7032 17.8673 20.5986 16.9719 20.5986 15.8673Z" fill="black"/>
<path d="M19.2529 20.5393V23.0039H22.75V20.982C22.75 20.5811 22.5479 20.2405 22.2926 19.978C22.0341 19.7121 21.6818 19.4836 21.28 19.2969C20.5563 18.9607 19.6131 18.733 18.6007 18.69C18.9526 19.1522 19.2529 19.773 19.2529 20.5393Z" fill="black"/>
<path d="M5.40137 13.8673C4.2968 13.8673 3.40137 14.7627 3.40137 15.8673C3.40137 16.9719 4.2968 17.8673 5.40137 17.8673C6.50594 17.8673 7.40137 16.9719 7.40137 15.8673C7.40137 14.7627 6.50594 13.8673 5.40137 13.8673Z" fill="black"/>
<path d="M4.74707 23.0039V20.5393C4.74707 19.773 5.04735 19.1522 5.39934 18.69C4.38694 18.733 3.44371 18.9607 2.72002 19.2969C2.31818 19.4836 1.96592 19.7121 1.70737 19.978C1.45209 20.2405 1.25 20.5811 1.25 20.982V23.0039H4.74707Z" fill="black"/>
</svg>
