<svg width="24" height="24" viewBox="0 0 24 24" fill="none" xmlns="http://www.w3.org/2000/svg">
<path d="M6.30125 7.28936C6.30125 5.03879 8.12504 3.21436 10.3748 3.21436C12.6246 3.21436 14.4484 5.03879 14.4484 7.28936C14.4484 9.53992 12.6246 11.3644 10.3748 11.3644C8.12504 11.3644 6.30125 9.53992 6.30125 7.28936Z" fill="black"/>
<path d="M2.125 17.3383V20.7856H12.3647C11.1357 19.5631 10.375 17.8704 10.375 16C10.375 15.0885 10.5557 14.2191 10.8832 13.4258C10.7147 13.4205 10.5452 13.4178 10.375 13.4178C8.27848 13.4178 6.30047 13.8269 4.82194 14.4652C4.08472 14.7836 3.43845 15.1732 2.9641 15.6265C2.49575 16.074 2.125 16.6547 2.125 17.3383Z" fill="black"/>
<path d="M17.125 11.25C14.5016 11.25 12.375 13.3766 12.375 16C12.375 18.6234 14.5016 20.75 17.125 20.75C19.7484 20.75 21.875 18.6234 21.875 16C21.875 13.3766 19.7484 11.25 17.125 11.25ZM17.8896 13.9277V15.6952L19.3204 17.1259L18.2597 18.1866L16.3896 16.3165V13.9277H17.8896Z" fill="black"/>
</svg>
