<svg width="24" height="24" viewBox="0 0 24 24" fill="none" xmlns="http://www.w3.org/2000/svg">
<path d="M12.0088 3.50244C11.0666 3.50244 10.3027 4.26629 10.3027 5.20854C10.3027 6.1508 11.0666 6.91465 12.0088 6.91465C12.9511 6.91465 13.7149 6.1508 13.7149 5.20854C13.7149 4.26629 12.9511 3.50244 12.0088 3.50244Z" fill="black"/>
<path d="M5.6104 15.2827C4.66815 15.2827 3.9043 16.0466 3.9043 16.9888C3.9043 17.9311 4.66815 18.6949 5.6104 18.6949C6.55266 18.6949 7.3165 17.9311 7.3165 16.9888C7.3165 16.0466 6.55266 15.2827 5.6104 15.2827Z" fill="black"/>
<path d="M16.6836 16.9893C16.6836 16.0471 17.4474 15.2832 18.3897 15.2832C19.332 15.2832 20.0958 16.0471 20.0958 16.9893C20.0958 17.9316 19.332 18.6954 18.3897 18.6954C17.4474 18.6954 16.6836 17.9316 16.6836 16.9893Z" fill="black"/>
<path d="M7.40039 6.11003C7.40039 3.56425 9.46415 1.50049 12.0099 1.50049C14.5557 1.50049 16.6195 3.56425 16.6195 6.11003C16.6195 8.44362 14.8854 10.3722 12.6355 10.6775V13.1857L14.9739 14.7962C15.8173 13.8654 17.0358 13.2808 18.3908 13.2808C20.9366 13.2808 23.0003 15.3445 23.0003 17.8903C23.0003 20.4361 20.9366 22.4998 18.3908 22.4998C15.845 22.4998 13.7812 20.4361 13.7812 17.8903C13.7812 17.1488 13.9564 16.4481 14.2675 15.8274L12.0105 14.273L9.73812 15.838C10.046 16.456 10.2191 17.1529 10.2191 17.8903C10.2191 20.4361 8.15532 22.4998 5.60954 22.4998C3.06376 22.4998 1 20.4361 1 17.8903C1 15.3445 3.06376 13.2808 5.60954 13.2808C6.96877 13.2808 8.1906 13.8691 9.03427 14.8049L11.3855 13.1856V10.6776C9.13509 10.3729 7.40039 8.44405 7.40039 6.11003ZM12.0099 2.75049C10.1545 2.75049 8.65039 4.25461 8.65039 6.11003C8.65039 6.95714 8.96391 7.73101 9.48125 8.32196C10.185 7.73842 11.0657 7.38428 12.0292 7.38428C12.9823 7.38428 13.8547 7.73091 14.5547 8.30345C15.0624 7.7149 15.3695 6.94832 15.3695 6.11003C15.3695 4.25461 13.8654 2.75049 12.0099 2.75049ZM2.25 17.8903C2.25 18.7379 2.56385 19.5121 3.08168 20.1032C3.7856 19.5191 4.66676 19.1646 5.63076 19.1646C6.58333 19.1646 7.4553 19.5108 8.15511 20.0828C8.66238 19.4944 8.96909 18.7282 8.96909 17.8903C8.96909 16.0349 7.46497 14.5308 5.60954 14.5308C3.75412 14.5308 2.25 16.0349 2.25 17.8903ZM15.0312 17.8903C15.0312 18.7375 15.3449 19.5115 15.8624 20.1025C16.566 19.5191 17.4467 19.165 18.4101 19.165C19.363 19.165 20.2353 19.5116 20.9353 20.084C21.4432 19.4954 21.7503 18.7287 21.7503 17.8903C21.7503 16.0349 20.2462 14.5308 18.3908 14.5308C16.5354 14.5308 15.0312 16.0349 15.0312 17.8903Z" fill="black"/>
</svg>
