<svg width="24" height="24" viewBox="0 0 24 24" fill="none" xmlns="http://www.w3.org/2000/svg">
<path fill-rule="evenodd" clip-rule="evenodd" d="M6.17773 7.28496C6.17773 5.0344 8.00217 3.20996 10.2527 3.20996C12.5033 3.20996 14.3277 5.0344 14.3277 7.28496C14.3277 9.53552 12.5033 11.36 10.2527 11.36C8.00217 11.36 6.17773 9.53552 6.17773 7.28496ZM2 20.7811V17.3338C2 16.6502 2.37088 16.0695 2.83939 15.622C3.31391 15.1687 3.96041 14.779 4.6979 14.4607C6.17695 13.8223 8.15566 13.4133 10.2529 13.4133C10.8959 13.4133 11.5277 13.4518 12.1374 13.5235C11.9718 13.9828 11.8633 14.4702 11.8209 14.9781L10.2539 13.8247L8.67702 14.9853L9.26324 16.2932L8.53605 20.7811H2ZM11.818 15.0138L11.2446 16.2932L11.9718 20.7811H14.2871C14.155 20.6355 14.0228 20.4846 13.8934 20.3298C13.004 19.2661 11.8008 17.5245 11.8008 15.4627C11.8008 15.3115 11.8066 15.1618 11.818 15.0138ZM17.6489 11.1912C15.2628 11.1912 13.3008 13.0885 13.3008 15.4627C13.3008 16.9678 14.1995 18.3575 15.0441 19.3675C15.6982 20.1498 16.4397 20.8333 16.8483 21.21C16.9674 21.3198 17.0582 21.4035 17.1103 21.456L17.6418 21.9912L18.1733 21.456C18.2254 21.4036 18.3166 21.3196 18.4364 21.2093L18.4366 21.2091C18.8459 20.8323 19.5882 20.1488 20.2423 19.3681C21.0883 18.3583 21.9893 16.9684 21.9893 15.4627C21.9893 13.1365 20.1135 11.2651 17.7881 11.1939L17.7807 11.1912H17.6489ZM16.252 15.5669C16.252 14.7968 16.8762 14.1726 17.6462 14.1726C18.4163 14.1726 19.0405 14.7968 19.0405 15.5669C19.0405 16.3369 18.4163 16.9612 17.6462 16.9612C16.8762 16.9612 16.252 16.3369 16.252 15.5669Z" fill="black"/>
</svg>
