<svg width="24" height="24" viewBox="0 0 24 24" fill="none" xmlns="http://www.w3.org/2000/svg">
<path d="M9.59453 3.21484C7.34397 3.21484 5.51953 5.03928 5.51953 7.28984C5.51953 9.5404 7.34397 11.3648 9.59453 11.3648C11.8451 11.3648 13.6695 9.5404 13.6695 7.28984C13.6695 5.03928 11.8451 3.21484 9.59453 3.21484ZM19.0371 3.21484V12.969L22.6564 9.17651L21.5712 8.14093L20.5371 9.22455V3.21484L19.0371 3.21484ZM18.0391 13.0015V3.24728L14.4198 7.03979L15.5049 8.07538L16.5391 6.99176V13.0015H18.0391ZM1.3418 20.7861V17.3388C1.3418 16.6552 1.71268 16.0745 2.18119 15.627C2.65571 15.1737 3.30221 14.784 4.03969 14.4657C5.51875 13.8274 7.49746 13.4183 9.59473 13.4183C11.692 13.4183 13.6707 13.8274 15.1498 14.4657C15.8872 14.784 16.5337 15.1737 17.0083 15.627C17.4768 16.0745 17.8477 16.6552 17.8477 17.3388V20.7861H1.3418Z" fill="black"/>
</svg>
