<svg width="24" height="24" viewBox="0 0 24 24" fill="none" xmlns="http://www.w3.org/2000/svg">
<path d="M11.9988 3.21436C9.74827 3.21436 7.92383 5.03879 7.92383 7.28936C7.92383 9.53992 9.74827 11.3644 11.9988 11.3644C14.2494 11.3644 16.0738 9.53992 16.0738 7.28936C16.0738 5.03879 14.2494 3.21436 11.9988 3.21436Z" fill="black"/>
<path d="M3.74609 17.3382V20.7855H10.2821L11.0093 16.2976L10.4231 14.9897L12 13.8291L13.5769 14.9897L12.9907 16.2976L13.7179 20.7855H20.252V17.3382C20.252 16.6546 19.8811 16.0739 19.4126 15.6263C18.938 15.1731 18.2915 14.7834 17.5541 14.4651C16.075 13.8267 14.0963 13.4177 11.999 13.4177C9.90176 13.4177 7.92305 13.8267 6.44399 14.4651C5.70651 14.7834 5.06001 15.1731 4.58549 15.6263C4.11698 16.0739 3.74609 16.6546 3.74609 17.3382Z" fill="black"/>
</svg>
