<svg width="24" height="24" viewBox="0 0 24 24" fill="none" xmlns="http://www.w3.org/2000/svg">
<path d="M2.85059 5.60059C2.85059 4.08179 4.08203 2.85059 5.60059 2.85059H18.3994C19.918 2.85059 21.1494 4.08179 21.1494 5.60059V18.3994C21.1494 19.9182 19.918 21.1494 18.3994 21.1494H5.60059C4.08203 21.1494 2.85059 19.9182 2.85059 18.3994V5.60059ZM12 6.36975C9.92871 6.36975 8.25 8.04871 8.25 10.1198C8.25 12.1908 9.92871 13.8698 12 13.8698C14.0713 13.8698 15.75 12.1908 15.75 10.1198C15.75 8.04871 14.0713 6.36975 12 6.36975ZM19.6475 18.4673C17.6914 16.2684 14.999 14.8873 12 14.8873C9.00098 14.8873 6.30859 16.2678 4.35254 18.4659C4.38672 19.1254 4.93262 19.6494 5.60059 19.6494H18.3994C19.0674 19.6494 19.6123 19.1261 19.6475 18.4673Z" fill="black"/>
</svg>
