<svg width="24" height="24" viewBox="0 0 24 24" fill="none" xmlns="http://www.w3.org/2000/svg">
<path d="M14.3281 7.28496C14.3281 5.0344 12.5037 3.20996 10.2531 3.20996C8.00256 3.20996 6.17813 5.0344 6.17813 7.28496C6.17813 9.53552 8.00256 11.36 10.2531 11.36C12.5037 11.36 14.3281 9.53552 14.3281 7.28496Z" fill="black"/>
<path d="M14.5456 14.0086C14.4083 14.7598 14.6616 15.5309 15.2203 16.0546L15.5675 16.3799C15.4217 16.55 15.2636 16.7207 15.0922 16.8913C14.9329 17.0499 14.7742 17.1966 14.6168 17.3321L14.1761 16.8998C13.6298 16.364 12.8487 16.1425 12.1024 16.3119L10.0742 16.7723C9.04953 17.0049 8.32227 17.9157 8.32227 18.9665V20.7813H2V17.3341C2 16.6505 2.37088 16.0697 2.83939 15.6222C3.31392 15.1689 3.96041 14.7793 4.6979 14.461C6.17695 13.8226 8.15566 13.4136 10.2529 13.4136C11.7992 13.4136 13.281 13.6359 14.5456 14.0086Z" fill="black"/>
<path d="M20.25 12.3164C20.25 11.9022 19.9142 11.5664 19.5 11.5664H17.1865C16.83 11.5664 16.5228 11.8173 16.4516 12.1666L16.0241 14.2631C15.9721 14.5182 16.0561 14.7821 16.2461 14.9602L17.5606 16.1923C17.1995 16.7752 16.7375 17.37 16.1505 17.9543C15.5892 18.5132 15.025 18.9529 14.4786 19.2978L13.1257 17.9707C12.9436 17.7921 12.6832 17.7182 12.4345 17.7747L10.4062 18.2351C10.0647 18.3126 9.82227 18.6162 9.82227 18.9665V21.2421C9.82227 21.6479 10.145 21.9801 10.5506 21.9918C11.4681 22.0184 13.011 21.8253 14.7145 20.8982C14.7197 20.8954 14.7249 20.8926 14.73 20.8898C15.537 20.4487 16.3798 19.8428 17.2089 19.0173C18.0693 18.1607 18.7034 17.2756 19.1629 16.4147C19.1672 16.407 19.1714 16.3992 19.1754 16.3913C19.9901 14.855 20.25 13.3972 20.25 12.3164Z" fill="black"/>
</svg>
