<svg width="24" height="24" viewBox="0 0 24 24" fill="none" xmlns="http://www.w3.org/2000/svg">
<path d="M11.0644 1H1V5.60442H11.0644L14.0121 3.30221L11.0644 1ZM5.25 3.80249H3.25V2.80153H5.25V3.80249Z" fill="black"/>
<path d="M17.0856 12.5971H1V17.2015H17.0856L20.0333 14.8993L17.0856 12.5971ZM5.25 15.3995H3.25V14.3986H5.25V15.3995Z" fill="black"/>
<path d="M1 6.79853H14.0659L17.0135 9.10074L14.0659 11.4029H1V6.79853ZM5.25 9.60102V8.60006H3.25V9.60102H5.25Z" fill="black"/>
<path d="M20.0523 18.3956H1V23H20.0523L23 20.6978L20.0523 18.3956ZM5.25 21.1981H3.25V20.1971H5.25V21.1981Z" fill="black"/>
</svg>
