<svg width="24" height="24" viewBox="0 0 24 24" fill="none" xmlns="http://www.w3.org/2000/svg">
<path d="M17.3266 19.0455L19.9409 21.6598L21.0016 20.5991L2.7423 2.33984L1.68164 3.4005L2.52728 4.24614C2.23799 4.57255 2.0625 5.00146 2.0625 5.47119V17.6357C2.0625 18.658 2.89355 19.4868 3.91992 19.4868H16.123C16.582 19.4868 17.0023 19.3207 17.3266 19.0455Z" fill="black"/>
<path d="M17.3266 19.0455L19.9409 21.6598L21.0016 20.5991L2.7423 2.33984L1.68164 3.4005L2.52728 4.24614C2.23799 4.57255 2.0625 5.00146 2.0625 5.47119V17.6357C2.0625 18.658 2.89355 19.4868 3.91992 19.4868H16.123C16.582 19.4868 17.0023 19.3207 17.3266 19.0455Z" fill="black" fill-opacity="0.2"/>
<path d="M17.9805 12.6296V14.8477L6.75293 3.62012H16.123C17.1484 3.62012 17.9805 4.44897 17.9805 5.47119V10.4402L22.3174 6.12671V17.0688L17.9805 12.6296Z" fill="black"/>
<path d="M17.9805 12.6296V14.8477L6.75293 3.62012H16.123C17.1484 3.62012 17.9805 4.44897 17.9805 5.47119V10.4402L22.3174 6.12671V17.0688L17.9805 12.6296Z" fill="black" fill-opacity="0.2"/>
</svg>
