<svg width="24" height="24" viewBox="0 0 24 24" fill="none" xmlns="http://www.w3.org/2000/svg">
<path d="M12.5105 2.32103L12.0011 1.84961L11.4917 2.32103C9.4528 4.20784 6.85329 4.72171 3.63459 4.78117L2.89844 4.79477V5.53104C2.89844 10.6249 4.06427 14.0535 5.77658 16.5581C7.47713 19.0455 9.67757 20.5565 11.5765 21.8594L12.0008 22.1505L12.4251 21.8594C14.3241 20.5565 16.5246 19.0455 18.2252 16.5581C19.9376 14.0535 21.1035 10.6249 21.1035 5.53104V4.79477L20.3674 4.78117C17.1487 4.72171 14.5493 4.20785 12.5105 2.32103ZM10.3821 8.68817L9.72648 7.62389C10.388 7.21639 11.1674 6.98145 11.9997 6.98145C14.3181 6.98145 16.2119 8.79948 16.3331 11.0877L16.8632 10.5576L17.7471 11.4415L15.6519 13.5367L13.5566 11.4415L14.4405 10.5576L15.0871 11.2042C15.0257 9.55202 13.667 8.23145 11.9997 8.23145C11.4055 8.23145 10.8522 8.39861 10.3821 8.68817ZM9.55948 12.0276L8.91069 11.3788C8.94149 13.0585 10.3127 14.4106 11.9997 14.4106C12.5942 14.4106 13.1477 14.2433 13.6179 13.9535L14.2737 15.0177C13.612 15.4255 12.8324 15.6606 11.9997 15.6606C9.6632 15.6606 7.75797 13.814 7.6638 11.5006L7.13682 12.0276L6.25293 11.1437L8.34815 9.04849L10.4434 11.1437L9.55948 12.0276Z" fill="black"/>
</svg>
