<svg width="24" height="24" viewBox="0 0 24 24" fill="none" xmlns="http://www.w3.org/2000/svg">
<path d="M4.5 5.25C4.5 4.83579 4.83579 4.5 5.25 4.5H10.8112V3H5.25C4.00736 3 3 4.00736 3 5.25V18.75C3 19.9926 4.00736 21 5.25 21H18.75C19.9926 21 21 19.9926 21 18.75V13.1919H19.5V18.75C19.5 19.1642 19.1642 19.5 18.75 19.5H5.25C4.83579 19.5 4.5 19.1642 4.5 18.75V5.25Z" fill="black"/>
<path d="M17.7422 6.24233L17.7421 3L16.2421 3.00003L16.2422 6.24237L13 6.24244L13 7.74244L16.2422 7.74237L16.2423 10.9844L17.7423 10.9844L17.7422 7.74233L20.9844 7.74226L20.9844 6.24226L17.7422 6.24233Z" fill="black"/>
</svg>
