<svg width="24" height="24" viewBox="0 0 24 24" fill="none" xmlns="http://www.w3.org/2000/svg">
<path d="M15.0842 14.5631V13.3617H15.5798C15.9115 13.3617 16.1805 13.6306 16.1805 13.9624C16.1805 14.2941 15.9115 14.5631 15.5798 14.5631H15.0842Z" fill="black"/>
<path d="M12.0001 2.6001L22.7746 10.637L21.8777 11.8394L20.0987 10.5123V20.798H3.90161V10.5123L2.12245 11.8394L1.22559 10.637L12.0001 2.6001ZM11.3823 11.9927V16.9915H12.6323V11.9927H11.3823ZM15.5798 15.8131C16.6019 15.8131 17.4305 14.9845 17.4305 13.9624C17.4305 12.9403 16.6019 12.1117 15.5798 12.1117H14.4592C14.1141 12.1117 13.8342 12.3915 13.8342 12.7367L13.8342 16.9855H15.0842V15.8131H15.5798ZM7.19629 13.366H8.58569L7.39343 15.9775C7.3051 16.171 7.32122 16.3961 7.43622 16.575C7.55121 16.7539 7.7493 16.8621 7.96198 16.8621H10.3168V15.6121H8.93437L10.1266 13.0005C10.215 12.8071 10.1988 12.5819 10.0838 12.403C9.96885 12.2241 9.77076 12.116 9.55808 12.116H7.19629V13.366Z" fill="black"/>
</svg>
